<?xml version="1.0" standalone="no"?>
<!DOCTYPE svg PUBLIC "-//W3C//DTD SVG 1.1//EN" "http://www.w3.org/Graphics/SVG/1.1/DTD/svg11.dtd" >
<svg xmlns="http://www.w3.org/2000/svg">
<metadata></metadata>
<defs>
<font id="texgyreheroscnbold_italic" horiz-adv-x="456" >
<font-face units-per-em="1000" ascent="793" descent="-207" />
<missing-glyph horiz-adv-x="228" />
<glyph unicode="IJ" horiz-adv-x="691" d="M27 0l126 718h123l-126 -718h-123zM257 134q0 42 16 137h115q-12 -76 -12 -105q0 -33 13.5 -48t42.5 -15q37 0 56 23t30 82l89 510h123l-89 -510q-39 -226 -225 -226q-81 0 -120 37.5t-39 114.5z" />
<glyph unicode="ij" horiz-adv-x="457" d="M27 0l93 532h114l-93 -532h-114zM135 618l20 115h114l-20 -115h-114zM163 -214l20 112h20q34 0 42 49l102 585h115l-102 -588q-16 -89 -52.5 -123.5t-115.5 -34.5h-29zM363 618l20 115h114l-20 -115h-114z" />
<glyph unicode="fk" horiz-adv-x="729" d="M41 0l75 432h-63l18 100h63l7 43q13 78 52.5 115t109.5 37q22 0 52 -2l-20 -113h-32q-27 0 -34.5 -9.5t-15.5 -49.5l-4 -21h75l-18 -100h-75l-75 -432h-115zM300 0l125 718h115l-68 -388l179 202h141l-190 -206l102 -326h-138l-64 228l-58 -60l-29 -168h-115z" />
<glyph unicode="ff" horiz-adv-x="528" d="M41 0l75 432h-63l18 100h63l7 43q13 78 52.5 115t109.5 37q22 0 52 -2l-20 -113h-32q-27 0 -34.5 -9.5t-15.5 -49.5l-4 -21h144l7 43q13 78 52.5 115t109.5 37q22 0 52 -2l-20 -113h-32q-27 0 -34.5 -9.5t-15.5 -49.5l-4 -21h75l-18 -100h-75l-75 -432h-115l75 432h-144 l-75 -432h-115z" />
<glyph unicode="fi" horiz-adv-x="501" d="M41 0l75 432h-63l18 100h63l7 43q13 78 52.5 115t109.5 37q22 0 52 -2l-20 -113h-32q-27 0 -34.5 -9.5t-15.5 -49.5l-4 -21h75l-18 -100h-75l-75 -432h-115zM301 0l93 532h114l-93 -532h-114zM409 618l20 115h114l-20 -115h-114z" />
<glyph unicode="fl" horiz-adv-x="501" d="M41 0l75 432h-63l18 100h63l7 43q13 78 52.5 115t109.5 37q22 0 52 -2l-20 -113h-32q-27 0 -34.5 -9.5t-15.5 -49.5l-4 -21h75l-18 -100h-75l-75 -432h-115zM300 0l125 718h115l-125 -718h-115z" />
<glyph unicode="ffi" horiz-adv-x="760" d="M41 0l75 432h-63l18 100h63l7 43q13 78 52.5 115t109.5 37q22 0 52 -2l-20 -113h-32q-27 0 -34.5 -9.5t-15.5 -49.5l-4 -21h144l7 43q13 78 52.5 115t109.5 37q22 0 52 -2l-20 -113h-32q-27 0 -34.5 -9.5t-15.5 -49.5l-4 -21h75l-18 -100h-75l-75 -432h-115l75 432h-144 l-75 -432h-115zM560 0l93 532h114l-93 -532h-114zM668 618l20 115h114l-20 -115h-114z" />
<glyph unicode="ffl" horiz-adv-x="760" d="M41 0l75 432h-63l18 100h63l7 43q13 78 52.5 115t109.5 37q22 0 52 -2l-20 -113h-32q-27 0 -34.5 -9.5t-15.5 -49.5l-4 -21h144l7 43q13 78 52.5 115t109.5 37q22 0 52 -2l-20 -113h-32q-27 0 -34.5 -9.5t-15.5 -49.5l-4 -21h75l-18 -100h-75l-75 -432h-115l75 432h-144 l-75 -432h-115zM559 0l125 718h115l-125 -718h-115z" />
<glyph unicode=" "  horiz-adv-x="228" />
<glyph unicode="&#x09;" horiz-adv-x="228" />
<glyph unicode="&#xa0;" horiz-adv-x="228" />
<glyph unicode="!" horiz-adv-x="273" d="M47 0l25 141h119l-24 -141h-120zM111 199l26 336l32 183h126l-32 -183l-91 -336h-61z" />
<glyph unicode="&#x22;" horiz-adv-x="389" d="M128 447l47 271h81l-48 -271h-80zM275 447l48 271h80l-47 -271h-81z" />
<glyph unicode="#" d="M19 199l26 90h79l35 120h-80l26 90h80l57 199h77l-57 -199h79l58 199h77l-58 -199h80l-26 -90h-79l-35 -120h80l-26 -90h-80l-57 -199h-77l57 199h-79l-58 -199h-77l58 199h-80zM201 289h80l35 120h-80z" />
<glyph unicode="$" d="M25 132q0 30 8 83h107q-3 -28 -3 -51q0 -32 13 -49t45 -26l37 210q-80 28 -110.5 63t-30.5 96q0 52 21 105t56 88q28 29 58 42t77 17l12 65h37l-11 -65q75 -12 107 -50t32 -106q0 -22 -3 -53h-105q2 32 2 40q0 33 -12 47.5t-39 15.5l-33 -187q90 -40 119.5 -73.5 t29.5 -96.5q0 -102 -61 -177t-164 -87l-17 -98h-37l17 98q-84 12 -118 47t-34 102zM200 503q0 -29 12.5 -45t42.5 -27l30 173q-39 -4 -62 -32t-23 -69zM233 89q40 5 65.5 37.5t25.5 79.5q0 52 -58 76z" />
<glyph unicode="%" horiz-adv-x="729" d="M82 445q0 117 45 191t121 74q101 0 101 -115q0 -117 -44.5 -190t-120.5 -73q-102 0 -102 113zM136 -19l454 729h60l-453 -729h-61zM162 442q0 -41 32 -41q26 0 39 24q13 23 24.5 79.5t11.5 96.5t-32 40q-27 0 -39 -23q-14 -25 -25 -80.5t-11 -95.5zM442 101 q0 118 45 191.5t121 73.5q101 0 101 -115q0 -117 -44.5 -190t-120.5 -73q-102 0 -102 113zM522 98q0 -41 32 -41q26 0 39 24q13 23 24.5 79t11.5 97q0 40 -33 40q-34 0 -54 -63t-20 -136z" />
<glyph unicode="&#x26;" horiz-adv-x="592" d="M43 144q0 151 153 250l14 9q-31 59 -31 114q0 83 55 142t131 59q55 0 88.5 -35.5t33.5 -93.5q0 -123 -131 -208l62 -126q33 50 50 118h102q-18 -71 -40.5 -116.5t-64.5 -99.5l79 -157h-138l-30 61q-45 -43 -85.5 -61.5t-91.5 -18.5q-71 0 -113.5 44.5t-42.5 118.5z M162 177q0 -35 18.5 -56.5t49.5 -21.5q46 0 103 50l-80 165q-60 -48 -75.5 -72.5t-15.5 -64.5zM286 542q0 -27 29 -78q39 28 55 52t16 53q0 43 -40 43q-25 0 -42.5 -20.5t-17.5 -49.5z" />
<glyph unicode="'" horiz-adv-x="195" d="M105 447l47 271h81l-47 -271h-81z" />
<glyph unicode="(" horiz-adv-x="273" d="M32 126q0 154 55 297t184 311h84q-113 -176 -161.5 -334t-48.5 -322q0 -125 46 -285h-85q-41 99 -57.5 173.5t-16.5 159.5z" />
<glyph unicode=")" horiz-adv-x="273" d="M-51 -207q112 172 161 331t49 324q0 124 -46 286h85q41 -101 57.5 -175.5t16.5 -159.5q0 -153 -56.5 -298t-182.5 -308h-84z" />
<glyph unicode="*" horiz-adv-x="319" d="M90 560l32 73l77 -34l21 119h69l-20 -119l88 34l7 -73l-91 -32l39 -97l-59 -44l-40 91l-72 -91l-44 44l73 97z" />
<glyph unicode="+" horiz-adv-x="479" d="M77 207v86h140v140h86v-140h139v-86h-139v-139h-86v139h-140z" />
<glyph unicode="," horiz-adv-x="228" d="M-7 -168l9 53q38 14 57.5 39.5t31.5 75.5h-69l26 146h123l-22 -126q-28 -158 -156 -188z" />
<glyph unicode="-" horiz-adv-x="273" d="M30 215l23 130h228l-23 -130h-228z" />
<glyph unicode="." horiz-adv-x="228" d="M22 0l26 146h123l-26 -146h-123z" />
<glyph unicode="/" horiz-adv-x="228" d="M-60 -19l317 756h96l-317 -756h-96z" />
<glyph unicode="0" d="M41 178q0 118 34.5 251.5t80.5 193.5q66 87 166 87q154 0 154 -195q0 -123 -33.5 -253.5t-80.5 -192.5q-66 -88 -166 -88q-80 0 -117.5 53.5t-37.5 143.5zM156 178q0 -85 59 -85q47 0 75 54q24 48 48 170t24 198q0 83 -59 83q-47 0 -72.5 -48.5t-48.5 -170.5 q-26 -137 -26 -201z" />
<glyph unicode="1" d="M112 489l17 98h16q132 0 165 123h94l-124 -710h-115l86 489h-139z" />
<glyph unicode="2" d="M-9 0q22 107 69.5 169.5t179.5 162.5q65 50 93 92.5t28 90.5q0 36 -18 56.5t-49 20.5q-43 0 -67 -30.5t-38 -102.5h-111q52 251 235 251q76 0 120.5 -46t44.5 -125q0 -116 -76 -205q-21 -24 -39 -39t-100 -76q-55 -42 -73.5 -58.5t-31.5 -36.5h253l-22 -124h-398z" />
<glyph unicode="3" d="M24 143q0 33 7 75h112q-5 -26 -5 -44q0 -38 17.5 -59.5t49.5 -21.5q44 0 76.5 42.5t32.5 100.5q0 40 -26 57t-89 18l18 100h18q57 0 86.5 32t29.5 87q0 68 -60 68q-77 0 -98 -116h-106q22 112 81 170t147 58q71 0 112.5 -40.5t41.5 -110.5q0 -127 -100 -183 q65 -33 65 -119q0 -111 -72.5 -193.5t-172.5 -82.5q-76 0 -120.5 43.5t-44.5 118.5z" />
<glyph unicode="4" d="M20 157l21 121l289 432h130l-77 -444h64l-19 -109h-64l-28 -157h-114l27 157h-229zM123 266h145l56 309z" />
<glyph unicode="5" d="M23 143q0 19 3 47h115q-1 -9 -1 -21q0 -36 17 -56t47 -20q47 0 80.5 50.5t33.5 121.5q0 88 -69 88q-49 0 -83 -51l-102 6l108 390h320l-21 -118h-236l-48 -154q54 39 108 39q66 0 105.5 -46.5t39.5 -123.5q0 -123 -73.5 -218.5t-183.5 -95.5q-71 0 -115.5 44.5 t-44.5 117.5z" />
<glyph unicode="6" d="M40 182q0 93 24 203.5t59 178.5q36 70 89.5 108t116.5 38q148 0 148 -155v-25h-114l1 12q0 26 -14.5 41t-40.5 15q-46 0 -76 -46.5t-56 -154.5q27 34 55 48t66 14q67 0 105.5 -45t38.5 -123q0 -119 -71 -214.5t-172 -95.5q-77 0 -118 52t-41 149zM147 187q0 -43 19 -68.5 t51 -25.5q44 0 76 51t32 121q0 38 -18 60t-49 22q-47 0 -79 -46t-32 -114z" />
<glyph unicode="7" d="M72 0q73 313 308 574h-290l24 124h411l-19 -108q-238 -261 -316 -590h-118z" />
<glyph unicode="8" d="M27 149q0 158 124 228q-28 21 -39 43.5t-11 56.5q0 97 64.5 165t155.5 68q70 0 112 -40t42 -108q0 -120 -95 -180q35 -26 48.5 -52.5t13.5 -66.5q0 -112 -72 -197t-175 -85q-79 0 -123.5 44.5t-44.5 123.5zM148 173q0 -38 18 -59t49 -21q43 0 74 42t31 100 q0 38 -17.5 59.5t-49.5 21.5q-44 0 -74.5 -41t-30.5 -102zM212 491q0 -31 16.5 -50t43.5 -19q37 0 63 32t26 78q0 31 -15 48.5t-42 17.5q-38 0 -65 -31t-27 -76z" />
<glyph unicode="9" d="M34 135q0 18 1 29h114q0 -37 12.5 -54t40.5 -17q44 0 77 46t56 157q-49 -63 -123 -63q-65 0 -103.5 45t-38.5 122q0 126 70 218t176 92q77 0 117.5 -52.5t40.5 -151.5q0 -113 -34 -238t-81 -187q-76 -100 -178 -100q-66 0 -106.5 42.5t-40.5 111.5zM188 424q0 -79 65 -79 q48 0 80 47t32 117q0 86 -68 86q-48 0 -78.5 -47.5t-30.5 -123.5z" />
<glyph unicode=":" horiz-adv-x="273" d="M45 0l25 146h124l-26 -146h-123zM109 366l26 146h123l-25 -146h-124z" />
<glyph unicode=";" horiz-adv-x="273" d="M16 -168l9 53q38 14 57.5 39.5t31.5 75.5h-69l26 146h123l-22 -126q-16 -84 -60.5 -133t-95.5 -55zM109 366l26 146h123l-25 -146h-124z" />
<glyph unicode="&#x3c;" horiz-adv-x="479" d="M102 221v58l283 318v-130l-193 -217l193 -217v-130z" />
<glyph unicode="=" horiz-adv-x="479" d="M77 117v86h365v-86h-365zM77 297v86h365v-86h-365z" />
<glyph unicode="&#x3e;" horiz-adv-x="479" d="M102 33l193 217l-193 217v130l283 -318v-58l-283 -318v130z" />
<glyph unicode="?" horiz-adv-x="501" d="M105 493q25 116 87.5 175t151.5 59q78 0 127 -42.5t49 -119.5q0 -73 -29.5 -124t-106.5 -111q-35 -27 -48.5 -50t-22.5 -72h-108q13 80 35.5 118t82.5 85q71 54 71 127q0 34 -17.5 52.5t-49.5 18.5q-37 0 -64.5 -28t-38.5 -72l-3 -16h-116zM165 0l25 141h119l-24 -141 h-120z" />
<glyph unicode="@" horiz-adv-x="800" d="M122 280q0 87 32.5 171.5t86 146.5t125.5 100.5t147 38.5q103 0 171 -70.5t68 -177.5q0 -130 -86 -241t-182 -111q-15 0 -25.5 11.5t-10.5 28.5q0 4 2 16q-55 -56 -99 -56t-74 39t-30 96q0 100 70 193t153 93q63 0 87 -65l20 53h72l-92 -255q-14 -39 -14 -51t10 -12 q47 0 88 74.5t41 162.5t-49.5 140t-133.5 52q-119 0 -207 -111t-88 -261q0 -102 54 -163t145 -61q96 0 187 81h73q-70 -87 -136.5 -124t-142.5 -37q-116 0 -189 83.5t-73 215.5zM339 300q0 -29 13.5 -46t37.5 -17q44 0 84 51.5t40 109.5q0 28 -14.5 45.5t-37.5 17.5 q-44 0 -83.5 -51.5t-39.5 -109.5z" />
<glyph unicode="A" horiz-adv-x="592" d="M-14 0l336 718h142l82 -718h-134l-12 148h-217l-67 -148h-130zM237 272h150l-23 287z" />
<glyph unicode="B" horiz-adv-x="592" d="M32 0l125 718h287q73 0 112.5 -37.5t39.5 -106.5q0 -130 -101 -187q36 -21 51 -48.5t15 -72.5q0 -110 -71 -189q-40 -44 -84 -60.5t-125 -16.5h-249zM172 124h151q52 0 83 36t31 89q0 31 -20 49t-55 18h-157zM226 437h145q47 0 75 27.5t28 73.5q0 56 -79 56h-141z" />
<glyph unicode="C" horiz-adv-x="592" d="M58 241q0 135 45.5 248.5t126 180.5t178.5 67q94 0 151.5 -60t57.5 -158q0 -20 -1 -36h-124q-3 64 -28 94t-76 30q-87 0 -144.5 -100t-57.5 -241q0 -74 29 -114.5t82 -40.5q51 0 88.5 32t65.5 103h123q-97 -265 -301 -265q-102 0 -158.5 67.5t-56.5 192.5z" />
<glyph unicode="D" horiz-adv-x="592" d="M32 0l125 718h261q92 0 140.5 -59.5t48.5 -172.5q0 -124 -40 -235t-114.5 -181t-165.5 -70h-255zM174 124h120q53 0 96.5 50t66 127t22.5 161q0 132 -104 132h-119z" />
<glyph unicode="E" horiz-adv-x="547" d="M32 0l125 718h433l-22 -127h-313l-26 -151h287l-22 -127h-287l-32 -186h326l-22 -127h-447z" />
<glyph unicode="F" horiz-adv-x="501" d="M32 0l125 718h419l-22 -127h-296l-28 -162h259l-22 -127h-259l-53 -302h-123z" />
<glyph unicode="G" horiz-adv-x="638" d="M59 249q0 128 46 239.5t130.5 180t187.5 68.5q98 0 157.5 -58t59.5 -154q0 -17 -1 -30h-123v6q0 47 -32 79.5t-78 32.5q-93 0 -156.5 -102t-63.5 -243q0 -76 34.5 -118t96.5 -42q113 0 175 158h-137l21 121h247l-68 -387h-82l3 90q-53 -61 -98 -85t-104 -24 q-99 0 -157 72t-58 196z" />
<glyph unicode="H" horiz-adv-x="592" d="M28 0l125 718h123l-47 -272h230l47 272h123l-125 -718h-123l56 322h-230l-56 -322h-123z" />
<glyph unicode="I" horiz-adv-x="228" d="M22 0l126 718h123l-126 -718h-123z" />
<glyph unicode="J" d="M19 134q0 42 16 137h115q-12 -76 -12 -105q0 -33 13.5 -48t42.5 -15q37 0 56 23t30 82l89 510h123l-89 -510q-39 -226 -225 -226q-81 0 -120 37.5t-39 114.5z" />
<glyph unicode="K" horiz-adv-x="592" d="M41 0l125 718h123l-51 -292l276 292h159l-292 -294l181 -424h-159l-127 315l-70 -72l-42 -243h-123z" />
<glyph unicode="L" horiz-adv-x="501" d="M32 0l125 718h123l-102 -588h293l-23 -130h-416z" />
<glyph unicode="M" horiz-adv-x="683" d="M27 0l125 718h187v-570l205 570h178l-125 -718h-115l106 609l-217 -609h-123v609l-106 -609h-115z" />
<glyph unicode="N" horiz-adv-x="592" d="M27 0l125 718h129l148 -504l87 504h115l-125 -718h-123l-152 515l-89 -515h-115z" />
<glyph unicode="O" horiz-adv-x="638" d="M58 245q0 136 47 249t130 178t184 65q99 0 162.5 -68t63.5 -195q0 -210 -103 -351.5t-257 -141.5q-105 0 -166 71t-61 193zM184 271q0 -76 33 -119.5t92 -43.5q89 0 150 98.5t61 240.5q0 76 -33 119.5t-91 43.5q-91 0 -151.5 -101t-60.5 -238z" />
<glyph unicode="P" horiz-adv-x="547" d="M32 0l125 718h269q70 0 109.5 -44t39.5 -123q0 -116 -67.5 -204t-166.5 -88h-141l-45 -259h-123zM222 383h114q54 0 84 39t30 103q0 36 -22.5 52.5t-71.5 16.5h-97z" />
<glyph unicode="Q" horiz-adv-x="638" d="M58 244q0 210 103 351.5t258 141.5q101 0 163.5 -69t62.5 -195q0 -218 -116 -370l51 -74l-79 -81l-56 81q-82 -48 -161 -48q-101 0 -163.5 68t-62.5 195zM184 271q0 -77 33 -120t91 -43q32 0 70 19l-48 68l78 81l50 -71q61 108 61 240q0 78 -32.5 121.5t-91.5 43.5 q-90 0 -150.5 -99.5t-60.5 -239.5z" />
<glyph unicode="R" horiz-adv-x="592" d="M32 0l125 718h298q73 0 113 -41.5t40 -117.5q0 -70 -33 -129.5t-91 -85.5q29 -18 40.5 -37.5t11.5 -52.5q0 -39 -19 -146q-6 -34 -6 -57q0 -22 17 -32l-3 -19h-137l-1 27q-1 18 11 100t12 93q0 34 -18.5 47.5t-63.5 13.5h-127l-49 -281h-120zM223 402h144q58 0 86 33.5 t28 89.5q0 69 -72 69h-153z" />
<glyph unicode="S" horiz-adv-x="547" d="M36 162q0 19 5 59h118q-2 -22 -2 -27q0 -43 28.5 -66t80.5 -23q62 0 99.5 29.5t37.5 78.5q0 26 -20 42t-72 32l-60 18q-95 28 -125 61t-30 97q0 117 74.5 195.5t191.5 78.5q94 0 145 -50t51 -131q0 -23 -4 -51h-117v21q0 42 -26 64.5t-74 22.5q-54 0 -87.5 -29t-33.5 -75 q0 -23 11.5 -35.5t39.5 -21.5l136 -43q66 -21 95 -55.5t29 -91.5q0 -121 -79.5 -201t-204.5 -80q-97 0 -152 49t-55 132z" />
<glyph unicode="T" horiz-adv-x="501" d="M84 591l22 127h479l-22 -127h-178l-103 -591h-123l103 591h-178z" />
<glyph unicode="U" horiz-adv-x="592" d="M66 169q0 37 6 73l83 476h125l-81 -466q-4 -20 -4 -44q0 -100 89 -100q113 0 137 137l83 473h125l-81 -467q-23 -131 -96 -200.5t-188 -69.5q-95 0 -146.5 49t-51.5 139z" />
<glyph unicode="V" horiz-adv-x="547" d="M111 718h163v-548l224 548h128l-325 -718h-117z" />
<glyph unicode="W" horiz-adv-x="774" d="M108 0v718h133v-531l175 531h127v-531l189 531h125l-291 -718h-111v565l-191 -565h-156z" />
<glyph unicode="X" horiz-adv-x="547" d="M-19 0l254 367l-118 351h147l64 -232l148 232h142l-240 -345l127 -373h-150l-69 245l-161 -245h-144z" />
<glyph unicode="Y" horiz-adv-x="547" d="M107 718h145l68 -312l171 312h140l-276 -449l-46 -269h-124l48 271z" />
<glyph unicode="Z" horiz-adv-x="501" d="M-10 0l22 127l386 464h-297l22 127h451l-21 -118l-391 -473h311l-23 -127h-460z" />
<glyph unicode="[" horiz-adv-x="273" d="M-13 -196l160 918h202l-17 -96h-101l-127 -726h102l-17 -96h-202z" />
<glyph unicode="\" horiz-adv-x="228" d="M71 737h96l55 -756h-96z" />
<glyph unicode="]" horiz-adv-x="273" d="M-44 -196l17 96h101l126 726h-101l17 96h201l-160 -918h-201z" />
<glyph unicode="^" horiz-adv-x="479" d="M77 323l213 375h82l82 -375h-90l-53 263l-145 -263h-89z" />
<glyph unicode="_" d="M-52 -125l9 50h456l-9 -50h-456z" />
<glyph unicode="`" horiz-adv-x="273" d="M75 748h126l52 -146h-83z" />
<glyph unicode="a" d="M15 101q0 82 44 139.5t116 70.5l107 19q49 9 49 57q0 47 -62 47q-36 0 -56 -17t-32 -57h-110q29 102 80 144t142 42q74 0 114.5 -31.5t40.5 -89.5q0 -17 -3 -33l-50 -288q-5 -32 -5 -49q0 -25 16 -34l-4 -21h-124q-1 16 -1 29q0 15 2 34q-41 -42 -75.5 -59.5t-76.5 -17.5 q-53 0 -82.5 30.5t-29.5 84.5zM133 133q0 -22 12 -34.5t33 -12.5q42 0 77.5 31t42.5 74l12 68q-22 -17 -83 -29q-49 -10 -71.5 -33t-22.5 -64z" />
<glyph unicode="b" horiz-adv-x="501" d="M20 0l125 718h115l-45 -258q34 46 67 66t75 20q66 0 104 -50.5t38 -137.5q0 -95 -30.5 -180t-87 -138.5t-123.5 -53.5q-85 0 -113 84l-13 -70h-112zM170 203q0 -48 20.5 -75t57.5 -27q54 0 91.5 67t37.5 155q0 102 -75 102q-59 0 -95.5 -68t-36.5 -154z" />
<glyph unicode="c" d="M35 170q0 156 74 266t190 110q74 0 118 -44t44 -117q0 -11 -2 -43h-116q-1 45 -14.5 65.5t-44.5 20.5q-57 0 -93 -70t-36 -169q0 -42 17.5 -65t48.5 -23q32 0 58.5 25.5t36.5 67.5h117q-31 -101 -91.5 -154.5t-144.5 -53.5q-79 0 -120.5 47.5t-41.5 136.5z" />
<glyph unicode="d" horiz-adv-x="501" d="M37 180q0 152 69.5 259t168.5 107q42 0 68 -20t44 -66l45 258h115l-125 -718h-113l13 70q-58 -84 -144 -84q-67 0 -104 51t-37 143zM157 209q0 -108 72 -108q57 0 95.5 63t38.5 157q0 104 -75 104q-57 0 -94 -66t-37 -150z" />
<glyph unicode="e" d="M28 179q0 157 75 262t188 105q80 0 122.5 -50t42.5 -145q0 -39 -9 -98l-4 -25h-299q-3 -22 -3 -39q0 -44 21 -67.5t59 -23.5q59 0 86 58h118q-77 -170 -225 -170q-84 0 -128 49.5t-44 143.5zM163 319h178l1 26q1 39 -19.5 62.5t-52.5 23.5q-38 0 -64 -27t-43 -85z" />
<glyph unicode="f" horiz-adv-x="273" d="M41 0l75 432h-63l18 100h63l7 43q13 78 52.5 115t109.5 37q22 0 52 -2l-20 -113h-32q-27 0 -34.5 -9.5t-15.5 -49.5l-4 -21h75l-18 -100h-75l-75 -432h-115z" />
<glyph unicode="g" horiz-adv-x="501" d="M1 -84q0 17 1 27h125q0 -30 15.5 -42t51.5 -12q49 0 77 29t39 93l12 69q-31 -46 -60 -64.5t-73 -18.5q-70 0 -109 49.5t-39 137.5q0 150 70 256t169 106q46 0 72 -23t39 -73l15 82h110l-88 -504q-23 -132 -86.5 -188.5t-168.5 -56.5q-81 0 -126.5 35t-45.5 98zM161 212 q0 -46 18.5 -71.5t52.5 -25.5q56 0 92 61t36 143q0 49 -20 77.5t-55 28.5q-50 0 -87 -63t-37 -150z" />
<glyph unicode="h" horiz-adv-x="501" d="M23 0l125 718h115l-45 -259q50 87 145 87q57 0 90 -35.5t33 -97.5q0 -24 -4 -45l-64 -368h-115l56 323q5 30 5 45q0 28 -16 44t-44 16q-42 0 -72.5 -33t-40.5 -90l-53 -305h-115z" />
<glyph unicode="i" horiz-adv-x="228" d="M27 0l93 532h114l-93 -532h-114zM135 618l20 115h114l-20 -115h-114z" />
<glyph unicode="j" horiz-adv-x="228" d="M-65 -214l20 112h20q34 0 42 49l102 585h115l-102 -588q-16 -89 -52.5 -123.5t-115.5 -34.5h-29zM135 618l20 115h114l-20 -115h-114z" />
<glyph unicode="k" d="M27 0l125 718h115l-68 -388l179 202h141l-190 -206l102 -326h-138l-64 228l-58 -60l-29 -168h-115z" />
<glyph unicode="l" horiz-adv-x="228" d="M27 0l125 718h115l-125 -718h-115z" />
<glyph unicode="m" horiz-adv-x="729" d="M22 0l93 532h110l-14 -81q32 51 65 73t79 22q42 0 64 -18t41 -67q35 47 65 66t70 19q55 0 88 -36t33 -97q0 -24 -4 -45l-64 -368h-115l56 323q4 28 4 41q0 64 -50 64q-37 0 -61.5 -28.5t-33.5 -80.5l-56 -319h-115l56 320q6 32 6 53q0 55 -56 55q-72 0 -90 -104l-56 -324 h-115z" />
<glyph unicode="n" horiz-adv-x="501" d="M23 0l93 532h110l-14 -81q35 51 69 73t80 22q59 0 92 -35.5t33 -97.5q0 -24 -4 -45l-64 -368h-115l56 323q5 30 5 45q0 28 -16 44t-44 16q-42 0 -72.5 -33t-40.5 -90l-53 -305h-115z" />
<glyph unicode="o" horiz-adv-x="501" d="M37 190q0 151 80.5 253.5t198.5 102.5q84 0 132.5 -54.5t48.5 -149.5q0 -149 -81 -252.5t-198 -103.5q-84 0 -132.5 54.5t-48.5 149.5zM156 209q0 -105 83 -105q62 0 100 65t38 155q0 104 -83 104q-62 0 -100 -66t-38 -153z" />
<glyph unicode="p" horiz-adv-x="501" d="M-15 -207l129 739h110l-14 -80q36 52 69 73t78 21q66 0 104 -50t38 -138q0 -148 -70 -260t-172 -112q-44 0 -69 19.5t-40 65.5l-48 -278h-115zM171 202q0 -48 20 -74.5t57 -26.5q54 0 91.5 68t37.5 153q0 103 -75 103q-60 0 -95.5 -69.5t-35.5 -153.5z" />
<glyph unicode="q" horiz-adv-x="501" d="M36 179q0 142 72 254.5t174 112.5q43 0 67.5 -21.5t41.5 -74.5l14 82h110l-129 -739h-115l49 276q-30 -44 -62.5 -63.5t-77.5 -19.5q-68 0 -106 51t-38 142zM155 197q0 -93 76 -93q55 0 92.5 62.5t37.5 154.5q0 48 -20.5 76t-55.5 28q-57 0 -93.5 -70t-36.5 -158z" />
<glyph unicode="r" horiz-adv-x="319" d="M22 0l93 532h110l-17 -95q40 63 69.5 86t71.5 23q2 0 4.5 -0.5t7.5 -1t10 -0.5l-25 -142q-11 2 -29 2q-110 0 -132 -127l-48 -277h-115z" />
<glyph unicode="s" d="M22 129q0 11 2 41h118q-1 -8 -1 -20q0 -58 80 -58q38 0 62.5 17.5t24.5 44.5q0 35 -86 52q-151 28 -151 129q0 94 62 152.5t154 58.5q162 0 162 -142q0 -20 -1 -34h-113v18q0 52 -67 52q-35 0 -56.5 -16t-21.5 -42q0 -34 85 -51q154 -31 154 -131q0 -91 -64 -152.5 t-165 -61.5q-83 0 -130.5 38t-47.5 105z" />
<glyph unicode="t" horiz-adv-x="273" d="M52 68q0 22 4 41l56 323h-59l17 100h60l25 144h115l-25 -144h71l-17 -100h-72l-50 -289q-3 -14 -3 -23q0 -20 42 -20q1 0 25 2l-19 -106l-69 -2q-52 0 -76.5 18t-24.5 56z" />
<glyph unicode="u" horiz-adv-x="501" d="M50 120q0 36 5 62l62 350h115l-58 -330q-3 -17 -3 -34q0 -64 59 -64q42 0 71.5 32.5t39.5 88.5l54 307h115l-93 -532h-110l14 78q-34 -49 -69.5 -70.5t-82.5 -21.5q-57 0 -88 35t-31 99z" />
<glyph unicode="v" d="M73 532h150v-396l163 396h122l-250 -532h-121z" />
<glyph unicode="w" horiz-adv-x="638" d="M71 0v532h124v-387l129 387h116v-387l135 387h118l-218 -532h-118v393l-138 -393h-148z" />
<glyph unicode="x" d="M-18 0l196 271l-98 261h140l47 -155l99 155h135l-189 -261l101 -271h-142l-47 160l-103 -160h-139z" />
<glyph unicode="y" d="M4 -212l20 112q14 -2 24 -2q36 0 53.5 15.5t33.5 64.5l-64 554h128l25 -396l159 396h122l-242 -523q-32 -68 -49.5 -103t-35.5 -63.5t-35 -38t-35.5 -14t-49.5 -4.5z" />
<glyph unicode="z" horiz-adv-x="410" d="M-14 0l19 109l278 311h-208l19 112h354l-20 -115l-273 -302h229l-21 -115h-377z" />
<glyph unicode="{" horiz-adv-x="319" d="M47 217l16 92q36 1 60 22t30 54l35 200q11 59 50.5 98t88.5 39h68l-15 -88h-37q-25 0 -38.5 -15.5t-19.5 -50.5l-34 -196q-10 -44 -42.5 -74t-74.5 -35q81 -16 81 -93q0 -4 -2 -16l-34 -196q-3 -16 -3 -28q0 -38 37 -38h37l-15 -88h-68q-41 0 -67.5 29.5t-26.5 75.5 q0 15 3 32l35 200q2 12 2 16q0 55 -66 60z" />
<glyph unicode="|" horiz-adv-x="230" d="M92 -196v918h86v-918h-86z" />
<glyph unicode="}" horiz-adv-x="319" d="M-44 -196l15 88h37q46 0 57 66l34 196q11 44 43 74.5t74 34.5q-80 16 -80 93q0 11 1 16l34 196q3 15 3 28q0 38 -37 38h-37l16 88h67q41 0 67.5 -29.5t26.5 -75.5q0 -15 -3 -32l-35 -200q-1 -6 -1 -16q0 -55 65 -60l-16 -92q-36 -1 -60 -22t-30 -54l-35 -200 q-11 -59 -50 -98t-88 -39h-68z" />
<glyph unicode="~" horiz-adv-x="479" d="M64 242q34 51 62 72.5t62 21.5q17 0 73.5 -25.5t77.5 -25.5q33 0 62 36l42 -54q-34 -51 -61.5 -72.5t-61.5 -21.5q-18 0 -75 25.5t-77 25.5t-33 -7.5t-29 -29.5z" />
<glyph unicode="&#xa1;" horiz-adv-x="273" d="M11 -186l32 183l91 336h61l-26 -336l-32 -183h-126zM115 391l24 141h120l-25 -141h-119z" />
<glyph unicode="&#xa2;" d="M35 168q0 158 74.5 268t192.5 110q18 0 37 -3l34 85h43l-40 -98q85 -45 85 -146q0 -10 -2 -42h-116q0 48 -16 68l-124 -305q7 -4 18 -4q32 0 58.5 25.5t36.5 67.5h117q-31 -101 -91.5 -154.5t-144.5 -53.5q-25 0 -41 4l-44 -108h-42l48 120q-83 49 -83 166zM155 192 q0 -36 15 -63l122 299h-10q-56 0 -91.5 -70.5t-35.5 -165.5z" />
<glyph unicode="&#xa3;" d="M11 86q51 31 85 77.5t34 101.5q0 30 -6 56h-75l10 60h48q-14 69 -14 95q0 99 69 170.5t164 71.5q76 0 120 -44t44 -120q0 -22 -5 -67h-108q1 15 1 37q0 82 -68 82q-41 0 -71 -32.5t-30 -78.5q0 -19 18 -114h117l-10 -60h-98q-2 -73 -28 -120t-95 -103q69 29 105 29 q17 0 54 -12.5t43 -12.5q35 0 89 36l14 -109q-70 -45 -130 -45q-38 0 -97 26q-31 14 -56 14q-16 0 -32.5 -6t-64.5 -29z" />
<glyph unicode="&#xa4;" d="M60 266q0 50 28 98l-13 13l60 61l14 -14q44 28 97 28q54 0 98 -28l13 14l61 -61l-13 -13q27 -46 27 -98t-27 -98l13 -13l-61 -61l-13 14q-44 -28 -98 -28q-53 0 -97 28l-14 -14l-60 61l13 13q-28 48 -28 98zM146 266q0 -41 29.5 -70.5t70.5 -29.5q42 0 71 29.5t29 70.5 t-29 70.5t-71 29.5q-41 0 -70.5 -29.5t-29.5 -70.5z" />
<glyph unicode="&#xa5;" d="M19 210l10 60h167l-20 75h-133l10 60h107l-76 293h123l67 -294l165 294h116l-174 -293h110l-11 -60h-135l-44 -75h166l-10 -60h-167l-37 -210h-104l36 210h-166z" />
<glyph unicode="&#xa6;" horiz-adv-x="230" d="M92 171h86v-367h-86v367zM92 355v367h86v-367h-86z" />
<glyph unicode="&#xa7;" d="M20 -35q0 13 3 38h108q-1 -7 -1 -19q0 -29 15 -45.5t43 -16.5q30 0 52 25t22 59q0 28 -38 55l-112 78q-36 25 -51 51.5t-15 64.5q0 58 24 99.5t80 77.5q-26 38 -26 83q0 85 60 148.5t141 63.5q63 0 99.5 -35.5t36.5 -97.5q0 -20 -3 -50h-104q1 8 1 21q0 26 -13.5 41 t-37.5 15q-29 0 -50 -20.5t-21 -48.5q0 -24 23 -40l119 -81q74 -51 74 -124q0 -51 -28.5 -98t-76.5 -75q31 -42 31 -95q0 -92 -63.5 -157.5t-151.5 -65.5q-65 0 -102.5 40t-37.5 109zM150 312q0 -28 29 -49l114 -84q47 32 47 75q0 30 -36 55l-107 74q-20 -10 -33.5 -30 t-13.5 -41z" />
<glyph unicode="&#xa8;" horiz-adv-x="273" d="M84 618l20 115h96l-20 -115h-96zM249 618l20 115h96l-20 -115h-96z" />
<glyph unicode="&#xa9;" horiz-adv-x="604" d="M40 329q0 141 79.5 244.5t202.5 103.5t202.5 -103.5t79.5 -244.5t-79.5 -244.5t-202.5 -103.5t-202.5 103.5t-79.5 244.5zM96 329q0 -118 62.5 -205t163.5 -87t163.5 87t62.5 205t-62.5 205t-163.5 87t-163.5 -87t-62.5 -205zM165 270q-2 105 54 178.5t139 73.5 q53 0 86.5 -31t34.5 -82q0 -14 -1 -27h-81q-3 61 -51 61q-44 0 -71 -46t-26 -112q2 -70 55 -70q50 0 75 67h82q-52 -145 -172 -145q-58 0 -90.5 34.5t-33.5 98.5z" />
<glyph unicode="&#xaa;" horiz-adv-x="303" d="M45 276l14 80h246l-14 -80h-246zM72 472q0 48 29 83t75 43l69 11q31 4 31 30q0 27 -40 27q-24 0 -37 -9t-20 -32h-72q18 60 51 86t92 26q49 0 75 -19.5t26 -54.5q0 -7 -2 -19l-30 -173q-3 -17 -3 -27q0 -18 12 -22l-2 -13h-81q-1 8 -1 17q0 10 1 21q-47 -46 -98 -46 q-35 0 -55 19t-20 52zM151 490q0 -28 29 -28q27 0 49.5 18.5t26.5 44.5l7 40q-13 -9 -44 -16t-49.5 -19t-18.5 -40z" />
<glyph unicode="&#xab;" d="M81 220l21 120l162 144l-21 -116l-97 -88l67 -88l-20 -116zM255 220l21 120l162 144l-20 -116l-97 -88l66 -88l-20 -116z" />
<glyph unicode="&#xac;" horiz-adv-x="479" d="M77 297v86h365v-223h-86v137h-279z" />
<glyph unicode="&#xad;" horiz-adv-x="273" d="M30 215l23 130h228l-23 -130h-228z" />
<glyph unicode="&#xae;" horiz-adv-x="604" d="M40 329q0 141 79.5 244.5t202.5 103.5t202.5 -103.5t79.5 -244.5t-79.5 -244.5t-202.5 -103.5t-202.5 103.5t-79.5 244.5zM96 329q0 -118 62.5 -205t163.5 -87t163.5 87t62.5 205t-62.5 205t-163.5 87t-163.5 -87t-62.5 -205zM161 146l63 367h168q43 0 66.5 -22t24.5 -62 q0 -73 -57 -107q20 -15 20 -43q1 -16 -9 -73q-2 -10 -2 -26q0 -8 10 -12l-4 -22h-87l-1 19q-1 10 5 50.5t6 44.5q-1 24 -39 24h-61l-24 -138h-79zM278 358h70q53 0 51 51q0 28 -33 28h-75z" />
<glyph unicode="&#xaf;" horiz-adv-x="273" d="M76 638l13 74h283l-13 -74h-283z" />
<glyph unicode="&#xb0;" horiz-adv-x="328" d="M113 539q0 67 44.5 120t100.5 53q41 0 68 -32t27 -81q0 -67 -44.5 -120t-100.5 -53q-41 0 -68 32t-27 81zM160 550q0 -29 16.5 -48.5t41.5 -19.5q34 0 61 32.5t27 72.5q0 30 -16.5 49.5t-41.5 19.5q-34 0 -61 -32.5t-27 -73.5z" />
<glyph unicode="&#xb1;" horiz-adv-x="479" d="M77 0v86h365v-86h-365zM77 293v86h140v140h86v-140h139v-86h-139v-130h-86v130h-140z" />
<glyph unicode="&#xb2;" horiz-adv-x="273" d="M27 283q14 65 45 104t110 95q78 55 78 111q0 22 -11.5 36t-30.5 14q-51 0 -67 -85h-72q32 164 152 164q49 0 78 -31.5t29 -84.5q0 -71 -46 -125q-4 -5 -6.5 -8t-7 -7t-7 -6t-10 -7.5t-12 -8.5t-18 -12.5t-22.5 -15.5q-44 -32 -62 -51h153l-15 -82h-258z" />
<glyph unicode="&#xb3;" horiz-adv-x="273" d="M45 379q0 21 3 46h73q-2 -18 -2 -22q0 -57 45 -57q28 0 46.5 25t18.5 64q0 24 -16 34t-56 10l11 64h12q71 0 71 67q0 37 -37 37q-50 0 -62 -62h-70q30 137 147 137q47 0 74.5 -24.5t27.5 -67.5q0 -78 -64 -110q44 -19 44 -74q0 -72 -47 -123.5t-113 -51.5q-49 0 -77.5 29 t-28.5 79z" />
<glyph unicode="&#xb4;" horiz-adv-x="273" d="M170 602l103 146h126l-146 -146h-83z" />
<glyph unicode="&#xb5;" horiz-adv-x="501" d="M-12 -207l129 739h115l-58 -330q-3 -17 -3 -34q0 -64 59 -64q42 0 72 32.5t40 88.5l53 307h115l-93 -532h-110l14 78q-62 -92 -125 -92q-36 0 -55 26l-38 -219h-115z" />
<glyph unicode="&#xb6;" d="M50 480q0 101 59 160.5t176 59.5h249l-156 -891h-92l141 806h-83l-141 -806h-92l94 538q-81 4 -118 37t-37 96z" />
<glyph unicode="&#xb7;" horiz-adv-x="228" d="M72 250q0 26 18 44t44 18t44 -18t18 -44t-18 -44t-44 -18t-44 18t-18 44z" />
<glyph unicode="&#xb8;" horiz-adv-x="273" d="M-60 -203l26 48q44 -16 60 -16q19 0 33.5 14t14.5 33q0 13 -8 20.5t-20 7.5q-10 0 -34 -8l-14 20l60 86h55l-32 -53h9q27 0 46 -17t19 -43q0 -48 -38 -82.5t-90 -34.5q-34 0 -87 25z" />
<glyph unicode="&#xb9;" horiz-adv-x="273" d="M91 574l11 62h11q85 0 105 74h70l-75 -427h-82l50 291h-90z" />
<glyph unicode="&#xba;" horiz-adv-x="299" d="M45 276l14 80h246l-14 -80h-246zM71 531q0 85 52.5 145.5t125.5 60.5q56 0 87.5 -35t31.5 -96q0 -85 -52 -145t-126 -60q-56 0 -87.5 34.5t-31.5 95.5zM152 541q0 -32 13.5 -50t37.5 -18q34 0 59 37t25 87q0 31 -14 49.5t-37 18.5q-34 0 -59 -37t-25 -87z" />
<glyph unicode="&#xbb;" d="M55 76l20 116l98 88l-67 88l20 116l112 -144l-21 -120zM230 76l20 116l97 88l-66 88l20 116l112 -144l-21 -120z" />
<glyph unicode="&#xbc;" horiz-adv-x="684" d="M77 -25l479 735h64l-478 -735h-65zM91 574l11 62h11q85 0 105 74h70l-74 -427h-83l50 291h-90zM345 90l13 74l184 260h89l-46 -265h41l-12 -69h-41l-16 -90h-78l16 90h-150zM415 157h95l34 186z" />
<glyph unicode="&#xbd;" horiz-adv-x="684" d="M77 -25l479 735h64l-478 -735h-65zM91 574l11 62h11q85 0 105 74h70l-74 -427h-83l50 291h-90zM363 0q13 64 44 103.5t111 95.5q78 55 78 111q0 22 -11.5 36t-30.5 14q-51 0 -67 -85h-72q31 164 152 164q49 0 78 -31.5t29 -84.5q0 -71 -46 -125q-13 -16 -23 -23.5 t-60 -41.5q-42 -29 -62 -51h153l-15 -82h-258z" />
<glyph unicode="&#xbe;" horiz-adv-x="684" d="M52 378q0 20 3 47h74q-3 -15 -3 -24q0 -55 45 -55q28 0 46 25t18 64q0 24 -16 34t-55 10l11 64h12q71 0 71 67q0 37 -37 37q-50 0 -62 -62h-70q30 137 147 137q47 0 74.5 -24.5t27.5 -67.5q0 -78 -64 -110q43 -19 43 -74q0 -72 -47 -123.5t-112 -51.5q-49 0 -77.5 29 t-28.5 78zM113 -25l479 735h64l-478 -735h-65zM372 90l13 74l184 260h89l-46 -265h41l-12 -69h-41l-16 -90h-78l16 90h-150zM442 159h92l33 180z" />
<glyph unicode="&#xbf;" horiz-adv-x="501" d="M14 -33q0 73 29.5 124t106.5 111q35 27 48.5 50t22.5 72h108q-13 -80 -35.5 -118t-82.5 -85q-71 -54 -71 -127q0 -34 17.5 -52.5t49.5 -18.5q37 0 64.5 28t38.5 72l3 16h116q-25 -116 -87.5 -175t-151.5 -59q-78 0 -127 42.5t-49 119.5zM225 391l24 141h120l-25 -141 h-119z" />
<glyph unicode="&#xc0;" horiz-adv-x="592" d="M-14 0l336 718h142l82 -718h-134l-12 148h-217l-67 -148h-130zM237 272h150l-23 287zM266 914h126l55 -126h-83z" />
<glyph unicode="&#xc1;" horiz-adv-x="592" d="M-14 0l336 718h142l82 -718h-134l-12 148h-217l-67 -148h-130zM237 272h150l-23 287zM363 788l100 126h126l-143 -126h-83z" />
<glyph unicode="&#xc2;" horiz-adv-x="592" d="M-14 0l336 718h142l82 -718h-134l-12 148h-217l-67 -148h-130zM237 272h150l-23 287zM250 788l125 126h103l81 -126h-93l-51 62l-72 -62h-93z" />
<glyph unicode="&#xc3;" horiz-adv-x="592" d="M-14 0l336 718h142l82 -718h-134l-12 148h-217l-67 -148h-130zM237 272h150l-23 287zM255 788q23 64 51.5 93.5t68.5 29.5q7 0 52.5 -18t51.5 -18q30 0 46 40h53q-40 -120 -110 -120q-9 0 -57 18t-58 18q-29 0 -46 -43h-52z" />
<glyph unicode="&#xc4;" horiz-adv-x="592" d="M-14 0l336 718h142l82 -718h-134l-12 148h-217l-67 -148h-130zM237 272h150l-23 287zM276 794l20 115h96l-20 -115h-96zM441 794l20 115h96l-20 -115h-96z" />
<glyph unicode="&#xc5;" horiz-adv-x="592" d="M-14 0l336 718h142l82 -718h-134l-12 148h-217l-67 -148h-130zM237 272h150l-23 287zM316 872q6 35 42 61t77 26t68 -26.5t21 -62.5q-6 -35 -42 -61.5t-78 -26.5t-68 26.5t-20 63.5zM368 871q-3 -18 9.5 -30.5t34.5 -12.5t39.5 12.5t20.5 29.5q3 18 -10 30.5t-35 12.5 q-21 0 -38.5 -12.5t-20.5 -29.5z" />
<glyph unicode="&#xc6;" horiz-adv-x="820" d="M-26 0l340 718h558l-22 -127h-305l-26 -151h274l-22 -127h-274l-32 -186h310l-22 -127h-431l27 153h-177l-69 -153h-129zM225 271h144l56 320h-53z" />
<glyph unicode="&#xc7;" horiz-adv-x="592" d="M58 241q0 135 45.5 248.5t126 180.5t178.5 67q94 0 151.5 -60t57.5 -158q0 -20 -1 -36h-124q-3 64 -28 94t-76 30q-87 0 -144.5 -100t-57.5 -241q0 -74 29 -114.5t82 -40.5q51 0 88.5 32t65.5 103h123q-90 -247 -273 -264l-20 -33h9q27 0 46 -17t19 -43q0 -48 -38 -82.5 t-90 -34.5q-35 0 -87 25l26 48q44 -16 60 -16q19 0 33.5 14t14.5 33q0 13 -8 20.5t-20 7.5q-10 0 -34 -8l-14 20l46 66q-88 10 -137 77t-49 182z" />
<glyph unicode="&#xc8;" horiz-adv-x="547" d="M32 0l125 718h433l-22 -127h-313l-26 -151h287l-22 -127h-287l-32 -186h326l-22 -127h-447zM246 914h126l55 -126h-83z" />
<glyph unicode="&#xc9;" horiz-adv-x="547" d="M32 0l125 718h433l-22 -127h-313l-26 -151h287l-22 -127h-287l-32 -186h326l-22 -127h-447zM343 788l100 126h126l-143 -126h-83z" />
<glyph unicode="&#xca;" horiz-adv-x="547" d="M32 0l125 718h433l-22 -127h-313l-26 -151h287l-22 -127h-287l-32 -186h326l-22 -127h-447zM230 788l125 126h103l81 -126h-93l-51 62l-72 -62h-93z" />
<glyph unicode="&#xcb;" horiz-adv-x="547" d="M32 0l125 718h433l-22 -127h-313l-26 -151h287l-22 -127h-287l-32 -186h326l-22 -127h-447zM256 794l20 115h96l-20 -115h-96zM421 794l20 115h96l-20 -115h-96z" />
<glyph unicode="&#xcc;" horiz-adv-x="228" d="M22 0l126 718h123l-126 -718h-123zM102 914h126l55 -126h-83z" />
<glyph unicode="&#xcd;" horiz-adv-x="228" d="M22 0l126 718h123l-126 -718h-123zM159 788l100 126h126l-143 -126h-83z" />
<glyph unicode="&#xce;" horiz-adv-x="228" d="M22 0l126 718h123l-126 -718h-123zM66 788l125 126h103l81 -126h-93l-51 62l-72 -62h-93z" />
<glyph unicode="&#xcf;" horiz-adv-x="228" d="M22 0l126 718h123l-126 -718h-123zM92 794l20 115h96l-20 -115h-96zM257 794l20 115h96l-20 -115h-96z" />
<glyph unicode="&#xd0;" horiz-adv-x="592" d="M21 316l22 124h66l49 278h260q92 0 140.5 -59.5t48.5 -173.5q0 -123 -40 -233.5t-114.5 -181t-164.5 -70.5h-256l55 316h-66zM175 124h119q79 0 132 103t53 235t-104 132h-118l-27 -154h136l-22 -124h-136z" />
<glyph unicode="&#xd1;" horiz-adv-x="592" d="M27 0l125 718h129l148 -504l87 504h115l-125 -718h-123l-152 515l-89 -515h-115zM253 788q23 64 51.5 93.5t68.5 29.5q7 0 52.5 -18t51.5 -18q30 0 46 40h53q-40 -120 -110 -120q-9 0 -57 18t-58 18q-29 0 -46 -43h-52z" />
<glyph unicode="&#xd2;" horiz-adv-x="638" d="M58 245q0 136 47 249t130 178t184 65q99 0 162.5 -68t63.5 -195q0 -210 -103 -351.5t-257 -141.5q-105 0 -166 71t-61 193zM184 271q0 -76 33 -119.5t92 -43.5q89 0 150 98.5t61 240.5q0 76 -33 119.5t-91 43.5q-91 0 -151.5 -101t-60.5 -238zM288 914h126l55 -126h-83z " />
<glyph unicode="&#xd3;" horiz-adv-x="638" d="M58 245q0 136 47 249t130 178t184 65q99 0 162.5 -68t63.5 -195q0 -210 -103 -351.5t-257 -141.5q-105 0 -166 71t-61 193zM184 271q0 -76 33 -119.5t92 -43.5q89 0 150 98.5t61 240.5q0 76 -33 119.5t-91 43.5q-91 0 -151.5 -101t-60.5 -238zM386 788l100 126h126 l-143 -126h-83z" />
<glyph unicode="&#xd4;" horiz-adv-x="638" d="M58 245q0 136 47 249t130 178t184 65q99 0 162.5 -68t63.5 -195q0 -210 -103 -351.5t-257 -141.5q-105 0 -166 71t-61 193zM184 271q0 -76 33 -119.5t92 -43.5q89 0 150 98.5t61 240.5q0 76 -33 119.5t-91 43.5q-91 0 -151.5 -101t-60.5 -238zM273 788l125 126h103 l81 -126h-93l-51 62l-72 -62h-93z" />
<glyph unicode="&#xd5;" horiz-adv-x="638" d="M58 245q0 136 47 249t130 178t184 65q99 0 162.5 -68t63.5 -195q0 -210 -103 -351.5t-257 -141.5q-105 0 -166 71t-61 193zM184 271q0 -76 33 -119.5t92 -43.5q89 0 150 98.5t61 240.5q0 76 -33 119.5t-91 43.5q-91 0 -151.5 -101t-60.5 -238zM277 788q23 64 51.5 93.5 t68.5 29.5q7 0 52.5 -18t51.5 -18q30 0 46 40h53q-40 -120 -110 -120q-9 0 -57 18t-58 18q-29 0 -46 -43h-52z" />
<glyph unicode="&#xd6;" horiz-adv-x="638" d="M58 245q0 136 47 249t130 178t184 65q99 0 162.5 -68t63.5 -195q0 -210 -103 -351.5t-257 -141.5q-105 0 -166 71t-61 193zM184 271q0 -76 33 -119.5t92 -43.5q89 0 150 98.5t61 240.5q0 76 -33 119.5t-91 43.5q-91 0 -151.5 -101t-60.5 -238zM298 794l20 115h96 l-20 -115h-96zM463 794l20 115h96l-20 -115h-96z" />
<glyph unicode="&#xd7;" horiz-adv-x="479" d="M100 152l99 99l-99 98l61 61l99 -99l98 99l61 -61l-98 -98l98 -99l-61 -61l-98 99l-99 -99z" />
<glyph unicode="&#xd8;" horiz-adv-x="638" d="M-1 11l86 93q-27 67 -27 142q0 207 103.5 349t254.5 142q104 0 177 -81l82 89l28 -38l-85 -92q27 -67 27 -142q0 -136 -47 -249t-129.5 -178t-182.5 -65q-108 0 -176 82l-83 -90zM184 274q0 -26 5 -56l307 333q-38 59 -101 59t-113 -52t-74 -128t-24 -156zM206 168 q37 -60 101 -60q65 0 114.5 53t73.5 128t24 155q0 28 -6 57z" />
<glyph unicode="&#xd9;" horiz-adv-x="592" d="M66 169q0 37 6 73l83 476h125l-81 -466q-4 -20 -4 -44q0 -100 89 -100q113 0 137 137l83 473h125l-81 -467q-23 -131 -96 -200.5t-188 -69.5q-95 0 -146.5 49t-51.5 139zM265 914h126l55 -126h-83z" />
<glyph unicode="&#xda;" horiz-adv-x="592" d="M66 169q0 37 6 73l83 476h125l-81 -466q-4 -20 -4 -44q0 -100 89 -100q113 0 137 137l83 473h125l-81 -467q-23 -131 -96 -200.5t-188 -69.5q-95 0 -146.5 49t-51.5 139zM362 788l100 126h126l-143 -126h-83z" />
<glyph unicode="&#xdb;" horiz-adv-x="592" d="M66 169q0 37 6 73l83 476h125l-81 -466q-4 -20 -4 -44q0 -100 89 -100q113 0 137 137l83 473h125l-81 -467q-23 -131 -96 -200.5t-188 -69.5q-95 0 -146.5 49t-51.5 139zM249 788l125 126h103l81 -126h-93l-51 62l-72 -62h-93z" />
<glyph unicode="&#xdc;" horiz-adv-x="592" d="M66 169q0 37 6 73l83 476h125l-81 -466q-4 -20 -4 -44q0 -100 89 -100q113 0 137 137l83 473h125l-81 -467q-23 -131 -96 -200.5t-188 -69.5q-95 0 -146.5 49t-51.5 139zM275 794l20 115h96l-20 -115h-96zM440 794l20 115h96l-20 -115h-96z" />
<glyph unicode="&#xdd;" horiz-adv-x="547" d="M107 718h145l68 -312l171 312h140l-276 -449l-46 -269h-124l48 271zM342 788l100 126h126l-143 -126h-83z" />
<glyph unicode="&#xde;" horiz-adv-x="547" d="M32 0l125 718h123l-17 -98h146q71 0 110 -44.5t39 -124.5q0 -116 -67.5 -204t-166.5 -88h-141l-28 -159h-123zM204 283h115q54 0 84 39t30 103q0 71 -94 71h-97z" />
<glyph unicode="&#xdf;" horiz-adv-x="501" d="M27 0l94 539q15 88 76.5 140t149.5 52q78 0 120 -38t42 -108q0 -122 -86 -174q37 -26 52 -54t15 -72q0 -121 -71 -210t-175 -89q-17 0 -46 6l19 110h3q4 -1 21 -1q61 0 96 44t35 115q0 44 -23.5 63t-83.5 24l17 97q63 3 86 31t23 81q0 30 -17.5 46.5t-49.5 16.5 q-35 0 -59 -24t-31 -65l-92 -530h-115z" />
<glyph unicode="&#xe0;" d="M15 101q0 82 44 139.5t116 70.5l107 19q49 9 49 57q0 47 -62 47q-36 0 -56 -17t-32 -57h-110q29 102 80 144t142 42q74 0 114.5 -31.5t40.5 -89.5q0 -17 -3 -33l-50 -288q-5 -32 -5 -49q0 -25 16 -34l-4 -21h-124q-1 16 -1 29q0 15 2 34q-41 -42 -75.5 -59.5t-76.5 -17.5 q-53 0 -82.5 30.5t-29.5 84.5zM133 133q0 -22 12 -34.5t33 -12.5q42 0 77.5 31t42.5 74l12 68q-22 -17 -83 -29q-49 -10 -71.5 -33t-22.5 -64zM166 748h126l52 -146h-83z" />
<glyph unicode="&#xe1;" d="M15 101q0 82 44 139.5t116 70.5l107 19q49 9 49 57q0 47 -62 47q-36 0 -56 -17t-32 -57h-110q29 102 80 144t142 42q74 0 114.5 -31.5t40.5 -89.5q0 -17 -3 -33l-50 -288q-5 -32 -5 -49q0 -25 16 -34l-4 -21h-124q-1 16 -1 29q0 15 2 34q-41 -42 -75.5 -59.5t-76.5 -17.5 q-53 0 -82.5 30.5t-29.5 84.5zM133 133q0 -22 12 -34.5t33 -12.5q42 0 77.5 31t42.5 74l12 68q-22 -17 -83 -29q-49 -10 -71.5 -33t-22.5 -64zM261 602l103 146h126l-146 -146h-83z" />
<glyph unicode="&#xe2;" d="M15 101q0 82 44 139.5t116 70.5l107 19q49 9 49 57q0 47 -62 47q-36 0 -56 -17t-32 -57h-110q29 102 80 144t142 42q74 0 114.5 -31.5t40.5 -89.5q0 -17 -3 -33l-50 -288q-5 -32 -5 -49q0 -25 16 -34l-4 -21h-124q-1 16 -1 29q0 15 2 34q-41 -42 -75.5 -59.5t-76.5 -17.5 q-53 0 -82.5 30.5t-29.5 84.5zM133 133q0 -22 12 -34.5t33 -12.5q42 0 77.5 31t42.5 74l12 68q-22 -17 -83 -29q-49 -10 -71.5 -33t-22.5 -64zM158 602l119 146h103l68 -146h-93l-38 82l-66 -82h-93z" />
<glyph unicode="&#xe3;" d="M15 101q0 82 44 139.5t116 70.5l107 19q49 9 49 57q0 47 -62 47q-36 0 -56 -17t-32 -57h-110q29 102 80 144t142 42q74 0 114.5 -31.5t40.5 -89.5q0 -17 -3 -33l-50 -288q-5 -32 -5 -49q0 -25 16 -34l-4 -21h-124q-1 16 -1 29q0 15 2 34q-41 -42 -75.5 -59.5t-76.5 -17.5 q-53 0 -82.5 30.5t-29.5 84.5zM133 133q0 -22 12 -34.5t33 -12.5q42 0 77.5 31t42.5 74l12 68q-22 -17 -83 -29q-49 -10 -71.5 -33t-22.5 -64zM153 612q23 64 51.5 93.5t68.5 29.5q7 0 52.5 -18t51.5 -18q30 0 46 40h53q-41 -120 -110 -120q-9 0 -57 18t-58 18 q-29 0 -46 -43h-52z" />
<glyph unicode="&#xe4;" d="M15 101q0 82 44 139.5t116 70.5l107 19q49 9 49 57q0 47 -62 47q-36 0 -56 -17t-32 -57h-110q29 102 80 144t142 42q74 0 114.5 -31.5t40.5 -89.5q0 -17 -3 -33l-50 -288q-5 -32 -5 -49q0 -25 16 -34l-4 -21h-124q-1 16 -1 29q0 15 2 34q-41 -42 -75.5 -59.5t-76.5 -17.5 q-53 0 -82.5 30.5t-29.5 84.5zM133 133q0 -22 12 -34.5t33 -12.5q42 0 77.5 31t42.5 74l12 68q-22 -17 -83 -29q-49 -10 -71.5 -33t-22.5 -64zM175 618l20 115h96l-20 -115h-96zM340 618l20 115h96l-20 -115h-96z" />
<glyph unicode="&#xe5;" d="M15 101q0 82 44 139.5t116 70.5l107 19q49 9 49 57q0 47 -62 47q-36 0 -56 -17t-32 -57h-110q29 102 80 144t142 42q74 0 114.5 -31.5t40.5 -89.5q0 -17 -3 -33l-50 -288q-5 -32 -5 -49q0 -25 16 -34l-4 -21h-124q-1 16 -1 29q0 15 2 34q-41 -42 -75.5 -59.5t-76.5 -17.5 q-53 0 -82.5 30.5t-29.5 84.5zM133 133q0 -22 12 -34.5t33 -12.5q42 0 77.5 31t42.5 74l12 68q-22 -17 -83 -29q-49 -10 -71.5 -33t-22.5 -64zM212 677q6 35 42 61t77 26t68 -26.5t20 -62.5q-6 -35 -41.5 -61.5t-77.5 -26.5t-68.5 26.5t-19.5 63.5zM263 676q-3 -18 10 -30.5 t35 -12.5t39 12.5t20 29.5q3 18 -9.5 30.5t-34.5 12.5q-21 0 -39 -12.5t-21 -29.5z" />
<glyph unicode="&#xe6;" horiz-adv-x="729" d="M16 105q0 76 38.5 129.5t102.5 66.5l112 22q46 9 57.5 22.5t11.5 47.5q0 41 -66 41q-73 0 -87 -75h-113q26 96 80.5 141.5t144.5 45.5q80 0 129 -59q41 33 72.5 46t69.5 13q76 0 117.5 -51.5t41.5 -143.5q0 -39 -9 -98l-4 -25h-300q-2 -30 -2 -40q0 -43 21 -66.5 t59 -23.5q60 0 86 58h118q-77 -170 -228 -170q-56 0 -87.5 19t-53.5 67q-65 -86 -181 -86q-130 0 -130 119zM134 133q0 -22 14 -34.5t37 -12.5q39 0 74.5 31t42.5 71l11 67q-18 -17 -90 -30q-52 -10 -70.5 -32t-18.5 -60zM434 319h178l1 25q1 40 -19 63.5t-53 23.5 q-74 0 -107 -112z" />
<glyph unicode="&#xe7;" d="M35 170q0 156 74 266t190 110q74 0 118 -44t44 -117q0 -11 -2 -43h-116q-1 45 -14.5 65.5t-44.5 20.5q-57 0 -93 -70t-36 -169q0 -42 17.5 -65t48.5 -23q32 0 58.5 25.5t36.5 67.5h117q-29 -92 -82.5 -145t-126.5 -61l-23 -39h9q27 0 46 -17t19 -43q0 -48 -38 -82.5 t-90 -34.5q-35 0 -87 25l26 48q44 -16 60 -16q19 0 33.5 14t14.5 33q0 13 -8 20.5t-20 7.5q-10 0 -34 -8l-14 20l50 72q-65 8 -99 54.5t-34 127.5z" />
<glyph unicode="&#xe8;" d="M28 179q0 157 75 262t188 105q80 0 122.5 -50t42.5 -145q0 -39 -9 -98l-4 -25h-299q-3 -22 -3 -39q0 -44 21 -67.5t59 -23.5q59 0 86 58h118q-77 -170 -225 -170q-84 0 -128 49.5t-44 143.5zM163 319h178l1 26q1 39 -19.5 62.5t-52.5 23.5q-38 0 -64 -27t-43 -85z M167 748h126l52 -146h-83z" />
<glyph unicode="&#xe9;" d="M28 179q0 157 75 262t188 105q80 0 122.5 -50t42.5 -145q0 -39 -9 -98l-4 -25h-299q-3 -22 -3 -39q0 -44 21 -67.5t59 -23.5q59 0 86 58h118q-77 -170 -225 -170q-84 0 -128 49.5t-44 143.5zM163 319h178l1 26q1 39 -19.5 62.5t-52.5 23.5q-38 0 -64 -27t-43 -85z M261 602l103 146h126l-146 -146h-83z" />
<glyph unicode="&#xea;" d="M28 179q0 157 75 262t188 105q80 0 122.5 -50t42.5 -145q0 -39 -9 -98l-4 -25h-299q-3 -22 -3 -39q0 -44 21 -67.5t59 -23.5q59 0 86 58h118q-77 -170 -225 -170q-84 0 -128 49.5t-44 143.5zM158 602l119 146h103l68 -146h-93l-38 82l-66 -82h-93zM163 319h178l1 26 q1 39 -19.5 62.5t-52.5 23.5q-38 0 -64 -27t-43 -85z" />
<glyph unicode="&#xeb;" d="M28 179q0 157 75 262t188 105q80 0 122.5 -50t42.5 -145q0 -39 -9 -98l-4 -25h-299q-3 -22 -3 -39q0 -44 21 -67.5t59 -23.5q59 0 86 58h118q-77 -170 -225 -170q-84 0 -128 49.5t-44 143.5zM163 319h178l1 26q1 39 -19.5 62.5t-52.5 23.5q-38 0 -64 -27t-43 -85z M175 618l20 115h96l-20 -115h-96zM340 618l20 115h96l-20 -115h-96z" />
<glyph unicode="&#xec;" horiz-adv-x="228" d="M27 0l93 532h114l-93 -532h-114zM68 748h126l52 -146h-83z" />
<glyph unicode="&#xed;" horiz-adv-x="228" d="M27 0l93 532h114l-93 -532h-114zM132 602l103 146h126l-146 -146h-83z" />
<glyph unicode="&#xee;" horiz-adv-x="228" d="M27 0l93 532h114l-93 -532h-114zM44 602l119 146h103l68 -146h-93l-38 82l-66 -82h-93z" />
<glyph unicode="&#xef;" horiz-adv-x="228" d="M27 0l93 532h114l-93 -532h-114zM61 618l20 115h96l-20 -115h-96zM226 618l20 115h96l-20 -115h-96z" />
<glyph unicode="&#xf0;" horiz-adv-x="501" d="M37 189q0 136 74.5 235t177.5 99q35 0 57.5 -14.5t40.5 -48.5q-15 69 -61 131l-96 -47l-43 52l97 47q-31 31 -52 45l97 49q32 -19 57 -44l91 44l42 -52l-90 -44q41 -65 58 -123t17 -130q0 -167 -82 -284.5t-204 -117.5q-84 0 -132.5 54.5t-48.5 148.5zM156 210 q0 -51 22 -78.5t62 -27.5q58 0 96.5 62t38.5 135q0 49 -22 76.5t-60 27.5q-57 0 -97 -57t-40 -138z" />
<glyph unicode="&#xf1;" horiz-adv-x="501" d="M23 0l93 532h110l-14 -81q35 51 69 73t80 22q59 0 92 -35.5t33 -97.5q0 -24 -4 -45l-64 -368h-115l56 323q5 30 5 45q0 28 -16 44t-44 16q-42 0 -72.5 -33t-40.5 -90l-53 -305h-115zM176 612q23 64 51.5 93.5t68.5 29.5q7 0 52.5 -18t51.5 -18q30 0 46 40h53 q-41 -120 -110 -120q-9 0 -57 18t-58 18q-29 0 -46 -43h-52z" />
<glyph unicode="&#xf2;" horiz-adv-x="501" d="M37 190q0 151 80.5 253.5t198.5 102.5q84 0 132.5 -54.5t48.5 -149.5q0 -149 -81 -252.5t-198 -103.5q-84 0 -132.5 54.5t-48.5 149.5zM156 209q0 -105 83 -105q62 0 100 65t38 155q0 104 -83 104q-62 0 -100 -66t-38 -153zM189 748h126l52 -146h-83z" />
<glyph unicode="&#xf3;" horiz-adv-x="501" d="M37 190q0 151 80.5 253.5t198.5 102.5q84 0 132.5 -54.5t48.5 -149.5q0 -149 -81 -252.5t-198 -103.5q-84 0 -132.5 54.5t-48.5 149.5zM156 209q0 -105 83 -105q62 0 100 65t38 155q0 104 -83 104q-62 0 -100 -66t-38 -153zM284 602l103 146h126l-146 -146h-83z" />
<glyph unicode="&#xf4;" horiz-adv-x="501" d="M37 190q0 151 80.5 253.5t198.5 102.5q84 0 132.5 -54.5t48.5 -149.5q0 -149 -81 -252.5t-198 -103.5q-84 0 -132.5 54.5t-48.5 149.5zM156 209q0 -105 83 -105q62 0 100 65t38 155q0 104 -83 104q-62 0 -100 -66t-38 -153zM181 602l119 146h103l68 -146h-93l-38 82 l-66 -82h-93z" />
<glyph unicode="&#xf5;" horiz-adv-x="501" d="M37 190q0 151 80.5 253.5t198.5 102.5q84 0 132.5 -54.5t48.5 -149.5q0 -149 -81 -252.5t-198 -103.5q-84 0 -132.5 54.5t-48.5 149.5zM156 209q0 -105 83 -105q62 0 100 65t38 155q0 104 -83 104q-62 0 -100 -66t-38 -153zM176 612q23 64 51.5 93.5t68.5 29.5 q7 0 52.5 -18t51.5 -18q30 0 46 40h53q-41 -120 -110 -120q-9 0 -57 18t-58 18q-29 0 -46 -43h-52z" />
<glyph unicode="&#xf6;" horiz-adv-x="501" d="M37 190q0 151 80.5 253.5t198.5 102.5q84 0 132.5 -54.5t48.5 -149.5q0 -149 -81 -252.5t-198 -103.5q-84 0 -132.5 54.5t-48.5 149.5zM156 209q0 -105 83 -105q62 0 100 65t38 155q0 104 -83 104q-62 0 -100 -66t-38 -153zM198 618l20 115h96l-20 -115h-96zM363 618 l20 115h96l-20 -115h-96z" />
<glyph unicode="&#xf7;" horiz-adv-x="479" d="M77 207v86h365v-86h-365zM198 71q0 26 18 44t44 18t44 -18.5t18 -43.5q0 -26 -18 -44t-44 -18t-44 18t-18 44zM198 430q0 26 18 44t44 18t44 -18t18 -44t-18 -44t-44 -18t-44 18t-18 44z" />
<glyph unicode="&#xf8;" horiz-adv-x="501" d="M-12 0l73 77q-24 55 -24 114q0 148 81 251.5t198 103.5q81 0 137 -59l69 73l23 -32l-71 -74q23 -55 23 -113q0 -147 -80.5 -251t-198.5 -104q-81 0 -135 58l-69 -73zM157 210q0 -1 2 -31l204 214q-24 35 -67 35q-60 0 -99.5 -62.5t-39.5 -155.5zM173 138q21 -34 65 -34 q61 0 100 63t39 155q0 15 -1 29z" />
<glyph unicode="&#xf9;" horiz-adv-x="501" d="M50 120q0 36 5 62l62 350h115l-58 -330q-3 -17 -3 -34q0 -64 59 -64q42 0 71.5 32.5t39.5 88.5l54 307h115l-93 -532h-110l14 78q-34 -49 -69.5 -70.5t-82.5 -21.5q-57 0 -88 35t-31 99zM189 748h126l52 -146h-83z" />
<glyph unicode="&#xfa;" horiz-adv-x="501" d="M50 120q0 36 5 62l62 350h115l-58 -330q-3 -17 -3 -34q0 -64 59 -64q42 0 71.5 32.5t39.5 88.5l54 307h115l-93 -532h-110l14 78q-34 -49 -69.5 -70.5t-82.5 -21.5q-57 0 -88 35t-31 99zM284 602l103 146h126l-146 -146h-83z" />
<glyph unicode="&#xfb;" horiz-adv-x="501" d="M50 120q0 36 5 62l62 350h115l-58 -330q-3 -17 -3 -34q0 -64 59 -64q42 0 71.5 32.5t39.5 88.5l54 307h115l-93 -532h-110l14 78q-34 -49 -69.5 -70.5t-82.5 -21.5q-57 0 -88 35t-31 99zM181 602l119 146h103l68 -146h-93l-38 82l-66 -82h-93z" />
<glyph unicode="&#xfc;" horiz-adv-x="501" d="M50 120q0 36 5 62l62 350h115l-58 -330q-3 -17 -3 -34q0 -64 59 -64q42 0 71.5 32.5t39.5 88.5l54 307h115l-93 -532h-110l14 78q-34 -49 -69.5 -70.5t-82.5 -21.5q-57 0 -88 35t-31 99zM198 618l20 115h96l-20 -115h-96zM363 618l20 115h96l-20 -115h-96z" />
<glyph unicode="&#xfd;" d="M4 -212l20 112q14 -2 24 -2q36 0 53.5 15.5t33.5 64.5l-64 554h128l25 -396l159 396h122l-242 -523q-32 -68 -49.5 -103t-35.5 -63.5t-35 -38t-35.5 -14t-49.5 -4.5zM261 602l103 146h126l-146 -146h-83z" />
<glyph unicode="&#xfe;" horiz-adv-x="501" d="M-15 -207l161 925h115l-45 -257q34 46 66.5 65.5t74.5 19.5q66 0 104 -50.5t38 -137.5q0 -95 -30.5 -180t-87 -138.5t-123.5 -53.5q-45 0 -70 19.5t-40 65.5l-48 -278h-115zM171 202q0 -48 20 -74.5t57 -26.5q54 0 91.5 68.5t37.5 151.5q0 104 -75 104q-41 0 -72 -36 t-45 -85.5t-14 -101.5z" />
<glyph unicode="&#xff;" d="M4 -212l20 112q14 -2 24 -2q36 0 53.5 15.5t33.5 64.5l-64 554h128l25 -396l159 396h122l-242 -523q-32 -68 -49.5 -103t-35.5 -63.5t-35 -38t-35.5 -14t-49.5 -4.5zM175 618l20 115h96l-20 -115h-96zM340 618l20 115h96l-20 -115h-96z" />
<glyph unicode="&#x100;" horiz-adv-x="592" d="M-14 0l336 718h142l82 -718h-134l-12 148h-217l-67 -148h-130zM237 272h150l-23 287zM268 814l13 74h283l-13 -74h-283z" />
<glyph unicode="&#x101;" d="M15 101q0 82 44 139.5t116 70.5l107 19q49 9 49 57q0 47 -62 47q-36 0 -56 -17t-32 -57h-110q29 102 80 144t142 42q74 0 114.5 -31.5t40.5 -89.5q0 -17 -3 -33l-50 -288q-5 -32 -5 -49q0 -25 16 -34l-4 -21h-124q-1 16 -1 29q0 15 2 34q-41 -42 -75.5 -59.5t-76.5 -17.5 q-53 0 -82.5 30.5t-29.5 84.5zM133 133q0 -22 12 -34.5t33 -12.5q42 0 77.5 31t42.5 74l12 68q-22 -17 -83 -29q-49 -10 -71.5 -33t-22.5 -64zM167 638l13 74h283l-13 -74h-283z" />
<glyph unicode="&#x102;" horiz-adv-x="592" d="M-14 0l336 718h142l82 -718h-134l-12 148h-217l-67 -148h-130zM237 272h150l-23 287zM278 914h54q11 -25 30 -37t57 -12t59 12t34 37h63q-54 -126 -175 -126q-114 0 -122 126z" />
<glyph unicode="&#x103;" d="M15 101q0 82 44 139.5t116 70.5l107 19q49 9 49 57q0 47 -62 47q-36 0 -56 -17t-32 -57h-110q29 102 80 144t142 42q74 0 114.5 -31.5t40.5 -89.5q0 -17 -3 -33l-50 -288q-5 -32 -5 -49q0 -25 16 -34l-4 -21h-124q-1 16 -1 29q0 15 2 34q-41 -42 -75.5 -59.5t-76.5 -17.5 q-53 0 -82.5 30.5t-29.5 84.5zM133 133q0 -22 12 -34.5t33 -12.5q42 0 77.5 31t42.5 74l12 68q-22 -17 -83 -29q-49 -10 -71.5 -33t-22.5 -64zM189 720q0 16 1 28h54v-6q0 -34 17 -49t55 -15q40 0 61 15t36 55h53q-41 -146 -168 -146q-53 0 -81 30.5t-28 87.5z" />
<glyph unicode="&#x104;" horiz-adv-x="592" d="M-14 0l336 718h142l82 -718q-61 -5 -103 -53q-27 -30 -27 -64q0 -42 62 -42h40l-16 -91h-40q-60 0 -102.5 24.5t-42.5 71.5q0 44 26 82q31 44 69 72l-12 148h-217l-67 -148h-130zM237 272h150l-23 287z" />
<glyph unicode="&#x105;" d="M15 101q0 82 44 139.5t116 70.5l107 19q49 9 49 57q0 47 -62 47q-36 0 -56 -17t-32 -57h-110q29 102 80 144t142 42q74 0 114.5 -31.5t40.5 -89.5q0 -17 -3 -33l-50 -288q-5 -32 -5 -49q0 -25 16 -34l-4 -21q-60 -5 -102 -53q-27 -30 -27 -64q0 -42 62 -42h40l-16 -91 h-40q-60 0 -102.5 24.5t-42.5 71.5q0 44 26 82q31 45 78 72q-1 16 -1 29q0 15 2 34q-41 -42 -75.5 -59.5t-76.5 -17.5q-53 0 -82.5 30.5t-29.5 84.5zM133 133q0 -22 12 -34.5t33 -12.5q42 0 77.5 31t42.5 74l12 68q-22 -17 -83 -29q-49 -10 -71.5 -33t-22.5 -64z" />
<glyph unicode="&#x106;" horiz-adv-x="592" d="M58 241q0 135 45.5 248.5t126 180.5t178.5 67q94 0 151.5 -60t57.5 -158q0 -20 -1 -36h-124q-3 64 -28 94t-76 30q-87 0 -144.5 -100t-57.5 -241q0 -74 29 -114.5t82 -40.5q51 0 88.5 32t65.5 103h123q-97 -265 -301 -265q-102 0 -158.5 67.5t-56.5 192.5zM375 788 l100 126h126l-143 -126h-83z" />
<glyph unicode="&#x107;" d="M35 170q0 156 74 266t190 110q74 0 118 -44t44 -117q0 -11 -2 -43h-116q-1 45 -14.5 65.5t-44.5 20.5q-57 0 -93 -70t-36 -169q0 -42 17.5 -65t48.5 -23q32 0 58.5 25.5t36.5 67.5h117q-31 -101 -91.5 -154.5t-144.5 -53.5q-79 0 -120.5 47.5t-41.5 136.5zM261 602 l103 146h126l-146 -146h-83z" />
<glyph unicode="&#x108;" horiz-adv-x="592" d="M58 241q0 135 45.5 248.5t126 180.5t178.5 67q94 0 151.5 -60t57.5 -158q0 -20 -1 -36h-124q-3 64 -28 94t-76 30q-87 0 -144.5 -100t-57.5 -241q0 -74 29 -114.5t82 -40.5q51 0 88.5 32t65.5 103h123q-97 -265 -301 -265q-102 0 -158.5 67.5t-56.5 192.5zM262 788 l125 126h103l81 -126h-93l-51 62l-72 -62h-93z" />
<glyph unicode="&#x109;" d="M35 170q0 156 74 266t190 110q74 0 118 -44t44 -117q0 -11 -2 -43h-116q-1 45 -14.5 65.5t-44.5 20.5q-57 0 -93 -70t-36 -169q0 -42 17.5 -65t48.5 -23q32 0 58.5 25.5t36.5 67.5h117q-31 -101 -91.5 -154.5t-144.5 -53.5q-79 0 -120.5 47.5t-41.5 136.5zM158 602 l119 146h103l68 -146h-93l-38 82l-66 -82h-93z" />
<glyph unicode="&#x10a;" horiz-adv-x="592" d="M58 241q0 135 45.5 248.5t126 180.5t178.5 67q94 0 151.5 -60t57.5 -158q0 -20 -1 -36h-124q-3 64 -28 94t-76 30q-87 0 -144.5 -100t-57.5 -241q0 -74 29 -114.5t82 -40.5q51 0 88.5 32t65.5 103h123q-97 -265 -301 -265q-102 0 -158.5 67.5t-56.5 192.5zM361 794 l20 115h114l-20 -115h-114z" />
<glyph unicode="&#x10b;" d="M35 170q0 156 74 266t190 110q74 0 118 -44t44 -117q0 -11 -2 -43h-116q-1 45 -14.5 65.5t-44.5 20.5q-57 0 -93 -70t-36 -169q0 -42 17.5 -65t48.5 -23q32 0 58.5 25.5t36.5 67.5h117q-31 -101 -91.5 -154.5t-144.5 -53.5q-79 0 -120.5 47.5t-41.5 136.5zM249 618 l20 115h114l-20 -115h-114z" />
<glyph unicode="&#x10c;" horiz-adv-x="592" d="M58 241q0 135 45.5 248.5t126 180.5t178.5 67q94 0 151.5 -60t57.5 -158q0 -20 -1 -36h-124q-3 64 -28 94t-76 30q-87 0 -144.5 -100t-57.5 -241q0 -74 29 -114.5t82 -40.5q51 0 88.5 32t65.5 103h123q-97 -265 -301 -265q-102 0 -158.5 67.5t-56.5 192.5zM284 914h93 l51 -62l72 62h93l-125 -126h-103z" />
<glyph unicode="&#x10d;" d="M35 170q0 156 74 266t190 110q74 0 118 -44t44 -117q0 -11 -2 -43h-116q-1 45 -14.5 65.5t-44.5 20.5q-57 0 -93 -70t-36 -169q0 -42 17.5 -65t48.5 -23q32 0 58.5 25.5t36.5 67.5h117q-31 -101 -91.5 -154.5t-144.5 -53.5q-79 0 -120.5 47.5t-41.5 136.5zM183 748h93 l38 -82l66 82h93l-119 -146h-103z" />
<glyph unicode="&#x10e;" horiz-adv-x="592" d="M32 0l125 718h261q92 0 140.5 -59.5t48.5 -172.5q0 -124 -40 -235t-114.5 -181t-165.5 -70h-255zM174 124h120q53 0 96.5 50t66 127t22.5 161q0 132 -104 132h-119zM276 914h93l51 -62l72 62h93l-125 -126h-103z" />
<glyph unicode="&#x10f;" horiz-adv-x="501" d="M37 180q0 152 69.5 259t168.5 107q42 0 68 -20t44 -66l45 258h115l-125 -718h-113l13 70q-58 -84 -144 -84q-67 0 -104 51t-37 143zM157 209q0 -108 72 -108q57 0 95.5 63t38.5 157q0 104 -75 104q-57 0 -94 -66t-37 -150zM562 480l8 43q29 6 48 30t23 58h-56l19 107h98 l-17 -95q-7 -58 -41.5 -98t-81.5 -45z" />
<glyph unicode="&#x110;" horiz-adv-x="592" d="M21 316l22 124h66l49 278h260q92 0 140.5 -59.5t48.5 -173.5q0 -123 -40 -233.5t-114.5 -181t-164.5 -70.5h-256l55 316h-66zM175 124h119q79 0 132 103t53 235t-104 132h-118l-27 -154h136l-22 -124h-136z" />
<glyph unicode="&#x111;" horiz-adv-x="509" d="M37 180q0 152 69.5 259t168.5 107q42 0 68 -20t44 -66l22 128h-110l13 74h110l10 56h115l-10 -56h58l-13 -74h-58l-102 -588h-113l13 70q-58 -84 -144 -84q-67 0 -104 51t-37 143zM157 209q0 -108 72 -108q57 0 95.5 63t38.5 157q0 104 -75 104q-57 0 -94 -66t-37 -150z " />
<glyph unicode="&#x112;" horiz-adv-x="547" d="M32 0l125 718h433l-22 -127h-313l-26 -151h287l-22 -127h-287l-32 -186h326l-22 -127h-447zM248 814l13 74h283l-13 -74h-283z" />
<glyph unicode="&#x113;" d="M28 179q0 157 75 262t188 105q80 0 122.5 -50t42.5 -145q0 -39 -9 -98l-4 -25h-299q-3 -22 -3 -39q0 -44 21 -67.5t59 -23.5q59 0 86 58h118q-77 -170 -225 -170q-84 0 -128 49.5t-44 143.5zM163 319h178l1 26q1 39 -19.5 62.5t-52.5 23.5q-38 0 -64 -27t-43 -85z M167 638l13 74h283l-13 -74h-283z" />
<glyph unicode="&#x114;" horiz-adv-x="547" d="M32 0l125 718h433l-22 -127h-313l-26 -151h287l-22 -127h-287l-32 -186h326l-22 -127h-447zM258 914h54q11 -25 30 -37t57 -12t59 12t34 37h63q-54 -126 -175 -126q-114 0 -122 126z" />
<glyph unicode="&#x115;" d="M28 179q0 157 75 262t188 105q80 0 122.5 -50t42.5 -145q0 -39 -9 -98l-4 -25h-299q-3 -22 -3 -39q0 -44 21 -67.5t59 -23.5q59 0 86 58h118q-77 -170 -225 -170q-84 0 -128 49.5t-44 143.5zM163 319h178l1 26q1 39 -19.5 62.5t-52.5 23.5q-38 0 -64 -27t-43 -85z M189 720q0 16 1 28h54v-6q0 -34 17 -49t55 -15q40 0 61 15t36 55h53q-41 -146 -168 -146q-53 0 -81 30.5t-28 87.5z" />
<glyph unicode="&#x116;" horiz-adv-x="547" d="M32 0l125 718h433l-22 -127h-313l-26 -151h287l-22 -127h-287l-32 -186h326l-22 -127h-447zM330 794l20 115h114l-20 -115h-114z" />
<glyph unicode="&#x117;" d="M28 179q0 157 75 262t188 105q80 0 122.5 -50t42.5 -145q0 -39 -9 -98l-4 -25h-299q-3 -22 -3 -39q0 -44 21 -67.5t59 -23.5q59 0 86 58h118q-77 -170 -225 -170q-84 0 -128 49.5t-44 143.5zM163 319h178l1 26q1 39 -19.5 62.5t-52.5 23.5q-38 0 -64 -27t-43 -85z M249 618l20 115h114l-20 -115h-114z" />
<glyph unicode="&#x118;" horiz-adv-x="547" d="M32 0l125 718h433l-22 -127h-313l-26 -151h287l-22 -127h-287l-32 -186h326l-22 -127q-61 -5 -103 -53q-27 -30 -27 -64q0 -42 62 -42h40l-16 -91h-40q-60 0 -102.5 24.5t-42.5 71.5q0 44 24.5 79.5t75.5 74.5h-318z" />
<glyph unicode="&#x119;" d="M28 179q0 157 75 262t188 105q80 0 122.5 -50t42.5 -145q0 -39 -9 -98l-4 -25h-299q-3 -22 -3 -39q0 -44 21 -67.5t59 -23.5q59 0 86 58h118q-39 -87 -98 -131q-48 -35 -87 -78q-27 -30 -27 -64q0 -42 62 -42h40l-16 -91h-40q-60 0 -102.5 24.5t-42.5 71.5q0 73 82 140 q-82 1 -125 50t-43 143zM163 319h178l1 26q1 39 -19.5 62.5t-52.5 23.5q-38 0 -64 -27t-43 -85z" />
<glyph unicode="&#x11a;" horiz-adv-x="547" d="M32 0l125 718h433l-22 -127h-313l-26 -151h287l-22 -127h-287l-32 -186h326l-22 -127h-447zM253 914h93l51 -62l72 62h93l-125 -126h-103z" />
<glyph unicode="&#x11b;" d="M28 179q0 157 75 262t188 105q80 0 122.5 -50t42.5 -145q0 -39 -9 -98l-4 -25h-299q-3 -22 -3 -39q0 -44 21 -67.5t59 -23.5q59 0 86 58h118q-77 -170 -225 -170q-84 0 -128 49.5t-44 143.5zM163 319h178l1 26q1 39 -19.5 62.5t-52.5 23.5q-38 0 -64 -27t-43 -85z M183 748h93l38 -82l66 82h93l-119 -146h-103z" />
<glyph unicode="&#x11c;" horiz-adv-x="638" d="M59 249q0 128 46 239.5t130.5 180t187.5 68.5q98 0 157.5 -58t59.5 -154q0 -17 -1 -30h-123v6q0 47 -32 79.5t-78 32.5q-93 0 -156.5 -102t-63.5 -243q0 -76 34.5 -118t96.5 -42q113 0 175 158h-137l21 121h247l-68 -387h-82l3 90q-53 -61 -98 -85t-104 -24 q-99 0 -157 72t-58 196zM277 788l125 126h103l81 -126h-93l-51 62l-72 -62h-93z" />
<glyph unicode="&#x11d;" horiz-adv-x="501" d="M1 -84q0 17 1 27h125q0 -30 15.5 -42t51.5 -12q49 0 77 29t39 93l12 69q-31 -46 -60 -64.5t-73 -18.5q-70 0 -109 49.5t-39 137.5q0 150 70 256t169 106q46 0 72 -23t39 -73l15 82h110l-88 -504q-23 -132 -86.5 -188.5t-168.5 -56.5q-81 0 -126.5 35t-45.5 98zM161 212 q0 -46 18.5 -71.5t52.5 -25.5q56 0 92 61t36 143q0 49 -20 77.5t-55 28.5q-50 0 -87 -63t-37 -150zM181 602l119 146h103l68 -146h-93l-38 82l-66 -82h-93z" />
<glyph unicode="&#x11e;" horiz-adv-x="638" d="M59 249q0 128 46 239.5t130.5 180t187.5 68.5q98 0 157.5 -58t59.5 -154q0 -17 -1 -30h-123v6q0 47 -32 79.5t-78 32.5q-93 0 -156.5 -102t-63.5 -243q0 -76 34.5 -118t96.5 -42q113 0 175 158h-137l21 121h247l-68 -387h-82l3 90q-53 -61 -98 -85t-104 -24 q-99 0 -157 72t-58 196zM305 914h54q11 -25 30 -37t57 -12t59 12t34 37h63q-54 -126 -175 -126q-114 0 -122 126z" />
<glyph unicode="&#x11f;" horiz-adv-x="501" d="M1 -84q0 17 1 27h125q0 -30 15.5 -42t51.5 -12q49 0 77 29t39 93l12 69q-31 -46 -60 -64.5t-73 -18.5q-70 0 -109 49.5t-39 137.5q0 150 70 256t169 106q46 0 72 -23t39 -73l15 82h110l-88 -504q-23 -132 -86.5 -188.5t-168.5 -56.5q-81 0 -126.5 35t-45.5 98zM161 212 q0 -46 18.5 -71.5t52.5 -25.5q56 0 92 61t36 143q0 49 -20 77.5t-55 28.5q-50 0 -87 -63t-37 -150zM212 720q0 16 1 28h54v-6q0 -34 17 -49t55 -15q40 0 61 15t36 55h53q-41 -146 -168 -146q-53 0 -81 30.5t-28 87.5z" />
<glyph unicode="&#x120;" horiz-adv-x="638" d="M59 249q0 128 46 239.5t130.5 180t187.5 68.5q98 0 157.5 -58t59.5 -154q0 -17 -1 -30h-123v6q0 47 -32 79.5t-78 32.5q-93 0 -156.5 -102t-63.5 -243q0 -76 34.5 -118t96.5 -42q113 0 175 158h-137l21 121h247l-68 -387h-82l3 90q-53 -61 -98 -85t-104 -24 q-99 0 -157 72t-58 196zM376 794l20 115h114l-20 -115h-114z" />
<glyph unicode="&#x121;" horiz-adv-x="501" d="M1 -84q0 17 1 27h125q0 -30 15.5 -42t51.5 -12q49 0 77 29t39 93l12 69q-31 -46 -60 -64.5t-73 -18.5q-70 0 -109 49.5t-39 137.5q0 150 70 256t169 106q46 0 72 -23t39 -73l15 82h110l-88 -504q-23 -132 -86.5 -188.5t-168.5 -56.5q-81 0 -126.5 35t-45.5 98zM161 212 q0 -46 18.5 -71.5t52.5 -25.5q56 0 92 61t36 143q0 49 -20 77.5t-55 28.5q-50 0 -87 -63t-37 -150zM272 618l20 115h114l-20 -115h-114z" />
<glyph unicode="&#x122;" horiz-adv-x="638" d="M59 249q0 128 46 239.5t130.5 180t187.5 68.5q98 0 157.5 -58t59.5 -154q0 -17 -1 -30h-123v6q0 47 -32 79.5t-78 32.5q-93 0 -156.5 -102t-63.5 -243q0 -76 34.5 -118t96.5 -42q113 0 175 158h-137l21 121h247l-68 -387h-82l3 90q-53 -61 -98 -85t-104 -24 q-99 0 -157 72t-58 196zM193 -298l8 43q29 6 48 30t23 58h-56l19 107h98l-17 -95q-7 -58 -41.5 -98t-81.5 -45z" />
<glyph unicode="&#x123;" horiz-adv-x="501" d="M1 -84q0 17 1 27h125q0 -30 15.5 -42t51.5 -12q49 0 77 29t39 93l12 69q-31 -46 -60 -64.5t-73 -18.5q-70 0 -109 49.5t-39 137.5q0 150 70 256t169 106q46 0 72 -23t39 -73l15 82h110l-88 -504q-23 -132 -86.5 -188.5t-168.5 -56.5q-81 0 -126.5 35t-45.5 98zM161 212 q0 -46 18.5 -71.5t52.5 -25.5q56 0 92 61t36 143q0 49 -20 77.5t-55 28.5q-50 0 -87 -63t-37 -150zM274 585l17 95q7 58 41.5 98t81.5 45l-8 -43q-29 -6 -48 -30t-23 -58h56l-19 -107h-98z" />
<glyph unicode="&#x124;" horiz-adv-x="592" d="M28 0l125 718h123l-47 -272h230l47 272h123l-125 -718h-123l56 322h-230l-56 -322h-123zM248 788l125 126h103l81 -126h-93l-51 62l-72 -62h-93z" />
<glyph unicode="&#x125;" horiz-adv-x="501" d="M23 0l125 718h115l-45 -259q50 87 145 87q57 0 90 -35.5t33 -97.5q0 -24 -4 -45l-64 -368h-115l56 323q5 30 5 45q0 28 -16 44t-44 16q-42 0 -72.5 -33t-40.5 -90l-53 -305h-115zM203 788l125 126h103l81 -126h-93l-51 62l-72 -62h-93z" />
<glyph unicode="&#x126;" horiz-adv-x="592" d="M28 0l94 539h-61l12 71h61l19 108h123l-19 -108h230l19 108h123l-19 -108h61l-12 -71h-61l-94 -539h-123l56 322h-230l-56 -322h-123zM229 446h230l16 93h-230z" />
<glyph unicode="&#x127;" horiz-adv-x="566" d="M84 0l90 515l-61 -21l13 76l61 21l22 127h115l-15 -86l88 31l-13 -76l-88 -30l-17 -98q50 87 145 87q57 0 90 -35.5t33 -97.5q0 -24 -4 -45l-64 -368h-115l56 323q5 30 5 45q0 28 -15.5 44t-44.5 16q-42 0 -72.5 -33t-40.5 -90l-53 -305h-115z" />
<glyph unicode="&#x128;" horiz-adv-x="228" d="M22 0l126 718h123l-126 -718h-123zM71 788q23 64 51.5 93.5t68.5 29.5q7 0 52.5 -18t51.5 -18q30 0 46 40h53q-40 -120 -110 -120q-9 0 -57 18t-58 18q-29 0 -46 -43h-52z" />
<glyph unicode="&#x129;" horiz-adv-x="228" d="M27 0l93 532h114l-93 -532h-114zM39 612q23 64 51.5 93.5t68.5 29.5q7 0 52.5 -18t51.5 -18q30 0 46 40h53q-40 -120 -110 -120q-9 0 -57 18t-58 18q-29 0 -46 -43h-52z" />
<glyph unicode="&#x12a;" horiz-adv-x="228" d="M22 0l126 718h123l-126 -718h-123zM84 814l13 74h283l-13 -74h-283z" />
<glyph unicode="&#x12b;" horiz-adv-x="228" d="M27 0l93 532h114l-93 -532h-114zM53 638l13 74h283l-13 -74h-283z" />
<glyph unicode="&#x12c;" horiz-adv-x="228" d="M22 0l126 718h123l-126 -718h-123zM94 914h54q11 -25 30 -37t57 -12t59 12t34 37h63q-54 -126 -175 -126q-114 0 -122 126z" />
<glyph unicode="&#x12d;" horiz-adv-x="228" d="M27 0l93 532h114l-93 -532h-114zM75 720q0 16 1 28h54v-6q0 -34 17 -49t55 -15q40 0 61 15t36 55h53q-41 -146 -168 -146q-53 0 -81 30.5t-28 87.5z" />
<glyph unicode="&#x12e;" horiz-adv-x="228" d="M-63 -154q0 44 24.5 79.5t75.5 74.5h-15l126 718h123l-126 -718q-47 -14 -82 -53q-27 -30 -27 -64q0 -42 62 -42h40l-16 -91h-40q-60 0 -102.5 24.5t-42.5 71.5z" />
<glyph unicode="&#x12f;" horiz-adv-x="228" d="M-58 -154q0 44 24.5 79.5t75.5 74.5h-15l93 532h114l-93 -532q-41 -18 -73 -53q-27 -32 -27 -64q0 -42 62 -42h40l-16 -91h-40q-60 0 -102.5 24.5t-42.5 71.5zM135 618l20 115h114l-20 -115h-114z" />
<glyph unicode="&#x130;" horiz-adv-x="228" d="M22 0l126 718h123l-126 -718h-123zM166 794l20 115h114l-20 -115h-114z" />
<glyph unicode="&#x131;" horiz-adv-x="228" d="M27 0l93 532h114l-93 -532h-114z" />
<glyph unicode="&#x134;" d="M19 134q0 42 16 137h115q-12 -76 -12 -105q0 -33 13.5 -48t42.5 -15q37 0 56 23t30 82l89 510h123l-89 -510q-39 -226 -225 -226q-81 0 -120 37.5t-39 114.5zM287 788l125 126h103l81 -126h-93l-51 62l-72 -62h-93z" />
<glyph unicode="&#x135;" horiz-adv-x="228" d="M-65 -214l20 112h20q34 0 42 49l102 585h115l-102 -588q-16 -89 -52.5 -123.5t-115.5 -34.5h-29zM44 602l119 146h103l68 -146h-93l-38 82l-66 -82h-93z" />
<glyph unicode="&#x136;" horiz-adv-x="592" d="M41 0l125 718h123l-51 -292l276 292h159l-292 -294l181 -424h-159l-127 315l-70 -72l-42 -243h-123zM163 -298l8 43q29 6 48 30t23 58h-56l19 107h98l-17 -95q-7 -58 -41.5 -98t-81.5 -45z" />
<glyph unicode="&#x137;" d="M27 0l125 718h115l-68 -388l179 202h141l-190 -206l102 -326h-138l-64 228l-58 -60l-29 -168h-115zM97 -298l8 43q29 6 48 30t23 58h-56l19 107h98l-17 -95q-7 -58 -41.5 -98t-81.5 -45z" />
<glyph unicode="&#x139;" horiz-adv-x="501" d="M32 0l125 718h123l-102 -588h293l-23 -130h-416zM169 788l100 126h126l-143 -126h-83z" />
<glyph unicode="&#x13a;" horiz-adv-x="228" d="M27 0l125 718h115l-125 -718h-115zM164 788l100 126h126l-143 -126h-83z" />
<glyph unicode="&#x13b;" horiz-adv-x="501" d="M32 0l125 718h123l-102 -588h293l-23 -130h-416zM139 -298l8 43q29 6 48 30t23 58h-56l19 107h98l-17 -95q-7 -58 -41.5 -98t-81.5 -45z" />
<glyph unicode="&#x13c;" horiz-adv-x="228" d="M-17 -298l8 43q29 6 48 30t23 58h-56l19 107h98l-17 -95q-7 -58 -41.5 -98t-81.5 -45zM27 0l125 718h115l-125 -718h-115z" />
<glyph unicode="&#x13d;" horiz-adv-x="501" d="M32 0l125 718h123l-102 -588h293l-23 -130h-416zM295 480l8 43q29 6 48 30t23 58h-56l19 107h98l-17 -95q-7 -58 -41.5 -98t-81.5 -45z" />
<glyph unicode="&#x13e;" horiz-adv-x="228" d="M27 0l125 718h115l-125 -718h-115zM282 480l8 43q29 6 48 30t23 58h-56l19 107h98l-17 -95q-7 -58 -41.5 -98t-81.5 -45z" />
<glyph unicode="&#x13f;" horiz-adv-x="501" d="M32 0l125 718h123l-102 -588h293l-23 -130h-416zM343 321l20 115h114l-20 -115h-114z" />
<glyph unicode="&#x140;" horiz-adv-x="342" d="M27 0l125 718h115l-125 -718h-115zM255 321l20 115h114l-20 -115h-114z" />
<glyph unicode="&#x141;" horiz-adv-x="618" d="M55 169l18 107l106 69l65 373h123l-51 -292l147 96l-19 -107l-146 -96l-33 -189h293l-23 -130h-416l41 238z" />
<glyph unicode="&#x142;" horiz-adv-x="402" d="M61 309l17 100l118 64l43 245h115l-32 -186l119 65l-17 -100l-120 -65l-75 -432h-115l65 373z" />
<glyph unicode="&#x143;" horiz-adv-x="592" d="M27 0l125 718h129l148 -504l87 504h115l-125 -718h-123l-152 515l-89 -515h-115zM361 788l100 126h126l-143 -126h-83z" />
<glyph unicode="&#x144;" horiz-adv-x="501" d="M23 0l93 532h110l-14 -81q35 51 69 73t80 22q59 0 92 -35.5t33 -97.5q0 -24 -4 -45l-64 -368h-115l56 323q5 30 5 45q0 28 -16 44t-44 16q-42 0 -72.5 -33t-40.5 -90l-53 -305h-115zM284 602l103 146h126l-146 -146h-83z" />
<glyph unicode="&#x145;" horiz-adv-x="592" d="M27 0l125 718h129l148 -504l87 504h115l-125 -718h-123l-152 515l-89 -515h-115zM165 -298l8 43q29 6 48 30t23 58h-56l19 107h98l-17 -95q-7 -58 -41.5 -98t-81.5 -45z" />
<glyph unicode="&#x146;" horiz-adv-x="501" d="M23 0l93 532h110l-14 -81q35 51 69 73t80 22q59 0 92 -35.5t33 -97.5q0 -24 -4 -45l-64 -368h-115l56 323q5 30 5 45q0 28 -16 44t-44 16q-42 0 -72.5 -33t-40.5 -90l-53 -305h-115zM120 -298l8 43q29 6 48 30t23 58h-56l19 107h98l-17 -95q-7 -58 -41.5 -98t-81.5 -45z " />
<glyph unicode="&#x147;" horiz-adv-x="592" d="M27 0l125 718h129l148 -504l87 504h115l-125 -718h-123l-152 515l-89 -515h-115zM271 914h93l51 -62l72 62h93l-125 -126h-103z" />
<glyph unicode="&#x148;" horiz-adv-x="501" d="M23 0l93 532h110l-14 -81q35 51 69 73t80 22q59 0 92 -35.5t33 -97.5q0 -24 -4 -45l-64 -368h-115l56 323q5 30 5 45q0 28 -16 44t-44 16q-42 0 -72.5 -33t-40.5 -90l-53 -305h-115zM206 748h93l38 -82l66 82h93l-119 -146h-103z" />
<glyph unicode="&#x14a;" horiz-adv-x="592" d="M27 0l125 718h129l148 -504l87 504h115l-129 -741q-39 -226 -225 -226q-81 0 -120 37.5t-39 114.5l119 32q0 -33 13.5 -48t42.5 -15q31 0 57.5 20.5t31.5 50.5l7 38l-158 534l-89 -515h-115z" />
<glyph unicode="&#x14b;" horiz-adv-x="501" d="M23 0l93 532h110l-14 -81q35 51 69 73t80 22q59 0 92 -35.5t33 -97.5q0 -24 -4 -45l-74 -424q-16 -89 -52.5 -123.5t-115.5 -34.5h-29l20 112h20q34 0 42 49l66 376q5 30 5 45q0 28 -16 44t-44 16q-42 0 -72.5 -33t-40.5 -90l-53 -305h-115z" />
<glyph unicode="&#x14c;" horiz-adv-x="638" d="M58 245q0 136 47 249t130 178t184 65q99 0 162.5 -68t63.5 -195q0 -210 -103 -351.5t-257 -141.5q-105 0 -166 71t-61 193zM184 271q0 -76 33 -119.5t92 -43.5q89 0 150 98.5t61 240.5q0 76 -33 119.5t-91 43.5q-91 0 -151.5 -101t-60.5 -238zM290 814l13 74h283l-13 -74 h-283z" />
<glyph unicode="&#x14d;" horiz-adv-x="501" d="M37 190q0 151 80.5 253.5t198.5 102.5q84 0 132.5 -54.5t48.5 -149.5q0 -149 -81 -252.5t-198 -103.5q-84 0 -132.5 54.5t-48.5 149.5zM156 209q0 -105 83 -105q62 0 100 65t38 155q0 104 -83 104q-62 0 -100 -66t-38 -153zM190 638l13 74h283l-13 -74h-283z" />
<glyph unicode="&#x14e;" horiz-adv-x="638" d="M58 245q0 136 47 249t130 178t184 65q99 0 162.5 -68t63.5 -195q0 -210 -103 -351.5t-257 -141.5q-105 0 -166 71t-61 193zM184 271q0 -76 33 -119.5t92 -43.5q89 0 150 98.5t61 240.5q0 76 -33 119.5t-91 43.5q-91 0 -151.5 -101t-60.5 -238zM301 914h54q11 -25 30 -37 t57 -12t59 12t34 37h63q-54 -126 -175 -126q-114 0 -122 126z" />
<glyph unicode="&#x14f;" horiz-adv-x="501" d="M37 190q0 151 80.5 253.5t198.5 102.5q84 0 132.5 -54.5t48.5 -149.5q0 -149 -81 -252.5t-198 -103.5q-84 0 -132.5 54.5t-48.5 149.5zM156 209q0 -105 83 -105q62 0 100 65t38 155q0 104 -83 104q-62 0 -100 -66t-38 -153zM212 720q0 16 1 28h54v-6q0 -34 17 -49t55 -15 q40 0 61 15t36 55h53q-41 -146 -168 -146q-53 0 -81 30.5t-28 87.5z" />
<glyph unicode="&#x150;" horiz-adv-x="638" d="M58 245q0 136 47 249t130 178t184 65q99 0 162.5 -68t63.5 -195q0 -210 -103 -351.5t-257 -141.5q-105 0 -166 71t-61 193zM184 271q0 -76 33 -119.5t92 -43.5q89 0 150 98.5t61 240.5q0 76 -33 119.5t-91 43.5q-91 0 -151.5 -101t-60.5 -238zM299 788l102 146h126 l-145 -146h-83zM467 788l102 146h126l-146 -146h-82z" />
<glyph unicode="&#x151;" horiz-adv-x="501" d="M37 190q0 151 80.5 253.5t198.5 102.5q84 0 132.5 -54.5t48.5 -149.5q0 -149 -81 -252.5t-198 -103.5q-84 0 -132.5 54.5t-48.5 149.5zM156 209q0 -105 83 -105q62 0 100 65t38 155q0 104 -83 104q-62 0 -100 -66t-38 -153zM197 602l102 146h126l-145 -146h-83zM365 602 l102 146h126l-146 -146h-82z" />
<glyph unicode="&#x152;" horiz-adv-x="820" d="M51 232q0 132 41 247.5t116 186.5t165 71q42 0 68.5 -14t48.5 -47l7 42h386l-22 -127h-273l-27 -151h255l-22 -127h-255l-32 -186h273l-22 -127h-386l9 50q-37 -40 -66.5 -54.5t-71.5 -14.5q-90 0 -141 66.5t-51 184.5zM174 269q0 -79 27 -121.5t76 -42.5q43 0 78.5 27 t42.5 64l57 325q2 14 2 18q0 32 -24 53t-64 21q-56 0 -102 -53t-69.5 -131t-23.5 -160z" />
<glyph unicode="&#x153;" horiz-adv-x="774" d="M37 190q0 150 80.5 253t196.5 103q89 0 138 -80q46 46 79.5 63t78.5 17q77 0 119 -51t42 -144q0 -39 -9 -98l-4 -25h-300q-2 -30 -2 -40q0 -43 21 -66.5t59 -23.5q59 0 86 58h118q-77 -170 -225 -170q-52 0 -84 17t-57 57q-65 -74 -156 -74q-84 0 -132.5 54.5 t-48.5 149.5zM156 208q0 -104 83 -104q62 0 100.5 65.5t38.5 153.5q0 105 -83 105q-62 0 -100.5 -66t-38.5 -154zM477 319h179l1 26q1 39 -19.5 62.5t-52.5 23.5q-75 0 -108 -112z" />
<glyph unicode="&#x154;" horiz-adv-x="592" d="M32 0l125 718h298q73 0 113 -41.5t40 -117.5q0 -70 -33 -129.5t-91 -85.5q29 -18 40.5 -37.5t11.5 -52.5q0 -39 -19 -146q-6 -34 -6 -57q0 -22 17 -32l-3 -19h-137l-1 27q-1 18 11 100t12 93q0 34 -18.5 47.5t-63.5 13.5h-127l-49 -281h-120zM223 402h144q58 0 86 33.5 t28 89.5q0 69 -72 69h-153zM342 788l100 126h126l-143 -126h-83z" />
<glyph unicode="&#x155;" horiz-adv-x="319" d="M22 0l93 532h110l-17 -95q40 63 69.5 86t71.5 23q2 0 4.5 -0.5t7.5 -1t10 -0.5l-25 -142q-11 2 -29 2q-110 0 -132 -127l-48 -277h-115zM200 602l103 146h126l-146 -146h-83z" />
<glyph unicode="&#x156;" horiz-adv-x="592" d="M32 0l125 718h298q73 0 113 -41.5t40 -117.5q0 -70 -33 -129.5t-91 -85.5q29 -18 40.5 -37.5t11.5 -52.5q0 -39 -19 -146q-6 -34 -6 -57q0 -22 17 -32l-3 -19h-137l-1 27q-1 18 11 100t12 93q0 34 -18.5 47.5t-63.5 13.5h-127l-49 -281h-120zM146 -298l8 43q29 6 48 30 t23 58h-56l19 107h98l-17 -95q-7 -58 -41.5 -98t-81.5 -45zM223 402h144q58 0 86 33.5t28 89.5q0 69 -72 69h-153z" />
<glyph unicode="&#x157;" horiz-adv-x="319" d="M-21 -298l8 43q29 6 48 30t23 58h-56l19 107h98l-17 -95q-7 -58 -41.5 -98t-81.5 -45zM22 0l93 532h110l-17 -95q40 63 69.5 86t71.5 23q2 0 4.5 -0.5t7.5 -1t10 -0.5l-25 -142q-11 2 -29 2q-110 0 -132 -127l-48 -277h-115z" />
<glyph unicode="&#x158;" horiz-adv-x="592" d="M32 0l125 718h298q73 0 113 -41.5t40 -117.5q0 -70 -33 -129.5t-91 -85.5q29 -18 40.5 -37.5t11.5 -52.5q0 -39 -19 -146q-6 -34 -6 -57q0 -22 17 -32l-3 -19h-137l-1 27q-1 18 11 100t12 93q0 34 -18.5 47.5t-63.5 13.5h-127l-49 -281h-120zM223 402h144q58 0 86 33.5 t28 89.5q0 69 -72 69h-153zM252 914h93l51 -62l72 62h93l-125 -126h-103z" />
<glyph unicode="&#x159;" horiz-adv-x="319" d="M22 0l93 532h110l-17 -95q40 63 69.5 86t71.5 23q2 0 4.5 -0.5t7.5 -1t10 -0.5l-25 -142q-11 2 -29 2q-110 0 -132 -127l-48 -277h-115zM122 748h93l38 -82l66 82h93l-119 -146h-103z" />
<glyph unicode="&#x15a;" horiz-adv-x="547" d="M36 162q0 19 5 59h118q-2 -22 -2 -27q0 -43 28.5 -66t80.5 -23q62 0 99.5 29.5t37.5 78.5q0 26 -20 42t-72 32l-60 18q-95 28 -125 61t-30 97q0 117 74.5 195.5t191.5 78.5q94 0 145 -50t51 -131q0 -23 -4 -51h-117v21q0 42 -26 64.5t-74 22.5q-54 0 -87.5 -29t-33.5 -75 q0 -23 11.5 -35.5t39.5 -21.5l136 -43q66 -21 95 -55.5t29 -91.5q0 -121 -79.5 -201t-204.5 -80q-97 0 -152 49t-55 132zM335 788l100 126h126l-143 -126h-83z" />
<glyph unicode="&#x15b;" d="M22 129q0 11 2 41h118q-1 -8 -1 -20q0 -58 80 -58q38 0 62.5 17.5t24.5 44.5q0 35 -86 52q-151 28 -151 129q0 94 62 152.5t154 58.5q162 0 162 -142q0 -20 -1 -34h-113v18q0 52 -67 52q-35 0 -56.5 -16t-21.5 -42q0 -34 85 -51q154 -31 154 -131q0 -91 -64 -152.5 t-165 -61.5q-83 0 -130.5 38t-47.5 105zM261 602l103 146h126l-146 -146h-83z" />
<glyph unicode="&#x15c;" horiz-adv-x="547" d="M36 162q0 19 5 59h118q-2 -22 -2 -27q0 -43 28.5 -66t80.5 -23q62 0 99.5 29.5t37.5 78.5q0 26 -20 42t-72 32l-60 18q-95 28 -125 61t-30 97q0 117 74.5 195.5t191.5 78.5q94 0 145 -50t51 -131q0 -23 -4 -51h-117v21q0 42 -26 64.5t-74 22.5q-54 0 -87.5 -29t-33.5 -75 q0 -23 11.5 -35.5t39.5 -21.5l136 -43q66 -21 95 -55.5t29 -91.5q0 -121 -79.5 -201t-204.5 -80q-97 0 -152 49t-55 132zM222 788l125 126h103l81 -126h-93l-51 62l-72 -62h-93z" />
<glyph unicode="&#x15d;" d="M22 129q0 11 2 41h118q-1 -8 -1 -20q0 -58 80 -58q38 0 62.5 17.5t24.5 44.5q0 35 -86 52q-151 28 -151 129q0 94 62 152.5t154 58.5q162 0 162 -142q0 -20 -1 -34h-113v18q0 52 -67 52q-35 0 -56.5 -16t-21.5 -42q0 -34 85 -51q154 -31 154 -131q0 -91 -64 -152.5 t-165 -61.5q-83 0 -130.5 38t-47.5 105zM158 602l119 146h103l68 -146h-93l-38 82l-66 -82h-93z" />
<glyph unicode="&#x15e;" horiz-adv-x="547" d="M36 162q0 19 5 59h118q-2 -22 -2 -27q0 -43 28.5 -66t80.5 -23q62 0 99.5 29.5t37.5 78.5q0 26 -20 42t-72 32l-60 18q-95 28 -125 61t-30 97q0 117 74.5 195.5t191.5 78.5q94 0 145 -50t51 -131q0 -23 -4 -51h-117v21q0 42 -26 64.5t-74 22.5q-54 0 -87.5 -29t-33.5 -75 q0 -23 11.5 -35.5t39.5 -21.5l136 -43q66 -21 95 -55.5t29 -91.5q0 -113 -71 -191.5t-185 -88.5l-20 -33h9q27 0 46 -17t19 -43q0 -48 -38 -82.5t-90 -34.5q-35 0 -87 25l26 48q44 -16 60 -16q19 0 33.5 14t14.5 33q0 13 -8 20.5t-20 7.5q-10 0 -34 -8l-14 20l46 66 q-84 7 -131 55t-47 125z" />
<glyph unicode="&#x15f;" d="M22 129q0 11 2 41h118q-1 -8 -1 -20q0 -58 80 -58q38 0 62.5 17.5t24.5 44.5q0 35 -86 52q-151 28 -151 129q0 94 62 152.5t154 58.5q162 0 162 -142q0 -20 -1 -34h-113v18q0 52 -67 52q-35 0 -56.5 -16t-21.5 -42q0 -34 85 -51q154 -31 154 -131q0 -86 -56.5 -146 t-148.5 -67l-23 -38h9q27 0 46 -17t19 -43q0 -48 -38 -82.5t-90 -34.5q-35 0 -87 25l26 48q44 -16 60 -16q19 0 33.5 14t14.5 33q0 13 -8 20.5t-20 7.5q-10 0 -34 -8l-14 20l50 72q-69 7 -107.5 44t-38.5 97z" />
<glyph unicode="&#x160;" horiz-adv-x="547" d="M36 162q0 19 5 59h118q-2 -22 -2 -27q0 -43 28.5 -66t80.5 -23q62 0 99.5 29.5t37.5 78.5q0 26 -20 42t-72 32l-60 18q-95 28 -125 61t-30 97q0 117 74.5 195.5t191.5 78.5q94 0 145 -50t51 -131q0 -23 -4 -51h-117v21q0 42 -26 64.5t-74 22.5q-54 0 -87.5 -29t-33.5 -75 q0 -23 11.5 -35.5t39.5 -21.5l136 -43q66 -21 95 -55.5t29 -91.5q0 -121 -79.5 -201t-204.5 -80q-97 0 -152 49t-55 132zM245 914h93l51 -62l72 62h93l-125 -126h-103z" />
<glyph unicode="&#x161;" d="M22 129q0 11 2 41h118q-1 -8 -1 -20q0 -58 80 -58q38 0 62.5 17.5t24.5 44.5q0 35 -86 52q-151 28 -151 129q0 94 62 152.5t154 58.5q162 0 162 -142q0 -20 -1 -34h-113v18q0 52 -67 52q-35 0 -56.5 -16t-21.5 -42q0 -34 85 -51q154 -31 154 -131q0 -91 -64 -152.5 t-165 -61.5q-83 0 -130.5 38t-47.5 105zM183 748h93l38 -82l66 82h93l-119 -146h-103z" />
<glyph unicode="&#x162;" horiz-adv-x="501" d="M80 -203l26 48q44 -16 60 -16q19 0 33.5 14t14.5 33q0 13 -8 20.5t-20 7.5q-10 0 -34 -8l-14 20l59 84h-38l103 591h-178l22 127h479l-22 -127h-178l-103 -591h-30l-31 -51h9q27 0 46 -17t19 -43q0 -48 -38 -82.5t-90 -34.5q-35 0 -87 25z" />
<glyph unicode="&#x163;" horiz-adv-x="273" d="M-20 -203l26 48q44 -16 60 -16q19 0 33.5 14t14.5 33q0 13 -8 20.5t-20 7.5q-10 0 -34 -8l-14 20l59 85q-45 16 -45 67q0 22 4 41l56 323h-59l17 100h60l25 144h115l-25 -144h71l-17 -100h-72l-50 -289q-3 -14 -3 -23q0 -20 42 -20q1 0 25 2l-19 -106l-69 -2h-5l-27 -45 h9q27 0 46 -17t19 -43q0 -48 -38 -82.5t-90 -34.5q-35 0 -87 25z" />
<glyph unicode="&#x164;" horiz-adv-x="501" d="M84 591l22 127h479l-22 -127h-178l-103 -591h-123l103 591h-178zM226 914h93l51 -62l72 62h93l-125 -126h-103z" />
<glyph unicode="&#x165;" horiz-adv-x="273" d="M52 68q0 22 4 41l56 323h-59l17 100h60l25 144h115l-25 -144h71l-17 -100h-72l-50 -289q-3 -14 -3 -23q0 -20 42 -20q1 0 25 2l-19 -106l-69 -2q-52 0 -76.5 18t-24.5 56zM279 561l8 43q29 6 48 30t23 58h-56l19 107h98l-17 -95q-7 -58 -41.5 -98t-81.5 -45z" />
<glyph unicode="&#x168;" horiz-adv-x="592" d="M66 169q0 37 6 73l83 476h125l-81 -466q-4 -20 -4 -44q0 -100 89 -100q113 0 137 137l83 473h125l-81 -467q-23 -131 -96 -200.5t-188 -69.5q-95 0 -146.5 49t-51.5 139zM254 788q23 64 51.5 93.5t68.5 29.5q7 0 52.5 -18t51.5 -18q30 0 46 40h53q-41 -120 -110 -120 q-9 0 -57 18t-58 18q-29 0 -46 -43h-52z" />
<glyph unicode="&#x169;" horiz-adv-x="501" d="M50 120q0 36 5 62l62 350h115l-58 -330q-3 -17 -3 -34q0 -64 59 -64q42 0 71.5 32.5t39.5 88.5l54 307h115l-93 -532h-110l14 78q-34 -49 -69.5 -70.5t-82.5 -21.5q-57 0 -88 35t-31 99zM176 612q23 64 51.5 93.5t68.5 29.5q7 0 52.5 -18t51.5 -18q30 0 46 40h53 q-41 -120 -110 -120q-9 0 -57 18t-58 18q-29 0 -46 -43h-52z" />
<glyph unicode="&#x16a;" horiz-adv-x="592" d="M66 169q0 37 6 73l83 476h125l-81 -466q-4 -20 -4 -44q0 -100 89 -100q113 0 137 137l83 473h125l-81 -467q-23 -131 -96 -200.5t-188 -69.5q-95 0 -146.5 49t-51.5 139zM267 814l13 74h283l-13 -74h-283z" />
<glyph unicode="&#x16b;" horiz-adv-x="501" d="M50 120q0 36 5 62l62 350h115l-58 -330q-3 -17 -3 -34q0 -64 59 -64q42 0 71.5 32.5t39.5 88.5l54 307h115l-93 -532h-110l14 78q-34 -49 -69.5 -70.5t-82.5 -21.5q-57 0 -88 35t-31 99zM190 638l13 74h283l-13 -74h-283z" />
<glyph unicode="&#x16c;" horiz-adv-x="592" d="M66 169q0 37 6 73l83 476h125l-81 -466q-4 -20 -4 -44q0 -100 89 -100q113 0 137 137l83 473h125l-81 -467q-23 -131 -96 -200.5t-188 -69.5q-95 0 -146.5 49t-51.5 139zM277 914h54q11 -25 30 -37t57 -12t59 12t34 37h63q-54 -126 -175 -126q-114 0 -122 126z" />
<glyph unicode="&#x16d;" horiz-adv-x="501" d="M50 120q0 36 5 62l62 350h115l-58 -330q-3 -17 -3 -34q0 -64 59 -64q42 0 71.5 32.5t39.5 88.5l54 307h115l-93 -532h-110l14 78q-34 -49 -69.5 -70.5t-82.5 -21.5q-57 0 -88 35t-31 99zM212 720q0 16 1 28h54v-6q0 -34 17 -49t55 -15q40 0 61 15t36 55h53 q-41 -146 -168 -146q-53 0 -81 30.5t-28 87.5z" />
<glyph unicode="&#x16e;" horiz-adv-x="592" d="M66 169q0 37 6 73l83 476h125l-81 -466q-4 -20 -4 -44q0 -100 89 -100q113 0 137 137l83 473h125l-81 -467q-23 -131 -96 -200.5t-188 -69.5q-95 0 -146.5 49t-51.5 139zM315 872q6 35 42 61t77 26t68 -26.5t21 -62.5q-6 -35 -42 -61.5t-78 -26.5t-68 26.5t-20 63.5z M367 871q-3 -18 9.5 -30.5t34.5 -12.5t39.5 12.5t20.5 29.5q3 18 -10 30.5t-35 12.5q-21 0 -38.5 -12.5t-20.5 -29.5z" />
<glyph unicode="&#x16f;" horiz-adv-x="501" d="M50 120q0 36 5 62l62 350h115l-58 -330q-3 -17 -3 -34q0 -64 59 -64q42 0 71.5 32.5t39.5 88.5l54 307h115l-93 -532h-110l14 78q-34 -49 -69.5 -70.5t-82.5 -21.5q-57 0 -88 35t-31 99zM235 677q6 35 42 61t77 26q42 0 68.5 -26.5t19.5 -62.5q-6 -35 -41.5 -61.5 t-77.5 -26.5t-68.5 26.5t-19.5 63.5zM286 676q-3 -18 10 -30.5t35 -12.5t39 12.5t20 29.5q3 18 -9.5 30.5t-34.5 12.5q-21 0 -39 -12.5t-21 -29.5z" />
<glyph unicode="&#x170;" horiz-adv-x="592" d="M66 169q0 37 6 73l83 476h125l-81 -466q-4 -20 -4 -44q0 -100 89 -100q113 0 137 137l83 473h125l-81 -467q-23 -131 -96 -200.5t-188 -69.5q-95 0 -146.5 49t-51.5 139zM275 788l102 146h126l-145 -146h-83zM443 788l102 146h126l-146 -146h-82z" />
<glyph unicode="&#x171;" horiz-adv-x="501" d="M50 120q0 36 5 62l62 350h115l-58 -330q-3 -17 -3 -34q0 -64 59 -64q42 0 71.5 32.5t39.5 88.5l54 307h115l-93 -532h-110l14 78q-34 -49 -69.5 -70.5t-82.5 -21.5q-57 0 -88 35t-31 99zM197 602l102 146h126l-145 -146h-83zM365 602l102 146h126l-146 -146h-82z" />
<glyph unicode="&#x172;" horiz-adv-x="592" d="M66 169q0 37 6 73l83 476h125l-81 -466q-4 -20 -4 -44q0 -100 89 -100q113 0 137 137l83 473h125l-81 -467q-35 -198 -179 -252q-26 -10 -62 -52q-27 -30 -27 -64q0 -42 62 -42h40l-16 -91h-40q-60 0 -102.5 24.5t-42.5 71.5q0 70 77 135q-92 1 -142 50t-50 138z" />
<glyph unicode="&#x173;" horiz-adv-x="501" d="M50 120q0 36 5 62l62 350h115l-58 -330q-3 -17 -3 -34q0 -64 59 -64q42 0 71.5 32.5t39.5 88.5l54 307h115l-93 -532q-47 -14 -83 -53q-27 -32 -27 -64q0 -42 62 -42h40l-16 -91h-40q-60 0 -102.5 24.5t-42.5 71.5q0 44 26 82q31 44 73 72l14 78q-34 -49 -69.5 -70.5 t-82.5 -21.5q-57 0 -88 35t-31 99z" />
<glyph unicode="&#x174;" horiz-adv-x="774" d="M108 0v718h133v-531l175 531h127v-531l189 531h125l-291 -718h-111v565l-191 -565h-156zM336 788l125 126h103l81 -126h-93l-51 62l-72 -62h-93z" />
<glyph unicode="&#x175;" horiz-adv-x="638" d="M71 0v532h124v-387l129 387h116v-387l135 387h118l-218 -532h-118v393l-138 -393h-148zM249 602l119 146h103l68 -146h-93l-38 82l-66 -82h-93z" />
<glyph unicode="&#x176;" horiz-adv-x="547" d="M107 718h145l68 -312l171 312h140l-276 -449l-46 -269h-124l48 271zM229 788l125 126h103l81 -126h-93l-51 62l-72 -62h-93z" />
<glyph unicode="&#x177;" d="M4 -212l20 112q14 -2 24 -2q36 0 53.5 15.5t33.5 64.5l-64 554h128l25 -396l159 396h122l-242 -523q-32 -68 -49.5 -103t-35.5 -63.5t-35 -38t-35.5 -14t-49.5 -4.5zM158 602l119 146h103l68 -146h-93l-38 82l-66 -82h-93z" />
<glyph unicode="&#x178;" horiz-adv-x="547" d="M107 718h145l68 -312l171 312h140l-276 -449l-46 -269h-124l48 271zM255 794l20 115h96l-20 -115h-96zM420 794l20 115h96l-20 -115h-96z" />
<glyph unicode="&#x179;" horiz-adv-x="501" d="M-10 0l22 127l386 464h-297l22 127h451l-21 -118l-391 -473h311l-23 -127h-460zM318 788l100 126h126l-143 -126h-83z" />
<glyph unicode="&#x17a;" horiz-adv-x="410" d="M-14 0l19 109l278 311h-208l19 112h354l-20 -115l-273 -302h229l-21 -115h-377zM238 602l103 146h126l-146 -146h-83z" />
<glyph unicode="&#x17b;" horiz-adv-x="501" d="M-10 0l22 127l386 464h-297l22 127h451l-21 -118l-391 -473h311l-23 -127h-460zM305 794l20 115h114l-20 -115h-114z" />
<glyph unicode="&#x17c;" horiz-adv-x="410" d="M-14 0l19 109l278 311h-208l19 112h354l-20 -115l-273 -302h229l-21 -115h-377zM226 618l20 115h114l-20 -115h-114z" />
<glyph unicode="&#x17d;" horiz-adv-x="501" d="M-10 0l22 127l386 464h-297l22 127h451l-21 -118l-391 -473h311l-23 -127h-460zM228 914h93l51 -62l72 62h93l-125 -126h-103z" />
<glyph unicode="&#x17e;" horiz-adv-x="410" d="M-14 0l19 109l278 311h-208l19 112h354l-20 -115l-273 -302h229l-21 -115h-377zM160 748h93l38 -82l66 82h93l-119 -146h-103z" />
<glyph unicode="&#x17f;" horiz-adv-x="273" d="M41 0l100 575q13 78 52.5 115t109.5 37q22 0 52 -2l-20 -113h-32q-27 0 -34.5 -9.5t-15.5 -49.5l-97 -553h-115z" />
<glyph unicode="&#x18e;" horiz-adv-x="547" d="M32 0l22 127h326l33 186h-287l22 127h287l27 151h-313l22 127h433l-125 -718h-447z" />
<glyph unicode="&#x192;" d="M-71 -189l39 111q22 -17 40 -17q28 0 44 26t44 115l105 334h-100l17 97h112l31 87q32 90 73.5 131.5t101.5 41.5q35 0 82 -19l-39 -108q-23 15 -43 15q-45 0 -64 -60l-28 -88h98l-16 -97h-110l-111 -359q-37 -119 -85 -175t-113 -56q-27 0 -78 21z" />
<glyph unicode="&#x1a0;" horiz-adv-x="638" d="M58 245q0 136 47 249t130 178t184 65q129 0 189 -105q25 31 35 87h-57l20 115h114l-20 -115q-15 -87 -69 -141q14 -48 14 -104q0 -210 -103 -351.5t-257 -141.5q-105 0 -166 71t-61 193zM184 271q0 -76 33 -119.5t92 -43.5q89 0 150 98.5t61 240.5q0 76 -33 119.5 t-91 43.5q-91 0 -151.5 -101t-60.5 -238z" />
<glyph unicode="&#x1a1;" horiz-adv-x="512" d="M37 190q0 151 80.5 253.5t198.5 102.5q110 0 156 -89q21 32 27 76h-57l20 115h114l-20 -115q-13 -81 -64 -137q5 -28 5 -54q0 -149 -81 -252.5t-198 -103.5q-84 0 -132.5 54.5t-48.5 149.5zM156 209q0 -105 83 -105q62 0 100 65t38 155q0 104 -83 104q-62 0 -100 -66 t-38 -153z" />
<glyph unicode="&#x1af;" horiz-adv-x="686" d="M66 169q0 37 6 73l83 476h125l-81 -466q-4 -20 -4 -44q0 -100 89 -100q113 0 137 137l83 473h125l-21 -123q38 0 63.5 36.5t34.5 87.5h-57l20 115h114l-20 -115q-14 -75 -59.5 -130.5t-106.5 -55.5l-49 -282q-23 -131 -96 -200.5t-188 -69.5q-95 0 -146.5 49t-51.5 139z " />
<glyph unicode="&#x1b0;" horiz-adv-x="599" d="M50 120q0 36 5 62l62 350h115l-58 -330q-3 -17 -3 -34q0 -64 59 -64q42 0 71.5 32.5t39.5 88.5l54 307h115l-21 -123q37 0 63 37t34 87h-57l20 115h114l-20 -115q-13 -75 -58.5 -130.5t-106.5 -55.5l-61 -347h-110l14 78q-34 -49 -69.5 -70.5t-82.5 -21.5q-57 0 -88 35 t-31 99z" />
<glyph unicode="&#x1dd;" d="M28 181q0 39 9 98l4 25h299q3 22 3 39q0 44 -21 67.5t-59 23.5q-59 0 -86 -58h-118q77 170 225 170q84 0 128 -49.5t44 -143.5q0 -157 -75 -262t-188 -105q-80 0 -122.5 50t-42.5 145zM142 187q-1 -39 19.5 -62.5t52.5 -23.5q38 0 64 27t43 85h-178z" />
<glyph unicode="&#x1e6;" horiz-adv-x="638" d="M59 249q0 128 46 239.5t130.5 180t187.5 68.5q98 0 157.5 -58t59.5 -154q0 -17 -1 -30h-123v6q0 47 -32 79.5t-78 32.5q-93 0 -156.5 -102t-63.5 -243q0 -76 34.5 -118t96.5 -42q113 0 175 158h-137l21 121h247l-68 -387h-82l3 90q-53 -61 -98 -85t-104 -24 q-99 0 -157 72t-58 196zM299 914h93l51 -62l72 62h93l-125 -126h-103z" />
<glyph unicode="&#x1e7;" horiz-adv-x="501" d="M1 -84q0 17 1 27h125q0 -30 15.5 -42t51.5 -12q49 0 77 29t39 93l12 69q-31 -46 -60 -64.5t-73 -18.5q-70 0 -109 49.5t-39 137.5q0 150 70 256t169 106q46 0 72 -23t39 -73l15 82h110l-88 -504q-23 -132 -86.5 -188.5t-168.5 -56.5q-81 0 -126.5 35t-45.5 98zM161 212 q0 -46 18.5 -71.5t52.5 -25.5q56 0 92 61t36 143q0 49 -20 77.5t-55 28.5q-50 0 -87 -63t-37 -150zM206 748h93l38 -82l66 82h93l-119 -146h-103z" />
<glyph unicode="&#x1ea;" horiz-adv-x="638" d="M58 245q0 136 47 249t130 178t184 65q99 0 162.5 -68t63.5 -195q0 -156 -59 -278t-158 -177q-55 -31 -92 -72q-27 -30 -27 -64q0 -42 62 -42h40l-16 -91h-40q-60 0 -102.5 24.5t-42.5 71.5q0 70 76 135h-1q-105 0 -166 71t-61 193zM184 271q0 -76 33 -119.5t92 -43.5 q89 0 150 98.5t61 240.5q0 76 -33 119.5t-91 43.5q-91 0 -151.5 -101t-60.5 -238z" />
<glyph unicode="&#x1eb;" horiz-adv-x="501" d="M37 190q0 151 80.5 253.5t198.5 102.5q84 0 132.5 -54.5t48.5 -149.5q0 -103 -40.5 -187.5t-108.5 -129.5q-55 -35 -93 -78q-27 -32 -27 -64q0 -42 62 -42h40l-16 -91h-40q-60 0 -102.5 24.5t-42.5 71.5q0 73 83 140q-82 2 -128.5 56.5t-46.5 147.5zM156 209 q0 -105 83 -105q62 0 100 65t38 155q0 104 -83 104q-62 0 -100 -66t-38 -153z" />
<glyph unicode="&#x1f4;" horiz-adv-x="638" d="M59 249q0 128 46 239.5t130.5 180t187.5 68.5q98 0 157.5 -58t59.5 -154q0 -17 -1 -30h-123v6q0 47 -32 79.5t-78 32.5q-93 0 -156.5 -102t-63.5 -243q0 -76 34.5 -118t96.5 -42q113 0 175 158h-137l21 121h247l-68 -387h-82l3 90q-53 -61 -98 -85t-104 -24 q-99 0 -157 72t-58 196zM390 788l100 126h126l-143 -126h-83z" />
<glyph unicode="&#x1f5;" horiz-adv-x="501" d="M1 -84q0 17 1 27h125q0 -30 15.5 -42t51.5 -12q49 0 77 29t39 93l12 69q-31 -46 -60 -64.5t-73 -18.5q-70 0 -109 49.5t-39 137.5q0 150 70 256t169 106q46 0 72 -23t39 -73l15 82h110l-88 -504q-23 -132 -86.5 -188.5t-168.5 -56.5q-81 0 -126.5 35t-45.5 98zM161 212 q0 -46 18.5 -71.5t52.5 -25.5q56 0 92 61t36 143q0 49 -20 77.5t-55 28.5q-50 0 -87 -63t-37 -150zM284 602l103 146h126l-146 -146h-83z" />
<glyph unicode="&#x1fa;" horiz-adv-x="592" d="M-14 0l336 718h142l82 -718h-134l-12 148h-217l-67 -148h-130zM237 272h150l-23 287zM316 872q6 35 42 61t77 26t68 -26.5t21 -62.5q-6 -35 -42 -61.5t-78 -26.5t-68 26.5t-20 63.5zM368 871q-3 -18 9.5 -30.5t34.5 -12.5t39.5 12.5t20.5 29.5q3 18 -10 30.5t-35 12.5 q-21 0 -38.5 -12.5t-20.5 -29.5zM397 979l99 126h126l-142 -126h-83z" />
<glyph unicode="&#x1fb;" d="M15 101q0 82 44 139.5t116 70.5l107 19q49 9 49 57q0 47 -62 47q-36 0 -56 -17t-32 -57h-110q29 102 80 144t142 42q74 0 114.5 -31.5t40.5 -89.5q0 -17 -3 -33l-50 -288q-5 -32 -5 -49q0 -25 16 -34l-4 -21h-124q-1 16 -1 29q0 15 2 34q-41 -42 -75.5 -59.5t-76.5 -17.5 q-53 0 -82.5 30.5t-29.5 84.5zM133 133q0 -22 12 -34.5t33 -12.5q42 0 77.5 31t42.5 74l12 68q-22 -17 -83 -29q-49 -10 -71.5 -33t-22.5 -64zM213 686q6 35 42 61t77 26t68 -26.5t21 -62.5q-6 -35 -42 -61.5t-78 -26.5t-68 26.5t-20 63.5zM265 685q-3 -18 9.5 -30.5 t34.5 -12.5t39.5 12.5t20.5 29.5q3 18 -10 30.5t-35 12.5q-21 0 -38.5 -12.5t-20.5 -29.5zM294 793l99 126h126l-142 -126h-83z" />
<glyph unicode="&#x1fc;" horiz-adv-x="820" d="M-26 0l340 718h558l-22 -127h-305l-26 -151h274l-22 -127h-274l-32 -186h310l-22 -127h-431l27 153h-177l-69 -153h-129zM225 271h144l56 320h-53zM475 788l100 126h126l-143 -126h-83z" />
<glyph unicode="&#x1fd;" horiz-adv-x="729" d="M16 105q0 76 38.5 129.5t102.5 66.5l112 22q46 9 57.5 22.5t11.5 47.5q0 41 -66 41q-73 0 -87 -75h-113q26 96 80.5 141.5t144.5 45.5q80 0 129 -59q41 33 72.5 46t69.5 13q76 0 117.5 -51.5t41.5 -143.5q0 -39 -9 -98l-4 -25h-300q-2 -30 -2 -40q0 -43 21 -66.5 t59 -23.5q60 0 86 58h118q-77 -170 -228 -170q-56 0 -87.5 19t-53.5 67q-65 -86 -181 -86q-130 0 -130 119zM134 133q0 -22 14 -34.5t37 -12.5q39 0 74.5 31t42.5 71l11 67q-18 -17 -90 -30q-52 -10 -70.5 -32t-18.5 -60zM398 602l103 146h126l-146 -146h-83zM434 319h178 l1 25q1 40 -19 63.5t-53 23.5q-74 0 -107 -112z" />
<glyph unicode="&#x1fe;" horiz-adv-x="638" d="M-1 11l86 93q-27 67 -27 142q0 207 103.5 349t254.5 142q104 0 177 -81l82 89l28 -38l-85 -92q27 -67 27 -142q0 -136 -47 -249t-129.5 -178t-182.5 -65q-108 0 -176 82l-83 -90zM184 274q0 -26 5 -56l307 333q-38 59 -101 59t-113 -52t-74 -128t-24 -156zM206 168 q37 -60 101 -60q65 0 114.5 53t73.5 128t24 155q0 28 -6 57zM384 788l100 126h126l-143 -126h-83z" />
<glyph unicode="&#x1ff;" horiz-adv-x="501" d="M-12 0l73 77q-24 55 -24 114q0 148 81 251.5t198 103.5q81 0 137 -59l69 73l23 -32l-71 -74q23 -55 23 -113q0 -147 -80.5 -251t-198.5 -104q-81 0 -135 58l-69 -73zM157 210q0 -1 2 -31l204 214q-24 35 -67 35q-60 0 -99.5 -62.5t-39.5 -155.5zM173 138q21 -34 65 -34 q61 0 100 63t39 155q0 15 -1 29zM284 602l103 146h126l-146 -146h-83z" />
<glyph unicode="&#x200;" horiz-adv-x="592" d="M-14 0l336 718h142l82 -718h-134l-12 148h-217l-67 -148h-130zM189 934h126l51 -146h-82zM237 272h150l-23 287zM357 934h126l51 -146h-83z" />
<glyph unicode="&#x201;" d="M15 101q0 82 44 139.5t116 70.5l107 19q49 9 49 57q0 47 -62 47q-36 0 -56 -17t-32 -57h-110q29 102 80 144t142 42q74 0 114.5 -31.5t40.5 -89.5q0 -17 -3 -33l-50 -288q-5 -32 -5 -49q0 -25 16 -34l-4 -21h-124q-1 16 -1 29q0 15 2 34q-41 -42 -75.5 -59.5t-76.5 -17.5 q-53 0 -82.5 30.5t-29.5 84.5zM86 748h126l51 -146h-82zM133 133q0 -22 12 -34.5t33 -12.5q42 0 77.5 31t42.5 74l12 68q-22 -17 -83 -29q-49 -10 -71.5 -33t-22.5 -64zM254 748h126l51 -146h-83z" />
<glyph unicode="&#x204;" horiz-adv-x="547" d="M32 0l125 718h433l-22 -127h-313l-26 -151h287l-22 -127h-287l-32 -186h326l-22 -127h-447zM169 934h126l51 -146h-82zM337 934h126l51 -146h-83z" />
<glyph unicode="&#x205;" d="M28 179q0 157 75 262t188 105q80 0 122.5 -50t42.5 -145q0 -39 -9 -98l-4 -25h-299q-3 -22 -3 -39q0 -44 21 -67.5t59 -23.5q59 0 86 58h118q-77 -170 -225 -170q-84 0 -128 49.5t-44 143.5zM87 748h126l51 -146h-82zM163 319h178l1 26q1 39 -19.5 62.5t-52.5 23.5 q-38 0 -64 -27t-43 -85zM255 748h126l51 -146h-83z" />
<glyph unicode="&#x208;" horiz-adv-x="228" d="M5 934h126l51 -146h-82zM22 0l126 718h123l-126 -718h-123zM173 934h126l51 -146h-83z" />
<glyph unicode="&#x209;" horiz-adv-x="228" d="M-27 748h126l51 -146h-82zM27 0l93 532h114l-93 -532h-114zM141 748h126l51 -146h-83z" />
<glyph unicode="&#x20c;" horiz-adv-x="638" d="M58 245q0 136 47 249t130 178t184 65q99 0 162.5 -68t63.5 -195q0 -210 -103 -351.5t-257 -141.5q-105 0 -166 71t-61 193zM184 271q0 -76 33 -119.5t92 -43.5q89 0 150 98.5t61 240.5q0 76 -33 119.5t-91 43.5q-91 0 -151.5 -101t-60.5 -238zM211 934h126l51 -146h-82z M379 934h126l51 -146h-83z" />
<glyph unicode="&#x20d;" horiz-adv-x="501" d="M37 190q0 151 80.5 253.5t198.5 102.5q84 0 132.5 -54.5t48.5 -149.5q0 -149 -81 -252.5t-198 -103.5q-84 0 -132.5 54.5t-48.5 149.5zM109 748h126l51 -146h-82zM156 209q0 -105 83 -105q62 0 100 65t38 155q0 104 -83 104q-62 0 -100 -66t-38 -153zM277 748h126 l51 -146h-83z" />
<glyph unicode="&#x210;" horiz-adv-x="592" d="M32 0l125 718h298q73 0 113 -41.5t40 -117.5q0 -70 -33 -129.5t-91 -85.5q29 -18 40.5 -37.5t11.5 -52.5q0 -39 -19 -146q-6 -34 -6 -57q0 -22 17 -32l-3 -19h-137l-1 27q-1 18 11 100t12 93q0 34 -18.5 47.5t-63.5 13.5h-127l-49 -281h-120zM168 934h126l51 -146h-82z M223 402h144q58 0 86 33.5t28 89.5q0 69 -72 69h-153zM336 934h126l51 -146h-83z" />
<glyph unicode="&#x211;" horiz-adv-x="319" d="M22 0l93 532h110l-17 -95q40 63 69.5 86t71.5 23q2 0 4.5 -0.5t7.5 -1t10 -0.5l-25 -142q-11 2 -29 2q-110 0 -132 -127l-48 -277h-115zM25 748h126l51 -146h-82zM193 748h126l51 -146h-83z" />
<glyph unicode="&#x214;" horiz-adv-x="592" d="M66 169q0 37 6 73l83 476h125l-81 -466q-4 -20 -4 -44q0 -100 89 -100q113 0 137 137l83 473h125l-81 -467q-23 -131 -96 -200.5t-188 -69.5q-95 0 -146.5 49t-51.5 139zM188 934h126l51 -146h-82zM356 934h126l51 -146h-83z" />
<glyph unicode="&#x215;" horiz-adv-x="501" d="M50 120q0 36 5 62l62 350h115l-58 -330q-3 -17 -3 -34q0 -64 59 -64q42 0 71.5 32.5t39.5 88.5l54 307h115l-93 -532h-110l14 78q-34 -49 -69.5 -70.5t-82.5 -21.5q-57 0 -88 35t-31 99zM109 748h126l51 -146h-82zM277 748h126l51 -146h-83z" />
<glyph unicode="&#x218;" horiz-adv-x="547" d="M36 162q0 19 5 59h118q-2 -22 -2 -27q0 -43 28.5 -66t80.5 -23q62 0 99.5 29.5t37.5 78.5q0 26 -20 42t-72 32l-60 18q-95 28 -125 61t-30 97q0 117 74.5 195.5t191.5 78.5q94 0 145 -50t51 -131q0 -23 -4 -51h-117v21q0 42 -26 64.5t-74 22.5q-54 0 -87.5 -29t-33.5 -75 q0 -23 11.5 -35.5t39.5 -21.5l136 -43q66 -21 95 -55.5t29 -91.5q0 -121 -79.5 -201t-204.5 -80q-97 0 -152 49t-55 132zM139 -298l8 43q29 6 48 30t23 58h-56l19 107h98l-17 -95q-7 -58 -41.5 -98t-81.5 -45z" />
<glyph unicode="&#x219;" d="M22 129q0 11 2 41h118q-1 -8 -1 -20q0 -58 80 -58q38 0 62.5 17.5t24.5 44.5q0 35 -86 52q-151 28 -151 129q0 94 62 152.5t154 58.5q162 0 162 -142q0 -20 -1 -34h-113v18q0 52 -67 52q-35 0 -56.5 -16t-21.5 -42q0 -34 85 -51q154 -31 154 -131q0 -91 -64 -152.5 t-165 -61.5q-83 0 -130.5 38t-47.5 105zM97 -298l8 43q29 6 48 30t23 58h-56l19 107h98l-17 -95q-7 -58 -41.5 -98t-81.5 -45z" />
<glyph unicode="&#x21a;" horiz-adv-x="501" d="M84 591l22 127h479l-22 -127h-178l-103 -591h-123l103 591h-178zM120 -298l8 43q29 6 48 30t23 58h-56l19 107h98l-17 -95q-7 -58 -41.5 -98t-81.5 -45z" />
<glyph unicode="&#x21b;" horiz-adv-x="273" d="M52 68q0 22 4 41l56 323h-59l17 100h60l25 144h115l-25 -144h71l-17 -100h-72l-50 -289q-3 -14 -3 -23q0 -20 42 -20q1 0 25 2l-19 -106l-69 -2q-52 0 -76.5 18t-24.5 56zM53 -298l8 43q29 6 48 30t23 58h-56l19 107h98l-17 -95q-7 -58 -41.5 -98t-81.5 -45z" />
<glyph unicode="&#x258;" d="M21 156h118q8 -58 66 -58q38 0 67 23.5t44 67.5q7 18 11 39h-299l5 25q10 54 25 98q33 95 93 145t140 50q113 0 151.5 -105t-16.5 -262q-33 -94 -94 -143.5t-145 -49.5q-149 0 -166 170zM162 319h178q3 58 -13.5 85t-54.5 27q-32 0 -61 -23.5t-41 -62.5z" />
<glyph unicode="&#x259;" d="M28 181q0 39 9 98l4 25h299q3 22 3 39q0 44 -21 67.5t-59 23.5q-59 0 -86 -58h-118q77 170 225 170q84 0 128 -49.5t44 -143.5q0 -157 -75 -262t-188 -105q-80 0 -122.5 50t-42.5 145zM142 187q-1 -39 19.5 -62.5t52.5 -23.5q38 0 64 27t43 85h-178z" />
<glyph unicode="&#x2be;" horiz-adv-x="398" d="M104 422l2 30q0 9 10 9h77q6 0 6 -7q0 -51 32 -51q35 0 56 44t22 106q-2 52 -38 52q-19 0 -33.5 -15t-20.5 -39q-3 -8 -9 -8h-78q-9 0 -7 9q22 71 65 108.5t102 37.5q56 0 85.5 -33.5t28.5 -95.5q1 -108 -51 -184.5t-134 -76.5q-52 0 -83 31t-32 83z" />
<glyph unicode="&#x2bf;" horiz-adv-x="398" d="M109 437q0 108 52.5 184.5t133.5 76.5q52 0 83 -31t32 -83l-2 -30q0 -9 -10 -9h-77q-5 0 -7 7q0 51 -32 51q-35 0 -55.5 -43.5t-21.5 -106.5q0 -52 38 -52q19 0 33.5 15t19.5 39q3 8 10 8h78q10 0 6 -9q-21 -71 -64 -108.5t-102 -37.5q-55 0 -85 33.5t-30 95.5z" />
<glyph unicode="&#x2c6;" horiz-adv-x="273" d="M67 602l119 146h103l68 -146h-93l-38 82l-66 -82h-93z" />
<glyph unicode="&#x2c7;" horiz-adv-x="273" d="M92 748h93l38 -82l66 82h93l-119 -146h-103z" />
<glyph unicode="&#x2d8;" horiz-adv-x="273" d="M98 720q0 16 1 28h54v-6q0 -34 17 -49t55 -15q40 0 61 15t36 55h53q-41 -146 -168 -146q-53 0 -81 30.5t-28 87.5z" />
<glyph unicode="&#x2d9;" horiz-adv-x="273" d="M158 618l20 115h114l-20 -115h-114z" />
<glyph unicode="&#x2da;" horiz-adv-x="273" d="M121 677q6 35 42 61t77 26q42 0 68.5 -26.5t19.5 -62.5q-6 -35 -41.5 -61.5t-77.5 -26.5t-68.5 26.5t-19.5 63.5zM172 676q-3 -18 10 -30.5t35 -12.5t39 12.5t20 29.5q3 18 -9.5 30.5t-34.5 12.5q-21 0 -39 -12.5t-21 -29.5z" />
<glyph unicode="&#x2db;" horiz-adv-x="273" d="M24 -154q0 44 24.5 79.5t75.5 74.5h92q-45 -30 -69 -56.5t-24 -60.5q0 -42 62 -42h40l-16 -91h-40q-60 0 -102.5 24.5t-42.5 71.5z" />
<glyph unicode="&#x2dc;" horiz-adv-x="273" d="M62 612q23 64 51.5 93.5t68.5 29.5q7 0 52.5 -18t51.5 -18q30 0 46 40h53q-41 -120 -110 -120q-9 0 -57 18t-58 18q-29 0 -46 -43h-52z" />
<glyph unicode="&#x2dd;" horiz-adv-x="273" d="M83 602l102 146h126l-145 -146h-83zM251 602l102 146h126l-146 -146h-82z" />
<glyph unicode="&#x300;" horiz-adv-x="0" d="M-289 748h126l52 -146h-83z" />
<glyph unicode="&#x301;" horiz-adv-x="0" d="M-194 602l103 146h126l-146 -146h-83z" />
<glyph unicode="&#x302;" horiz-adv-x="0" d="M-297 602l119 146h103l68 -146h-93l-38 82l-66 -82h-93z" />
<glyph unicode="&#x303;" horiz-adv-x="0" d="M-302 612q23 64 51.5 93.5t68.5 29.5q7 0 52.5 -18t51.5 -18q30 0 46 40h53q-41 -120 -110 -120q-9 0 -57 18t-58 18q-29 0 -46 -43h-52z" />
<glyph unicode="&#x304;" horiz-adv-x="0" d="M-288 638l13 74h283l-13 -74h-283z" />
<glyph unicode="&#x306;" horiz-adv-x="0" d="M-266 720q0 16 1 28h54v-6q0 -34 17 -49t55 -15q40 0 61 15t36 55h53q-41 -146 -168 -146q-53 0 -81 30.5t-28 87.5z" />
<glyph unicode="&#x307;" horiz-adv-x="0" d="M-206 618l20 115h114l-20 -115h-114z" />
<glyph unicode="&#x308;" horiz-adv-x="0" d="M-280 618l20 115h96l-20 -115h-96zM-115 618l20 115h96l-20 -115h-96z" />
<glyph unicode="&#x309;" horiz-adv-x="0" d="M-251 673q17 92 132 92q51 0 77.5 -18.5t20.5 -50.5q-3 -19 -16 -32t-44 -30q-25 -14 -32 -19.5t-9 -12.5l-4 -24h-62l5 27q3 18 16 30t47 28v-1q36 21 37 34q2 11 -10.5 18t-35.5 7q-32 0 -43.5 -9.5t-17.5 -38.5h-61z" />
<glyph unicode="&#x30a;" horiz-adv-x="0" d="M-243 677q6 35 42 61t77 26q42 0 68.5 -26.5t19.5 -62.5q-6 -35 -41.5 -61.5t-77.5 -26.5t-68.5 26.5t-19.5 63.5zM-192 676q-3 -18 10 -30.5t35 -12.5t39 12.5t20 29.5q3 18 -9.5 30.5t-34.5 12.5q-21 0 -39 -12.5t-21 -29.5z" />
<glyph unicode="&#x30b;" horiz-adv-x="0" d="M-281 602l102 146h126l-145 -146h-83zM-113 602l102 146h126l-146 -146h-82z" />
<glyph unicode="&#x30c;" horiz-adv-x="0" d="M-272 748h93l38 -82l66 82h93l-119 -146h-103z" />
<glyph unicode="&#x30f;" horiz-adv-x="0" d="M-369 748h126l51 -146h-82zM-201 748h126l51 -146h-83z" />
<glyph unicode="&#x311;" horiz-adv-x="0" d="M-291 602q41 146 168 146q53 0 81 -30.5t28 -87.5q0 -16 -1 -28h-54v6q0 34 -17 49t-55 15q-40 0 -61 -15t-36 -55h-53z" />
<glyph unicode="&#x323;" horiz-adv-x="0" d="M-349 -200l20 115h114l-20 -115h-114z" />
<glyph unicode="&#x326;" horiz-adv-x="0" d="M-359 -298l8 43q29 6 48 30t23 58h-56l19 107h98l-17 -95q-7 -58 -41.5 -98t-81.5 -45z" />
<glyph unicode="&#x32e;" horiz-adv-x="0" d="M-420 -80h54q12 -26 30 -37.5t56 -11.5q68 0 94 49h63q-54 -126 -175 -126q-114 0 -122 126z" />
<glyph unicode="&#x32f;" horiz-adv-x="0" d="M-442 -206q54 126 175 126q114 0 122 -126h-54q-12 26 -30 37.5t-56 11.5q-68 0 -94 -49h-63z" />
<glyph unicode="&#x330;" horiz-adv-x="0" d="M-445 -206q23 64 51.5 93.5t68.5 29.5q7 0 52.5 -18t51.5 -18q30 0 46 40h53q-40 -120 -110 -120q-9 0 -57 18t-58 18q-29 0 -46 -43h-52z" />
<glyph unicode="&#x331;" horiz-adv-x="0" d="M-431 -180l13 74h283l-13 -74h-283z" />
<glyph unicode="&#x332;" horiz-adv-x="0" d="M-431 -180l13 74h283l-13 -74h-283z" />
<glyph unicode="&#x391;" horiz-adv-x="592" d="M-14 0l336 718h142l82 -718h-134l-12 148h-217l-67 -148h-130zM237 272h150l-23 287z" />
<glyph unicode="&#x392;" horiz-adv-x="592" d="M32 0l125 718h287q73 0 112.5 -37.5t39.5 -106.5q0 -130 -101 -187q36 -21 51 -48.5t15 -72.5q0 -110 -71 -189q-40 -44 -84 -60.5t-125 -16.5h-249zM172 124h151q52 0 83 36t31 89q0 31 -20 49t-55 18h-157zM226 437h145q47 0 75 27.5t28 73.5q0 56 -79 56h-141z" />
<glyph unicode="&#x393;" horiz-adv-x="501" d="M32 0l125 718h419l-22 -127h-296l-103 -591h-123z" />
<glyph unicode="&#x394;" horiz-adv-x="502" d="M-23 0l310 692h110l68 -692h-488zM146 114h190l-35 347z" />
<glyph unicode="&#x395;" horiz-adv-x="547" d="M32 0l125 718h433l-22 -127h-313l-26 -151h287l-22 -127h-287l-32 -186h326l-22 -127h-447z" />
<glyph unicode="&#x396;" horiz-adv-x="501" d="M-10 0l22 127l386 464h-297l22 127h451l-21 -118l-391 -473h311l-23 -127h-460z" />
<glyph unicode="&#x397;" horiz-adv-x="592" d="M28 0l125 718h123l-47 -272h230l47 272h123l-125 -718h-123l56 322h-230l-56 -322h-123z" />
<glyph unicode="&#x398;" horiz-adv-x="638" d="M58 245q0 136 47 249t130 178t184 65q99 0 162.5 -68t63.5 -195q0 -210 -103 -351.5t-257 -141.5q-105 0 -166 71t-61 193zM184 271q0 -76 33 -119.5t92 -43.5q89 0 150 98.5t61 240.5q0 76 -33 119.5t-91 43.5q-91 0 -151.5 -101t-60.5 -238zM234 302l20 114h215 l-19 -114h-216z" />
<glyph unicode="&#x399;" horiz-adv-x="228" d="M22 0l126 718h123l-126 -718h-123z" />
<glyph unicode="&#x39a;" horiz-adv-x="592" d="M41 0l125 718h123l-51 -292l276 292h159l-292 -294l181 -424h-159l-127 315l-70 -72l-42 -243h-123z" />
<glyph unicode="&#x39b;" horiz-adv-x="592" d="M-14 0l336 718h142l82 -718h-134l-48 559l-248 -559h-130z" />
<glyph unicode="&#x39c;" horiz-adv-x="683" d="M27 0l125 718h187v-570l205 570h178l-125 -718h-115l106 609l-217 -609h-123v609l-106 -609h-115z" />
<glyph unicode="&#x39d;" horiz-adv-x="592" d="M27 0l125 718h129l148 -504l87 504h115l-125 -718h-123l-152 515l-89 -515h-115z" />
<glyph unicode="&#x39e;" horiz-adv-x="592" d="M27 0l22 122h477l-21 -122h-478zM131 596l22 122h477l-21 -122h-478zM204 302l20 114h229l-20 -114h-229z" />
<glyph unicode="&#x39f;" horiz-adv-x="638" d="M58 245q0 136 47 249t130 178t184 65q99 0 162.5 -68t63.5 -195q0 -210 -103 -351.5t-257 -141.5q-105 0 -166 71t-61 193zM184 271q0 -76 33 -119.5t92 -43.5q89 0 150 98.5t61 240.5q0 76 -33 119.5t-91 43.5q-91 0 -151.5 -101t-60.5 -238z" />
<glyph unicode="&#x3a0;" horiz-adv-x="592" d="M28 0l125 718h476l-125 -718h-123l103 594h-230l-103 -594h-123z" />
<glyph unicode="&#x3a1;" horiz-adv-x="547" d="M32 0l125 718h269q70 0 109.5 -44t39.5 -123q0 -116 -67.5 -204t-166.5 -88h-141l-45 -259h-123zM222 383h114q54 0 84 39t30 103q0 36 -22.5 52.5t-71.5 16.5h-97z" />
<glyph unicode="&#x3a3;" horiz-adv-x="504" d="M0 0l24 135l218 224l-140 224l23 135h444l-21 -120h-302l150 -239l-233 -239h302l-21 -120h-444z" />
<glyph unicode="&#x3a4;" horiz-adv-x="501" d="M84 591l22 127h479l-22 -127h-178l-103 -591h-123l103 591h-178z" />
<glyph unicode="&#x3a5;" horiz-adv-x="547" d="M107 718h145l68 -312l171 312h140l-276 -449l-46 -269h-124l48 271z" />
<glyph unicode="&#x3a6;" horiz-adv-x="641" d="M90 359q15 85 83.5 149t159.5 83l22 127h123l-22 -127q84 -19 130 -83t31 -149t-83.5 -149t-159.5 -83l-22 -127h-123l22 127q-84 19 -130 83t-31 149zM208 359q-7 -37 11.5 -66t53.5 -43l38 218q-40 -14 -68 -43t-35 -66zM396 250q40 14 68 43t35 66t-11.5 66t-53.5 43z " />
<glyph unicode="&#x3a7;" horiz-adv-x="547" d="M-19 0l254 367l-118 351h147l64 -232l148 232h142l-240 -345l127 -373h-150l-69 245l-161 -245h-144z" />
<glyph unicode="&#x3a8;" horiz-adv-x="630" d="M120 532l32 186h118l-32 -186q-11 -61 0.5 -112.5t44.5 -76.5l66 375h123l-66 -375q42 25 71.5 76.5t39.5 112.5l33 186h118l-33 -186q-19 -112 -88.5 -201.5t-162.5 -114.5l-38 -216h-123l38 216q-84 26 -122 115t-19 201z" />
<glyph unicode="&#x3a9;" horiz-adv-x="634" d="M0 0l21 120h116l11 60q-53 70 -53 170q0 142 95.5 258.5t223.5 116.5q96 0 152.5 -70.5t56.5 -175.5q0 -85 -36.5 -164.5t-97.5 -134.5l-10 -60h116l-21 -120h-239l41 235q54 25 88.5 91.5t34.5 137.5q0 61 -27.5 101t-78.5 40q-73 0 -123 -75.5t-50 -163.5 q0 -99 60 -131l-41 -235h-239z" />
<glyph unicode="&#x3b1;" horiz-adv-x="657" d="M70 247q22 124 103.5 215t186.5 91t149 -117q42 102 57 122l93 -52q-43 -62 -121 -260q3 -121 37 -220l-111 -52q-14 37 -23 103q-83 -98 -181 -98q-101 0 -155 79.5t-35 188.5zM184 247q-11 -60 16 -105t80 -45q89 0 153 151q-1 41 -4 68.5t-12 57.5t-28.5 45.5 t-49.5 15.5q-59 0 -100.5 -55.5t-54.5 -132.5z" />
<glyph unicode="&#x3b2;" horiz-adv-x="491" d="M-42 -240l136 779q15 88 76.5 140t149.5 52q78 0 120 -38t42 -108q0 -122 -86 -174q37 -26 52 -54t15 -72q0 -121 -71 -210t-175 -89q-55 0 -100 28l-44 -254h-115zM137 128q30 -27 77 -27q61 0 96 44t35 115q0 44 -23.5 63t-83.5 24l17 97q63 3 86 31t23 81 q0 30 -17.5 46.5t-49.5 16.5q-35 0 -59 -24t-31 -65z" />
<glyph unicode="&#x3b3;" horiz-adv-x="576" d="M120 532h120l51 -345l171 345h120l-269 -542l-40 -230h-114l40 230z" />
<glyph unicode="&#x3b4;" horiz-adv-x="501" d="M34 174q0 85 56 152t144 98q-35 32 -54 61t-19 65q0 72 63 120t144 48q87 0 145 -52l-71 -91q-42 28 -94 28q-37 0 -55 -8t-18 -36q0 -16 6 -29.5t19.5 -26t23.5 -20t31 -20.5t28 -18q46 -32 72.5 -80.5t26.5 -105.5q0 -24 -4 -44q-16 -94 -92 -161.5t-168 -67.5 q-81 0 -132.5 54t-51.5 134zM151 194q0 -40 24 -66.5t63 -26.5q52 0 89.5 42t37.5 101q0 71 -53 110q-60 0 -110.5 -48.5t-50.5 -111.5z" />
<glyph unicode="&#x3b5;" horiz-adv-x="494" d="M57 172q14 76 97 121q-49 43 -38 109q13 73 67.5 126.5t121.5 53.5q78 0 171 -63l-62 -80q-39 25 -129 25q-20 0 -35 -18.5t-20 -43.5q-6 -35 27 -51.5t84 -16.5l-17 -94q-141 0 -153 -68q-8 -42 16.5 -72.5t66.5 -30.5q80 0 116 22l39 -77q-104 -63 -176 -63 q-90 0 -141 65t-35 156z" />
<glyph unicode="&#x3b6;" horiz-adv-x="473" d="M73 266q18 104 80 197t155 161h-172l16 94h387l-16 -94h-62q-107 -48 -180 -145.5t-94 -212.5q-11 -61 5 -105.5t62 -44.5h30q65 0 98 -53t21 -126q-12 -70 -64 -121.5t-116 -51.5l19 106q34 0 47 67q10 61 -25 61h-30q-92 0 -136 80t-25 188z" />
<glyph unicode="&#x3b7;" horiz-adv-x="501" d="M27 0l93 532h114v-2q46 23 97 23q76 0 117.5 -58.5t27.5 -139.5l-104 -595h-114l104 595q5 33 -9.5 56.5t-42.5 23.5q-57 0 -100 -41l-69 -394h-114z" />
<glyph unicode="&#x3b8;" horiz-adv-x="479" d="M86 340q11 65 23 115t33 106t46.5 93t64 61t85.5 24t77 -24t42.5 -61t14 -93t-4 -106t-16.5 -115q-63 -361 -245 -361q-183 0 -120 361zM190 281q-14 -70 -8 -127t44 -57q27 0 47.5 28.5t32 65t21.5 90.5h-137zM211 399h136q8 48 11.5 82.5t2.5 69t-12 52.5t-32 18 q-66 0 -106 -222z" />
<glyph unicode="&#x3b9;" horiz-adv-x="380" d="M112 160l65 372h114l-65 -372q-5 -30 20 -46.5t64 -16.5l-21 -118q-85 0 -138 51.5t-39 129.5z" />
<glyph unicode="&#x3ba;" d="M27 0l93 532h114l-35 -202l179 202h141l-190 -206l102 -326h-138l-64 228l-58 -60l-29 -168h-115z" />
<glyph unicode="&#x3bb;" horiz-adv-x="637" d="M27 0l321 483l-5 29q-6 41 -29 68.5t-60 27.5l19 106q72 0 122.5 -45.5t62.5 -116.5l92 -552h-120l-56 329l-219 -329h-128z" />
<glyph unicode="&#x3bc;" horiz-adv-x="615" d="M42 -240l135 772h114l-63 -360q9 -75 66 -75q58 0 93 75l63 360h114l-93 -532h-114v3q-40 -24 -83 -24q-44 0 -76 24l-42 -243h-114z" />
<glyph unicode="&#x3bd;" horiz-adv-x="516" d="M92 532h120l60 -407q83 71 117 168.5t27 238.5h117q4 -77 -13 -177q-20 -114 -92.5 -214t-179.5 -161l-79 31z" />
<glyph unicode="&#x3be;" horiz-adv-x="501" d="M67 228q18 105 114 171q-55 55 -42 136q9 50 45 89h-48l16 94h387l-16 -94h-174q-37 -10 -63.5 -33.5t-32.5 -55.5q-6 -36 21 -59.5t69 -23.5l-18 -106q-51 0 -93.5 -34.5t-50.5 -83.5q-8 -46 12.5 -79t60.5 -33h30q65 0 98 -53t21 -126q-12 -70 -64 -121.5t-116 -51.5 l19 106q34 0 47 67q10 61 -25 61h-30q-88 0 -136 68t-31 162z" />
<glyph unicode="&#x3bf;" horiz-adv-x="501" d="M37 190q0 151 80.5 253.5t198.5 102.5q84 0 132.5 -54.5t48.5 -149.5q0 -149 -81 -252.5t-198 -103.5q-84 0 -132.5 54.5t-48.5 149.5zM156 209q0 -105 83 -105q62 0 100 65t38 155q0 104 -83 104q-62 0 -100 -66t-38 -153z" />
<glyph unicode="&#x3c0;" horiz-adv-x="611" d="M55 313q20 115 87 167t188 52h314l-20 -115h-50l-73 -417h-114l73 417h-93l-73 -417h-114l73 417q-40 0 -57 -25t-26 -79h-115z" />
<glyph unicode="&#x3c1;" horiz-adv-x="565" d="M-15 -240l88 506q20 116 98.5 201.5t177.5 85.5t147 -85.5t28 -201.5t-98 -201.5t-177 -85.5q-60 0 -106 33l-44 -252h-114zM166 144q29 -47 103 -47q53 0 91.5 50.5t49.5 118.5q12 68 -8.5 118.5t-73.5 50.5q-52 0 -90.5 -50.5t-50.5 -118.5z" />
<glyph unicode="&#x3c2;" horiz-adv-x="501" d="M75 276q20 112 91.5 194.5t164.5 82.5q73 0 114.5 -54t27.5 -129l-103 1q5 27 -13 45.5t-47 18.5q-47 0 -78 -46.5t-43 -112.5t3 -113t62 -47h30q65 0 98 -53t21 -126q-12 -70 -64 -121.5t-116 -51.5l19 106q34 0 47 67q10 61 -25 61h-30q-63 0 -104 40t-54.5 103 t-0.5 135z" />
<glyph unicode="&#x3c3;" horiz-adv-x="605" d="M67 190q0 151 80.5 253.5t198.5 102.5q27 0 51 -6q88 12 203 64l33 -106q-60 -26 -131 -41q25 -48 25 -115q0 -149 -81 -252.5t-198 -103.5q-84 0 -132.5 54.5t-48.5 149.5zM186 209q0 -105 83 -105q62 0 100 65t38 155q0 104 -83 104q-62 0 -100 -66t-38 -153z" />
<glyph unicode="&#x3c4;" horiz-adv-x="409" d="M100 416l20 118h287l-21 -118h-86l-45 -256q-5 -30 20.5 -46.5t63.5 -16.5l-20 -118q-85 0 -138 51.5t-40 129.5l45 256h-86z" />
<glyph unicode="&#x3c5;" horiz-adv-x="501" d="M58 177l62 355h114l-62 -355q-6 -32 6.5 -56t39.5 -24q48 0 81 45t45 108q23 137 9 282h118q13 -130 -13 -282q-20 -110 -93.5 -190.5t-166.5 -80.5q-74 0 -114 58.5t-26 139.5z" />
<glyph unicode="&#x3c6;" horiz-adv-x="752" d="M73 266q15 84 71.5 157t138.5 116l37 -90q-53 -28 -88 -77t-45 -106q-10 -60 24.5 -103.5t95.5 -58.5l26 146q14 79 44 145.5t82 112t115 45.5q60 0 97 -42.5t43.5 -106.5t-3.5 -138q-18 -107 -107 -185.5t-204 -96.5l-39 -224h-114l39 224q-108 18 -169.5 96.5 t-43.5 185.5zM421 104q67 15 116.5 58.5t59.5 103.5q6 36 8.5 61t0.5 52.5t-15.5 41.5t-37.5 14q-18 0 -32.5 -7t-25 -22.5t-17.5 -30t-13.5 -40.5t-9.5 -41t-8 -44z" />
<glyph unicode="&#x3c7;" horiz-adv-x="581" d="M-15 -240l239 386l-104 386h126l65 -244l151 244h126l-239 -386l104 -386h-126l-65 244l-151 -244h-126z" />
<glyph unicode="&#x3c8;" horiz-adv-x="638" d="M58 177l62 355h114l-62 -355q-6 -32 16 -50.5t62 -25.5l107 617h114l-107 -617q93 16 104 76l62 355h114l-62 -355q-13 -76 -80.5 -127.5t-158.5 -65.5l-39 -224h-114l39 224q-85 14 -134.5 65.5t-36.5 127.5z" />
<glyph unicode="&#x3c9;" horiz-adv-x="663" d="M77 285q21 122 127 247h98q-86 -99 -111 -247q-5 -28 -7.5 -44t-5.5 -41.5t-2.5 -40.5t3 -31t10.5 -23.5t21 -7.5q49 0 75 72q1 73 21 186h114q-29 -174 -21 -222q6 -36 28 -36q18 0 32.5 15.5t24.5 49t15 56.5t13 67q26 149 -25 247h98q62 -124 41 -247 q-10 -59 -27.5 -110.5t-43.5 -97t-64 -72t-84 -26.5q-74 0 -103 62q-47 -62 -115 -62q-60 0 -91.5 46.5t-31.5 114.5t11 145z" />
<glyph unicode="&#x3d1;" horiz-adv-x="558" d="M58 177l31 178h114l-31 -178q-6 -34 13 -58t52 -24q34 0 61 24t33 58l37 211q-52 7 -91.5 19.5t-70.5 33.5t-44 54t-5 77q14 79 70.5 136t126.5 57q84 0 126.5 -69.5t26.5 -163.5l-10 -59h57l-17 -95l-57 1l-35 -202q-14 -81 -80.5 -138.5t-147.5 -57.5 q-80 0 -126.5 57.5t-32.5 138.5zM248 572q-7 -43 29.5 -64.5t106.5 -28.5l9 53q10 58 -2.5 98.5t-52.5 40.5q-33 0 -58 -29.5t-32 -69.5z" />
<glyph unicode="&#x3d5;" horiz-adv-x="703" d="M74 266q18 104 99 182t186 97l30 173h116l-30 -173q98 -19 152 -97t36 -182t-99 -182t-186 -97l-40 -227h-116l40 227q-99 19 -152.5 97t-35.5 182zM188 266q-10 -56 16.5 -100t77.5 -62l57 324q-57 -18 -99 -62t-52 -100zM398 104q57 18 99 62t52 100t-16.5 100 t-77.5 62z" />
<glyph unicode="&#x3d6;" horiz-adv-x="663" d="M77 285q21 122 127 247h98q-86 -99 -111 -247q-5 -28 -7.5 -44t-5.5 -41.5t-2.5 -40.5t3 -31t10.5 -23.5t21 -7.5q49 0 75 72q1 73 21 186h114q-29 -174 -21 -222q6 -36 28 -36q18 0 32.5 15.5t24.5 49t15 56.5t13 67q30 178 24 246q-9 110 -95 110q-100 0 -199 -51 l-29 70q118 63 242 63q67 0 110 -37.5t59 -102t16.5 -139t-14.5 -159.5q-10 -59 -27.5 -110.5t-43.5 -97t-64 -72t-84 -26.5q-74 0 -103 62q-47 -62 -115 -62q-60 0 -91.5 46.5t-31.5 114.5t11 145z" />
<glyph unicode="&#x3f5;" d="M35 170q0 156 74 266t190 110q70 0 114 -40t48 -107h-128q-13 29 -49 29t-64.5 -29.5t-44.5 -79.5h155l-19 -106h-155l-1 -24q0 -42 17.5 -65t48.5 -23q36 0 65 32h124q-71 -147 -213 -147q-79 0 -120.5 47.5t-41.5 136.5z" />
<glyph unicode="&#x400;" horiz-adv-x="547" d="M32 0l125 718h433l-22 -127h-313l-26 -151h287l-22 -127h-287l-32 -186h326l-22 -127h-447zM322 964h126l52 -146h-83z" />
<glyph unicode="&#x401;" horiz-adv-x="547" d="M32 0l125 718h433l-22 -127h-313l-26 -151h287l-22 -127h-287l-32 -186h326l-22 -127h-447zM251 800l20 115h103l-20 -115h-103zM411 800l20 115h103l-20 -115h-103z" />
<glyph unicode="&#x402;" horiz-adv-x="650" d="M84 591l22 127h399l-22 -127h-138l-28 -162q9 10 18 17t21 11.5t19 7.5t22.5 4t20 1h23h20.5q80 0 123 -35t43 -103q0 -21 -5 -51l-49 -281q-7 -38 -19.5 -63t-28.5 -40t-44 -22.5t-56.5 -10t-73.5 -2.5v79q45 0 69.5 16.5t29.5 42.5l49 277q1 4 1 11q0 27 -26.5 43 t-72.5 16q-97 0 -111 -75l-48 -272h-123l103 591h-138z" />
<glyph unicode="&#x403;" horiz-adv-x="501" d="M32 0l125 718h419l-22 -127h-296l-103 -591h-123zM198 776l103 146h126l-146 -146h-83z" />
<glyph unicode="&#x404;" horiz-adv-x="592" d="M69 357q31 175 122.5 277.5t217.5 102.5q70 0 119.5 -33t72.5 -94q20 -54 15 -127h-123q-3 61 -27 92.5t-77 31.5q-57 0 -102.5 -43.5t-72.5 -123.5h207l-22 -127h-212q-9 -96 19.5 -149t90.5 -53q67 0 112 56q21 25 42 79h123q-23 -64 -43.5 -100.5t-52.5 -71.5 q-85 -93 -206 -93q-125 0 -179.5 100.5t-23.5 275.5z" />
<glyph unicode="&#x405;" horiz-adv-x="547" d="M36 162q0 19 5 59h118q-2 -22 -2 -27q0 -43 28.5 -66t80.5 -23q62 0 99.5 29.5t37.5 78.5q0 26 -20 42t-72 32l-60 18q-90 27 -116 53q-39 37 -39 105q0 100 59 179q73 95 207 95q118 0 166 -74q30 -50 30 -107q0 -23 -4 -51h-117v21q0 42 -26 64.5t-74 22.5 q-54 0 -87.5 -29t-33.5 -75q0 -23 11.5 -35.5t39.5 -21.5l136 -43q66 -21 95 -55.5t29 -91.5q0 -56 -21.5 -110.5t-58.5 -91.5q-77 -79 -204 -79q-128 0 -179 79q-28 44 -28 102z" />
<glyph unicode="&#x406;" horiz-adv-x="228" d="M22 0l126 718h123l-126 -718h-123z" />
<glyph unicode="&#x407;" horiz-adv-x="228" d="M22 0l125 718h123l-125 -718h-123zM92 800l20 115h103l-20 -115h-103zM252 800l20 115h103l-20 -115h-103z" />
<glyph unicode="&#x408;" d="M19 134q0 42 16 137h115q-12 -76 -12 -105q0 -33 13.5 -48t42.5 -15q38 0 57 23.5t29 81.5l89 510h123l-89 -510q-39 -226 -225 -226q-81 0 -120 37.5t-39 114.5z" />
<glyph unicode="&#x409;" horiz-adv-x="838" d="M-78 0l21 121q45 -1 100 115.5t79 253.5l40 228h410l-46 -260h141q72 0 112.5 -46t40.5 -127q0 -117 -66 -201t-162 -84h-269l106 595h-166l-19 -110q-14 -83 -41 -164.5t-66.5 -155.5t-95.5 -119.5t-119 -45.5zM467 123h98q66 0 98 37t32 101q0 74 -76 74h-114z" />
<glyph unicode="&#x40a;" horiz-adv-x="874" d="M28 0l125 718h123l-47 -272h230l47 272h124l-46 -260h141q72 0 112.5 -46t40.5 -127q0 -117 -66 -201t-162 -84h-269l56 322h-230l-56 -322h-123zM525 123h98q66 0 98 37t32 101q0 74 -76 74h-114z" />
<glyph unicode="&#x40b;" horiz-adv-x="650" d="M84 591l22 127h399l-22 -127h-138l-28 -162q9 10 18 17t21 11.5t19 7.5t22.5 4t20 1h23h20.5q80 0 123 -35t43 -103q0 -21 -5 -51l-49 -281h-123l49 277q1 4 1 11q0 27 -26.5 43t-72.5 16q-97 0 -111 -75l-48 -272h-123l103 591h-138z" />
<glyph unicode="&#x40c;" horiz-adv-x="593" d="M41 0l126 718h123l-45 -258l270 258h159l-358 -344l246 -374h-158l-190 284l-50 -284h-123zM198 776l103 146h126l-146 -146h-83z" />
<glyph unicode="&#x40d;" horiz-adv-x="596" d="M28 0l126 718h114l-91 -515l334 515h122l-126 -718h-114l89 504l-325 -504h-129zM335 964h126l52 -146h-83z" />
<glyph unicode="&#x40e;" horiz-adv-x="547" d="M56 0l177 282l-125 436h145l76 -290l163 290h139l-436 -718h-139zM293 908q0 16 1 28h54v-6q0 -34 17 -49t55 -15q40 0 61 15t36 55h53q-41 -146 -168 -146q-53 0 -81 30.5t-28 87.5z" />
<glyph unicode="&#x40f;" horiz-adv-x="590" d="M27 0l126 718h123l-105 -595h230l105 595h123l-126 -718h-178l-21 -120h-107l21 120h-191z" />
<glyph unicode="&#x410;" horiz-adv-x="592" d="M-14 0l336 718h142l82 -718h-134l-12 148h-217l-67 -148h-130zM237 272h150l-23 287z" />
<glyph unicode="&#x411;" horiz-adv-x="592" d="M-31 0l126 718h419l-22 -127h-301l-27 -154h144q53 0 91.5 -16t56.5 -36t28.5 -48.5t12 -43.5t1.5 -31q0 -116 -82 -198q-38 -37 -80 -50.5t-118 -13.5h-249zM108 123h151q51 0 83 35.5t32 88.5q0 32 -19.5 50t-55.5 18h-157z" />
<glyph unicode="&#x412;" horiz-adv-x="592" d="M32 0l125 718h287q73 0 112.5 -37.5t39.5 -106.5q0 -78 -40 -136q-20 -28 -61 -51q36 -21 51 -48.5t15 -72.5q0 -110 -71 -189q-39 -44 -83.5 -60.5t-125.5 -16.5h-249zM172 124h151q60 0 90 44q24 38 24 81q0 31 -20 49t-55 18h-157zM226 437h145q47 0 75 27.5t28 73.5 q0 56 -79 56h-141z" />
<glyph unicode="&#x413;" horiz-adv-x="501" d="M32 0l125 718h419l-22 -127h-296l-103 -591h-123z" />
<glyph unicode="&#x414;" horiz-adv-x="712" d="M-78 -120l42 240h65q45 0 99.5 116t78.5 254l40 228h412l-104 -598h71l-42 -240h-107l21 120h-448l-21 -120h-107zM196 123h236l83 472h-166l-20 -110q-37 -222 -133 -362z" />
<glyph unicode="&#x415;" horiz-adv-x="547" d="M32 0l125 718h433l-22 -127h-313l-26 -151h287l-22 -127h-287l-32 -186h326l-22 -127h-447z" />
<glyph unicode="&#x416;" horiz-adv-x="900" d="M-19 0l358 374l-218 344h159l160 -258l45 258h122l-45 -258l250 258h159l-338 -344l226 -374h-158l-170 284l-50 -284h-122l50 284l-270 -284h-158z" />
<glyph unicode="&#x417;" horiz-adv-x="537" d="M30 221h118q-13 -117 107 -117q64 0 101.5 31.5t37.5 87.5q0 36 -21 60.5t-69 24.5h-79l21 117h96q45 0 69 33t24 76q0 35 -24.5 57.5t-66.5 22.5q-55 0 -88 -26t-49 -83h-118q26 112 96.5 172t176.5 60q90 0 139.5 -45t49.5 -126q0 -62 -22 -114.5t-58 -82.5 q46 -36 46 -103q0 -150 -77 -217.5t-208 -67.5q-159 0 -197 117q-16 49 -5 123z" />
<glyph unicode="&#x418;" horiz-adv-x="596" d="M28 0l126 718h114l-91 -515l334 515h122l-126 -718h-114l89 504l-325 -504h-129z" />
<glyph unicode="&#x419;" horiz-adv-x="596" d="M28 0l126 718h114l-91 -515l334 515h122l-126 -718h-114l89 504l-325 -504h-129zM305 908q0 16 1 28h54v-6q0 -34 17 -49t55 -15q40 0 61 15t36 55h53q-41 -146 -168 -146q-53 0 -81 30.5t-28 87.5z" />
<glyph unicode="&#x41a;" horiz-adv-x="593" d="M41 0l126 718h123l-45 -258l270 258h159l-358 -344l246 -374h-158l-190 284l-50 -284h-123z" />
<glyph unicode="&#x41b;" horiz-adv-x="592" d="M-78 0l21 121q45 -1 100 115.5t79 253.5l40 228h412l-126 -718h-123l104 595h-166l-19 -110q-14 -83 -41 -164.5t-66.5 -155.5t-95.5 -119.5t-119 -45.5z" />
<glyph unicode="&#x41c;" horiz-adv-x="686" d="M28 0l125 718h179l8 -570l205 570h178l-125 -718h-115l106 609l-217 -609h-120l-3 609l-106 -609h-115z" />
<glyph unicode="&#x41d;" horiz-adv-x="592" d="M28 0l125 718h123l-47 -272h230l47 272h123l-125 -718h-123l56 322h-230l-56 -322h-123z" />
<glyph unicode="&#x41e;" horiz-adv-x="638" d="M58 245q0 95 30.5 196.5t77.5 162.5q48 63 114.5 98t138.5 35q96 0 161 -65t65 -198q0 -99 -29.5 -198t-77.5 -162t-114.5 -98t-138.5 -35q-105 0 -166 71t-61 193zM184 271q0 -76 33 -119.5t92 -43.5q89 0 150 98.5t61 240.5q0 76 -33 119.5t-91 43.5q-48 0 -91 -31 t-71 -86q-50 -98 -50 -222z" />
<glyph unicode="&#x41f;" horiz-adv-x="590" d="M27 0l126 718h476l-126 -718h-123l105 595h-230l-105 -595h-123z" />
<glyph unicode="&#x420;" horiz-adv-x="547" d="M32 0l125 718h261q71 0 114 -44.5t43 -122.5q0 -125 -60 -208.5t-174 -83.5h-141l-45 -259h-123zM222 383h114q66 0 94 54q20 38 20 88q0 36 -22.5 52.5t-71.5 16.5h-97z" />
<glyph unicode="&#x421;" horiz-adv-x="592" d="M58 241q0 90 23.5 177.5t66 159t110.5 115.5t150 44q94 0 151.5 -60t57.5 -158q0 -20 -1 -36h-124q-3 50 -16 76q-24 48 -88 48q-81 0 -135 -83q-29 -45 -48 -117t-19 -141q0 -74 29 -114.5t82 -40.5q67 0 112 56q22 27 42 79h123q-23 -64 -43.5 -100.5t-52.5 -71.5 q-85 -93 -205 -93q-106 0 -160.5 70.5t-54.5 189.5z" />
<glyph unicode="&#x422;" horiz-adv-x="501" d="M84 591l22 127h479l-22 -127h-178l-103 -591h-123l103 591h-178z" />
<glyph unicode="&#x423;" horiz-adv-x="547" d="M56 0l177 282l-125 436h145l76 -290l163 290h139l-436 -718h-139z" />
<glyph unicode="&#x424;" horiz-adv-x="776" d="M25 363q10 56 44.5 108.5t85.5 89.5q90 65 234 78l14 79h124l-13 -78q137 -12 207 -79q81 -78 59 -202q-13 -77 -65.5 -141t-130.5 -99q-76 -33 -169 -40l-14 -79h-124l13 78q-139 14 -207 79q-81 78 -58 206zM151 361q-11 -65 31.5 -106t129.5 -52l56 313 q-95 -13 -146 -51q-60 -41 -71 -104zM436 202q91 11 148.5 52.5t68.5 104.5q11 64 -31.5 105t-129.5 52z" />
<glyph unicode="&#x425;" horiz-adv-x="547" d="M-19 0l254 367l-118 351h147l64 -232l148 232h142l-240 -345l127 -373h-150l-69 245l-161 -245h-144z" />
<glyph unicode="&#x426;" horiz-adv-x="653" d="M32 0l127 718h123l-105 -595h230l105 595h123l-106 -598h117l-42 -240h-107l21 120h-486z" />
<glyph unicode="&#x427;" horiz-adv-x="492" d="M23 386q0 21 5 51l49 281h123l-49 -277q-1 -4 -1 -11q0 -27 26.5 -43t72.5 -16q85 0 111 75l48 272h123l-126 -718h-123l51 289q-9 -10 -18 -17t-21 -11.5t-19 -7.5t-22.5 -4t-20 -1h-23h-20.5q-80 0 -123 35t-43 103z" />
<glyph unicode="&#x428;" horiz-adv-x="744" d="M32 0l126 718h123l-105 -595l134 1l104 594h123l-104 -594l122 -1l105 595h123l-126 -718h-625z" />
<glyph unicode="&#x429;" horiz-adv-x="802" d="M32 0l127 718h123l-105 -595h133l105 595h123l-105 -595h123l105 595h123l-106 -598h117l-42 -240h-107l21 120h-635z" />
<glyph unicode="&#x42a;" horiz-adv-x="633" d="M27 591l22 127h341l-46 -260h141q72 0 112.5 -46t40.5 -127q0 -117 -66 -201t-162 -84h-269l104 591h-218zM285 123h98q66 0 98 37t32 101q0 74 -76 74h-114z" />
<glyph unicode="&#x42b;" horiz-adv-x="727" d="M32 0l126 718h123l-46 -260h141q72 0 112.5 -46t40.5 -127q0 -117 -66 -201t-162 -84h-269zM176 123h98q66 0 98 37t32 101q0 74 -76 74h-114zM517 0l126 718h123l-126 -718h-123z" />
<glyph unicode="&#x42c;" horiz-adv-x="524" d="M32 0l126 718h123l-46 -260h141q72 0 112.5 -46t40.5 -127q0 -117 -66 -201t-162 -84h-269zM176 123h98q66 0 98 37t32 101q0 74 -76 74h-114z" />
<glyph unicode="&#x42d;" horiz-adv-x="606" d="M58 246h123q3 -52 14 -79q27 -56 92 -56q62 0 109.5 53t71.5 149h-211l22 127h207v7q0 77 -30 118.5t-85 41.5q-63 0 -106 -48q-23 -31 -42 -76h-123q21 74 59 127q94 127 238 127q104 0 160.5 -70t56.5 -196q0 -136 -41 -246.5t-121 -177t-186 -66.5q-120 0 -172 93 q-35 61 -36 172z" />
<glyph unicode="&#x42e;" horiz-adv-x="914" d="M27 0l126 718h123l-48 -272h137q38 124 110 196q95 95 223 95q56 0 104 -25.5t77 -69.5q42 -63 42 -169q0 -119 -40.5 -227.5t-101.5 -169.5q-44 -45 -102 -70t-117 -25q-77 0 -133 41t-79 113q-15 48 -15 111q0 32 5 77h-131l-57 -323h-123zM459 274q0 -79 32 -122.5 t92 -43.5q88 0 150 101t62 234q0 74 -30.5 120.5t-91.5 46.5q-60 0 -110 -48t-77 -125t-27 -163z" />
<glyph unicode="&#x42f;" horiz-adv-x="570" d="M-14 0l249 260q-65 4 -101.5 50.5t-36.5 120.5q0 118 66 202.5t162 84.5h269l-126 -718h-123l46 260l-247 -260h-158zM222 457q0 -74 76 -74h114l38 212h-98q-66 0 -98 -37t-32 -101z" />
<glyph unicode="&#x430;" d="M15 101q0 82 44 139.5t116 70.5l107 19q49 9 49 57q0 47 -62 47q-36 0 -56 -17t-32 -57h-110q23 79 55 118q56 68 167 68q74 0 114.5 -31.5t40.5 -89.5q0 -17 -3 -33l-50 -288q-5 -32 -5 -49q0 -25 16 -34l-4 -21h-124q-1 16 -1 29q0 15 2 34q-41 -42 -75.5 -59.5 t-76.5 -17.5q-53 0 -82.5 30.5t-29.5 84.5zM133 133q0 -22 12 -34.5t33 -12.5q42 0 77.5 31t42.5 74l12 68q-25 -18 -83 -29q-50 -11 -72 -33.5t-22 -63.5z" />
<glyph unicode="&#x431;" horiz-adv-x="497" d="M30 190q0 37 7 75q8 48 13 73.5t16 74t24 80t31.5 69t44 63.5t56.5 43q41 22 79 32t71.5 12.5t43.5 5.5q10 2 17.5 6t12.5 7t10 9.5t7 9.5t7.5 12.5t7.5 13.5h104q-14 -33 -21 -47t-24.5 -38t-40.5 -41q-24 -18 -49.5 -27t-57.5 -14.5t-50 -10.5q-50 -16 -73.5 -29.5 t-37.5 -37.5q39 15 84 15q83 0 130.5 -55.5t47.5 -151.5q0 -144 -82 -248.5t-198 -104.5q-85 0 -132.5 55t-47.5 149zM149 207q0 -103 82 -103q62 0 100.5 65t38.5 154q0 105 -81 105q-62 0 -101 -66.5t-39 -154.5z" />
<glyph unicode="&#x432;" horiz-adv-x="485" d="M20 0l94 532h213q76 0 118 -29.5t42 -83.5q0 -94 -93 -132q44 -19 60 -50q10 -20 10 -50q0 -83 -72 -139q-36 -28 -77.5 -38t-118.5 -10h-176zM151 106h84q50 0 78.5 20.5t28.5 57.5q0 44 -80 44h-90zM190 329h77q98 0 98 58q0 22 -19.5 30.5t-64.5 8.5h-74z" />
<glyph unicode="&#x433;" horiz-adv-x="380" d="M20 0l94 532h318l-20 -114h-204l-74 -418h-114z" />
<glyph unicode="&#x434;" horiz-adv-x="637" d="M-57 -120l40 230h75q14 0 35.5 33.5t45.5 98.5t37 139l26 151h361l-74 -422h71l-40 -230h-104l21 120h-369l-21 -120h-104zM192 114h184l53 304h-133l-5 -31q-11 -60 -37 -136.5t-62 -136.5z" />
<glyph unicode="&#x435;" d="M28 179q0 126 52 225q73 142 211 142q80 0 122.5 -50t42.5 -145q0 -49 -9 -98l-4 -25h-299q-3 -22 -3 -39q0 -44 21 -67.5t59 -23.5q59 0 86 58h118q-22 -49 -42.5 -76.5t-51.5 -50.5q-58 -43 -131 -43q-84 0 -128 49.5t-44 143.5zM163 319h178l1 26q0 40 -19.5 63 t-52.5 23q-38 0 -64 -27t-43 -85z" />
<glyph unicode="&#x436;" horiz-adv-x="720" d="M-18 0l257 282l-158 250h141l111 -186l33 186h114l-33 -186l177 186h141l-246 -250l157 -282h-138l-115 208l-37 -208h-115l38 208l-189 -208h-138z" />
<glyph unicode="&#x437;" horiz-adv-x="457" d="M25 170h118q-5 -40 14 -58.5t65 -18.5q40 0 63.5 19t23.5 54q0 56 -65 57l-46 1l16 92l37 1q49 1 69.5 23.5t20.5 49.5q0 21 -16 35t-45 14q-38 0 -58 -15t-33 -54h-113q16 55 34.5 85t49.5 52q56 39 138 39q73 0 113.5 -35t40.5 -103q0 -78 -47 -128l15 -33q9 -21 9 -44 q0 -97 -65.5 -157t-163.5 -60q-91 0 -140 47q-25 23 -32.5 52.5t-2.5 84.5z" />
<glyph unicode="&#x438;" horiz-adv-x="503" d="M23 0l94 532h114l-61 -343l211 343h131l-94 -532h-114l60 342l-210 -342h-131z" />
<glyph unicode="&#x439;" horiz-adv-x="504" d="M23 0l94 532h114l-61 -343l211 343h131l-94 -532h-114l60 342l-210 -342h-131zM236 722q0 16 1 28h54v-6q0 -34 17 -49t55 -15q40 0 61 15t36 55h53q-41 -146 -168 -146q-53 0 -81 30.5t-28 87.5z" />
<glyph unicode="&#x43a;" horiz-adv-x="457" d="M27 0l94 532h114l-33 -186l177 186h141l-246 -250l157 -282h-138l-115 208l-37 -208h-114z" />
<glyph unicode="&#x43b;" horiz-adv-x="496" d="M-59 0l20 115q14 0 35 32.5t44.5 96t36.5 137.5l26 151h361l-92 -532h-114l73 418h-133l-6 -31q-9 -51 -28 -111.5t-49.5 -125t-76.5 -107.5t-97 -43z" />
<glyph unicode="&#x43c;" horiz-adv-x="648" d="M23 0l94 532h178l21 -396l163 396h178l-94 -532h-114l59 335l-158 -335h-121l-37 313l-55 -313h-114z" />
<glyph unicode="&#x43d;" horiz-adv-x="503" d="M23 0l94 532h114l-34 -178h167l34 178h114l-94 -532h-114l40 240h-167l-40 -240h-114z" />
<glyph unicode="&#x43e;" horiz-adv-x="501" d="M37 190q0 151 80.5 253.5t198.5 102.5q84 0 132.5 -54.5t48.5 -149.5q0 -67 -22 -136t-57 -116q-79 -104 -200 -104q-84 0 -132.5 54.5t-48.5 149.5zM156 209q0 -105 83 -105q69 0 105 73q33 64 33 147q0 104 -83 104q-69 0 -104 -73q-34 -66 -34 -146z" />
<glyph unicode="&#x43f;" horiz-adv-x="503" d="M23 0l94 532h395l-94 -532h-114l74 418h-167l-74 -418h-114z" />
<glyph unicode="&#x440;" horiz-adv-x="501" d="M-15 -207l129 739h110l-14 -80q36 52 69 73t78 21q66 0 104 -50t38 -138q0 -86 -26 -169t-83.5 -143t-132.5 -60q-44 0 -69 19.5t-40 65.5l-48 -278h-115zM171 202q0 -48 20 -74.5t57 -26.5q58 0 93.5 71t35.5 150q0 103 -75 103q-63 0 -95 -68q-36 -74 -36 -155z" />
<glyph unicode="&#x441;" d="M35 170q0 77 23.5 155t61.5 128q70 93 179 93q74 0 118 -44t44 -117q0 -11 -2 -43h-116q-1 45 -14.5 65.5t-44.5 20.5q-43 0 -74 -40t-43 -92t-12 -107q0 -42 17.5 -65t48.5 -23q32 0 58.5 25.5t36.5 67.5h117q-31 -101 -91.5 -154.5t-144.5 -53.5q-79 0 -120.5 47.5 t-41.5 136.5z" />
<glyph unicode="&#x442;" horiz-adv-x="370" d="M52 432l18 100h352l-18 -100h-119l-76 -432h-114l76 432h-119z" />
<glyph unicode="&#x443;" d="M4 -212l20 112q14 -2 24 -2q36 0 53.5 15.5t33.5 64.5l-64 554h128l25 -396l159 396h122l-242 -523q-32 -68 -49.5 -103t-35.5 -63.5t-35 -38t-35.5 -14t-49.5 -4.5z" />
<glyph unicode="&#x444;" horiz-adv-x="786" d="M36 180q0 142 70 254t171 112q94 0 109 -94l32 185h114l-32 -185q31 53 63.5 73.5t77.5 20.5q68 0 106 -51t38 -140q0 -141 -72 -255t-171 -114q-44 0 -69.5 19.5t-39.5 65.5l-49 -278h-114l49 278q-31 -46 -63 -65.5t-76 -19.5q-68 0 -106 52.5t-38 141.5zM156 207 q0 -50 19 -78t54 -28q59 0 96 68t37 156q0 99 -74 99q-56 0 -94 -66t-38 -151zM456 201q0 -100 77 -100q53 0 91.5 67.5t38.5 151.5q0 104 -75 104q-58 0 -95 -67.5t-37 -155.5z" />
<glyph unicode="&#x445;" d="M-18 0l196 271l-98 261h140l47 -155l99 155h135l-189 -261l101 -271h-142l-47 160l-103 -160h-139z" />
<glyph unicode="&#x446;" horiz-adv-x="571" d="M23 0l93 532h114l-73 -418h167l73 418h114l-74 -422h114l-40 -230h-104l21 120h-405z" />
<glyph unicode="&#x447;" horiz-adv-x="418" d="M18 284q0 14 3 29l39 219h114l-39 -216q-3 -9 -3 -18q0 -37 66 -37q26 0 47 15t30 40l39 216h114l-94 -532h-114l32 186q-5 -5 -11.5 -9t-14.5 -6.5t-14 -4t-17 -2t-16 -0.5h-18.5h-18.5q-43 0 -83.5 29.5t-40.5 90.5z" />
<glyph unicode="&#x448;" horiz-adv-x="678" d="M23 0l94 532h114l-74 -418h114l74 418h114l-74 -418h114l74 418h114l-94 -532h-570z" />
<glyph unicode="&#x449;" horiz-adv-x="746" d="M23 0l93 532h114l-73 -418h114l73 418h114l-73 -418h114l73 418h114l-74 -422h114l-40 -230h-104l21 120h-580z" />
<glyph unicode="&#x44a;" horiz-adv-x="548" d="M52 432l18 100h241l-36 -203h77q49 0 86.5 -10.5t57.5 -26t33 -36t16.5 -37t3.5 -32.5q0 -83 -72 -139q-36 -28 -77.5 -38t-118.5 -10h-176l76 432h-129zM236 106h84q50 0 78.5 20.5t28.5 57.5q0 44 -80 44h-90z" />
<glyph unicode="&#x44b;" horiz-adv-x="687" d="M23 0l94 532h112l-36 -203h77q29 0 53.5 -3t41 -7.5t31 -12.5t23 -14t16 -16t10.5 -14.5t7 -14t5 -10.5q10 -20 10 -50q0 -83 -72 -139q-36 -28 -77.5 -38t-118.5 -10h-176zM154 106h84q50 0 78.5 20.5t28.5 57.5q0 44 -80 44h-90zM488 0l94 532h114l-94 -532h-114z" />
<glyph unicode="&#x44c;" horiz-adv-x="458" d="M23 0l94 532h112l-36 -203h77q29 0 53.5 -3t41 -7.5t31 -12.5t23 -14t16 -16t10.5 -14.5t7 -14t5 -10.5q10 -20 10 -50q0 -83 -72 -139q-36 -28 -77.5 -38t-118.5 -10h-176zM154 106h84q50 0 78.5 20.5t28.5 57.5q0 44 -80 44h-90z" />
<glyph unicode="&#x44d;" horiz-adv-x="462" d="M37 194h116q-4 -42 13.5 -67.5t50.5 -25.5q74 0 107 120h-110l20 114h105q0 93 -71 93q-31 0 -52 -20.5t-38 -65.5h-116q20 71 49 110q32 45 80 69.5t102 24.5q80 0 123 -51.5t43 -145.5t-30.5 -176t-90.5 -134.5t-137 -52.5q-85 0 -127 53.5t-37 154.5z" />
<glyph unicode="&#x44e;" horiz-adv-x="723" d="M23 0l94 532h114l-35 -197h88q32 99 100 155t157 56q83 0 130.5 -55.5t47.5 -150.5q0 -144 -81 -249t-198 -105q-85 0 -132.5 54.5t-47.5 148.5q0 21 1 32h-85l-39 -221h-114zM378 207q0 -103 82 -103q62 0 101 65.5t39 154.5q0 104 -81 104q-62 0 -101.5 -66.5 t-39.5 -154.5z" />
<glyph unicode="&#x44f;" horiz-adv-x="487" d="M2 0l188 207q-19 3 -35 7.5t-27 9.5t-21 12.5t-15.5 12.5t-11.5 13.5t-8 12t-6 11.5t-4 9q-10 20 -10 50q0 83 72 139q36 28 77.5 38t118.5 10h176l-94 -532h-112l36 203l-186 -203h-138zM174 348q0 -44 80 -44h90l21 122h-84q-50 0 -78.5 -20.5t-28.5 -57.5z" />
<glyph unicode="&#x450;" d="M28 179q0 126 52 225q73 142 211 142q80 0 122.5 -50t42.5 -145q0 -49 -9 -98l-4 -25h-299q-3 -22 -3 -39q0 -44 21 -67.5t59 -23.5q59 0 86 58h118q-22 -49 -42.5 -76.5t-51.5 -50.5q-58 -43 -131 -43q-84 0 -128 49.5t-44 143.5zM163 319h178l1 26q0 40 -19.5 63 t-52.5 23q-38 0 -64 -27t-43 -85zM234 778h126l52 -146h-83z" />
<glyph unicode="&#x451;" d="M28 179q0 126 52 225q73 142 211 142q80 0 122.5 -50t42.5 -145q0 -49 -9 -98l-4 -25h-299q-3 -22 -3 -39q0 -44 21 -67.5t59 -23.5q59 0 86 58h118q-22 -49 -42.5 -76.5t-51.5 -50.5q-58 -43 -131 -43q-84 0 -128 49.5t-44 143.5zM163 319h178l1 26q0 40 -19.5 63 t-52.5 23q-38 0 -64 -27t-43 -85zM175 614l20 115h103l-20 -115h-103zM335 614l20 115h103l-20 -115h-103z" />
<glyph unicode="&#x452;" horiz-adv-x="518" d="M65 0l89 505h-89l18 100h85l22 113h115l-22 -113h142l-18 -100h-139l-25 -138q50 87 145 87q57 0 90 -35.5t33 -97.5q0 -13 -4 -45l-48 -278q-9 -53 -23 -78.5t-49 -40t-102 -14.5v73q49 0 60 60l39 233q1 6 2 16.5t2 17.5t1 11q0 28 -15.5 44t-44.5 16q-42 0 -72.5 -33 t-40.5 -90l-36 -213h-115z" />
<glyph unicode="&#x453;" horiz-adv-x="380" d="M20 0l94 532h318l-20 -114h-204l-74 -418h-114zM146 594l103 146h126l-146 -146h-83z" />
<glyph unicode="&#x454;" d="M43 259q24 135 92 211t165 76q54 0 93.5 -24.5t56.5 -69.5q15 -43 9 -110h-116q0 45 -13.5 65.5t-44.5 20.5q-72 0 -105 -93h105l-20 -114h-109q-11 -120 64 -120q33 0 59 25.5t37 67.5h116q-30 -101 -90.5 -154.5t-145.5 -53.5q-97 0 -136.5 71t-16.5 202z" />
<glyph unicode="&#x455;" d="M22 129q0 11 2 41h118q-1 -8 -1 -20q0 -58 80 -58q38 0 62.5 17.5t24.5 44.5q0 35 -86 52q-151 28 -151 129q0 50 26 102q56 109 190 109q162 0 162 -142q0 -20 -1 -34h-113v18q-3 52 -67 52q-35 0 -56.5 -16t-21.5 -42q0 -33 85 -51q154 -30 154 -131q0 -40 -17 -81.5 t-45 -70.5q-62 -62 -167 -62q-83 0 -130.5 38t-47.5 105z" />
<glyph unicode="&#x456;" horiz-adv-x="228" d="M27 0l93 532h114l-92 -532h-115zM131 595l22 130h115l-23 -130h-114z" />
<glyph unicode="&#x457;" horiz-adv-x="228" d="M27 0l93 532h114l-93 -532h-114zM63 632l20 115h103l-20 -115h-103zM223 632l20 115h103l-20 -115h-103z" />
<glyph unicode="&#x458;" horiz-adv-x="228" d="M-65 -214l20 112h20q34 0 42 49l102 585h115l-102 -588q-16 -89 -52.5 -123.5t-115.5 -34.5h-29zM130 595l23 130h115l-23 -130h-115z" />
<glyph unicode="&#x459;" horiz-adv-x="730" d="M-59 0l20 115q14 0 35 32.5t44.5 96t36.5 137.5l26 151h362l-36 -203h77q29 0 53.5 -3t41 -7.5t31 -12.5t23 -14t16 -16t10.5 -14.5t7 -14t5 -10.5q10 -20 10 -50q0 -83 -72 -139q-36 -28 -77.5 -38t-118.5 -10h-176l72 418h-133l-6 -31q-9 -51 -28 -111.5t-49.5 -125 t-76.5 -107.5t-97 -43zM390 106h84q50 0 78.5 20.5t28.5 57.5q0 44 -80 44h-90z" />
<glyph unicode="&#x45a;" horiz-adv-x="739" d="M23 0l94 532h114l-35 -197h167l35 197h112l-36 -203h77q29 0 53.5 -3t41 -7.5t31 -12.5t23 -14t16 -16t10.5 -14.5t7 -14t5 -10.5q16 -33 8 -77q-11 -66 -70 -112q-36 -28 -77.5 -38t-118.5 -10h-176l39 221h-167l-39 -221h-114zM435 106h84q48 0 74 15t32 51 q6 30 -14.5 43t-64.5 13h-90z" />
<glyph unicode="&#x45b;" horiz-adv-x="518" d="M65 0l89 505h-89l18 100h85l22 113h115l-22 -113h142l-18 -100h-139l-25 -138q50 87 145 87q57 0 90 -35.5t33 -97.5q0 -24 -4 -45l-47 -276h-115l39 231q5 30 5 45q0 28 -15.5 44t-44.5 16q-42 0 -72.5 -33t-40.5 -90l-36 -213h-115z" />
<glyph unicode="&#x45c;" horiz-adv-x="457" d="M27 0l94 532h114l-33 -186l177 186h141l-246 -250l157 -282h-138l-115 208l-37 -208h-114zM146 594l103 146h126l-146 -146h-83z" />
<glyph unicode="&#x45d;" horiz-adv-x="503" d="M23 0l94 532h114l-61 -343l211 343h131l-94 -532h-114l60 342l-210 -342h-131zM255 778h126l52 -146h-83z" />
<glyph unicode="&#x45e;" d="M4 -212l20 112q14 -2 24 -2q36 0 53.5 15.5t33.5 64.5l-64 554h128l25 -396l159 396h122l-242 -523q-32 -68 -49.5 -103t-35.5 -63.5t-35 -38t-35.5 -14t-49.5 -4.5zM189 722q0 16 1 28h54v-6q0 -34 17 -49t55 -15q40 0 61 15t36 55h53q-41 -146 -168 -146 q-53 0 -81 30.5t-28 87.5z" />
<glyph unicode="&#x45f;" horiz-adv-x="503" d="M23 0l94 532h114l-74 -418h167l74 418h114l-94 -532h-138l-21 -120h-104l21 120h-153z" />
<glyph unicode="&#x48c;" horiz-adv-x="524" d="M32 0l126 718h123l-46 -260h141q72 0 112.5 -46t40.5 -127q0 -117 -66 -201t-162 -84h-269zM176 123h98q66 0 98 37t32 101q0 74 -76 74h-114z" />
<glyph unicode="&#x48d;" horiz-adv-x="458" d="M23 0l94 532h112l-36 -203h77q29 0 53.5 -3t41 -7.5t31 -12.5t23 -14t16 -16t10.5 -14.5t7 -14t5 -10.5q10 -20 10 -50q0 -83 -72 -139q-36 -28 -77.5 -38t-118.5 -10h-176zM154 106h84q50 0 78.5 20.5t28.5 57.5q0 44 -80 44h-90z" />
<glyph unicode="&#x48e;" horiz-adv-x="547" d="M32 0l125 718h269q70 0 109.5 -44t39.5 -123q0 -115 -68 -206q-66 -86 -166 -86h-141l-45 -259h-123zM222 383h114q66 0 94 54q20 38 20 88q0 36 -22.5 52.5t-71.5 16.5h-97z" />
<glyph unicode="&#x48f;" horiz-adv-x="501" d="M-15 -207l129 739h110l-14 -80q36 52 69 73t78 21q66 0 104 -50t38 -138q0 -86 -26 -169t-83.5 -143t-132.5 -60q-44 0 -69 19.5t-40 65.5l-48 -278h-115zM171 202q0 -48 20 -74.5t57 -26.5q58 0 93.5 71t35.5 150q0 103 -75 103q-63 0 -95 -68q-36 -74 -36 -155z" />
<glyph unicode="&#x490;" horiz-adv-x="541" d="M32 0l126 718h296l18 104h123l-40 -231h-296l-104 -591h-123z" />
<glyph unicode="&#x491;" horiz-adv-x="424" d="M20 0l93 532l211 1l18 107h108l-39 -222h-204l-73 -418h-114z" />
<glyph unicode="&#x492;" horiz-adv-x="501" d="M32 0l63 360h-63l21 124h63l41 234h419l-22 -127h-296l-19 -107h135l-21 -124h-135l-63 -360h-123z" />
<glyph unicode="&#x493;" horiz-adv-x="380" d="M16 266l16 94h52l30 172h318l-20 -114h-204l-10 -58h90l-17 -94h-90l-47 -266h-114l48 266h-52z" />
<glyph unicode="&#x494;" horiz-adv-x="501" d="M32 0l125 718h419l-22 -127h-296l-103 -591h-123z" />
<glyph unicode="&#x495;" horiz-adv-x="380" d="M20 0l94 532h318l-20 -114h-204l-74 -418h-114z" />
<glyph unicode="&#x496;" horiz-adv-x="900" d="M-19 0l358 374l-218 344h159l160 -258l45 258h122l-45 -258l250 258h159l-338 -344l153 -254h94l-42 -240h-107l21 120h-51l-170 284l-50 -284h-122l50 284l-270 -284h-158z" />
<glyph unicode="&#x497;" horiz-adv-x="720" d="M-18 0l257 282l-158 250h141l111 -186l33 186h114l-33 -186l177 186h141l-246 -250l96 -172h80l-40 -230h-104l21 120h-34l-115 208l-37 -208h-115l38 208l-189 -208h-138z" />
<glyph unicode="&#x498;" horiz-adv-x="537" d="M30 221h118q-13 -117 107 -117q57 0 92.5 24t43.5 68t-10.5 78t-76.5 34h-79l21 117h108q32 0 52 31.5t28 70.5q7 41 -17 64t-73 23q-55 0 -88 -26t-49 -83h-118q26 112 96.5 172t176.5 60q105 0 154 -60t30 -165q-17 -94 -75 -143q60 -48 41 -155q-19 -108 -94 -170.5 t-186 -62.5q-159 0 -197 117q-16 49 -5 123z" />
<glyph unicode="&#x499;" horiz-adv-x="457" d="M25 170h118q-5 -40 14 -58.5t65 -18.5q35 0 58 15t27 40q13 74 -63 75l-46 1l16 92l37 1q77 2 89 72q4 25 -11 37.5t-49 12.5q-38 0 -58 -15t-33 -54h-113q16 55 34.5 85t49.5 52q56 39 138 39q111 0 142 -76q19 -53 7.5 -105.5t-42.5 -84.5l15 -33q14 -33 5 -81 q-14 -84 -74.5 -132t-150.5 -48q-91 0 -140 47q-25 23 -32.5 52.5t-2.5 84.5z" />
<glyph unicode="&#x49a;" horiz-adv-x="593" d="M41 0l126 718h123l-45 -258l270 258h159l-358 -344l167 -254h100l-42 -240h-107l21 120h-51l-190 284l-50 -284h-123z" />
<glyph unicode="&#x49b;" horiz-adv-x="457" d="M27 0l94 532h114l-33 -186l177 186h141l-246 -250l96 -172h80l-40 -230h-104l21 120h-34l-115 208l-37 -208h-114z" />
<glyph unicode="&#x49c;" horiz-adv-x="593" d="M41 0l126 718h123l-45 -258l270 258h159l-358 -344l246 -374h-158l-190 284l-50 -284h-123z" />
<glyph unicode="&#x49d;" horiz-adv-x="457" d="M27 0l94 532h114l-33 -186l177 186h141l-246 -250l157 -282h-138l-115 208l-37 -208h-114z" />
<glyph unicode="&#x49e;" horiz-adv-x="593" d="M41 0l126 718h123l-45 -258l270 258h159l-358 -344l246 -374h-158l-190 284l-50 -284h-123z" />
<glyph unicode="&#x49f;" horiz-adv-x="457" d="M27 0l94 532h114l-33 -186l177 186h141l-246 -250l157 -282h-138l-115 208l-37 -208h-114z" />
<glyph unicode="&#x4a0;" horiz-adv-x="593" d="M41 0l126 718h123l-45 -258l270 258h159l-358 -344l246 -374h-158l-190 284l-50 -284h-123z" />
<glyph unicode="&#x4a1;" horiz-adv-x="457" d="M27 0l94 532h114l-33 -186l177 186h141l-246 -250l157 -282h-138l-115 208l-37 -208h-114z" />
<glyph unicode="&#x4a2;" horiz-adv-x="592" d="M28 0l125 718h123l-47 -272h230l47 272h123l-104 -598h102l-42 -240h-107l21 120h-118l56 322h-230l-56 -322h-123z" />
<glyph unicode="&#x4a3;" horiz-adv-x="503" d="M23 0l94 532h114l-34 -178h167l34 178h114l-75 -422h94l-40 -230h-104l21 120h-104l40 240h-167l-40 -240h-114z" />
<glyph unicode="&#x4a4;" horiz-adv-x="592" d="M28 0l125 718h123l-47 -272h230l47 272h123l-125 -718h-123l56 322h-230l-56 -322h-123z" />
<glyph unicode="&#x4a5;" horiz-adv-x="503" d="M23 0l94 532h114l-34 -178h167l34 178h114l-94 -532h-114l40 240h-167l-40 -240h-114z" />
<glyph unicode="&#x4a6;" horiz-adv-x="590" d="M27 0l126 718h476l-126 -718h-123l105 595h-230l-105 -595h-123z" />
<glyph unicode="&#x4a7;" horiz-adv-x="503" d="M23 0l94 532h395l-94 -532h-114l74 418h-167l-74 -418h-114z" />
<glyph unicode="&#x4a8;" horiz-adv-x="592" d="M58 241q0 90 23.5 177.5t66 159t110.5 115.5t150 44q94 0 151.5 -60t57.5 -158q0 -20 -1 -36h-124q-3 50 -16 76q-24 48 -88 48q-81 0 -135 -83q-29 -45 -48 -117t-19 -141q0 -74 29 -114.5t82 -40.5q67 0 112 56q22 27 42 79h123q-23 -64 -43.5 -100.5t-52.5 -71.5 q-85 -93 -205 -93q-106 0 -160.5 70.5t-54.5 189.5z" />
<glyph unicode="&#x4a9;" d="M35 170q0 77 23.5 155t61.5 128q70 93 179 93q74 0 118 -44t44 -117q0 -11 -2 -43h-116q-1 45 -14.5 65.5t-44.5 20.5q-43 0 -74 -40t-43 -92t-12 -107q0 -42 17.5 -65t48.5 -23q32 0 58.5 25.5t36.5 67.5h117q-31 -101 -91.5 -154.5t-144.5 -53.5q-79 0 -120.5 47.5 t-41.5 136.5z" />
<glyph unicode="&#x4aa;" horiz-adv-x="592" d="M58 241q0 90 23.5 177.5t66 159t110.5 115.5t150 44q94 0 151.5 -60t57.5 -158q0 -20 -1 -36h-124q-3 50 -16 76q-24 48 -88 48q-81 0 -135 -83q-29 -45 -48 -117t-19 -141q0 -74 29 -114.5t82 -40.5q67 0 112 56q22 27 42 79h123q-23 -64 -43.5 -100.5t-52.5 -71.5 q-85 -93 -205 -93q-106 0 -160.5 70.5t-54.5 189.5z" />
<glyph unicode="&#x4ab;" d="M35 170q0 77 23.5 155t61.5 128q70 93 179 93q74 0 118 -44t44 -117q0 -11 -2 -43h-116q-1 45 -14.5 65.5t-44.5 20.5q-43 0 -74 -40t-43 -92t-12 -107q0 -42 17.5 -65t48.5 -23q32 0 58.5 25.5t36.5 67.5h117q-31 -101 -91.5 -154.5t-144.5 -53.5q-79 0 -120.5 47.5 t-41.5 136.5z" />
<glyph unicode="&#x4ac;" horiz-adv-x="501" d="M84 591l22 127h479l-22 -127h-178l-82 -471h102l-42 -240h-107l21 120h-118l103 591h-178z" />
<glyph unicode="&#x4ad;" horiz-adv-x="370" d="M52 432l18 100h352l-18 -100h-119l-57 -322h94l-40 -230h-104l21 120h-104l76 432h-119z" />
<glyph unicode="&#x4ae;" horiz-adv-x="547" d="M107 718h145l68 -312l171 312h140l-276 -449l-46 -269h-124l48 271z" />
<glyph unicode="&#x4af;" horiz-adv-x="547" d="M75 532h145l68 -312l171 312h140l-276 -448l-46 -270h-124l48 270z" />
<glyph unicode="&#x4b0;" horiz-adv-x="547" d="M54 162l16 90h160l3 19l-126 447h145l68 -312l171 312h140l-276 -449l-3 -17h160l-15 -90h-160l-28 -162h-124l29 162h-160z" />
<glyph unicode="&#x4b1;" horiz-adv-x="547" d="M30 -4l16 88h155l-126 448h145l68 -312l171 312h140l-276 -448h155l-15 -88h-155l-31 -182h-124l32 182h-155z" />
<glyph unicode="&#x4b2;" horiz-adv-x="547" d="M-19 0l254 367l-118 351h147l64 -232l148 232h142l-240 -345l86 -253h62l-42 -240h-107l21 120h-43l-69 245l-161 -245h-144z" />
<glyph unicode="&#x4b3;" d="M-18 0l196 271l-98 261h140l47 -155l99 155h135l-189 -261l60 -161h61l-40 -230h-104l21 120h-39l-47 160l-103 -160h-139z" />
<glyph unicode="&#x4b4;" horiz-adv-x="653" d="M32 0l127 718h123l-105 -595h230l105 595h123l-106 -598h117l-42 -240h-107l21 120h-486z" />
<glyph unicode="&#x4b5;" horiz-adv-x="571" d="M23 0l93 532h114l-73 -418h167l73 418h114l-74 -422h114l-40 -230h-104l21 120h-405z" />
<glyph unicode="&#x4b6;" horiz-adv-x="492" d="M23 386q0 21 5 51l49 281h123l-49 -277q-1 -4 -1 -11q0 -27 26.5 -43t72.5 -16q85 0 111 75l48 272h123l-126 -718h-123l51 289q-9 -10 -18 -17t-21 -11.5t-19 -7.5t-22.5 -4t-20 -1h-23h-20.5q-80 0 -123 35t-43 103z" />
<glyph unicode="&#x4b7;" horiz-adv-x="418" d="M18 284q0 14 3 29l39 219h114l-39 -216q-3 -9 -3 -18q0 -37 66 -37q26 0 47 15t30 40l39 216h114l-94 -532h-114l32 186q-5 -5 -11.5 -9t-14.5 -6.5t-14 -4t-17 -2t-16 -0.5h-18.5h-18.5q-43 0 -83.5 29.5t-40.5 90.5z" />
<glyph unicode="&#x4b8;" horiz-adv-x="492" d="M23 386q0 21 5 51l49 281h123l-49 -277q-1 -4 -1 -11q0 -27 26.5 -43t72.5 -16q85 0 111 75l48 272h123l-126 -718h-123l51 289q-9 -10 -18 -17t-21 -11.5t-19 -7.5t-22.5 -4t-20 -1h-23h-20.5q-80 0 -123 35t-43 103z" />
<glyph unicode="&#x4b9;" horiz-adv-x="418" d="M18 284q0 14 3 29l39 219h114l-39 -216q-3 -9 -3 -18q0 -37 66 -37q26 0 47 15t30 40l39 216h114l-94 -532h-114l32 186q-5 -5 -11.5 -9t-14.5 -6.5t-14 -4t-17 -2t-16 -0.5h-18.5h-18.5q-43 0 -83.5 29.5t-40.5 90.5z" />
<glyph unicode="&#x4ba;" horiz-adv-x="492" d="M-7 0l126 718h123l-51 -289q9 10 18 17t21 11.5t19 7.5t22.5 4t20 1h23h20.5q80 0 123 -35t43 -103q0 -21 -5 -51l-49 -281h-123l49 277q1 4 1 11q0 27 -26.5 43t-72.5 16q-85 0 -111 -75l-48 -272h-123z" />
<glyph unicode="&#x4bb;" horiz-adv-x="418" d="M18 0l94 532h114l-32 -186q5 5 11.5 9t14.5 6.5t14 4t17 2t16 0.5h18.5h18.5q43 0 83.5 -29.5t40.5 -90.5q0 -14 -3 -29l-39 -219h-114l39 216q3 9 3 18q0 37 -66 37q-25 0 -46 -15t-31 -40l-39 -216h-114z" />
<glyph unicode="&#x4bc;" horiz-adv-x="592" d="M58 241q0 90 23.5 177.5t66 159t110.5 115.5t150 44q94 0 151.5 -60t57.5 -158q0 -20 -1 -36h-124q-3 50 -16 76q-24 48 -88 48q-81 0 -135 -83q-29 -45 -48 -117t-19 -141q0 -74 29 -114.5t82 -40.5q67 0 112 56q22 27 42 79h123q-23 -64 -43.5 -100.5t-52.5 -71.5 q-85 -93 -205 -93q-106 0 -160.5 70.5t-54.5 189.5z" />
<glyph unicode="&#x4bd;" d="M35 170q0 77 23.5 155t61.5 128q70 93 179 93q74 0 118 -44t44 -117q0 -11 -2 -43h-116q-1 45 -14.5 65.5t-44.5 20.5q-43 0 -74 -40t-43 -92t-12 -107q0 -42 17.5 -65t48.5 -23q32 0 58.5 25.5t36.5 67.5h117q-31 -101 -91.5 -154.5t-144.5 -53.5q-79 0 -120.5 47.5 t-41.5 136.5z" />
<glyph unicode="&#x4be;" horiz-adv-x="592" d="M58 241q0 90 23.5 177.5t66 159t110.5 115.5t150 44q94 0 151.5 -60t57.5 -158q0 -20 -1 -36h-124q-3 50 -16 76q-24 48 -88 48q-81 0 -135 -83q-29 -45 -48 -117t-19 -141q0 -74 29 -114.5t82 -40.5q67 0 112 56q22 27 42 79h123q-23 -64 -43.5 -100.5t-52.5 -71.5 q-85 -93 -205 -93q-106 0 -160.5 70.5t-54.5 189.5z" />
<glyph unicode="&#x4bf;" d="M35 170q0 77 23.5 155t61.5 128q70 93 179 93q74 0 118 -44t44 -117q0 -11 -2 -43h-116q-1 45 -14.5 65.5t-44.5 20.5q-43 0 -74 -40t-43 -92t-12 -107q0 -42 17.5 -65t48.5 -23q32 0 58.5 25.5t36.5 67.5h117q-31 -101 -91.5 -154.5t-144.5 -53.5q-79 0 -120.5 47.5 t-41.5 136.5z" />
<glyph unicode="&#x4c0;" horiz-adv-x="228" d="M22 0l126 718h123l-126 -718h-123z" />
<glyph unicode="&#x4c1;" horiz-adv-x="900" d="M-19 0l358 374l-218 344h159l160 -258l45 258h122l-45 -258l250 258h159l-338 -344l226 -374h-158l-170 284l-50 -284h-122l50 284l-270 -284h-158zM449 936q0 16 1 28h54v-6q0 -34 17 -49t55 -15q40 0 61 15t36 55h53q-41 -146 -168 -146q-53 0 -81 30.5t-28 87.5z" />
<glyph unicode="&#x4c2;" horiz-adv-x="720" d="M-18 0l257 282l-158 250h141l111 -186l33 186h114l-33 -186l177 186h141l-246 -250l157 -282h-138l-115 208l-37 -208h-115l38 208l-189 -208h-138zM326 750q0 16 1 28h54v-6q0 -34 17 -49t55 -15q40 0 61 15t36 55h53q-41 -146 -168 -146q-53 0 -81 30.5t-28 87.5z" />
<glyph unicode="&#x4c3;" horiz-adv-x="593" d="M41 0l126 718h123l-45 -258l270 258h159l-358 -344l246 -374h-158l-190 284l-50 -284h-123z" />
<glyph unicode="&#x4c4;" horiz-adv-x="457" d="M27 0l94 532h114l-33 -186l177 186h141l-246 -250l157 -282h-138l-115 208l-37 -208h-114z" />
<glyph unicode="&#x4c7;" horiz-adv-x="592" d="M28 0l125 718h123l-47 -272h230l47 272h123l-125 -718h-123l56 322h-230l-56 -322h-123z" />
<glyph unicode="&#x4c8;" horiz-adv-x="503" d="M23 0l94 532h114l-34 -178h167l34 178h114l-94 -532h-114l40 240h-167l-40 -240h-114z" />
<glyph unicode="&#x4cb;" horiz-adv-x="492" d="M23 386q0 21 5 51l49 281h123l-49 -277q-1 -4 -1 -11q0 -27 26.5 -43t72.5 -16q85 0 111 75l48 272h123l-126 -718h-123l51 289q-9 -10 -18 -17t-21 -11.5t-19 -7.5t-22.5 -4t-20 -1h-23h-20.5q-80 0 -123 35t-43 103z" />
<glyph unicode="&#x4cc;" horiz-adv-x="418" d="M18 284q0 14 3 29l39 219h114l-39 -216q-3 -9 -3 -18q0 -37 66 -37q26 0 47 15t30 40l39 216h114l-94 -532h-114l32 186q-5 -5 -11.5 -9t-14.5 -6.5t-14 -4t-17 -2t-16 -0.5h-18.5h-18.5q-43 0 -83.5 29.5t-40.5 90.5z" />
<glyph unicode="&#x4d0;" horiz-adv-x="592" d="M-14 0l336 718h142l82 -718h-134l-12 148h-217l-67 -148h-130zM237 272h150l-23 287zM295 936q0 16 1 28h54v-6q0 -34 17 -49t55 -15q40 0 61 15t36 55h53q-41 -146 -168 -146q-53 0 -81 30.5t-28 87.5z" />
<glyph unicode="&#x4d1;" d="M15 101q0 82 44 139.5t116 70.5l107 19q49 9 49 57q0 47 -62 47q-36 0 -56 -17t-32 -57h-110q23 79 55 118q56 68 167 68q74 0 114.5 -31.5t40.5 -89.5q0 -17 -3 -33l-50 -288q-5 -32 -5 -49q0 -25 16 -34l-4 -21h-124q-1 16 -1 29q0 15 2 34q-41 -42 -75.5 -59.5 t-76.5 -17.5q-53 0 -82.5 30.5t-29.5 84.5zM133 133q0 -22 12 -34.5t33 -12.5q42 0 77.5 31t42.5 74l12 68q-25 -18 -83 -29q-50 -11 -72 -33.5t-22 -63.5zM197 750q0 16 1 28h54v-6q0 -34 17 -49t55 -15q40 0 61 15t36 55h53q-41 -146 -168 -146q-53 0 -81 30.5t-28 87.5z " />
<glyph unicode="&#x4d2;" horiz-adv-x="592" d="M-14 0l336 718h142l82 -718h-134l-12 148h-217l-67 -148h-130zM237 272h150l-23 287zM277 818l20 115h103l-20 -115h-103zM437 818l20 115h103l-20 -115h-103z" />
<glyph unicode="&#x4d3;" d="M15 101q0 82 44 139.5t116 70.5l107 19q49 9 49 57q0 47 -62 47q-36 0 -56 -17t-32 -57h-110q23 79 55 118q56 68 167 68q74 0 114.5 -31.5t40.5 -89.5q0 -17 -3 -33l-50 -288q-5 -32 -5 -49q0 -25 16 -34l-4 -21h-124q-1 16 -1 29q0 15 2 34q-41 -42 -75.5 -59.5 t-76.5 -17.5q-53 0 -82.5 30.5t-29.5 84.5zM133 133q0 -22 12 -34.5t33 -12.5q42 0 77.5 31t42.5 74l12 68q-25 -18 -83 -29q-50 -11 -72 -33.5t-22 -63.5zM179 632l20 115h103l-20 -115h-103zM339 632l20 115h103l-20 -115h-103z" />
<glyph unicode="&#x4d4;" horiz-adv-x="820" d="M-26 0l340 718h558l-22 -127h-305l-26 -151h274l-22 -127h-274l-32 -186h310l-22 -127h-431l27 153h-177l-69 -153h-129zM225 271h144l56 320h-53z" />
<glyph unicode="&#x4d5;" horiz-adv-x="729" d="M16 105q0 76 38.5 129.5t102.5 66.5l112 22q46 9 56 22q13 15 13 48q0 41 -66 41q-73 0 -87 -75h-113q20 73 53 114q59 73 172 73q80 0 129 -59q41 33 72.5 46t69.5 13q76 0 117.5 -51.5t41.5 -143.5q0 -49 -9 -98l-4 -25h-300q-2 -30 -2 -40q0 -43 21 -66.5t59 -23.5 q60 0 86 58h118q-22 -49 -42.5 -76.5t-51.5 -50.5q-59 -43 -134 -43q-56 0 -87.5 19t-53.5 67q-65 -86 -181 -86q-130 0 -130 119zM134 133q0 -22 14 -34.5t37 -12.5q40 0 74.5 30.5t42.5 71.5l11 67q-18 -17 -90 -30q-49 -9 -67 -28q-22 -25 -22 -64zM434 319h178l1 25 q0 41 -19 64t-53 23q-74 0 -107 -112z" />
<glyph unicode="&#x4d6;" horiz-adv-x="547" d="M32 0l125 718h433l-22 -127h-313l-26 -151h287l-22 -127h-287l-32 -186h326l-22 -127h-447zM285 936q0 16 1 28h54v-6q0 -34 17 -49t55 -15q40 0 61 15t36 55h53q-41 -146 -168 -146q-53 0 -81 30.5t-28 87.5z" />
<glyph unicode="&#x4d7;" d="M28 179q0 126 52 225q73 142 211 142q80 0 122.5 -50t42.5 -145q0 -49 -9 -98l-4 -25h-299q-3 -22 -3 -39q0 -44 21 -67.5t59 -23.5q59 0 86 58h118q-22 -49 -42.5 -76.5t-51.5 -50.5q-58 -43 -131 -43q-84 0 -128 49.5t-44 143.5zM163 319h178l1 26q0 40 -19.5 63 t-52.5 23q-38 0 -64 -27t-43 -85zM197 750q0 16 1 28h54v-6q0 -34 17 -49t55 -15q40 0 61 15t36 55h53q-41 -146 -168 -146q-53 0 -81 30.5t-28 87.5z" />
<glyph unicode="&#x4d8;" horiz-adv-x="592" d="M58 199q0 20 1 36h124q3 -50 16 -76q24 -48 88 -48q81 0 135 83q29 45 48 117t19 141q0 74 -29 114.5t-82 40.5q-67 0 -112 -56q-22 -27 -42 -79h-123q23 64 43.5 100.5t52.5 71.5q85 93 205 93q106 0 160.5 -70.5t54.5 -189.5q0 -90 -23.5 -177.5t-66 -159 t-110.5 -115.5t-150 -44q-94 0 -151.5 60t-57.5 158z" />
<glyph unicode="&#x4d9;" d="M35 147q0 11 2 43h116q1 -45 14.5 -65.5t44.5 -20.5q43 0 74 40t43 92t12 107q0 42 -17.5 65t-48.5 23q-32 0 -58.5 -25.5t-36.5 -67.5h-117q31 101 91.5 154.5t144.5 53.5q79 0 120.5 -47.5t41.5 -136.5q0 -77 -23.5 -155t-61.5 -128q-70 -93 -179 -93q-74 0 -118 44 t-44 117z" />
<glyph unicode="&#x4da;" horiz-adv-x="592" d="M58 199q0 20 1 36h124q3 -50 16 -76q24 -48 88 -48q81 0 135 83q29 45 48 117t19 141q0 74 -29 114.5t-82 40.5q-67 0 -112 -56q-22 -27 -42 -79h-123q23 64 43.5 100.5t52.5 71.5q85 93 205 93q106 0 160.5 -70.5t54.5 -189.5q0 -90 -23.5 -177.5t-66 -159 t-110.5 -115.5t-150 -44q-94 0 -151.5 60t-57.5 158zM287 818l20 115h103l-20 -115h-103zM447 818l20 115h103l-20 -115h-103z" />
<glyph unicode="&#x4db;" d="M35 147q0 11 2 43h116q1 -45 14.5 -65.5t44.5 -20.5q43 0 74 40t43 92t12 107q0 42 -17.5 65t-48.5 23q-32 0 -58.5 -25.5t-36.5 -67.5h-117q31 101 91.5 154.5t144.5 53.5q79 0 120.5 -47.5t41.5 -136.5q0 -77 -23.5 -155t-61.5 -128q-70 -93 -179 -93q-74 0 -118 44 t-44 117zM180 632l20 115h103l-20 -115h-103zM340 632l20 115h103l-20 -115h-103z" />
<glyph unicode="&#x4dc;" horiz-adv-x="900" d="M-19 0l358 374l-218 344h159l160 -258l45 258h122l-45 -258l250 258h159l-338 -344l226 -374h-158l-170 284l-50 -284h-122l50 284l-270 -284h-158zM431 818l20 115h103l-20 -115h-103zM591 818l20 115h103l-20 -115h-103z" />
<glyph unicode="&#x4dd;" horiz-adv-x="720" d="M-18 0l257 282l-158 250h141l111 -186l33 186h114l-33 -186l177 186h141l-246 -250l157 -282h-138l-115 208l-37 -208h-115l38 208l-189 -208h-138zM308 632l20 115h103l-20 -115h-103zM468 632l20 115h103l-20 -115h-103z" />
<glyph unicode="&#x4de;" horiz-adv-x="537" d="M30 221h118q-13 -117 107 -117q57 0 92.5 24t43.5 68t-10.5 78t-76.5 34h-79l21 117h108q32 0 52 31.5t28 70.5q7 41 -17 64t-73 23q-55 0 -88 -26t-49 -83h-118q26 112 96.5 172t176.5 60q105 0 154 -60t30 -165q-17 -94 -75 -143q60 -48 41 -155q-19 -108 -94 -170.5 t-186 -62.5q-159 0 -197 117q-16 49 -5 123zM245 818l20 115h103l-20 -115h-103zM405 818l20 115h103l-20 -115h-103z" />
<glyph unicode="&#x4df;" horiz-adv-x="457" d="M25 170h118q-5 -40 14 -58.5t65 -18.5q35 0 58 15t27 40q13 74 -63 75l-46 1l16 92l37 1q77 2 89 72q4 25 -11 37.5t-49 12.5q-38 0 -58 -15t-33 -54h-113q16 55 34.5 85t49.5 52q56 39 138 39q111 0 142 -76q19 -53 7.5 -105.5t-42.5 -84.5l15 -33q14 -33 5 -81 q-14 -84 -74.5 -132t-150.5 -48q-91 0 -140 47q-25 23 -32.5 52.5t-2.5 84.5zM175 632l20 115h103l-20 -115h-103zM335 632l20 115h103l-20 -115h-103z" />
<glyph unicode="&#x4e0;" horiz-adv-x="537" d="M30 221h118q-13 -117 107 -117q57 0 92.5 24t43.5 68t-10.5 78t-76.5 34h-79l21 117h108q32 0 52 31.5t28 70.5q7 41 -17 64t-73 23q-55 0 -88 -26t-49 -83h-118q26 112 96.5 172t176.5 60q105 0 154 -60t30 -165q-17 -94 -75 -143q60 -48 41 -155q-19 -108 -94 -170.5 t-186 -62.5q-159 0 -197 117q-16 49 -5 123z" />
<glyph unicode="&#x4e1;" horiz-adv-x="457" d="M25 170h118q-5 -40 14 -58.5t65 -18.5q35 0 58 15t27 40q13 74 -63 75l-46 1l16 92l37 1q77 2 89 72q4 25 -11 37.5t-49 12.5q-38 0 -58 -15t-33 -54h-113q16 55 34.5 85t49.5 52q56 39 138 39q111 0 142 -76q19 -53 7.5 -105.5t-42.5 -84.5l15 -33q14 -33 5 -81 q-14 -84 -74.5 -132t-150.5 -48q-91 0 -140 47q-25 23 -32.5 52.5t-2.5 84.5z" />
<glyph unicode="&#x4e2;" horiz-adv-x="596" d="M28 0l126 718h114l-91 -515l334 515h122l-126 -718h-114l89 504l-325 -504h-129zM269 818l13 74h283l-13 -74h-283z" />
<glyph unicode="&#x4e3;" horiz-adv-x="503" d="M23 0l94 532h114l-61 -343l211 343h131l-94 -532h-114l60 342l-210 -342h-131zM190 632l13 74h283l-13 -74h-283z" />
<glyph unicode="&#x4e4;" horiz-adv-x="596" d="M28 0l126 718h114l-91 -515l334 515h122l-126 -718h-114l89 504l-325 -504h-129zM279 818l20 115h103l-20 -115h-103zM439 818l20 115h103l-20 -115h-103z" />
<glyph unicode="&#x4e5;" horiz-adv-x="503" d="M23 0l94 532h114l-61 -343l211 343h131l-94 -532h-114l60 342l-210 -342h-131zM200 632l20 115h103l-20 -115h-103zM360 632l20 115h103l-20 -115h-103z" />
<glyph unicode="&#x4e6;" horiz-adv-x="638" d="M58 245q0 95 30.5 196.5t77.5 162.5q48 63 114.5 98t138.5 35q96 0 161 -65t65 -198q0 -99 -29.5 -198t-77.5 -162t-114.5 -98t-138.5 -35q-105 0 -166 71t-61 193zM184 271q0 -76 33 -119.5t92 -43.5q89 0 150 98.5t61 240.5q0 76 -33 119.5t-91 43.5q-48 0 -91 -31 t-71 -86q-50 -98 -50 -222zM300 818l20 115h103l-20 -115h-103zM460 818l20 115h103l-20 -115h-103z" />
<glyph unicode="&#x4e7;" horiz-adv-x="501" d="M37 190q0 151 80.5 253.5t198.5 102.5q84 0 132.5 -54.5t48.5 -149.5q0 -67 -22 -136t-57 -116q-79 -104 -200 -104q-84 0 -132.5 54.5t-48.5 149.5zM156 209q0 -105 83 -105q69 0 105 73q33 64 33 147q0 104 -83 104q-69 0 -104 -73q-34 -66 -34 -146zM200 632l20 115 h103l-20 -115h-103zM360 632l20 115h103l-20 -115h-103z" />
<glyph unicode="&#x4e8;" horiz-adv-x="638" d="M58 245q0 95 30.5 196.5t77.5 162.5q48 63 114.5 98t138.5 35q96 0 161 -65t65 -198q0 -99 -29.5 -198t-77.5 -162t-114.5 -98t-138.5 -35q-105 0 -166 71t-61 193zM184 271q0 -76 33 -119.5t92 -43.5q89 0 150 98.5t61 240.5q0 76 -33 119.5t-91 43.5q-48 0 -91 -31 t-71 -86q-50 -98 -50 -222z" />
<glyph unicode="&#x4e9;" horiz-adv-x="501" d="M37 190q0 151 80.5 253.5t198.5 102.5q84 0 132.5 -54.5t48.5 -149.5q0 -67 -22 -136t-57 -116q-79 -104 -200 -104q-84 0 -132.5 54.5t-48.5 149.5zM156 209q0 -105 83 -105q69 0 105 73q33 64 33 147q0 104 -83 104q-69 0 -104 -73q-34 -66 -34 -146z" />
<glyph unicode="&#x4ea;" horiz-adv-x="638" d="M58 245q0 95 30.5 196.5t77.5 162.5q48 63 114.5 98t138.5 35q96 0 161 -65t65 -198q0 -99 -29.5 -198t-77.5 -162t-114.5 -98t-138.5 -35q-105 0 -166 71t-61 193zM184 271q0 -76 33 -119.5t92 -43.5q89 0 150 98.5t61 240.5q0 76 -33 119.5t-91 43.5q-48 0 -91 -31 t-71 -86q-50 -98 -50 -222zM300 818l20 115h103l-20 -115h-103zM460 818l20 115h103l-20 -115h-103z" />
<glyph unicode="&#x4eb;" horiz-adv-x="501" d="M37 190q0 151 80.5 253.5t198.5 102.5q84 0 132.5 -54.5t48.5 -149.5q0 -67 -22 -136t-57 -116q-79 -104 -200 -104q-84 0 -132.5 54.5t-48.5 149.5zM156 209q0 -105 83 -105q69 0 105 73q33 64 33 147q0 104 -83 104q-69 0 -104 -73q-34 -66 -34 -146zM200 632l20 115 h103l-20 -115h-103zM360 632l20 115h103l-20 -115h-103z" />
<glyph unicode="&#x4ec;" horiz-adv-x="606" d="M58 246h123q3 -52 14 -79q27 -56 92 -56q62 0 109.5 53t71.5 149h-211l22 127h207q2 80 -28 123.5t-87 43.5q-63 0 -106 -48q-23 -31 -42 -76h-123q21 74 59 127q94 127 238 127q126 0 181.5 -102t24.5 -278q-31 -175 -121.5 -275.5t-215.5 -100.5q-120 0 -172 93 q-35 61 -36 172zM289 818l20 115h103l-20 -115h-103zM449 818l20 115h103l-20 -115h-103z" />
<glyph unicode="&#x4ed;" horiz-adv-x="462" d="M37 194h116q-4 -42 13.5 -67.5t50.5 -25.5q74 0 107 120h-110l20 114h105q0 93 -71 93q-31 0 -52 -20.5t-38 -65.5h-116q20 71 49 110q32 45 80 69.5t102 24.5q98 0 139.5 -76t17.5 -211q-23 -131 -87.5 -202t-161.5 -71q-85 0 -127 53.5t-37 154.5zM183 632l20 115h103 l-20 -115h-103zM343 632l20 115h103l-20 -115h-103z" />
<glyph unicode="&#x4ee;" horiz-adv-x="547" d="M56 0l177 282l-125 436h145l76 -290l163 290h139l-436 -718h-139zM246 818l13 74h283l-13 -74h-283z" />
<glyph unicode="&#x4ef;" d="M4 -212l20 112q14 -2 24 -2q36 0 53.5 15.5t33.5 64.5l-64 554h128l25 -396l159 396h122l-242 -523q-32 -68 -49.5 -103t-35.5 -63.5t-35 -38t-35.5 -14t-49.5 -4.5zM164 632l13 74h283l-13 -74h-283z" />
<glyph unicode="&#x4f0;" horiz-adv-x="547" d="M56 0l177 282l-125 436h145l76 -290l163 290h139l-436 -718h-139zM256 818l20 115h103l-20 -115h-103zM416 818l20 115h103l-20 -115h-103z" />
<glyph unicode="&#x4f1;" d="M4 -212l20 112q14 -2 24 -2q36 0 53.5 15.5t33.5 64.5l-64 554h128l25 -396l159 396h122l-242 -523q-32 -68 -49.5 -103t-35.5 -63.5t-35 -38t-35.5 -14t-49.5 -4.5zM174 632l20 115h103l-20 -115h-103zM334 632l20 115h103l-20 -115h-103z" />
<glyph unicode="&#x4f2;" horiz-adv-x="547" d="M56 0l177 282l-125 436h145l76 -290l163 290h139l-436 -718h-139zM192 818l102 146h126l-145 -146h-83zM380 818l102 146h126l-146 -146h-82z" />
<glyph unicode="&#x4f3;" d="M4 -212l20 112q14 -2 24 -2q36 0 53.5 15.5t33.5 64.5l-64 554h128l25 -396l159 396h122l-242 -523q-32 -68 -49.5 -103t-35.5 -63.5t-35 -38t-35.5 -14t-49.5 -4.5zM110 632l102 146h126l-145 -146h-83zM298 632l102 146h126l-146 -146h-82z" />
<glyph unicode="&#x4f4;" horiz-adv-x="492" d="M23 386q0 21 5 51l49 281h123l-49 -277q-1 -4 -1 -11q0 -27 26.5 -43t72.5 -16q85 0 111 75l48 272h123l-126 -718h-123l51 289q-9 -10 -18 -17t-21 -11.5t-19 -7.5t-22.5 -4t-20 -1h-23h-20.5q-80 0 -123 35t-43 103zM186 797l20 115h103l-20 -115h-103zM346 797l20 115 h103l-20 -115h-103z" />
<glyph unicode="&#x4f5;" horiz-adv-x="418" d="M18 284q0 14 3 29l39 219h114l-39 -216q-3 -9 -3 -18q0 -37 66 -37q26 0 47 15t30 40l39 216h114l-94 -532h-114l32 186q-5 -5 -11.5 -9t-14.5 -6.5t-14 -4t-17 -2t-16 -0.5h-18.5h-18.5q-43 0 -83.5 29.5t-40.5 90.5zM126 606l20 115h103l-20 -115h-103zM286 606l20 115 h103l-20 -115h-103z" />
<glyph unicode="&#x4f8;" horiz-adv-x="727" d="M32 0l126 718h123l-46 -260h141q85 0 125.5 -64t21.5 -171q-18 -101 -78.5 -162t-143.5 -61h-269zM176 123h98q58 0 87.5 24t39.5 79q19 109 -73 109h-114zM348 818l20 115h103l-20 -115h-103zM508 818l20 115h103l-20 -115h-103zM517 0l126 718h123l-126 -718h-123z" />
<glyph unicode="&#x4f9;" horiz-adv-x="687" d="M23 0l94 532h112l-36 -203h77q29 0 53.5 -3t41 -7.5t31 -12.5t23 -14t16 -16t10.5 -14.5t7 -14t5 -10.5q16 -33 8 -77q-11 -66 -70 -112q-36 -28 -77.5 -38t-118.5 -10h-176zM154 106h84q48 0 74 15t32 51q6 30 -14.5 43t-64.5 13h-90zM292 632l20 115h103l-20 -115h-103 zM452 632l20 115h103l-20 -115h-103zM488 0l94 532h114l-94 -532h-114z" />
<glyph unicode="&#xe3f;" horiz-adv-x="592" d="M32 0l125 718h173l14 83h83l-15 -83h32q73 0 112.5 -37.5t39.5 -106.5q0 -130 -101 -187q36 -21 51 -48.5t15 -72.5q0 -110 -71 -189q-39 -44 -82 -60t-121 -17l-14 -83h-83l15 83h-173zM172 124h54l34 192h-55zM226 437h55l27 157h-54zM309 124h14q52 0 83 36t31 89 q0 31 -20 49t-55 18h-20zM363 437h8q47 0 75 27.5t28 73.5q0 56 -79 56h-4z" />
<glyph unicode="&#x1e0c;" horiz-adv-x="592" d="M32 0l125 718h261q92 0 140.5 -59.5t48.5 -172.5q0 -124 -40 -235t-114.5 -181t-165.5 -70h-255zM174 124h120q53 0 96.5 50t66 127t22.5 161q0 132 -104 132h-119zM179 -200l20 115h114l-20 -115h-114z" />
<glyph unicode="&#x1e0d;" horiz-adv-x="501" d="M37 180q0 152 69.5 259t168.5 107q42 0 68 -20t44 -66l45 258h115l-125 -718h-113l13 70q-58 -84 -144 -84q-67 0 -104 51t-37 143zM129 -200l20 115h114l-20 -115h-114zM157 209q0 -108 72 -108q57 0 95.5 63t38.5 157q0 104 -75 104q-57 0 -94 -66t-37 -150z" />
<glyph unicode="&#x1e0e;" horiz-adv-x="592" d="M32 0l125 718h261q92 0 140.5 -59.5t48.5 -172.5q0 -124 -40 -235t-114.5 -181t-165.5 -70h-255zM98 -180l13 74h283l-13 -74h-283zM174 124h120q53 0 96.5 50t66 127t22.5 161q0 132 -104 132h-119z" />
<glyph unicode="&#x1e0f;" horiz-adv-x="501" d="M37 180q0 152 69.5 259t168.5 107q42 0 68 -20t44 -66l45 258h115l-125 -718h-113l13 70q-58 -84 -144 -84q-67 0 -104 51t-37 143zM47 -180l13 74h283l-13 -74h-283zM157 209q0 -108 72 -108q57 0 95.5 63t38.5 157q0 104 -75 104q-57 0 -94 -66t-37 -150z" />
<glyph unicode="&#x1e24;" horiz-adv-x="592" d="M28 0l125 718h123l-47 -272h230l47 272h123l-125 -718h-123l56 322h-230l-56 -322h-123zM174 -200l20 115h114l-20 -115h-114z" />
<glyph unicode="&#x1e25;" horiz-adv-x="501" d="M23 0l125 718h115l-45 -259q50 87 145 87q57 0 90 -35.5t33 -97.5q0 -24 -4 -45l-64 -368h-115l56 323q5 30 5 45q0 28 -16 44t-44 16q-42 0 -72.5 -33t-40.5 -90l-53 -305h-115zM128 -200l20 115h114l-20 -115h-114z" />
<glyph unicode="&#x1e26;" horiz-adv-x="592" d="M28 0l125 718h123l-47 -272h230l47 272h123l-125 -718h-123l56 322h-230l-56 -322h-123zM274 794l20 115h96l-20 -115h-96zM439 794l20 115h96l-20 -115h-96z" />
<glyph unicode="&#x1e27;" horiz-adv-x="501" d="M23 0l125 718h115l-45 -259q50 87 145 87q57 0 90 -35.5t33 -97.5q0 -24 -4 -45l-64 -368h-115l56 323q5 30 5 45q0 28 -16 44t-44 16q-42 0 -72.5 -33t-40.5 -90l-53 -305h-115zM228 794l20 115h96l-20 -115h-96zM393 794l20 115h96l-20 -115h-96z" />
<glyph unicode="&#x1e2a;" horiz-adv-x="592" d="M28 0l125 718h123l-47 -272h230l47 272h123l-125 -718h-123l56 322h-230l-56 -322h-123zM103 -80h54q12 -26 30 -37.5t56 -11.5q68 0 94 49h63q-54 -126 -175 -126q-114 0 -122 126z" />
<glyph unicode="&#x1e2b;" horiz-adv-x="501" d="M23 0l125 718h115l-45 -259q50 87 145 87q57 0 90 -35.5t33 -97.5q0 -24 -4 -45l-64 -368h-115l56 323q5 30 5 45q0 28 -16 44t-44 16q-42 0 -72.5 -33t-40.5 -90l-53 -305h-115zM57 -80h54q12 -26 30 -37.5t56 -11.5q68 0 94 49h63q-54 -126 -175 -126q-114 0 -122 126z " />
<glyph unicode="&#x1e36;" horiz-adv-x="501" d="M32 0l125 718h123l-102 -588h293l-23 -130h-416zM148 -200l20 115h114l-20 -115h-114z" />
<glyph unicode="&#x1e37;" horiz-adv-x="228" d="M-8 -200l20 115h114l-20 -115h-114zM27 0l125 718h115l-125 -718h-115z" />
<glyph unicode="&#x1e38;" horiz-adv-x="501" d="M32 0l125 718h123l-102 -588h293l-23 -130h-416zM93 814l13 74h283l-13 -74h-283zM148 -200l20 115h114l-20 -115h-114z" />
<glyph unicode="&#x1e39;" horiz-adv-x="228" d="M-8 -200l20 115h114l-20 -115h-114zM27 0l125 718h115l-125 -718h-115zM84 814l13 74h283l-13 -74h-283z" />
<glyph unicode="&#x1e42;" horiz-adv-x="683" d="M27 0l125 718h187v-570l205 570h178l-125 -718h-115l106 609l-217 -609h-123v609l-106 -609h-115zM220 -200l20 115h114l-20 -115h-114z" />
<glyph unicode="&#x1e43;" horiz-adv-x="729" d="M22 0l93 532h110l-14 -81q32 51 65 73t79 22q42 0 64 -18t41 -67q35 47 65 66t70 19q55 0 88 -36t33 -97q0 -24 -4 -45l-64 -368h-115l56 323q4 28 4 41q0 64 -50 64q-37 0 -61.5 -28.5t-33.5 -80.5l-56 -319h-115l56 320q6 32 6 53q0 55 -56 55q-72 0 -90 -104l-56 -324 h-115zM243 -200l20 115h114l-20 -115h-114z" />
<glyph unicode="&#x1e44;" horiz-adv-x="592" d="M27 0l125 718h129l148 -504l87 504h115l-125 -718h-123l-152 515l-89 -515h-115zM348 794l20 115h114l-20 -115h-114z" />
<glyph unicode="&#x1e45;" horiz-adv-x="501" d="M23 0l93 532h110l-14 -81q35 51 69 73t80 22q59 0 92 -35.5t33 -97.5q0 -24 -4 -45l-64 -368h-115l56 323q5 30 5 45q0 28 -16 44t-44 16q-42 0 -72.5 -33t-40.5 -90l-53 -305h-115zM272 618l20 115h114l-20 -115h-114z" />
<glyph unicode="&#x1e46;" horiz-adv-x="592" d="M27 0l125 718h129l148 -504l87 504h115l-125 -718h-123l-152 515l-89 -515h-115zM174 -200l20 115h114l-20 -115h-114z" />
<glyph unicode="&#x1e47;" horiz-adv-x="501" d="M23 0l93 532h110l-14 -81q35 51 69 73t80 22q59 0 92 -35.5t33 -97.5q0 -24 -4 -45l-64 -368h-115l56 323q5 30 5 45q0 28 -16 44t-44 16q-42 0 -72.5 -33t-40.5 -90l-53 -305h-115zM129 -200l20 115h114l-20 -115h-114z" />
<glyph unicode="&#x1e58;" horiz-adv-x="592" d="M32 0l125 718h298q73 0 113 -41.5t40 -117.5q0 -70 -33 -129.5t-91 -85.5q29 -18 40.5 -37.5t11.5 -52.5q0 -39 -19 -146q-6 -34 -6 -57q0 -22 17 -32l-3 -19h-137l-1 27q-1 18 11 100t12 93q0 34 -18.5 47.5t-63.5 13.5h-127l-49 -281h-120zM223 402h144q58 0 86 33.5 t28 89.5q0 69 -72 69h-153zM329 794l20 115h114l-20 -115h-114z" />
<glyph unicode="&#x1e59;" horiz-adv-x="319" d="M22 0l93 532h110l-17 -95q40 63 69.5 86t71.5 23q2 0 4.5 -0.5t7.5 -1t10 -0.5l-25 -142q-11 2 -29 2q-110 0 -132 -127l-48 -277h-115zM188 618l20 115h114l-20 -115h-114z" />
<glyph unicode="&#x1e5a;" horiz-adv-x="592" d="M32 0l125 718h298q73 0 113 -41.5t40 -117.5q0 -70 -33 -129.5t-91 -85.5q29 -18 40.5 -37.5t11.5 -52.5q0 -39 -19 -146q-6 -34 -6 -57q0 -22 17 -32l-3 -19h-137l-1 27q-1 18 11 100t12 93q0 34 -18.5 47.5t-63.5 13.5h-127l-49 -281h-120zM155 -200l20 115h114 l-20 -115h-114zM223 402h144q58 0 86 33.5t28 89.5q0 69 -72 69h-153z" />
<glyph unicode="&#x1e5b;" horiz-adv-x="319" d="M-12 -200l20 115h114l-20 -115h-114zM22 0l93 532h110l-17 -95q40 63 69.5 86t71.5 23q2 0 4.5 -0.5t7.5 -1t10 -0.5l-25 -142q-11 2 -29 2q-110 0 -132 -127l-48 -277h-115z" />
<glyph unicode="&#x1e5c;" horiz-adv-x="592" d="M32 0l125 718h298q73 0 113 -41.5t40 -117.5q0 -70 -33 -129.5t-91 -85.5q29 -18 40.5 -37.5t11.5 -52.5q0 -39 -19 -146q-6 -34 -6 -57q0 -22 17 -32l-3 -19h-137l-1 27q-1 18 11 100t12 93q0 34 -18.5 47.5t-63.5 13.5h-127l-49 -281h-120zM155 -200l20 115h114 l-20 -115h-114zM223 402h144q58 0 86 33.5t28 89.5q0 69 -72 69h-153zM247 814l13 74h283l-13 -74h-283z" />
<glyph unicode="&#x1e5d;" horiz-adv-x="319" d="M-12 -200l20 115h114l-20 -115h-114zM22 0l93 532h110l-17 -95q40 63 69.5 86t71.5 23q2 0 4.5 -0.5t7.5 -1t10 -0.5l-25 -142q-11 2 -29 2q-110 0 -132 -127l-48 -277h-115zM108 652l13 74h283l-13 -74h-283z" />
<glyph unicode="&#x1e62;" horiz-adv-x="547" d="M36 162q0 19 5 59h118q-2 -22 -2 -27q0 -43 28.5 -66t80.5 -23q62 0 99.5 29.5t37.5 78.5q0 26 -20 42t-72 32l-60 18q-95 28 -125 61t-30 97q0 117 74.5 195.5t191.5 78.5q94 0 145 -50t51 -131q0 -23 -4 -51h-117v21q0 42 -26 64.5t-74 22.5q-54 0 -87.5 -29t-33.5 -75 q0 -23 11.5 -35.5t39.5 -21.5l136 -43q66 -21 95 -55.5t29 -91.5q0 -121 -79.5 -201t-204.5 -80q-97 0 -152 49t-55 132zM148 -200l20 115h114l-20 -115h-114z" />
<glyph unicode="&#x1e63;" d="M22 129q0 11 2 41h118q-1 -8 -1 -20q0 -58 80 -58q38 0 62.5 17.5t24.5 44.5q0 35 -86 52q-151 28 -151 129q0 94 62 152.5t154 58.5q162 0 162 -142q0 -20 -1 -34h-113v18q0 52 -67 52q-35 0 -56.5 -16t-21.5 -42q0 -34 85 -51q154 -31 154 -131q0 -91 -64 -152.5 t-165 -61.5q-83 0 -130.5 38t-47.5 105zM106 -200l20 115h114l-20 -115h-114z" />
<glyph unicode="&#x1e6c;" horiz-adv-x="501" d="M84 591l22 127h479l-22 -127h-178l-103 -591h-123l103 591h-178zM129 -200l20 115h114l-20 -115h-114z" />
<glyph unicode="&#x1e6d;" horiz-adv-x="273" d="M52 68q0 22 4 41l56 323h-59l17 100h60l25 144h115l-25 -144h71l-17 -100h-72l-50 -289q-3 -14 -3 -23q0 -20 42 -20q1 0 25 2l-19 -106l-69 -2q-52 0 -76.5 18t-24.5 56zM62 -200l20 115h114l-20 -115h-114z" />
<glyph unicode="&#x1e6e;" horiz-adv-x="501" d="M48 -180l13 74h283l-13 -74h-283zM84 591l22 127h479l-22 -127h-178l-103 -591h-123l103 591h-178z" />
<glyph unicode="&#x1e6f;" horiz-adv-x="273" d="M-19 -180l13 74h283l-13 -74h-283zM52 68q0 22 4 41l56 323h-59l17 100h60l25 144h115l-25 -144h71l-17 -100h-72l-50 -289q-3 -14 -3 -23q0 -20 42 -20q1 0 25 2l-19 -106l-69 -2q-52 0 -76.5 18t-24.5 56z" />
<glyph unicode="&#x1e80;" horiz-adv-x="774" d="M108 0v718h133v-531l175 531h127v-531l189 531h125l-291 -718h-111v565l-191 -565h-156zM352 914h126l55 -126h-83z" />
<glyph unicode="&#x1e81;" horiz-adv-x="638" d="M71 0v532h124v-387l129 387h116v-387l135 387h118l-218 -532h-118v393l-138 -393h-148zM258 748h126l52 -146h-83z" />
<glyph unicode="&#x1e82;" horiz-adv-x="774" d="M108 0v718h133v-531l175 531h127v-531l189 531h125l-291 -718h-111v565l-191 -565h-156zM449 788l100 126h126l-143 -126h-83z" />
<glyph unicode="&#x1e83;" horiz-adv-x="638" d="M71 0v532h124v-387l129 387h116v-387l135 387h118l-218 -532h-118v393l-138 -393h-148zM352 602l103 146h126l-146 -146h-83z" />
<glyph unicode="&#x1e84;" horiz-adv-x="774" d="M108 0v718h133v-531l175 531h127v-531l189 531h125l-291 -718h-111v565l-191 -565h-156zM362 794l20 115h96l-20 -115h-96zM527 794l20 115h96l-20 -115h-96z" />
<glyph unicode="&#x1e85;" horiz-adv-x="638" d="M71 0v532h124v-387l129 387h116v-387l135 387h118l-218 -532h-118v393l-138 -393h-148zM266 618l20 115h96l-20 -115h-96zM431 618l20 115h96l-20 -115h-96z" />
<glyph unicode="&#x1e92;" horiz-adv-x="501" d="M-10 0l22 127l386 464h-297l22 127h451l-21 -118l-391 -473h311l-23 -127h-460zM131 -200l20 115h114l-20 -115h-114z" />
<glyph unicode="&#x1e93;" horiz-adv-x="410" d="M-14 0l19 109l278 311h-208l19 112h354l-20 -115l-273 -302h229l-21 -115h-377zM83 -200l20 115h114l-20 -115h-114z" />
<glyph unicode="&#x1e97;" horiz-adv-x="273" d="M52 68q0 22 4 41l56 323h-59l17 100h60l25 144h115l-25 -144h71l-17 -100h-72l-50 -289q-3 -14 -3 -23q0 -20 42 -20q1 0 25 2l-19 -106l-69 -2q-52 0 -76.5 18t-24.5 56zM95 752l20 115h96l-20 -115h-96zM260 752l20 115h96l-20 -115h-96z" />
<glyph unicode="&#x1ea0;" horiz-adv-x="592" d="M-14 0l336 718h142l82 -718h-134l-12 148h-217l-67 -148h-130zM174 -200l20 115h114l-20 -115h-114zM237 272h150l-23 287z" />
<glyph unicode="&#x1ea1;" d="M15 101q0 82 44 139.5t116 70.5l107 19q49 9 49 57q0 47 -62 47q-36 0 -56 -17t-32 -57h-110q29 102 80 144t142 42q74 0 114.5 -31.5t40.5 -89.5q0 -17 -3 -33l-50 -288q-5 -32 -5 -49q0 -25 16 -34l-4 -21h-124q-1 16 -1 29q0 15 2 34q-41 -42 -75.5 -59.5t-76.5 -17.5 q-53 0 -82.5 30.5t-29.5 84.5zM106 -200l20 115h114l-20 -115h-114zM133 133q0 -22 12 -34.5t33 -12.5q42 0 77.5 31t42.5 74l12 68q-22 -17 -83 -29q-49 -10 -71.5 -33t-22.5 -64z" />
<glyph unicode="&#x1ea2;" horiz-adv-x="592" d="M-14 0l336 718h142l82 -718h-134l-12 148h-217l-67 -148h-130zM237 272h150l-23 287zM307 859q17 92 132 92q51 0 77.5 -18.5t20.5 -50.5q-3 -19 -16 -32t-44 -30q-25 -14 -32 -19.5t-9 -12.5l-4 -24h-62l5 27q3 18 16 30t47 28v-1q36 21 37 34q2 11 -10.5 18t-35.5 7 q-32 0 -43.5 -9.5t-17.5 -38.5h-61z" />
<glyph unicode="&#x1ea3;" d="M15 101q0 82 44 139.5t116 70.5l107 19q49 9 49 57q0 47 -62 47q-36 0 -56 -17t-32 -57h-110q29 102 80 144t142 42q74 0 114.5 -31.5t40.5 -89.5q0 -17 -3 -33l-50 -288q-5 -32 -5 -49q0 -25 16 -34l-4 -21h-124q-1 16 -1 29q0 15 2 34q-41 -42 -75.5 -59.5t-76.5 -17.5 q-53 0 -82.5 30.5t-29.5 84.5zM133 133q0 -22 12 -34.5t33 -12.5q42 0 77.5 31t42.5 74l12 68q-22 -17 -83 -29q-49 -10 -71.5 -33t-22.5 -64zM205 673q17 92 132 92q51 0 77.5 -18.5t20.5 -50.5q-3 -19 -16 -32t-44 -30q-25 -14 -32 -19.5t-9 -12.5l-4 -24h-62l5 27 q3 18 16 30t47 28v-1q36 21 37 34q2 11 -10.5 18t-35.5 7q-32 0 -43.5 -9.5t-17.5 -38.5h-61z" />
<glyph unicode="&#x1ea4;" horiz-adv-x="592" d="M-14 0l336 718h142l82 -718h-134l-12 148h-217l-67 -148h-130zM237 272h150l-23 287zM251 788l125 126h103l81 -126h-93l-51 62l-72 -62h-93zM389 934l100 126h126l-143 -126h-83z" />
<glyph unicode="&#x1ea5;" d="M15 101q0 82 44 139.5t116 70.5l107 19q49 9 49 57q0 47 -62 47q-36 0 -56 -17t-32 -57h-110q29 102 80 144t142 42q74 0 114.5 -31.5t40.5 -89.5q0 -17 -3 -33l-50 -288q-5 -32 -5 -49q0 -25 16 -34l-4 -21h-124q-1 16 -1 29q0 15 2 34q-41 -42 -75.5 -59.5t-76.5 -17.5 q-53 0 -82.5 30.5t-29.5 84.5zM133 133q0 -22 12 -34.5t33 -12.5q42 0 77.5 31t42.5 74l12 68q-22 -17 -83 -29q-49 -10 -71.5 -33t-22.5 -64zM148 602l125 126h103l81 -126h-93l-51 62l-72 -62h-93zM286 748l100 126h126l-143 -126h-83z" />
<glyph unicode="&#x1ea6;" horiz-adv-x="592" d="M-14 0l336 718h142l82 -718h-134l-12 148h-217l-67 -148h-130zM237 272h150l-23 287zM251 788l125 126h103l81 -126h-93l-51 62l-72 -62h-93zM291 1060h126l56 -126h-83z" />
<glyph unicode="&#x1ea7;" d="M15 101q0 82 44 139.5t116 70.5l107 19q49 9 49 57q0 47 -62 47q-36 0 -56 -17t-32 -57h-110q29 102 80 144t142 42q74 0 114.5 -31.5t40.5 -89.5q0 -17 -3 -33l-50 -288q-5 -32 -5 -49q0 -25 16 -34l-4 -21h-124q-1 16 -1 29q0 15 2 34q-41 -42 -75.5 -59.5t-76.5 -17.5 q-53 0 -82.5 30.5t-29.5 84.5zM133 133q0 -22 12 -34.5t33 -12.5q42 0 77.5 31t42.5 74l12 68q-22 -17 -83 -29q-49 -10 -71.5 -33t-22.5 -64zM148 602l125 126h103l81 -126h-93l-51 62l-72 -62h-93zM188 874h126l56 -126h-83z" />
<glyph unicode="&#x1ea8;" horiz-adv-x="592" d="M-14 0l336 718h142l82 -718h-134l-12 148h-217l-67 -148h-130zM237 272h150l-23 287zM251 788l125 126h103l81 -126h-93l-51 62l-72 -62h-93zM374 1020q15 82 131 82q51 0 77.5 -17t21.5 -45q-3 -17 -15.5 -29t-44.5 -27q-38 -18 -40 -28l-3 -22h-62l4 24q3 17 16 27.5 t46 25.5v-1q35 18 37 30q2 10 -11 16.5t-36 6.5q-34 0 -47 -13v1q-9 -9 -13 -31h-61z" />
<glyph unicode="&#x1ea9;" d="M15 101q0 82 44 139.5t116 70.5l107 19q49 9 49 57q0 47 -62 47q-36 0 -56 -17t-32 -57h-110q29 102 80 144t142 42q74 0 114.5 -31.5t40.5 -89.5q0 -17 -3 -33l-50 -288q-5 -32 -5 -49q0 -25 16 -34l-4 -21h-124q-1 16 -1 29q0 15 2 34q-41 -42 -75.5 -59.5t-76.5 -17.5 q-53 0 -82.5 30.5t-29.5 84.5zM133 133q0 -22 12 -34.5t33 -12.5q42 0 77.5 31t42.5 74l12 68q-22 -17 -83 -29q-49 -10 -71.5 -33t-22.5 -64zM148 602l125 126h103l81 -126h-93l-51 62l-72 -62h-93zM271 834q15 82 131 82q51 0 77.5 -17t21.5 -45q-3 -17 -15.5 -29 t-44.5 -27q-38 -18 -40 -28l-3 -22h-62l4 24q3 17 16 27.5t46 25.5v-1q35 18 37 30q2 10 -11 16.5t-36 6.5q-34 0 -47 -13v1q-9 -9 -13 -31h-61z" />
<glyph unicode="&#x1eaa;" horiz-adv-x="592" d="M-14 0l336 718h142l82 -718h-134l-12 148h-217l-67 -148h-130zM237 272h150l-23 287zM251 788l125 126h103l81 -126h-93l-51 62l-72 -62h-93zM282 944q23 64 51.5 93.5t68.5 29.5q7 0 52.5 -18t51.5 -18q30 0 46 40h53q-41 -120 -110 -120q-9 0 -57 18t-58 18 q-29 0 -46 -43h-52z" />
<glyph unicode="&#x1eab;" d="M15 101q0 82 44 139.5t116 70.5l107 19q49 9 49 57q0 47 -62 47q-36 0 -56 -17t-32 -57h-110q29 102 80 144t142 42q74 0 114.5 -31.5t40.5 -89.5q0 -17 -3 -33l-50 -288q-5 -32 -5 -49q0 -25 16 -34l-4 -21h-124q-1 16 -1 29q0 15 2 34q-41 -42 -75.5 -59.5t-76.5 -17.5 q-53 0 -82.5 30.5t-29.5 84.5zM133 133q0 -22 12 -34.5t33 -12.5q42 0 77.5 31t42.5 74l12 68q-22 -17 -83 -29q-49 -10 -71.5 -33t-22.5 -64zM148 602l125 126h103l81 -126h-93l-51 62l-72 -62h-93zM179 758q23 64 51.5 93.5t68.5 29.5q7 0 52.5 -18t51.5 -18q30 0 46 40 h53q-40 -120 -110 -120q-9 0 -57 18t-58 18q-29 0 -46 -43h-52z" />
<glyph unicode="&#x1eac;" horiz-adv-x="592" d="M-14 0l336 718h142l82 -718h-134l-12 148h-217l-67 -148h-130zM174 -200l20 115h114l-20 -115h-114zM237 272h150l-23 287zM250 788l125 126h103l81 -126h-93l-51 62l-72 -62h-93z" />
<glyph unicode="&#x1ead;" d="M15 101q0 82 44 139.5t116 70.5l107 19q49 9 49 57q0 47 -62 47q-36 0 -56 -17t-32 -57h-110q29 102 80 144t142 42q74 0 114.5 -31.5t40.5 -89.5q0 -17 -3 -33l-50 -288q-5 -32 -5 -49q0 -25 16 -34l-4 -21h-124q-1 16 -1 29q0 15 2 34q-41 -42 -75.5 -59.5t-76.5 -17.5 q-53 0 -82.5 30.5t-29.5 84.5zM106 -200l20 115h114l-20 -115h-114zM133 133q0 -22 12 -34.5t33 -12.5q42 0 77.5 31t42.5 74l12 68q-22 -17 -83 -29q-49 -10 -71.5 -33t-22.5 -64zM158 602l119 146h103l68 -146h-93l-38 82l-66 -82h-93z" />
<glyph unicode="&#x1eae;" horiz-adv-x="592" d="M-14 0l336 718h142l82 -718h-134l-12 148h-217l-67 -148h-130zM237 272h150l-23 287zM279 914h54q11 -25 30 -37t57 -12t59 12t34 37h63q-54 -126 -175 -126q-114 0 -122 126zM391 943l99 126h126l-142 -126h-83z" />
<glyph unicode="&#x1eaf;" d="M15 101q0 82 44 139.5t116 70.5l107 19q49 9 49 57q0 47 -62 47q-36 0 -56 -17t-32 -57h-110q29 102 80 144t142 42q74 0 114.5 -31.5t40.5 -89.5q0 -17 -3 -33l-50 -288q-5 -32 -5 -49q0 -25 16 -34l-4 -21h-124q-1 16 -1 29q0 15 2 34q-41 -42 -75.5 -59.5t-76.5 -17.5 q-53 0 -82.5 30.5t-29.5 84.5zM133 133q0 -22 12 -34.5t33 -12.5q42 0 77.5 31t42.5 74l12 68q-22 -17 -83 -29q-49 -10 -71.5 -33t-22.5 -64zM176 728h54q11 -25 30 -37t57 -12t59 12t34 37h63q-54 -126 -175 -126q-114 0 -122 126zM288 757l99 126h126l-142 -126h-83z" />
<glyph unicode="&#x1eb0;" horiz-adv-x="592" d="M-14 0l336 718h142l82 -718h-134l-12 148h-217l-67 -148h-130zM237 272h150l-23 287zM279 914h54q11 -25 30 -37t57 -12t59 12t34 37h63q-54 -126 -175 -126q-114 0 -122 126zM293 1069h126l55 -126h-83z" />
<glyph unicode="&#x1eb1;" d="M15 101q0 82 44 139.5t116 70.5l107 19q49 9 49 57q0 47 -62 47q-36 0 -56 -17t-32 -57h-110q29 102 80 144t142 42q74 0 114.5 -31.5t40.5 -89.5q0 -17 -3 -33l-50 -288q-5 -32 -5 -49q0 -25 16 -34l-4 -21h-124q-1 16 -1 29q0 15 2 34q-41 -42 -75.5 -59.5t-76.5 -17.5 q-53 0 -82.5 30.5t-29.5 84.5zM133 133q0 -22 12 -34.5t33 -12.5q42 0 77.5 31t42.5 74l12 68q-22 -17 -83 -29q-49 -10 -71.5 -33t-22.5 -64zM176 728h54q11 -25 30 -37t57 -12t59 12t34 37h63q-54 -126 -175 -126q-114 0 -122 126zM190 883h126l55 -126h-83z" />
<glyph unicode="&#x1eb2;" horiz-adv-x="592" d="M-14 0l336 718h142l82 -718h-134l-12 148h-217l-67 -148h-130zM237 272h150l-23 287zM279 914h54q11 -25 30 -37t57 -12t59 12t34 37h63q-54 -126 -175 -126q-114 0 -122 126zM328 990q14 82 130 82q51 0 77.5 -17t21.5 -45q-3 -17 -15.5 -29t-44.5 -27q-38 -19 -39 -28 l-4 -22h-62l4 24q3 17 16 27.5t46 25.5v-1q35 18 37 30q2 10 -11 16.5t-36 6.5q-34 0 -47 -13v1q-8 -8 -12 -31h-61z" />
<glyph unicode="&#x1eb3;" d="M15 101q0 82 44 139.5t116 70.5l107 19q49 9 49 57q0 47 -62 47q-36 0 -56 -17t-32 -57h-110q29 102 80 144t142 42q74 0 114.5 -31.5t40.5 -89.5q0 -17 -3 -33l-50 -288q-5 -32 -5 -49q0 -25 16 -34l-4 -21h-124q-1 16 -1 29q0 15 2 34q-41 -42 -75.5 -59.5t-76.5 -17.5 q-53 0 -82.5 30.5t-29.5 84.5zM133 133q0 -22 12 -34.5t33 -12.5q42 0 77.5 31t42.5 74l12 68q-22 -17 -83 -29q-49 -10 -71.5 -33t-22.5 -64zM176 728h54q11 -25 30 -37t57 -12t59 12t34 37h63q-54 -126 -175 -126q-114 0 -122 126zM225 804q14 82 130 82q51 0 77.5 -17 t21.5 -45q-3 -17 -15.5 -29t-44.5 -27q-38 -19 -39 -28l-4 -22h-62l4 24q3 17 16 27.5t46 25.5v-1q35 18 37 30q2 10 -11 16.5t-36 6.5q-34 0 -47 -13v1q-8 -8 -12 -31h-61z" />
<glyph unicode="&#x1eb4;" horiz-adv-x="592" d="M-14 0l336 718h142l82 -718h-134l-12 148h-217l-67 -148h-130zM237 272h150l-23 287zM279 914h54q11 -25 30 -37t57 -12t59 12t34 37h63q-54 -126 -175 -126q-114 0 -122 126zM283 952q23 64 51.5 93.5t68.5 29.5q7 0 52.5 -18t51.5 -18q30 0 46 40h53 q-40 -120 -110 -120q-9 0 -57 18t-58 18q-29 0 -46 -43h-52z" />
<glyph unicode="&#x1eb5;" d="M15 101q0 82 44 139.5t116 70.5l107 19q49 9 49 57q0 47 -62 47q-36 0 -56 -17t-32 -57h-110q29 102 80 144t142 42q74 0 114.5 -31.5t40.5 -89.5q0 -17 -3 -33l-50 -288q-5 -32 -5 -49q0 -25 16 -34l-4 -21h-124q-1 16 -1 29q0 15 2 34q-41 -42 -75.5 -59.5t-76.5 -17.5 q-53 0 -82.5 30.5t-29.5 84.5zM133 133q0 -22 12 -34.5t33 -12.5q42 0 77.5 31t42.5 74l12 68q-22 -17 -83 -29q-49 -10 -71.5 -33t-22.5 -64zM176 728h54q11 -25 30 -37t57 -12t59 12t34 37h63q-54 -126 -175 -126q-114 0 -122 126zM180 766q23 64 51.5 93.5t68.5 29.5 q7 0 52.5 -18t51.5 -18q30 0 46 40h53q-41 -120 -110 -120q-9 0 -57 18t-58 18q-29 0 -46 -43h-52z" />
<glyph unicode="&#x1eb6;" horiz-adv-x="592" d="M-14 0l336 718h142l82 -718h-134l-12 148h-217l-67 -148h-130zM174 -200l20 115h114l-20 -115h-114zM237 272h150l-23 287zM278 914h54q11 -25 30 -37t57 -12t59 12t34 37h63q-54 -126 -175 -126q-114 0 -122 126z" />
<glyph unicode="&#x1eb7;" d="M15 101q0 82 44 139.5t116 70.5l107 19q49 9 49 57q0 47 -62 47q-36 0 -56 -17t-32 -57h-110q29 102 80 144t142 42q74 0 114.5 -31.5t40.5 -89.5q0 -17 -3 -33l-50 -288q-5 -32 -5 -49q0 -25 16 -34l-4 -21h-124q-1 16 -1 29q0 15 2 34q-41 -42 -75.5 -59.5t-76.5 -17.5 q-53 0 -82.5 30.5t-29.5 84.5zM106 -200l20 115h114l-20 -115h-114zM133 133q0 -22 12 -34.5t33 -12.5q42 0 77.5 31t42.5 74l12 68q-22 -17 -83 -29q-49 -10 -71.5 -33t-22.5 -64zM189 720q0 16 1 28h54v-6q0 -34 17 -49t55 -15q40 0 61 15t36 55h53q-41 -146 -168 -146 q-53 0 -81 30.5t-28 87.5z" />
<glyph unicode="&#x1eb8;" horiz-adv-x="547" d="M32 0l125 718h433l-22 -127h-313l-26 -151h287l-22 -127h-287l-32 -186h326l-22 -127h-447zM152 -200l20 115h114l-20 -115h-114z" />
<glyph unicode="&#x1eb9;" d="M28 179q0 157 75 262t188 105q80 0 122.5 -50t42.5 -145q0 -39 -9 -98l-4 -25h-299q-3 -22 -3 -39q0 -44 21 -67.5t59 -23.5q59 0 86 58h118q-77 -170 -225 -170q-84 0 -128 49.5t-44 143.5zM106 -200l20 115h114l-20 -115h-114zM163 319h178l1 26q1 39 -19.5 62.5 t-52.5 23.5q-38 0 -64 -27t-43 -85z" />
<glyph unicode="&#x1eba;" horiz-adv-x="547" d="M32 0l125 718h433l-22 -127h-313l-26 -151h287l-22 -127h-287l-32 -186h326l-22 -127h-447zM287 859q17 92 132 92q51 0 77.5 -18.5t20.5 -50.5q-3 -19 -16 -32t-44 -30q-25 -14 -32 -19.5t-9 -12.5l-4 -24h-62l5 27q3 18 16 30t47 28v-1q36 21 37 34q2 11 -10.5 18 t-35.5 7q-32 0 -43.5 -9.5t-17.5 -38.5h-61z" />
<glyph unicode="&#x1ebb;" d="M28 179q0 157 75 262t188 105q80 0 122.5 -50t42.5 -145q0 -39 -9 -98l-4 -25h-299q-3 -22 -3 -39q0 -44 21 -67.5t59 -23.5q59 0 86 58h118q-77 -170 -225 -170q-84 0 -128 49.5t-44 143.5zM163 319h178l1 26q1 39 -19.5 62.5t-52.5 23.5q-38 0 -64 -27t-43 -85z M205 673q17 92 132 92q51 0 77.5 -18.5t20.5 -50.5q-3 -19 -16 -32t-44 -30q-25 -14 -32 -19.5t-9 -12.5l-4 -24h-62l5 27q3 18 16 30t47 28v-1q36 21 37 34q2 11 -10.5 18t-35.5 7q-32 0 -43.5 -9.5t-17.5 -38.5h-61z" />
<glyph unicode="&#x1ebc;" horiz-adv-x="547" d="M32 0l125 718h433l-22 -127h-313l-26 -151h287l-22 -127h-287l-32 -186h326l-22 -127h-447zM235 788q23 64 51.5 93.5t68.5 29.5q7 0 52.5 -18t51.5 -18q30 0 46 40h53q-40 -120 -110 -120q-9 0 -57 18t-58 18q-29 0 -46 -43h-52z" />
<glyph unicode="&#x1ebd;" d="M28 179q0 157 75 262t188 105q80 0 122.5 -50t42.5 -145q0 -39 -9 -98l-4 -25h-299q-3 -22 -3 -39q0 -44 21 -67.5t59 -23.5q59 0 86 58h118q-77 -170 -225 -170q-84 0 -128 49.5t-44 143.5zM153 612q23 64 51.5 93.5t68.5 29.5q7 0 52.5 -18t51.5 -18q30 0 46 40h53 q-41 -120 -110 -120q-9 0 -57 18t-58 18q-29 0 -46 -43h-52zM163 319h178l1 26q1 39 -19.5 62.5t-52.5 23.5q-38 0 -64 -27t-43 -85z" />
<glyph unicode="&#x1ebe;" horiz-adv-x="547" d="M32 0l125 718h433l-22 -127h-313l-26 -151h287l-22 -127h-287l-32 -186h326l-22 -127h-447zM231 788l125 126h103l81 -126h-93l-51 62l-72 -62h-93zM369 934l100 126h126l-143 -126h-83z" />
<glyph unicode="&#x1ebf;" d="M28 179q0 157 75 262t188 105q80 0 122.5 -50t42.5 -145q0 -39 -9 -98l-4 -25h-299q-3 -22 -3 -39q0 -44 21 -67.5t59 -23.5q59 0 86 58h118q-77 -170 -225 -170q-84 0 -128 49.5t-44 143.5zM149 602l125 126h103l81 -126h-93l-51 62l-72 -62h-93zM163 319h178l1 26 q1 39 -19.5 62.5t-52.5 23.5q-38 0 -64 -27t-43 -85zM287 748l100 126h126l-143 -126h-83z" />
<glyph unicode="&#x1ec0;" horiz-adv-x="547" d="M32 0l125 718h433l-22 -127h-313l-26 -151h287l-22 -127h-287l-32 -186h326l-22 -127h-447zM231 788l125 126h103l81 -126h-93l-51 62l-72 -62h-93zM271 1060h126l56 -126h-83z" />
<glyph unicode="&#x1ec1;" d="M28 179q0 157 75 262t188 105q80 0 122.5 -50t42.5 -145q0 -39 -9 -98l-4 -25h-299q-3 -22 -3 -39q0 -44 21 -67.5t59 -23.5q59 0 86 58h118q-77 -170 -225 -170q-84 0 -128 49.5t-44 143.5zM149 602l125 126h103l81 -126h-93l-51 62l-72 -62h-93zM163 319h178l1 26 q1 39 -19.5 62.5t-52.5 23.5q-38 0 -64 -27t-43 -85zM189 874h126l56 -126h-83z" />
<glyph unicode="&#x1ec2;" horiz-adv-x="547" d="M32 0l125 718h433l-22 -127h-313l-26 -151h287l-22 -127h-287l-32 -186h326l-22 -127h-447zM231 788l125 126h103l81 -126h-93l-51 62l-72 -62h-93zM354 1020q15 82 131 82q51 0 77.5 -17t21.5 -45q-3 -17 -15.5 -29t-44.5 -27q-38 -18 -40 -28l-3 -22h-62l4 24 q3 17 16 27.5t46 25.5v-1q35 18 37 30q2 10 -11 16.5t-36 6.5q-34 0 -47 -13v1q-9 -9 -13 -31h-61z" />
<glyph unicode="&#x1ec3;" d="M28 179q0 157 75 262t188 105q80 0 122.5 -50t42.5 -145q0 -39 -9 -98l-4 -25h-299q-3 -22 -3 -39q0 -44 21 -67.5t59 -23.5q59 0 86 58h118q-77 -170 -225 -170q-84 0 -128 49.5t-44 143.5zM149 602l125 126h103l81 -126h-93l-51 62l-72 -62h-93zM163 319h178l1 26 q1 39 -19.5 62.5t-52.5 23.5q-38 0 -64 -27t-43 -85zM272 834q15 82 131 82q51 0 77.5 -17t21.5 -45q-3 -17 -15.5 -29t-44.5 -27q-38 -18 -40 -28l-3 -22h-62l4 24q3 17 16 27.5t46 25.5v-1q35 18 37 30q2 10 -11 16.5t-36 6.5q-34 0 -47 -13v1q-9 -9 -13 -31h-61z" />
<glyph unicode="&#x1ec4;" horiz-adv-x="547" d="M32 0l125 718h433l-22 -127h-313l-26 -151h287l-22 -127h-287l-32 -186h326l-22 -127h-447zM231 788l125 126h103l81 -126h-93l-51 62l-72 -62h-93zM262 944q23 64 51.5 93.5t68.5 29.5q7 0 52.5 -18t51.5 -18q30 0 46 40h53q-41 -120 -110 -120q-9 0 -57 18t-58 18 q-29 0 -46 -43h-52z" />
<glyph unicode="&#x1ec5;" d="M28 179q0 157 75 262t188 105q80 0 122.5 -50t42.5 -145q0 -39 -9 -98l-4 -25h-299q-3 -22 -3 -39q0 -44 21 -67.5t59 -23.5q59 0 86 58h118q-77 -170 -225 -170q-84 0 -128 49.5t-44 143.5zM149 602l125 126h103l81 -126h-93l-51 62l-72 -62h-93zM163 319h178l1 26 q1 39 -19.5 62.5t-52.5 23.5q-38 0 -64 -27t-43 -85zM180 758q23 64 51.5 93.5t68.5 29.5q7 0 52.5 -18t51.5 -18q30 0 46 40h53q-41 -120 -110 -120q-9 0 -57 18t-58 18q-29 0 -46 -43h-52z" />
<glyph unicode="&#x1ec6;" horiz-adv-x="547" d="M32 0l125 718h433l-22 -127h-313l-26 -151h287l-22 -127h-287l-32 -186h326l-22 -127h-447zM152 -200l20 115h114l-20 -115h-114zM230 788l125 126h103l81 -126h-93l-51 62l-72 -62h-93z" />
<glyph unicode="&#x1ec7;" d="M28 179q0 157 75 262t188 105q80 0 122.5 -50t42.5 -145q0 -39 -9 -98l-4 -25h-299q-3 -22 -3 -39q0 -44 21 -67.5t59 -23.5q59 0 86 58h118q-77 -170 -225 -170q-84 0 -128 49.5t-44 143.5zM106 -200l20 115h114l-20 -115h-114zM158 602l119 146h103l68 -146h-93l-38 82 l-66 -82h-93zM163 319h178l1 26q1 39 -19.5 62.5t-52.5 23.5q-38 0 -64 -27t-43 -85z" />
<glyph unicode="&#x1ec8;" horiz-adv-x="228" d="M22 0l126 718h123l-126 -718h-123zM123 859q17 92 132 92q51 0 77.5 -18.5t20.5 -50.5q-3 -19 -16 -32t-44 -30q-25 -14 -32 -19.5t-9 -12.5l-4 -24h-62l5 27q3 18 16 30t47 28v-1q36 21 37 34q2 11 -10.5 18t-35.5 7q-32 0 -43.5 -9.5t-17.5 -38.5h-61z" />
<glyph unicode="&#x1ec9;" horiz-adv-x="228" d="M27 0l93 532h114l-93 -532h-114zM91 673q17 92 132 92q51 0 77.5 -18.5t20.5 -50.5q-3 -19 -16 -32t-44 -30q-25 -14 -32 -19.5t-9 -12.5l-4 -24h-62l5 27q3 18 16 30t47 28v-1q36 21 37 34q2 11 -10.5 18t-35.5 7q-32 0 -43.5 -9.5t-17.5 -38.5h-61z" />
<glyph unicode="&#x1eca;" horiz-adv-x="228" d="M-8 -200l20 115h114l-20 -115h-114zM22 0l126 718h123l-126 -718h-123z" />
<glyph unicode="&#x1ecb;" horiz-adv-x="228" d="M-8 -200l20 115h114l-20 -115h-114zM27 0l93 532h114l-93 -532h-114zM135 618l20 115h114l-20 -115h-114z" />
<glyph unicode="&#x1ecc;" horiz-adv-x="638" d="M58 245q0 136 47 249t130 178t184 65q99 0 162.5 -68t63.5 -195q0 -210 -103 -351.5t-257 -141.5q-105 0 -166 71t-61 193zM184 271q0 -76 33 -119.5t92 -43.5q89 0 150 98.5t61 240.5q0 76 -33 119.5t-91 43.5q-91 0 -151.5 -101t-60.5 -238zM198 -200l20 115h114 l-20 -115h-114z" />
<glyph unicode="&#x1ecd;" horiz-adv-x="501" d="M37 190q0 151 80.5 253.5t198.5 102.5q84 0 132.5 -54.5t48.5 -149.5q0 -149 -81 -252.5t-198 -103.5q-84 0 -132.5 54.5t-48.5 149.5zM129 -200l20 115h114l-20 -115h-114zM156 209q0 -105 83 -105q62 0 100 65t38 155q0 104 -83 104q-62 0 -100 -66t-38 -153z" />
<glyph unicode="&#x1ece;" horiz-adv-x="638" d="M58 245q0 136 47 249t130 178t184 65q99 0 162.5 -68t63.5 -195q0 -210 -103 -351.5t-257 -141.5q-105 0 -166 71t-61 193zM184 271q0 -76 33 -119.5t92 -43.5q89 0 150 98.5t61 240.5q0 76 -33 119.5t-91 43.5q-91 0 -151.5 -101t-60.5 -238zM330 859q17 92 132 92 q51 0 77.5 -18.5t20.5 -50.5q-3 -19 -16 -32t-44 -30q-25 -14 -32 -19.5t-9 -12.5l-4 -24h-62l5 27q3 18 16 30t47 28v-1q36 21 37 34q2 11 -10.5 18t-35.5 7q-32 0 -43.5 -9.5t-17.5 -38.5h-61z" />
<glyph unicode="&#x1ecf;" horiz-adv-x="501" d="M37 190q0 151 80.5 253.5t198.5 102.5q84 0 132.5 -54.5t48.5 -149.5q0 -149 -81 -252.5t-198 -103.5q-84 0 -132.5 54.5t-48.5 149.5zM156 209q0 -105 83 -105q62 0 100 65t38 155q0 104 -83 104q-62 0 -100 -66t-38 -153zM228 673q17 92 132 92q51 0 77.5 -18.5 t20.5 -50.5q-3 -19 -16 -32t-44 -30q-25 -14 -32 -19.5t-9 -12.5l-4 -24h-62l5 27q3 18 16 30t47 28v-1q36 21 37 34q2 11 -10.5 18t-35.5 7q-32 0 -43.5 -9.5t-17.5 -38.5h-61z" />
<glyph unicode="&#x1ed0;" horiz-adv-x="638" d="M58 245q0 136 47 249t130 178t184 65q99 0 162.5 -68t63.5 -195q0 -210 -103 -351.5t-257 -141.5q-105 0 -166 71t-61 193zM184 271q0 -76 33 -119.5t92 -43.5q89 0 150 98.5t61 240.5q0 76 -33 119.5t-91 43.5q-91 0 -151.5 -101t-60.5 -238zM273 788l125 126h103 l81 -126h-93l-51 62l-72 -62h-93zM411 934l100 126h126l-143 -126h-83z" />
<glyph unicode="&#x1ed1;" horiz-adv-x="501" d="M37 190q0 151 80.5 253.5t198.5 102.5q84 0 132.5 -54.5t48.5 -149.5q0 -149 -81 -252.5t-198 -103.5q-84 0 -132.5 54.5t-48.5 149.5zM156 209q0 -105 83 -105q62 0 100 65t38 155q0 104 -83 104q-62 0 -100 -66t-38 -153zM171 602l125 126h103l81 -126h-93l-51 62 l-72 -62h-93zM309 748l100 126h126l-143 -126h-83z" />
<glyph unicode="&#x1ed2;" horiz-adv-x="638" d="M58 245q0 136 47 249t130 178t184 65q99 0 162.5 -68t63.5 -195q0 -210 -103 -351.5t-257 -141.5q-105 0 -166 71t-61 193zM184 271q0 -76 33 -119.5t92 -43.5q89 0 150 98.5t61 240.5q0 76 -33 119.5t-91 43.5q-91 0 -151.5 -101t-60.5 -238zM273 788l125 126h103 l81 -126h-93l-51 62l-72 -62h-93zM313 1060h126l56 -126h-83z" />
<glyph unicode="&#x1ed3;" horiz-adv-x="501" d="M37 190q0 151 80.5 253.5t198.5 102.5q84 0 132.5 -54.5t48.5 -149.5q0 -149 -81 -252.5t-198 -103.5q-84 0 -132.5 54.5t-48.5 149.5zM156 209q0 -105 83 -105q62 0 100 65t38 155q0 104 -83 104q-62 0 -100 -66t-38 -153zM171 602l125 126h103l81 -126h-93l-51 62 l-72 -62h-93zM211 874h126l56 -126h-83z" />
<glyph unicode="&#x1ed4;" horiz-adv-x="638" d="M58 245q0 136 47 249t130 178t184 65q99 0 162.5 -68t63.5 -195q0 -210 -103 -351.5t-257 -141.5q-105 0 -166 71t-61 193zM184 271q0 -76 33 -119.5t92 -43.5q89 0 150 98.5t61 240.5q0 76 -33 119.5t-91 43.5q-91 0 -151.5 -101t-60.5 -238zM273 788l125 126h103 l81 -126h-93l-51 62l-72 -62h-93zM396 1020q15 82 131 82q51 0 77.5 -17t21.5 -45q-3 -17 -15.5 -29t-44.5 -27q-38 -18 -40 -28l-3 -22h-62l4 24q3 17 16 27.5t46 25.5v-1q35 18 37 30q2 10 -11 16.5t-36 6.5q-34 0 -47 -13v1q-9 -9 -13 -31h-61z" />
<glyph unicode="&#x1ed5;" horiz-adv-x="501" d="M37 190q0 151 80.5 253.5t198.5 102.5q84 0 132.5 -54.5t48.5 -149.5q0 -149 -81 -252.5t-198 -103.5q-84 0 -132.5 54.5t-48.5 149.5zM156 209q0 -105 83 -105q62 0 100 65t38 155q0 104 -83 104q-62 0 -100 -66t-38 -153zM171 602l125 126h103l81 -126h-93l-51 62 l-72 -62h-93zM294 834q15 82 131 82q51 0 77.5 -17t21.5 -45q-3 -17 -15.5 -29t-44.5 -27q-38 -18 -40 -28l-3 -22h-62l4 24q3 17 16 27.5t46 25.5v-1q35 18 37 30q2 10 -11 16.5t-36 6.5q-34 0 -47 -13v1q-9 -9 -13 -31h-61z" />
<glyph unicode="&#x1ed6;" horiz-adv-x="638" d="M58 245q0 136 47 249t130 178t184 65q99 0 162.5 -68t63.5 -195q0 -210 -103 -351.5t-257 -141.5q-105 0 -166 71t-61 193zM184 271q0 -76 33 -119.5t92 -43.5q89 0 150 98.5t61 240.5q0 76 -33 119.5t-91 43.5q-91 0 -151.5 -101t-60.5 -238zM273 788l125 126h103 l81 -126h-93l-51 62l-72 -62h-93zM304 944q23 64 51.5 93.5t68.5 29.5q7 0 52.5 -18t51.5 -18q30 0 46 40h53q-41 -120 -110 -120q-9 0 -57 18t-58 18q-29 0 -46 -43h-52z" />
<glyph unicode="&#x1ed7;" horiz-adv-x="501" d="M37 190q0 151 80.5 253.5t198.5 102.5q84 0 132.5 -54.5t48.5 -149.5q0 -149 -81 -252.5t-198 -103.5q-84 0 -132.5 54.5t-48.5 149.5zM156 209q0 -105 83 -105q62 0 100 65t38 155q0 104 -83 104q-62 0 -100 -66t-38 -153zM171 602l125 126h103l81 -126h-93l-51 62 l-72 -62h-93zM202 758q23 64 51.5 93.5t68.5 29.5q7 0 52.5 -18t51.5 -18q30 0 46 40h53q-41 -120 -110 -120q-9 0 -57 18t-58 18q-29 0 -46 -43h-52z" />
<glyph unicode="&#x1ed8;" horiz-adv-x="638" d="M58 245q0 136 47 249t130 178t184 65q99 0 162.5 -68t63.5 -195q0 -210 -103 -351.5t-257 -141.5q-105 0 -166 71t-61 193zM184 271q0 -76 33 -119.5t92 -43.5q89 0 150 98.5t61 240.5q0 76 -33 119.5t-91 43.5q-91 0 -151.5 -101t-60.5 -238zM198 -200l20 115h114 l-20 -115h-114zM273 788l125 126h103l81 -126h-93l-51 62l-72 -62h-93z" />
<glyph unicode="&#x1ed9;" horiz-adv-x="501" d="M37 190q0 151 80.5 253.5t198.5 102.5q84 0 132.5 -54.5t48.5 -149.5q0 -149 -81 -252.5t-198 -103.5q-84 0 -132.5 54.5t-48.5 149.5zM129 -200l20 115h114l-20 -115h-114zM156 209q0 -105 83 -105q62 0 100 65t38 155q0 104 -83 104q-62 0 -100 -66t-38 -153zM181 602 l119 146h103l68 -146h-93l-38 82l-66 -82h-93z" />
<glyph unicode="&#x1eda;" horiz-adv-x="638" d="M58 245q0 136 47 249t130 178t184 65q129 0 189 -105q25 31 35 87h-57l20 115h114l-20 -115q-15 -87 -69 -141q14 -48 14 -104q0 -210 -103 -351.5t-257 -141.5q-105 0 -166 71t-61 193zM184 271q0 -76 33 -119.5t92 -43.5q89 0 150 98.5t61 240.5q0 76 -33 119.5 t-91 43.5q-91 0 -151.5 -101t-60.5 -238zM386 788l100 126h126l-143 -126h-83z" />
<glyph unicode="&#x1edb;" horiz-adv-x="512" d="M37 190q0 151 80.5 253.5t198.5 102.5q110 0 156 -89q21 32 27 76h-57l20 115h114l-20 -115q-13 -81 -64 -137q5 -28 5 -54q0 -149 -81 -252.5t-198 -103.5q-84 0 -132.5 54.5t-48.5 149.5zM156 209q0 -105 83 -105q62 0 100 65t38 155q0 104 -83 104q-62 0 -100 -66 t-38 -153zM284 602l103 146h126l-146 -146h-83z" />
<glyph unicode="&#x1edc;" horiz-adv-x="638" d="M58 245q0 136 47 249t130 178t184 65q129 0 189 -105q25 31 35 87h-57l20 115h114l-20 -115q-15 -87 -69 -141q14 -48 14 -104q0 -210 -103 -351.5t-257 -141.5q-105 0 -166 71t-61 193zM184 271q0 -76 33 -119.5t92 -43.5q89 0 150 98.5t61 240.5q0 76 -33 119.5 t-91 43.5q-91 0 -151.5 -101t-60.5 -238zM288 914h126l55 -126h-83z" />
<glyph unicode="&#x1edd;" horiz-adv-x="512" d="M37 190q0 151 80.5 253.5t198.5 102.5q110 0 156 -89q21 32 27 76h-57l20 115h114l-20 -115q-13 -81 -64 -137q5 -28 5 -54q0 -149 -81 -252.5t-198 -103.5q-84 0 -132.5 54.5t-48.5 149.5zM156 209q0 -105 83 -105q62 0 100 65t38 155q0 104 -83 104q-62 0 -100 -66 t-38 -153zM189 748h126l52 -146h-83z" />
<glyph unicode="&#x1ede;" horiz-adv-x="638" d="M58 245q0 136 47 249t130 178t184 65q129 0 189 -105q25 31 35 87h-57l20 115h114l-20 -115q-15 -87 -69 -141q14 -48 14 -104q0 -210 -103 -351.5t-257 -141.5q-105 0 -166 71t-61 193zM184 271q0 -76 33 -119.5t92 -43.5q89 0 150 98.5t61 240.5q0 76 -33 119.5 t-91 43.5q-91 0 -151.5 -101t-60.5 -238zM330 859q17 92 132 92q51 0 77.5 -18.5t20.5 -50.5q-3 -19 -16 -32t-44 -30q-25 -14 -32 -19.5t-9 -12.5l-4 -24h-62l5 27q3 18 16 30t47 28v-1q36 21 37 34q2 11 -10.5 18t-35.5 7q-32 0 -43.5 -9.5t-17.5 -38.5h-61z" />
<glyph unicode="&#x1edf;" horiz-adv-x="512" d="M37 190q0 151 80.5 253.5t198.5 102.5q110 0 156 -89q21 32 27 76h-57l20 115h114l-20 -115q-13 -81 -64 -137q5 -28 5 -54q0 -149 -81 -252.5t-198 -103.5q-84 0 -132.5 54.5t-48.5 149.5zM156 209q0 -105 83 -105q62 0 100 65t38 155q0 104 -83 104q-62 0 -100 -66 t-38 -153zM228 673q17 92 132 92q51 0 77.5 -18.5t20.5 -50.5q-3 -19 -16 -32t-44 -30q-25 -14 -32 -19.5t-9 -12.5l-4 -24h-62l5 27q3 18 16 30t47 28v-1q36 21 37 34q2 11 -10.5 18t-35.5 7q-32 0 -43.5 -9.5t-17.5 -38.5h-61z" />
<glyph unicode="&#x1ee0;" horiz-adv-x="638" d="M58 245q0 136 47 249t130 178t184 65q129 0 189 -105q25 31 35 87h-57l20 115h114l-20 -115q-15 -87 -69 -141q14 -48 14 -104q0 -210 -103 -351.5t-257 -141.5q-105 0 -166 71t-61 193zM184 271q0 -76 33 -119.5t92 -43.5q89 0 150 98.5t61 240.5q0 76 -33 119.5 t-91 43.5q-91 0 -151.5 -101t-60.5 -238zM277 788q23 64 51.5 93.5t68.5 29.5q7 0 52.5 -18t51.5 -18q30 0 46 40h53q-40 -120 -110 -120q-9 0 -57 18t-58 18q-29 0 -46 -43h-52z" />
<glyph unicode="&#x1ee1;" horiz-adv-x="512" d="M37 190q0 151 80.5 253.5t198.5 102.5q110 0 156 -89q21 32 27 76h-57l20 115h114l-20 -115q-13 -81 -64 -137q5 -28 5 -54q0 -149 -81 -252.5t-198 -103.5q-84 0 -132.5 54.5t-48.5 149.5zM156 209q0 -105 83 -105q62 0 100 65t38 155q0 104 -83 104q-62 0 -100 -66 t-38 -153zM176 612q23 64 51.5 93.5t68.5 29.5q7 0 52.5 -18t51.5 -18q30 0 46 40h53q-41 -120 -110 -120q-9 0 -57 18t-58 18q-29 0 -46 -43h-52z" />
<glyph unicode="&#x1ee2;" horiz-adv-x="638" d="M58 245q0 136 47 249t130 178t184 65q129 0 189 -105q25 31 35 87h-57l20 115h114l-20 -115q-15 -87 -69 -141q14 -48 14 -104q0 -210 -103 -351.5t-257 -141.5q-105 0 -166 71t-61 193zM184 271q0 -76 33 -119.5t92 -43.5q89 0 150 98.5t61 240.5q0 76 -33 119.5 t-91 43.5q-91 0 -151.5 -101t-60.5 -238zM198 -200l20 115h114l-20 -115h-114z" />
<glyph unicode="&#x1ee3;" horiz-adv-x="512" d="M37 190q0 151 80.5 253.5t198.5 102.5q110 0 156 -89q21 32 27 76h-57l20 115h114l-20 -115q-13 -81 -64 -137q5 -28 5 -54q0 -149 -81 -252.5t-198 -103.5q-84 0 -132.5 54.5t-48.5 149.5zM129 -200l20 115h114l-20 -115h-114zM156 209q0 -105 83 -105q62 0 100 65 t38 155q0 104 -83 104q-62 0 -100 -66t-38 -153z" />
<glyph unicode="&#x1ee4;" horiz-adv-x="592" d="M66 169q0 37 6 73l83 476h125l-81 -466q-4 -20 -4 -44q0 -100 89 -100q113 0 137 137l83 473h125l-81 -467q-23 -131 -96 -200.5t-188 -69.5q-95 0 -146.5 49t-51.5 139zM175 -200l20 115h114l-20 -115h-114z" />
<glyph unicode="&#x1ee5;" horiz-adv-x="501" d="M50 120q0 36 5 62l62 350h115l-58 -330q-3 -17 -3 -34q0 -64 59 -64q42 0 71.5 32.5t39.5 88.5l54 307h115l-93 -532h-110l14 78q-34 -49 -69.5 -70.5t-82.5 -21.5q-57 0 -88 35t-31 99zM129 -200l20 115h114l-20 -115h-114z" />
<glyph unicode="&#x1ee6;" horiz-adv-x="592" d="M66 169q0 37 6 73l83 476h125l-81 -466q-4 -20 -4 -44q0 -100 89 -100q113 0 137 137l83 473h125l-81 -467q-23 -131 -96 -200.5t-188 -69.5q-95 0 -146.5 49t-51.5 139zM306 859q17 92 132 92q51 0 77.5 -18.5t20.5 -50.5q-3 -19 -16 -32t-44 -30q-25 -14 -32 -19.5 t-9 -12.5l-4 -24h-62l5 27q3 18 16 30t47 28v-1q36 21 37 34q2 11 -10.5 18t-35.5 7q-32 0 -43.5 -9.5t-17.5 -38.5h-61z" />
<glyph unicode="&#x1ee7;" horiz-adv-x="501" d="M50 120q0 36 5 62l62 350h115l-58 -330q-3 -17 -3 -34q0 -64 59 -64q42 0 71.5 32.5t39.5 88.5l54 307h115l-93 -532h-110l14 78q-34 -49 -69.5 -70.5t-82.5 -21.5q-57 0 -88 35t-31 99zM228 673q17 92 132 92q51 0 77.5 -18.5t20.5 -50.5q-3 -19 -16 -32t-44 -30 q-25 -14 -32 -19.5t-9 -12.5l-4 -24h-62l5 27q3 18 16 30t47 28v-1q36 21 37 34q2 11 -10.5 18t-35.5 7q-32 0 -43.5 -9.5t-17.5 -38.5h-61z" />
<glyph unicode="&#x1ee8;" horiz-adv-x="686" d="M66 169q0 37 6 73l83 476h125l-81 -466q-4 -20 -4 -44q0 -100 89 -100q113 0 137 137l83 473h125l-21 -123q38 0 63.5 36.5t34.5 87.5h-57l20 115h114l-20 -115q-14 -75 -59.5 -130.5t-106.5 -55.5l-49 -282q-23 -131 -96 -200.5t-188 -69.5q-95 0 -146.5 49t-51.5 139z M362 788l100 126h126l-143 -126h-83z" />
<glyph unicode="&#x1ee9;" horiz-adv-x="599" d="M50 120q0 36 5 62l62 350h115l-58 -330q-3 -17 -3 -34q0 -64 59 -64q42 0 71.5 32.5t39.5 88.5l54 307h115l-21 -123q37 0 63 37t34 87h-57l20 115h114l-20 -115q-13 -75 -58.5 -130.5t-106.5 -55.5l-61 -347h-110l14 78q-34 -49 -69.5 -70.5t-82.5 -21.5q-57 0 -88 35 t-31 99zM284 602l103 146h126l-146 -146h-83z" />
<glyph unicode="&#x1eea;" horiz-adv-x="686" d="M66 169q0 37 6 73l83 476h125l-81 -466q-4 -20 -4 -44q0 -100 89 -100q113 0 137 137l83 473h125l-21 -123q38 0 63.5 36.5t34.5 87.5h-57l20 115h114l-20 -115q-14 -75 -59.5 -130.5t-106.5 -55.5l-49 -282q-23 -131 -96 -200.5t-188 -69.5q-95 0 -146.5 49t-51.5 139z M265 914h126l55 -126h-83z" />
<glyph unicode="&#x1eeb;" horiz-adv-x="599" d="M50 120q0 36 5 62l62 350h115l-58 -330q-3 -17 -3 -34q0 -64 59 -64q42 0 71.5 32.5t39.5 88.5l54 307h115l-21 -123q37 0 63 37t34 87h-57l20 115h114l-20 -115q-13 -75 -58.5 -130.5t-106.5 -55.5l-61 -347h-110l14 78q-34 -49 -69.5 -70.5t-82.5 -21.5q-57 0 -88 35 t-31 99zM189 748h126l52 -146h-83z" />
<glyph unicode="&#x1eec;" horiz-adv-x="686" d="M66 169q0 37 6 73l83 476h125l-81 -466q-4 -20 -4 -44q0 -100 89 -100q113 0 137 137l83 473h125l-21 -123q38 0 63.5 36.5t34.5 87.5h-57l20 115h114l-20 -115q-14 -75 -59.5 -130.5t-106.5 -55.5l-49 -282q-23 -131 -96 -200.5t-188 -69.5q-95 0 -146.5 49t-51.5 139z M306 859q17 92 132 92q51 0 77.5 -18.5t20.5 -50.5q-3 -19 -16 -32t-44 -30q-25 -14 -32 -19.5t-9 -12.5l-4 -24h-62l5 27q3 18 16 30t47 28v-1q36 21 37 34q2 11 -10.5 18t-35.5 7q-32 0 -43.5 -9.5t-17.5 -38.5h-61z" />
<glyph unicode="&#x1eed;" horiz-adv-x="599" d="M50 120q0 36 5 62l62 350h115l-58 -330q-3 -17 -3 -34q0 -64 59 -64q42 0 71.5 32.5t39.5 88.5l54 307h115l-21 -123q37 0 63 37t34 87h-57l20 115h114l-20 -115q-13 -75 -58.5 -130.5t-106.5 -55.5l-61 -347h-110l14 78q-34 -49 -69.5 -70.5t-82.5 -21.5q-57 0 -88 35 t-31 99zM228 673q17 92 132 92q51 0 77.5 -18.5t20.5 -50.5q-3 -19 -16 -32t-44 -30q-25 -14 -32 -19.5t-9 -12.5l-4 -24h-62l5 27q3 18 16 30t47 28v-1q36 21 37 34q2 11 -10.5 18t-35.5 7q-32 0 -43.5 -9.5t-17.5 -38.5h-61z" />
<glyph unicode="&#x1eee;" horiz-adv-x="686" d="M66 169q0 37 6 73l83 476h125l-81 -466q-4 -20 -4 -44q0 -100 89 -100q113 0 137 137l83 473h125l-21 -123q38 0 63.5 36.5t34.5 87.5h-57l20 115h114l-20 -115q-14 -75 -59.5 -130.5t-106.5 -55.5l-49 -282q-23 -131 -96 -200.5t-188 -69.5q-95 0 -146.5 49t-51.5 139z M254 788q23 64 51.5 93.5t68.5 29.5q7 0 52.5 -18t51.5 -18q30 0 46 40h53q-41 -120 -110 -120q-9 0 -57 18t-58 18q-29 0 -46 -43h-52z" />
<glyph unicode="&#x1eef;" horiz-adv-x="599" d="M50 120q0 36 5 62l62 350h115l-58 -330q-3 -17 -3 -34q0 -64 59 -64q42 0 71.5 32.5t39.5 88.5l54 307h115l-21 -123q37 0 63 37t34 87h-57l20 115h114l-20 -115q-13 -75 -58.5 -130.5t-106.5 -55.5l-61 -347h-110l14 78q-34 -49 -69.5 -70.5t-82.5 -21.5q-57 0 -88 35 t-31 99zM176 612q23 64 51.5 93.5t68.5 29.5q7 0 52.5 -18t51.5 -18q30 0 46 40h53q-41 -120 -110 -120q-9 0 -57 18t-58 18q-29 0 -46 -43h-52z" />
<glyph unicode="&#x1ef0;" horiz-adv-x="686" d="M66 169q0 37 6 73l83 476h125l-81 -466q-4 -20 -4 -44q0 -100 89 -100q113 0 137 137l83 473h125l-21 -123q38 0 63.5 36.5t34.5 87.5h-57l20 115h114l-20 -115q-14 -75 -59.5 -130.5t-106.5 -55.5l-49 -282q-23 -131 -96 -200.5t-188 -69.5q-95 0 -146.5 49t-51.5 139z M175 -200l20 115h114l-20 -115h-114z" />
<glyph unicode="&#x1ef1;" horiz-adv-x="599" d="M50 120q0 36 5 62l62 350h115l-58 -330q-3 -17 -3 -34q0 -64 59 -64q42 0 71.5 32.5t39.5 88.5l54 307h115l-21 -123q37 0 63 37t34 87h-57l20 115h114l-20 -115q-13 -75 -58.5 -130.5t-106.5 -55.5l-61 -347h-110l14 78q-34 -49 -69.5 -70.5t-82.5 -21.5q-57 0 -88 35 t-31 99zM129 -200l20 115h114l-20 -115h-114z" />
<glyph unicode="&#x1ef2;" horiz-adv-x="547" d="M107 718h145l68 -312l171 312h140l-276 -449l-46 -269h-124l48 271zM245 914h126l55 -126h-83z" />
<glyph unicode="&#x1ef3;" d="M4 -212l20 112q14 -2 24 -2q36 0 53.5 15.5t33.5 64.5l-64 554h128l25 -396l159 396h122l-242 -523q-32 -68 -49.5 -103t-35.5 -63.5t-35 -38t-35.5 -14t-49.5 -4.5zM167 748h126l52 -146h-83z" />
<glyph unicode="&#x1ef4;" horiz-adv-x="547" d="M107 718h145l68 -312l171 312h140l-276 -449l-46 -269h-124l48 271zM155 -200l20 115h114l-20 -115h-114z" />
<glyph unicode="&#x1ef5;" d="M4 -212l20 112q14 -2 24 -2q36 0 53.5 15.5t33.5 64.5l-64 554h128l25 -396l159 396h122l-242 -523q-32 -68 -49.5 -103t-35.5 -63.5t-35 -38t-35.5 -14t-49.5 -4.5zM349 -200l20 115h114l-20 -115h-114z" />
<glyph unicode="&#x1ef6;" horiz-adv-x="547" d="M107 718h145l68 -312l171 312h140l-276 -449l-46 -269h-124l48 271zM286 859q17 92 132 92q51 0 77.5 -18.5t20.5 -50.5q-3 -19 -16 -32t-44 -30q-25 -14 -32 -19.5t-9 -12.5l-4 -24h-62l5 27q3 18 16 30t47 28v-1q36 21 37 34q2 11 -10.5 18t-35.5 7q-32 0 -43.5 -9.5 t-17.5 -38.5h-61z" />
<glyph unicode="&#x1ef7;" d="M4 -212l20 112q14 -2 24 -2q36 0 53.5 15.5t33.5 64.5l-64 554h128l25 -396l159 396h122l-242 -523q-32 -68 -49.5 -103t-35.5 -63.5t-35 -38t-35.5 -14t-49.5 -4.5zM205 673q17 92 132 92q51 0 77.5 -18.5t20.5 -50.5q-3 -19 -16 -32t-44 -30q-25 -14 -32 -19.5 t-9 -12.5l-4 -24h-62l5 27q3 18 16 30t47 28v-1q36 21 37 34q2 11 -10.5 18t-35.5 7q-32 0 -43.5 -9.5t-17.5 -38.5h-61z" />
<glyph unicode="&#x1ef8;" horiz-adv-x="547" d="M107 718h145l68 -312l171 312h140l-276 -449l-46 -269h-124l48 271zM234 788q23 64 51.5 93.5t68.5 29.5q7 0 52.5 -18t51.5 -18q30 0 46 40h53q-41 -120 -110 -120q-9 0 -57 18t-58 18q-29 0 -46 -43h-52z" />
<glyph unicode="&#x1ef9;" d="M4 -212l20 112q14 -2 24 -2q36 0 53.5 15.5t33.5 64.5l-64 554h128l25 -396l159 396h122l-242 -523q-32 -68 -49.5 -103t-35.5 -63.5t-35 -38t-35.5 -14t-49.5 -4.5zM153 612q23 64 51.5 93.5t68.5 29.5q7 0 52.5 -18t51.5 -18q30 0 46 40h53q-41 -120 -110 -120 q-9 0 -57 18t-58 18q-29 0 -46 -43h-52z" />
<glyph unicode="&#x2000;" horiz-adv-x="552" />
<glyph unicode="&#x2001;" horiz-adv-x="1105" />
<glyph unicode="&#x2002;" horiz-adv-x="552" />
<glyph unicode="&#x2003;" horiz-adv-x="1105" />
<glyph unicode="&#x2004;" horiz-adv-x="368" />
<glyph unicode="&#x2005;" horiz-adv-x="276" />
<glyph unicode="&#x2006;" horiz-adv-x="184" />
<glyph unicode="&#x2007;" horiz-adv-x="184" />
<glyph unicode="&#x2008;" horiz-adv-x="138" />
<glyph unicode="&#x2009;" horiz-adv-x="221" />
<glyph unicode="&#x200a;" horiz-adv-x="61" />
<glyph unicode="&#x2010;" horiz-adv-x="273" d="M30 215l23 130h228l-23 -130h-228z" />
<glyph unicode="&#x2011;" horiz-adv-x="273" d="M30 215l23 130h228l-23 -130h-228z" />
<glyph unicode="&#x2012;" horiz-adv-x="273" d="M30 215l23 130h228l-23 -130h-228z" />
<glyph unicode="&#x2013;" d="M10 227l18 106h456l-18 -106h-456z" />
<glyph unicode="&#x2014;" horiz-adv-x="820" d="M10 227l18 106h820l-18 -106h-820z" />
<glyph unicode="&#x2016;" horiz-adv-x="479" d="M131 -196v918h86v-918h-86zM303 -196v918h86v-918h-86z" />
<glyph unicode="&#x2018;" horiz-adv-x="228" d="M106 454l18 102q25 141 142 171l-9 -51q-35 -14 -52.5 -34.5t-24.5 -60.5h63l-22 -127h-115z" />
<glyph unicode="&#x2019;" horiz-adv-x="228" d="M107 445l9 51q35 13 52 34t25 61h-63l22 127h115l-18 -102q-25 -141 -142 -171z" />
<glyph unicode="&#x201a;" horiz-adv-x="228" d="M4 -146l9 51q35 13 52 34t25 61h-63l22 127h115l-18 -102q-24 -141 -142 -171z" />
<glyph unicode="&#x201c;" horiz-adv-x="410" d="M102 454l18 102q13 73 47.5 114.5t94.5 56.5l-9 -51q-35 -13 -52 -34t-25 -61h63l-22 -127h-115zM292 454l18 102q13 73 47.5 114.5t94.5 56.5l-9 -51q-35 -13 -52 -34t-25 -61h63l-22 -127h-115z" />
</font>
</defs>
</svg>
