<?xml version="1.0" standalone="no"?>
<!DOCTYPE svg PUBLIC "-//W3C//DTD SVG 1.1//EN" "http://www.w3.org/Graphics/SVG/1.1/DTD/svg11.dtd" >
<svg xmlns="http://www.w3.org/2000/svg">
<metadata></metadata>
<defs>
<font id="texgyreherosbold" horiz-adv-x="556" >
<font-face units-per-em="1000" ascent="784" descent="-216" />
<missing-glyph horiz-adv-x="278" />
<glyph unicode="IJ" horiz-adv-x="816" d="M60 0v729h150v-729h-150zM294 209v61h150v-59q0 -50 19 -72.5t62 -22.5q39 0 60 22t21 63v528h150v-528q0 -102 -61 -157.5t-173 -55.5q-105 0 -166.5 57.5t-61.5 163.5z" />
<glyph unicode="ij" horiz-adv-x="541" d="M60 0v540h140v-540h-140zM62 605v140h140v-140h-140zM275 -101q13 -4 25 -4q23 0 32 9.5t9 32.5v603h140v-634q0 -66 -29 -95t-94 -29q-36 0 -83 5v112zM341 605v140h140v-140h-140z" />
<glyph unicode="fk" horiz-adv-x="897" d="M14 436v93h76v65q0 135 138 135q41 0 80 -3v-105q-18 3 -40 3q-38 0 -38 -42v-53h83v-93h-83v-436h-140v436h-76zM400 0v729h140v-399l177 210h159l-184 -204l197 -336h-164l-129 238l-56 -61v-177h-140z" />
<glyph unicode="ff" horiz-adv-x="637" d="M14 436v93h76v65q0 135 138 135q41 0 80 -3v-105q-18 3 -40 3q-38 0 -38 -42v-53h170v65q0 135 138 135q41 0 80 -3v-105q-18 3 -40 3q-38 0 -38 -42v-53h83v-93h-83v-436h-140v436h-170v-436h-140v436h-76z" />
<glyph unicode="fi" horiz-adv-x="611" d="M14 436v93h76v65q0 135 138 135q41 0 80 -3v-105q-18 3 -40 3q-38 0 -38 -42v-53h83v-93h-83v-436h-140v436h-76zM400 0v540h140v-540h-140zM400 605v140h140v-140h-140z" />
<glyph unicode="fl" horiz-adv-x="611" d="M14 436v93h76v65q0 135 138 135q41 0 80 -3v-105q-18 3 -40 3q-38 0 -38 -42v-53h83v-93h-83v-436h-140v436h-76zM400 0v729h140v-729h-140z" />
<glyph unicode="ffi" horiz-adv-x="921" d="M14 436v93h76v65q0 135 138 135q41 0 80 -3v-105q-18 3 -40 3q-38 0 -38 -42v-53h170v65q0 135 138 135q41 0 80 -3v-105q-18 3 -40 3q-38 0 -38 -42v-53h83v-93h-83v-436h-140v436h-170v-436h-140v436h-76zM710 0v540h140v-540h-140zM710 605v140h140v-140h-140z" />
<glyph unicode="ffl" horiz-adv-x="921" d="M14 436v93h76v65q0 135 138 135q41 0 80 -3v-105q-18 3 -40 3q-38 0 -38 -42v-53h170v65q0 135 138 135q41 0 80 -3v-105q-18 3 -40 3q-38 0 -38 -42v-53h83v-93h-83v-436h-140v436h-170v-436h-140v436h-76zM710 0v729h140v-729h-140z" />
<glyph unicode=" "  horiz-adv-x="278" />
<glyph unicode="&#x09;" horiz-adv-x="278" />
<glyph unicode="&#xa0;" horiz-adv-x="278" />
<glyph unicode="!" horiz-adv-x="333" d="M92 0v146h150v-146h-150zM92 516v210h150v-210l-42 -309h-67z" />
<glyph unicode="&#x22;" horiz-adv-x="474" d="M50 599v130h138v-130l-42 -129h-56zM286 599v130h138v-130l-42 -129h-56z" />
<glyph unicode="#" d="M3 172v99h97l30 153h-99v99h119l34 174h105l-34 -174h103l34 174h105l-34 -174h90v-99h-109l-31 -153h100v-99h-119l-40 -204h-105l40 204h-103l-40 -204h-106l40 204h-77zM205 271h103l30 153h-103z" />
<glyph unicode="$" d="M22 198v9h131q5 -106 90 -121v213q-204 47 -204 213q0 84 53.5 136t150.5 61v54h68v-54q95 -5 150.5 -61.5t55.5 -149.5h-128q0 46 -20 75.5t-58 34.5v-201q116 -32 166 -81t50 -131q0 -56 -22.5 -102.5t-63.5 -72.5q-51 -32 -130 -41v-105h-68v105q-82 8 -135 46 q-86 61 -86 173zM162 516q0 -63 81 -89v181q-81 -16 -81 -92zM311 86q84 21 84 97q0 73 -84 99v-196z" />
<glyph unicode="%" horiz-adv-x="889" d="M22 519q0 75 54 128.5t130 53.5q77 0 130.5 -53.5t53.5 -130.5q0 -73 -54.5 -126.5t-129.5 -53.5q-76 0 -130 53.5t-54 128.5zM121 519q0 -35 25 -59.5t60 -24.5t60 24.5t25 58.5q0 35 -25 59.5t-60 24.5t-60 -24.5t-25 -58.5zM190 -20l396 729h106l-395 -729h-107z M495 170q0 75 54 128.5t130 53.5q77 0 130.5 -53.5t53.5 -131.5q0 -73 -54.5 -126.5t-129.5 -53.5q-76 0 -130 53.5t-54 129.5zM594 169q0 -35 25 -59.5t60 -24.5t60 24.5t25 58.5q0 35 -25 60t-60 25t-60 -24.5t-25 -59.5z" />
<glyph unicode="&#x26;" horiz-adv-x="722" d="M55 193q0 71 34.5 116.5t122.5 91.5q-9 12 -12 15l-28 34q-43 51 -42 106q0 71 54.5 119t134.5 48t129 -42.5t49 -112.5q0 -54 -25 -92t-92 -84l116 -144q30 57 30 115v10h113v-16q0 -56 -19.5 -111.5t-48.5 -91.5l123 -154h-161l-46 56q-60 -45 -102 -62t-93 -17 q-107 0 -172 59.5t-65 156.5zM188 210q0 -45 32.5 -81t73.5 -36q48 0 120 55l-136 171l-47 -29q-43 -26 -43 -80zM262 566q0 -19 8.5 -33.5t46.5 -62.5q60 33 60 86q0 28 -15 43t-42 15q-25 0 -41.5 -13.5t-16.5 -34.5z" />
<glyph unicode="'" horiz-adv-x="238" d="M50 599v130h138v-130l-42 -129h-56z" />
<glyph unicode="(" horiz-adv-x="333" d="M40 265q0 115 38.5 225t124.5 239h100q-79 -153 -109.5 -253.5t-30.5 -210.5t30 -210t110 -255h-100q-86 130 -124.5 239.5t-38.5 225.5z" />
<glyph unicode=")" horiz-adv-x="333" d="M22 -200q79 153 109.5 253.5t30.5 210.5t-30 210t-110 255h100q86 -130 124.5 -239.5t38.5 -225.5q0 -115 -38.5 -225t-124.5 -239h-100z" />
<glyph unicode="*" horiz-adv-x="389" d="M23 580l22 69l109 -36v116h72v-116l109 36l22 -70l-109 -35l67 -94l-58 -43l-67 94l-67 -94l-58 43l67 94z" />
<glyph unicode="+" horiz-adv-x="584" d="M60 200v100h182v182h100v-182h182v-100h-182v-182h-100v182h-182z" />
<glyph unicode="," horiz-adv-x="278" d="M64 0v146h150v-137q0 -58 -12 -90.5t-42 -55.5q-39 -30 -96 -37v56q86 17 86 115v3h-86z" />
<glyph unicode="-" horiz-adv-x="333" d="M26 207v135h272v-135h-272z" />
<glyph unicode="." horiz-adv-x="278" d="M64 0v146h150v-146h-150z" />
<glyph unicode="/" horiz-adv-x="278" d="M-12 -14l206 728h97l-206 -728h-97z" />
<glyph unicode="0" d="M29 357q0 66 5.5 117t22 99.5t43 80.5t70.5 51t103 19q61 0 105.5 -20t70.5 -52t42 -82t21 -100.5t5 -116.5q0 -102 -17.5 -174t-51 -112.5t-76 -58t-99.5 -17.5q-60 0 -104 19.5t-70.5 51.5t-42.5 81t-21.5 99.5t-5.5 114.5zM169 358q0 -103 12 -157.5t33 -72t59 -17.5 q39 0 60.5 19.5t32.5 73t11 152.5q0 107 -12.5 164t-33 74t-58.5 17q-39 0 -60.5 -20t-32.5 -75t-11 -158z" />
<glyph unicode="1" d="M68 489v93q184 0 217 127h93v-709h-140v489h-170z" />
<glyph unicode="2" d="M30 0q5 98 39.5 156.5t124.5 119.5q117 83 149 122t32 98q0 53 -26.5 83.5t-73.5 30.5q-48 0 -74.5 -33t-26.5 -92v-23h-134q-1 11 -1 25q0 112 61.5 174.5t171.5 62.5q112 0 177.5 -61t65.5 -164q0 -72 -33.5 -122t-125.5 -118q-79 -57 -105 -81.5t-39 -52.5h300v-125 h-482z" />
<glyph unicode="3" d="M29 222h136q0 -54 28 -82.5t78 -28.5q46 0 75.5 30t29.5 77q0 56 -39 81t-120 25v94h12q63 0 93.5 24t30.5 76q0 44 -23 68.5t-65 24.5q-52 0 -74.5 -29.5t-22.5 -95.5h-130v12q0 112 62 169t168 57q103 0 164 -52.5t61 -140.5q0 -48 -21.5 -80.5t-71.5 -63.5 q61 -30 88.5 -69t27.5 -100q0 -104 -67.5 -165.5t-180.5 -61.5q-109 0 -174 62.5t-65 168.5z" />
<glyph unicode="4" d="M24 157v118l259 434h165v-436h74v-116h-74v-157h-140v157h-284zM123 273h185v303z" />
<glyph unicode="5" d="M27 199h138q0 -42 26 -65t72 -23q53 0 83.5 33t30.5 94q0 64 -30 97t-84 33q-67 0 -90 -54h-126l63 395h379v-125h-293l-23 -148q57 43 123 43q99 0 160 -65t61 -173q0 -114 -70.5 -182t-185.5 -68q-104 0 -169 57.5t-65 150.5z" />
<glyph unicode="6" d="M32 337q0 191 66.5 289t195.5 98q88 0 144 -45t69 -131h-130q-14 34 -33.5 48.5t-53.5 14.5q-63 0 -88 -47.5t-30 -159.5q33 34 65 48.5t76 14.5q92 0 149 -61t57 -162q0 -115 -65.5 -184t-171.5 -69q-138 0 -199 98q-51 81 -51 248zM170 232q0 -56 29.5 -88.5 t78.5 -32.5q47 0 77.5 34t30.5 90q0 58 -29 90t-78 32t-79 -33.5t-30 -91.5z" />
<glyph unicode="7" d="M29 584v125h499v-110q-126 -152 -185 -291.5t-69 -307.5h-141q13 111 34.5 189.5t58.5 157.5q22 47 73 125t83 112h-353z" />
<glyph unicode="8" d="M22 211q0 62 27 102t89 73q-48 26 -70 60t-22 85q0 84 64.5 138.5t163.5 54.5q98 0 162.5 -54.5t64.5 -137.5q0 -52 -22 -86t-70 -60q62 -33 89 -73t27 -102q0 -100 -69.5 -160t-181.5 -60q-113 0 -182.5 60t-69.5 160zM162 219q0 -52 29.5 -80t81.5 -28t82 28t30 78 q0 55 -29.5 84t-82.5 29q-51 0 -81 -29t-30 -82zM169 519q0 -41 29.5 -67.5t76.5 -26.5q46 0 75.5 26t29.5 67q-1 42 -29.5 67.5t-75.5 25.5t-76.5 -25.5t-29.5 -66.5z" />
<glyph unicode="9" d="M28 482q0 110 66 176t173 66q116 0 182.5 -81t66.5 -258q0 -192 -65 -293t-196 -101q-92 0 -153.5 53.5t-63.5 135.5h135q2 -31 25.5 -50t60.5 -19q117 0 117 202q-38 -42 -64 -56t-72 -14q-95 0 -153.5 65t-58.5 174zM161 484q0 -60 27.5 -92.5t76.5 -32.5t78.5 32.5 t29.5 90.5q0 62 -29 95t-81 33q-47 0 -74.5 -32.5t-27.5 -93.5z" />
<glyph unicode=":" horiz-adv-x="333" d="M92 0v146h150v-146h-150zM92 374v146h150v-146h-150z" />
<glyph unicode=";" horiz-adv-x="333" d="M92 0v146h150v-137q0 -58 -12 -90.5t-42 -55.5q-39 -30 -96 -37v56q86 17 86 115v3h-86zM92 374v146h150v-146h-150z" />
<glyph unicode="&#x3c;" horiz-adv-x="584" d="M88 212v76l376 317v-130l-266 -225l266 -225v-130z" />
<glyph unicode="=" horiz-adv-x="584" d="M60 109v100h464v-100h-464zM60 291v100h464v-100h-464z" />
<glyph unicode="&#x3e;" horiz-adv-x="584" d="M88 25l266 225l-266 225v130l376 -317v-76l-376 -317v130z" />
<glyph unicode="?" horiz-adv-x="611" d="M60 481q0 132 65 197.5t178 65.5q110 0 179.5 -64t69.5 -166q0 -63 -25 -104t-95 -90q-45 -32 -56 -51t-11 -68h-124v14q0 57 21.5 97t77.5 87q45 37 58 57.5t13 54.5q0 49 -30 82t-75 33q-48 0 -79 -38t-31 -96v-11h-136zM231 0v146h150v-146h-150z" />
<glyph unicode="@" horiz-adv-x="975" d="M41 258q0 128 66.5 239.5t180 177.5t244.5 66q175 0 301 -110.5t126 -264.5q0 -76 -35 -148.5t-100 -120.5t-143 -48q-89 0 -113 61q-60 -56 -131 -56q-74 0 -123.5 55t-49.5 137q0 113 71.5 198t172.5 85q74 0 116 -62l13 42h111l-74 -291q-10 -30 -10 -44q0 -12 10 -20 t24 -8q57 0 102.5 65t45.5 143q0 116 -97 200t-230 84q-148 0 -257.5 -109t-109.5 -256q0 -133 101 -223t249 -90q74 0 197 32l36 -90q-122 -46 -238 -46q-190 0 -323 117.5t-133 284.5zM371 245q0 -42 23.5 -71t57.5 -29q55 0 89 63.5t38 151.5v5q0 31 -22 52t-54 21 q-55 0 -93.5 -58t-38.5 -135z" />
<glyph unicode="A" horiz-adv-x="722" d="M26 0l259 729h166l252 -729h-154l-48 147h-273l-49 -147h-153zM270 272h190l-95 285z" />
<glyph unicode="B" horiz-adv-x="722" d="M82 0v729h325q110 0 174 -55.5t64 -136.5q0 -47 -23 -81.5t-77 -68.5q121 -71 121 -177q0 -94 -66.5 -152t-189.5 -58h-328zM232 125h179q111 0 111 94q0 95 -111 95h-179v-189zM232 439h163q106 0 106 82q0 83 -106 83h-163v-165z" />
<glyph unicode="C" horiz-adv-x="722" d="M44 364q0 176 89.5 276.5t244.5 100.5q127 0 211 -68t93 -191h-143q-31 131 -156 131q-89 0 -139 -65.5t-50 -185.5q0 -119 48.5 -183.5t135.5 -64.5q148 0 161 135h146q-7 -124 -90.5 -192.5t-220.5 -68.5q-153 0 -241.5 100.5t-88.5 275.5z" />
<glyph unicode="D" horiz-adv-x="722" d="M77 0v729h285q84 0 138.5 -20t91.5 -64q89 -106 89 -280t-89 -280q-72 -85 -230 -85h-285zM227 125h135q169 0 169 239q0 240 -169 240h-135v-479z" />
<glyph unicode="E" horiz-adv-x="667" d="M79 0v729h527v-125h-377v-165h349v-125h-349v-189h395v-125h-545z" />
<glyph unicode="F" horiz-adv-x="611" d="M74 0v729h512v-125h-362v-165h319v-125h-319v-314h-150z" />
<glyph unicode="G" horiz-adv-x="778" d="M42 365q0 170 97.5 273t255.5 103q132 0 217 -66t99 -179h-141q-40 117 -174 117q-96 0 -150 -64.5t-54 -181.5q0 -112 58.5 -181.5t149.5 -69.5q69 0 123.5 42.5t61.5 108.5h-166v125h292v-392h-90l-18 100q-42 -58 -94.5 -85t-125.5 -27q-148 0 -244.5 106t-96.5 271z " />
<glyph unicode="H" horiz-adv-x="722" d="M68 0v729h150v-273h289v273h150v-729h-150v331h-289v-331h-150z" />
<glyph unicode="I" horiz-adv-x="278" d="M63 0v729h150v-729h-150z" />
<glyph unicode="J" d="M24 209v61h150v-59q0 -50 19 -72.5t62 -22.5q39 0 60 22t21 63v528h150v-528q0 -102 -61 -157.5t-173 -55.5q-105 0 -166.5 57.5t-61.5 163.5z" />
<glyph unicode="K" horiz-adv-x="722" d="M74 0v729h150v-320l285 320h177l-291 -314l322 -415h-179l-239 322l-75 -78v-244h-150z" />
<glyph unicode="L" horiz-adv-x="611" d="M80 0v729h150v-604h349v-125h-499z" />
<glyph unicode="M" horiz-adv-x="833" d="M66 0v729h224l132 -580l128 580h226v-729h-150v568l-129 -568h-150l-131 568v-568h-150z" />
<glyph unicode="N" horiz-adv-x="722" d="M68 0v729h154l289 -496v496h150v-729h-150l-293 504v-504h-150z" />
<glyph unicode="O" horiz-adv-x="778" d="M40 365q0 161 96.5 268.5t253.5 107.5q158 0 255 -107t97 -274q0 -162 -97 -267t-254 -105q-159 0 -255 105.5t-96 271.5zM190 365q0 -114 55 -181.5t146 -67.5q90 0 145.5 67t55.5 178q0 114 -54.5 183t-146.5 69q-90 0 -145.5 -68.5t-55.5 -179.5z" />
<glyph unicode="P" horiz-adv-x="667" d="M76 0v729h322q114 0 174.5 -58t60.5 -168q0 -111 -60 -177t-160 -66h-187v-260h-150zM226 385h140q117 0 117 109q0 56 -28.5 83t-88.5 27h-140v-219z" />
<glyph unicode="Q" horiz-adv-x="778" d="M43 365q0 166 96.5 271t254.5 105t254.5 -105.5t96.5 -268.5q0 -73 -21.5 -140.5t-58.5 -112.5l80 -76l-76 -81l-86 81q-83 -50 -189 -50q-158 0 -254.5 105.5t-96.5 271.5zM193 365q0 -114 54.5 -181.5t145.5 -67.5q52 0 88 19l-77 73l76 81l82 -78q33 66 33 153 q0 112 -55 180.5t-146 68.5t-146 -67t-55 -181z" />
<glyph unicode="R" horiz-adv-x="722" d="M80 0v729h391q94 0 145 -54.5t51 -142.5q0 -132 -123 -180q27 -11 40 -17.5t26.5 -21.5t18 -27t9 -44t5.5 -63t2 -92q0 -42 32 -60v-27h-161q-14 26 -18.5 50t-4.5 75l2 77q0 46 -22 66.5t-71 20.5h-172v-289h-150zM230 414h181q61 0 83.5 23t22.5 74q0 49 -23 71t-83 22 h-181v-190z" />
<glyph unicode="S" horiz-adv-x="667" d="M32 229h146q0 -58 43.5 -89.5t120.5 -31.5q69 0 108 24t39 69q0 43 -30 64t-107 36l-102 20q-111 22 -158 66.5t-47 129.5q0 107 72.5 165.5t203.5 58.5q135 0 210.5 -60t75.5 -174h-140q0 55 -40.5 84.5t-112.5 29.5q-58 0 -92 -24.5t-34 -65.5q0 -40 29 -59.5 t109 -35.5l114 -22q102 -20 147.5 -65t45.5 -130q0 -110 -78.5 -170.5t-220.5 -60.5q-141 0 -221.5 62.5t-80.5 178.5z" />
<glyph unicode="T" horiz-adv-x="611" d="M14 604v125h584v-125h-213v-604h-150v604h-221z" />
<glyph unicode="U" horiz-adv-x="722" d="M76 246v483h150v-483q0 -130 139 -130t139 130v483h150v-483q0 -125 -79.5 -191.5t-209.5 -66.5t-209.5 66.5t-79.5 191.5z" />
<glyph unicode="V" horiz-adv-x="667" d="M24 729h151l162 -549l159 549h151l-250 -729h-127z" />
<glyph unicode="W" horiz-adv-x="944" d="M13 729h159l113 -546l113 546h148l118 -547l109 547h159l-202 -729h-135l-122 569l-119 -569h-135z" />
<glyph unicode="X" horiz-adv-x="667" d="M22 0l230 367l-222 362h178l128 -240l134 240h174l-225 -357l234 -372h-178l-140 253l-139 -253h-174z" />
<glyph unicode="Y" horiz-adv-x="667" d="M27 729h167l149 -322l139 322h168l-231 -459v-270h-150v270z" />
<glyph unicode="Z" horiz-adv-x="611" d="M30 0v125l373 479h-373v125h548v-125l-372 -479h372v-125h-548z" />
<glyph unicode="[" horiz-adv-x="333" d="M66 -200v929h242v-102h-112v-725h112v-102h-242z" />
<glyph unicode="\" horiz-adv-x="278" d="M-26 714h97l234 -728h-97z" />
<glyph unicode="]" horiz-adv-x="333" d="M18 -98h112v725h-112v102h242v-929h-242v102z" />
<glyph unicode="^" horiz-adv-x="584" d="M61 270l165 425h125l171 -425h-113l-121 300l-115 -300h-112z" />
<glyph unicode="_" d="M-22 -120h600v-69h-600v69z" />
<glyph unicode="`" horiz-adv-x="333" d="M-10 752h156l70 -154h-100z" />
<glyph unicode="a" d="M28 146q0 72 38.5 110t120.5 53l56 10q12 2 32 5t28.5 4.5t21 5.5t17.5 9.5t9 15t4 23.5q0 54 -81 54q-52 0 -73 -16t-26 -58h-135q13 187 231 187q221 0 221 -166v-300q0 -37 32 -66v-17h-152q-16 20 -16 68q-74 -77 -164 -77q-71 0 -117.5 40t-46.5 115zM168 162 q0 -58 76 -58q53 0 82 33t29 94v24q-19 -9 -59 -17l-48 -9q-45 -8 -62.5 -22.5t-17.5 -44.5z" />
<glyph unicode="b" horiz-adv-x="611" d="M59 0v729h140v-259q50 79 149 79q103 0 165 -83.5t62 -202.5q0 -121 -64.5 -196.5t-162.5 -75.5q-97 0 -149 71v-62h-140zM199 272q0 -76 32 -120t86 -44q52 0 85 44t33 117q0 74 -33 118.5t-85 44.5q-53 0 -85.5 -43.5t-32.5 -116.5z" />
<glyph unicode="c" d="M34 266q0 137 66.5 210t188.5 73q101 0 163.5 -56t69.5 -155h-134q-12 53 -34.5 75.5t-65.5 22.5q-114 0 -114 -170q0 -78 30 -120t84 -42q40 0 63 20t37 63h134q-10 -87 -74 -141.5t-161 -54.5q-121 0 -187 71t-66 204z" />
<glyph unicode="d" horiz-adv-x="611" d="M29 269q0 122 65 201t162 79q98 0 149 -79v259h140v-729h-140v62q-54 -71 -149 -71q-104 0 -165.5 79.5t-61.5 198.5zM169 269q0 -74 32.5 -117.5t85.5 -43.5t85.5 43t32.5 116q0 77 -32 121t-86 44q-53 0 -85.5 -44.5t-32.5 -118.5z" />
<glyph unicode="e" d="M22 263q0 135 66.5 210.5t183.5 75.5q119 0 186 -79.5t67 -219.5l-1 -17h-362q3 -75 31 -105t81 -30q90 0 107 54h138q-23 -78 -90 -119.5t-160 -41.5q-116 0 -181.5 71.5t-65.5 200.5zM164 326h215q-5 57 -34 86.5t-75 29.5q-92 0 -106 -116z" />
<glyph unicode="f" horiz-adv-x="333" d="M14 436v93h76v65q0 135 138 135q41 0 80 -3v-105q-18 3 -40 3q-38 0 -38 -42v-53h83v-93h-83v-436h-140v436h-76z" />
<glyph unicode="g" horiz-adv-x="611" d="M34 264q0 125 63.5 205t160.5 80q90 0 150 -92v83h133v-558q0 -95 -67.5 -147.5t-189.5 -52.5q-109 0 -173 43t-66 110h145q17 -63 99 -63q53 0 86 30.5t33 79.5v80q-40 -40 -73 -55.5t-80 -15.5q-100 0 -160.5 74t-60.5 199zM174 266q0 -73 31 -115.5t81 -42.5 q55 0 89.5 42.5t34.5 115.5q0 74 -34.5 120t-87.5 46q-51 0 -82.5 -45t-31.5 -121z" />
<glyph unicode="h" horiz-adv-x="611" d="M67 0v729h140v-267q58 87 158 87q80 0 128 -48t48 -139v-362h-140v330q0 100 -86 100q-47 0 -77.5 -30t-30.5 -76v-324h-140z" />
<glyph unicode="i" horiz-adv-x="278" d="M67 0v540h140v-540h-140zM69 605v140h140v-140h-140z" />
<glyph unicode="j" horiz-adv-x="278" d="M4 -101q13 -4 25 -4q23 0 32 9.5t9 32.5v603h140v-634q0 -66 -29 -95t-94 -29q-36 0 -83 5v112zM70 605v140h140v-140h-140z" />
<glyph unicode="k" d="M59 0v729h140v-399l177 210h159l-184 -204l197 -336h-164l-129 238l-56 -61v-177h-140z" />
<glyph unicode="l" horiz-adv-x="278" d="M67 0v729h140v-729h-140z" />
<glyph unicode="m" horiz-adv-x="889" d="M60 0v540h139v-67q35 41 68.5 58.5t79.5 17.5q106 0 147 -80q60 80 158 80q81 0 126.5 -44t45.5 -123v-382h-140v360q0 32 -20.5 51t-55.5 19q-45 0 -70.5 -28t-25.5 -78v-324h-140v360q0 32 -20.5 51t-55.5 19q-45 0 -70.5 -28t-25.5 -78v-324h-140z" />
<glyph unicode="n" horiz-adv-x="611" d="M63 0v540h140v-78q58 87 162 87q86 0 133.5 -49t47.5 -138v-362h-140v333q0 97 -90 97q-51 0 -82 -29t-31 -77v-324h-140z" />
<glyph unicode="o" horiz-adv-x="611" d="M35 270q0 132 71 205.5t195 73.5q128 0 198 -73.5t70 -209.5q0 -129 -71.5 -202t-195.5 -73q-125 0 -196 73t-71 206zM175 270q0 -77 34.5 -121.5t92.5 -44.5q57 0 92 44.5t35 119.5q0 79 -34.5 123.5t-92.5 44.5t-92.5 -44.5t-34.5 -121.5z" />
<glyph unicode="p" horiz-adv-x="611" d="M58 -218v758h140v-80q50 89 150 89q104 0 165 -78t61 -201q0 -122 -64 -200.5t-162 -78.5q-104 0 -150 81v-290h-140zM198 270q0 -75 32.5 -118.5t85.5 -43.5q52 0 85 43.5t33 116.5q0 76 -32 120t-86 44q-53 0 -85.5 -43.5t-32.5 -118.5z" />
<glyph unicode="q" horiz-adv-x="611" d="M28 270q0 123 64 201t162 78q100 0 150 -89v80h140v-758h-140v290q-45 -81 -151 -81q-102 0 -163.5 78t-61.5 201zM168 270q0 -75 32.5 -118.5t85.5 -43.5t85.5 43t32.5 116q0 78 -32 121.5t-86 43.5q-53 0 -85.5 -43.5t-32.5 -118.5z" />
<glyph unicode="r" horiz-adv-x="389" d="M63 0v540h140v-106q22 55 62 85t88 30q9 0 17 -1v-142q-25 4 -44 4q-123 0 -123 -123v-287h-140z" />
<glyph unicode="s" d="M29 171h137q9 -41 34 -55.5t76 -14.5q104 0 104 46q0 22 -47 37l-167 52q-71 22 -94.5 51t-23.5 82q0 83 59.5 131.5t162.5 48.5q109 0 171 -48.5t64 -134.5h-135q-1 73 -101 73q-37 0 -59 -13.5t-22 -36.5q0 -17 10 -25.5t39 -16.5l177 -51q106 -31 106 -129v-7 q0 -82 -61 -125.5t-175 -43.5q-249 0 -255 180z" />
<glyph unicode="t" horiz-adv-x="333" d="M14 436v93h69v145h140v-145h78v-93h-78v-282q0 -36 9 -47.5t37 -11.5q11 0 32 3v-98q-6 0 -34.5 -2t-46.5 -2q-70 0 -103.5 28.5t-33.5 91.5v320h-69z" />
<glyph unicode="u" horiz-adv-x="611" d="M58 178v362h140v-333q0 -97 90 -97q51 0 82 29t31 77v324h140v-540h-140v71q-60 -80 -162 -80q-86 0 -133.5 49t-47.5 138z" />
<glyph unicode="v" d="M14 540h148l117 -395l109 395h148l-186 -540h-147z" />
<glyph unicode="w" horiz-adv-x="778" d="M5 540h145l86 -378l82 378h140l81 -378l82 378h145l-153 -540h-145l-81 381l-86 -381h-144z" />
<glyph unicode="x" d="M16 0l180 272l-176 268h168l88 -163l87 163h168l-176 -268l180 -272h-168l-91 168l-92 -168h-168z" />
<glyph unicode="y" d="M9 540h154l119 -393l112 393h144l-222 -639q-26 -73 -65 -96.5t-115 -23.5q-22 0 -50 4v105q22 -6 37 -6q37 0 62 26t25 64v3z" />
<glyph unicode="z" horiz-adv-x="500" d="M21 0v113l267 314h-249v113h420v-113l-265 -314h274v-113h-447z" />
<glyph unicode="{" horiz-adv-x="389" d="M37 223v92h16q65 0 65 63v211q0 61 34.5 100.5t88.5 39.5h76v-99h-37q-45 0 -45 -57v-195q0 -55 -20.5 -78t-76.5 -31q56 -9 76.5 -32t20.5 -78v-195q0 -37 10 -51t35 -14h37v-99h-76q-54 0 -88.5 39.5t-34.5 100.5v210q0 42 -15 57t-62 15z" />
<glyph unicode="|" horiz-adv-x="280" d="M90 -200v929h100v-929h-100z" />
<glyph unicode="}" horiz-adv-x="389" d="M72 -101h37q45 0 45 57v195q0 55 20.5 78t76.5 31q-56 9 -76.5 32t-20.5 78v195q0 37 -10 51t-35 14h-37v99h76q54 0 88.5 -39.5t34.5 -100.5v-210q0 -42 15 -57t62 -15l4 -1v-92h-16q-65 -1 -65 -63v-211q0 -61 -34.5 -100.5t-88.5 -39.5h-76v99z" />
<glyph unicode="~" horiz-adv-x="584" d="M60 169q7 145 127 145q48 0 83 -25l57 -42q34 -25 61 -25q28 0 40 13.5t13 52.5h78q-9 -146 -127 -146q-49 0 -83 26l-57 42q-32 24 -61 24q-28 0 -40 -13.5t-13 -51.5h-78z" />
<glyph unicode="&#xa1;" horiz-adv-x="333" d="M92 24l42 309h67l41 -309v-210h-150v210zM92 394v146h150v-146h-150z" />
<glyph unicode="&#xa2;" d="M36 259q0 129 57 203.5t166 85.5v86h44v-85q92 -1 152.5 -59.5t66.5 -151.5h-134q-10 46 -30 69t-55 28v-344q34 5 54 27.5t31 68.5h134q-8 -90 -69 -148t-150 -62v-101h-44v102q-104 7 -163.5 81.5t-59.5 199.5zM176 260q0 -141 83 -166v339q-83 -22 -83 -173z" />
<glyph unicode="&#xa3;" d="M31 80q63 43 86.5 75t23.5 76q0 34 -21 85h-89v55h60q-34 59 -43.5 85.5t-9.5 59.5q0 85 65.5 142t172.5 57q117 0 176.5 -55.5t69.5 -175.5h-132l-1 11q-14 109 -112 109q-43 0 -70.5 -25.5t-27.5 -65.5q0 -22 27 -77q23 -47 30 -65h139v-55h-122q15 -32 15 -59 q0 -44 -26 -82.5t-90 -88.5q78 37 112 37q2 0 54 -10.5t73 -10.5q47 0 105 29l41 -109q-76 -45 -145 -45q-17 0 -98 16t-99 16q-49 0 -109 -30z" />
<glyph unicode="&#xa4;" d="M-3 142l98 98q-31 51 -31 117t31 115l-98 98l66 66l98 -98q54 33 117 33q67 0 117 -33l98 98l66 -66l-98 -98q33 -50 33 -115q0 -67 -33 -117l98 -98l-66 -66l-98 98q-50 -33 -117 -33q-63 0 -117 33l-98 -98zM176 357q0 -48 28 -80.5t74 -32.5t75 32.5t29 80.5t-29 79.5 t-75 31.5t-74 -31.5t-28 -79.5z" />
<glyph unicode="&#xa5;" d="M5 704h139l139 -254l134 254h135l-192 -353h137v-59h-142v-53h142v-59h-142v-180h-140v180h-145v59h145v53h-145v59h138z" />
<glyph unicode="&#xa6;" horiz-adv-x="280" d="M90 172h100v-372h-100v372zM90 357v372h100v-372h-100z" />
<glyph unicode="&#xa7;" d="M33 281q0 45 19.5 75.5t72.5 71.5q-37 37 -49 61t-12 62q0 75 59 123.5t150 48.5q193 0 200 -179h-127q-10 77 -78 77q-29 0 -46.5 -14t-17.5 -37q0 -21 18.5 -38.5t71.5 -46.5l127 -70q97 -54 97 -153q0 -50 -22 -82.5t-72 -55.5q70 -49 70 -134t-60 -138t-158 -53 q-209 0 -211 201h131v-10q3 -46 23.5 -63t57.5 -17q34 0 55 17t21 44q0 26 -10 38.5t-60 39.5l-171 100q-79 46 -79 132zM152 317q0 -23 11.5 -38t41.5 -32l147 -80q46 32 46 65q0 24 -13 39.5t-48 34.5l-143 76q-42 -25 -42 -65z" />
<glyph unicode="&#xa8;" horiz-adv-x="333" d="M6 618v115h126v-115h-126zM201 618v115h126v-115h-126z" />
<glyph unicode="&#xa9;" horiz-adv-x="737" d="M21 340q0 144 102 246.5t246 102.5t246.5 -102.5t102.5 -246.5t-102.5 -246t-246.5 -102t-246 102t-102 246zM80 340q0 -120 84.5 -204.5t204.5 -84.5t205 84.5t85 204.5t-85 205t-205 85t-204.5 -85t-84.5 -205zM180 339q0 94 52.5 147.5t143.5 53.5q77 0 127 -39 t53 -109h-95q-15 67 -82 67q-47 0 -72.5 -31.5t-25.5 -89.5q0 -57 25 -88t70 -31q81 0 84 69h98q-1 -70 -51 -109.5t-133 -39.5q-90 0 -142 53.5t-52 146.5z" />
<glyph unicode="&#xaa;" horiz-adv-x="370" d="M31 484q0 44 23 69t72 34l34 6q47 8 57 14.5t10 22.5q0 31 -49 31q-30 0 -43 -10t-16 -34h-78q2 112 135 112t133 -100v-179q0 -22 20 -40v-10h-92q-9 11 -10 32q-43 -46 -98 -46q-44 0 -71 27t-27 71zM37 262v78h284v-78h-284zM115 493q0 -39 46 -39q31 0 48.5 20 t17.5 56v23q-9 -5 -35 -10l-29 -6q-26 -5 -37 -15t-11 -29z" />
<glyph unicode="&#xab;" d="M88 218v114l167 149v-117l-101 -89l101 -89v-114zM301 218v114l167 149v-117l-101 -89l101 -89v-114z" />
<glyph unicode="&#xac;" horiz-adv-x="584" d="M60 291v100h464v-232h-100v132h-364z" />
<glyph unicode="&#xad;" horiz-adv-x="333" d="M26 207v135h272v-135h-272z" />
<glyph unicode="&#xae;" horiz-adv-x="737" d="M21 340q0 144 102 246.5t246 102.5t246.5 -102.5t102.5 -246.5t-102.5 -246t-246.5 -102t-246 102t-102 246zM80 340q0 -120 84.5 -204.5t204.5 -84.5t205 84.5t85 204.5t-85 205t-205 85t-204.5 -85t-84.5 -205zM193 145v389h228q57 0 87.5 -30.5t30.5 -78.5 q0 -64 -56 -92q29 -13 35.5 -35.5t8.5 -102.5q1 -16 18 -23v-27h-103q-17 27 -17 72q0 4 1 20t1 19q0 37 -45 37h-89v-148h-100zM293 373h94q30 0 41 9.5t11 32.5q0 21 -11.5 30t-40.5 9h-94v-81z" />
<glyph unicode="&#xaf;" horiz-adv-x="333" d="M16 636v79h299v-79h-299z" />
<glyph unicode="&#xb0;" horiz-adv-x="400" d="M57 569q0 59 42 101t101 42t101 -42t42 -101t-42 -101t-101 -42t-101 42t-42 101zM113 569q0 -36 25.5 -61.5t61.5 -25.5t61.5 25.5t25.5 61.5t-25.5 61.5t-61.5 25.5t-61.5 -25.5t-25.5 -61.5z" />
<glyph unicode="&#xb1;" horiz-adv-x="584" d="M60 0v100h464v-100h-464zM60 300v100h182v182h100v-182h182v-100h-182v-110h-100v110h-182z" />
<glyph unicode="&#xb2;" horiz-adv-x="333" d="M28 336q1 54 20.5 84.5t71.5 64.5q64 42 81.5 62t17.5 49q0 27 -14 42t-40 15q-52 0 -52 -63l1 -14h-81q-1 7 -1 16q0 61 36 93.5t102 32.5q64 0 98.5 -30.5t34.5 -87.5q0 -39 -18.5 -64.5t-71.5 -64.5q-54 -37 -61 -46q-3 -3 -16 -18h165v-71h-273z" />
<glyph unicode="&#xb3;" horiz-adv-x="333" d="M30 450h81q4 -58 57 -58q24 0 39.5 15t15.5 38q0 55 -74 55h-14v55h10q66 0 66 51q0 22 -13 35t-34 13q-27 0 -38.5 -15.5t-11.5 -50.5h-78q3 68 36 99t95 31q58 0 92.5 -28t34.5 -75q0 -50 -46 -78q59 -29 59 -91q0 -55 -38.5 -88.5t-101.5 -33.5q-65 0 -100.5 33 t-36.5 93z" />
<glyph unicode="&#xb4;" horiz-adv-x="333" d="M117 598l70 154h156l-126 -154h-100z" />
<glyph unicode="&#xb5;" horiz-adv-x="611" d="M58 -220v760h140v-334q0 -110 84 -110q44 0 72.5 30t28.5 76v338h140v-390q0 -44 6 -58.5t24 -14.5q7 0 20 4v-87q-33 -17 -70 -17q-35 0 -56 12t-39 42q-29 -30 -55 -42t-61 -12q-61 0 -100 38v-235h-134z" />
<glyph unicode="&#xb6;" d="M19 495q0 96 59.5 165t147.5 69h303v-72h-43v-848h-98v848h-63v-848h-98v458q-92 4 -150 68t-58 160z" />
<glyph unicode="&#xb7;" horiz-adv-x="278" d="M64 250q0 31 22 53t53 22t53 -22t22 -53t-22 -53t-53 -22t-53 22t-22 53z" />
<glyph unicode="&#xb8;" horiz-adv-x="333" d="M27 -201l19 61q69 -30 105 -30q24 0 40.5 12t16.5 29q0 31 -51 31h-64l49 103h63l-27 -55h40q35 0 55.5 -21.5t20.5 -55.5q0 -46 -34 -74t-95 -28q-55 0 -138 28z" />
<glyph unicode="&#xb9;" horiz-adv-x="333" d="M53 589v54q103 0 122 66h56v-374h-84v254h-94z" />
<glyph unicode="&#xba;" horiz-adv-x="365" d="M23 557q0 80 43 126t117 46q76 0 118 -46t42 -128q0 -78 -43 -123.5t-117 -45.5t-117 46t-43 125zM33 262v78h301v-78h-301zM107 558q0 -46 21 -75t55 -29t55 28.5t21 73.5q0 47 -21 76t-55 29t-55 -28.5t-21 -74.5z" />
<glyph unicode="&#xbb;" d="M88 72v117l101 89l-101 89v114l167 -146v-115zM295 72v117l101 89l-101 89v114l167 -146v-115z" />
<glyph unicode="&#xbc;" horiz-adv-x="834" d="M64 589v54q102 0 122 66h56v-374h-84v254h-94zM160 -25l423 740h87l-423 -740h-87zM476 82v65l146 227h96v-226h40v-66h-40v-82h-84v82h-158zM541 148h93v144z" />
<glyph unicode="&#xbd;" horiz-adv-x="834" d="M64 589v54q102 0 122 66h56v-374h-84v254h-94zM134 -25l423 740h87l-423 -740h-87zM500 0q1 53 20 84t71 65q65 42 82.5 62t17.5 49q0 27 -14 42t-40 15q-25 0 -39 -16.5t-14 -46.5l2 -14h-81q-1 7 -1 16q0 61 36 93.5t102 32.5q64 0 98 -30.5t34 -87.5q0 -40 -18 -66 t-71 -62q-53 -37 -62 -48q-3 -3 -15 -17h165v-71h-273z" />
<glyph unicode="&#xbe;" horiz-adv-x="834" d="M63 450h81q4 -58 57 -58q24 0 39.5 15t15.5 38q0 55 -74 55h-14v55h10q66 0 66 51q0 22 -13 35t-34 13q-27 0 -38.5 -15.5t-11.5 -50.5h-78q3 68 36 99t95 31q58 0 92.5 -28t34.5 -75q0 -50 -46 -78q59 -29 59 -91q0 -55 -38.5 -88.5t-101.5 -33.5q-65 0 -100.5 33 t-36.5 93zM192 -25l423 740h87l-423 -740h-87zM476 82v65l146 227h96v-226h40v-66h-40v-82h-84v82h-158zM541 148h93v144z" />
<glyph unicode="&#xbf;" horiz-adv-x="611" d="M60 26q0 63 25 104t95 90q45 32 56 51t11 68h124v-14q0 -57 -21.5 -97t-77.5 -87q-45 -37 -58 -57.5t-13 -54.5q0 -49 30 -82t75 -33q48 0 79 38t31 96v11h136q0 -132 -65 -197.5t-178 -65.5q-110 0 -179.5 64t-69.5 166zM231 394v146h150v-146h-150z" />
<glyph unicode="&#xc0;" horiz-adv-x="722" d="M26 0l259 729h166l252 -729h-154l-48 147h-273l-49 -147h-153zM180 921h165l76 -135h-106zM270 272h190l-95 285z" />
<glyph unicode="&#xc1;" horiz-adv-x="722" d="M26 0l259 729h166l252 -729h-154l-48 147h-273l-49 -147h-153zM270 272h190l-95 285zM315 786l76 135h165l-135 -135h-106z" />
<glyph unicode="&#xc2;" horiz-adv-x="722" d="M26 0l259 729h166l252 -729h-154l-48 147h-273l-49 -147h-153zM177 787l130 135h128l124 -135h-94l-98 70l-99 -70h-91zM270 272h190l-95 285z" />
<glyph unicode="&#xc3;" horiz-adv-x="722" d="M26 0l259 729h166l252 -729h-154l-48 147h-273l-49 -147h-153zM193 790q3 58 28 91t66 33q20 0 56 -13l71 -25q14 -6 34 -6q32 0 36 48h63q-6 -127 -95 -127q-23 0 -55 12l-71 26q-18 6 -30 6q-18 0 -27 -10.5t-13 -34.5h-63zM270 272h190l-95 285z" />
<glyph unicode="&#xc4;" horiz-adv-x="722" d="M26 0l259 729h166l252 -729h-154l-48 147h-273l-49 -147h-153zM208 797v115h126v-115h-126zM270 272h190l-95 285zM403 797v115h126v-115h-126z" />
<glyph unicode="&#xc5;" horiz-adv-x="722" d="M26 0l259 729h166l252 -729h-154l-48 147h-273l-49 -147h-153zM269 863q0 41 29 70t72 29q41 0 69.5 -29t28.5 -71q0 -40 -29.5 -69t-69.5 -29q-42 0 -71 29t-29 70zM270 272h190l-95 285zM322 863q0 -19 14 -32.5t34 -13.5q18 0 31.5 13.5t13.5 32.5t-13 32.5t-32 13.5 q-20 0 -34 -13.5t-14 -32.5z" />
<glyph unicode="&#xc6;" horiz-adv-x="1000" d="M1 0l263 729h682v-125h-366v-165h339v-125h-339v-189h386v-125h-536v152h-223l-53 -152h-153zM249 277h181v327h-67z" />
<glyph unicode="&#xc7;" horiz-adv-x="722" d="M44 364q0 176 89.5 276.5t244.5 100.5q127 0 211 -68t93 -191h-143q-31 131 -156 131q-89 0 -139 -65.5t-50 -185.5q0 -119 48.5 -183.5t135.5 -64.5q148 0 161 135h146q-7 -119 -83.5 -187t-204.5 -73l-19 -39h40q35 0 55.5 -21.5t20.5 -55.5q0 -46 -34 -74t-95 -28 q-55 0 -138 28l19 61q69 -30 105 -30q24 0 40.5 12t16.5 29q0 31 -51 31h-64l42 88q-136 13 -213.5 112t-77.5 262z" />
<glyph unicode="&#xc8;" horiz-adv-x="667" d="M79 0v729h527v-125h-377v-165h349v-125h-349v-189h395v-125h-545zM155 921h165l76 -135h-106z" />
<glyph unicode="&#xc9;" horiz-adv-x="667" d="M79 0v729h527v-125h-377v-165h349v-125h-349v-189h395v-125h-545zM290 786l76 135h165l-135 -135h-106z" />
<glyph unicode="&#xca;" horiz-adv-x="667" d="M79 0v729h527v-125h-377v-165h349v-125h-349v-189h395v-125h-545zM152 787l130 135h128l124 -135h-94l-98 70l-99 -70h-91z" />
<glyph unicode="&#xcb;" horiz-adv-x="667" d="M79 0v729h527v-125h-377v-165h349v-125h-349v-189h395v-125h-545zM183 797v115h126v-115h-126zM378 797v115h126v-115h-126z" />
<glyph unicode="&#xcc;" horiz-adv-x="278" d="M-28 921h165l76 -135h-106zM63 0v729h150v-729h-150z" />
<glyph unicode="&#xcd;" horiz-adv-x="278" d="M63 0v729h150v-729h-150zM64 786l76 135h165l-135 -135h-106z" />
<glyph unicode="&#xce;" horiz-adv-x="278" d="M-53 787l130 135h128l124 -135h-94l-98 70l-99 -70h-91zM63 0v729h150v-729h-150z" />
<glyph unicode="&#xcf;" horiz-adv-x="278" d="M-22 797v115h126v-115h-126zM63 0v729h150v-729h-150zM173 797v115h126v-115h-126z" />
<glyph unicode="&#xd0;" horiz-adv-x="722" d="M0 339v80h77v310h285q86 0 140.5 -20t90.5 -64q41 -51 64.5 -125.5t23.5 -154.5q0 -81 -23.5 -154.5t-64.5 -125.5q-36 -45 -90.5 -65t-140.5 -20h-285v339h-77zM227 125h135q97 0 136 62.5t39 176.5q0 115 -39 177.5t-136 62.5h-135v-185h150v-80h-150v-214z" />
<glyph unicode="&#xd1;" horiz-adv-x="722" d="M68 0v729h154l289 -496v496h150v-729h-150l-293 504v-504h-150zM186 790q3 58 28 91t66 33q20 0 56 -13l71 -25q14 -6 34 -6q31 0 36 48h63q-6 -127 -95 -127q-23 0 -55 12l-71 26q-18 6 -30 6q-18 0 -27 -10.5t-13 -34.5h-63z" />
<glyph unicode="&#xd2;" horiz-adv-x="778" d="M40 365q0 161 96.5 268.5t253.5 107.5q158 0 255 -107t97 -274q0 -162 -97 -267t-254 -105q-159 0 -255 105.5t-96 271.5zM190 365q0 -114 55 -181.5t146 -67.5q90 0 145.5 67t55.5 178q0 114 -54.5 183t-146.5 69q-90 0 -145.5 -68.5t-55.5 -179.5zM202 921h165l76 -135 h-106z" />
<glyph unicode="&#xd3;" horiz-adv-x="778" d="M40 365q0 161 96.5 268.5t253.5 107.5q158 0 255 -107t97 -274q0 -162 -97 -267t-254 -105q-159 0 -255 105.5t-96 271.5zM190 365q0 -114 55 -181.5t146 -67.5q90 0 145.5 67t55.5 178q0 114 -54.5 183t-146.5 69q-90 0 -145.5 -68.5t-55.5 -179.5zM337 786l76 135h165 l-135 -135h-106z" />
<glyph unicode="&#xd4;" horiz-adv-x="778" d="M40 365q0 161 96.5 268.5t253.5 107.5q158 0 255 -107t97 -274q0 -162 -97 -267t-254 -105q-159 0 -255 105.5t-96 271.5zM190 365q0 -114 55 -181.5t146 -67.5q90 0 145.5 67t55.5 178q0 114 -54.5 183t-146.5 69q-90 0 -145.5 -68.5t-55.5 -179.5zM199 787l130 135h128 l124 -135h-94l-98 70l-99 -70h-91z" />
<glyph unicode="&#xd5;" horiz-adv-x="778" d="M40 365q0 161 96.5 268.5t253.5 107.5q158 0 255 -107t97 -274q0 -162 -97 -267t-254 -105q-159 0 -255 105.5t-96 271.5zM190 365q0 -114 55 -181.5t146 -67.5q90 0 145.5 67t55.5 178q0 114 -54.5 183t-146.5 69q-90 0 -145.5 -68.5t-55.5 -179.5zM215 790q3 58 28 91 t66 33q20 0 56 -13l71 -25q14 -6 34 -6q32 0 36 48h63q-6 -127 -95 -127q-23 0 -55 12l-71 26q-18 6 -30 6q-18 0 -27 -10.5t-13 -34.5h-63z" />
<glyph unicode="&#xd6;" horiz-adv-x="778" d="M40 365q0 161 96.5 268.5t253.5 107.5q158 0 255 -107t97 -274q0 -162 -97 -267t-254 -105q-159 0 -255 105.5t-96 271.5zM190 365q0 -114 55 -181.5t146 -67.5q90 0 145.5 67t55.5 178q0 114 -54.5 183t-146.5 69q-90 0 -145.5 -68.5t-55.5 -179.5zM230 797v115h126 v-115h-126zM425 797v115h126v-115h-126z" />
<glyph unicode="&#xd7;" horiz-adv-x="584" d="M93 121l128 129l-128 129l70 70l129 -128l129 128l70 -70l-128 -129l128 -129l-70 -70l-129 128l-129 -128z" />
<glyph unicode="&#xd8;" horiz-adv-x="778" d="M40 365q0 161 96.5 268.5t253.5 107.5q128 0 218 -73l65 70l68 -64l-69 -74q70 -100 70 -240q0 -162 -97 -267t-254 -105q-129 0 -218 72l-64 -69l-68 64l68 73q-69 98 -69 237zM190 365q0 -70 22 -125l303 328q-50 45 -124 45q-90 0 -145.5 -68.5t-55.5 -179.5zM266 161 q51 -45 125 -45q90 0 145.5 67t55.5 178q0 71 -23 128z" />
<glyph unicode="&#xd9;" horiz-adv-x="722" d="M76 246v483h150v-483q0 -130 139 -130t139 130v483h150v-483q0 -125 -79.5 -191.5t-209.5 -66.5t-209.5 66.5t-79.5 191.5zM173 921h165l76 -135h-106z" />
<glyph unicode="&#xda;" horiz-adv-x="722" d="M76 246v483h150v-483q0 -130 139 -130t139 130v483h150v-483q0 -125 -79.5 -191.5t-209.5 -66.5t-209.5 66.5t-79.5 191.5zM308 786l76 135h165l-135 -135h-106z" />
<glyph unicode="&#xdb;" horiz-adv-x="722" d="M76 246v483h150v-483q0 -130 139 -130t139 130v483h150v-483q0 -125 -79.5 -191.5t-209.5 -66.5t-209.5 66.5t-79.5 191.5zM170 787l130 135h128l124 -135h-94l-98 70l-99 -70h-91z" />
<glyph unicode="&#xdc;" horiz-adv-x="722" d="M76 246v483h150v-483q0 -130 139 -130t139 130v483h150v-483q0 -125 -79.5 -191.5t-209.5 -66.5t-209.5 66.5t-79.5 191.5zM201 797v115h126v-115h-126zM396 797v115h126v-115h-126z" />
<glyph unicode="&#xdd;" horiz-adv-x="667" d="M27 729h167l149 -322l139 322h168l-231 -459v-270h-150v270zM291 786l76 135h165l-135 -135h-106z" />
<glyph unicode="&#xde;" horiz-adv-x="667" d="M76 0v729h150v-120h172q116 0 173 -56q62 -61 62 -171q0 -112 -59.5 -177t-160.5 -65h-187v-140h-150zM226 265h140q117 0 117 109q0 56 -28.5 83t-88.5 27h-140v-219z" />
<glyph unicode="&#xdf;" horiz-adv-x="611" d="M67 0v518q0 211 236 211q101 0 165 -51t64 -131q0 -102 -87 -136q62 -13 96 -59t34 -116q0 -114 -60 -183.5t-158 -69.5q-23 0 -72 6v112l13 1l20 1q52 2 84.5 35.5t32.5 87.5q0 57 -36.5 90t-100.5 33h-13v95h9q45 1 71.5 25t26.5 64q0 39 -26 61t-72 22q-41 0 -64 -21 t-23 -58v-537h-140z" />
<glyph unicode="&#xe0;" d="M28 146q0 72 38.5 110t120.5 53l56 10q12 2 32 5t28.5 4.5t21 5.5t17.5 9.5t9 15t4 23.5q0 54 -81 54q-52 0 -73 -16t-26 -58h-135q13 187 231 187q221 0 221 -166v-300q0 -37 32 -66v-17h-152q-16 20 -16 68q-74 -77 -164 -77q-71 0 -117.5 40t-46.5 115zM95 752h156 l70 -154h-100zM168 162q0 -58 76 -58q53 0 82 33t29 94v24q-19 -9 -59 -17l-48 -9q-45 -8 -62.5 -22.5t-17.5 -44.5z" />
<glyph unicode="&#xe1;" d="M28 146q0 72 38.5 110t120.5 53l56 10q12 2 32 5t28.5 4.5t21 5.5t17.5 9.5t9 15t4 23.5q0 54 -81 54q-52 0 -73 -16t-26 -58h-135q13 187 231 187q221 0 221 -166v-300q0 -37 32 -66v-17h-152q-16 20 -16 68q-74 -77 -164 -77q-71 0 -117.5 40t-46.5 115zM168 162 q0 -58 76 -58q53 0 82 33t29 94v24q-19 -9 -59 -17l-48 -9q-45 -8 -62.5 -22.5t-17.5 -44.5zM221 598l70 154h156l-126 -154h-100z" />
<glyph unicode="&#xe2;" d="M28 146q0 72 38.5 110t120.5 53l56 10q12 2 32 5t28.5 4.5t21 5.5t17.5 9.5t9 15t4 23.5q0 54 -81 54q-52 0 -73 -16t-26 -58h-135q13 187 231 187q221 0 221 -166v-300q0 -37 32 -66v-17h-152q-16 20 -16 68q-74 -77 -164 -77q-71 0 -117.5 40t-46.5 115zM102 598 l108 154h127l103 -154h-88l-82 77l-82 -77h-86zM168 162q0 -58 76 -58q53 0 82 33t29 94v24q-19 -9 -59 -17l-48 -9q-45 -8 -62.5 -22.5t-17.5 -44.5z" />
<glyph unicode="&#xe3;" d="M28 146q0 72 38.5 110t120.5 53l56 10q12 2 32 5t28.5 4.5t21 5.5t17.5 9.5t9 15t4 23.5q0 54 -81 54q-52 0 -73 -16t-26 -58h-135q13 187 231 187q221 0 221 -166v-300q0 -37 32 -66v-17h-152q-16 20 -16 68q-74 -77 -164 -77q-71 0 -117.5 40t-46.5 115zM95 611 q3 58 28 91t66 33q20 0 56 -13l71 -25q14 -6 34 -6q32 0 36 48h63q-6 -127 -95 -127q-24 0 -55 12l-71 26q-18 6 -30 6q-18 0 -27 -10.5t-13 -34.5h-63zM168 162q0 -58 76 -58q53 0 82 33t29 94v24q-19 -9 -59 -17l-48 -9q-45 -8 -62.5 -22.5t-17.5 -44.5z" />
<glyph unicode="&#xe4;" d="M28 146q0 72 38.5 110t120.5 53l56 10q12 2 32 5t28.5 4.5t21 5.5t17.5 9.5t9 15t4 23.5q0 54 -81 54q-52 0 -73 -16t-26 -58h-135q13 187 231 187q221 0 221 -166v-300q0 -37 32 -66v-17h-152q-16 20 -16 68q-74 -77 -164 -77q-71 0 -117.5 40t-46.5 115zM110 618v115 h126v-115h-126zM168 162q0 -58 76 -58q53 0 82 33t29 94v24q-19 -9 -59 -17l-48 -9q-45 -8 -62.5 -22.5t-17.5 -44.5zM305 618v115h126v-115h-126z" />
<glyph unicode="&#xe5;" d="M28 146q0 72 38.5 110t120.5 53l56 10q12 2 32 5t28.5 4.5t21 5.5t17.5 9.5t9 15t4 23.5q0 54 -81 54q-52 0 -73 -16t-26 -58h-135q13 187 231 187q221 0 221 -166v-300q0 -37 32 -66v-17h-152q-16 20 -16 68q-74 -77 -164 -77q-71 0 -117.5 40t-46.5 115zM168 162 q0 -58 76 -58q53 0 82 33t29 94v24q-19 -9 -59 -17l-48 -9q-45 -8 -62.5 -22.5t-17.5 -44.5zM171 675q0 41 29 70t72 29q41 0 69.5 -29t28.5 -71q0 -40 -29.5 -69t-69.5 -29q-42 0 -71 29t-29 70zM224 675q0 -19 14 -32.5t34 -13.5q18 0 31.5 13.5t13.5 32.5t-13 32.5 t-32 13.5q-20 0 -34 -13.5t-14 -32.5z" />
<glyph unicode="&#xe6;" horiz-adv-x="889" d="M27 149q0 73 38 110.5t121 52.5l56 10q13 2 28.5 4.5t21 3.5t12.5 2.5t10.5 3l7 3t8.5 4.5q24 13 24 40q0 53 -85 53q-47 0 -68.5 -16.5t-26.5 -57.5h-131q3 187 228 187q117 0 175 -50q62 50 155 50q121 0 188.5 -78.5t67.5 -220.5q0 -12 -1 -24h-362q0 -62 31 -94.5 t83 -32.5q34 0 64 16.5t40 36.5h138q-24 -70 -92.5 -115t-157.5 -45q-136 0 -200 104q-89 -105 -205 -105q-78 0 -123 41.5t-45 116.5zM167 163q0 -59 76 -59q54 0 82.5 32.5t28.5 94.5v23q-24 -14 -59 -19l-48 -7q-42 -6 -61 -20.5t-19 -44.5zM495 319h216 q-11 123 -109 123t-107 -123z" />
<glyph unicode="&#xe7;" d="M34 266q0 137 66.5 210t188.5 73q101 0 163.5 -56t69.5 -155h-134q-12 53 -34.5 75.5t-65.5 22.5q-114 0 -114 -170q0 -78 30 -120t84 -42q40 0 63 20t37 63h134q-9 -82 -67 -135.5t-147 -59.5l-20 -42h40q35 0 55.5 -21.5t20.5 -55.5q0 -46 -34 -74t-95 -28 q-55 0 -138 28l19 61q69 -30 105 -30q24 0 40.5 12t16.5 29q0 31 -51 31h-64l43 91q-102 12 -157 82t-55 191z" />
<glyph unicode="&#xe8;" d="M22 263q0 135 66.5 210.5t183.5 75.5q119 0 186 -79.5t67 -219.5l-1 -17h-362q3 -75 31 -105t81 -30q90 0 107 54h138q-23 -78 -90 -119.5t-160 -41.5q-116 0 -181.5 71.5t-65.5 200.5zM96 752h156l70 -154h-100zM164 326h215q-5 57 -34 86.5t-75 29.5q-92 0 -106 -116z " />
<glyph unicode="&#xe9;" d="M22 263q0 135 66.5 210.5t183.5 75.5q119 0 186 -79.5t67 -219.5l-1 -17h-362q3 -75 31 -105t81 -30q90 0 107 54h138q-23 -78 -90 -119.5t-160 -41.5q-116 0 -181.5 71.5t-65.5 200.5zM164 326h215q-5 57 -34 86.5t-75 29.5q-92 0 -106 -116zM222 598l70 154h156 l-126 -154h-100z" />
<glyph unicode="&#xea;" d="M22 263q0 135 66.5 210.5t183.5 75.5q119 0 186 -79.5t67 -219.5l-1 -17h-362q3 -75 31 -105t81 -30q90 0 107 54h138q-23 -78 -90 -119.5t-160 -41.5q-116 0 -181.5 71.5t-65.5 200.5zM103 598l108 154h127l103 -154h-88l-82 77l-82 -77h-86zM164 326h215 q-5 57 -34 86.5t-75 29.5q-92 0 -106 -116z" />
<glyph unicode="&#xeb;" d="M22 263q0 135 66.5 210.5t183.5 75.5q119 0 186 -79.5t67 -219.5l-1 -17h-362q3 -75 31 -105t81 -30q90 0 107 54h138q-23 -78 -90 -119.5t-160 -41.5q-116 0 -181.5 71.5t-65.5 200.5zM111 618v115h126v-115h-126zM164 326h215q-5 57 -34 86.5t-75 29.5q-92 0 -106 -116 zM306 618v115h126v-115h-126z" />
<glyph unicode="&#xec;" horiz-adv-x="278" d="M-19 752h156l70 -154h-100zM67 0v540h140v-540h-140z" />
<glyph unicode="&#xed;" horiz-adv-x="278" d="M67 0v540h140v-540h-140zM68 598l70 154h156l-126 -154h-100z" />
<glyph unicode="&#xee;" horiz-adv-x="278" d="M-30 598l108 154h127l103 -154h-88l-82 77l-82 -77h-86zM67 0v540h140v-540h-140z" />
<glyph unicode="&#xef;" horiz-adv-x="278" d="M-22 618v115h126v-115h-126zM67 0v540h140v-540h-140zM173 618v115h126v-115h-126z" />
<glyph unicode="&#xf0;" horiz-adv-x="611" d="M35 272q0 119 66 190.5t173 71.5q36 0 85 -19q-40 64 -95 96l-77 -46l-42 37l70 44q-38 23 -90 48l67 47q35 -13 87 -42q7 -4 15 -7l87 52l51 -34l-84 -50q114 -77 167.5 -169t53.5 -215q0 -137 -70 -211t-197 -74q-126 0 -196.5 73.5t-70.5 207.5zM176 267 q0 -76 34 -119.5t92 -43.5t92 42.5t34 116.5v1q0 78 -34 121.5t-92 43.5t-92 -43t-34 -119z" />
<glyph unicode="&#xf1;" horiz-adv-x="611" d="M63 0v540h140v-78q58 87 162 87q86 0 133.5 -49t47.5 -138v-362h-140v333q0 97 -90 97q-51 0 -82 -29t-31 -77v-324h-140zM130 611q3 58 28 91t66 33q20 0 56 -13l71 -25q14 -6 34 -6q31 0 36 48h63q-6 -127 -95 -127q-23 0 -55 12l-71 26q-18 6 -30 6q-18 0 -27 -10.5 t-13 -34.5h-63z" />
<glyph unicode="&#xf2;" horiz-adv-x="611" d="M35 270q0 132 71 205.5t195 73.5q128 0 198 -73.5t70 -209.5q0 -129 -71.5 -202t-195.5 -73q-125 0 -196 73t-71 206zM129 752h156l70 -154h-100zM175 270q0 -77 34.5 -121.5t92.5 -44.5q57 0 92 44.5t35 119.5q0 79 -34.5 123.5t-92.5 44.5t-92.5 -44.5t-34.5 -121.5z " />
<glyph unicode="&#xf3;" horiz-adv-x="611" d="M35 270q0 132 71 205.5t195 73.5q128 0 198 -73.5t70 -209.5q0 -129 -71.5 -202t-195.5 -73q-125 0 -196 73t-71 206zM175 270q0 -77 34.5 -121.5t92.5 -44.5q57 0 92 44.5t35 119.5q0 79 -34.5 123.5t-92.5 44.5t-92.5 -44.5t-34.5 -121.5zM256 598l70 154h156 l-126 -154h-100z" />
<glyph unicode="&#xf4;" horiz-adv-x="611" d="M35 270q0 132 71 205.5t195 73.5q128 0 198 -73.5t70 -209.5q0 -129 -71.5 -202t-195.5 -73q-125 0 -196 73t-71 206zM137 598l108 154h127l103 -154h-88l-82 77l-82 -77h-86zM175 270q0 -77 34.5 -121.5t92.5 -44.5q57 0 92 44.5t35 119.5q0 79 -34.5 123.5t-92.5 44.5 t-92.5 -44.5t-34.5 -121.5z" />
<glyph unicode="&#xf5;" horiz-adv-x="611" d="M35 270q0 132 71 205.5t195 73.5q128 0 198 -73.5t70 -209.5q0 -129 -71.5 -202t-195.5 -73q-125 0 -196 73t-71 206zM130 611q3 58 28 91t66 33q20 0 56 -13l71 -25q14 -6 34 -6q31 0 36 48h63q-6 -127 -95 -127q-23 0 -55 12l-71 26q-18 6 -30 6q-18 0 -27 -10.5 t-13 -34.5h-63zM175 270q0 -77 34.5 -121.5t92.5 -44.5q57 0 92 44.5t35 119.5q0 79 -34.5 123.5t-92.5 44.5t-92.5 -44.5t-34.5 -121.5z" />
<glyph unicode="&#xf6;" horiz-adv-x="611" d="M35 270q0 132 71 205.5t195 73.5q128 0 198 -73.5t70 -209.5q0 -129 -71.5 -202t-195.5 -73q-125 0 -196 73t-71 206zM145 618v115h126v-115h-126zM175 270q0 -77 34.5 -121.5t92.5 -44.5q57 0 92 44.5t35 119.5q0 79 -34.5 123.5t-92.5 44.5t-92.5 -44.5t-34.5 -121.5z M340 618v115h126v-115h-126z" />
<glyph unicode="&#xf7;" horiz-adv-x="584" d="M60 200v100h464v-100h-464zM217 68q0 31 22 53t53 22t53 -22t22 -53t-22 -53t-53 -22t-53 22t-22 53zM217 432q0 31 22 53t53 22t53 -22t22 -53t-22 -53t-53 -22t-53 22t-22 53z" />
<glyph unicode="&#xf8;" horiz-adv-x="611" d="M35 270q0 132 71 205.5t195 73.5q101 0 165 -45l38 39l60 -58l-40 -42q45 -68 45 -177q0 -129 -71.5 -202t-195.5 -73q-98 0 -164 46l-38 -40l-60 58l40 42q-45 70 -45 173zM175 270q0 -34 8 -64l194 204q-31 26 -75 26q-58 0 -92.5 -44.5t-34.5 -121.5zM227 130 q32 -26 75 -26q57 0 92 44.5t35 119.5q0 36 -8 66z" />
<glyph unicode="&#xf9;" horiz-adv-x="611" d="M58 178v362h140v-333q0 -97 90 -97q51 0 82 29t31 77v324h140v-540h-140v71q-60 -80 -162 -80q-86 0 -133.5 49t-47.5 138zM129 752h156l70 -154h-100z" />
<glyph unicode="&#xfa;" horiz-adv-x="611" d="M58 178v362h140v-333q0 -97 90 -97q51 0 82 29t31 77v324h140v-540h-140v71q-60 -80 -162 -80q-86 0 -133.5 49t-47.5 138zM256 598l70 154h156l-126 -154h-100z" />
<glyph unicode="&#xfb;" horiz-adv-x="611" d="M58 178v362h140v-333q0 -97 90 -97q51 0 82 29t31 77v324h140v-540h-140v71q-60 -80 -162 -80q-86 0 -133.5 49t-47.5 138zM137 598l108 154h127l103 -154h-88l-82 77l-82 -77h-86z" />
<glyph unicode="&#xfc;" horiz-adv-x="611" d="M58 178v362h140v-333q0 -97 90 -97q51 0 82 29t31 77v324h140v-540h-140v71q-60 -80 -162 -80q-86 0 -133.5 49t-47.5 138zM145 618v115h126v-115h-126zM340 618v115h126v-115h-126z" />
<glyph unicode="&#xfd;" d="M9 540h154l119 -393l112 393h144l-222 -639q-26 -73 -65 -96.5t-115 -23.5q-22 0 -50 4v105q22 -6 37 -6q37 0 62 26t25 64v3zM228 598l70 154h156l-126 -154h-100z" />
<glyph unicode="&#xfe;" horiz-adv-x="611" d="M58 -218v947h140v-269q50 89 150 89q97 0 161.5 -81.5t64.5 -205.5q0 -113 -64.5 -192t-161.5 -79q-100 0 -150 87v-296h-140zM198 262q0 -65 33 -109.5t85 -44.5q51 0 84.5 44t33.5 108q0 77 -32.5 124.5t-85.5 47.5t-85.5 -47t-32.5 -123z" />
<glyph unicode="&#xff;" d="M9 540h154l119 -393l112 393h144l-222 -639q-26 -73 -65 -96.5t-115 -23.5q-22 0 -50 4v105q22 -6 37 -6q37 0 62 26t25 64v3zM117 618v115h126v-115h-126zM312 618v115h126v-115h-126z" />
<glyph unicode="&#x100;" horiz-adv-x="722" d="M26 0l259 729h166l252 -729h-154l-48 147h-273l-49 -147h-153zM218 815v79h299v-79h-299zM270 272h190l-95 285z" />
<glyph unicode="&#x101;" d="M28 146q0 72 38.5 110t120.5 53l56 10q12 2 32 5t28.5 4.5t21 5.5t17.5 9.5t9 15t4 23.5q0 54 -81 54q-52 0 -73 -16t-26 -58h-135q13 187 231 187q221 0 221 -166v-300q0 -37 32 -66v-17h-152q-16 20 -16 68q-74 -77 -164 -77q-71 0 -117.5 40t-46.5 115zM120 636v79 h299v-79h-299zM168 162q0 -58 76 -58q53 0 82 33t29 94v24q-19 -9 -59 -17l-48 -9q-45 -8 -62.5 -22.5t-17.5 -44.5z" />
<glyph unicode="&#x102;" horiz-adv-x="722" d="M26 0l259 729h166l252 -729h-154l-48 147h-273l-49 -147h-153zM187 915h71q8 -40 110 -40q103 0 109 40h71q-12 -122 -182 -122q-81 0 -129.5 30t-49.5 92zM270 272h190l-95 285z" />
<glyph unicode="&#x103;" d="M28 146q0 72 38.5 110t120.5 53l56 10q12 2 32 5t28.5 4.5t21 5.5t17.5 9.5t9 15t4 23.5q0 54 -81 54q-52 0 -73 -16t-26 -58h-135q13 187 231 187q221 0 221 -166v-300q0 -37 32 -66v-17h-152q-16 20 -16 68q-74 -77 -164 -77q-71 0 -117.5 40t-46.5 115zM104 751h80 q0 -31 24 -47.5t60 -16.5t60 16.5t24 47.5h80q0 -62 -50 -106.5t-114 -44.5t-114 44.5t-50 106.5zM168 162q0 -58 76 -58q53 0 82 33t29 94v24q-19 -9 -59 -17l-48 -9q-45 -8 -62.5 -22.5t-17.5 -44.5z" />
<glyph unicode="&#x104;" horiz-adv-x="722" d="M26 0l259 729h166l252 -729q-54 0 -94 -42q-21 -21 -21 -50q0 -48 52 -48h63v-90h-63q-66 0 -106.5 25.5t-40.5 77.5q0 76 56 127l-48 147h-273l-49 -147h-153zM270 272h190l-95 285z" />
<glyph unicode="&#x105;" d="M28 146q0 72 38.5 110t120.5 53l56 10q12 2 32 5t28.5 4.5t21 5.5t17.5 9.5t9 15t4 23.5q0 54 -81 54q-52 0 -73 -16t-26 -58h-135q13 187 231 187q221 0 221 -166v-300q0 -37 32 -66v-17h-23q-38 0 -65 -27t-27 -65q0 -48 52 -48h63v-90h-63q-66 0 -106.5 25.5 t-40.5 77.5q0 77 58 127q-16 20 -16 68q-74 -77 -164 -77q-71 0 -117.5 40t-46.5 115zM168 162q0 -58 76 -58q53 0 82 33t29 94v24q-19 -9 -59 -17l-48 -9q-45 -8 -62.5 -22.5t-17.5 -44.5z" />
<glyph unicode="&#x106;" horiz-adv-x="722" d="M44 364q0 176 89.5 276.5t244.5 100.5q127 0 211 -68t93 -191h-143q-31 131 -156 131q-89 0 -139 -65.5t-50 -185.5q0 -119 48.5 -183.5t135.5 -64.5q148 0 161 135h146q-7 -124 -90.5 -192.5t-220.5 -68.5q-153 0 -241.5 100.5t-88.5 275.5zM323 786l76 135h165 l-135 -135h-106z" />
<glyph unicode="&#x107;" d="M34 266q0 137 66.5 210t188.5 73q101 0 163.5 -56t69.5 -155h-134q-12 53 -34.5 75.5t-65.5 22.5q-114 0 -114 -170q0 -78 30 -120t84 -42q40 0 63 20t37 63h134q-10 -87 -74 -141.5t-161 -54.5q-121 0 -187 71t-66 204zM239 598l70 154h156l-126 -154h-100z" />
<glyph unicode="&#x108;" horiz-adv-x="722" d="M44 364q0 176 89.5 276.5t244.5 100.5q127 0 211 -68t93 -191h-143q-31 131 -156 131q-89 0 -139 -65.5t-50 -185.5q0 -119 48.5 -183.5t135.5 -64.5q148 0 161 135h146q-7 -124 -90.5 -192.5t-220.5 -68.5q-153 0 -241.5 100.5t-88.5 275.5zM185 787l130 135h128 l124 -135h-94l-98 70l-99 -70h-91z" />
<glyph unicode="&#x109;" d="M34 266q0 137 66.5 210t188.5 73q101 0 163.5 -56t69.5 -155h-134q-12 53 -34.5 75.5t-65.5 22.5q-114 0 -114 -170q0 -78 30 -120t84 -42q40 0 63 20t37 63h134q-10 -87 -74 -141.5t-161 -54.5q-121 0 -187 71t-66 204zM120 598l108 154h127l103 -154h-88l-82 77 l-82 -77h-86z" />
<glyph unicode="&#x10a;" horiz-adv-x="722" d="M44 364q0 176 89.5 276.5t244.5 100.5q127 0 211 -68t93 -191h-143q-31 131 -156 131q-89 0 -139 -65.5t-50 -185.5q0 -119 48.5 -183.5t135.5 -64.5q148 0 161 135h146q-7 -124 -90.5 -192.5t-220.5 -68.5q-153 0 -241.5 100.5t-88.5 275.5zM307 784v140h140v-140h-140z " />
<glyph unicode="&#x10b;" d="M34 266q0 137 66.5 210t188.5 73q101 0 163.5 -56t69.5 -155h-134q-12 53 -34.5 75.5t-65.5 22.5q-114 0 -114 -170q0 -78 30 -120t84 -42q40 0 63 20t37 63h134q-10 -87 -74 -141.5t-161 -54.5q-121 0 -187 71t-66 204zM219 605v140h140v-140h-140z" />
<glyph unicode="&#x10c;" horiz-adv-x="722" d="M44 364q0 176 89.5 276.5t244.5 100.5q127 0 211 -68t93 -191h-143q-31 131 -156 131q-89 0 -139 -65.5t-50 -185.5q0 -119 48.5 -183.5t135.5 -64.5q148 0 161 135h146q-7 -124 -90.5 -192.5t-220.5 -68.5q-153 0 -241.5 100.5t-88.5 275.5zM186 922h94l98 -70l99 70h91 l-130 -135h-128z" />
<glyph unicode="&#x10d;" d="M34 266q0 137 66.5 210t188.5 73q101 0 163.5 -56t69.5 -155h-134q-12 53 -34.5 75.5t-65.5 22.5q-114 0 -114 -170q0 -78 30 -120t84 -42q40 0 63 20t37 63h134q-10 -87 -74 -141.5t-161 -54.5q-121 0 -187 71t-66 204zM120 752h88l82 -77l82 77h86l-108 -154h-127z" />
<glyph unicode="&#x10e;" horiz-adv-x="722" d="M77 0v729h285q84 0 138.5 -20t91.5 -64q89 -106 89 -280t-89 -280q-72 -85 -230 -85h-285zM172 922h94l98 -70l99 70h91l-130 -135h-128zM227 125h135q169 0 169 239q0 240 -169 240h-135v-479z" />
<glyph unicode="&#x10f;" horiz-adv-x="611" d="M29 269q0 122 65 201t162 79q98 0 149 -79v259h140v-729h-140v62q-54 -71 -149 -71q-104 0 -165.5 79.5t-61.5 198.5zM169 269q0 -74 32.5 -117.5t85.5 -43.5t85.5 43t32.5 116q0 77 -32 121t-86 44q-53 0 -85.5 -44.5t-32.5 -118.5zM605 482v46q69 13 67 89h-67v112h122 v-103q0 -61 -34.5 -101.5t-87.5 -42.5z" />
<glyph unicode="&#x110;" horiz-adv-x="722" d="M0 339v80h77v310h285q86 0 140.5 -20t90.5 -64q41 -51 64.5 -125.5t23.5 -154.5q0 -81 -23.5 -154.5t-64.5 -125.5q-36 -45 -90.5 -65t-140.5 -20h-285v339h-77zM227 125h135q97 0 136 62.5t39 176.5q0 115 -39 177.5t-136 62.5h-135v-185h150v-80h-150v-214z" />
<glyph unicode="&#x111;" horiz-adv-x="611" d="M29 269q0 122 65 201t162 79q98 0 149 -79v126h-133v67h133v66h140v-66h60v-67h-60v-596h-140v69q-52 -78 -149 -78t-162 78.5t-65 199.5zM169 269q0 -74 32.5 -117.5t85.5 -43.5t85.5 43t32.5 116q0 77 -32 121t-86 44q-52 0 -85 -44.5t-33 -118.5z" />
<glyph unicode="&#x112;" horiz-adv-x="667" d="M79 0v729h527v-125h-377v-165h349v-125h-349v-189h395v-125h-545zM193 815v79h299v-79h-299z" />
<glyph unicode="&#x113;" d="M22 263q0 135 66.5 210.5t183.5 75.5q119 0 186 -79.5t67 -219.5l-1 -17h-362q3 -75 31 -105t81 -30q90 0 107 54h138q-23 -78 -90 -119.5t-160 -41.5q-116 0 -181.5 71.5t-65.5 200.5zM121 636v79h299v-79h-299zM164 326h215q-5 57 -34 86.5t-75 29.5q-92 0 -106 -116z " />
<glyph unicode="&#x114;" horiz-adv-x="667" d="M79 0v729h527v-125h-377v-165h349v-125h-349v-189h395v-125h-545zM162 915h71q8 -40 110 -40q103 0 109 40h71q-12 -122 -182 -122q-81 0 -129.5 30t-49.5 92z" />
<glyph unicode="&#x115;" d="M22 263q0 135 66.5 210.5t183.5 75.5q119 0 186 -79.5t67 -219.5l-1 -17h-362q3 -75 31 -105t81 -30q90 0 107 54h138q-23 -78 -90 -119.5t-160 -41.5q-116 0 -181.5 71.5t-65.5 200.5zM105 751h80q0 -31 24 -47.5t60 -16.5t60 16.5t24 47.5h80q0 -62 -50 -106.5 t-114 -44.5t-114 44.5t-50 106.5zM164 326h215q-5 57 -34 86.5t-75 29.5q-92 0 -106 -116z" />
<glyph unicode="&#x116;" horiz-adv-x="667" d="M79 0v729h527v-125h-377v-165h349v-125h-349v-189h395v-125h-545zM274 784v140h140v-140h-140z" />
<glyph unicode="&#x117;" d="M22 263q0 135 66.5 210.5t183.5 75.5q119 0 186 -79.5t67 -219.5l-1 -17h-362q3 -75 31 -105t81 -30q90 0 107 54h138q-23 -78 -90 -119.5t-160 -41.5q-116 0 -181.5 71.5t-65.5 200.5zM164 326h215q-5 57 -34 86.5t-75 29.5q-92 0 -106 -116zM202 605v140h140v-140h-140 z" />
<glyph unicode="&#x118;" horiz-adv-x="667" d="M79 0v729h527v-125h-377v-165h349v-125h-349v-189h395v-125q-54 0 -94 -42q-21 -21 -21 -50q0 -48 52 -48h63v-90h-63q-66 0 -106.5 25.5t-40.5 77.5q0 34 16 62.5t57 64.5h-408z" />
<glyph unicode="&#x119;" d="M22 263q0 135 66.5 210.5t183.5 75.5q119 0 186 -79.5t67 -219.5l-1 -17h-362q3 -75 31 -105t81 -30q90 0 107 54h138q-28 -94 -119 -135q-34 -15 -54.5 -44.5t-20.5 -64.5q0 -48 52 -48h63v-90h-63q-66 0 -106.5 25.5t-40.5 77.5q0 32 14 59t50 60q-8 -1 -25 -1 q-116 0 -181.5 71.5t-65.5 200.5zM164 326h215q-5 57 -34 86.5t-75 29.5q-92 0 -106 -116z" />
<glyph unicode="&#x11a;" horiz-adv-x="667" d="M79 0v729h527v-125h-377v-165h349v-125h-349v-189h395v-125h-545zM153 922h94l98 -70l99 70h91l-130 -135h-128z" />
<glyph unicode="&#x11b;" d="M22 263q0 135 66.5 210.5t183.5 75.5q119 0 186 -79.5t67 -219.5l-1 -17h-362q3 -75 31 -105t81 -30q90 0 107 54h138q-23 -78 -90 -119.5t-160 -41.5q-116 0 -181.5 71.5t-65.5 200.5zM103 752h88l82 -77l82 77h86l-108 -154h-127zM164 326h215q-5 57 -34 86.5t-75 29.5 q-92 0 -106 -116z" />
<glyph unicode="&#x11c;" horiz-adv-x="778" d="M42 365q0 170 97.5 273t255.5 103q132 0 217 -66t99 -179h-141q-40 117 -174 117q-96 0 -150 -64.5t-54 -181.5q0 -112 58.5 -181.5t149.5 -69.5q69 0 123.5 42.5t61.5 108.5h-166v125h292v-392h-90l-18 100q-42 -58 -94.5 -85t-125.5 -27q-148 0 -244.5 106t-96.5 271z M204 787l130 135h128l124 -135h-94l-98 70l-99 -70h-91z" />
<glyph unicode="&#x11d;" horiz-adv-x="611" d="M34 264q0 125 63.5 205t160.5 80q90 0 150 -92v83h133v-558q0 -95 -67.5 -147.5t-189.5 -52.5q-109 0 -173 43t-66 110h145q17 -63 99 -63q53 0 86 30.5t33 79.5v80q-40 -40 -73 -55.5t-80 -15.5q-100 0 -160.5 74t-60.5 199zM137 598l108 154h127l103 -154h-88l-82 77 l-82 -77h-86zM174 266q0 -73 31 -115.5t81 -42.5q55 0 89.5 42.5t34.5 115.5q0 74 -34.5 120t-87.5 46q-51 0 -82.5 -45t-31.5 -121z" />
<glyph unicode="&#x11e;" horiz-adv-x="778" d="M42 365q0 170 97.5 273t255.5 103q132 0 217 -66t99 -179h-141q-40 117 -174 117q-96 0 -150 -64.5t-54 -181.5q0 -112 58.5 -181.5t149.5 -69.5q69 0 123.5 42.5t61.5 108.5h-166v125h292v-392h-90l-18 100q-42 -58 -94.5 -85t-125.5 -27q-148 0 -244.5 106t-96.5 271z M214 915h71q8 -40 110 -40q103 0 109 40h71q-12 -122 -182 -122q-81 0 -129.5 30t-49.5 92z" />
<glyph unicode="&#x11f;" horiz-adv-x="611" d="M34 264q0 125 63.5 205t160.5 80q90 0 150 -92v83h133v-558q0 -95 -67.5 -147.5t-189.5 -52.5q-109 0 -173 43t-66 110h145q17 -63 99 -63q53 0 86 30.5t33 79.5v80q-40 -40 -73 -55.5t-80 -15.5q-100 0 -160.5 74t-60.5 199zM139 751h80q0 -31 24 -47.5t60 -16.5 t60 16.5t24 47.5h80q0 -62 -50 -106.5t-114 -44.5t-114 44.5t-50 106.5zM174 266q0 -73 31 -115.5t81 -42.5q55 0 89.5 42.5t34.5 115.5q0 74 -34.5 120t-87.5 46q-51 0 -82.5 -45t-31.5 -121z" />
<glyph unicode="&#x120;" horiz-adv-x="778" d="M42 365q0 170 97.5 273t255.5 103q132 0 217 -66t99 -179h-141q-40 117 -174 117q-96 0 -150 -64.5t-54 -181.5q0 -112 58.5 -181.5t149.5 -69.5q69 0 123.5 42.5t61.5 108.5h-166v125h292v-392h-90l-18 100q-42 -58 -94.5 -85t-125.5 -27q-148 0 -244.5 106t-96.5 271z M326 784v140h140v-140h-140z" />
<glyph unicode="&#x121;" horiz-adv-x="611" d="M34 264q0 125 63.5 205t160.5 80q90 0 150 -92v83h133v-558q0 -95 -67.5 -147.5t-189.5 -52.5q-109 0 -173 43t-66 110h145q17 -63 99 -63q53 0 86 30.5t33 79.5v80q-40 -40 -73 -55.5t-80 -15.5q-100 0 -160.5 74t-60.5 199zM174 266q0 -73 31 -115.5t81 -42.5 q55 0 89.5 42.5t34.5 115.5q0 74 -34.5 120t-87.5 46q-51 0 -82.5 -45t-31.5 -121zM236 605v140h140v-140h-140z" />
<glyph unicode="&#x122;" horiz-adv-x="778" d="M42 365q0 170 97.5 273t255.5 103q132 0 217 -66t99 -179h-141q-40 117 -174 117q-96 0 -150 -64.5t-54 -181.5q0 -112 58.5 -181.5t149.5 -69.5q69 0 123.5 42.5t61.5 108.5h-166v125h292v-392h-90l-18 100q-42 -58 -94.5 -85t-125.5 -27q-148 0 -244.5 106t-96.5 271z M328 -60h122v-103q0 -61 -34.5 -101.5t-87.5 -42.5v46q69 13 67 89h-67v112z" />
<glyph unicode="&#x123;" horiz-adv-x="611" d="M34 264q0 125 63.5 205t160.5 80q90 0 150 -92v83h133v-558q0 -95 -67.5 -147.5t-189.5 -52.5q-109 0 -173 43t-66 110h145q17 -63 99 -63q53 0 86 30.5t33 79.5v80q-40 -40 -73 -55.5t-80 -15.5q-100 0 -160.5 74t-60.5 199zM174 266q0 -73 31 -115.5t81 -42.5 q55 0 89.5 42.5t34.5 115.5q0 74 -34.5 120t-87.5 46q-51 0 -82.5 -45t-31.5 -121zM246 582v103q0 61 34.5 101.5t87.5 42.5v-46q-69 -13 -67 -89h67v-112h-122z" />
<glyph unicode="&#x124;" horiz-adv-x="722" d="M68 0v729h150v-273h289v273h150v-729h-150v331h-289v-331h-150zM172 787l130 135h128l124 -135h-94l-98 70l-99 -70h-91z" />
<glyph unicode="&#x125;" horiz-adv-x="611" d="M67 0v729h140v-267q58 87 158 87q80 0 128 -48t48 -139v-362h-140v330q0 100 -86 100q-47 0 -77.5 -30t-30.5 -76v-324h-140zM115 787l130 135h128l124 -135h-94l-98 70l-99 -70h-91z" />
<glyph unicode="&#x126;" horiz-adv-x="722" d="M-7 549v68h75v112h150v-112h289v112h150v-112h75v-68h-75v-549h-150v331h-289v-331h-150v549h-75zM218 456h289v93h-289v-93z" />
<glyph unicode="&#x127;" horiz-adv-x="664" d="M60 504v72l70 21v132h140v-89l99 30v-71l-99 -30v-107q58 87 158 87q80 0 128 -48t48 -139v-362h-140v330q0 100 -86 100q-47 0 -77.5 -30t-30.5 -76v-324h-140v526z" />
<glyph unicode="&#x128;" horiz-adv-x="278" d="M-37 790q3 58 28 91t66 33q20 0 56 -13l71 -25q14 -6 34 -6q32 0 36 48h63q-6 -127 -95 -127q-23 0 -55 12l-71 26q-18 6 -30 6q-18 0 -27 -10.5t-13 -34.5h-63zM63 0v729h150v-729h-150z" />
<glyph unicode="&#x129;" horiz-adv-x="278" d="M-37 611q3 58 28 91t66 33q20 0 56 -13l71 -25q14 -6 34 -6q32 0 36 48h63q-6 -127 -95 -127q-23 0 -55 12l-71 26q-18 6 -30 6q-18 0 -27 -10.5t-13 -34.5h-63zM67 0v540h140v-540h-140z" />
<glyph unicode="&#x12a;" horiz-adv-x="278" d="M-12 815v79h299v-79h-299zM63 0v729h150v-729h-150z" />
<glyph unicode="&#x12b;" horiz-adv-x="278" d="M-12 636v79h299v-79h-299zM67 0v540h140v-540h-140z" />
<glyph unicode="&#x12c;" horiz-adv-x="278" d="M-43 915h71q8 -40 110 -40q103 0 109 40h71q-12 -122 -182 -122q-81 0 -129.5 30t-49.5 92zM63 0v729h150v-729h-150z" />
<glyph unicode="&#x12d;" horiz-adv-x="278" d="M-28 751h80q0 -31 24 -47.5t60 -16.5t60 16.5t24 47.5h80q0 -62 -50 -106.5t-114 -44.5t-114 44.5t-50 106.5zM67 0v540h140v-540h-140z" />
<glyph unicode="&#x12e;" horiz-adv-x="278" d="M23 -127q0 34 16 62.5t57 64.5h-33v729h150v-729q-45 -11 -74 -42q-21 -21 -21 -50q0 -48 52 -48h63v-90h-63q-66 0 -106.5 25.5t-40.5 77.5z" />
<glyph unicode="&#x12f;" horiz-adv-x="278" d="M27 -127q0 34 16 62.5t57 64.5h-33v540h140v-540q-38 -14 -64 -42q-21 -21 -21 -50q0 -48 52 -48h63v-90h-63q-66 0 -106.5 25.5t-40.5 77.5zM69 605v140h140v-140h-140z" />
<glyph unicode="&#x130;" horiz-adv-x="278" d="M63 0v729h150v-729h-150zM69 784v140h140v-140h-140z" />
<glyph unicode="&#x131;" horiz-adv-x="278" d="M67 0v540h140v-540h-140z" />
<glyph unicode="&#x134;" d="M24 209v61h150v-59q0 -50 19 -72.5t62 -22.5q39 0 60 22t21 63v528h150v-528q0 -102 -61 -157.5t-173 -55.5q-105 0 -166.5 57.5t-61.5 163.5zM220 787l130 135h128l124 -135h-94l-98 70l-99 -70h-91z" />
<glyph unicode="&#x135;" horiz-adv-x="278" d="M-29 598l108 154h127l103 -154h-88l-82 77l-82 -77h-86zM4 -101q13 -4 25 -4q23 0 32 9.5t9 32.5v603h140v-634q0 -66 -29 -95t-94 -29q-36 0 -83 5v112z" />
<glyph unicode="&#x136;" horiz-adv-x="722" d="M74 0v729h150v-320l285 320h177l-291 -314l322 -415h-179l-239 322l-75 -78v-244h-150zM294 -60h122v-103q0 -61 -34.5 -101.5t-87.5 -42.5v46q69 13 67 89h-67v112z" />
<glyph unicode="&#x137;" d="M59 0v729h140v-399l177 210h159l-184 -204l197 -336h-164l-129 238l-56 -61v-177h-140zM211 -60h122v-103q0 -61 -34.5 -101.5t-87.5 -42.5v46q69 13 67 89h-67v112z" />
<glyph unicode="&#x139;" horiz-adv-x="611" d="M80 0v729h150v-604h349v-125h-499zM81 786l76 135h165l-135 -135h-106z" />
<glyph unicode="&#x13a;" horiz-adv-x="278" d="M67 0v729h140v-729h-140zM68 786l76 135h165l-135 -135h-106z" />
<glyph unicode="&#x13b;" horiz-adv-x="611" d="M80 0v729h150v-604h349v-125h-499zM263 -60h122v-103q0 -61 -34.5 -101.5t-87.5 -42.5v46q69 13 67 89h-67v112z" />
<glyph unicode="&#x13c;" horiz-adv-x="278" d="M67 0v729h140v-729h-140zM72 -60h122v-103q0 -61 -34.5 -101.5t-87.5 -42.5v46q69 13 67 89h-67v112z" />
<glyph unicode="&#x13d;" horiz-adv-x="611" d="M80 0v729h150v-604h349v-125h-499zM290 482v46q69 13 67 89h-67v112h122v-103q0 -61 -34.5 -101.5t-87.5 -42.5z" />
<glyph unicode="&#x13e;" horiz-adv-x="278" d="M67 0v729h140v-729h-140zM267 482v46q69 13 67 89h-67v112h122v-103q0 -61 -34.5 -101.5t-87.5 -42.5z" />
<glyph unicode="&#x13f;" horiz-adv-x="611" d="M80 0v729h150v-604h349v-125h-499zM391 304v140h140v-140h-140z" />
<glyph unicode="&#x140;" horiz-adv-x="400" d="M67 0v729h140v-729h-140zM267 304v140h140v-140h-140z" />
<glyph unicode="&#x141;" horiz-adv-x="716" d="M34 147v133l116 71v378h150v-297l210 128v-134l-210 -127v-174h349v-125h-499v217z" />
<glyph unicode="&#x142;" horiz-adv-x="418" d="M32 202v123l105 77v327h140v-234l112 82v-123l-112 -82v-372h-140v279z" />
<glyph unicode="&#x143;" horiz-adv-x="722" d="M68 0v729h154l289 -496v496h150v-729h-150l-293 504v-504h-150zM308 786l76 135h165l-135 -135h-106z" />
<glyph unicode="&#x144;" horiz-adv-x="611" d="M63 0v540h140v-78q58 87 162 87q86 0 133.5 -49t47.5 -138v-362h-140v333q0 97 -90 97q-51 0 -82 -29t-31 -77v-324h-140zM256 598l70 154h156l-126 -154h-100z" />
<glyph unicode="&#x145;" horiz-adv-x="722" d="M68 0v729h154l289 -496v496h150v-729h-150l-293 504v-504h-150zM294 -60h122v-103q0 -61 -34.5 -101.5t-87.5 -42.5v46q69 13 67 89h-67v112z" />
<glyph unicode="&#x146;" horiz-adv-x="611" d="M63 0v540h140v-78q58 87 162 87q86 0 133.5 -49t47.5 -138v-362h-140v333q0 97 -90 97q-51 0 -82 -29t-31 -77v-324h-140zM239 -60h122v-103q0 -61 -34.5 -101.5t-87.5 -42.5v46q69 13 67 89h-67v112z" />
<glyph unicode="&#x147;" horiz-adv-x="722" d="M68 0v729h154l289 -496v496h150v-729h-150l-293 504v-504h-150zM171 922h94l98 -70l99 70h91l-130 -135h-128z" />
<glyph unicode="&#x148;" horiz-adv-x="611" d="M63 0v540h140v-78q58 87 162 87q86 0 133.5 -49t47.5 -138v-362h-140v333q0 97 -90 97q-51 0 -82 -29t-31 -77v-324h-140zM137 752h88l82 -77l82 77h86l-108 -154h-127z" />
<glyph unicode="&#x14a;" horiz-adv-x="722" d="M68 0v729h154l289 -496v496h150v-769q0 -102 -61 -157.5t-173 -55.5q-101 0 -162.5 53.5t-65.5 152.5h151q2 -41 21.5 -59.5t58.5 -18.5q33 0 57 23t24 55v47l-293 504v-504h-150z" />
<glyph unicode="&#x14b;" horiz-adv-x="611" d="M63 0v540h140v-78q58 87 162 87q86 0 133.5 -49t47.5 -138v-456q0 -66 -29 -95t-94 -29q-36 0 -83 5v112q13 -4 25 -4q23 0 32 9.5t9 32.5v396q0 97 -90 97q-51 0 -82 -29t-31 -77v-324h-140z" />
<glyph unicode="&#x14c;" horiz-adv-x="778" d="M40 365q0 161 96.5 268.5t253.5 107.5q158 0 255 -107t97 -274q0 -162 -97 -267t-254 -105q-159 0 -255 105.5t-96 271.5zM190 365q0 -114 55 -181.5t146 -67.5q90 0 145.5 67t55.5 178q0 114 -54.5 183t-146.5 69q-90 0 -145.5 -68.5t-55.5 -179.5zM240 815v79h299v-79 h-299z" />
<glyph unicode="&#x14d;" horiz-adv-x="611" d="M35 270q0 132 71 205.5t195 73.5q128 0 198 -73.5t70 -209.5q0 -129 -71.5 -202t-195.5 -73q-125 0 -196 73t-71 206zM155 636v79h299v-79h-299zM175 270q0 -77 34.5 -121.5t92.5 -44.5q57 0 92 44.5t35 119.5q0 79 -34.5 123.5t-92.5 44.5t-92.5 -44.5t-34.5 -121.5z " />
<glyph unicode="&#x14e;" horiz-adv-x="778" d="M40 365q0 161 96.5 268.5t253.5 107.5q158 0 255 -107t97 -274q0 -162 -97 -267t-254 -105q-159 0 -255 105.5t-96 271.5zM190 365q0 -114 55 -181.5t146 -67.5q90 0 145.5 67t55.5 178q0 114 -54.5 183t-146.5 69q-90 0 -145.5 -68.5t-55.5 -179.5zM209 915h71 q8 -40 110 -40q103 0 109 40h71q-12 -122 -182 -122q-81 0 -129.5 30t-49.5 92z" />
<glyph unicode="&#x14f;" horiz-adv-x="611" d="M35 270q0 132 71 205.5t195 73.5q128 0 198 -73.5t70 -209.5q0 -129 -71.5 -202t-195.5 -73q-125 0 -196 73t-71 206zM139 751h80q0 -31 24 -47.5t60 -16.5t60 16.5t24 47.5h80q0 -62 -50 -106.5t-114 -44.5t-114 44.5t-50 106.5zM175 270q0 -77 34.5 -121.5t92.5 -44.5 q57 0 92 44.5t35 119.5q0 79 -34.5 123.5t-92.5 44.5t-92.5 -44.5t-34.5 -121.5z" />
<glyph unicode="&#x150;" horiz-adv-x="778" d="M40 365q0 161 96.5 268.5t253.5 107.5q158 0 255 -107t97 -274q0 -162 -97 -267t-254 -105q-159 0 -255 105.5t-96 271.5zM190 365q0 -114 55 -181.5t146 -67.5q90 0 145.5 67t55.5 178q0 114 -54.5 183t-146.5 69q-90 0 -145.5 -68.5t-55.5 -179.5zM249 787l70 154h126 l-111 -154h-85zM447 787l70 154h126l-111 -154h-85z" />
<glyph unicode="&#x151;" horiz-adv-x="611" d="M35 270q0 132 71 205.5t195 73.5q128 0 198 -73.5t70 -209.5q0 -129 -71.5 -202t-195.5 -73q-125 0 -196 73t-71 206zM165 598l70 154h126l-111 -154h-85zM175 270q0 -77 34.5 -121.5t92.5 -44.5q57 0 92 44.5t35 119.5q0 79 -34.5 123.5t-92.5 44.5t-92.5 -44.5 t-34.5 -121.5zM363 598l70 154h126l-111 -154h-85z" />
<glyph unicode="&#x152;" horiz-adv-x="1000" d="M28 359q0 169 84 275.5t217 106.5q48 0 81.5 -14.5t69.5 -49.5v52h471v-125h-327v-165h299v-125h-299v-189h346v-125h-490v73q-37 -46 -70.5 -64t-84.5 -18q-131 0 -214 101t-83 267zM178 359q0 -113 48 -176.5t129 -63.5q77 0 119 73v348q-42 73 -118 73 q-80 0 -129 -69.5t-49 -184.5z" />
<glyph unicode="&#x153;" horiz-adv-x="944" d="M23 263q0 133 71 209.5t196 76.5q122 0 195 -76q65 76 180 76q121 0 188 -79.5t67 -219.5q0 -12 -1 -24h-362q1 -71 29.5 -99.5t84.5 -28.5q35 0 65 16.5t40 37.5h138q-25 -71 -93 -116t-157 -45q-113 0 -179 75q-77 -75 -195 -75q-124 0 -195.5 74t-71.5 198zM163 263 q0 -68 35.5 -113.5t91.5 -45.5q55 0 91 45.5t36 111.5q0 80 -34.5 127.5t-92.5 47.5q-57 0 -92 -48t-35 -125zM559 319h215q-7 62 -35.5 92.5t-72.5 30.5q-96 0 -107 -123z" />
<glyph unicode="&#x154;" horiz-adv-x="722" d="M80 0v729h391q94 0 145 -54.5t51 -142.5q0 -132 -123 -180q27 -11 40 -17.5t26.5 -21.5t18 -27t9 -44t5.5 -63t2 -92q0 -42 32 -60v-27h-161q-14 26 -18.5 50t-4.5 75l2 77q0 46 -22 66.5t-71 20.5h-172v-289h-150zM230 414h181q61 0 83.5 23t22.5 74q0 49 -23 71t-83 22 h-181v-190zM308 786l76 135h165l-135 -135h-106z" />
<glyph unicode="&#x155;" horiz-adv-x="389" d="M63 0v540h140v-106q22 55 62 85t88 30q9 0 17 -1v-142q-25 4 -44 4q-123 0 -123 -123v-287h-140zM153 598l70 154h156l-126 -154h-100z" />
<glyph unicode="&#x156;" horiz-adv-x="722" d="M80 0v729h391q94 0 145 -54.5t51 -142.5q0 -132 -123 -180q27 -11 40 -17.5t26.5 -21.5t18 -27t9 -44t5.5 -63t2 -92q0 -42 32 -60v-27h-161q-14 26 -18.5 50t-4.5 75l2 77q0 46 -22 66.5t-71 20.5h-172v-289h-150zM230 414h181q61 0 83.5 23t22.5 74q0 49 -23 71t-83 22 h-181v-190zM294 -60h122v-103q0 -61 -34.5 -101.5t-87.5 -42.5v46q69 13 67 89h-67v112z" />
<glyph unicode="&#x157;" horiz-adv-x="389" d="M63 0v540h140v-106q22 55 62 85t88 30q9 0 17 -1v-142q-25 4 -44 4q-123 0 -123 -123v-287h-140zM66 -60h122v-103q0 -61 -34.5 -101.5t-87.5 -42.5v46q69 13 67 89h-67v112z" />
<glyph unicode="&#x158;" horiz-adv-x="722" d="M80 0v729h391q94 0 145 -54.5t51 -142.5q0 -132 -123 -180q27 -11 40 -17.5t26.5 -21.5t18 -27t9 -44t5.5 -63t2 -92q0 -42 32 -60v-27h-161q-14 26 -18.5 50t-4.5 75l2 77q0 46 -22 66.5t-71 20.5h-172v-289h-150zM171 922h94l98 -70l99 70h91l-130 -135h-128zM230 414 h181q61 0 83.5 23t22.5 74q0 49 -23 71t-83 22h-181v-190z" />
<glyph unicode="&#x159;" horiz-adv-x="389" d="M34 752h88l82 -77l82 77h86l-108 -154h-127zM63 0v540h140v-106q22 55 62 85t88 30q9 0 17 -1v-142q-25 4 -44 4q-123 0 -123 -123v-287h-140z" />
<glyph unicode="&#x15a;" horiz-adv-x="667" d="M32 229h146q0 -58 43.5 -89.5t120.5 -31.5q69 0 108 24t39 69q0 43 -30 64t-107 36l-102 20q-111 22 -158 66.5t-47 129.5q0 107 72.5 165.5t203.5 58.5q135 0 210.5 -60t75.5 -174h-140q0 55 -40.5 84.5t-112.5 29.5q-58 0 -92 -24.5t-34 -65.5q0 -40 29 -59.5 t109 -35.5l114 -22q102 -20 147.5 -65t45.5 -130q0 -110 -78.5 -170.5t-220.5 -60.5q-141 0 -221.5 62.5t-80.5 178.5zM275 786l76 135h165l-135 -135h-106z" />
<glyph unicode="&#x15b;" d="M29 171h137q9 -41 34 -55.5t76 -14.5q104 0 104 46q0 22 -47 37l-167 52q-71 22 -94.5 51t-23.5 82q0 83 59.5 131.5t162.5 48.5q109 0 171 -48.5t64 -134.5h-135q-1 73 -101 73q-37 0 -59 -13.5t-22 -36.5q0 -17 10 -25.5t39 -16.5l177 -51q106 -31 106 -129v-7 q0 -82 -61 -125.5t-175 -43.5q-249 0 -255 180zM228 598l70 154h156l-126 -154h-100z" />
<glyph unicode="&#x15c;" horiz-adv-x="667" d="M32 229h146q0 -58 43.5 -89.5t120.5 -31.5q69 0 108 24t39 69q0 43 -30 64t-107 36l-102 20q-111 22 -158 66.5t-47 129.5q0 107 72.5 165.5t203.5 58.5q135 0 210.5 -60t75.5 -174h-140q0 55 -40.5 84.5t-112.5 29.5q-58 0 -92 -24.5t-34 -65.5q0 -40 29 -59.5 t109 -35.5l114 -22q102 -20 147.5 -65t45.5 -130q0 -110 -78.5 -170.5t-220.5 -60.5q-141 0 -221.5 62.5t-80.5 178.5zM137 787l130 135h128l124 -135h-94l-98 70l-99 -70h-91z" />
<glyph unicode="&#x15d;" d="M29 171h137q9 -41 34 -55.5t76 -14.5q104 0 104 46q0 22 -47 37l-167 52q-71 22 -94.5 51t-23.5 82q0 83 59.5 131.5t162.5 48.5q109 0 171 -48.5t64 -134.5h-135q-1 73 -101 73q-37 0 -59 -13.5t-22 -36.5q0 -17 10 -25.5t39 -16.5l177 -51q106 -31 106 -129v-7 q0 -82 -61 -125.5t-175 -43.5q-249 0 -255 180zM109 598l108 154h127l103 -154h-88l-82 77l-82 -77h-86z" />
<glyph unicode="&#x15e;" horiz-adv-x="667" d="M32 229h146q0 -58 43.5 -89.5t120.5 -31.5q69 0 108 24t39 69q0 43 -30 64t-107 36l-102 20q-111 22 -158 66.5t-47 129.5q0 107 72.5 165.5t203.5 58.5q135 0 210.5 -60t75.5 -174h-140q0 55 -40.5 84.5t-112.5 29.5q-58 0 -92 -24.5t-34 -65.5q0 -40 29 -59.5 t109 -35.5l114 -22q102 -20 147.5 -65t45.5 -130q0 -105 -71 -164.5t-200 -65.5l-19 -39h40q35 0 55.5 -21.5t20.5 -55.5q0 -46 -34 -74t-95 -28q-55 0 -138 28l19 61q69 -30 105 -30q24 0 40.5 12t16.5 29q0 31 -51 31h-64l41 87q-125 8 -196 70t-71 170z" />
<glyph unicode="&#x15f;" d="M29 171h137q9 -41 34 -55.5t76 -14.5q104 0 104 46q0 22 -47 37l-167 52q-71 22 -94.5 51t-23.5 82q0 83 59.5 131.5t162.5 48.5q109 0 171 -48.5t64 -134.5h-135q-1 73 -101 73q-37 0 -59 -13.5t-22 -36.5q0 -17 10 -25.5t39 -16.5l177 -51q106 -31 106 -129v-7 q0 -79 -57 -122.5t-165 -46.5l-20 -41h40q35 0 55.5 -21.5t20.5 -55.5q0 -46 -34 -74t-95 -28q-55 0 -138 28l19 61q69 -30 105 -30q24 0 40.5 12t16.5 29q0 31 -51 31h-64l43 91q-201 17 -207 178z" />
<glyph unicode="&#x160;" horiz-adv-x="667" d="M32 229h146q0 -58 43.5 -89.5t120.5 -31.5q69 0 108 24t39 69q0 43 -30 64t-107 36l-102 20q-111 22 -158 66.5t-47 129.5q0 107 72.5 165.5t203.5 58.5q135 0 210.5 -60t75.5 -174h-140q0 55 -40.5 84.5t-112.5 29.5q-58 0 -92 -24.5t-34 -65.5q0 -40 29 -59.5 t109 -35.5l114 -22q102 -20 147.5 -65t45.5 -130q0 -110 -78.5 -170.5t-220.5 -60.5q-141 0 -221.5 62.5t-80.5 178.5zM138 922h94l98 -70l99 70h91l-130 -135h-128z" />
<glyph unicode="&#x161;" d="M29 171h137q9 -41 34 -55.5t76 -14.5q104 0 104 46q0 22 -47 37l-167 52q-71 22 -94.5 51t-23.5 82q0 83 59.5 131.5t162.5 48.5q109 0 171 -48.5t64 -134.5h-135q-1 73 -101 73q-37 0 -59 -13.5t-22 -36.5q0 -17 10 -25.5t39 -16.5l177 -51q106 -31 106 -129v-7 q0 -82 -61 -125.5t-175 -43.5q-249 0 -255 180zM109 752h88l82 -77l82 77h86l-108 -154h-127z" />
<glyph unicode="&#x162;" horiz-adv-x="611" d="M14 604v125h584v-125h-213v-604h-52l-25 -50h40q35 0 55.5 -21.5t20.5 -55.5q0 -46 -34 -74t-95 -28q-55 0 -138 28l19 61q69 -30 105 -30q24 0 40.5 12t16.5 29q0 31 -51 31h-64l47 98h-35v604h-221z" />
<glyph unicode="&#x163;" horiz-adv-x="333" d="M14 436v93h69v145h140v-145h78v-93h-78v-282q0 -36 9 -47.5t37 -11.5q11 0 32 3v-98q-6 0 -34.5 -2t-46.5 -2h-4l-23 -46h40q35 0 55.5 -21.5t20.5 -55.5q0 -46 -34 -74t-95 -28q-55 0 -138 28l19 61q69 -30 105 -30q24 0 40.5 12t16.5 29q0 31 -51 31h-64l48 102 q-73 21 -73 112v320h-69z" />
<glyph unicode="&#x164;" horiz-adv-x="611" d="M14 604v125h584v-125h-213v-604h-150v604h-221zM116 922h94l98 -70l99 70h91l-130 -135h-128z" />
<glyph unicode="&#x165;" horiz-adv-x="333" d="M14 436v93h69v145h140v-145h78v-93h-78v-282q0 -36 9 -47.5t37 -11.5q11 0 32 3v-98q-6 0 -34.5 -2t-46.5 -2q-70 0 -103.5 28.5t-33.5 91.5v320h-69zM253 570v46q69 13 67 89h-67v112h122v-103q0 -61 -34.5 -101.5t-87.5 -42.5z" />
<glyph unicode="&#x168;" horiz-adv-x="722" d="M76 246v483h150v-483q0 -130 139 -130t139 130v483h150v-483q0 -125 -79.5 -191.5t-209.5 -66.5t-209.5 66.5t-79.5 191.5zM186 790q3 58 28 91t66 33q20 0 56 -13l71 -25q14 -6 34 -6q31 0 36 48h63q-6 -127 -95 -127q-23 0 -55 12l-71 26q-18 6 -30 6q-18 0 -27 -10.5 t-13 -34.5h-63z" />
<glyph unicode="&#x169;" horiz-adv-x="611" d="M58 178v362h140v-333q0 -97 90 -97q51 0 82 29t31 77v324h140v-540h-140v71q-60 -80 -162 -80q-86 0 -133.5 49t-47.5 138zM130 611q3 58 28 91t66 33q20 0 56 -13l71 -25q14 -6 34 -6q31 0 36 48h63q-6 -127 -95 -127q-23 0 -55 12l-71 26q-18 6 -30 6q-18 0 -27 -10.5 t-13 -34.5h-63z" />
<glyph unicode="&#x16a;" horiz-adv-x="722" d="M76 246v483h150v-483q0 -130 139 -130t139 130v483h150v-483q0 -125 -79.5 -191.5t-209.5 -66.5t-209.5 66.5t-79.5 191.5zM211 815v79h299v-79h-299z" />
<glyph unicode="&#x16b;" horiz-adv-x="611" d="M58 178v362h140v-333q0 -97 90 -97q51 0 82 29t31 77v324h140v-540h-140v71q-60 -80 -162 -80q-86 0 -133.5 49t-47.5 138zM155 636v79h299v-79h-299z" />
<glyph unicode="&#x16c;" horiz-adv-x="722" d="M76 246v483h150v-483q0 -130 139 -130t139 130v483h150v-483q0 -125 -79.5 -191.5t-209.5 -66.5t-209.5 66.5t-79.5 191.5zM180 915h71q8 -40 110 -40q103 0 109 40h71q-12 -122 -182 -122q-81 0 -129.5 30t-49.5 92z" />
<glyph unicode="&#x16d;" horiz-adv-x="611" d="M58 178v362h140v-333q0 -97 90 -97q51 0 82 29t31 77v324h140v-540h-140v71q-60 -80 -162 -80q-86 0 -133.5 49t-47.5 138zM139 751h80q0 -31 24 -47.5t60 -16.5t60 16.5t24 47.5h80q0 -62 -50 -106.5t-114 -44.5t-114 44.5t-50 106.5z" />
<glyph unicode="&#x16e;" horiz-adv-x="722" d="M76 246v483h150v-483q0 -130 139 -130t139 130v483h150v-483q0 -125 -79.5 -191.5t-209.5 -66.5t-209.5 66.5t-79.5 191.5zM262 863q0 41 29 70t72 29q41 0 69.5 -29t28.5 -71q0 -40 -29.5 -69t-69.5 -29q-42 0 -71 29t-29 70zM315 863q0 -19 14 -32.5t34 -13.5 q18 0 31.5 13.5t13.5 32.5t-13 32.5t-32 13.5q-20 0 -34 -13.5t-14 -32.5z" />
<glyph unicode="&#x16f;" horiz-adv-x="611" d="M58 178v362h140v-333q0 -97 90 -97q51 0 82 29t31 77v324h140v-540h-140v71q-60 -80 -162 -80q-86 0 -133.5 49t-47.5 138zM206 675q0 41 29 70t72 29q41 0 69.5 -29t28.5 -71q0 -40 -29.5 -69t-69.5 -29q-42 0 -71 29t-29 70zM259 675q0 -19 14 -32.5t34 -13.5 q18 0 31.5 13.5t13.5 32.5t-13 32.5t-32 13.5q-20 0 -34 -13.5t-14 -32.5z" />
<glyph unicode="&#x170;" horiz-adv-x="722" d="M76 246v483h150v-483q0 -130 139 -130t139 130v483h150v-483q0 -125 -79.5 -191.5t-209.5 -66.5t-209.5 66.5t-79.5 191.5zM220 787l70 154h126l-111 -154h-85zM418 787l70 154h126l-111 -154h-85z" />
<glyph unicode="&#x171;" horiz-adv-x="611" d="M58 178v362h140v-333q0 -97 90 -97q51 0 82 29t31 77v324h140v-540h-140v71q-60 -80 -162 -80q-86 0 -133.5 49t-47.5 138zM165 598l70 154h126l-111 -154h-85zM363 598l70 154h126l-111 -154h-85z" />
<glyph unicode="&#x172;" horiz-adv-x="722" d="M76 246v483h150v-483q0 -130 139 -130t139 130v483h150v-483q0 -88 -40.5 -147.5t-112.5 -87.5q-38 -15 -63.5 -41.5t-25.5 -61.5q0 -48 52 -48h63v-90h-63q-66 0 -106.5 25.5t-40.5 77.5q0 58 60 115h-12q-130 0 -209.5 66.5t-79.5 191.5z" />
<glyph unicode="&#x173;" horiz-adv-x="611" d="M58 178v362h140v-333q0 -97 90 -97q51 0 82 29t31 77v324h140v-540q-50 -6 -84 -42q-21 -21 -21 -50q0 -48 52 -48h63v-90h-63q-66 0 -106.5 25.5t-40.5 77.5q0 78 60 127v71q-60 -80 -162 -80q-86 0 -133.5 49t-47.5 138z" />
<glyph unicode="&#x174;" horiz-adv-x="944" d="M13 729h159l113 -546l113 546h148l118 -547l109 547h159l-202 -729h-135l-122 569l-119 -569h-135zM281 787l130 135h128l124 -135h-94l-98 70l-99 -70h-91z" />
<glyph unicode="&#x175;" horiz-adv-x="778" d="M5 540h145l86 -378l82 378h140l81 -378l82 378h145l-153 -540h-145l-81 381l-86 -381h-144zM220 598l108 154h127l103 -154h-88l-82 77l-82 -77h-86z" />
<glyph unicode="&#x176;" horiz-adv-x="667" d="M27 729h167l149 -322l139 322h168l-231 -459v-270h-150v270zM153 787l130 135h128l124 -135h-94l-98 70l-99 -70h-91z" />
<glyph unicode="&#x177;" d="M9 540h154l119 -393l112 393h144l-222 -639q-26 -73 -65 -96.5t-115 -23.5q-22 0 -50 4v105q22 -6 37 -6q37 0 62 26t25 64v3zM109 598l108 154h127l103 -154h-88l-82 77l-82 -77h-86z" />
<glyph unicode="&#x178;" horiz-adv-x="667" d="M27 729h167l149 -322l139 322h168l-231 -459v-270h-150v270zM184 797v115h126v-115h-126zM379 797v115h126v-115h-126z" />
<glyph unicode="&#x179;" horiz-adv-x="611" d="M30 0v125l373 479h-373v125h548v-125l-372 -479h372v-125h-548zM251 786l76 135h165l-135 -135h-106z" />
<glyph unicode="&#x17a;" horiz-adv-x="500" d="M21 0v113l267 314h-249v113h420v-113l-265 -314h274v-113h-447zM200 598l70 154h156l-126 -154h-100z" />
<glyph unicode="&#x17b;" horiz-adv-x="611" d="M30 0v125l373 479h-373v125h548v-125l-372 -479h372v-125h-548zM235 784v140h140v-140h-140z" />
<glyph unicode="&#x17c;" horiz-adv-x="500" d="M21 0v113l267 314h-249v113h420v-113l-265 -314h274v-113h-447zM180 605v140h140v-140h-140z" />
<glyph unicode="&#x17d;" horiz-adv-x="611" d="M30 0v125l373 479h-373v125h548v-125l-372 -479h372v-125h-548zM114 922h94l98 -70l99 70h91l-130 -135h-128z" />
<glyph unicode="&#x17e;" horiz-adv-x="500" d="M21 0v113l267 314h-249v113h420v-113l-265 -314h274v-113h-447zM81 752h88l82 -77l82 77h86l-108 -154h-127z" />
<glyph unicode="&#x17f;" horiz-adv-x="333" d="M90 0v594q0 135 138 135q41 0 80 -3v-105q-18 3 -40 3q-38 0 -38 -42v-582h-140z" />
<glyph unicode="&#x18e;" horiz-adv-x="667" d="M79 0v125h395v189h-349v125h349v165h-377v125h527v-729h-545z" />
<glyph unicode="&#x192;" d="M21 -198l24 115q35 -21 57 -21q26 0 40.5 24.5t24.5 86.5l60 376h-123v97h138l11 59q17 106 62 155.5t124 49.5q40 0 96 -17l-20 -115q-36 16 -55 16q-58 0 -76 -107l-7 -41h123v-97h-137l-59 -382q-18 -119 -64.5 -170t-128.5 -51q-47 0 -90 22z" />
<glyph unicode="&#x1a0;" horiz-adv-x="812" d="M40 366q0 164 102 274q93 101 248 101q183 0 273 -129q56 47 56 117h-65v125h135v-109q0 -126 -91 -190q44 -93 44 -194q0 -77 -27.5 -151.5t-74.5 -124.5q-87 -94 -249 -94t-249 94q-49 52 -75.5 125.5t-26.5 155.5zM190 366q0 -114 55 -180.5t146 -66.5t146 66t55 177 q0 118 -54 184.5t-147 66.5q-91 0 -146 -66.5t-55 -180.5z" />
<glyph unicode="&#x1a1;" horiz-adv-x="680" d="M35 270q0 132 71 205.5t195 73.5q160 0 229 -120q50 46 50 111h-65v125h135v-109q0 -128 -94 -192q13 -46 13 -98q0 -129 -71.5 -202t-195.5 -73q-125 0 -196 73t-71 206zM175 270q0 -77 34.5 -121.5t92.5 -44.5q57 0 92 44.5t35 119.5q0 79 -34.5 123.5t-92.5 44.5 t-92.5 -44.5t-34.5 -121.5z" />
<glyph unicode="&#x1af;" horiz-adv-x="829" d="M76 249v480h150v-480q0 -130 139 -130t139 130v480h150v-141q89 50 89 140h-65v125h135v-109q0 -96 -47.5 -150t-111.5 -75v-270q0 -120 -71 -184q-82 -74 -218 -74t-218 74q-71 64 -71 184z" />
<glyph unicode="&#x1b0;" horiz-adv-x="720" d="M58 178v362h140v-333q0 -97 90 -97q51 0 82 29t31 77v324h140v-142q38 20 65 57t27 85h-65v125h135v-109q0 -51 -15.5 -92.5t-41 -67.5t-51 -41.5t-54.5 -24.5v-330h-140v78q-58 -87 -162 -87q-86 0 -133.5 49t-47.5 138z" />
<glyph unicode="&#x1dd;" d="M22 290l1 17h362q-3 75 -31 105t-81 30q-90 0 -107 -54h-138q23 78 90 119.5t160 41.5q116 0 181.5 -71.5t65.5 -200.5q0 -135 -66.5 -210.5t-183.5 -75.5q-119 0 -186 79.5t-67 219.5zM168 214q5 -57 34 -86.5t75 -29.5q92 0 106 116h-215z" />
<glyph unicode="&#x1e6;" horiz-adv-x="778" d="M42 365q0 170 97.5 273t255.5 103q132 0 217 -66t99 -179h-141q-40 117 -174 117q-96 0 -150 -64.5t-54 -181.5q0 -112 58.5 -181.5t149.5 -69.5q69 0 123.5 42.5t61.5 108.5h-166v125h292v-392h-90l-18 100q-42 -58 -94.5 -85t-125.5 -27q-148 0 -244.5 106t-96.5 271z M205 922h94l98 -70l99 70h91l-130 -135h-128z" />
<glyph unicode="&#x1e7;" horiz-adv-x="611" d="M34 264q0 125 63.5 205t160.5 80q90 0 150 -92v83h133v-558q0 -95 -67.5 -147.5t-189.5 -52.5q-109 0 -173 43t-66 110h145q17 -63 99 -63q53 0 86 30.5t33 79.5v80q-40 -40 -73 -55.5t-80 -15.5q-100 0 -160.5 74t-60.5 199zM137 752h88l82 -77l82 77h86l-108 -154h-127 zM174 266q0 -73 31 -115.5t81 -42.5q55 0 89.5 42.5t34.5 115.5q0 74 -34.5 120t-87.5 46q-51 0 -82.5 -45t-31.5 -121z" />
<glyph unicode="&#x1ea;" horiz-adv-x="778" d="M40 365q0 161 96.5 268.5t253.5 107.5q158 0 255 -107t97 -274q0 -120 -55 -211.5t-152 -132.5q-102 -44 -102 -108q0 -48 52 -48h63v-90h-63q-66 0 -106.5 25.5t-40.5 77.5q0 31 13.5 57t46.5 58h-7q-159 0 -255 105.5t-96 271.5zM190 365q0 -114 55 -181.5t146 -67.5 q90 0 145.5 67t55.5 178q0 114 -54.5 183t-146.5 69q-90 0 -145.5 -68.5t-55.5 -179.5z" />
<glyph unicode="&#x1eb;" horiz-adv-x="611" d="M35 270q0 132 71 205.5t195 73.5q128 0 198 -73.5t70 -209.5q0 -169 -119 -239q-94 -55 -94 -119q0 -48 52 -48h63v-90h-63q-66 0 -106.5 25.5t-40.5 77.5q0 32 14 59t50 60q-8 -1 -23 -1q-125 0 -196 73t-71 206zM175 270q0 -77 34.5 -121.5t92.5 -44.5q57 0 92 44.5 t35 119.5q0 79 -34.5 123.5t-92.5 44.5t-92.5 -44.5t-34.5 -121.5z" />
<glyph unicode="&#x1f4;" horiz-adv-x="778" d="M42 365q0 170 97.5 273t255.5 103q132 0 217 -66t99 -179h-141q-40 117 -174 117q-96 0 -150 -64.5t-54 -181.5q0 -112 58.5 -181.5t149.5 -69.5q69 0 123.5 42.5t61.5 108.5h-166v125h292v-392h-90l-18 100q-42 -58 -94.5 -85t-125.5 -27q-148 0 -244.5 106t-96.5 271z M342 786l76 135h165l-135 -135h-106z" />
<glyph unicode="&#x1f5;" horiz-adv-x="611" d="M34 264q0 125 63.5 205t160.5 80q90 0 150 -92v83h133v-558q0 -95 -67.5 -147.5t-189.5 -52.5q-109 0 -173 43t-66 110h145q17 -63 99 -63q53 0 86 30.5t33 79.5v80q-40 -40 -73 -55.5t-80 -15.5q-100 0 -160.5 74t-60.5 199zM174 266q0 -73 31 -115.5t81 -42.5 q55 0 89.5 42.5t34.5 115.5q0 74 -34.5 120t-87.5 46q-51 0 -82.5 -45t-31.5 -121zM256 598l70 154h156l-126 -154h-100z" />
<glyph unicode="&#x1fa;" horiz-adv-x="722" d="M26 0l259 729h166l252 -729h-154l-48 147h-273l-49 -147h-153zM269 863q0 41 29 70t72 29q41 0 69.5 -29t28.5 -71q0 -40 -29.5 -69t-69.5 -29q-42 0 -71 29t-29 70zM270 272h190l-95 285zM315 982l76 135h165l-135 -135h-106zM322 863q0 -19 14 -32.5t34 -13.5 q18 0 31.5 13.5t13.5 32.5t-13 32.5t-32 13.5q-20 0 -34 -13.5t-14 -32.5z" />
<glyph unicode="&#x1fb;" d="M28 146q0 72 38.5 110t120.5 53l56 10q12 2 32 5t28.5 4.5t21 5.5t17.5 9.5t9 15t4 23.5q0 54 -81 54q-52 0 -73 -16t-26 -58h-135q13 187 231 187q221 0 221 -166v-300q0 -37 32 -66v-17h-152q-16 20 -16 68q-74 -77 -164 -77q-71 0 -117.5 40t-46.5 115zM168 162 q0 -58 76 -58q53 0 82 33t29 94v24q-19 -9 -59 -17l-48 -9q-45 -8 -62.5 -22.5t-17.5 -44.5zM172 674q0 41 29 70t72 29q41 0 69.5 -29t28.5 -71q0 -40 -29.5 -69t-69.5 -29q-42 0 -71 29t-29 70zM218 793l76 135h165l-135 -135h-106zM225 674q0 -19 14 -32.5t34 -13.5 q18 0 31.5 13.5t13.5 32.5t-13 32.5t-32 13.5q-20 0 -34 -13.5t-14 -32.5z" />
<glyph unicode="&#x1fc;" horiz-adv-x="1000" d="M1 0l263 729h682v-125h-366v-165h339v-125h-339v-189h386v-125h-536v152h-223l-53 -152h-153zM249 277h181v327h-67zM452 786l76 135h165l-135 -135h-106z" />
<glyph unicode="&#x1fd;" horiz-adv-x="889" d="M27 149q0 73 38 110.5t121 52.5l56 10q13 2 28.5 4.5t21 3.5t12.5 2.5t10.5 3l7 3t8.5 4.5q24 13 24 40q0 53 -85 53q-47 0 -68.5 -16.5t-26.5 -57.5h-131q3 187 228 187q117 0 175 -50q62 50 155 50q121 0 188.5 -78.5t67.5 -220.5q0 -12 -1 -24h-362q0 -62 31 -94.5 t83 -32.5q34 0 64 16.5t40 36.5h138q-24 -70 -92.5 -115t-157.5 -45q-136 0 -200 104q-89 -105 -205 -105q-78 0 -123 41.5t-45 116.5zM167 163q0 -59 76 -59q54 0 82.5 32.5t28.5 94.5v23q-24 -14 -59 -19l-48 -7q-42 -6 -61 -20.5t-19 -44.5zM395 598l70 154h156 l-126 -154h-100zM495 319h216q-11 123 -109 123t-107 -123z" />
<glyph unicode="&#x1fe;" horiz-adv-x="778" d="M40 365q0 161 96.5 268.5t253.5 107.5q128 0 218 -73l65 70l68 -64l-69 -74q70 -100 70 -240q0 -162 -97 -267t-254 -105q-129 0 -218 72l-64 -69l-68 64l68 73q-69 98 -69 237zM190 365q0 -70 22 -125l303 328q-50 45 -124 45q-90 0 -145.5 -68.5t-55.5 -179.5zM266 161 q51 -45 125 -45q90 0 145.5 67t55.5 178q0 71 -23 128zM336 786l76 135h165l-135 -135h-106z" />
<glyph unicode="&#x1ff;" horiz-adv-x="611" d="M35 270q0 132 71 205.5t195 73.5q101 0 165 -45l38 39l60 -58l-40 -42q45 -68 45 -177q0 -129 -71.5 -202t-195.5 -73q-98 0 -164 46l-38 -40l-60 58l40 42q-45 70 -45 173zM175 270q0 -34 8 -64l194 204q-31 26 -75 26q-58 0 -92.5 -44.5t-34.5 -121.5zM227 130 q32 -26 75 -26q57 0 92 44.5t35 119.5q0 36 -8 66zM256 598l70 154h156l-126 -154h-100z" />
<glyph unicode="&#x200;" horiz-adv-x="722" d="M26 0l259 729h166l252 -729h-154l-48 147h-273l-49 -147h-153zM115 941h126l70 -154h-85zM270 272h190l-95 285zM313 941h126l70 -154h-85z" />
<glyph unicode="&#x201;" d="M18 752h126l70 -154h-85zM28 146q0 72 38.5 110t120.5 53l56 10q12 2 32 5t28.5 4.5t21 5.5t17.5 9.5t9 15t4 23.5q0 54 -81 54q-52 0 -73 -16t-26 -58h-135q13 187 231 187q221 0 221 -166v-300q0 -37 32 -66v-17h-152q-16 20 -16 68q-74 -77 -164 -77q-71 0 -117.5 40 t-46.5 115zM168 162q0 -58 76 -58q53 0 82 33t29 94v24q-19 -9 -59 -17l-48 -9q-45 -8 -62.5 -22.5t-17.5 -44.5zM216 752h126l70 -154h-85z" />
<glyph unicode="&#x204;" horiz-adv-x="667" d="M79 0v729h527v-125h-377v-165h349v-125h-349v-189h395v-125h-545zM90 941h126l70 -154h-85zM288 941h126l70 -154h-85z" />
<glyph unicode="&#x205;" d="M19 752h126l70 -154h-85zM22 263q0 135 66.5 210.5t183.5 75.5q119 0 186 -79.5t67 -219.5l-1 -17h-362q3 -75 31 -105t81 -30q90 0 107 54h138q-23 -78 -90 -119.5t-160 -41.5q-116 0 -181.5 71.5t-65.5 200.5zM164 326h215q-5 57 -34 86.5t-75 29.5q-92 0 -106 -116z M217 752h126l70 -154h-85z" />
<glyph unicode="&#x208;" horiz-adv-x="278" d="M-115 941h126l70 -154h-85zM63 0v729h150v-729h-150zM83 941h126l70 -154h-85z" />
<glyph unicode="&#x209;" horiz-adv-x="278" d="M-114 752h126l70 -154h-85zM67 0v540h140v-540h-140zM84 752h126l70 -154h-85z" />
<glyph unicode="&#x20c;" horiz-adv-x="778" d="M40 365q0 161 96.5 268.5t253.5 107.5q158 0 255 -107t97 -274q0 -162 -97 -267t-254 -105q-159 0 -255 105.5t-96 271.5zM137 941h126l70 -154h-85zM190 365q0 -114 55 -181.5t146 -67.5q90 0 145.5 67t55.5 178q0 114 -54.5 183t-146.5 69q-90 0 -145.5 -68.5 t-55.5 -179.5zM335 941h126l70 -154h-85z" />
<glyph unicode="&#x20d;" horiz-adv-x="611" d="M35 270q0 132 71 205.5t195 73.5q128 0 198 -73.5t70 -209.5q0 -129 -71.5 -202t-195.5 -73q-125 0 -196 73t-71 206zM52 752h126l70 -154h-85zM175 270q0 -77 34.5 -121.5t92.5 -44.5q57 0 92 44.5t35 119.5q0 79 -34.5 123.5t-92.5 44.5t-92.5 -44.5t-34.5 -121.5z M250 752h126l70 -154h-85z" />
<glyph unicode="&#x210;" horiz-adv-x="722" d="M80 0v729h391q94 0 145 -54.5t51 -142.5q0 -132 -123 -180q27 -11 40 -17.5t26.5 -21.5t18 -27t9 -44t5.5 -63t2 -92q0 -42 32 -60v-27h-161q-14 26 -18.5 50t-4.5 75l2 77q0 46 -22 66.5t-71 20.5h-172v-289h-150zM108 941h126l70 -154h-85zM230 414h181q61 0 83.5 23 t22.5 74q0 49 -23 71t-83 22h-181v-190zM306 941h126l70 -154h-85z" />
<glyph unicode="&#x211;" horiz-adv-x="389" d="M-50 752h126l70 -154h-85zM63 0v540h140v-106q22 55 62 85t88 30q9 0 17 -1v-142q-25 4 -44 4q-123 0 -123 -123v-287h-140zM148 752h126l70 -154h-85z" />
<glyph unicode="&#x214;" horiz-adv-x="722" d="M76 246v483h150v-483q0 -130 139 -130t139 130v483h150v-483q0 -125 -79.5 -191.5t-209.5 -66.5t-209.5 66.5t-79.5 191.5zM108 941h126l70 -154h-85zM306 941h126l70 -154h-85z" />
<glyph unicode="&#x215;" horiz-adv-x="611" d="M52 752h126l70 -154h-85zM58 178v362h140v-333q0 -97 90 -97q51 0 82 29t31 77v324h140v-540h-140v71q-60 -80 -162 -80q-86 0 -133.5 49t-47.5 138zM250 752h126l70 -154h-85z" />
<glyph unicode="&#x218;" horiz-adv-x="667" d="M32 229h146q0 -58 43.5 -89.5t120.5 -31.5q69 0 108 24t39 69q0 43 -30 64t-107 36l-102 20q-111 22 -158 66.5t-47 129.5q0 107 72.5 165.5t203.5 58.5q135 0 210.5 -60t75.5 -174h-140q0 55 -40.5 84.5t-112.5 29.5q-58 0 -92 -24.5t-34 -65.5q0 -40 29 -59.5 t109 -35.5l114 -22q102 -20 147.5 -65t45.5 -130q0 -110 -78.5 -170.5t-220.5 -60.5q-141 0 -221.5 62.5t-80.5 178.5zM261 -60h122v-103q0 -61 -34.5 -101.5t-87.5 -42.5v46q69 13 67 89h-67v112z" />
<glyph unicode="&#x219;" d="M29 171h137q9 -41 34 -55.5t76 -14.5q104 0 104 46q0 22 -47 37l-167 52q-71 22 -94.5 51t-23.5 82q0 83 59.5 131.5t162.5 48.5q109 0 171 -48.5t64 -134.5h-135q-1 73 -101 73q-37 0 -59 -13.5t-22 -36.5q0 -17 10 -25.5t39 -16.5l177 -51q106 -31 106 -129v-7 q0 -82 -61 -125.5t-175 -43.5q-249 0 -255 180zM211 -60h122v-103q0 -61 -34.5 -101.5t-87.5 -42.5v46q69 13 67 89h-67v112z" />
<glyph unicode="&#x21a;" horiz-adv-x="611" d="M14 604v125h584v-125h-213v-604h-150v604h-221zM239 -60h122v-103q0 -61 -34.5 -101.5t-87.5 -42.5v46q69 13 67 89h-67v112z" />
<glyph unicode="&#x21b;" horiz-adv-x="333" d="M14 436v93h69v145h140v-145h78v-93h-78v-282q0 -36 9 -47.5t37 -11.5q11 0 32 3v-98q-6 0 -34.5 -2t-46.5 -2q-70 0 -103.5 28.5t-33.5 91.5v320h-69zM100 -60h122v-103q0 -61 -34.5 -101.5t-87.5 -42.5v46q69 13 67 89h-67v112z" />
<glyph unicode="&#x258;" d="M22 250q0 140 67 219.5t186 79.5q117 0 183.5 -75.5t66.5 -210.5q0 -129 -65.5 -200.5t-181.5 -71.5q-93 0 -160 41.5t-90 119.5h138q17 -54 107 -54q53 0 81 30t31 105h-362zM168 326h215q-14 116 -106 116q-46 0 -75 -29.5t-34 -86.5z" />
<glyph unicode="&#x259;" d="M22 290l1 17h362q-3 75 -31 105t-81 30q-90 0 -107 -54h-138q23 78 90 119.5t160 41.5q116 0 181.5 -71.5t65.5 -200.5q0 -135 -66.5 -210.5t-183.5 -75.5q-119 0 -186 79.5t-67 219.5zM168 214q5 -57 34 -86.5t75 -29.5q92 0 106 116h-215z" />
<glyph unicode="&#x2be;" horiz-adv-x="461" d="M60 467q-2 9 8 9h89q6 0 8 -7q7 -32 20.5 -45.5t38.5 -13.5q68 0 68 106q0 48 -18 74t-50 26q-44 0 -59 -50q-2 -6 -8 -6h-89q-10 0 -8 9q7 62 51.5 100t112.5 38q85 0 131 -49.5t46 -141.5q0 -95 -46.5 -146t-131.5 -51q-71 0 -114.5 39t-48.5 109z" />
<glyph unicode="&#x2bf;" horiz-adv-x="461" d="M60 510q0 95 46.5 146t131.5 51q71 0 114.5 -39t48.5 -109q2 -9 -8 -9h-89q-6 0 -8 7q-7 32 -20.5 45.5t-38.5 13.5q-68 0 -68 -106q0 -48 18 -74t50 -26q44 0 59 50q2 6 8 6h89q10 0 8 -9q-7 -62 -51.5 -100t-112.5 -38q-85 0 -131 49.5t-46 141.5z" />
<glyph unicode="&#x2c6;" horiz-adv-x="333" d="M-2 598l108 154h127l103 -154h-88l-82 77l-82 -77h-86z" />
<glyph unicode="&#x2c7;" horiz-adv-x="333" d="M-2 752h88l82 -77l82 77h86l-108 -154h-127z" />
<glyph unicode="&#x2d8;" horiz-adv-x="333" d="M0 751h80q0 -31 24 -47.5t60 -16.5t60 16.5t24 47.5h80q0 -62 -50 -106.5t-114 -44.5t-114 44.5t-50 106.5z" />
<glyph unicode="&#x2d9;" horiz-adv-x="333" d="M97 605v140h140v-140h-140z" />
<glyph unicode="&#x2da;" horiz-adv-x="333" d="M67 675q0 41 29 70t72 29q41 0 69.5 -29t28.5 -71q0 -40 -29.5 -69t-69.5 -29q-42 0 -71 29t-29 70zM120 675q0 -19 14 -32.5t34 -13.5q18 0 31.5 13.5t13.5 32.5t-13 32.5t-32 13.5q-20 0 -34 -13.5t-14 -32.5z" />
<glyph unicode="&#x2db;" horiz-adv-x="333" d="M75 -127q0 34 16 62.5t57 64.5h105q-45 -25 -64 -44t-19 -48q0 -48 52 -48h63v-90h-63q-66 0 -106.5 25.5t-40.5 77.5z" />
<glyph unicode="&#x2dc;" horiz-adv-x="333" d="M-9 611q3 58 28 91t66 33q20 0 56 -13l71 -25q14 -6 34 -6q32 0 36 48h63q-6 -127 -95 -127q-24 0 -55 12l-71 26q-18 6 -30 6q-18 0 -27 -10.5t-13 -34.5h-63z" />
<glyph unicode="&#x2dd;" horiz-adv-x="333" d="M26 598l70 154h126l-111 -154h-85zM224 598l70 154h126l-111 -154h-85z" />
<glyph unicode="&#x300;" horiz-adv-x="0" d="M-454 752h156l70 -154h-100z" />
<glyph unicode="&#x301;" horiz-adv-x="0" d="M-327 598l70 154h156l-126 -154h-100z" />
<glyph unicode="&#x302;" horiz-adv-x="0" d="M-446 598l108 154h127l103 -154h-88l-82 77l-82 -77h-86z" />
<glyph unicode="&#x303;" horiz-adv-x="0" d="M-453 611q3 58 28 91t66 33q20 0 56 -13l71 -25q14 -6 34 -6q32 0 36 48h63q-6 -127 -95 -127q-23 0 -55 12l-71 26q-18 6 -30 6q-18 0 -27 -10.5t-13 -34.5h-63z" />
<glyph unicode="&#x304;" horiz-adv-x="0" d="M-428 636v79h299v-79h-299z" />
<glyph unicode="&#x306;" horiz-adv-x="0" d="M-444 751h80q0 -31 24 -47.5t60 -16.5t60 16.5t24 47.5h80q0 -62 -50 -106.5t-114 -44.5t-114 44.5t-50 106.5z" />
<glyph unicode="&#x307;" horiz-adv-x="0" d="M-347 605v140h140v-140h-140z" />
<glyph unicode="&#x308;" horiz-adv-x="0" d="M-438 618v115h126v-115h-126zM-243 618v115h126v-115h-126z" />
<glyph unicode="&#x309;" horiz-adv-x="0" d="M-390 693q0 104 111 104q50 0 82 -24.5t32 -62.5q0 -23 -11.5 -38.5t-43.5 -34.5q-19 -11 -24 -18t-5 -25h-62q0 27 10 44t37 35q18 13 23.5 19t5.5 16q0 16 -12 26t-31 10q-45 0 -45 -51h-67z" />
<glyph unicode="&#x30a;" horiz-adv-x="0" d="M-377 675q0 41 29 70t72 29q41 0 69.5 -29t28.5 -71q0 -40 -29.5 -69t-69.5 -29q-42 0 -71 29t-29 70zM-324 675q0 -19 14 -32.5t34 -13.5q18 0 31.5 13.5t13.5 32.5t-13 32.5t-32 13.5q-20 0 -34 -13.5t-14 -32.5z" />
<glyph unicode="&#x30b;" horiz-adv-x="0" d="M-418 598l70 154h126l-111 -154h-85zM-220 598l70 154h126l-111 -154h-85z" />
<glyph unicode="&#x30c;" horiz-adv-x="0" d="M-446 752h88l82 -77l82 77h86l-108 -154h-127z" />
<glyph unicode="&#x30f;" horiz-adv-x="0" d="M-531 752h126l70 -154h-85zM-333 752h126l70 -154h-85z" />
<glyph unicode="&#x311;" horiz-adv-x="0" d="M-444 600q0 62 50 106.5t114 44.5t114 -44.5t50 -106.5h-80q0 31 -24 47.5t-60 16.5t-60 -16.5t-24 -47.5h-80z" />
<glyph unicode="&#x323;" horiz-adv-x="0" d="M-347 -65h140v-140h-140v140z" />
<glyph unicode="&#x326;" horiz-adv-x="0" d="M-338 -60h122v-103q0 -61 -34.5 -101.5t-87.5 -42.5v46q69 13 67 89h-67v112z" />
<glyph unicode="&#x32e;" horiz-adv-x="0" d="M-458 -74h71q8 -40 110 -40q103 0 109 40h71q-12 -122 -182 -122q-81 0 -129.5 30t-49.5 92z" />
<glyph unicode="&#x32f;" horiz-adv-x="0" d="M-458 -196q12 122 182 122q81 0 129.5 -30t49.5 -92h-71q-8 40 -110 40q-103 0 -109 -40h-71z" />
<glyph unicode="&#x330;" horiz-adv-x="0" d="M-453 -199q3 58 28 91t66 33q20 0 56 -13l71 -25q14 -6 34 -6q32 0 36 48h63q-6 -127 -95 -127q-23 0 -55 12l-71 26q-18 6 -30 6q-18 0 -27 -10.5t-13 -34.5h-63z" />
<glyph unicode="&#x331;" horiz-adv-x="0" d="M-428 -95h299v-79h-299v79z" />
<glyph unicode="&#x332;" horiz-adv-x="0" d="M-428 -95h299v-79h-299v79z" />
<glyph unicode="&#x391;" horiz-adv-x="722" d="M26 0l259 729h166l252 -729h-154l-48 147h-273l-49 -147h-153zM270 272h190l-95 285z" />
<glyph unicode="&#x392;" horiz-adv-x="722" d="M82 0v729h325q110 0 174 -55.5t64 -136.5q0 -47 -23 -81.5t-77 -68.5q121 -71 121 -177q0 -94 -66.5 -152t-189.5 -58h-328zM232 125h179q111 0 111 94q0 95 -111 95h-179v-189zM232 439h163q106 0 106 82q0 83 -106 83h-163v-165z" />
<glyph unicode="&#x393;" horiz-adv-x="611" d="M74 0v729h512v-125h-362v-604h-150z" />
<glyph unicode="&#x394;" horiz-adv-x="729" d="M-7 0l307 707h129l307 -707h-743zM207 140h315l-157 363z" />
<glyph unicode="&#x395;" horiz-adv-x="667" d="M79 0v729h527v-125h-377v-165h349v-125h-349v-189h395v-125h-545z" />
<glyph unicode="&#x396;" horiz-adv-x="611" d="M30 0v125l373 479h-373v125h548v-125l-372 -479h372v-125h-548z" />
<glyph unicode="&#x397;" horiz-adv-x="722" d="M68 0v729h150v-273h289v273h150v-729h-150v331h-289v-331h-150z" />
<glyph unicode="&#x398;" horiz-adv-x="778" d="M40 365q0 161 96.5 268.5t253.5 107.5q158 0 255 -107t97 -274q0 -162 -97 -267t-254 -105q-159 0 -255 105.5t-96 271.5zM190 365q0 -114 55 -181.5t146 -67.5q90 0 145.5 67t55.5 178q0 114 -54.5 183t-146.5 69q-90 0 -145.5 -68.5t-55.5 -179.5zM261 295v140h260 v-140h-260z" />
<glyph unicode="&#x399;" horiz-adv-x="278" d="M63 0v729h150v-729h-150z" />
<glyph unicode="&#x39a;" horiz-adv-x="722" d="M74 0v729h150v-320l285 320h177l-291 -314l322 -415h-179l-239 322l-75 -78v-244h-150z" />
<glyph unicode="&#x39b;" horiz-adv-x="722" d="M26 0l259 729h166l252 -729h-154l-184 557l-186 -557h-153z" />
<glyph unicode="&#x39c;" horiz-adv-x="833" d="M66 0v729h224l132 -580l128 580h226v-729h-150v568l-129 -568h-150l-131 568v-568h-150z" />
<glyph unicode="&#x39d;" horiz-adv-x="722" d="M68 0v729h154l289 -496v496h150v-729h-150l-293 504v-504h-150z" />
<glyph unicode="&#x39e;" horiz-adv-x="722" d="M75 0v150h572v-150h-572zM75 579v150h572v-150h-572zM225 295v140h272v-140h-272z" />
<glyph unicode="&#x39f;" horiz-adv-x="778" d="M40 365q0 161 96.5 268.5t253.5 107.5q158 0 255 -107t97 -274q0 -162 -97 -267t-254 -105q-159 0 -255 105.5t-96 271.5zM190 365q0 -114 55 -181.5t146 -67.5q90 0 145.5 67t55.5 178q0 114 -54.5 183t-146.5 69q-90 0 -145.5 -68.5t-55.5 -179.5z" />
<glyph unicode="&#x3a0;" horiz-adv-x="659" d="M35 0v729h589v-729h-150v604h-289v-604h-150z" />
<glyph unicode="&#x3a1;" horiz-adv-x="667" d="M76 0v729h322q114 0 174.5 -58t60.5 -168q0 -111 -60 -177t-160 -66h-187v-260h-150zM226 385h140q117 0 117 109q0 56 -28.5 83t-88.5 27h-140v-219z" />
<glyph unicode="&#x3a3;" horiz-adv-x="612" d="M35 0v135l229 230l-229 229v135h542v-125h-375l239 -239l-239 -240h375v-125h-542z" />
<glyph unicode="&#x3a4;" horiz-adv-x="611" d="M14 604v125h584v-125h-213v-604h-150v604h-221z" />
<glyph unicode="&#x3a5;" horiz-adv-x="667" d="M27 729h167l149 -322l139 322h168l-231 -459v-270h-150v270z" />
<glyph unicode="&#x3a6;" horiz-adv-x="761" d="M60 365q0 91 70 153t176 79v132h150v-132q106 -17 176 -79t70 -153t-70 -153.5t-176 -79.5v-132h-150v132q-106 17 -176 79.5t-70 153.5zM200 365q0 -42 29 -72t77 -43v229q-48 -13 -77 -42.5t-29 -71.5zM456 250q48 13 77 43t29 72t-29 71.5t-77 42.5v-229z" />
<glyph unicode="&#x3a7;" horiz-adv-x="667" d="M22 0l230 367l-222 362h178l128 -240l134 240h174l-225 -357l234 -372h-178l-140 253l-139 -253h-174z" />
<glyph unicode="&#x3a8;" horiz-adv-x="744" d="M60 540v189h140v-189q0 -61 26 -114t71 -79v382h150v-382q45 26 71 79t26 114v189h140v-189q0 -114 -66.5 -202.5t-170.5 -115.5v-222h-150v222q-104 27 -170.5 115.5t-66.5 202.5z" />
<glyph unicode="&#x3a9;" horiz-adv-x="770" d="M35 0v125h142v64q-107 94 -107 237q0 130 92.5 222.5t222.5 92.5t222.5 -92.5t92.5 -222.5q0 -143 -107 -237v-64h142v-125h-292v247q49 21 78 70t29 109q0 77 -47.5 133.5t-117.5 56.5t-117.5 -56.5t-47.5 -133.5q0 -60 29 -109t78 -70v-247h-292z" />
<glyph unicode="&#x3b1;" horiz-adv-x="776" d="M60 240q0 122 84 209t204 87q117 0 200 -115q20 98 57 155l111 -72q-30 -47 -54.5 -149t-29.5 -117q40 -134 84 -202l-111 -72q-26 39 -58 131q-86 -91 -199 -91q-116 0 -202 66.5t-86 169.5zM200 240q0 -53 44 -87.5t104 -34.5q50 0 90 34.5t63 88.5q-12 39 -24 66.5 t-30 56t-43 43.5t-56 15q-65 0 -106.5 -54t-41.5 -128z" />
<glyph unicode="&#x3b2;" horiz-adv-x="681" d="M102 -230v748q0 113 61 161q63 50 175 50q101 0 165 -51t64 -131q0 -102 -87 -136q46 -9 79 -40q51 -50 51 -135q0 -113 -59.5 -179t-158.5 -66q-79 0 -150 40v-261h-140zM242 171q38 -60 111 -60q52 0 84.5 31t32.5 84q0 57 -36.5 90t-100.5 33h-13v95h9q45 1 71.5 25 t26.5 64q0 39 -26 61t-72 22q-41 0 -64 -21t-23 -58v-366z" />
<glyph unicode="&#x3b3;" horiz-adv-x="683" d="M60 540h146l135 -349l135 349h146l-211 -549v-221h-140v221z" />
<glyph unicode="&#x3b4;" horiz-adv-x="608" d="M35 226q0 120 146 182q-71 69 -71 162q0 72 66 115.5t155 43.5q112 0 196 -75l-75 -84q-52 46 -121 46q-34 0 -57.5 -11t-23.5 -35q0 -15 4.5 -28t15 -24t20 -18.5t27.5 -16t28.5 -13.5t32 -13t30.5 -12q74 -31 119.5 -88.5t45.5 -130.5q0 -102 -79 -168.5t-190 -66.5 t-190 66.5t-79 168.5zM185 226q0 -43 35 -69t84 -26t84 26t35 69q0 65 -69 89q-169 0 -169 -89z" />
<glyph unicode="&#x3b5;" horiz-adv-x="562" d="M60 170q0 76 74 119q-65 37 -65 107q0 75 61.5 125t144.5 50q75 0 219 -40l-25 -90q-57 16 -194 16q-27 0 -46.5 -17.5t-19.5 -43.5q0 -21 14 -34t43.5 -18t51 -6t60.5 -1v-91q-39 0 -64 -2t-54.5 -9t-44.5 -23t-15 -42q0 -36 27.5 -61.5t65.5 -25.5q135 0 186 13l23 -89 q-146 -38 -209 -38q-95 0 -164 57.5t-69 143.5z" />
<glyph unicode="&#x3b6;" horiz-adv-x="581" d="M60 270q0 109 52 202t143 155h-195v92h491v-92h-95q-114 -27 -185 -128.5t-71 -228.5q0 -58 35 -100.5t88 -42.5h39q77 0 133 -50t56 -122q0 -71 -56 -118.5t-133 -47.5v102q22 0 35.5 19t13.5 45q0 24 -14 41t-35 17h-39q-108 0 -185.5 75t-77.5 182z" />
<glyph unicode="&#x3b7;" horiz-adv-x="611" d="M60 0v540h140v-38q58 34 123 34q92 0 160 -49t68 -127v-590h-140v590q0 29 -26 45.5t-62 16.5q-80 0 -123 -65v-357h-140z" />
<glyph unicode="&#x3b8;" horiz-adv-x="565" d="M60 334q0 76 12 142.5t37 124t69.5 91t103.5 33.5q60 0 104.5 -33.5t69.5 -91t37 -124t12 -142.5q0 -86 -24 -159.5t-76 -122t-123 -48.5q-104 0 -163 98t-59 232zM200 391h165q-1 48 -4 82t-11.5 68t-25.5 52t-42 18q-47 0 -63.5 -59t-18.5 -161zM201 277 q1 -47 6.5 -78.5t24 -56t50.5 -24.5q46 0 63 43t19 116h-163z" />
<glyph unicode="&#x3b9;" horiz-adv-x="437" d="M120 162v378h140v-378q0 -16 9.5 -25.5t30 -13t35 -4.5t42.5 -1v-114q-67 0 -123.5 15.5t-95 52.5t-38.5 90z" />
<glyph unicode="&#x3ba;" d="M59 0v540h140v-210l177 210h159l-184 -204l197 -336h-164l-129 238l-56 -61v-177h-140z" />
<glyph unicode="&#x3bb;" horiz-adv-x="757" d="M60 0l288 490l-13 32q-16 39 -50.5 62.5t-76.5 23.5v102q87 0 158.5 -39.5t101.5 -112.5l230 -558h-148l-138 335l-196 -335h-156z" />
<glyph unicode="&#x3bc;" horiz-adv-x="731" d="M120 -230v770h140v-342q15 -36 42.5 -58t63.5 -22q35 0 62.5 22t42.5 58v342h140v-540h-140v32q-48 -28 -105 -28q-58 0 -106 28v-262h-140z" />
<glyph unicode="&#x3bd;" horiz-adv-x="619" d="M30 540h146l160 -405q53 40 83 99t30 126q0 90 -9 180h140q9 -90 9 -180q0 -128 -71.5 -234.5t-190.5 -155.5l-92 40z" />
<glyph unicode="&#x3be;" horiz-adv-x="611" d="M60 238q0 102 96 163q-87 50 -87 138q0 51 32 88h-41v92h491v-92h-237q-105 -18 -105 -88q0 -44 44.5 -63.5t108.5 -19.5v-102q-65 0 -113.5 -31.5t-48.5 -84.5q0 -47 36.5 -79t86.5 -32h39q77 0 133 -50t56 -122q0 -71 -56 -118.5t-133 -47.5v102q22 0 35.5 19t13.5 45 q0 24 -14 41t-35 17h-39q-107 0 -185 64t-78 161z" />
<glyph unicode="&#x3bf;" horiz-adv-x="611" d="M35 270q0 132 71 205.5t195 73.5q128 0 198 -73.5t70 -209.5q0 -129 -71.5 -202t-195.5 -73q-125 0 -196 73t-71 206zM175 270q0 -77 34.5 -121.5t92.5 -44.5q57 0 92 44.5t35 119.5q0 79 -34.5 123.5t-92.5 44.5t-92.5 -44.5t-34.5 -121.5z" />
<glyph unicode="&#x3c0;" horiz-adv-x="742" d="M35 320q0 125 57 172.5t193 47.5h422v-113h-100v-427h-140v427h-112v-427h-140v427q-40 0 -53.5 -26t-13.5 -81h-113z" />
<glyph unicode="&#x3c1;" horiz-adv-x="670" d="M60 -230v500q0 111 81 188.5t194 77.5t194 -77.5t81 -188.5t-81 -188.5t-194 -77.5q-71 0 -135 33v-267h-140zM200 166q57 -48 135 -48q57 0 96 45t39 107t-39 107t-96 45t-96 -45t-39 -107v-104z" />
<glyph unicode="&#x3c2;" horiz-adv-x="611" d="M60 275q0 108 77 184.5t186 76.5q76 0 137 -44t81 -116l-120 -34q-10 35 -36.5 57.5t-61.5 22.5q-53 0 -88 -43.5t-35 -103.5t35 -104t88 -44h39q77 0 133 -50t56 -122q0 -71 -56 -118.5t-133 -47.5v102q22 0 35.5 19t13.5 45q0 24 -14 41t-35 17h-39q-109 0 -186 76.5 t-77 185.5z" />
<glyph unicode="&#x3c3;" horiz-adv-x="700" d="M60 270q0 132 71 205.5t195 73.5q53 0 100 -14q88 18 194 68l50 -108q-54 -25 -127 -42q51 -71 51 -187q0 -129 -71.5 -202t-195.5 -73q-125 0 -196 73t-71 206zM200 270q0 -77 34.5 -121.5t92.5 -44.5q57 0 92 44.5t35 119.5q0 79 -34.5 123.5t-92.5 44.5t-92.5 -44.5 t-34.5 -121.5z" />
<glyph unicode="&#x3c4;" horiz-adv-x="481" d="M60 413v114h349v-114h-105v-251q0 -16 9.5 -25.5t30 -13t35 -4.5t42.5 -1v-114q-67 0 -123.5 15.5t-95 52.5t-38.5 90v251h-104z" />
<glyph unicode="&#x3c5;" horiz-adv-x="611" d="M60 180v360h140v-360q0 -30 28.5 -46t68.5 -16q49 0 81.5 39t32.5 93q0 146 -18 290h140q18 -144 18 -290q0 -102 -74.5 -174t-179.5 -72q-96 0 -166.5 48.5t-70.5 127.5z" />
<glyph unicode="&#x3c6;" horiz-adv-x="898" d="M60 270q0 91 61 162.5t155 96.5l27 -100q-48 -14 -75.5 -58.5t-27.5 -100.5q0 -62 50 -99t129 -48v127q0 116 64.5 201t165.5 85q98 0 163.5 -79t65.5 -187q0 -74 -45.5 -131.5t-116 -89t-157.5 -41.5v-238h-140v238q-87 10 -157.5 41.5t-116 89t-45.5 131.5zM519 123 q79 11 129 48t50 99q0 63 -22 107.5t-67 44.5q-90 0 -90 -172v-127z" />
<glyph unicode="&#x3c7;" horiz-adv-x="689" d="M60 -230l208 385l-208 385h152l132 -243l132 243h152l-208 -385l208 -385h-152l-132 243l-132 -243h-152z" />
<glyph unicode="&#x3c8;" horiz-adv-x="778" d="M60 180v360h140v-360q0 -55 119 -61v610h140v-610q119 6 119 61v360h140v-360q0 -81 -72.5 -122.5t-186.5 -50.5v-237h-140v237q-114 9 -186.5 50.5t-72.5 122.5z" />
<glyph unicode="&#x3c9;" horiz-adv-x="789" d="M60 301q0 129 102 239h123q-85 -92 -85 -239q0 -43 1 -66t6.5 -55t19 -47t35.5 -15q63 0 77 90q-14 67 -14 152h140q0 -36 0.5 -56t2 -53.5t5.5 -52.5t10.5 -40t17.5 -30.5t26 -9.5q22 0 35.5 15t19 47t6.5 55t1 66q0 147 -85 239h123q102 -110 102 -239 q0 -77 -22 -143.5t-69 -110t-111 -43.5q-85 0 -137 75q-48 -75 -128 -75q-64 0 -111 43.5t-69 110t-22 143.5z" />
<glyph unicode="&#x3d1;" horiz-adv-x="671" d="M60 180v180h140v-180q0 -49 106 -49q105 0 105 49v210q-72 5 -126.5 15t-102.5 31t-73.5 57.5t-25.5 87.5q0 83 66 138.5t157 55.5q101 0 173 -68.5t72 -166.5v-62h60v-92l-60 1v-207q0 -84 -73 -136.5t-172 -52.5q-100 0 -173 52.5t-73 136.5zM195 581q0 -84 216 -99v58 q0 58 -29 100.5t-76 42.5q-46 0 -78.5 -29.5t-32.5 -72.5z" />
<glyph unicode="&#x3d5;" horiz-adv-x="730" d="M60 270q0 100 67 175t168 97v187h140v-187q101 -22 168 -97t67 -175t-67 -175t-168 -97v-228h-140v228q-101 22 -168 97t-67 175zM200 270q0 -43 26 -76.5t69 -49.5v252q-43 -16 -69 -49.5t-26 -76.5zM435 144q43 16 69 49.5t26 76.5t-26 76.5t-69 49.5v-252z" />
<glyph unicode="&#x3d6;" horiz-adv-x="789" d="M60 301q0 129 102 239h123q-85 -92 -85 -239q0 -43 1 -66t6.5 -55t19 -47t35.5 -15q63 0 77 90q-14 67 -14 152h140q0 -36 0.5 -56t2 -53.5t5.5 -52.5t10.5 -40t17.5 -30.5t26 -9.5q22 0 35.5 15t19 47t6.5 55t1 66q0 49 -2 87t-7 83t-16.5 77t-28.5 60t-44 42.5 t-63 14.5q-122 0 -235 -67l-43 73q123 73 278 73q72 0 130.5 -37.5t95 -101t56 -141.5t19.5 -163q0 -77 -22 -143.5t-69 -110t-111 -43.5q-85 0 -137 75q-48 -75 -128 -75q-64 0 -111 43.5t-69 110t-22 143.5z" />
<glyph unicode="&#x3f5;" d="M34 266q0 137 66.5 210t188.5 73q82 0 139.5 -37.5t80.5 -106.5h-148q-24 31 -73 31q-94 0 -111 -115h194v-102h-194q9 -56 37.5 -85.5t73.5 -29.5q49 0 74 31h148q-24 -66 -83 -105t-140 -39q-121 0 -187 71t-66 204z" />
<glyph unicode="&#x400;" horiz-adv-x="709" d="M82 0v729h527v-125h-377v-165h349v-125h-349v-189h395v-125h-545zM184 951h126l70 -150h-70z" />
<glyph unicode="&#x401;" horiz-adv-x="709" d="M82 0v729h527v-125h-377v-165h349v-125h-349v-189h395v-125h-545zM200 800v122h110v-122h-110zM386 800v122h110v-122h-110z" />
<glyph unicode="&#x402;" horiz-adv-x="769" d="M14 604v125h504v-125h-173v-100h127q110 0 179 -63t69 -159v-232q0 -96 -69 -159t-179 -63h-37v125h25q46 0 78 27.5t32 75.5v220q0 48 -32 75.5t-78 27.5h-115v-379h-150v604h-181z" />
<glyph unicode="&#x403;" horiz-adv-x="611" d="M82 0v729h512v-125h-362v-604h-150zM303 801l70 150h126l-126 -150h-70z" />
<glyph unicode="&#x404;" horiz-adv-x="722" d="M44 358q0 177 90 280t244 103q168 0 255 -115q42 -56 49 -144h-143q-12 52 -33 78q-42 53 -123 53q-73 0 -122 -46.5t-64 -130.5h291v-125h-292q9 -99 56.5 -153.5t125.5 -54.5q70 0 112 38t49 108h146q-7 -125 -91 -198.5t-220 -73.5q-152 0 -241 102.5t-89 278.5z" />
<glyph unicode="&#x405;" horiz-adv-x="667" d="M32 218h146q4 -59 46 -90t118 -31q68 0 107.5 26t39.5 72q0 44 -31 68t-106 38l-102 20q-111 21 -158 66t-47 130q0 107 72.5 165.5t203.5 58.5q160 0 235 -83q51 -57 51 -151h-140q-8 114 -153 114q-58 0 -92 -24.5t-34 -65.5q0 -40 29 -59.5t109 -35.5l114 -22 q101 -20 147 -67.5t46 -133.5q0 -111 -79 -173.5t-220 -62.5q-140 0 -217.5 62t-84.5 179z" />
<glyph unicode="&#x406;" horiz-adv-x="278" d="M63 0v729h150v-729h-150z" />
<glyph unicode="&#x407;" horiz-adv-x="278" d="M-9 800v122h110v-122h-110zM63 0v729h150v-729h-150zM177 800v122h110v-122h-110z" />
<glyph unicode="&#x408;" d="M24 198v72h150v-70q0 -50 19 -72.5t62 -22.5q39 0 60 22t21 63v539h150v-539q0 -102 -61 -157.5t-173 -55.5q-103 0 -167 58q-61 57 -61 163z" />
<glyph unicode="&#x409;" horiz-adv-x="1106" d="M46 0v145q51 -1 70 75.5t19 240.5v268h522v-260h187q100 0 160 -66t60 -177q0 -110 -60.5 -168t-174.5 -58h-322v604h-222v-190q0 -61 -4 -112t-19 -109.5t-40 -98.5t-70 -67t-106 -27zM657 125h140q60 0 88.5 27t28.5 83q0 109 -117 109h-140v-219z" />
<glyph unicode="&#x40a;" horiz-adv-x="1113" d="M68 0v729h150v-262h288v262h151v-260h187q100 0 160 -66t60 -177q0 -110 -60.5 -168t-174.5 -58h-322v342h-289v-342h-150zM657 125h140q60 0 88.5 27t28.5 83q0 109 -117 109h-140v-219z" />
<glyph unicode="&#x40b;" horiz-adv-x="769" d="M14 604v125h504v-125h-173l-1 -100h128q110 0 179 -63t69 -159v-282h-150v276q0 48 -32 75.5t-78 27.5h-115v-379h-150v604h-181z" />
<glyph unicode="&#x40c;" horiz-adv-x="750" d="M82 0v729h150v-279l285 279h177l-366 -351l397 -378h-200l-293 285v-285h-150zM353 801l70 150h126l-126 -150h-70z" />
<glyph unicode="&#x40d;" horiz-adv-x="757" d="M82 0v729h150v-496l289 496h154v-729h-150v504l-293 -504h-150zM218 951h126l70 -150h-70z" />
<glyph unicode="&#x40e;" horiz-adv-x="718" d="M15 729h163l172 -345l172 345h174l-368 -729h-174l114 226zM224 934v10h56q9 -66 76 -66q65 0 76 66h56v-11q0 -56 -38 -94t-94 -38q-57 0 -94.5 38t-37.5 95z" />
<glyph unicode="&#x40f;" horiz-adv-x="722" d="M68 0v729h150v-604h290v604h150v-729h-230v-150h-130v150h-230z" />
<glyph unicode="&#x410;" horiz-adv-x="722" d="M26 0l259 729h166l252 -729h-151l-50 147h-274l-49 -147h-153zM270 272h190l-95 285z" />
<glyph unicode="&#x411;" horiz-adv-x="722" d="M82 0v729h512v-125h-362v-141h163q79 0 135.5 -22t84.5 -59t39.5 -75t11.5 -81q0 -45 -20 -95.5t-52 -77.5q-63 -53 -184 -53h-328zM232 125h179q53 0 82 29.5t29 76.5q0 48 -29 77.5t-82 29.5h-179v-213z" />
<glyph unicode="&#x412;" horiz-adv-x="722" d="M82 0v729h325q110 0 172 -53q66 -58 66 -139q0 -49 -26 -89.5t-74 -60.5q58 -17 89.5 -67.5t31.5 -109.5q0 -44 -19.5 -86.5t-52.5 -70.5q-63 -53 -184 -53h-328zM232 125h179q111 0 111 94q0 95 -111 95h-179v-189zM232 439h163q106 0 106 82q0 83 -106 83h-163v-165z " />
<glyph unicode="&#x413;" horiz-adv-x="611" d="M82 0v729h512v-125h-362v-604h-150z" />
<glyph unicode="&#x414;" horiz-adv-x="900" d="M35 108h104q40 0 65.5 99.5t25.5 253.5v268h520v-621h115v-258h-130v150h-570v-150h-130v258zM333 125h267v479h-220v-190q0 -190 -47 -289z" />
<glyph unicode="&#x415;" horiz-adv-x="709" d="M82 0v729h527v-125h-377v-165h349v-125h-349v-189h395v-125h-545z" />
<glyph unicode="&#x416;" horiz-adv-x="1093" d="M22 0l357 378l-313 351h164l245 -279v279h150v-279l245 279h164l-313 -351l357 -378h-184l-269 285v-285h-150v285l-269 -285h-184z" />
<glyph unicode="&#x417;" horiz-adv-x="672" d="M32 218h146q4 -59 46 -90t118 -31q68 0 107.5 26t39.5 72q0 49 -33 81t-104 32h-102v120h76q138 0 138 103q0 41 -34 65.5t-92 24.5q-145 0 -153 -114h-140q0 94 51 151q75 83 235 83q131 0 203.5 -58.5t72.5 -165.5q0 -93 -63 -140q89 -49 89 -164q0 -111 -79 -173.5 t-220 -62.5q-140 0 -217.5 62t-84.5 179z" />
<glyph unicode="&#x418;" horiz-adv-x="757" d="M82 0v729h150v-496l289 496h154v-729h-150v504l-293 -504h-150z" />
<glyph unicode="&#x419;" horiz-adv-x="757" d="M82 0v729h150v-496l289 496h154v-729h-150v504l-293 -504h-150zM243 917v10h56q9 -66 77 -66q33 0 50.5 15.5t24.5 50.5h56v-11q0 -56 -38 -94t-94 -38t-94 38t-38 95z" />
<glyph unicode="&#x41a;" horiz-adv-x="750" d="M82 0v729h150v-279l285 279h177l-366 -351l397 -378h-200l-293 285v-285h-150z" />
<glyph unicode="&#x41b;" horiz-adv-x="729" d="M36 -12v145q51 -1 70 71t19 243v282h522v-729h-150v604h-222v-204q0 -50 -3 -92.5t-11.5 -92.5t-25.5 -88t-42.5 -71t-65.5 -50.5t-91 -17.5z" />
<glyph unicode="&#x41c;" horiz-adv-x="874" d="M82 0v729h224l132 -580l128 580h226v-729h-150v568l-129 -568h-150l-131 568v-568h-150z" />
<glyph unicode="&#x41d;" horiz-adv-x="753" d="M82 0v729h150v-273h288v273h151v-729h-150v331h-289v-331h-150z" />
<glyph unicode="&#x41e;" horiz-adv-x="778" d="M40 359q0 171 102 281q93 101 248 101q156 0 250 -101q102 -110 102 -286q0 -77 -27.5 -151.5t-74.5 -124.5q-94 -101 -249 -101t-249 101q-49 52 -75.5 125.5t-26.5 155.5zM190 359q0 -115 55 -184.5t146 -69.5q90 0 145.5 69t55.5 181q0 118 -54.5 188t-146.5 70 q-91 0 -146 -69.5t-55 -184.5z" />
<glyph unicode="&#x41f;" horiz-adv-x="753" d="M82 0v729h589v-729h-150v604h-289v-604h-150z" />
<glyph unicode="&#x420;" horiz-adv-x="671" d="M82 0v729h322q114 0 174.5 -58t60.5 -168q0 -111 -60 -177t-160 -66h-187v-260h-150zM232 385h140q117 0 117 109q0 56 -28.5 83t-88.5 27h-140v-219z" />
<glyph unicode="&#x421;" horiz-adv-x="722" d="M44 358q0 177 90 280t244 103q168 0 255 -115q42 -56 49 -144h-143q-12 52 -33 78q-42 53 -123 53q-89 0 -139 -68t-50 -189q0 -119 48.5 -186t135.5 -67q70 0 112 38t49 108h146q-7 -125 -91 -198.5t-220 -73.5q-152 0 -241 102.5t-89 278.5z" />
<glyph unicode="&#x422;" horiz-adv-x="611" d="M14 604v125h584v-125h-213v-604h-150v604h-221z" />
<glyph unicode="&#x423;" horiz-adv-x="718" d="M15 729h163l172 -345l172 345h174l-368 -729h-174l114 226z" />
<glyph unicode="&#x424;" horiz-adv-x="892" d="M30 374q0 55 14 98.5t33.5 70.5t52 46.5t57.5 28.5t64.5 14t57.5 5.5t50 0.5h12v91h150v-91h12q31 0 50 -0.5t57.5 -5t64 -14t58 -29t52 -46.5t33.5 -70.5t14 -98.5q0 -59 -14 -105.5t-37 -75t-52.5 -50t-61 -30t-63 -15t-57 -4.5t-43.5 0h-13v-94h-150v94q-91 0 -133 8 q-208 41 -208 272zM164 370q0 -29 4.5 -53.5t10.5 -42t18 -31.5t21.5 -23.5t26.5 -15.5t26 -9.5t28 -5t26 -2t25.5 0t20.5 0.5v352h-7q-23 0 -37 -1t-41.5 -5t-45.5 -15t-37 -28.5t-29 -48.5t-10 -72zM521 188q2 0 20.5 -0.5t25.5 0t26 2t28 5t26 9.5t26.5 15.5t21.5 23.5 t18 31.5t10.5 42t4.5 53.5q0 41 -10 72t-29 48.5t-37 28.5t-45.5 15t-41.5 5t-37 1h-7v-352z" />
<glyph unicode="&#x425;" horiz-adv-x="667" d="M22 0l230 367l-222 362h178l132 -226l130 226h174l-215 -357l225 -372h-171l-145 241l-142 -241h-174z" />
<glyph unicode="&#x426;" horiz-adv-x="816" d="M82 0v729h150v-604h289v604h150v-621h110v-258h-130v150h-569z" />
<glyph unicode="&#x427;" horiz-adv-x="685" d="M68 447v282h150v-276q0 -48 32 -75.5t78 -27.5h145v379h151v-729h-150v225h-158q-110 0 -179 63t-69 159z" />
<glyph unicode="&#x428;" horiz-adv-x="1057" d="M68 0v729h150v-604h219v604h150v-604h230v604h150v-729h-899z" />
<glyph unicode="&#x429;" horiz-adv-x="1183" d="M68 0v729h150v-604h229v604h150v-604h230v604h150v-621h120v-258h-135v150h-894z" />
<glyph unicode="&#x42a;" horiz-adv-x="833" d="M14 604v125h380v-260h187q100 0 160 -66t60 -177q0 -110 -60.5 -168t-174.5 -58h-322v604h-230zM394 125h140q60 0 88.5 27t28.5 83q0 109 -117 109h-140v-219z" />
<glyph unicode="&#x42b;" horiz-adv-x="949" d="M68 0v729h150v-260h187q100 0 160 -66t60 -177q0 -110 -60.5 -168t-174.5 -58h-322zM218 125h140q60 0 88.5 27t28.5 83q0 109 -117 109h-140v-219zM734 0v729h150v-729h-150z" />
<glyph unicode="&#x42c;" horiz-adv-x="687" d="M76 0v729h150v-260h187q100 0 160 -66t60 -177q0 -110 -60.5 -168t-174.5 -58h-322zM226 125h140q60 0 88.5 27t28.5 83q0 109 -117 109h-140v-219z" />
<glyph unicode="&#x42d;" horiz-adv-x="722" d="M44 249h146q7 -70 49 -108t112 -38q78 0 125.5 54.5t56.5 153.5h-292v125h291q-15 84 -64 130.5t-122 46.5q-81 0 -123 -53q-21 -26 -33 -78h-143q7 88 49 144q87 115 255 115q154 0 244 -103t90 -280q0 -176 -89 -278.5t-241 -102.5q-136 0 -220 73.5t-91 198.5z" />
<glyph unicode="&#x42e;" horiz-adv-x="1099" d="M68 0v729h150v-293h139q20 122 96 204q93 101 238 101q78 0 134.5 -24.5t105.5 -76.5q102 -110 102 -286q0 -77 -27.5 -151.5t-74.5 -124.5q-94 -101 -239 -101t-239 101q-85 91 -99 233h-136v-311h-150zM501 359q0 -116 50.5 -185t140.5 -69q89 0 140 68.5t51 181.5 q0 120 -50 189t-141 69q-90 0 -140.5 -69t-50.5 -185z" />
<glyph unicode="&#x42f;" horiz-adv-x="698" d="M22 0l220 265q-71 14 -118.5 76.5t-47.5 161.5q0 110 60.5 168t174.5 58h322v-729h-150v260h-61l-221 -260h-179zM226 494q0 -109 117 -109h140v219h-140q-60 0 -88.5 -27t-28.5 -83z" />
<glyph unicode="&#x430;" d="M28 139q0 141 159 170l56 10q73 13 88 21q24 13 24 42q0 54 -81 54q-52 0 -73 -16t-26 -58h-135q13 187 231 187q221 0 221 -166v-300q0 -37 32 -66v-17h-152q-16 20 -16 54q-74 -77 -164 -77q-77 0 -126 51q-38 41 -38 111zM168 155q0 -30 20.5 -47.5t55.5 -17.5 q53 0 82 33t29 94v38q-19 -9 -59 -17l-48 -9q-42 -8 -61 -25.5t-19 -48.5z" />
<glyph unicode="&#x431;" horiz-adv-x="606" d="M50 292q0 48 2 84.5t10.5 83t23 82t41 70.5t63.5 58q59 37 196 54q21 3 34 16t16 24l2 12l104 1q0 -28 -1 -43t-9 -36t-23 -32q-43 -31 -130.5 -40.5t-125.5 -33.5q-83 -51 -84 -130q43 87 169 87q49 0 95 -23.5t74 -63.5q58 -84 58 -199q0 -127 -68 -206.5t-192 -79.5 q-128 0 -191.5 70.5t-63.5 244.5zM189 265q0 -77 32.5 -124t85.5 -47q52 0 85 47t33 121q0 75 -33 122.5t-85 47.5t-85 -46.5t-33 -120.5z" />
<glyph unicode="&#x432;" horiz-adv-x="572" d="M60 0v540h266q83 0 128 -39q49 -42 49 -103q0 -36 -20.5 -69t-53.5 -43q43 -13 66 -50.5t23 -80.5q0 -33 -14.5 -64.5t-38.5 -51.5q-46 -39 -136 -39h-269zM200 110h100q42 0 60.5 13.5t18.5 46.5t-17.5 43t-61.5 10h-100v-113zM200 333h94q40 0 57 9.5t17 37.5 q0 29 -17 39.5t-57 10.5h-94v-97z" />
<glyph unicode="&#x433;" horiz-adv-x="454" d="M60 0v540h348v-113h-208v-427h-140z" />
<glyph unicode="&#x434;" horiz-adv-x="685" d="M23 101h62q35 0 56 88t21 199v152h418v-439h82v-226h-110v125h-419v-125h-110v226zM263 113h177v314h-138v-51q0 -175 -39 -263z" />
<glyph unicode="&#x435;" d="M22 256q0 136 67 214.5t183 78.5q82 0 143.5 -41.5t88.5 -115.5q21 -61 21 -142q0 -12 -1 -24h-362q3 -68 20 -95q31 -47 92 -47q80 0 107 68h138q-23 -80 -91 -127.5t-159 -47.5q-115 0 -181 74.5t-66 204.5zM164 319h215q-4 50 -22 78q-32 45 -87 45q-92 0 -106 -123z " />
<glyph unicode="&#x436;" horiz-adv-x="809" d="M16 0l213 296l-177 244h148l132 -189v189h140v-189l132 189h148l-177 -244l213 -296h-179l-137 198v-198h-140v198l-137 -198h-179z" />
<glyph unicode="&#x437;" horiz-adv-x="546" d="M29 157h137q8 -37 27 -51q29 -19 83 -19q49 0 76.5 14t27.5 39q0 13 -1.5 20.5t-8 21t-25 20t-47.5 6.5h-92v110h94q12 0 21.5 1.5t16 5t11.5 6.5t8 9.5t5 10t2.5 10.5t0.5 9.5v10.5v8q0 23 -22 36.5t-59 13.5q-100 0 -101 -73h-135q2 86 64 134.5t171 48.5 q103 0 162.5 -48.5t59.5 -131.5q0 -55 -30 -88q-2 -2 -7.5 -5.5t-6.5 -4.5q59 -37 59 -111q0 -84 -64 -135q-60 -48 -172 -48q-249 0 -255 180z" />
<glyph unicode="&#x438;" horiz-adv-x="615" d="M60 0v540h140v-338l195 338h160v-540h-140v338l-195 -338h-160z" />
<glyph unicode="&#x439;" horiz-adv-x="615" d="M60 0v540h140v-338l195 338h160v-540h-140v338l-195 -338h-160zM176 713v10h56q9 -66 77 -66q64 0 75 66h56v-11q0 -56 -38 -94t-94 -38t-94 38t-38 95z" />
<glyph unicode="&#x43a;" horiz-adv-x="573" d="M60 0v540h140v-189l162 189h148l-214 -244l253 -296h-182l-167 198v-198h-140z" />
<glyph unicode="&#x43b;" horiz-adv-x="577" d="M29 -10v135q13 0 24 5t18.5 16t13 23t9 32t6 37t3.5 44t1 46v50v162h413v-540h-140v427h-133v-61q0 -199 -50.5 -287.5t-164.5 -88.5z" />
<glyph unicode="&#x43c;" horiz-adv-x="666" d="M60 0v540h175l98 -327l98 327h175v-540h-140v297l-97 -297h-72l-97 297v-297h-140z" />
<glyph unicode="&#x43d;" horiz-adv-x="603" d="M60 0v540h140v-220h203v220h140v-540h-140v207h-203v-207h-140z" />
<glyph unicode="&#x43e;" horiz-adv-x="611" d="M35 263q0 133 71 209.5t195 76.5q127 0 197.5 -76.5t70.5 -213.5q0 -130 -72 -206t-195 -76q-125 0 -196 76.5t-71 209.5zM175 263q0 -77 35 -125t92 -48q56 0 91.5 47.5t35.5 123.5q0 80 -34.5 127.5t-92.5 47.5q-57 0 -92 -48t-35 -125z" />
<glyph unicode="&#x43f;" horiz-adv-x="603" d="M60 0v540h483v-540h-140v427h-203v-427h-140z" />
<glyph unicode="&#x440;" horiz-adv-x="611" d="M58 -218v758h140v-80q50 89 150 89q49 0 95 -23.5t73 -61.5q58 -81 58 -202q0 -123 -64.5 -204.5t-161.5 -81.5q-100 0 -150 88v-282h-140zM198 262q0 -76 32.5 -122.5t85.5 -46.5q52 0 85 47t33 120q0 77 -32.5 124.5t-85.5 47.5t-85.5 -47t-32.5 -123z" />
<glyph unicode="&#x441;" d="M34 259q0 138 67 214t188 76q101 0 163.5 -56t69.5 -155h-134q-12 53 -34.5 75.5t-65.5 22.5q-62 0 -87 -46q-27 -51 -27 -131q0 -79 30.5 -124t83.5 -45q41 0 64 22.5t36 74.5h134q-10 -97 -73.5 -153.5t-161.5 -56.5q-120 0 -186.5 74t-66.5 208z" />
<glyph unicode="&#x442;" horiz-adv-x="454" d="M21 427v113h410v-113h-135v-427h-140v427h-135z" />
<glyph unicode="&#x443;" d="M9 540h154l119 -393l112 393h144l-217 -639q-16 -48 -34.5 -69t-49.5 -34q-41 -17 -101 -17q-22 0 -50 4v105q22 -6 37 -6q37 0 61 25.5t24 63.5v5z" />
<glyph unicode="&#x444;" horiz-adv-x="957" d="M28 262q0 121 58 202q27 38 73 61.5t95 23.5q100 0 150 -89v259h140v-259q50 89 150 89q49 0 95 -23.5t73 -61.5q58 -81 58 -202q0 -123 -64.5 -204.5t-161.5 -81.5q-100 0 -150 88v-282h-140v282q-50 -88 -150 -88q-97 0 -161.5 81.5t-64.5 204.5zM168 260 q0 -73 33 -120t85 -47q53 0 85.5 46.5t32.5 122.5t-32.5 123t-85.5 47t-85.5 -47.5t-32.5 -124.5zM544 262q0 -76 32.5 -122.5t85.5 -46.5q52 0 85 47t33 120q0 77 -32.5 124.5t-85.5 47.5t-85.5 -47t-32.5 -123z" />
<glyph unicode="&#x445;" d="M16 0l180 272l-176 268h168l88 -163l87 163h168l-176 -268l180 -272h-168l-91 168l-92 -168h-168z" />
<glyph unicode="&#x446;" horiz-adv-x="652" d="M60 0v540h140v-427h203v427h140v-439h86v-226h-110v125h-459z" />
<glyph unicode="&#x447;" horiz-adv-x="578" d="M60 345v195h140v-194q0 -35 21 -52.5t57 -17.5h100v264h140v-540h-140v163h-98q-92 0 -156 44.5t-64 137.5z" />
<glyph unicode="&#x448;" horiz-adv-x="886" d="M60 0v540h140v-427h171v427h140v-427h175v427h140v-540h-766z" />
<glyph unicode="&#x449;" horiz-adv-x="968" d="M60 0v540h140v-427h171v427h140v-427h174v427h140v-439h120v-226h-110v125h-775z" />
<glyph unicode="&#x44a;" horiz-adv-x="693" d="M20 427v113h311v-181h148q85 0 134.5 -53.5t49.5 -137.5q0 -34 -14.5 -72t-38.5 -57q-46 -39 -136 -39h-283v427h-171zM331 110h109q84 0 84 70q0 34 -23.5 51.5t-65.5 17.5h-104v-139z" />
<glyph unicode="&#x44b;" horiz-adv-x="811" d="M60 0v540h140v-181h118q106 0 160 -52t54 -139q0 -34 -14.5 -72t-38.5 -57q-46 -39 -136 -39h-283zM200 110h109q84 0 84 70q0 34 -24 51.5t-65 17.5h-104v-139zM578 0v540h140v-540h-140z" />
<glyph unicode="&#x44c;" horiz-adv-x="562" d="M60 0v540h140v-181h135q197 0 197 -177q0 -82 -47.5 -132t-141.5 -50h-283zM200 110h109q84 0 84 70q0 34 -24 51.5t-65 17.5h-104v-139z" />
<glyph unicode="&#x44d;" horiz-adv-x="564" d="M34 187h134q13 -52 36 -74.5t64 -22.5q43 0 72 30.5t38 86.5h-175v113h174q-8 44 -22 70q-25 46 -87 46q-43 0 -65.5 -22.5t-34.5 -75.5h-134q7 99 69.5 155t163.5 56q121 0 188 -76t67 -214q0 -134 -66.5 -208t-186.5 -74q-98 0 -161.5 56.5t-73.5 153.5z" />
<glyph unicode="&#x44e;" horiz-adv-x="888" d="M60 0v540h140v-220h82q15 109 79.5 169t172.5 60q126 0 192 -75.5t66 -214.5q0 -131 -67.5 -206.5t-189.5 -75.5q-109 0 -174 60t-79 170h-82v-207h-140zM418 263q0 -79 30.5 -126t86.5 -47q55 0 86 47t31 124q0 81 -30 128t-87 47q-56 0 -86.5 -47t-30.5 -126z" />
<glyph unicode="&#x44f;" horiz-adv-x="596" d="M25 0l155 218q-61 17 -95 63t-34 104q0 33 14.5 64.5t38.5 51.5q46 39 136 39h291v-540h-140v207h-44l-143 -207h-179zM190 372q0 -33 18 -44t61 -11h122v113h-122q-42 0 -60.5 -12.5t-18.5 -45.5z" />
<glyph unicode="&#x450;" d="M22 256q0 136 67 214.5t183 78.5q82 0 143.5 -41.5t88.5 -115.5q21 -61 21 -142q0 -12 -1 -24h-362q3 -68 20 -95q31 -47 92 -47q80 0 107 68h138q-23 -80 -91 -127.5t-159 -47.5q-115 0 -181 74.5t-66 204.5zM111 759h126l70 -150h-70zM164 319h215q-4 50 -22 78 q-32 45 -87 45q-92 0 -106 -123z" />
<glyph unicode="&#x451;" d="M22 256q0 136 67 214.5t183 78.5q82 0 143.5 -41.5t88.5 -115.5q21 -61 21 -142q0 -12 -1 -24h-362q3 -68 20 -95q31 -47 92 -47q80 0 107 68h138q-23 -80 -91 -127.5t-159 -47.5q-115 0 -181 74.5t-66 204.5zM132 621v122h110v-122h-110zM164 319h215q-4 50 -22 78 q-32 45 -87 45q-92 0 -106 -123zM318 621v122h110v-122h-110z" />
<glyph unicode="&#x452;" horiz-adv-x="611" d="M12 588v79h55v62h140v-62h154v-79h-154v-155q58 87 158 87q72 0 121 -41q55 -46 55 -146v-333q0 -100 -55 -146q-49 -41 -121 -41h-50v119q46 0 70 33q16 24 16 67v269q0 43 -16 67q-24 33 -70 33q-47 0 -77.5 -30t-30.5 -76v-295h-140v588h-55z" />
<glyph unicode="&#x453;" horiz-adv-x="454" d="M60 0v540h348v-113h-208v-427h-140zM199 609l70 150h126l-126 -150h-70z" />
<glyph unicode="&#x454;" d="M34 259q0 138 67 214t188 76q101 0 163.5 -56t69.5 -155h-134q-12 53 -34.5 75.5t-65.5 22.5q-62 0 -87 -46q-14 -26 -22 -70h174v-113h-175q9 -56 38 -86.5t72 -30.5q41 0 64 22.5t36 74.5h134q-10 -97 -73.5 -153.5t-161.5 -56.5q-120 0 -186.5 74t-66.5 208z" />
<glyph unicode="&#x455;" d="M29 157h137q8 -37 27 -51q29 -19 83 -19q49 0 76.5 14t27.5 39q0 16 -10.5 26t-36.5 18l-167 52q-64 21 -88 45q-30 33 -30 88q0 83 59.5 131.5t162.5 48.5q109 0 171 -48.5t64 -134.5h-135q-1 73 -101 73q-37 0 -59 -13.5t-22 -36.5q0 -16 10 -24.5t39 -17.5l177 -51 q106 -31 106 -136q0 -84 -64 -135q-60 -48 -172 -48q-249 0 -255 180z" />
<glyph unicode="&#x456;" horiz-adv-x="278" d="M67 0v540h140v-540h-140zM67 604v125h140v-125h-140z" />
<glyph unicode="&#x457;" horiz-adv-x="278" d="M-9 621v122h110v-122h-110zM67 0v540h140v-540h-140zM177 621v122h110v-122h-110z" />
<glyph unicode="&#x458;" horiz-adv-x="278" d="M4 -101q13 -4 25 -4q23 0 32 9.5t9 32.5v603h140v-634q0 -66 -29 -95t-94 -29q-36 0 -83 5v112zM70 604v125h140v-125h-140z" />
<glyph unicode="&#x459;" horiz-adv-x="923" d="M29 0v135q13 0 24 5t18.5 16t13 23t9 32t6 37t3.5 44t1 46v50v152h439v-181h135q197 0 197 -177q0 -82 -47.5 -132t-141.5 -50h-283v427h-159v-51q0 -199 -50.5 -287.5t-164.5 -88.5zM543 110h109q84 0 84 70q0 34 -23.5 51.5t-65.5 17.5h-104v-139z" />
<glyph unicode="&#x45a;" horiz-adv-x="903" d="M63 0v540h140v-181h203v181h140v-181h135q197 0 197 -177q0 -82 -47.5 -132t-141.5 -50h-283v246h-203v-246h-140zM546 110h109q84 0 84 70q0 34 -24 51.5t-65 17.5h-104v-139z" />
<glyph unicode="&#x45b;" horiz-adv-x="611" d="M12 588v79h55v62h140v-62h154v-79h-154v-155q58 87 158 87q72 0 121 -41q55 -46 55 -146v-333h-140v301q0 43 -16 67q-24 33 -70 33q-47 0 -77.5 -30t-30.5 -76v-295h-140v588h-55z" />
<glyph unicode="&#x45c;" horiz-adv-x="573" d="M60 0v540h140v-189l162 189h148l-214 -244l253 -296h-182l-167 198v-198h-140zM250 609l70 150h126l-126 -150h-70z" />
<glyph unicode="&#x45d;" horiz-adv-x="615" d="M60 0v540h140v-338l195 338h160v-540h-140v338l-195 -338h-160zM146 759h126l70 -150h-70z" />
<glyph unicode="&#x45e;" d="M9 540h154l119 -393l112 393h144l-217 -639q-16 -48 -34.5 -69t-49.5 -34q-41 -17 -101 -17q-22 0 -50 4v105q22 -6 37 -6q37 0 61 25.5t24 63.5v5zM142 742v10h56q9 -66 76 -66q65 0 76 66h56v-11q0 -56 -38 -94t-94 -38q-57 0 -94.5 38t-37.5 95z" />
<glyph unicode="&#x45f;" horiz-adv-x="608" d="M60 0v540h140v-427h204v427h140v-540h-187v-125h-110v125h-187z" />
<glyph unicode="&#x48c;" horiz-adv-x="687" d="M6 555v79h70v95h150v-95h79v-79h-79v-86h187q100 0 160 -66t60 -177q0 -110 -60.5 -168t-174.5 -58h-322v555h-70zM226 125h140q60 0 88.5 27t28.5 83q0 109 -117 109h-140v-219z" />
<glyph unicode="&#x48d;" horiz-adv-x="562" d="M-20 392v79h80v69h140v-69h79v-79h-79v-59h116q109 0 165.5 -46.5t58.5 -131.5q0 -33 -14.5 -64.5t-38.5 -51.5q-46 -39 -136 -39h-291v392h-80zM200 110h122q42 0 60.5 13.5t18.5 46.5t-17.5 43t-61.5 10h-122v-113z" />
<glyph unicode="&#x48e;" horiz-adv-x="667" d="M76 0v729h322q114 0 174.5 -58t60.5 -168q0 -112 -61 -179l47 -47l-56 -56l-57 57q-40 -18 -93 -18h-187v-260h-150zM226 385h140q13 0 31 2l-45 45l56 56l60 -60q15 26 15 66q0 56 -28.5 83t-88.5 27h-140v-219z" />
<glyph unicode="&#x48f;" horiz-adv-x="611" d="M58 -218v758h140v-80q50 89 150 89q49 0 95 -23.5t73 -61.5q58 -81 58 -202q0 -118 -60 -199l59 -59l-56 -56l-60 60q-51 -32 -109 -32q-100 0 -150 88v-282h-140zM198 262q0 -76 32.5 -122.5t85.5 -46.5q23 0 45 11l-55 55l56 56l52 -52q20 40 20 97q0 77 -32.5 124.5 t-85.5 47.5t-85.5 -47t-32.5 -123z" />
<glyph unicode="&#x490;" horiz-adv-x="611" d="M74 0v729l362 -1v136h150v-260h-362v-604h-150z" />
<glyph unicode="&#x491;" horiz-adv-x="454" d="M64 0v540h220v126h128v-239h-208v-427h-140z" />
<glyph unicode="&#x492;" horiz-adv-x="611" d="M4 314v125h78v290h512v-125h-362v-165h191v-125h-191v-314h-150v314h-78z" />
<glyph unicode="&#x493;" horiz-adv-x="454" d="M-6 239v90h66v211h348v-113h-208v-98h104v-90h-104v-239h-140v239h-66z" />
<glyph unicode="&#x494;" horiz-adv-x="611" d="M74 0v729h512v-125h-362v-100h127q110 0 179 -63t69 -159v-232q0 -96 -69 -159t-179 -63h-37v125h25q46 0 78 27.5t32 75.5v220q0 48 -32 75.5t-78 27.5h-115v-379h-150z" />
<glyph unicode="&#x495;" horiz-adv-x="584" d="M60 0v540h348v-113h-208v-154q20 32 52 44.5t86 12.5q36 0 77.5 -11t63.5 -30q55 -46 55 -146v-143q0 -100 -55 -146q-49 -41 -121 -41h-50v119q46 0 70 33q16 24 16 67v79q0 56 -26.5 78t-79.5 22q-44 0 -66 -25t-22 -61v-125h-140z" />
<glyph unicode="&#x496;" horiz-adv-x="1093" d="M22 0l357 378l-313 351h164l245 -279v279h150v-279l245 279h164l-313 -351l255 -270h102v-258h-135v150h-44l-274 285v-285h-150v285l-274 -285h-179z" />
<glyph unicode="&#x497;" horiz-adv-x="809" d="M16 0l213 296l-177 244h148l132 -189v189h140v-189l132 189h148l-177 -244l140 -195h73v-226h-110v125h-69l-137 198v-198h-140v198l-137 -198h-179z" />
<glyph unicode="&#x498;" horiz-adv-x="672" d="M32 218h146q4 -59 46 -90t118 -31q68 0 107.5 26t39.5 72q0 49 -33 81t-104 32h-102v120h76q138 0 138 103q0 41 -34 65.5t-92 24.5q-145 0 -153 -114h-140q0 94 51 151q75 83 235 83q131 0 203.5 -58.5t72.5 -165.5q0 -93 -63 -140q89 -49 89 -164q0 -103 -69 -165 t-194 -70q78 -46 78 -117q0 -44 -38.5 -69.5t-105.5 -25.5q-40 0 -79 10v47q27 -6 57 -6q76 0 76 50q0 33 -16.5 58t-61.5 55q-114 11 -178 72t-70 166z" />
<glyph unicode="&#x499;" horiz-adv-x="546" d="M29 157h137q8 -37 27 -51q29 -19 83 -19q49 0 76.5 14t27.5 39q0 13 -1.5 20.5t-8 21t-25 20t-47.5 6.5h-92v110h94q12 0 21.5 1.5t16 5t11.5 6.5t8 9.5t5 10t2.5 10.5t0.5 9.5v10.5v8q0 23 -22 36.5t-59 13.5q-100 0 -101 -73h-135q2 86 64 134.5t171 48.5 q103 0 162.5 -48.5t59.5 -131.5q0 -55 -30 -88q-2 -2 -7.5 -5.5t-6.5 -4.5q59 -37 59 -111q0 -84 -64 -135q-47 -38 -129 -46q79 -47 79 -118q0 -44 -38.5 -69.5t-105.5 -25.5q-40 0 -79 10v47q27 -6 57 -6q76 0 76 50q0 33 -16.5 57t-59.5 55q-205 15 -211 178z" />
<glyph unicode="&#x49a;" horiz-adv-x="750" d="M82 0v729h150v-279l285 279h177l-366 -351l284 -270h113v-258h-130v150h-70l-293 285v-285h-150z" />
<glyph unicode="&#x49b;" horiz-adv-x="573" d="M60 0v540h140v-189l162 189h148l-214 -244l167 -195h86v-226h-110v125h-72l-167 198v-198h-140z" />
<glyph unicode="&#x49c;" horiz-adv-x="722" d="M82 0v729h150v-279l44 43v146h79v-69l162 159h177l-339 -325v-52l370 -352h-200l-170 165v-65h-79v142l-44 43v-285h-150z" />
<glyph unicode="&#x49d;" horiz-adv-x="573" d="M60 0v540h140v-189l36 42v126h79v-34l47 55h148l-195 -222v-44l234 -274h-182l-52 62v-27h-79v120l-36 43v-198h-140z" />
<glyph unicode="&#x49e;" horiz-adv-x="722" d="M2 587v79h72v63h150v-63h77v-79h-77v-137l285 279h177l-366 -351l404 -378h-186l-314 285v-285h-150v587h-72z" />
<glyph unicode="&#x49f;" horiz-adv-x="573" d="M8 442v59h51v39h140v-39h54v-59h-54v-91l162 189h148l-214 -244l253 -296h-182l-167 198v-198h-140v442h-51z" />
<glyph unicode="&#x4a0;" horiz-adv-x="912" d="M14 604v125h380v-279l285 279h177l-366 -351l397 -378h-200l-293 285v-285h-150v604h-230z" />
<glyph unicode="&#x4a1;" horiz-adv-x="704" d="M20 427v113h311v-189l162 189h148l-214 -244l253 -296h-182l-167 198v-198h-140v427h-171z" />
<glyph unicode="&#x4a2;" horiz-adv-x="753" d="M82 0v729h150v-273h288v273h151v-621h120v-258h-135v150h-135v331h-289v-331h-150z" />
<glyph unicode="&#x4a3;" horiz-adv-x="608" d="M60 0v540h140v-220h203v220h140v-439h86v-226h-110v125h-116v207h-203v-207h-140z" />
<glyph unicode="&#x4a4;" horiz-adv-x="985" d="M68 0v729h150v-273h288v273h462v-125h-312v-604h-149v331h-289v-331h-150z" />
<glyph unicode="&#x4a5;" horiz-adv-x="787" d="M60 0v540h140v-220h203v220h338v-113h-198v-427h-140v207h-203v-207h-140z" />
<glyph unicode="&#x4a6;" horiz-adv-x="1092" d="M68 0v729h589v-225h127q110 0 179 -63t69 -159v-232q0 -96 -69 -159t-179 -63h-37v125h25q46 0 78 27.5t32 75.5v220q0 48 -32 75.5t-78 27.5h-115v-379h-150v604h-289v-604h-150z" />
<glyph unicode="&#x4a7;" horiz-adv-x="925" d="M60 0v540h483v-267q20 32 52 44.5t86 12.5q36 0 77.5 -11t63.5 -30q55 -46 55 -146v-143q0 -100 -55 -146q-49 -41 -121 -41h-50v119q46 0 70 33q16 24 16 67v79q0 56 -26.5 78t-79.5 22q-44 0 -66 -25t-22 -61v-125h-140v427h-203v-427h-140z" />
<glyph unicode="&#x4a8;" horiz-adv-x="722" d="M44 358q0 177 90 280t244 103q168 0 255 -115q42 -56 49 -144h-143q-12 52 -33 78q-42 53 -123 53q-89 0 -139 -68t-50 -189q0 -119 48.5 -186t135.5 -67q70 0 112 38t49 108h146q-7 -125 -91 -198.5t-220 -73.5q-152 0 -241 102.5t-89 278.5z" />
<glyph unicode="&#x4a9;" d="M34 259q0 138 67 214t188 76q101 0 163.5 -56t69.5 -155h-134q-12 53 -34.5 75.5t-65.5 22.5q-62 0 -87 -46q-27 -51 -27 -131q0 -79 30.5 -124t83.5 -45q41 0 64 22.5t36 74.5h134q-10 -97 -73.5 -153.5t-161.5 -56.5q-120 0 -186.5 74t-66.5 208z" />
<glyph unicode="&#x4aa;" horiz-adv-x="722" d="M44 358q0 177 90 280t244 103q168 0 255 -115q42 -56 49 -144h-143q-12 52 -33 78q-42 53 -123 53q-89 0 -139 -68t-50 -189q0 -119 48.5 -186t135.5 -67q70 0 112 38t49 108h146q-6 -116 -79.5 -188t-193.5 -82q78 -48 78 -118q0 -44 -38.5 -69.5t-105.5 -25.5 q-40 0 -79 10v47q27 -6 57 -6q76 0 76 50q0 33 -17 58t-62 56q-129 17 -203 117.5t-74 259.5z" />
<glyph unicode="&#x4ab;" d="M34 259q0 138 67 214t188 76q101 0 163.5 -56t69.5 -155h-134q-12 53 -34.5 75.5t-65.5 22.5q-62 0 -87 -46q-27 -51 -27 -131q0 -79 30.5 -124t83.5 -45q41 0 64 22.5t36 74.5h134q-9 -87 -61 -141.5t-135 -65.5q80 -47 80 -119q0 -44 -38.5 -69.5t-105.5 -25.5 q-40 0 -79 10v47q27 -6 57 -6q76 0 76 50q0 33 -17 58t-62 56q-97 15 -150 87.5t-53 190.5z" />
<glyph unicode="&#x4ac;" horiz-adv-x="611" d="M14 604v125h584v-125h-213v-496h120v-258h-135v150h-135v604h-221z" />
<glyph unicode="&#x4ad;" horiz-adv-x="454" d="M21 427v113h410v-113h-135v-326h86v-226h-110v125h-116v427h-135z" />
<glyph unicode="&#x4ae;" horiz-adv-x="667" d="M27 729h167l149 -322l139 322h168l-231 -459v-270h-150v270z" />
<glyph unicode="&#x4af;" horiz-adv-x="667" d="M57 540h167l119 -322l109 322h168l-201 -459v-270h-150v270z" />
<glyph unicode="&#x4b0;" horiz-adv-x="667" d="M27 729h167l149 -322l139 322h168l-231 -459v-21h200v-104h-200v-145h-150v145h-200v104h200v21z" />
<glyph unicode="&#x4b1;" horiz-adv-x="667" d="M57 540h167l119 -322l109 322h168l-201 -459h200v-104h-200v-166h-150v166h-200v104h200z" />
<glyph unicode="&#x4b2;" horiz-adv-x="667" d="M22 0l230 367l-222 362h178l128 -240l134 240h174l-225 -357l166 -264h68v-258h-130v150h-48l-140 253l-139 -253h-174z" />
<glyph unicode="&#x4b3;" d="M16 0l180 272l-176 268h168l88 -163l87 163h168l-176 -268l113 -171h67v-226h-110v125h-58l-91 168l-92 -168h-168z" />
<glyph unicode="&#x4b4;" horiz-adv-x="951" d="M14 604v125h524v-125h-183v-479h289v604h150v-621h110v-258h-130v150h-569v604h-191z" />
<glyph unicode="&#x4b5;" horiz-adv-x="738" d="M21 427v113h370v-113h-115v-314h203v427h140v-439h96v-226h-110v125h-469v427h-115z" />
<glyph unicode="&#x4b6;" horiz-adv-x="781" d="M68 447v282h150v-276q0 -48 32 -75.5t78 -27.5h145v379h151v-621h110v-258h-130v150h-130v225h-158q-110 0 -179 63t-69 159z" />
<glyph unicode="&#x4b7;" horiz-adv-x="627" d="M60 345v195h140v-194q0 -35 21 -52.5t57 -17.5h100v264h140v-439h86v-226h-110v125h-116v163h-98q-92 0 -156 44.5t-64 137.5z" />
<glyph unicode="&#x4b8;" horiz-adv-x="685" d="M68 447v282h150v-276q0 -42 25.5 -68.5t64.5 -32.5v87h79v-89h86v379h151v-729h-150v225h-87v-85h-79v85q-104 0 -172 64t-68 158z" />
<glyph unicode="&#x4b9;" horiz-adv-x="578" d="M60 345v195h140v-194q0 -53 48 -66v99h79v-103h51v264h140v-540h-140v163h-51v-83h-79v84q-81 7 -134.5 52t-53.5 129z" />
<glyph unicode="&#x4ba;" horiz-adv-x="685" d="M68 0v729h150v-225h158q110 0 179 -63t69 -159v-282h-150v276q0 48 -32 75.5t-78 27.5h-145v-379h-151z" />
<glyph unicode="&#x4bb;" horiz-adv-x="578" d="M60 0v540h140v-163h98q92 0 156 -44.5t64 -137.5v-195h-140v194q0 35 -21 52.5t-57 17.5h-100v-264h-140z" />
<glyph unicode="&#x4bc;" horiz-adv-x="957" d="M25 571q0 83 40 128.5t113 45.5q61 0 97.5 -34t41.5 -93h-80q-8 32 -21.5 45.5t-38.5 13.5q-68 0 -68 -106q0 -48 18 -75t51 -27h111q26 128 110 200t210 72q142 0 226.5 -96t84.5 -282h-491q0 -124 49.5 -191t139.5 -67q81 0 123 53q21 26 33 78h143q-7 -88 -49 -144 q-87 -115 -255 -115q-154 0 -244 103t-90 280v3q-134 1 -194 59.5t-60 148.5zM442 469h332q-7 70 -49 108t-112 38q-65 0 -109 -38t-62 -108z" />
<glyph unicode="&#x4bd;" horiz-adv-x="716" d="M20 423q0 55 27 85.5t75 30.5q41 0 66 -22t28 -62h-54q-8 39 -40 39q-46 0 -46 -71q0 -31 12.5 -49t33.5 -18h82q21 93 84.5 143t160.5 50q101 0 163.5 -56t69.5 -155v-78h-348q0 -81 30 -125.5t84 -44.5q41 0 64 22.5t36 74.5h134q-10 -97 -73.5 -153.5t-161.5 -56.5 q-120 0 -186.5 74t-66.5 208v1q-86 1 -130 51t-44 112zM347 356h196q-12 43 -34 61.5t-61 18.5q-62 0 -87 -46q-9 -18 -14 -34z" />
<glyph unicode="&#x4be;" horiz-adv-x="957" d="M25 571q0 83 40 128.5t113 45.5q61 0 97.5 -34t41.5 -93h-80q-8 32 -21.5 45.5t-38.5 13.5q-68 0 -68 -106q0 -48 18 -75t51 -27h111q26 128 110 200t210 72q142 0 226.5 -96t84.5 -282h-491q0 -124 49.5 -191t139.5 -67q81 0 123 53q21 26 33 78h143q-7 -88 -49 -144 q-73 -98 -211 -113q79 -46 79 -118q0 -44 -38.5 -69.5t-105.5 -25.5q-40 0 -79 10v47q27 -6 57 -6q76 0 76 50q0 33 -16.5 57.5t-60.5 54.5q-135 15 -212.5 116t-77.5 265v3q-134 1 -194 59.5t-60 148.5zM442 469h332q-7 70 -49 108t-112 38q-65 0 -109 -38t-62 -108z" />
<glyph unicode="&#x4bf;" horiz-adv-x="716" d="M20 423q0 55 27 85.5t75 30.5q41 0 66 -22t28 -62h-54q-8 39 -40 39q-46 0 -46 -71q0 -31 12.5 -49t33.5 -18h82q21 93 84.5 143t160.5 50q101 0 163.5 -56t69.5 -155v-78h-348q0 -81 30 -125.5t84 -44.5q41 0 64 22.5t36 74.5h134q-9 -86 -61 -141t-134 -66 q80 -48 80 -119q0 -44 -38.5 -69.5t-105.5 -25.5q-40 0 -79 10v47q27 -6 57 -6q76 0 76 50q0 33 -17 58t-62 56q-98 14 -151 86.5t-53 191.5v1q-86 1 -130 51t-44 112zM347 356h196q-12 43 -34 61.5t-61 18.5q-62 0 -87 -46q-9 -18 -14 -34z" />
<glyph unicode="&#x4c0;" horiz-adv-x="278" d="M63 0v729h150v-729h-150z" />
<glyph unicode="&#x4c1;" horiz-adv-x="1093" d="M22 0l357 378l-313 351h164l245 -279v279h150v-279l245 279h164l-313 -351l357 -378h-184l-269 285v-285h-150v285l-269 -285h-184zM418 934v10h56q9 -66 77 -66q64 0 75 66h56v-11q0 -56 -38 -94t-94 -38t-94 38t-38 95z" />
<glyph unicode="&#x4c2;" horiz-adv-x="809" d="M16 0l213 296l-177 244h148l132 -189v189h140v-189l132 189h148l-177 -244l213 -296h-179l-137 198v-198h-140v198l-137 -198h-179zM270 742v10h56q9 -66 77 -66q64 0 75 66h56v-11q0 -56 -38 -94t-94 -38t-94 38t-38 95z" />
<glyph unicode="&#x4c3;" horiz-adv-x="750" d="M82 0v729h150v-279l285 279h177l-366 -351h56q110 0 179 -63t69 -159v-106q0 -96 -69 -159t-179 -63h-37v125h25q46 0 78 27.5t32 75.5v94q0 48 -32 75.5t-78 27.5h-140v-253h-150z" />
<glyph unicode="&#x4c4;" horiz-adv-x="573" d="M60 0v540h140v-189l162 189h148l-214 -244l19 1q82 0 129 -48.5t47 -138.5v-111q0 -90 -47 -138.5t-129 -48.5h-50v119q86 0 86 100v47q0 100 -86 100h-65v-178h-140z" />
<glyph unicode="&#x4c7;" horiz-adv-x="722" d="M68 0v729h150v-273h288v273h151v-679q0 -96 -69 -159t-179 -63h-37v125h25q46 0 78 27.5t32 75.5v275h-289v-331h-150z" />
<glyph unicode="&#x4c8;" horiz-adv-x="608" d="M60 0v540h140v-220h203v220h140v-540q0 -90 -47 -138.5t-129 -48.5h-50v119q86 0 86 100v175h-203v-207h-140z" />
<glyph unicode="&#x4cb;" horiz-adv-x="685" d="M68 447v282h150v-276q0 -48 32 -75.5t78 -27.5h145v379h151v-729h-130v-150h-130v258h110v117h-158q-110 0 -179 63t-69 159z" />
<glyph unicode="&#x4cc;" horiz-adv-x="578" d="M60 345v195h140v-194q0 -35 21 -52.5t57 -17.5h100v264h140v-540h-116v-125h-110v226h86v62h-98q-92 0 -156 44.5t-64 137.5z" />
<glyph unicode="&#x4d0;" horiz-adv-x="722" d="M26 0l259 729h166l252 -729h-151l-50 147h-274l-49 -147h-153zM236 934v10h56q9 -66 77 -66q64 0 75 66h56v-11q0 -56 -38 -94t-94 -38t-94 38t-38 95zM270 272h190l-95 285z" />
<glyph unicode="&#x4d1;" d="M28 139q0 141 159 170l56 10q73 13 88 21q24 13 24 42q0 54 -81 54q-52 0 -73 -16t-26 -58h-135q13 187 231 187q221 0 221 -166v-300q0 -37 32 -66v-17h-152q-16 20 -16 54q-74 -77 -164 -77q-77 0 -126 51q-38 41 -38 111zM139 742v10h56q9 -66 77 -66q64 0 75 66h56 v-11q0 -56 -38 -94t-94 -38t-94 38t-38 95zM168 155q0 -30 20.5 -47.5t55.5 -17.5q53 0 82 33t29 94v38q-19 -9 -59 -17l-48 -9q-42 -8 -61 -25.5t-19 -48.5z" />
<glyph unicode="&#x4d2;" horiz-adv-x="722" d="M26 0l259 729h166l252 -729h-151l-50 147h-274l-49 -147h-153zM220 801v122h110v-122h-110zM270 272h190l-95 285zM406 801v122h110v-122h-110z" />
<glyph unicode="&#x4d3;" d="M28 139q0 141 159 170l56 10q73 13 88 21q24 13 24 42q0 54 -81 54q-52 0 -73 -16t-26 -58h-135q13 187 231 187q221 0 221 -166v-300q0 -37 32 -66v-17h-152q-16 20 -16 54q-74 -77 -164 -77q-77 0 -126 51q-38 41 -38 111zM123 609v122h110v-122h-110zM168 155 q0 -30 20.5 -47.5t55.5 -17.5q53 0 82 33t29 94v38q-19 -9 -59 -17l-48 -9q-42 -8 -61 -25.5t-19 -48.5zM309 609v122h110v-122h-110z" />
<glyph unicode="&#x4d4;" horiz-adv-x="1000" d="M1 0l263 729h682v-125h-366v-165h339v-125h-339v-189h386v-125h-536v152h-223l-53 -152h-153zM249 277h181v327h-67z" />
<glyph unicode="&#x4d5;" horiz-adv-x="889" d="M27 141q0 145 159 171l56 10q69 11 88 21q24 13 24 40q0 53 -85 53q-47 0 -68.5 -16.5t-26.5 -57.5h-131q3 187 228 187q117 0 175 -50q62 50 155 50q84 0 145.5 -41.5t89.5 -115.5q21 -60 21 -142q0 -12 -1 -24h-362q0 -62 20 -93q32 -49 94 -49q36 0 65.5 19.5 t38.5 48.5h138q-23 -80 -91 -127.5t-159 -47.5q-136 0 -200 104q-89 -105 -205 -105q-77 0 -122.5 44.5t-45.5 120.5zM167 155q0 -31 20.5 -48.5t55.5 -17.5q54 0 82.5 32.5t28.5 94.5v38q-22 -13 -59 -19l-48 -7q-80 -11 -80 -73zM495 319h216q-11 123 -109 123t-107 -123z " />
<glyph unicode="&#x4d6;" horiz-adv-x="709" d="M82 0v729h527v-125h-377v-165h349v-125h-349v-189h395v-125h-545zM214 934v10h56q9 -66 76 -66q65 0 76 66h56v-11q0 -56 -38 -94t-94 -38q-57 0 -94.5 38t-37.5 95z" />
<glyph unicode="&#x4d7;" d="M22 256q0 136 67 214.5t183 78.5q82 0 143.5 -41.5t88.5 -115.5q21 -61 21 -142q0 -12 -1 -24h-362q3 -68 20 -95q31 -47 92 -47q80 0 107 68h138q-23 -80 -91 -127.5t-159 -47.5q-115 0 -181 74.5t-66 204.5zM140 742v10h56q9 -66 77 -66q64 0 75 66h56v-11 q0 -56 -38 -94t-94 -38t-94 38t-38 95zM164 319h215q-4 50 -22 78q-32 45 -87 45q-92 0 -106 -123z" />
<glyph unicode="&#x4d8;" horiz-adv-x="722" d="M44 355h491q0 124 -49.5 191t-139.5 67q-81 0 -123 -53q-21 -26 -33 -78h-143q7 88 49 144q87 115 255 115q154 0 244 -103t90 -280q0 -176 -89 -278.5t-241 -102.5q-142 0 -226.5 96t-84.5 282zM190 249q7 -70 49 -108t112 -38q65 0 109 38t62 108h-332z" />
<glyph unicode="&#x4d9;" d="M34 188v78h348q0 79 -30.5 124.5t-83.5 45.5q-41 0 -64 -22.5t-36 -74.5h-134q10 97 73.5 153.5t161.5 56.5q120 0 186.5 -74t66.5 -208q0 -138 -67 -214t-188 -76q-101 0 -163.5 56t-69.5 155zM173 169q12 -43 34 -61.5t61 -18.5q62 0 87 46q9 18 14 34h-196z" />
<glyph unicode="&#x4da;" horiz-adv-x="722" d="M44 355h491q0 124 -49.5 191t-139.5 67q-81 0 -123 -53q-21 -26 -33 -78h-143q7 88 49 144q87 115 255 115q154 0 244 -103t90 -280q0 -176 -89 -278.5t-241 -102.5q-142 0 -226.5 96t-84.5 282zM190 249q7 -70 49 -108t112 -38q65 0 109 38t62 108h-332zM203 801v122 h110v-122h-110zM389 801v122h110v-122h-110z" />
<glyph unicode="&#x4db;" d="M34 188v78h348q0 79 -30.5 124.5t-83.5 45.5q-41 0 -64 -22.5t-36 -74.5h-134q10 97 73.5 153.5t161.5 56.5q120 0 186.5 -74t66.5 -208q0 -138 -67 -214t-188 -76q-101 0 -163.5 56t-69.5 155zM121 609v122h110v-122h-110zM173 169q12 -43 34 -61.5t61 -18.5q62 0 87 46 q9 18 14 34h-196zM307 609v122h110v-122h-110z" />
<glyph unicode="&#x4dc;" horiz-adv-x="1093" d="M22 0l357 378l-313 351h164l245 -279v279h150v-279l245 279h164l-313 -351l357 -378h-184l-269 285v-285h-150v285l-269 -285h-184zM402 801v122h110v-122h-110zM588 801v122h110v-122h-110z" />
<glyph unicode="&#x4dd;" horiz-adv-x="809" d="M16 0l213 296l-177 244h148l132 -189v189h140v-189l132 189h148l-177 -244l213 -296h-179l-137 198v-198h-140v198l-137 -198h-179zM254 609v122h110v-122h-110zM440 609v122h110v-122h-110z" />
<glyph unicode="&#x4de;" horiz-adv-x="672" d="M32 218h146q4 -59 46 -90t118 -31q68 0 107.5 26t39.5 72q0 49 -33 81t-104 32h-102v120h76q138 0 138 103q0 41 -34 65.5t-92 24.5q-145 0 -153 -114h-140q0 94 51 151q75 83 235 83q131 0 203.5 -58.5t72.5 -165.5q0 -93 -63 -140q89 -49 89 -164q0 -111 -79 -173.5 t-220 -62.5q-140 0 -217.5 62t-84.5 179zM183 801v122h110v-122h-110zM369 801v122h110v-122h-110z" />
<glyph unicode="&#x4df;" horiz-adv-x="546" d="M29 157h137q8 -37 27 -51q29 -19 83 -19q49 0 76.5 14t27.5 39q0 13 -1.5 20.5t-8 21t-25 20t-47.5 6.5h-92v110h94q12 0 21.5 1.5t16 5t11.5 6.5t8 9.5t5 10t2.5 10.5t0.5 9.5v10.5v8q0 23 -22 36.5t-59 13.5q-100 0 -101 -73h-135q2 86 64 134.5t171 48.5 q103 0 162.5 -48.5t59.5 -131.5q0 -55 -30 -88q-2 -2 -7.5 -5.5t-6.5 -4.5q59 -37 59 -111q0 -84 -64 -135q-60 -48 -172 -48q-249 0 -255 180zM135 609v122h110v-122h-110zM321 609v122h110v-122h-110z" />
<glyph unicode="&#x4e0;" horiz-adv-x="672" d="M32 218h146q4 -59 46 -90t118 -31q68 0 107.5 26t39.5 72q0 49 -33 81t-104 32h-102v120h76q138 0 138 103q0 41 -34 65.5t-92 24.5q-145 0 -153 -114h-140q0 94 51 151q75 83 235 83q131 0 203.5 -58.5t72.5 -165.5q0 -93 -63 -140q89 -49 89 -164q0 -111 -79 -173.5 t-220 -62.5q-140 0 -217.5 62t-84.5 179z" />
<glyph unicode="&#x4e1;" horiz-adv-x="546" d="M29 157h137q8 -37 27 -51q29 -19 83 -19q49 0 76.5 14t27.5 39q0 13 -1.5 20.5t-8 21t-25 20t-47.5 6.5h-92v110h94q12 0 21.5 1.5t16 5t11.5 6.5t8 9.5t5 10t2.5 10.5t0.5 9.5v10.5v8q0 23 -22 36.5t-59 13.5q-100 0 -101 -73h-135q2 86 64 134.5t171 48.5 q103 0 162.5 -48.5t59.5 -131.5q0 -55 -30 -88q-2 -2 -7.5 -5.5t-6.5 -4.5q59 -37 59 -111q0 -84 -64 -135q-60 -48 -172 -48q-249 0 -255 180z" />
<glyph unicode="&#x4e2;" horiz-adv-x="757" d="M82 0v729h150v-496l289 496h154v-729h-150v504l-293 -504h-150zM229 801v79h299v-79h-299z" />
<glyph unicode="&#x4e3;" horiz-adv-x="615" d="M60 0v540h140v-338l195 338h160v-540h-140v338l-195 -338h-160zM158 609v79h299v-79h-299z" />
<glyph unicode="&#x4e4;" horiz-adv-x="757" d="M82 0v729h150v-496l289 496h154v-729h-150v504l-293 -504h-150zM230 801v122h110v-122h-110zM416 801v122h110v-122h-110z" />
<glyph unicode="&#x4e5;" horiz-adv-x="615" d="M60 0v540h140v-338l195 338h160v-540h-140v338l-195 -338h-160zM160 609v122h110v-122h-110zM346 609v122h110v-122h-110z" />
<glyph unicode="&#x4e6;" horiz-adv-x="778" d="M40 359q0 171 102 281q93 101 248 101q156 0 250 -101q102 -110 102 -286q0 -77 -27.5 -151.5t-74.5 -124.5q-94 -101 -249 -101t-249 101q-49 52 -75.5 125.5t-26.5 155.5zM190 359q0 -115 55 -184.5t146 -69.5q90 0 145.5 69t55.5 181q0 118 -54.5 188t-146.5 70 q-91 0 -146 -69.5t-55 -184.5zM242 801v122h110v-122h-110zM428 801v122h110v-122h-110z" />
<glyph unicode="&#x4e7;" horiz-adv-x="611" d="M35 263q0 133 71 209.5t195 76.5q127 0 197.5 -76.5t70.5 -213.5q0 -130 -72 -206t-195 -76q-125 0 -196 76.5t-71 209.5zM153 609v122h110v-122h-110zM175 263q0 -77 35 -125t92 -48q56 0 91.5 47.5t35.5 123.5q0 80 -34.5 127.5t-92.5 47.5q-57 0 -92 -48t-35 -125z M339 609v122h110v-122h-110z" />
<glyph unicode="&#x4e8;" horiz-adv-x="778" d="M40 359q0 171 102 281q93 101 248 101q156 0 250 -101q102 -110 102 -286q0 -77 -27.5 -151.5t-74.5 -124.5q-94 -101 -249 -101t-249 101q-49 52 -75.5 125.5t-26.5 155.5zM192 321q9 -99 62.5 -157.5t136.5 -58.5t137 59t63 157h-399zM192 400h398q-11 99 -63.5 156 t-135.5 57q-82 0 -135.5 -57.5t-63.5 -155.5z" />
<glyph unicode="&#x4e9;" horiz-adv-x="611" d="M35 263q0 133 71 209.5t195 76.5q127 0 197.5 -76.5t70.5 -213.5q0 -130 -72 -206t-195 -76q-125 0 -196 76.5t-71 209.5zM178 224q8 -61 41.5 -97.5t82.5 -36.5q48 0 82 36.5t43 97.5h-249zM178 303h248q-8 62 -41.5 97.5t-82.5 35.5t-82.5 -36t-41.5 -97z" />
<glyph unicode="&#x4ea;" horiz-adv-x="778" d="M40 359q0 171 102 281q93 101 248 101q156 0 250 -101q102 -110 102 -286q0 -77 -27.5 -151.5t-74.5 -124.5q-94 -101 -249 -101t-249 101q-49 52 -75.5 125.5t-26.5 155.5zM192 321q9 -99 62.5 -157.5t136.5 -58.5t137 59t63 157h-399zM192 400h398q-11 99 -63.5 156 t-135.5 57q-82 0 -135.5 -57.5t-63.5 -155.5zM242 801v122h110v-122h-110zM428 801v122h110v-122h-110z" />
<glyph unicode="&#x4eb;" horiz-adv-x="611" d="M35 263q0 133 71 209.5t195 76.5q127 0 197.5 -76.5t70.5 -213.5q0 -130 -72 -206t-195 -76q-125 0 -196 76.5t-71 209.5zM153 609v122h110v-122h-110zM178 224q8 -61 41.5 -97.5t82.5 -36.5q48 0 82 36.5t43 97.5h-249zM178 303h248q-8 62 -41.5 97.5t-82.5 35.5 t-82.5 -36t-41.5 -97zM339 609v122h110v-122h-110z" />
<glyph unicode="&#x4ec;" horiz-adv-x="722" d="M44 249h146q7 -70 49 -108t112 -38q78 0 125.5 54.5t56.5 153.5h-292v125h291q-15 84 -64 130.5t-122 46.5q-81 0 -123 -53q-21 -26 -33 -78h-143q7 88 49 144q87 115 255 115q154 0 244 -103t90 -280q0 -176 -89 -278.5t-241 -102.5q-136 0 -220 73.5t-91 198.5z M203 801v122h110v-122h-110zM389 801v122h110v-122h-110z" />
<glyph unicode="&#x4ed;" horiz-adv-x="564" d="M34 187h134q13 -52 36 -74.5t64 -22.5q43 0 72 30.5t38 86.5h-175v113h174q-8 44 -22 70q-25 46 -87 46q-43 0 -65.5 -22.5t-34.5 -75.5h-134q7 99 69.5 155t163.5 56q121 0 188 -76t67 -214q0 -134 -66.5 -208t-186.5 -74q-98 0 -161.5 56.5t-73.5 153.5zM119 609v122 h110v-122h-110zM305 609v122h110v-122h-110z" />
<glyph unicode="&#x4ee;" horiz-adv-x="718" d="M15 729h163l172 -345l172 345h174l-368 -729h-174l114 226zM206 801v79h299v-79h-299z" />
<glyph unicode="&#x4ef;" d="M9 540h154l119 -393l112 393h144l-217 -639q-16 -48 -34.5 -69t-49.5 -34q-41 -17 -101 -17q-22 0 -50 4v105q22 -6 37 -6q37 0 61 25.5t24 63.5v5zM124 609v79h299v-79h-299z" />
<glyph unicode="&#x4f0;" horiz-adv-x="718" d="M15 729h163l172 -345l172 345h174l-368 -729h-174l114 226zM208 801v122h110v-122h-110zM394 801v122h110v-122h-110z" />
<glyph unicode="&#x4f1;" d="M9 540h154l119 -393l112 393h144l-217 -639q-16 -48 -34.5 -69t-49.5 -34q-41 -17 -101 -17q-22 0 -50 4v105q22 -6 37 -6q37 0 61 25.5t24 63.5v5zM126 609v122h110v-122h-110zM312 609v122h110v-122h-110z" />
<glyph unicode="&#x4f2;" horiz-adv-x="718" d="M15 729h163l172 -345l172 345h174l-368 -729h-174l114 226zM226 801l70 147h126l-126 -147h-70zM414 801l70 147h126l-126 -147h-70z" />
<glyph unicode="&#x4f3;" d="M9 540h154l119 -393l112 393h144l-217 -639q-16 -48 -34.5 -69t-49.5 -34q-41 -17 -101 -17q-22 0 -50 4v105q22 -6 37 -6q37 0 61 25.5t24 63.5v5zM144 609l70 147h126l-126 -147h-70zM332 609l70 147h126l-126 -147h-70z" />
<glyph unicode="&#x4f4;" horiz-adv-x="685" d="M68 447v282h150v-276q0 -48 32 -75.5t78 -27.5h145v379h151v-729h-150v225h-158q-110 0 -179 63t-69 159zM198 801v122h110v-122h-110zM384 801v122h110v-122h-110z" />
<glyph unicode="&#x4f5;" horiz-adv-x="578" d="M60 345v195h140v-194q0 -35 21 -52.5t57 -17.5h100v264h140v-540h-140v163h-98q-92 0 -156 44.5t-64 137.5zM141 609v122h110v-122h-110zM327 609v122h110v-122h-110z" />
<glyph unicode="&#x4f8;" horiz-adv-x="949" d="M68 0v729h150v-260h187q100 0 160 -66t60 -177q0 -110 -60.5 -168t-174.5 -58h-322zM218 125h140q60 0 88.5 27t28.5 83q0 109 -117 109h-140v-219zM328 801v122h110v-122h-110zM514 801v122h110v-122h-110zM734 0v729h150v-729h-150z" />
<glyph unicode="&#x4f9;" horiz-adv-x="811" d="M60 0v540h140v-181h118q106 0 160 -52t54 -139q0 -34 -14.5 -72t-38.5 -57q-46 -39 -136 -39h-283zM200 110h109q84 0 84 70q0 34 -24 51.5t-65 17.5h-104v-139zM241 609v122h110v-122h-110zM427 609v122h110v-122h-110zM578 0v540h140v-540h-140z" />
<glyph unicode="&#xe3f;" horiz-adv-x="722" d="M82 0v729h235v83h80v-83h10q110 0 174 -55.5t64 -136.5q0 -47 -23 -81.5t-77 -68.5q121 -71 121 -177q0 -94 -66.5 -152t-189.5 -58h-13v-83h-80v83h-235zM232 125h85v189h-85v-189zM232 439h85v165h-85v-165zM397 125h14q111 0 111 94q0 95 -111 95h-14v-189zM397 439 q104 2 104 82q0 81 -104 83v-165z" />
<glyph unicode="&#x1e0c;" horiz-adv-x="722" d="M77 0v729h285q84 0 138.5 -20t91.5 -64q89 -106 89 -280t-89 -280q-72 -85 -230 -85h-285zM227 125h135q169 0 169 239q0 240 -169 240h-135v-479zM292 -65h140v-140h-140v140z" />
<glyph unicode="&#x1e0d;" horiz-adv-x="611" d="M29 269q0 122 65 201t162 79q98 0 149 -79v259h140v-729h-140v62q-54 -71 -149 -71q-104 0 -165.5 79.5t-61.5 198.5zM169 269q0 -74 32.5 -117.5t85.5 -43.5t85.5 43t32.5 116q0 77 -32 121t-86 44q-53 0 -85.5 -44.5t-32.5 -118.5zM236 -65h140v-140h-140v140z" />
<glyph unicode="&#x1e0e;" horiz-adv-x="722" d="M77 0v729h285q84 0 138.5 -20t91.5 -64q89 -106 89 -280t-89 -280q-72 -85 -230 -85h-285zM212 -95h299v-79h-299v79zM227 125h135q169 0 169 239q0 240 -169 240h-135v-479z" />
<glyph unicode="&#x1e0f;" horiz-adv-x="611" d="M29 269q0 122 65 201t162 79q98 0 149 -79v259h140v-729h-140v62q-54 -71 -149 -71q-104 0 -165.5 79.5t-61.5 198.5zM155 -95h299v-79h-299v79zM169 269q0 -74 32.5 -117.5t85.5 -43.5t85.5 43t32.5 116q0 77 -32 121t-86 44q-53 0 -85.5 -44.5t-32.5 -118.5z" />
<glyph unicode="&#x1e24;" horiz-adv-x="722" d="M68 0v729h150v-273h289v273h150v-729h-150v331h-289v-331h-150zM293 -65h140v-140h-140v140z" />
<glyph unicode="&#x1e25;" horiz-adv-x="611" d="M67 0v729h140v-267q58 87 158 87q80 0 128 -48t48 -139v-362h-140v330q0 100 -86 100q-47 0 -77.5 -30t-30.5 -76v-324h-140zM234 -65h140v-140h-140v140z" />
<glyph unicode="&#x1e26;" horiz-adv-x="722" d="M68 0v729h150v-273h289v273h150v-729h-150v331h-289v-331h-150zM203 797v115h126v-115h-126zM398 797v115h126v-115h-126z" />
<glyph unicode="&#x1e27;" horiz-adv-x="611" d="M67 0v729h140v-267q58 87 158 87q80 0 128 -48t48 -139v-362h-140v330q0 100 -86 100q-47 0 -77.5 -30t-30.5 -76v-324h-140zM145 797v115h126v-115h-126zM340 797v115h126v-115h-126z" />
<glyph unicode="&#x1e2a;" horiz-adv-x="722" d="M68 0v729h150v-273h289v273h150v-729h-150v331h-289v-331h-150zM182 -74h71q8 -40 110 -40q103 0 109 40h71q-12 -122 -182 -122q-81 0 -129.5 30t-49.5 92z" />
<glyph unicode="&#x1e2b;" horiz-adv-x="611" d="M67 0v729h140v-267q58 87 158 87q80 0 128 -48t48 -139v-362h-140v330q0 100 -86 100q-47 0 -77.5 -30t-30.5 -76v-324h-140zM123 -74h71q8 -40 110 -40q103 0 109 40h71q-12 -122 -182 -122q-81 0 -129.5 30t-49.5 92z" />
<glyph unicode="&#x1e36;" horiz-adv-x="611" d="M80 0v729h150v-604h349v-125h-499zM260 -65h140v-140h-140v140z" />
<glyph unicode="&#x1e37;" horiz-adv-x="278" d="M67 0v729h140v-729h-140zM69 -65h140v-140h-140v140z" />
<glyph unicode="&#x1e38;" horiz-adv-x="611" d="M5 815v79h299v-79h-299zM80 0v729h150v-604h349v-125h-499zM260 -65h140v-140h-140v140z" />
<glyph unicode="&#x1e39;" horiz-adv-x="278" d="M-13 815v79h299v-79h-299zM67 0v729h140v-729h-140zM69 -65h140v-140h-140v140z" />
<glyph unicode="&#x1e42;" horiz-adv-x="833" d="M66 0v729h224l132 -580l128 580h226v-729h-150v568l-129 -568h-150l-131 568v-568h-150zM347 -65h140v-140h-140v140z" />
<glyph unicode="&#x1e43;" horiz-adv-x="889" d="M60 0v540h139v-67q35 41 68.5 58.5t79.5 17.5q106 0 147 -80q60 80 158 80q81 0 126.5 -44t45.5 -123v-382h-140v360q0 32 -20.5 51t-55.5 19q-45 0 -70.5 -28t-25.5 -78v-324h-140v360q0 32 -20.5 51t-55.5 19q-45 0 -70.5 -28t-25.5 -78v-324h-140zM375 -65h140v-140 h-140v140z" />
<glyph unicode="&#x1e44;" horiz-adv-x="722" d="M68 0v729h154l289 -496v496h150v-729h-150l-293 504v-504h-150zM292 784v140h140v-140h-140z" />
<glyph unicode="&#x1e45;" horiz-adv-x="611" d="M63 0v540h140v-78q58 87 162 87q86 0 133.5 -49t47.5 -138v-362h-140v333q0 97 -90 97q-51 0 -82 -29t-31 -77v-324h-140zM236 605v140h140v-140h-140z" />
<glyph unicode="&#x1e46;" horiz-adv-x="722" d="M68 0v729h154l289 -496v496h150v-729h-150l-293 504v-504h-150zM291 -65h140v-140h-140v140z" />
<glyph unicode="&#x1e47;" horiz-adv-x="611" d="M63 0v540h140v-78q58 87 162 87q86 0 133.5 -49t47.5 -138v-362h-140v333q0 97 -90 97q-51 0 -82 -29t-31 -77v-324h-140zM236 -65h140v-140h-140v140z" />
<glyph unicode="&#x1e58;" horiz-adv-x="722" d="M80 0v729h391q94 0 145 -54.5t51 -142.5q0 -132 -123 -180q27 -11 40 -17.5t26.5 -21.5t18 -27t9 -44t5.5 -63t2 -92q0 -42 32 -60v-27h-161q-14 26 -18.5 50t-4.5 75l2 77q0 46 -22 66.5t-71 20.5h-172v-289h-150zM230 414h181q61 0 83.5 23t22.5 74q0 49 -23 71t-83 22 h-181v-190zM292 784v140h140v-140h-140z" />
<glyph unicode="&#x1e59;" horiz-adv-x="389" d="M63 0v540h140v-106q22 55 62 85t88 30q9 0 17 -1v-142q-25 4 -44 4q-123 0 -123 -123v-287h-140zM133 605v140h140v-140h-140z" />
<glyph unicode="&#x1e5a;" horiz-adv-x="722" d="M80 0v729h391q94 0 145 -54.5t51 -142.5q0 -132 -123 -180q27 -11 40 -17.5t26.5 -21.5t18 -27t9 -44t5.5 -63t2 -92q0 -42 32 -60v-27h-161q-14 26 -18.5 50t-4.5 75l2 77q0 46 -22 66.5t-71 20.5h-172v-289h-150zM230 414h181q61 0 83.5 23t22.5 74q0 49 -23 71t-83 22 h-181v-190zM291 -65h140v-140h-140v140z" />
<glyph unicode="&#x1e5b;" horiz-adv-x="389" d="M63 0v540h140v-106q22 55 62 85t88 30q9 0 17 -1v-142q-25 4 -44 4q-123 0 -123 -123v-287h-140zM63 -65h140v-140h-140v140z" />
<glyph unicode="&#x1e5c;" horiz-adv-x="722" d="M80 0v729h391q94 0 145 -54.5t51 -142.5q0 -132 -123 -180q27 -11 40 -17.5t26.5 -21.5t18 -27t9 -44t5.5 -63t2 -92q0 -42 32 -60v-27h-161q-14 26 -18.5 50t-4.5 75l2 77q0 46 -22 66.5t-71 20.5h-172v-289h-150zM211 815v79h299v-79h-299zM230 414h181q61 0 83.5 23 t22.5 74q0 49 -23 71t-83 22h-181v-190zM291 -65h140v-140h-140v140z" />
<glyph unicode="&#x1e5d;" horiz-adv-x="389" d="M52 645v79h299v-79h-299zM63 0v540h140v-106q22 55 62 85t88 30q9 0 17 -1v-142q-25 4 -44 4q-123 0 -123 -123v-287h-140zM63 -65h140v-140h-140v140z" />
<glyph unicode="&#x1e62;" horiz-adv-x="667" d="M32 229h146q0 -58 43.5 -89.5t120.5 -31.5q69 0 108 24t39 69q0 43 -30 64t-107 36l-102 20q-111 22 -158 66.5t-47 129.5q0 107 72.5 165.5t203.5 58.5q135 0 210.5 -60t75.5 -174h-140q0 55 -40.5 84.5t-112.5 29.5q-58 0 -92 -24.5t-34 -65.5q0 -40 29 -59.5 t109 -35.5l114 -22q102 -20 147.5 -65t45.5 -130q0 -110 -78.5 -170.5t-220.5 -60.5q-141 0 -221.5 62.5t-80.5 178.5zM258 -65h140v-140h-140v140z" />
<glyph unicode="&#x1e63;" d="M29 171h137q9 -41 34 -55.5t76 -14.5q104 0 104 46q0 22 -47 37l-167 52q-71 22 -94.5 51t-23.5 82q0 83 59.5 131.5t162.5 48.5q109 0 171 -48.5t64 -134.5h-135q-1 73 -101 73q-37 0 -59 -13.5t-22 -36.5q0 -17 10 -25.5t39 -16.5l177 -51q106 -31 106 -129v-7 q0 -82 -61 -125.5t-175 -43.5q-249 0 -255 180zM208 -65h140v-140h-140v140z" />
<glyph unicode="&#x1e6c;" horiz-adv-x="611" d="M14 604v125h584v-125h-213v-604h-150v604h-221zM236 -65h140v-140h-140v140z" />
<glyph unicode="&#x1e6d;" horiz-adv-x="333" d="M14 436v93h69v145h140v-145h78v-93h-78v-282q0 -36 9 -47.5t37 -11.5q11 0 32 3v-98q-6 0 -34.5 -2t-46.5 -2q-70 0 -103.5 28.5t-33.5 91.5v320h-69zM97 -65h140v-140h-140v140z" />
<glyph unicode="&#x1e6e;" horiz-adv-x="611" d="M14 604v125h584v-125h-213v-604h-150v604h-221zM156 -95h299v-79h-299v79z" />
<glyph unicode="&#x1e6f;" horiz-adv-x="333" d="M14 436v93h69v145h140v-145h78v-93h-78v-282q0 -36 9 -47.5t37 -11.5q11 0 32 3v-98q-6 0 -34.5 -2t-46.5 -2q-70 0 -103.5 28.5t-33.5 91.5v320h-69zM16 -95h299v-79h-299v79z" />
<glyph unicode="&#x1e80;" horiz-adv-x="944" d="M13 729h159l113 -546l113 546h148l118 -547l109 547h159l-202 -729h-135l-122 569l-119 -569h-135zM284 921h165l76 -135h-106z" />
<glyph unicode="&#x1e81;" horiz-adv-x="778" d="M5 540h145l86 -378l82 378h140l81 -378l82 378h145l-153 -540h-145l-81 381l-86 -381h-144zM213 752h156l70 -154h-100z" />
<glyph unicode="&#x1e82;" horiz-adv-x="944" d="M13 729h159l113 -546l113 546h148l118 -547l109 547h159l-202 -729h-135l-122 569l-119 -569h-135zM419 786l76 135h165l-135 -135h-106z" />
<glyph unicode="&#x1e83;" horiz-adv-x="778" d="M5 540h145l86 -378l82 378h140l81 -378l82 378h145l-153 -540h-145l-81 381l-86 -381h-144zM339 598l70 154h156l-126 -154h-100z" />
<glyph unicode="&#x1e84;" horiz-adv-x="944" d="M13 729h159l113 -546l113 546h148l118 -547l109 547h159l-202 -729h-135l-122 569l-119 -569h-135zM312 797v115h126v-115h-126zM507 797v115h126v-115h-126z" />
<glyph unicode="&#x1e85;" horiz-adv-x="778" d="M5 540h145l86 -378l82 378h140l81 -378l82 378h145l-153 -540h-145l-81 381l-86 -381h-144zM228 618v115h126v-115h-126zM423 618v115h126v-115h-126z" />
<glyph unicode="&#x1e92;" horiz-adv-x="611" d="M30 0v125l373 479h-373v125h548v-125l-372 -479h372v-125h-548zM234 -65h140v-140h-140v140z" />
<glyph unicode="&#x1e93;" horiz-adv-x="500" d="M21 0v113l267 314h-249v113h420v-113l-265 -314h274v-113h-447zM180 -65h140v-140h-140v140z" />
<glyph unicode="&#x1e97;" horiz-adv-x="333" d="M-7 742v115h126v-115h-126zM14 436v93h69v145h140v-145h78v-93h-78v-282q0 -36 9 -47.5t37 -11.5q11 0 32 3v-98q-6 0 -34.5 -2t-46.5 -2q-70 0 -103.5 28.5t-33.5 91.5v320h-69zM188 742v115h126v-115h-126z" />
<glyph unicode="&#x1ea0;" horiz-adv-x="722" d="M26 0l259 729h166l252 -729h-154l-48 147h-273l-49 -147h-153zM270 272h190l-95 285zM291 -65h140v-140h-140v140z" />
<glyph unicode="&#x1ea1;" d="M28 146q0 72 38.5 110t120.5 53l56 10q12 2 32 5t28.5 4.5t21 5.5t17.5 9.5t9 15t4 23.5q0 54 -81 54q-52 0 -73 -16t-26 -58h-135q13 187 231 187q221 0 221 -166v-300q0 -37 32 -66v-17h-152q-16 20 -16 68q-74 -77 -164 -77q-71 0 -117.5 40t-46.5 115zM168 162 q0 -58 76 -58q53 0 82 33t29 94v24q-19 -9 -59 -17l-48 -9q-45 -8 -62.5 -22.5t-17.5 -44.5zM201 -65h140v-140h-140v140z" />
<glyph unicode="&#x1ea2;" horiz-adv-x="722" d="M26 0l259 729h166l252 -729h-154l-48 147h-273l-49 -147h-153zM255 882q0 104 111 104q50 0 82 -24.5t32 -62.5q0 -23 -11.5 -38.5t-43.5 -34.5q-19 -11 -24 -18t-5 -25h-62q0 27 10 44t37 35q18 13 23.5 19t5.5 16q0 16 -12 26t-31 10q-45 0 -45 -51h-67zM270 272h190 l-95 285z" />
<glyph unicode="&#x1ea3;" d="M28 146q0 72 38.5 110t120.5 53l56 10q12 2 32 5t28.5 4.5t21 5.5t17.5 9.5t9 15t4 23.5q0 54 -81 54q-52 0 -73 -16t-26 -58h-135q13 187 231 187q221 0 221 -166v-300q0 -37 32 -66v-17h-152q-16 20 -16 68q-74 -77 -164 -77q-71 0 -117.5 40t-46.5 115zM158 693 q0 104 111 104q50 0 82 -24.5t32 -62.5q0 -23 -11.5 -38.5t-43.5 -34.5q-19 -11 -24 -18t-5 -25h-62q0 27 10 44t37 35q18 13 23.5 19t5.5 16q0 16 -12 26t-31 10q-45 0 -45 -51h-67zM168 162q0 -58 76 -58q53 0 82 33t29 94v24q-19 -9 -59 -17l-48 -9q-45 -8 -62.5 -22.5 t-17.5 -44.5z" />
<glyph unicode="&#x1ea4;" horiz-adv-x="722" d="M26 0l259 729h166l252 -729h-154l-48 147h-273l-49 -147h-153zM178 787l130 135h128l124 -135h-94l-98 70l-99 -70h-91zM270 272h190l-95 285zM315 942l76 135h165l-135 -135h-106z" />
<glyph unicode="&#x1ea5;" d="M28 146q0 72 38.5 110t120.5 53l56 10q12 2 32 5t28.5 4.5t21 5.5t17.5 9.5t9 15t4 23.5q0 54 -81 54q-52 0 -73 -16t-26 -58h-135q13 187 231 187q221 0 221 -166v-300q0 -37 32 -66v-17h-152q-16 20 -16 68q-74 -77 -164 -77q-71 0 -117.5 40t-46.5 115zM81 598 l130 135h128l124 -135h-94l-98 70l-99 -70h-91zM168 162q0 -58 76 -58q53 0 82 33t29 94v24q-19 -9 -59 -17l-48 -9q-45 -8 -62.5 -22.5t-17.5 -44.5zM218 753l76 135h165l-135 -135h-106z" />
<glyph unicode="&#x1ea6;" horiz-adv-x="722" d="M26 0l259 729h166l252 -729h-154l-48 147h-273l-49 -147h-153zM178 787l130 135h128l124 -135h-94l-98 70l-99 -70h-91zM180 1077h165l76 -135h-106zM270 272h190l-95 285z" />
<glyph unicode="&#x1ea7;" d="M28 146q0 72 38.5 110t120.5 53l56 10q12 2 32 5t28.5 4.5t21 5.5t17.5 9.5t9 15t4 23.5q0 54 -81 54q-52 0 -73 -16t-26 -58h-135q13 187 231 187q221 0 221 -166v-300q0 -37 32 -66v-17h-152q-16 20 -16 68q-74 -77 -164 -77q-71 0 -117.5 40t-46.5 115zM81 598 l130 135h128l124 -135h-94l-98 70l-99 -70h-91zM83 888h165l76 -135h-106zM168 162q0 -58 76 -58q53 0 82 33t29 94v24q-19 -9 -59 -17l-48 -9q-45 -8 -62.5 -22.5t-17.5 -44.5z" />
<glyph unicode="&#x1ea8;" horiz-adv-x="722" d="M26 0l259 729h166l252 -729h-154l-48 147h-273l-49 -147h-153zM178 787l130 135h128l124 -135h-94l-98 70l-99 -70h-91zM270 272h190l-95 285zM335 1031q0 94 111 94q50 0 82 -22t32 -57q0 -21 -11.5 -34.5t-43.5 -30.5q-19 -10 -24 -16.5t-5 -22.5h-62q0 24 10 39.5 t37 31.5q18 11 23.5 16.5t5.5 14.5q0 14 -12 23.5t-31 9.5q-45 0 -45 -46h-67z" />
<glyph unicode="&#x1ea9;" d="M28 146q0 72 38.5 110t120.5 53l56 10q12 2 32 5t28.5 4.5t21 5.5t17.5 9.5t9 15t4 23.5q0 54 -81 54q-52 0 -73 -16t-26 -58h-135q13 187 231 187q221 0 221 -166v-300q0 -37 32 -66v-17h-152q-16 20 -16 68q-74 -77 -164 -77q-71 0 -117.5 40t-46.5 115zM81 598 l130 135h128l124 -135h-94l-98 70l-99 -70h-91zM168 162q0 -58 76 -58q53 0 82 33t29 94v24q-19 -9 -59 -17l-48 -9q-45 -8 -62.5 -22.5t-17.5 -44.5zM238 842q0 94 111 94q50 0 82 -22t32 -57q0 -21 -11.5 -34.5t-43.5 -30.5q-19 -10 -24 -16.5t-5 -22.5h-62q0 24 10 39.5 t37 31.5q18 11 23.5 16.5t5.5 14.5q0 14 -12 23.5t-31 9.5q-45 0 -45 -46h-67z" />
<glyph unicode="&#x1eaa;" horiz-adv-x="722" d="M26 0l259 729h166l252 -729h-154l-48 147h-273l-49 -147h-153zM178 787l130 135h128l124 -135h-94l-98 70l-99 -70h-91zM193 952q3 58 28 91t66 33q20 0 56 -13l71 -25q14 -6 34 -6q32 0 36 48h63q-6 -127 -95 -127q-23 0 -55 12l-71 26q-18 6 -30 6q-18 0 -27 -10.5 t-13 -34.5h-63zM270 272h190l-95 285z" />
<glyph unicode="&#x1eab;" d="M28 146q0 72 38.5 110t120.5 53l56 10q12 2 32 5t28.5 4.5t21 5.5t17.5 9.5t9 15t4 23.5q0 54 -81 54q-52 0 -73 -16t-26 -58h-135q13 187 231 187q221 0 221 -166v-300q0 -37 32 -66v-17h-152q-16 20 -16 68q-74 -77 -164 -77q-71 0 -117.5 40t-46.5 115zM81 598 l130 135h128l124 -135h-94l-98 70l-99 -70h-91zM96 763q3 58 28 91t66 33q20 0 56 -13l71 -25q14 -6 34 -6q31 0 36 48h63q-6 -127 -95 -127q-23 0 -55 12l-71 26q-18 6 -30 6q-18 0 -27 -10.5t-13 -34.5h-63zM168 162q0 -58 76 -58q53 0 82 33t29 94v24q-19 -9 -59 -17 l-48 -9q-45 -8 -62.5 -22.5t-17.5 -44.5z" />
<glyph unicode="&#x1eac;" horiz-adv-x="722" d="M26 0l259 729h166l252 -729h-154l-48 147h-273l-49 -147h-153zM177 787l130 135h128l124 -135h-94l-98 70l-99 -70h-91zM270 272h190l-95 285zM291 -65h140v-140h-140v140z" />
<glyph unicode="&#x1ead;" d="M28 146q0 72 38.5 110t120.5 53l56 10q12 2 32 5t28.5 4.5t21 5.5t17.5 9.5t9 15t4 23.5q0 54 -81 54q-52 0 -73 -16t-26 -58h-135q13 187 231 187q221 0 221 -166v-300q0 -37 32 -66v-17h-152q-16 20 -16 68q-74 -77 -164 -77q-71 0 -117.5 40t-46.5 115zM102 598 l108 154h127l103 -154h-88l-82 77l-82 -77h-86zM168 162q0 -58 76 -58q53 0 82 33t29 94v24q-19 -9 -59 -17l-48 -9q-45 -8 -62.5 -22.5t-17.5 -44.5zM201 -65h140v-140h-140v140z" />
<glyph unicode="&#x1eae;" horiz-adv-x="722" d="M26 0l259 729h166l252 -729h-154l-48 147h-273l-49 -147h-153zM188 915h71q8 -40 110 -40q103 0 109 40h71q-12 -122 -182 -122q-81 0 -129.5 30t-49.5 92zM270 272h190l-95 285zM315 945l76 135h165l-135 -135h-106z" />
<glyph unicode="&#x1eaf;" d="M28 146q0 72 38.5 110t120.5 53l56 10q12 2 32 5t28.5 4.5t21 5.5t17.5 9.5t9 15t4 23.5q0 54 -81 54q-52 0 -73 -16t-26 -58h-135q13 187 231 187q221 0 221 -166v-300q0 -37 32 -66v-17h-152q-16 20 -16 68q-74 -77 -164 -77q-71 0 -117.5 40t-46.5 115zM91 726h71 q8 -40 110 -40q103 0 109 40h71q-12 -122 -182 -122q-81 0 -129.5 30t-49.5 92zM168 162q0 -58 76 -58q53 0 82 33t29 94v24q-19 -9 -59 -17l-48 -9q-45 -8 -62.5 -22.5t-17.5 -44.5zM218 756l76 135h165l-135 -135h-106z" />
<glyph unicode="&#x1eb0;" horiz-adv-x="722" d="M26 0l259 729h166l252 -729h-154l-48 147h-273l-49 -147h-153zM180 1080h165l76 -135h-106zM188 915h71q8 -40 110 -40q103 0 109 40h71q-12 -122 -182 -122q-81 0 -129.5 30t-49.5 92zM270 272h190l-95 285z" />
<glyph unicode="&#x1eb1;" d="M28 146q0 72 38.5 110t120.5 53l56 10q12 2 32 5t28.5 4.5t21 5.5t17.5 9.5t9 15t4 23.5q0 54 -81 54q-52 0 -73 -16t-26 -58h-135q13 187 231 187q221 0 221 -166v-300q0 -37 32 -66v-17h-152q-16 20 -16 68q-74 -77 -164 -77q-71 0 -117.5 40t-46.5 115zM83 891h165 l76 -135h-106zM91 726h71q8 -40 110 -40q103 0 109 40h71q-12 -122 -182 -122q-81 0 -129.5 30t-49.5 92zM168 162q0 -58 76 -58q53 0 82 33t29 94v24q-19 -9 -59 -17l-48 -9q-45 -8 -62.5 -22.5t-17.5 -44.5z" />
<glyph unicode="&#x1eb2;" horiz-adv-x="722" d="M26 0l259 729h166l252 -729h-154l-48 147h-273l-49 -147h-153zM188 915h71q8 -40 110 -40q103 0 109 40h71q-12 -122 -182 -122q-81 0 -129.5 30t-49.5 92zM256 994q0 94 111 94q50 0 82 -22t32 -57q0 -21 -11.5 -34.5t-43.5 -30.5q-19 -10 -24 -16.5t-5 -22.5h-62 q0 24 10 39.5t37 31.5q18 11 23.5 16.5t5.5 14.5q0 14 -12 23.5t-31 9.5q-45 0 -45 -46h-67zM270 272h190l-95 285z" />
<glyph unicode="&#x1eb3;" d="M28 146q0 72 38.5 110t120.5 53l56 10q12 2 32 5t28.5 4.5t21 5.5t17.5 9.5t9 15t4 23.5q0 54 -81 54q-52 0 -73 -16t-26 -58h-135q13 187 231 187q221 0 221 -166v-300q0 -37 32 -66v-17h-152q-16 20 -16 68q-74 -77 -164 -77q-71 0 -117.5 40t-46.5 115zM91 726h71 q8 -40 110 -40q103 0 109 40h71q-12 -122 -182 -122q-81 0 -129.5 30t-49.5 92zM159 805q0 94 111 94q50 0 82 -22t32 -57q0 -21 -11.5 -34.5t-43.5 -30.5q-19 -10 -24 -16.5t-5 -22.5h-62q0 24 10 39.5t37 31.5q18 11 23.5 16.5t5.5 14.5q0 14 -12 23.5t-31 9.5 q-45 0 -45 -46h-67zM168 162q0 -58 76 -58q53 0 82 33t29 94v24q-19 -9 -59 -17l-48 -9q-45 -8 -62.5 -22.5t-17.5 -44.5z" />
<glyph unicode="&#x1eb4;" horiz-adv-x="722" d="M26 0l259 729h166l252 -729h-154l-48 147h-273l-49 -147h-153zM188 915h71q8 -40 110 -40q103 0 109 40h71q-12 -122 -182 -122q-81 0 -129.5 30t-49.5 92zM193 955q3 58 28 91t66 33q20 0 56 -13l71 -25q14 -6 34 -6q32 0 36 48h63q-6 -127 -95 -127q-23 0 -55 12 l-71 26q-18 6 -30 6q-18 0 -27 -10.5t-13 -34.5h-63zM270 272h190l-95 285z" />
<glyph unicode="&#x1eb5;" d="M28 146q0 72 38.5 110t120.5 53l56 10q12 2 32 5t28.5 4.5t21 5.5t17.5 9.5t9 15t4 23.5q0 54 -81 54q-52 0 -73 -16t-26 -58h-135q13 187 231 187q221 0 221 -166v-300q0 -37 32 -66v-17h-152q-16 20 -16 68q-74 -77 -164 -77q-71 0 -117.5 40t-46.5 115zM91 726h71 q8 -40 110 -40q103 0 109 40h71q-12 -122 -182 -122q-81 0 -129.5 30t-49.5 92zM96 766q3 58 28 91t66 33q20 0 56 -13l71 -25q14 -6 34 -6q31 0 36 48h63q-6 -127 -95 -127q-23 0 -55 12l-71 26q-18 6 -30 6q-18 0 -27 -10.5t-13 -34.5h-63zM168 162q0 -58 76 -58 q53 0 82 33t29 94v24q-19 -9 -59 -17l-48 -9q-45 -8 -62.5 -22.5t-17.5 -44.5z" />
<glyph unicode="&#x1eb6;" horiz-adv-x="722" d="M26 0l259 729h166l252 -729h-154l-48 147h-273l-49 -147h-153zM187 915h71q8 -40 110 -40q103 0 109 40h71q-12 -122 -182 -122q-81 0 -129.5 30t-49.5 92zM270 272h190l-95 285zM291 -65h140v-140h-140v140z" />
<glyph unicode="&#x1eb7;" d="M28 146q0 72 38.5 110t120.5 53l56 10q12 2 32 5t28.5 4.5t21 5.5t17.5 9.5t9 15t4 23.5q0 54 -81 54q-52 0 -73 -16t-26 -58h-135q13 187 231 187q221 0 221 -166v-300q0 -37 32 -66v-17h-152q-16 20 -16 68q-74 -77 -164 -77q-71 0 -117.5 40t-46.5 115zM104 751h80 q0 -31 24 -47.5t60 -16.5t60 16.5t24 47.5h80q0 -62 -50 -106.5t-114 -44.5t-114 44.5t-50 106.5zM168 162q0 -58 76 -58q53 0 82 33t29 94v24q-19 -9 -59 -17l-48 -9q-45 -8 -62.5 -22.5t-17.5 -44.5zM201 -65h140v-140h-140v140z" />
<glyph unicode="&#x1eb8;" horiz-adv-x="667" d="M79 0v729h527v-125h-377v-165h349v-125h-349v-189h395v-125h-545zM264 -65h140v-140h-140v140z" />
<glyph unicode="&#x1eb9;" d="M22 263q0 135 66.5 210.5t183.5 75.5q119 0 186 -79.5t67 -219.5l-1 -17h-362q3 -75 31 -105t81 -30q90 0 107 54h138q-23 -78 -90 -119.5t-160 -41.5q-116 0 -181.5 71.5t-65.5 200.5zM164 326h215q-5 57 -34 86.5t-75 29.5q-92 0 -106 -116zM202 -65h140v-140h-140v140 z" />
<glyph unicode="&#x1eba;" horiz-adv-x="667" d="M79 0v729h527v-125h-377v-165h349v-125h-349v-189h395v-125h-545zM230 882q0 104 111 104q50 0 82 -24.5t32 -62.5q0 -23 -11.5 -38.5t-43.5 -34.5q-19 -11 -24 -18t-5 -25h-62q0 27 10 44t37 35q18 13 23.5 19t5.5 16q0 16 -12 26t-31 10q-45 0 -45 -51h-67z" />
<glyph unicode="&#x1ebb;" d="M22 263q0 135 66.5 210.5t183.5 75.5q119 0 186 -79.5t67 -219.5l-1 -17h-362q3 -75 31 -105t81 -30q90 0 107 54h138q-23 -78 -90 -119.5t-160 -41.5q-116 0 -181.5 71.5t-65.5 200.5zM159 693q0 104 111 104q50 0 82 -24.5t32 -62.5q0 -23 -11.5 -38.5t-43.5 -34.5 q-19 -11 -24 -18t-5 -25h-62q0 27 10 44t37 35q18 13 23.5 19t5.5 16q0 16 -12 26t-31 10q-45 0 -45 -51h-67zM164 326h215q-5 57 -34 86.5t-75 29.5q-92 0 -106 -116z" />
<glyph unicode="&#x1ebc;" horiz-adv-x="667" d="M79 0v729h527v-125h-377v-165h349v-125h-349v-189h395v-125h-545zM168 790q3 58 28 91t66 33q20 0 56 -13l71 -25q14 -6 34 -6q31 0 36 48h63q-6 -127 -95 -127q-24 0 -55 12l-71 26q-18 6 -30 6q-18 0 -27 -10.5t-13 -34.5h-63z" />
<glyph unicode="&#x1ebd;" d="M22 263q0 135 66.5 210.5t183.5 75.5q119 0 186 -79.5t67 -219.5l-1 -17h-362q3 -75 31 -105t81 -30q90 0 107 54h138q-23 -78 -90 -119.5t-160 -41.5q-116 0 -181.5 71.5t-65.5 200.5zM96 611q3 58 28 91t66 33q20 0 56 -13l71 -25q14 -6 34 -6q31 0 36 48h63 q-6 -127 -95 -127q-23 0 -55 12l-71 26q-18 6 -30 6q-18 0 -27 -10.5t-13 -34.5h-63zM164 326h215q-5 57 -34 86.5t-75 29.5q-92 0 -106 -116z" />
<glyph unicode="&#x1ebe;" horiz-adv-x="667" d="M79 0v729h527v-125h-377v-165h349v-125h-349v-189h395v-125h-545zM153 787l130 135h128l124 -135h-94l-98 70l-99 -70h-91zM290 942l76 135h165l-135 -135h-106z" />
<glyph unicode="&#x1ebf;" d="M22 263q0 135 66.5 210.5t183.5 75.5q119 0 186 -79.5t67 -219.5l-1 -17h-362q3 -75 31 -105t81 -30q90 0 107 54h138q-23 -78 -90 -119.5t-160 -41.5q-116 0 -181.5 71.5t-65.5 200.5zM82 598l130 135h128l124 -135h-94l-98 70l-99 -70h-91zM164 326h215q-5 57 -34 86.5 t-75 29.5q-92 0 -106 -116zM219 753l76 135h165l-135 -135h-106z" />
<glyph unicode="&#x1ec0;" horiz-adv-x="667" d="M79 0v729h527v-125h-377v-165h349v-125h-349v-189h395v-125h-545zM153 787l130 135h128l124 -135h-94l-98 70l-99 -70h-91zM155 1077h165l76 -135h-106z" />
<glyph unicode="&#x1ec1;" d="M22 263q0 135 66.5 210.5t183.5 75.5q119 0 186 -79.5t67 -219.5l-1 -17h-362q3 -75 31 -105t81 -30q90 0 107 54h138q-23 -78 -90 -119.5t-160 -41.5q-116 0 -181.5 71.5t-65.5 200.5zM82 598l130 135h128l124 -135h-94l-98 70l-99 -70h-91zM84 888h165l76 -135h-106z M164 326h215q-5 57 -34 86.5t-75 29.5q-92 0 -106 -116z" />
<glyph unicode="&#x1ec2;" horiz-adv-x="667" d="M79 0v729h527v-125h-377v-165h349v-125h-349v-189h395v-125h-545zM153 787l130 135h128l124 -135h-94l-98 70l-99 -70h-91zM310 1031q0 94 111 94q50 0 82 -22t32 -57q0 -21 -11.5 -34.5t-43.5 -30.5q-19 -10 -24 -16.5t-5 -22.5h-62q0 24 10 39.5t37 31.5 q18 11 23.5 16.5t5.5 14.5q0 14 -12 23.5t-31 9.5q-45 0 -45 -46h-67z" />
<glyph unicode="&#x1ec3;" d="M22 263q0 135 66.5 210.5t183.5 75.5q119 0 186 -79.5t67 -219.5l-1 -17h-362q3 -75 31 -105t81 -30q90 0 107 54h138q-23 -78 -90 -119.5t-160 -41.5q-116 0 -181.5 71.5t-65.5 200.5zM82 598l130 135h128l124 -135h-94l-98 70l-99 -70h-91zM164 326h215q-5 57 -34 86.5 t-75 29.5q-92 0 -106 -116zM239 842q0 94 111 94q50 0 82 -22t32 -57q0 -21 -11.5 -34.5t-43.5 -30.5q-19 -10 -24 -16.5t-5 -22.5h-62q0 24 10 39.5t37 31.5q18 11 23.5 16.5t5.5 14.5q0 14 -12 23.5t-31 9.5q-45 0 -45 -46h-67z" />
<glyph unicode="&#x1ec4;" horiz-adv-x="667" d="M79 0v729h527v-125h-377v-165h349v-125h-349v-189h395v-125h-545zM153 787l130 135h128l124 -135h-94l-98 70l-99 -70h-91zM168 952q3 58 28 91t66 33q20 0 56 -13l71 -25q14 -6 34 -6q31 0 36 48h63q-6 -127 -95 -127q-24 0 -55 12l-71 26q-18 6 -30 6q-18 0 -27 -10.5 t-13 -34.5h-63z" />
<glyph unicode="&#x1ec5;" d="M22 263q0 135 66.5 210.5t183.5 75.5q119 0 186 -79.5t67 -219.5l-1 -17h-362q3 -75 31 -105t81 -30q90 0 107 54h138q-23 -78 -90 -119.5t-160 -41.5q-116 0 -181.5 71.5t-65.5 200.5zM82 598l130 135h128l124 -135h-94l-98 70l-99 -70h-91zM97 763q3 58 28 91t66 33 q20 0 56 -13l71 -25q14 -6 34 -6q32 0 36 48h63q-6 -127 -95 -127q-24 0 -55 12l-71 26q-18 6 -30 6q-18 0 -27 -10.5t-13 -34.5h-63zM164 326h215q-5 57 -34 86.5t-75 29.5q-92 0 -106 -116z" />
<glyph unicode="&#x1ec6;" horiz-adv-x="667" d="M79 0v729h527v-125h-377v-165h349v-125h-349v-189h395v-125h-545zM152 787l130 135h128l124 -135h-94l-98 70l-99 -70h-91zM264 -65h140v-140h-140v140z" />
<glyph unicode="&#x1ec7;" d="M22 263q0 135 66.5 210.5t183.5 75.5q119 0 186 -79.5t67 -219.5l-1 -17h-362q3 -75 31 -105t81 -30q90 0 107 54h138q-23 -78 -90 -119.5t-160 -41.5q-116 0 -181.5 71.5t-65.5 200.5zM103 598l108 154h127l103 -154h-88l-82 77l-82 -77h-86zM164 326h215 q-5 57 -34 86.5t-75 29.5q-92 0 -106 -116zM202 -65h140v-140h-140v140z" />
<glyph unicode="&#x1ec8;" horiz-adv-x="278" d="M25 882q0 104 111 104q50 0 82 -24.5t32 -62.5q0 -23 -11.5 -38.5t-43.5 -34.5q-19 -11 -24 -18t-5 -25h-62q0 27 10 44t37 35q18 13 23.5 19t5.5 16q0 16 -12 26t-31 10q-45 0 -45 -51h-67zM63 0v729h150v-729h-150z" />
<glyph unicode="&#x1ec9;" horiz-adv-x="278" d="M26 693q0 104 111 104q50 0 82 -24.5t32 -62.5q0 -23 -11.5 -38.5t-43.5 -34.5q-19 -11 -24 -18t-5 -25h-62q0 27 10 44t37 35q18 13 23.5 19t5.5 16q0 16 -12 26t-31 10q-45 0 -45 -51h-67zM67 0v540h140v-540h-140z" />
<glyph unicode="&#x1eca;" horiz-adv-x="278" d="M63 0v729h150v-729h-150zM68 -65h140v-140h-140v140z" />
<glyph unicode="&#x1ecb;" horiz-adv-x="278" d="M67 0v540h140v-540h-140zM69 -65h140v-140h-140v140zM69 605v140h140v-140h-140z" />
<glyph unicode="&#x1ecc;" horiz-adv-x="778" d="M40 365q0 161 96.5 268.5t253.5 107.5q158 0 255 -107t97 -274q0 -162 -97 -267t-254 -105q-159 0 -255 105.5t-96 271.5zM190 365q0 -114 55 -181.5t146 -67.5q90 0 145.5 67t55.5 178q0 114 -54.5 183t-146.5 69q-90 0 -145.5 -68.5t-55.5 -179.5zM320 -65h140v-140 h-140v140z" />
<glyph unicode="&#x1ecd;" horiz-adv-x="611" d="M35 270q0 132 71 205.5t195 73.5q128 0 198 -73.5t70 -209.5q0 -129 -71.5 -202t-195.5 -73q-125 0 -196 73t-71 206zM175 270q0 -77 34.5 -121.5t92.5 -44.5q57 0 92 44.5t35 119.5q0 79 -34.5 123.5t-92.5 44.5t-92.5 -44.5t-34.5 -121.5zM236 -65h140v-140h-140v140z " />
<glyph unicode="&#x1ece;" horiz-adv-x="778" d="M40 365q0 161 96.5 268.5t253.5 107.5q158 0 255 -107t97 -274q0 -162 -97 -267t-254 -105q-159 0 -255 105.5t-96 271.5zM190 365q0 -114 55 -181.5t146 -67.5q90 0 145.5 67t55.5 178q0 114 -54.5 183t-146.5 69q-90 0 -145.5 -68.5t-55.5 -179.5zM277 882 q0 104 111 104q50 0 82 -24.5t32 -62.5q0 -23 -11.5 -38.5t-43.5 -34.5q-19 -11 -24 -18t-5 -25h-62q0 27 10 44t37 35q18 13 23.5 19t5.5 16q0 16 -12 26t-31 10q-45 0 -45 -51h-67z" />
<glyph unicode="&#x1ecf;" horiz-adv-x="611" d="M35 270q0 132 71 205.5t195 73.5q128 0 198 -73.5t70 -209.5q0 -129 -71.5 -202t-195.5 -73q-125 0 -196 73t-71 206zM175 270q0 -77 34.5 -121.5t92.5 -44.5q57 0 92 44.5t35 119.5q0 79 -34.5 123.5t-92.5 44.5t-92.5 -44.5t-34.5 -121.5zM193 693q0 104 111 104 q50 0 82 -24.5t32 -62.5q0 -23 -11.5 -38.5t-43.5 -34.5q-19 -11 -24 -18t-5 -25h-62q0 27 10 44t37 35q18 13 23.5 19t5.5 16q0 16 -12 26t-31 10q-45 0 -45 -51h-67z" />
<glyph unicode="&#x1ed0;" horiz-adv-x="778" d="M40 365q0 161 96.5 268.5t253.5 107.5q158 0 255 -107t97 -274q0 -162 -97 -267t-254 -105q-159 0 -255 105.5t-96 271.5zM190 365q0 -114 55 -181.5t146 -67.5q90 0 145.5 67t55.5 178q0 114 -54.5 183t-146.5 69q-90 0 -145.5 -68.5t-55.5 -179.5zM200 787l130 135h128 l124 -135h-94l-98 70l-99 -70h-91zM337 942l76 135h165l-135 -135h-106z" />
<glyph unicode="&#x1ed1;" horiz-adv-x="611" d="M35 270q0 132 71 205.5t195 73.5q128 0 198 -73.5t70 -209.5q0 -129 -71.5 -202t-195.5 -73q-125 0 -196 73t-71 206zM115 598l130 135h128l124 -135h-94l-98 70l-99 -70h-91zM175 270q0 -77 34.5 -121.5t92.5 -44.5q57 0 92 44.5t35 119.5q0 79 -34.5 123.5t-92.5 44.5 t-92.5 -44.5t-34.5 -121.5zM252 753l76 135h165l-135 -135h-106z" />
<glyph unicode="&#x1ed2;" horiz-adv-x="778" d="M40 365q0 161 96.5 268.5t253.5 107.5q158 0 255 -107t97 -274q0 -162 -97 -267t-254 -105q-159 0 -255 105.5t-96 271.5zM190 365q0 -114 55 -181.5t146 -67.5q90 0 145.5 67t55.5 178q0 114 -54.5 183t-146.5 69q-90 0 -145.5 -68.5t-55.5 -179.5zM200 787l130 135h128 l124 -135h-94l-98 70l-99 -70h-91zM202 1077h165l76 -135h-106z" />
<glyph unicode="&#x1ed3;" horiz-adv-x="611" d="M35 270q0 132 71 205.5t195 73.5q128 0 198 -73.5t70 -209.5q0 -129 -71.5 -202t-195.5 -73q-125 0 -196 73t-71 206zM115 598l130 135h128l124 -135h-94l-98 70l-99 -70h-91zM117 888h165l76 -135h-106zM175 270q0 -77 34.5 -121.5t92.5 -44.5q57 0 92 44.5t35 119.5 q0 79 -34.5 123.5t-92.5 44.5t-92.5 -44.5t-34.5 -121.5z" />
<glyph unicode="&#x1ed4;" horiz-adv-x="778" d="M40 365q0 161 96.5 268.5t253.5 107.5q158 0 255 -107t97 -274q0 -162 -97 -267t-254 -105q-159 0 -255 105.5t-96 271.5zM190 365q0 -114 55 -181.5t146 -67.5q90 0 145.5 67t55.5 178q0 114 -54.5 183t-146.5 69q-90 0 -145.5 -68.5t-55.5 -179.5zM200 787l130 135h128 l124 -135h-94l-98 70l-99 -70h-91zM357 1031q0 94 111 94q50 0 82 -22t32 -57q0 -21 -11.5 -34.5t-43.5 -30.5q-19 -10 -24 -16.5t-5 -22.5h-62q0 24 10 39.5t37 31.5q18 11 23.5 16.5t5.5 14.5q0 14 -12 23.5t-31 9.5q-45 0 -45 -46h-67z" />
<glyph unicode="&#x1ed5;" horiz-adv-x="611" d="M35 270q0 132 71 205.5t195 73.5q128 0 198 -73.5t70 -209.5q0 -129 -71.5 -202t-195.5 -73q-125 0 -196 73t-71 206zM115 598l130 135h128l124 -135h-94l-98 70l-99 -70h-91zM175 270q0 -77 34.5 -121.5t92.5 -44.5q57 0 92 44.5t35 119.5q0 79 -34.5 123.5t-92.5 44.5 t-92.5 -44.5t-34.5 -121.5zM272 842q0 94 111 94q50 0 82 -22t32 -57q0 -21 -11.5 -34.5t-43.5 -30.5q-19 -10 -24 -16.5t-5 -22.5h-62q0 24 10 39.5t37 31.5q18 11 23.5 16.5t5.5 14.5q0 14 -12 23.5t-31 9.5q-45 0 -45 -46h-67z" />
<glyph unicode="&#x1ed6;" horiz-adv-x="778" d="M40 365q0 161 96.5 268.5t253.5 107.5q158 0 255 -107t97 -274q0 -162 -97 -267t-254 -105q-159 0 -255 105.5t-96 271.5zM190 365q0 -114 55 -181.5t146 -67.5q90 0 145.5 67t55.5 178q0 114 -54.5 183t-146.5 69q-90 0 -145.5 -68.5t-55.5 -179.5zM200 787l130 135h128 l124 -135h-94l-98 70l-99 -70h-91zM215 952q3 58 28 91t66 33q20 0 56 -13l71 -25q14 -6 34 -6q32 0 36 48h63q-6 -127 -95 -127q-23 0 -55 12l-71 26q-18 6 -30 6q-18 0 -27 -10.5t-13 -34.5h-63z" />
<glyph unicode="&#x1ed7;" horiz-adv-x="611" d="M35 270q0 132 71 205.5t195 73.5q128 0 198 -73.5t70 -209.5q0 -129 -71.5 -202t-195.5 -73q-125 0 -196 73t-71 206zM115 598l130 135h128l124 -135h-94l-98 70l-99 -70h-91zM130 763q3 58 28 91t66 33q20 0 56 -13l71 -25q14 -6 34 -6q31 0 36 48h63q-6 -127 -95 -127 q-23 0 -55 12l-71 26q-18 6 -30 6q-18 0 -27 -10.5t-13 -34.5h-63zM175 270q0 -77 34.5 -121.5t92.5 -44.5q57 0 92 44.5t35 119.5q0 79 -34.5 123.5t-92.5 44.5t-92.5 -44.5t-34.5 -121.5z" />
<glyph unicode="&#x1ed8;" horiz-adv-x="778" d="M40 365q0 161 96.5 268.5t253.5 107.5q158 0 255 -107t97 -274q0 -162 -97 -267t-254 -105q-159 0 -255 105.5t-96 271.5zM190 365q0 -114 55 -181.5t146 -67.5q90 0 145.5 67t55.5 178q0 114 -54.5 183t-146.5 69q-90 0 -145.5 -68.5t-55.5 -179.5zM199 787l130 135h128 l124 -135h-94l-98 70l-99 -70h-91zM320 -65h140v-140h-140v140z" />
<glyph unicode="&#x1ed9;" horiz-adv-x="611" d="M35 270q0 132 71 205.5t195 73.5q128 0 198 -73.5t70 -209.5q0 -129 -71.5 -202t-195.5 -73q-125 0 -196 73t-71 206zM137 598l108 154h127l103 -154h-88l-82 77l-82 -77h-86zM175 270q0 -77 34.5 -121.5t92.5 -44.5q57 0 92 44.5t35 119.5q0 79 -34.5 123.5t-92.5 44.5 t-92.5 -44.5t-34.5 -121.5zM236 -65h140v-140h-140v140z" />
<glyph unicode="&#x1eda;" horiz-adv-x="812" d="M40 366q0 164 102 274q93 101 248 101q183 0 273 -129q56 47 56 117h-65v125h135v-109q0 -126 -91 -190q44 -93 44 -194q0 -77 -27.5 -151.5t-74.5 -124.5q-87 -94 -249 -94t-249 94q-49 52 -75.5 125.5t-26.5 155.5zM190 366q0 -114 55 -180.5t146 -66.5t146 66t55 177 q0 118 -54 184.5t-147 66.5q-91 0 -146 -66.5t-55 -180.5zM338 786l76 135h165l-135 -135h-106z" />
<glyph unicode="&#x1edb;" horiz-adv-x="680" d="M35 270q0 132 71 205.5t195 73.5q160 0 229 -120q50 46 50 111h-65v125h135v-109q0 -128 -94 -192q13 -46 13 -98q0 -129 -71.5 -202t-195.5 -73q-125 0 -196 73t-71 206zM175 270q0 -77 34.5 -121.5t92.5 -44.5q57 0 92 44.5t35 119.5q0 79 -34.5 123.5t-92.5 44.5 t-92.5 -44.5t-34.5 -121.5zM252 598l70 154h156l-126 -154h-100z" />
<glyph unicode="&#x1edc;" horiz-adv-x="812" d="M40 366q0 164 102 274q93 101 248 101q183 0 273 -129q56 47 56 117h-65v125h135v-109q0 -126 -91 -190q44 -93 44 -194q0 -77 -27.5 -151.5t-74.5 -124.5q-87 -94 -249 -94t-249 94q-49 52 -75.5 125.5t-26.5 155.5zM190 366q0 -114 55 -180.5t146 -66.5t146 66t55 177 q0 118 -54 184.5t-147 66.5q-91 0 -146 -66.5t-55 -180.5zM203 921h165l76 -135h-106z" />
<glyph unicode="&#x1edd;" horiz-adv-x="680" d="M35 270q0 132 71 205.5t195 73.5q160 0 229 -120q50 46 50 111h-65v125h135v-109q0 -128 -94 -192q13 -46 13 -98q0 -129 -71.5 -202t-195.5 -73q-125 0 -196 73t-71 206zM126 752h156l70 -154h-100zM175 270q0 -77 34.5 -121.5t92.5 -44.5q57 0 92 44.5t35 119.5 q0 79 -34.5 123.5t-92.5 44.5t-92.5 -44.5t-34.5 -121.5z" />
<glyph unicode="&#x1ede;" horiz-adv-x="812" d="M40 366q0 164 102 274q93 101 248 101q183 0 273 -129q56 47 56 117h-65v125h135v-109q0 -126 -91 -190q44 -93 44 -194q0 -77 -27.5 -151.5t-74.5 -124.5q-87 -94 -249 -94t-249 94q-49 52 -75.5 125.5t-26.5 155.5zM190 366q0 -114 55 -180.5t146 -66.5t146 66t55 177 q0 118 -54 184.5t-147 66.5q-91 0 -146 -66.5t-55 -180.5zM278 882q0 104 111 104q50 0 82 -24.5t32 -62.5q0 -23 -11.5 -38.5t-43.5 -34.5q-19 -11 -24 -18t-5 -25h-62q0 27 10 44t37 35q18 13 23.5 19t5.5 16q0 16 -12 26t-31 10q-45 0 -45 -51h-67z" />
<glyph unicode="&#x1edf;" horiz-adv-x="680" d="M35 270q0 132 71 205.5t195 73.5q160 0 229 -120q50 46 50 111h-65v125h135v-109q0 -128 -94 -192q13 -46 13 -98q0 -129 -71.5 -202t-195.5 -73q-125 0 -196 73t-71 206zM175 270q0 -77 34.5 -121.5t92.5 -44.5q57 0 92 44.5t35 119.5q0 79 -34.5 123.5t-92.5 44.5 t-92.5 -44.5t-34.5 -121.5zM189 693q0 104 111 104q50 0 82 -24.5t32 -62.5q0 -23 -11.5 -38.5t-43.5 -34.5q-19 -11 -24 -18t-5 -25h-62q0 27 10 44t37 35q18 13 23.5 19t5.5 16q0 16 -12 26t-31 10q-45 0 -45 -51h-67z" />
<glyph unicode="&#x1ee0;" horiz-adv-x="812" d="M40 366q0 164 102 274q93 101 248 101q183 0 273 -129q56 47 56 117h-65v125h135v-109q0 -126 -91 -190q44 -93 44 -194q0 -77 -27.5 -151.5t-74.5 -124.5q-87 -94 -249 -94t-249 94q-49 52 -75.5 125.5t-26.5 155.5zM190 366q0 -114 55 -180.5t146 -66.5t146 66t55 177 q0 118 -54 184.5t-147 66.5q-91 0 -146 -66.5t-55 -180.5zM216 790q3 58 28 91t66 33q20 0 56 -13l71 -25q14 -6 34 -6q31 0 36 48h63q-6 -127 -95 -127q-23 0 -55 12l-71 26q-18 6 -30 6q-18 0 -27 -10.5t-13 -34.5h-63z" />
<glyph unicode="&#x1ee1;" horiz-adv-x="680" d="M35 270q0 132 71 205.5t195 73.5q160 0 229 -120q50 46 50 111h-65v125h135v-109q0 -128 -94 -192q13 -46 13 -98q0 -129 -71.5 -202t-195.5 -73q-125 0 -196 73t-71 206zM126 611q3 58 28 91t66 33q20 0 56 -13l71 -25q14 -6 34 -6q31 0 36 48h63q-6 -127 -95 -127 q-23 0 -55 12l-71 26q-18 6 -30 6q-18 0 -27 -10.5t-13 -34.5h-63zM175 270q0 -77 34.5 -121.5t92.5 -44.5q57 0 92 44.5t35 119.5q0 79 -34.5 123.5t-92.5 44.5t-92.5 -44.5t-34.5 -121.5z" />
<glyph unicode="&#x1ee2;" horiz-adv-x="812" d="M40 366q0 164 102 274q93 101 248 101q183 0 273 -129q56 47 56 117h-65v125h135v-109q0 -126 -91 -190q44 -93 44 -194q0 -77 -27.5 -151.5t-74.5 -124.5q-87 -94 -249 -94t-249 94q-49 52 -75.5 125.5t-26.5 155.5zM190 366q0 -114 55 -180.5t146 -66.5t146 66t55 177 q0 118 -54 184.5t-147 66.5q-91 0 -146 -66.5t-55 -180.5zM321 -65h140v-140h-140v140z" />
<glyph unicode="&#x1ee3;" horiz-adv-x="680" d="M35 270q0 132 71 205.5t195 73.5q160 0 229 -120q50 46 50 111h-65v125h135v-109q0 -128 -94 -192q13 -46 13 -98q0 -129 -71.5 -202t-195.5 -73q-125 0 -196 73t-71 206zM175 270q0 -77 34.5 -121.5t92.5 -44.5q57 0 92 44.5t35 119.5q0 79 -34.5 123.5t-92.5 44.5 t-92.5 -44.5t-34.5 -121.5zM232 -65h140v-140h-140v140z" />
<glyph unicode="&#x1ee4;" horiz-adv-x="722" d="M76 246v483h150v-483q0 -130 139 -130t139 130v483h150v-483q0 -125 -79.5 -191.5t-209.5 -66.5t-209.5 66.5t-79.5 191.5zM291 -65h140v-140h-140v140z" />
<glyph unicode="&#x1ee5;" horiz-adv-x="611" d="M58 178v362h140v-333q0 -97 90 -97q51 0 82 29t31 77v324h140v-540h-140v71q-60 -80 -162 -80q-86 0 -133.5 49t-47.5 138zM236 -65h140v-140h-140v140z" />
<glyph unicode="&#x1ee6;" horiz-adv-x="722" d="M76 246v483h150v-483q0 -130 139 -130t139 130v483h150v-483q0 -125 -79.5 -191.5t-209.5 -66.5t-209.5 66.5t-79.5 191.5zM248 882q0 104 111 104q50 0 82 -24.5t32 -62.5q0 -23 -11.5 -38.5t-43.5 -34.5q-19 -11 -24 -18t-5 -25h-62q0 27 10 44t37 35q18 13 23.5 19 t5.5 16q0 16 -12 26t-31 10q-45 0 -45 -51h-67z" />
<glyph unicode="&#x1ee7;" horiz-adv-x="611" d="M58 178v362h140v-333q0 -97 90 -97q51 0 82 29t31 77v324h140v-540h-140v71q-60 -80 -162 -80q-86 0 -133.5 49t-47.5 138zM193 693q0 104 111 104q50 0 82 -24.5t32 -62.5q0 -23 -11.5 -38.5t-43.5 -34.5q-19 -11 -24 -18t-5 -25h-62q0 27 10 44t37 35q18 13 23.5 19 t5.5 16q0 16 -12 26t-31 10q-45 0 -45 -51h-67z" />
<glyph unicode="&#x1ee8;" horiz-adv-x="829" d="M76 249v480h150v-480q0 -130 139 -130t139 130v480h150v-141q89 50 89 140h-65v125h135v-109q0 -96 -47.5 -150t-111.5 -75v-270q0 -120 -71 -184q-82 -74 -218 -74t-218 74q-71 64 -71 184zM312 786l76 135h165l-135 -135h-106z" />
<glyph unicode="&#x1ee9;" horiz-adv-x="720" d="M58 178v362h140v-333q0 -97 90 -97q51 0 82 29t31 77v324h140v-142q38 20 65 57t27 85h-65v125h135v-109q0 -51 -15.5 -92.5t-41 -67.5t-51 -41.5t-54.5 -24.5v-330h-140v78q-58 -87 -162 -87q-86 0 -133.5 49t-47.5 138zM250 598l70 154h156l-126 -154h-100z" />
<glyph unicode="&#x1eea;" horiz-adv-x="829" d="M76 249v480h150v-480q0 -130 139 -130t139 130v480h150v-141q89 50 89 140h-65v125h135v-109q0 -96 -47.5 -150t-111.5 -75v-270q0 -120 -71 -184q-82 -74 -218 -74t-218 74q-71 64 -71 184zM177 921h165l76 -135h-106z" />
<glyph unicode="&#x1eeb;" horiz-adv-x="720" d="M58 178v362h140v-333q0 -97 90 -97q51 0 82 29t31 77v324h140v-142q38 20 65 57t27 85h-65v125h135v-109q0 -51 -15.5 -92.5t-41 -67.5t-51 -41.5t-54.5 -24.5v-330h-140v78q-58 -87 -162 -87q-86 0 -133.5 49t-47.5 138zM124 752h156l70 -154h-100z" />
<glyph unicode="&#x1eec;" horiz-adv-x="829" d="M76 249v480h150v-480q0 -130 139 -130t139 130v480h150v-141q89 50 89 140h-65v125h135v-109q0 -96 -47.5 -150t-111.5 -75v-270q0 -120 -71 -184q-82 -74 -218 -74t-218 74q-71 64 -71 184zM252 882q0 104 111 104q50 0 82 -24.5t32 -62.5q0 -23 -11.5 -38.5 t-43.5 -34.5q-19 -11 -24 -18t-5 -25h-62q0 27 10 44t37 35q18 13 23.5 19t5.5 16q0 16 -12 26t-31 10q-45 0 -45 -51h-67z" />
<glyph unicode="&#x1eed;" horiz-adv-x="720" d="M58 178v362h140v-333q0 -97 90 -97q51 0 82 29t31 77v324h140v-142q38 20 65 57t27 85h-65v125h135v-109q0 -51 -15.5 -92.5t-41 -67.5t-51 -41.5t-54.5 -24.5v-330h-140v78q-58 -87 -162 -87q-86 0 -133.5 49t-47.5 138zM187 693q0 104 111 104q50 0 82 -24.5t32 -62.5 q0 -23 -11.5 -38.5t-43.5 -34.5q-19 -11 -24 -18t-5 -25h-62q0 27 10 44t37 35q18 13 23.5 19t5.5 16q0 16 -12 26t-31 10q-45 0 -45 -51h-67z" />
<glyph unicode="&#x1eee;" horiz-adv-x="829" d="M76 249v480h150v-480q0 -130 139 -130t139 130v480h150v-141q89 50 89 140h-65v125h135v-109q0 -96 -47.5 -150t-111.5 -75v-270q0 -120 -71 -184q-82 -74 -218 -74t-218 74q-71 64 -71 184zM190 790q3 58 28 91t66 33q20 0 56 -13l71 -25q14 -6 34 -6q31 0 36 48h63 q-6 -127 -95 -127q-24 0 -55 12l-71 26q-18 6 -30 6q-18 0 -27 -10.5t-13 -34.5h-63z" />
<glyph unicode="&#x1eef;" horiz-adv-x="720" d="M58 178v362h140v-333q0 -97 90 -97q51 0 82 29t31 77v324h140v-142q38 20 65 57t27 85h-65v125h135v-109q0 -51 -15.5 -92.5t-41 -67.5t-51 -41.5t-54.5 -24.5v-330h-140v78q-58 -87 -162 -87q-86 0 -133.5 49t-47.5 138zM124 611q3 58 28 91t66 33q20 0 56 -13l71 -25 q14 -6 34 -6q31 0 36 48h63q-6 -127 -95 -127q-23 0 -55 12l-71 26q-18 6 -30 6q-18 0 -27 -10.5t-13 -34.5h-63z" />
<glyph unicode="&#x1ef0;" horiz-adv-x="829" d="M76 249v480h150v-480q0 -130 139 -130t139 130v480h150v-141q89 50 89 140h-65v125h135v-109q0 -96 -47.5 -150t-111.5 -75v-270q0 -120 -71 -184q-82 -74 -218 -74t-218 74q-71 64 -71 184zM295 -65h140v-140h-140v140z" />
<glyph unicode="&#x1ef1;" horiz-adv-x="720" d="M58 178v362h140v-333q0 -97 90 -97q51 0 82 29t31 77v324h140v-142q38 20 65 57t27 85h-65v125h135v-109q0 -51 -15.5 -92.5t-41 -67.5t-51 -41.5t-54.5 -24.5v-330h-140v78q-58 -87 -162 -87q-86 0 -133.5 49t-47.5 138zM230 -65h140v-140h-140v140z" />
<glyph unicode="&#x1ef2;" horiz-adv-x="667" d="M27 729h167l149 -322l139 322h168l-231 -459v-270h-150v270zM156 921h165l76 -135h-106z" />
<glyph unicode="&#x1ef3;" d="M9 540h154l119 -393l112 393h144l-222 -639q-26 -73 -65 -96.5t-115 -23.5q-22 0 -50 4v105q22 -6 37 -6q37 0 62 26t25 64v3zM102 752h156l70 -154h-100z" />
<glyph unicode="&#x1ef4;" horiz-adv-x="667" d="M27 729h167l149 -322l139 322h168l-231 -459v-270h-150v270zM274 -65h140v-140h-140v140z" />
<glyph unicode="&#x1ef5;" d="M9 540h154l119 -393l112 393h144l-222 -639q-26 -73 -65 -96.5t-115 -23.5q-22 0 -50 4v105q22 -6 37 -6q37 0 62 26t25 64v3zM376 -65h140v-140h-140v140z" />
<glyph unicode="&#x1ef6;" horiz-adv-x="667" d="M27 729h167l149 -322l139 322h168l-231 -459v-270h-150v270zM231 882q0 104 111 104q50 0 82 -24.5t32 -62.5q0 -23 -11.5 -38.5t-43.5 -34.5q-19 -11 -24 -18t-5 -25h-62q0 27 10 44t37 35q18 13 23.5 19t5.5 16q0 16 -12 26t-31 10q-45 0 -45 -51h-67z" />
<glyph unicode="&#x1ef7;" d="M9 540h154l119 -393l112 393h144l-222 -639q-26 -73 -65 -96.5t-115 -23.5q-22 0 -50 4v105q22 -6 37 -6q37 0 62 26t25 64v3zM165 693q0 104 111 104q50 0 82 -24.5t32 -62.5q0 -23 -11.5 -38.5t-43.5 -34.5q-19 -11 -24 -18t-5 -25h-62q0 27 10 44t37 35q18 13 23.5 19 t5.5 16q0 16 -12 26t-31 10q-45 0 -45 -51h-67z" />
<glyph unicode="&#x1ef8;" horiz-adv-x="667" d="M27 729h167l149 -322l139 322h168l-231 -459v-270h-150v270zM169 790q3 58 28 91t66 33q20 0 56 -13l71 -25q14 -6 34 -6q32 0 36 48h63q-6 -127 -95 -127q-24 0 -55 12l-71 26q-18 6 -30 6q-18 0 -27 -10.5t-13 -34.5h-63z" />
<glyph unicode="&#x1ef9;" d="M9 540h154l119 -393l112 393h144l-222 -639q-26 -73 -65 -96.5t-115 -23.5q-22 0 -50 4v105q22 -6 37 -6q37 0 62 26t25 64v3zM102 611q3 58 28 91t66 33q20 0 56 -13l71 -25q14 -6 34 -6q31 0 36 48h63q-6 -127 -95 -127q-23 0 -55 12l-71 26q-18 6 -30 6 q-18 0 -27 -10.5t-13 -34.5h-63z" />
<glyph unicode="&#x2000;" horiz-adv-x="562" />
<glyph unicode="&#x2001;" horiz-adv-x="1125" />
<glyph unicode="&#x2002;" horiz-adv-x="562" />
<glyph unicode="&#x2003;" horiz-adv-x="1125" />
<glyph unicode="&#x2004;" horiz-adv-x="375" />
<glyph unicode="&#x2005;" horiz-adv-x="281" />
<glyph unicode="&#x2006;" horiz-adv-x="187" />
<glyph unicode="&#x2007;" horiz-adv-x="187" />
<glyph unicode="&#x2008;" horiz-adv-x="140" />
<glyph unicode="&#x2009;" horiz-adv-x="225" />
<glyph unicode="&#x200a;" horiz-adv-x="62" />
<glyph unicode="&#x2010;" horiz-adv-x="333" d="M26 207v135h272v-135h-272z" />
<glyph unicode="&#x2011;" horiz-adv-x="333" d="M26 207v135h272v-135h-272z" />
<glyph unicode="&#x2012;" horiz-adv-x="333" d="M26 207v135h272v-135h-272z" />
<glyph unicode="&#x2013;" d="M-9 207v104h566v-104h-566z" />
<glyph unicode="&#x2014;" horiz-adv-x="1000" d="M-7 207v104h1010v-104h-1010z" />
<glyph unicode="&#x2016;" horiz-adv-x="584" d="M142 -200v929h100v-929h-100zM342 -200v929h100v-929h-100z" />
<glyph unicode="&#x2018;" horiz-adv-x="278" d="M67 469v109q0 79 45 117q37 31 90 34v-46q-83 -15 -80 -89h80v-125h-135z" />
<glyph unicode="&#x2019;" horiz-adv-x="278" d="M66 469v46q83 15 80 89h-80v125h135v-109q0 -79 -45 -117q-37 -31 -90 -34z" />
<glyph unicode="&#x201a;" horiz-adv-x="278" d="M66 0v125h135v-109q0 -79 -45 -117q-37 -31 -90 -34v46q83 15 80 89h-80z" />
<glyph unicode="&#x201c;" horiz-adv-x="500" d="M71 469v109q0 79 45 117q37 31 90 34v-46q-83 -15 -80 -89h80v-125h-135zM298 469v109q0 79 45 117q37 31 90 34v-46q-83 -15 -80 -89h80v-125h-135z" />
<glyph unicode="&#x201d;" horiz-adv-x="500" d="M73 469v46q83 15 80 89h-80v125h135v-109q0 -79 -45 -117q-37 -31 -90 -34zM305 469v46q83 15 80 89h-80v125h135v-109q0 -79 -45 -117q-37 -31 -90 -34z" />
<glyph unicode="&#x201e;" horiz-adv-x="500" d="M72 0v125h135v-109q0 -79 -45 -117q-37 -31 -90 -34v46q83 15 80 89h-80zM297 0v125h135v-109q0 -79 -45 -117q-37 -31 -90 -34v46q83 15 80 89h-80z" />
<glyph unicode="&#x2020;" d="M31 369v116h179v224h134v-224h179v-116h-179v-563h-134v563h-179z" />
<glyph unicode="&#x2021;" d="M28 30v116h179v223h-179v116h179v224h134v-224h179v-116h-179v-223h179v-116h-179v-224h-134v224h-179z" />
<glyph unicode="&#x2022;" horiz-adv-x="350" d="M50 300q0 52 37 88.5t90 36.5q50 0 86.5 -37t36.5 -88q0 -52 -36.5 -88.5t-88.5 -36.5t-88.5 36.5t-36.5 88.5z" />
<glyph unicode="&#x2026;" horiz-adv-x="1000" d="M92 0v146h150v-146h-150zM425 0v146h150v-146h-150zM758 0v146h150v-146h-150z" />
<glyph unicode="&#x202f;" horiz-adv-x="225" />
<glyph unicode="&#x2030;" horiz-adv-x="1000" d="M11 591q0 61 44 104.5t105 43.5q63 0 106.5 -43.5t43.5 -106.5q0 -59 -44 -102.5t-105 -43.5q-62 0 -106 43.5t-44 104.5zM56 -21l420 759h97l-421 -759h-96zM90 590q0 -29 20.5 -49.5t49.5 -20.5t50 20.5t21 48.5q0 29 -20.5 49.5t-50.5 20.5q-29 0 -49.5 -20.5 t-20.5 -48.5zM322 126q0 61 44 104.5t105 43.5q63 0 106.5 -43.5t43.5 -106.5q0 -60 -44 -103t-105 -43q-62 0 -106 43.5t-44 104.5zM401 125q0 -29 21 -49.5t50 -20.5t49.5 20.5t20.5 48.5q0 29 -20.5 49.5t-50.5 20.5q-29 0 -49.5 -20.5t-20.5 -48.5zM691 126 q0 61 44 104.5t105 43.5q63 0 106.5 -43.5t43.5 -106.5q0 -60 -44 -103t-105 -43q-62 0 -106 43.5t-44 104.5zM770 125q0 -29 21 -49.5t50 -20.5t49.5 20.5t20.5 48.5q0 29 -20.5 49.5t-50.5 20.5q-29 0 -49.5 -20.5t-20.5 -48.5z" />
<glyph unicode="&#x2031;" horiz-adv-x="1369" d="M11 591q0 61 44 104.5t105 43.5q63 0 106.5 -43.5t43.5 -106.5q0 -59 -44 -102.5t-105 -43.5q-62 0 -106 43.5t-44 104.5zM56 -21l420 759h97l-421 -759h-96zM90 590q0 -29 20.5 -49.5t49.5 -20.5t50 20.5t21 48.5q0 29 -20.5 49.5t-50.5 20.5q-29 0 -49.5 -20.5 t-20.5 -48.5zM322 126q0 61 44 104.5t105 43.5q63 0 106.5 -43.5t43.5 -106.5q0 -60 -44 -103t-105 -43q-62 0 -106 43.5t-44 104.5zM401 125q0 -29 21 -49.5t50 -20.5t49.5 20.5t20.5 48.5q0 29 -20.5 49.5t-50.5 20.5q-29 0 -49.5 -20.5t-20.5 -48.5zM691 126 q0 61 44 104.5t105 43.5q63 0 106.5 -43.5t43.5 -106.5q0 -60 -44 -103t-105 -43q-62 0 -106 43.5t-44 104.5zM770 125q0 -29 21 -49.5t50 -20.5t49.5 20.5t20.5 48.5q0 29 -20.5 49.5t-50.5 20.5q-29 0 -49.5 -20.5t-20.5 -48.5zM1060 126q0 61 44 104.5t105 43.5 q63 0 106.5 -43.5t43.5 -106.5q0 -60 -44 -103t-105 -43q-62 0 -106 43.5t-44 104.5zM1139 125q0 -29 21 -49.5t50 -20.5t49.5 20.5t20.5 48.5q0 29 -20.5 49.5t-50.5 20.5q-29 0 -49.5 -20.5t-20.5 -48.5z" />
<glyph unicode="&#x2039;" horiz-adv-x="333" d="M83 218v114l167 149v-117l-101 -89l101 -89v-114z" />
<glyph unicode="&#x203a;" horiz-adv-x="333" d="M80 72v117l101 89l-101 89v114l167 -146v-115z" />
<glyph unicode="&#x203b;" horiz-adv-x="584" d="M9 250q0 31 22 53t53 22t53 -22t22 -53t-22 -53t-53 -22t-53 22t-22 53zM93 121l128 129l-128 129l70 70l129 -128l129 128l70 -70l-128 -129l128 -129l-70 -70l-129 128l-129 -128zM217 42q0 31 22 53t53 22t53 -22t22 -53t-22 -53t-53 -22t-53 22t-22 53zM217 458 q0 31 22 53t53 22t53 -22t22 -53t-22 -53t-53 -22t-53 22t-22 53zM425 250q0 31 22 53t53 22t53 -22t22 -53t-22 -53t-53 -22t-53 22t-22 53z" />
<glyph unicode="&#x203d;" horiz-adv-x="611" d="M60 481q0 216 171 255v50h150v-52q78 -20 124.5 -79t46.5 -141q0 -63 -25 -104t-95 -90q-45 -32 -56 -51t-11 -68h-124v14q0 62 24 102l-34 259v17q-35 -40 -35 -101v-11h-136zM231 0v146h150v-146h-150zM359 415q32 28 42 46.5t10 49.5q0 47 -30 82v-17z" />
<glyph unicode="&#x2044;" horiz-adv-x="167" d="M-173 -25l423 740h87l-423 -740h-87z" />
<glyph unicode="&#x2045;" horiz-adv-x="400" d="M60 -15v158q0 74 66 122q-66 46 -66 121v159q0 86 83 132t197 46v-114q-140 0 -140 -64v-159q0 -38 38.5 -51t101.5 -13v-114q-140 0 -140 -65v-158q0 -65 140 -65v-114q-73 0 -134.5 18.5t-103.5 60t-42 100.5z" />
<glyph unicode="&#x2046;" horiz-adv-x="400" d="M60 -80q140 0 140 65v158q0 65 -140 65v114q40 0 67 3.5t50 18.5t23 42v159q0 64 -140 64v114q114 0 197 -46t83 -132v-159q0 -74 -66 -122q66 -46 66 -121v-158q0 -59 -42 -100.5t-103.5 -60t-134.5 -18.5v114z" />
<glyph unicode="&#x2052;" d="M37 0l356 729h126l-356 -729h-126zM38 578q0 39 27.5 66.5t66.5 27.5t66.5 -27.5t27.5 -66.5t-27.5 -66.5t-66.5 -27.5t-66.5 27.5t-27.5 66.5zM330 151q0 39 27.5 66.5t66.5 27.5t66.5 -27.5t27.5 -66.5t-27.5 -66.5t-66.5 -27.5t-66.5 27.5t-27.5 66.5z" />
<glyph unicode="&#x205f;" horiz-adv-x="281" />
<glyph unicode="&#x20a1;" horiz-adv-x="722" d="M44 364q0 161 75 259t208 115v74h68v-71q121 -5 199.5 -73t87.5 -186h-143q-29 125 -144 131v-498q132 8 144 134h146q-7 -119 -84.5 -187t-205.5 -74v-71h-68v74q-132 15 -207.5 114t-75.5 259zM194 362q0 -100 34.5 -162t98.5 -79v484q-64 -19 -98.5 -81.5 t-34.5 -161.5z" />
<glyph unicode="&#x20a4;" d="M31 80q63 43 86.5 75t23.5 76q0 16 -5 32h-105v55h84q-3 6 -10.5 23t-12.5 28h-61v55h31q-24 47 -24 92q0 85 65.5 142t172.5 57q117 0 176.5 -55.5t69.5 -175.5h-132l-1 11q-14 109 -112 109q-43 0 -70.5 -25.5t-27.5 -65.5q0 -22 27 -77l2 -4t2 -4.5t2 -3.5h163v-55 h-140l17 -51h123v-55h-107v-6q0 -44 -26 -82.5t-90 -88.5q78 37 112 37q2 0 54 -10.5t73 -10.5q47 0 105 29l41 -109q-76 -45 -145 -45q-17 0 -98 16t-99 16q-49 0 -109 -30z" />
<glyph unicode="&#x20a6;" horiz-adv-x="722" d="M-7 270v80h75v102h-75v80h75v197h154l115 -197h174v197h150v-197h75v-80h-75v-102h75v-80h-75v-270h-150l-157 270h-136v-270h-150v270h-75zM218 350h90l-60 102h-30v-102zM383 452l60 -102h68v102h-128zM489 270l22 -37v37h-22z" />
<glyph unicode="&#x20a9;" horiz-adv-x="944" d="M13 270v80h107l-29 102h-78v80h56l-56 197h159l41 -197h144l41 197h148l43 -197h145l39 197h159l-55 -197h55v-80h-77l-28 -102h105v-80h-127l-75 -270h-135l-58 270h-127l-56 -270h-135l-76 270h-130zM229 452l21 -102h70l21 102h-112zM267 270l18 -87l18 87h-36z M427 350h93l-22 102h-49zM465 532h16l-8 37zM606 452l22 -102h69l21 102h-112zM645 270l19 -88l18 88h-37z" />
<glyph unicode="&#x20ab;" horiz-adv-x="610" d="M60 0h489v-114h-489v114zM60 338q0 104 55 171t138 67q84 0 126 -67v107h-113v57h113v56h119v-56h51v-57h-51v-507h-119v59q-43 -66 -126 -66t-138 66.5t-55 169.5zM179 338q0 -63 27.5 -100t72.5 -37t72.5 36.5t27.5 98.5q0 65 -27.5 103t-72.5 38t-72.5 -38t-27.5 -101 z" />
<glyph unicode="&#x20ac;" d="M6 250l24 68h40q-2 14 -2 35t1 33h-63l24 68h48q28 128 103 199t183 71q52 0 90 -14t92 -54l-45 -129q-84 67 -146 67q-94 0 -131 -140h251l-24 -68h-240q-3 -24 -3 -41t2 -27h217l-25 -68h-181q37 -128 134 -128q30 0 58.5 10t87.5 42l44 -122q-50 -31 -105 -46t-91 -15 q-106 0 -176.5 69t-94.5 190h-72z" />
<glyph unicode="&#x20b1;" horiz-adv-x="667" d="M6 146v68h70v515h322q114 0 174.5 -58t60.5 -168q0 -111 -60 -177t-160 -66h-187v-46h108v-68h-108v-146h-150v146h-70zM226 385h140q117 0 117 109q0 56 -28.5 83t-88.5 27h-140v-219z" />
<glyph unicode="&#x2103;" horiz-adv-x="1164" d="M57 569q0 59 42 101t101 42t101 -42t42 -101t-42 -101t-101 -42t-101 42t-42 101zM113 569q0 -36 25.5 -61.5t61.5 -25.5t61.5 25.5t25.5 61.5t-25.5 61.5t-61.5 25.5t-61.5 -25.5t-25.5 -61.5zM403 364q0 176 89.5 276.5t244.5 100.5q127 0 211 -68t93 -191h-143 q-31 131 -156 131q-89 0 -139 -65.5t-50 -185.5q0 -119 48.5 -183.5t135.5 -64.5q148 0 161 135h146q-7 -124 -90.5 -192.5t-220.5 -68.5q-153 0 -241.5 100.5t-88.5 275.5z" />
<glyph unicode="&#x2113;" horiz-adv-x="503" d="M35 182q20 20 60 55.5t48 42.5v303q0 61 44.5 103.5t106.5 42.5t106.5 -42.5t44.5 -103.5q0 -84 -42.5 -153.5t-119.5 -140.5v-167q0 -32 60 -32q32 0 59 19l66 -36q-25 -44 -68.5 -70t-93.5 -26q-67 0 -115 41.5t-48 103.5v45l-49 -45zM283 429q49 75 49 154 q0 13 -6.5 23t-17.5 10t-18 -9.5t-7 -23.5v-154z" />
<glyph unicode="&#x2116;" horiz-adv-x="1082" d="M68 0v729h154l289 -496v496h150v-729h-150l-293 504v-504h-150zM723 227v64h303v-64h-303zM723 535q0 62 44.5 106.5t107.5 44.5q62 0 106.5 -44.5t44.5 -106.5q0 -64 -44.5 -108t-108.5 -44q-61 0 -105.5 45t-44.5 107zM786 534q0 -35 26 -61.5t61 -26.5q38 0 64 26 t26 63q0 36 -26 62t-62 26q-37 0 -63 -26t-26 -63z" />
<glyph unicode="&#x2117;" horiz-adv-x="737" d="M21 340q0 144 102 246.5t246 102.5t246.5 -102.5t102.5 -246.5t-102.5 -246t-246.5 -102t-246 102t-102 246zM80 340q0 -120 84.5 -204.5t204.5 -84.5t205 84.5t85 204.5t-85 205t-205 85t-204.5 -85t-84.5 -205zM234 145v389h189q68 0 104 -32t36 -92t-35.5 -96 t-96.5 -36h-97v-133h-100zM334 358h71q58 0 58 48t-58 48h-71v-96z" />
<glyph unicode="&#x2118;" horiz-adv-x="704" d="M60 302q0 144 135 283l73 -72q-68 -69 -68 -211v-3q51 117 110.5 184.5t135.5 67.5q90 0 144 -82t54 -194q0 -110 -54 -190.5t-144 -80.5q-53 0 -122 43l52 83q19 -12 70 -12q14 0 24.5 6t16.5 19t9.5 25.5t5 34t2 34.5t0.5 38t-0.5 38.5t-2 36t-5 35t-9.5 26.5t-16.5 20 t-24.5 6q-13 0 -27.5 -14.5t-31 -44t-31 -59t-32.5 -76t-29.5 -76t-28.5 -77.5q38 -96 38 -215q0 -43 -39 -69t-91 -26q-42 0 -72 27.5t-30 67.5q0 83 47 211q-59 131 -59 216zM170 -125q0 -15 4 -15q32 0 32 15q0 9 -21 62q-15 -32 -15 -62z" />
<glyph unicode="&#x211e;" horiz-adv-x="722" d="M80 0v729h391q94 0 145 -54.5t51 -142.5q0 -132 -123 -180q54 -23 72 -45t24 -84l79 49l36 -58l-111 -69l1 -58q0 -42 32 -60v-27h-161q-15 27 -19 53l-41 -25l-36 58l73 45l2 71q0 46 -22 66.5t-71 20.5h-172v-289h-150zM230 414h181q61 0 83.5 23t22.5 74q0 49 -23 71 t-83 22h-181v-190z" />
<glyph unicode="&#x2120;" horiz-adv-x="1027" d="M61 462h106q-4 -31 20 -47.5t70 -16.5q81 0 81 41q0 20 -16.5 29t-59.5 16l-62 11q-72 13 -102 38.5t-30 74.5q0 60 46.5 93.5t130.5 33.5q89 0 137 -36.5t45 -104.5h-103q4 30 -18.5 45.5t-65.5 15.5q-31 0 -49.5 -10.5t-18.5 -29.5q0 -18 16 -26t61 -16l69 -12 q66 -11 95.5 -37t29.5 -75q0 -62 -50 -97t-141 -35q-92 0 -143.5 38.5t-47.5 106.5zM519 324v405h151l74 -283l71 283h152v-405h-108v244l-63 -244h-105l-64 245v-245h-108z" />
<glyph unicode="&#x2122;" horiz-adv-x="1000" d="M60 646v83h372v-83h-130v-322h-108v322h-134zM491 324v405h151l74 -283l71 283h152v-405h-108v244l-63 -244h-105l-64 245v-245h-108z" />
<glyph unicode="&#x2126;" horiz-adv-x="770" d="M35 0v125h142v64q-107 94 -107 237q0 130 92.5 222.5t222.5 92.5t222.5 -92.5t92.5 -222.5q0 -143 -107 -237v-64h142v-125h-292v247q49 21 78 70t29 109q0 77 -47.5 133.5t-117.5 56.5t-117.5 -56.5t-47.5 -133.5q0 -60 29 -109t78 -70v-247h-292z" />
<glyph unicode="&#x2127;" horiz-adv-x="770" d="M35 605v125h292v-247q-49 -21 -78 -70t-29 -109q0 -77 47.5 -133.5t117.5 -56.5t117.5 56.5t47.5 133.5q0 60 -29 109t-78 70v247h292v-125h-142v-64q107 -94 107 -237q0 -130 -92.5 -222.5t-222.5 -92.5t-222.5 92.5t-92.5 222.5q0 143 107 237v64h-142z" />
<glyph unicode="&#x212e;" horiz-adv-x="849" d="M60 328q0 139 108 233.5t257 94.5t256.5 -94.5t107.5 -233.5v-10l-587 1q-9 0 -9 -9v-182q0 -2 2 -6q93 -103 230 -103q141 0 233 108h55q-51 -60 -127 -93.5t-161 -33.5q-149 0 -257 94.5t-108 233.5zM193 347q0 -9 9 -9h445q9 0 9 9v181q0 2 -2 6q-44 49 -104 76 t-125 27q-137 0 -230 -103q-2 -4 -2 -6v-181z" />
<glyph unicode="&#x2190;" horiz-adv-x="1000" d="M101 250l157 251l84 -52l-92 -149h630v-100h-630l92 -149l-84 -52z" />
<glyph unicode="&#x2191;" horiz-adv-x="743" d="M120 492l251 157l251 -157l-52 -84l-149 92v-630h-100v630l-149 -92z" />
<glyph unicode="&#x2192;" horiz-adv-x="1000" d="M120 200v100h630l-92 149l84 52l157 -251l-157 -251l-84 52l92 149h-630z" />
<glyph unicode="&#x2193;" horiz-adv-x="743" d="M120 8l52 84l149 -92v630h100v-630l149 92l52 -84l-251 -157z" />
<glyph unicode="&#x2202;" horiz-adv-x="490" d="M23 180q0 94 54 162.5t137 68.5q58 0 113 -23q-1 55 -6 96.5t-18.5 82t-40.5 62.5t-66 22q-29 0 -65 -42l-75 66q44 51 140 51q81 0 144 -52t95 -133.5t32 -175.5t-32 -176t-95 -134t-144 -52q-72 0 -122.5 52t-50.5 125zM163 180q0 -24 0.5 -36.5t3.5 -30.5t10 -26.5 t19 -8.5q36 0 61.5 18t39 52t20 71.5t8.5 85.5q-51 31 -111 31q-18 0 -29.5 -13t-15.5 -40t-5 -47t-1 -56z" />
<glyph unicode="&#x2211;" horiz-adv-x="711" d="M90 44l147 288l-147 288v140h531v-140h-374l147 -288l-147 -288h374v-140h-531v140z" />
<glyph unicode="&#x2212;" horiz-adv-x="584" d="M60 200v100h464v-100h-464z" />
<glyph unicode="&#x2213;" horiz-adv-x="584" d="M60 100v100h182v110h100v-110h182v-100h-182v-182h-100v182h-182zM60 400v100h464v-100h-464z" />
<glyph unicode="&#x2215;" horiz-adv-x="0" d="M-255 -25l423 740h87l-423 -740h-87z" />
<glyph unicode="&#x2217;" horiz-adv-x="521" d="M60 264l26 83l131 -43v139h86v-139l131 43l26 -84l-130 -42l80 -113l-70 -51l-80 113l-80 -113l-70 51l80 113z" />
<glyph unicode="&#x221a;" horiz-adv-x="542" d="M37 461l97 78l172 -369l139 716l74 -14l-183 -942l-229 491l-24 -18z" />
</font>
</defs>
</svg>
