<?xml version="1.0" standalone="no"?>
<!DOCTYPE svg PUBLIC "-//W3C//DTD SVG 1.1//EN" "http://www.w3.org/Graphics/SVG/1.1/DTD/svg11.dtd" >
<svg xmlns="http://www.w3.org/2000/svg">
<metadata></metadata>
<defs>
<font id="texgyreherositalic" horiz-adv-x="556" >
<font-face units-per-em="1000" ascent="784" descent="-216" />
<missing-glyph horiz-adv-x="278" />
<glyph unicode="IJ" horiz-adv-x="724" d="M18 0l155 729h94l-155 -729h-94zM228 127q0 23 6 48l13 59h94l-13 -61q-4 -16 -4 -34q0 -34 25 -55t65 -21q56 0 91.5 37t53.5 121l108 508h94l-115 -542q-21 -98 -87 -151.5t-165 -53.5q-78 0 -122 41.5t-44 103.5z" />
<glyph unicode="ij" horiz-adv-x="442" d="M18 0l111 524h84l-111 -524h-84zM106 -215l15 71q18 -2 25 -2q38 0 53.5 14t24.5 56l127 600h84l-134 -633q-14 -62 -52 -85.5t-124 -23.5q-9 0 -19 3zM135 604l22 103h104l-22 -103h-104zM357 604l22 103h104l-22 -103h-104z" />
<glyph unicode="fk" horiz-adv-x="788" d="M39 0l97 457h-70l14 67h70l19 89q12 56 51.5 87.5t97.5 31.5q22 0 45 -5l-15 -69q-14 2 -27 2q-32 0 -48 -14.5t-24 -52.5l-15 -69h86l-14 -67h-86l-97 -457h-84zM296 0l155 729h84l-90 -423l269 218h108l-222 -181l140 -343h-96l-114 291l-107 -88l-43 -203h-84z" />
<glyph unicode="ff" horiz-adv-x="534" d="M39 0l97 457h-70l14 67h70l19 89q12 56 51.5 87.5t97.5 31.5q22 0 45 -5l-15 -69q-14 2 -27 2q-32 0 -48 -14.5t-24 -52.5l-15 -69h173l19 89q12 56 51.5 87.5t97.5 31.5q23 0 45 -5l-15 -69q-14 2 -27 2q-32 0 -48 -14.5t-24 -52.5l-15 -69h86l-14 -67h-86l-97 -457h-84 l97 457h-173l-97 -457h-84z" />
<glyph unicode="fi" horiz-adv-x="500" d="M39 0l97 457h-70l14 67h70l19 89q12 56 51.5 87.5t97.5 31.5q22 0 45 -5l-15 -69q-14 2 -27 2q-32 0 -48 -14.5t-24 -52.5l-15 -69h86l-14 -67h-86l-97 -457h-84zM296 0l111 524h84l-111 -524h-84zM413 604l22 103h104l-22 -103h-104z" />
<glyph unicode="fl" horiz-adv-x="500" d="M39 0l97 457h-70l14 67h70l19 89q12 56 51.5 87.5t97.5 31.5q22 0 45 -5l-15 -69q-14 2 -27 2q-32 0 -48 -14.5t-24 -52.5l-15 -69h86l-14 -67h-86l-97 -457h-84zM296 0l155 729h84l-155 -729h-84z" />
<glyph unicode="ffi" horiz-adv-x="757" d="M39 0l97 457h-70l14 67h70l19 89q12 56 51.5 87.5t97.5 31.5q22 0 45 -5l-15 -69q-14 2 -27 2q-32 0 -48 -14.5t-24 -52.5l-15 -69h173l19 89q12 56 51.5 87.5t97.5 31.5q23 0 45 -5l-15 -69q-14 2 -27 2q-32 0 -48 -14.5t-24 -52.5l-15 -69h86l-14 -67h-86l-97 -457h-84 l97 457h-173l-97 -457h-84zM553 0l111 524h84l-111 -524h-84zM670 604l22 103h104l-22 -103h-104z" />
<glyph unicode="ffl" horiz-adv-x="757" d="M39 0l97 457h-70l14 67h70l19 89q12 56 51.5 87.5t97.5 31.5q22 0 45 -5l-15 -69q-14 2 -27 2q-32 0 -48 -14.5t-24 -52.5l-15 -69h173l19 89q12 56 51.5 87.5t97.5 31.5q23 0 45 -5l-15 -69q-14 2 -27 2q-32 0 -48 -14.5t-24 -52.5l-15 -69h86l-14 -67h-86l-97 -457h-84 l97 457h-173l-97 -457h-84zM553 0l155 729h84l-155 -729h-84z" />
<glyph unicode=" "  horiz-adv-x="278" />
<glyph unicode="&#x09;" horiz-adv-x="278" />
<glyph unicode="&#xa0;" horiz-adv-x="278" />
<glyph unicode="!" horiz-adv-x="278" d="M47 0l22 103h84l-22 -103h-84zM105 168l23 211l74 350h84l-74 -350l-67 -211h-40z" />
<glyph unicode="&#x22;" horiz-adv-x="355" d="M128 464v134l24 111h94l-24 -111l-55 -134h-39zM287 464v134l24 111h94l-24 -111l-55 -134h-39z" />
<glyph unicode="#" d="M4 191l14 64h112l73 184h-109l13 64h121l77 194h76l-76 -194h124l77 194h76l-77 -194h94l-14 -64h-105l-73 -184h107l-14 -64h-118l-83 -211h-76l83 211h-125l-83 -211h-76l83 211h-101zM206 255h125l73 184h-124z" />
<glyph unicode="$" d="M19 134q0 29 8 74h79l-1 -11q-3 -29 -3 -47q0 -41 23 -64.5t78 -39.5l58 272q-90 31 -114 52q-45 39 -45 99q0 103 65.5 171t178.5 76l11 54h59l-11 -54q75 -4 116.5 -43.5t41.5 -107.5q0 -22 -6 -46h-79l1 15q1 9 1 21q0 39 -24.5 64t-65.5 27l-53 -249q90 -28 121 -48 q57 -38 57 -106q0 -114 -73 -188.5t-194 -77.5l-22 -103h-59l22 103q-88 14 -129 51.5t-41 105.5zM185 501q0 -37 21.5 -58.5t73.5 -37.5l51 240q-63 -4 -104.5 -46t-41.5 -98zM262 46q79 6 122 49t43 116q0 36 -24.5 58t-84.5 40z" />
<glyph unicode="%" horiz-adv-x="889" d="M84 478q0 79 65 141.5t146 62.5q58 0 98 -37.5t40 -92.5q0 -81 -64.5 -143.5t-148.5 -62.5q-59 0 -97.5 37.5t-38.5 94.5zM154 494q0 -35 23.5 -58.5t58.5 -23.5q49 0 88 37.5t39 84.5q0 37 -23 59.5t-61 22.5q-48 0 -86.5 -37.5t-38.5 -84.5zM159 -20l550 729h66 l-550 -729h-66zM496 116q0 79 65 141.5t146 62.5q58 0 98 -37.5t40 -92.5q0 -81 -64.5 -143.5t-148.5 -62.5q-59 0 -97.5 37.5t-38.5 94.5zM566 132q0 -35 23.5 -58.5t58.5 -23.5q49 0 88 37.5t39 84.5q0 37 -23 59.5t-61 22.5q-48 0 -86.5 -37.5t-38.5 -84.5z" />
<glyph unicode="&#x26;" horiz-adv-x="667" d="M33 128q0 83 48 141.5t157 120.5q-7 18 -9 23l-18 42q-14 34 -14 68q0 73 63 129.5t145 56.5q61 0 97 -33t36 -89q0 -65 -44 -116t-137 -93l98 -163q43 50 60 119h79q-20 -99 -100 -183l90 -151h-106l-46 78q-68 -56 -118.5 -78.5t-110.5 -22.5q-79 0 -124.5 40.5 t-45.5 110.5zM121 159q0 -49 29.5 -77t79.5 -28q69 0 168 83l-119 199q-84 -45 -121 -86.5t-37 -90.5zM280 533q0 -21 8 -38.5t39 -60.5q69 35 98.5 67t29.5 73q0 30 -18.5 47.5t-50.5 17.5q-44 0 -75 -31t-31 -75z" />
<glyph unicode="'" horiz-adv-x="191" d="M124 464v134l24 111h94l-24 -111l-55 -134h-39z" />
<glyph unicode="(" horiz-adv-x="333" d="M63 116q0 152 73.5 314t204.5 299h55q-255 -313 -255 -650q0 -149 55 -292h-55q-78 137 -78 329z" />
<glyph unicode=")" horiz-adv-x="333" d="M-57 -213q124 152 189.5 317t65.5 327q0 158 -55 298h55q35 -62 56 -149.5t21 -172.5q0 -156 -73.5 -320t-203.5 -300h-55z" />
<glyph unicode="*" horiz-adv-x="389" d="M119 598l30 59l100 -40l20 112h62l-29 -112l110 38l9 -62l-113 -27l53 -91l-58 -37l-44 96l-81 -95l-47 40l92 88z" />
<glyph unicode="+" horiz-adv-x="584" d="M68 216v68h190v190h68v-190h190v-68h-190v-190h-68v190h-190z" />
<glyph unicode="," horiz-adv-x="278" d="M5 -147l8 38q36 0 54.5 24t28.5 85h-59l22 103h105l-26 -119q-14 -62 -47 -97t-80 -34h-6z" />
<glyph unicode="-" horiz-adv-x="333" d="M47 240l15 72h239l-15 -72h-239z" />
<glyph unicode="." horiz-adv-x="278" d="M37 0l22 103h104l-22 -103h-104z" />
<glyph unicode="/" horiz-adv-x="278" d="M-62 -20l391 749h55l-391 -749h-55z" />
<glyph unicode="0" d="M50 178q0 108 31.5 224t78.5 185q83 122 208 122q85 0 132.5 -51.5t47.5 -143.5q0 -108 -31 -223t-79 -184q-84 -122 -210 -122q-80 0 -129 50t-49 143zM138 189q0 -59 27 -93t74 -34q49 0 85.5 30t66.5 94q28 60 48.5 153.5t20.5 164.5q0 61 -27.5 94.5t-76.5 33.5 q-94 0 -150 -123q-28 -62 -48 -155.5t-20 -164.5z" />
<glyph unicode="1" d="M158 505l13 63q108 15 143.5 37.5t75.5 103.5h58l-151 -709h-88l108 505h-159z" />
<glyph unicode="2" d="M-16 0q33 121 83 179.5t180 127.5l104 52q62 31 96.5 74.5t34.5 91.5t-32 77.5t-84 29.5q-71 0 -114.5 -41t-66.5 -128h-88q29 127 97 186.5t184 59.5q89 0 140.5 -47t51.5 -125q0 -150 -198 -250l-112 -57q-140 -71 -163 -143h377l-19 -87h-471z" />
<glyph unicode="3" d="M23 152q0 24 5 62h88l-2 -13q-3 -16 -3 -39q0 -46 32.5 -73t85.5 -27q84 0 136.5 48.5t52.5 129.5q0 43 -35 67t-97 24q-24 0 -45 -2l16 75h18q98 0 142 35.5t44 105.5q0 40 -28.5 63.5t-77.5 23.5q-67 0 -108.5 -36t-59.5 -116h-88q32 122 98 175.5t170 53.5 q82 0 132 -40t50 -106t-28.5 -111t-92.5 -81q42 -21 60 -48t18 -70q0 -112 -80.5 -190t-209.5 -78q-94 0 -143.5 43t-49.5 124z" />
<glyph unicode="4" d="M13 170l20 92l416 447h66l-98 -461h106l-17 -78h-106l-36 -170h-88l36 170h-299zM108 248h221l65 308z" />
<glyph unicode="5" d="M22 160v22h88q4 -120 125 -120q85 0 139.5 57.5t54.5 149.5q0 58 -33 89.5t-93 31.5q-44 0 -73.5 -13.5t-75.5 -53.5h-80l132 371h370l-18 -87h-300l-67 -183q70 43 140 43q85 0 135.5 -47t50.5 -125q0 -131 -87.5 -220.5t-206.5 -89.5q-91 0 -146 43.5t-55 131.5z" />
<glyph unicode="6" d="M44 171q0 94 30.5 207.5t73.5 181.5q95 149 237 149q80 0 128 -43t48 -115q0 -16 -1 -27h-88l1 5q-2 47 -28.5 75t-73.5 28q-76 0 -133 -73.5t-79 -200.5q84 84 179 84q80 0 129 -47t49 -124q0 -116 -83.5 -201t-194.5 -85q-89 0 -141.5 50t-52.5 136zM132 178 q0 -53 33.5 -84.5t85.5 -31.5q75 0 126 55.5t51 138.5q0 49 -31.5 79t-82.5 30q-77 0 -129.5 -54t-52.5 -133z" />
<glyph unicode="7" d="M87 0q66 154 155.5 282.5t264.5 324.5h-383l19 87h475l-17 -81q-131 -128 -249 -301t-167 -312h-98z" />
<glyph unicode="8" d="M25 149q0 152 158 224l-12 10q-31 25 -41.5 44.5t-10.5 52.5q0 95 75 162t177 67q83 0 133 -41t50 -107q0 -56 -25 -98t-86 -80l-16 -10q84 -48 84 -130q0 -105 -84 -181.5t-194 -76.5q-95 0 -151.5 44t-56.5 120zM113 164q0 -47 35 -74.5t91 -27.5q79 0 131.5 47.5 t52.5 120.5q0 49 -35 76.5t-94 27.5q-76 0 -128.5 -49t-52.5 -121zM207 491q0 -39 28.5 -61t78.5 -22q66 0 109 39.5t43 97.5q0 41 -29 64t-80 23q-65 0 -107.5 -40t-42.5 -101z" />
<glyph unicode="9" d="M35 143q0 16 1 27h87q0 -52 25.5 -80t73.5 -28q151 0 211 270q-57 -48 -91 -64t-87 -16q-81 0 -129 47t-48 126q0 108 78 196t198 88q90 0 142.5 -51.5t52.5 -132.5q0 -102 -40 -251q-36 -134 -116.5 -211.5t-182.5 -77.5q-80 0 -127.5 43t-47.5 115zM165 440 q0 -53 30 -82t84 -29q76 0 129.5 55t53.5 134q0 50 -34.5 82t-85.5 32q-73 0 -125 -56t-52 -136z" />
<glyph unicode=":" horiz-adv-x="278" d="M40 0l22 103h104l-22 -103h-104zM130 421l14 103h112l-22 -103h-104z" />
<glyph unicode=";" horiz-adv-x="278" d="M5 -147l8 38q36 0 54.5 24t28.5 85h-59l22 103h105l-26 -119q-14 -62 -47 -97t-80 -34h-6zM126 421l22 103h104l-22 -103h-104z" />
<glyph unicode="&#x3c;" horiz-adv-x="584" d="M114 224v52l334 293v-90l-260 -229l260 -229v-90z" />
<glyph unicode="=" horiz-adv-x="584" d="M68 125v68h448v-68h-448zM68 307v68h448v-68h-448z" />
<glyph unicode="&#x3e;" horiz-adv-x="584" d="M114 21l260 229l-260 229v90l334 -293v-52l-334 -293v90z" />
<glyph unicode="?" d="M128 507q47 234 265 234q85 0 133 -43t48 -108q0 -58 -34 -110.5t-111 -109.5q-56 -42 -75 -64.5t-29 -59.5l-10 -47h-90l12 55q10 45 32 71.5t104 91.5q58 46 81.5 82t23.5 79q0 38 -30 62t-77 24q-66 0 -103.5 -37.5t-54.5 -119.5h-85zM183 0l22 103h90l-22 -103h-90z " />
<glyph unicode="@" horiz-adv-x="1015" d="M30 182q0 137 81 266t221.5 211t298.5 82q154 0 254.5 -87t100.5 -220q0 -158 -102 -267.5t-238 -109.5q-48 0 -73.5 16.5t-25.5 46.5v14q-6 -4 -19.5 -14t-18 -13t-15 -10.5t-15 -9.5t-13 -7.5t-13.5 -7t-13 -4.5t-14.5 -3.5t-14 -1.5t-16.5 -1q-61 0 -98 38t-37 101 q0 74 47.5 150t121.5 124.5t147 48.5q91 0 109 -89l36 66h82l-149 -280q-24 -45 -24 -58q0 -14 12.5 -25t28.5 -11q53 0 107.5 43.5t89.5 111t35 132.5q0 108 -83 179t-210 71q-121 0 -235.5 -67.5t-185.5 -176.5t-71 -224q0 -117 85 -189t222 -72q82 0 204 32l13 -67 q-115 -42 -245 -42q-150 0 -258.5 90.5t-108.5 233.5zM352 210q0 -37 21.5 -61.5t54.5 -24.5q46 0 95 48.5t79 111t30 106.5q0 65 -68 65q-74 0 -143 -82.5t-69 -162.5z" />
<glyph unicode="A" horiz-adv-x="667" d="M-33 0l415 729h120l101 -729h-102l-27 219h-285l-123 -219h-99zM233 297h231l-40 333z" />
<glyph unicode="B" horiz-adv-x="667" d="M29 0l155 729h296q84 0 132.5 -39.5t48.5 -105.5q0 -67 -35.5 -119t-100.5 -81q53 -23 75 -51.5t22 -74.5q0 -110 -77.5 -184t-185.5 -74h-330zM140 82h227q70 0 114.5 45t44.5 115q0 91 -106 91h-226zM211 415h180q86 0 130 40t44 106q0 86 -124 86h-180z" />
<glyph unicode="C" horiz-adv-x="722" d="M63 247q0 94 34.5 191t93.5 168q117 141 292 141q106 0 168.5 -62t68.5 -182h-96q-12 163 -158 163q-136 0 -226 -133q-81 -121 -81 -268q0 -91 47.5 -146.5t125.5 -55.5q94 0 150 46.5t105 156.5h98q-64 -151 -149.5 -217.5t-217.5 -66.5q-119 0 -187 72t-68 193z" />
<glyph unicode="D" horiz-adv-x="722" d="M39 0l155 729h282q109 0 171 -67.5t62 -173.5q0 -206 -112.5 -347t-275.5 -141h-282zM150 82h172q129 0 210 112.5t81 285.5q0 78 -45.5 122.5t-125.5 44.5h-171z" />
<glyph unicode="E" horiz-adv-x="667" d="M40 0l155 729h506l-17 -82h-412l-50 -233h396l-18 -82h-395l-54 -250h429l-17 -82h-523z" />
<glyph unicode="F" horiz-adv-x="611" d="M40 0l155 729h489l-17 -82h-395l-50 -233h347l-17 -82h-347l-71 -332h-94z" />
<glyph unicode="G" horiz-adv-x="778" d="M60 266q0 118 55 227.5t159 181.5t232 72q117 0 185 -60.5t68 -161.5v-17h-91q-1 75 -51 116.5t-129 41.5q-140 0 -236 -115t-96 -269q0 -105 51.5 -162t154.5 -57q98 0 175.5 59t99.5 155l6 26h-222l18 82h304l-82 -385h-59l-5 86q-69 -58 -129 -81t-139 -23 q-121 0 -195 75t-74 209z" />
<glyph unicode="H" horiz-adv-x="722" d="M33 0l155 729h94l-67 -315h373l67 315h94l-155 -729h-94l71 332h-373l-71 -332h-94z" />
<glyph unicode="I" horiz-adv-x="278" d="M50 0l155 729h94l-155 -729h-94z" />
<glyph unicode="J" horiz-adv-x="500" d="M-2 127q0 23 6 48l13 59h94l-13 -61q-4 -16 -4 -34q0 -34 25 -55t65 -21q56 0 91.5 37t53.5 121l108 508h94l-115 -542q-21 -98 -87 -151.5t-165 -53.5q-78 0 -122 41.5t-44 103.5z" />
<glyph unicode="K" horiz-adv-x="667" d="M29 0l155 729h94l-79 -373l444 373h120l-361 -298l206 -431h-110l-168 376l-154 -127l-53 -249h-94z" />
<glyph unicode="L" d="M30 0l155 729h94l-138 -647h360l-17 -82h-454z" />
<glyph unicode="M" horiz-adv-x="833" d="M25 0l155 729h129l80 -627l346 627h131l-155 -729h-89l129 605l-334 -605h-97l-77 605l-129 -605h-89z" />
<glyph unicode="N" horiz-adv-x="722" d="M26 0l155 729h104l250 -598l127 598h89l-155 -729h-106l-249 591l-126 -591h-89z" />
<glyph unicode="O" horiz-adv-x="778" d="M55 268q0 122 57 232t157.5 178.5t218.5 68.5q136 0 213.5 -73t77.5 -204q0 -127 -53 -237.5t-154.5 -180.5t-229.5 -70q-134 0 -210.5 74.5t-76.5 211.5zM151 276q0 -101 55.5 -157t148.5 -56t169.5 56t117.5 144.5t41 188.5q0 101 -55.5 157.5t-151.5 56.5 q-92 0 -167.5 -56t-116.5 -145t-41 -189z" />
<glyph unicode="P" horiz-adv-x="667" d="M41 0l155 729h302q185 0 185 -161q0 -105 -72 -182t-182 -77h-228l-66 -309h-94zM218 391h194q77 0 126 46t49 113q0 97 -120 97h-194z" />
<glyph unicode="Q" horiz-adv-x="778" d="M55 269q0 121 55.5 230.5t156 178.5t221.5 69q138 0 214.5 -75.5t76.5 -209.5q0 -108 -45 -207.5t-128 -173.5l78 -77l-60 -58l-87 87q-55 -29 -96.5 -40t-99.5 -11q-135 0 -210.5 76t-75.5 211zM151 277q0 -101 55.5 -157.5t153.5 -56.5q54 0 119 29l-62 62l58 56 l74 -73q134 129 134 315q0 102 -56 158t-151 56q-91 0 -167 -56t-117 -145t-41 -188z" />
<glyph unicode="R" horiz-adv-x="722" d="M43 0l155 729h336q96 0 141 -37.5t45 -116.5q0 -74 -34 -124.5t-106 -90.5q35 -23 47.5 -43t12.5 -53q0 -28 -21 -138q-6 -32 -6 -50q0 -34 21 -53l-5 -23h-113q-4 28 -4 47q0 24 3 40.5t21 91.5q8 35 8 60q0 75 -101 75h-239l-67 -314h-94zM221 396h231q83 0 127.5 45.5 t44.5 116.5q0 45 -27 67t-92 22h-230z" />
<glyph unicode="S" horiz-adv-x="667" d="M40 174q0 30 9 63h87q-4 -25 -4 -41q0 -68 40 -100.5t125 -32.5q100 0 163.5 43.5t63.5 107.5q0 35 -26.5 59t-86.5 41l-171 49q-50 14 -80.5 51t-30.5 84q0 38 20.5 85.5t51.5 78.5q82 85 238 85q105 0 165.5 -46.5t60.5 -123.5q0 -19 -8 -56h-88q4 27 4 36 q0 109 -152 109q-86 0 -141 -40.5t-55 -101.5q0 -33 21.5 -51t79.5 -35l172 -49q56 -16 89 -56.5t33 -90.5q0 -42 -24.5 -91.5t-62.5 -84.5q-90 -84 -252 -84q-113 0 -177 51t-64 141z" />
<glyph unicode="T" horiz-adv-x="611" d="M108 647l17 82h573l-17 -82h-238l-138 -647h-94l138 647h-241z" />
<glyph unicode="U" horiz-adv-x="722" d="M75 160q0 30 14 96l101 473h94l-108 -507q-5 -20 -5 -44q0 -52 44.5 -83.5t116.5 -31.5q85 0 142.5 42.5t73.5 116.5l108 507h94l-108 -507q-23 -109 -112.5 -174.5t-215.5 -65.5q-107 0 -173 50t-66 128z" />
<glyph unicode="V" horiz-adv-x="667" d="M135 729h97l83 -617l336 617h99l-408 -729h-100z" />
<glyph unicode="W" horiz-adv-x="944" d="M127 0v729h115v-592l288 592h96l41 -592l263 592h104l-340 -729h-102l-41 592l-290 -592h-134z" />
<glyph unicode="X" horiz-adv-x="667" d="M-28 0l339 374l-167 355h113l125 -285l248 285h114l-323 -355l179 -374h-115l-134 304l-264 -304h-115z" />
<glyph unicode="Y" horiz-adv-x="667" d="M118 729h112l136 -357l289 357h111l-368 -443l-61 -286h-94l61 286z" />
<glyph unicode="Z" horiz-adv-x="611" d="M-22 0l18 84l555 563h-406l17 82h525l-18 -84l-556 -563h438l-17 -82h-556z" />
<glyph unicode="[" horiz-adv-x="278" d="M-31 -213l200 942h186l-15 -72h-102l-170 -798h102l-15 -72h-186z" />
<glyph unicode="\" horiz-adv-x="278" d="M97 729h55l78 -749h-55z" />
<glyph unicode="]" horiz-adv-x="278" d="M-73 -213l15 72h103l170 798h-103l15 72h187l-200 -942h-187z" />
<glyph unicode="^" horiz-adv-x="469" d="M65 329l234 380h73l74 -380h-69l-58 299l-182 -299h-72z" />
<glyph unicode="_" d="M-109 -177l11 50h599l-11 -50h-599z" />
<glyph unicode="`" horiz-adv-x="333" d="M93 729h112l65 -148h-60z" />
<glyph unicode="a" d="M16 109q0 89 81 140q36 23 79.5 33t145.5 20q54 5 75 17t26 42l3 18q2 16 2 19q0 28 -30.5 46t-75.5 18q-108 0 -137 -93h-84q14 83 76.5 126.5t166.5 43.5q79 0 126.5 -31t47.5 -82q0 -10 -6 -37l-61 -287q-1 -3 -1 -10q0 -29 38 -29q8 0 17 2l-13 -65q-51 -9 -53 -9 q-39 0 -59 11.5t-20 40.5l1 15q-53 -44 -98.5 -58.5t-101.5 -14.5q-68 0 -106.5 32.5t-38.5 91.5zM104 119q0 -62 90 -62q66 0 122.5 34.5t66.5 80.5l18 86q-43 -15 -146 -29q-80 -11 -115.5 -37t-35.5 -73z" />
<glyph unicode="b" d="M4 0l155 729h84l-58 -275q48 51 84.5 68t91.5 17q76 0 126.5 -56t50.5 -140q0 -90 -35 -171t-103 -134t-154 -53q-105 0 -149 97l-18 -82h-75zM136 187q0 -59 30 -92t82 -33q82 0 142 76t60 186q0 65 -31 101.5t-86 36.5q-79 0 -138 -79.5t-59 -195.5z" />
<glyph unicode="c" horiz-adv-x="500" d="M27 174q0 160 84 262.5t220 102.5q77 0 125 -43.5t48 -103.5q0 -1 -0.5 -5t-1 -11t-0.5 -13l-1 -15h-84q1 9 1 22q0 43 -27.5 67.5t-74.5 24.5q-87 0 -144 -83t-57 -194q0 -58 31 -90.5t83 -32.5q112 0 155 118h84q-30 -104 -91.5 -149.5t-161.5 -45.5q-86 0 -137 53 t-51 136z" />
<glyph unicode="d" d="M24 174q0 158 82 261.5t207 103.5q53 0 86 -21t57 -70l60 281h84l-155 -729h-81l17 80q-22 -42 -76 -68.5t-109 -26.5q-78 0 -125 51t-47 138zM112 194q0 -64 31 -98t87 -34q79 0 136 79t57 186q0 64 -31 99.5t-87 35.5q-81 0 -137 -80t-56 -188z" />
<glyph unicode="e" d="M35 177q0 61 24 134t59 120q37 50 96.5 79t124.5 29q81 0 136 -49.5t55 -121.5q0 -42 -14 -117l-2 -13h-386q-6 -24 -5 -46q0 -63 32.5 -96.5t92.5 -33.5q100 0 154 97h84q-23 -80 -92 -127t-160 -47q-89 0 -144 56t-55 136zM146 310h294q2 24 2 29q0 56 -31.5 89.5 t-84.5 33.5q-60 0 -110.5 -43t-69.5 -109z" />
<glyph unicode="f" horiz-adv-x="278" d="M39 0l97 457h-70l14 67h70l19 89q12 56 51.5 87.5t97.5 31.5q22 0 45 -5l-15 -69q-14 2 -27 2q-32 0 -48 -14.5t-24 -52.5l-15 -69h86l-14 -67h-86l-97 -457h-84z" />
<glyph unicode="g" d="M-18 -91q0 10 1 18l1 13h84v-14q0 -34 28.5 -53t79.5 -19q80 0 123.5 44t65.5 146l4 20q-76 -79 -172 -79q-77 0 -125 51t-48 133q0 148 84 259t211 111q96 0 139 -93l17 78h76l-93 -439q-20 -95 -43 -147.5t-61 -88.5q-70 -67 -195 -67q-80 0 -128.5 34.5t-48.5 92.5z M112 185q0 -59 29.5 -93.5t79.5 -34.5q87 0 142.5 83.5t55.5 198.5q0 56 -29 89.5t-77 33.5q-86 0 -143.5 -84t-57.5 -193z" />
<glyph unicode="h" d="M20 0l155 729h84l-57 -270q47 44 89 62t98 18q63 0 99 -33.5t36 -92.5q0 -20 -4 -37l-80 -376h-84l73 343q6 27 6 39q0 38 -23.5 61.5t-61.5 23.5q-68 0 -118 -48t-67 -130l-61 -289h-84z" />
<glyph unicode="i" horiz-adv-x="222" d="M19 0l111 524h84l-111 -524h-84zM136 604l22 103h104l-22 -103h-104z" />
<glyph unicode="j" horiz-adv-x="222" d="M-115 -215l15 71q18 -2 25 -2q38 0 53.5 14t24.5 56l127 600h84l-134 -633q-14 -62 -52 -85.5t-124 -23.5q-8 0 -19 3zM136 604l22 103h104l-22 -103h-104z" />
<glyph unicode="k" horiz-adv-x="500" d="M8 0l155 729h84l-90 -423l269 218h108l-222 -181l140 -343h-96l-114 291l-107 -88l-43 -203h-84z" />
<glyph unicode="l" horiz-adv-x="222" d="M18 0l155 729h84l-155 -729h-84z" />
<glyph unicode="m" horiz-adv-x="833" d="M21 0l111 524h76l-13 -65q48 45 87.5 62.5t90.5 17.5q97 0 121 -83q86 83 181 83q61 0 94 -33.5t33 -77.5q0 -33 -6 -55l-79 -373h-84l72 341q9 34 9 49q0 36 -20.5 56.5t-55.5 20.5q-55 0 -100 -39.5t-57 -98.5l-70 -329h-84l77 361q4 17 4 37q0 31 -22.5 50t-59.5 19 q-50 0 -94.5 -40.5t-56.5 -97.5l-70 -329h-84z" />
<glyph unicode="n" d="M20 0l111 524h76l-13 -65q78 80 194 80q62 0 99 -34t37 -91q0 -21 -4 -38l-80 -376h-84l74 349q6 32 6 37q0 35 -25 58t-62 23q-68 0 -117.5 -48t-66.5 -130l-61 -289h-84z" />
<glyph unicode="o" d="M31 168q0 100 36 184t106 135.5t161 51.5q88 0 140 -53t52 -134q0 -158 -85 -262.5t-220 -104.5q-85 0 -137.5 50t-52.5 133zM119 188q0 -59 31 -92.5t85 -33.5q88 0 145.5 79t57.5 192q0 61 -31 95t-86 34q-87 0 -144.5 -81.5t-57.5 -192.5z" />
<glyph unicode="p" d="M-43 -213l157 737h81l-18 -84q20 42 75 70.5t110 28.5q80 0 127 -52.5t47 -142.5q0 -152 -81.5 -255.5t-208.5 -103.5q-53 0 -86.5 20.5t-57.5 66.5l-61 -285h-84zM134 188q0 -59 32.5 -92.5t87.5 -33.5q83 0 138.5 78t55.5 184q0 65 -31.5 101.5t-87.5 36.5 q-81 0 -138 -82.5t-57 -191.5z" />
<glyph unicode="q" d="M22 177q0 91 35 172.5t103.5 135.5t155.5 54q111 0 147 -101l19 86h75l-157 -737h-84l60 279q-52 -50 -86.5 -65.5t-89.5 -15.5q-76 0 -127 54.5t-51 137.5zM110 190q0 -59 32 -93.5t86 -34.5q79 0 137.5 77.5t58.5 193.5q0 59 -30 94t-80 35q-84 0 -144 -78t-60 -194z " />
<glyph unicode="r" horiz-adv-x="333" d="M19 0l111 524h76l-17 -82q46 53 83.5 75t81.5 22q12 0 32 -3l-18 -85h-10q-159 0 -197 -179l-58 -272h-84z" />
<glyph unicode="s" horiz-adv-x="500" d="M13 113q0 23 6 51h89q-2 -20 -2 -25q0 -37 28 -57t80 -20q59 0 101 27t42 69q0 19 -13.5 33.5t-56.5 25.5l-74 19q-77 19 -107.5 45t-30.5 72q0 81 64 133.5t167 52.5q73 0 118.5 -33t45.5 -85q0 -18 -6 -43h-84q1 8 1 22q0 29 -24 45.5t-68 16.5q-57 0 -91.5 -24 t-34.5 -63t85 -60l76 -19q66 -16 93.5 -42.5t27.5 -72.5q0 -89 -67 -142.5t-179 -53.5q-87 0 -136.5 34t-49.5 94z" />
<glyph unicode="t" horiz-adv-x="278" d="M50 72q0 16 3 31l76 354h-71l14 67h71l31 144h84l-31 -144h89l-14 -67h-89l-75 -351q-2 -12 -2 -14q0 -12 10 -19.5t26 -7.5q13 0 48 8l-16 -73q-24 -7 -65 -7t-65 21t-24 58z" />
<glyph unicode="u" d="M40 94q0 19 3 34l84 396h84l-77 -363q-3 -15 -3 -27q0 -35 24 -56t65 -21q64 0 113 48.5t66 129.5l61 289h84l-111 -524h-76l13 61q-83 -76 -192 -76q-65 0 -101.5 29t-36.5 80z" />
<glyph unicode="v" horiz-adv-x="500" d="M72 524h92l49 -422l244 422h91l-311 -524h-91z" />
<glyph unicode="w" horiz-adv-x="722" d="M68 524h110v-408l189 408h116v-408l196 408h91l-264 -524h-107v418l-195 -418h-96z" />
<glyph unicode="x" horiz-adv-x="500" d="M-33 0l239 267l-118 257h93l88 -192l167 192h97l-233 -257l123 -267h-94l-90 200l-174 -200h-98z" />
<glyph unicode="y" horiz-adv-x="500" d="M-42 -208l16 75q36 -4 44 -4q28 0 44 10.5t36 41.5l52 81l-68 528h90l46 -407l233 407h89l-368 -634q-63 -108 -165 -108q-26 0 -49 10z" />
<glyph unicode="z" horiz-adv-x="500" d="M-19 0l18 74l395 378h-294l15 72h392l-18 -75l-392 -377h326l-15 -72h-427z" />
<glyph unicode="{" horiz-adv-x="334" d="M41 224l15 69q44 7 68 39t38 99l36 166q14 66 50.5 99t85.5 33h47l-14 -65h-16q-37 0 -53.5 -14t-24.5 -53l-39 -181q-22 -109 -108 -157q28 -18 38 -38.5t10 -58.5q0 -32 -6 -61l-39 -181q-4 -16 -4 -33q0 -34 54 -34h16l-14 -66h-47q-41 0 -63.5 21t-22.5 58q0 27 6 54 l35 166q9 41 9 67q0 62 -57 71z" />
<glyph unicode="|" horiz-adv-x="260" d="M96 -213v942h68v-942h-68z" />
<glyph unicode="}" horiz-adv-x="334" d="M-66 -213l14 65h16q37 0 53.5 14t24.5 53l39 181q13 67 35.5 100.5t72.5 56.5q-48 42 -48 105q0 26 6 54l39 181q4 16 4 33q0 34 -54 34h-16l14 65h47q38 0 62 -22.5t24 -59.5q0 -21 -6 -50l-35 -166q-9 -45 -9 -72q0 -57 57 -66l-15 -70q-85 -13 -106 -138l-36 -166 q-29 -132 -136 -132h-47z" />
<glyph unicode="~" horiz-adv-x="584" d="M87 293q19 70 54.5 107.5t83.5 37.5q27 0 51 -16l102 -69q26 -17 47 -17q51 0 67 75h52q-12 -68 -49 -105.5t-87 -37.5q-40 0 -74 26l-85 63q-21 15 -39 15q-47 0 -71 -79h-52z" />
<glyph unicode="&#xa1;" horiz-adv-x="278" d="M3 -205l74 350l67 211h40l-23 -211l-74 -350h-84zM136 421l22 103h84l-22 -103h-84z" />
<glyph unicode="&#xa2;" d="M46 171q0 148 78 251t209 116l19 90h40l-19 -90q66 0 114 -43t48 -103q0 -1 -0.5 -5t-1 -11t-0.5 -13l-1 -15h-84q1 9 1 23q0 76 -80 90l-12 2l-87 -410q53 6 87.5 36t57.5 91h84q-26 -99 -85.5 -148t-159.5 -55l-21 -97h-40l21 98q-77 8 -122.5 60.5t-45.5 132.5z M134 183q0 -53 26 -87t71 -40l85 404q-80 -15 -131 -96.5t-51 -180.5z" />
<glyph unicode="&#xa3;" d="M-6 52q174 115 174 219q0 18 -10 50h-113l12 55h83q-6 18 -13 37t-10 26.5t-5 18t-2 22.5q0 97 86 173t196 76q83 0 134.5 -41.5t51.5 -108.5q0 -28 -9 -82h-88q9 33 9 57q0 45 -31.5 71.5t-84.5 26.5q-71 0 -119.5 -46t-48.5 -114q-3 -4 -0.5 -16.5t3 -14.5t7.5 -21 t12 -36l9 -28h160l-12 -55h-137l1 -11q2 -26 2 -27q0 -34 -18 -73q-18 -41 -41.5 -63.5t-105.5 -85.5q78 39 133 39q27 0 53 -9q63 -21 102 -21q40 0 94 31l25 -70q-66 -54 -142 -54q-49 0 -139 35q-31 11 -63 11q-53 0 -118 -37z" />
<glyph unicode="&#xa4;" d="M10 144l66 56q-38 61 -18 151q18 92 81 150l-43 54l58 48l45 -56q70 51 156 51t134 -51l69 56l38 -48l-67 -54q38 -57 19 -150q-19 -88 -82 -151l42 -56l-55 -45l-43 58q-70 -55 -160 -55q-89 0 -138 55l-67 -58zM131 351q-16 -73 23.5 -126t110.5 -53t132.5 53t77.5 126 q15 71 -24.5 124t-110.5 53t-132.5 -53t-76.5 -124z" />
<glyph unicode="&#xa5;" d="M50 175l11 51h174l17 77h-175l11 51h154l-130 355h85l116 -322l248 322h85l-277 -355h154l-11 -51h-172l-17 -77h172l-10 -51h-173l-37 -175h-88l37 175h-174z" />
<glyph unicode="&#xa6;" horiz-adv-x="260" d="M96 164h68v-377h-68v377zM96 352v377h68v-377h-68z" />
<glyph unicode="&#xa7;" d="M13 -75q0 24 11 61h85q-8 -28 -8 -45q0 -34 24.5 -55.5t62.5 -21.5q46 0 79 30.5t33 71.5q0 39 -38 72l-145 124q-63 53 -63 112q0 68 48 123q17 19 33.5 30.5t61.5 35.5q-26 33 -26 77q0 74 65.5 131.5t149.5 57.5q67 0 110 -38t43 -97q0 -11 -1.5 -17.5t-5 -20 t-7.5 -32.5h-84q10 29 10 51q0 35 -22.5 56t-60.5 21q-42 0 -73.5 -30t-31.5 -69q0 -17 8.5 -29.5t33.5 -32.5l127 -101q50 -40 63.5 -62.5t13.5 -60.5q0 -65 -39.5 -119.5t-107.5 -76.5q30 -41 30 -87q0 -73 -64 -135t-153 -62q-73 0 -117.5 38t-44.5 100zM142 309 q0 -24 9 -40.5t35 -39.5l138 -121q97 50 97 123q0 48 -53 91l-131 106q-53 -30 -74 -56.5t-21 -62.5z" />
<glyph unicode="&#xa8;" horiz-adv-x="333" d="M118 604l22 102h91l-22 -102h-91zM280 604l22 102h91l-22 -102h-91z" />
<glyph unicode="&#xa9;" horiz-adv-x="737" d="M21 334q0 144 102 246.5t246 102.5t246.5 -102.5t102.5 -246.5t-102.5 -246t-246.5 -102t-246 102t-102 246zM64 334q0 -127 89 -216t216 -89t216.5 89t89.5 216t-89.5 216.5t-216.5 89.5t-216 -89.5t-89 -216.5zM173 270q-1 51 19 104t54 91q69 78 174 78 q65 0 103 -35.5t42 -103.5h-64q-8 88 -92 88q-77 0 -128 -70q-46 -65 -44 -140q2 -47 29.5 -76.5t71.5 -29.5q55 0 86.5 25t58.5 84h66q-37 -85 -88 -122.5t-131 -37.5q-72 0 -113.5 39.5t-43.5 105.5z" />
<glyph unicode="&#xaa;" horiz-adv-x="370" d="M57 303l11 51h288l-11 -51h-288zM86 479q0 58 50 89q15 9 31 14.5t39 9.5t64 8q36 4 45 10.5t15 30.5q2 10 2 15q0 35 -62 35q-63 0 -80 -57h-56q18 64 52 86t101 22q48 0 76 -17.5t28 -48.5q0 -15 -1 -18l-41 -190l-1 -7q0 -5 5 -9.5t12 -4.5q1 0 4.5 0.5t7.5 1t5 0.5 l-9 -44l-10 -2q-17 -4 -26 -4q-42 0 -47 43q-46 -43 -109 -43q-46 0 -70.5 21t-24.5 59zM146 486q0 -37 53 -37q34 0 66.5 21t37.5 45l10 51q-20 -7 -51 -11q-50 -7 -76 -17t-33 -21.5t-7 -30.5z" />
<glyph unicode="&#xab;" d="M97 227l19 89l177 122l-18 -83l-121 -84l86 -83l-18 -82zM302 227l19 89l177 122l-18 -83l-121 -84l86 -83l-18 -82z" />
<glyph unicode="&#xac;" horiz-adv-x="584" d="M68 307v68h448v-216h-68v148h-380z" />
<glyph unicode="&#xad;" horiz-adv-x="333" d="M47 240l15 72h239l-15 -72h-239z" />
<glyph unicode="&#xae;" horiz-adv-x="737" d="M21 334q0 144 102 246.5t246 102.5t246.5 -102.5t102.5 -246.5t-102.5 -246t-246.5 -102t-246 102t-102 246zM64 334q0 -127 89 -216t216 -89t216.5 89t89.5 216t-89.5 216.5t-216.5 89.5t-216 -89.5t-89 -216.5zM169 135l85 398h201q114 0 115 -86q1 -73 -76 -115 q32 -20 32 -51q0 -17 -11 -75q-3 -17 -3 -26q2 -18 14 -27l-4 -18h-73q-3 20 -3 28q-1 18 12 72q4 15 4 31q0 37 -57 37h-137l-36 -168h-63zM279 355h132q47 0 71.5 23t23.5 59q-1 22 -16.5 33t-51.5 11h-132z" />
<glyph unicode="&#xaf;" horiz-adv-x="333" d="M109 621l15 69h275l-15 -69h-275z" />
<glyph unicode="&#xb0;" horiz-adv-x="400" d="M122 557q14 62 64.5 104t112.5 42t95 -42t20 -104t-64 -104t-113 -42t-95 42t-20 104zM170 557q-8 -40 14.5 -71.5t61.5 -31.5t75.5 31.5t44.5 71.5q9 40 -14 71.5t-62 31.5t-75 -31.5t-45 -71.5z" />
<glyph unicode="&#xb1;" horiz-adv-x="584" d="M68 0v68h448v-68h-448zM68 284v68h190v190h68v-190h190v-68h-190v-155h-68v155h-190z" />
<glyph unicode="&#xb2;" horiz-adv-x="333" d="M50 335q17 64 46.5 97.5t99.5 66.5l58 28q57 27 66 69q6 28 -11 47t-49 19q-72 0 -96 -87h-54q32 134 161 134q57 0 86.5 -31t18.5 -80q-15 -70 -109 -113l-61 -29q-32 -14 -49 -29.5t-30 -40.5h201l-11 -51h-267z" />
<glyph unicode="&#xb3;" horiz-adv-x="333" d="M79 448h55q-7 -41 8 -60t55 -19q37 0 62.5 19t32.5 53q8 38 -14.5 50.5t-81.5 12.5l10 45q56 0 78.5 11t29.5 42q6 28 -8.5 44t-45.5 16q-38 0 -59 -18t-30 -60h-55q30 125 154 125q56 0 83 -28.5t16 -77.5q-11 -52 -66 -74q57 -22 44 -88q-12 -54 -55.5 -86t-105.5 -32 q-64 0 -92 32.5t-15 92.5z" />
<glyph unicode="&#xb4;" horiz-adv-x="333" d="M210 581l128 148h112l-180 -148h-60z" />
<glyph unicode="&#xb5;" d="M-32 -220l158 744h84l-77 -364q-3 -15 -3 -30q0 -37 23 -58.5t63 -21.5q64 0 113.5 48.5t66.5 128.5l63 297h84l-93 -436q-1 -3 -1 -11q0 -31 38 -31q5 0 17 3l-14 -63q-52 -9 -54 -9q-40 0 -57.5 14.5t-17.5 49.5q0 7 3 19q-80 -83 -183 -83q-52 0 -81 29l-48 -226h-84z " />
<glyph unicode="&#xb6;" horiz-adv-x="537" d="M95 436q0 114 86 203.5t196 89.5h250l-14 -64h-56l-179 -843h-64l179 843h-83l-179 -843h-64l93 437q-77 2 -121 49.5t-44 127.5z" />
<glyph unicode="&#xb7;" horiz-adv-x="278" d="M87 250q0 22 15 37t37 15t37 -15t15 -37t-15 -37t-37 -15t-37 15t-15 37z" />
<glyph unicode="&#xb8;" horiz-adv-x="333" d="M-49 -196l28 38q57 -29 94 -29q28 0 45.5 15.5t17.5 39.5q0 17 -9 27.5t-22 10.5q-14 0 -27 -4l-23 6l51 97h51l-31 -59h21q27 0 47 -20.5t20 -46.5q0 -51 -40.5 -80t-104.5 -29q-51 0 -118 34z" />
<glyph unicode="&#xb9;" horiz-adv-x="333" d="M146 595l9 41l13 1q47 3 66.5 16.5t40.5 55.5h37l-80 -374h-54l55 260h-87z" />
<glyph unicode="&#xba;" horiz-adv-x="365" d="M64 303l11 51h263l-11 -51h-263zM99 509q0 101 52 167t135 66q55 0 85.5 -31.5t30.5 -83.5q0 -96 -53 -162t-137 -66q-50 0 -81.5 30.5t-31.5 79.5zM159 525q0 -35 17.5 -54.5t49.5 -19.5q49 0 82.5 48t33.5 118q0 34 -17.5 53.5t-47.5 19.5q-50 0 -84 -47.5t-34 -117.5z " />
<glyph unicode="&#xbb;" d="M71 106l18 83l123 84l-88 83l18 82l127 -121l-19 -89zM270 106l18 83l123 84l-88 83l18 82l127 -121l-19 -89z" />
<glyph unicode="&#xbc;" horiz-adv-x="834" d="M116 -25l608 734h58l-608 -734h-58zM157 595l9 41l13 1q47 3 66.5 16.5t40.5 55.5h37l-80 -374h-54l55 260h-87zM457 88l11 52l229 234h40l-50 -239h59l-10 -47h-59l-19 -88h-54l19 88h-166zM519 135h114l31 149z" />
<glyph unicode="&#xbd;" horiz-adv-x="834" d="M72 -25l608 734h58l-608 -734h-58zM157 595l9 41l13 1q47 3 66.5 16.5t40.5 55.5h37l-80 -374h-54l55 260h-87zM443 0q16 64 46 97.5t100 67.5l57 27q58 27 66 69q7 28 -10.5 47t-49.5 19q-71 0 -95 -87h-55q32 134 161 134q57 0 86.5 -31t19.5 -80q-15 -70 -109 -113 l-61 -29q-32 -14 -49 -29.5t-30 -40.5h201l-11 -51h-267z" />
<glyph unicode="&#xbe;" horiz-adv-x="834" d="M109 448h55q-7 -41 8 -60t55 -19q37 0 62.5 19t32.5 53q8 38 -14.5 50.5t-81.5 12.5l10 45q56 0 78.5 11t29.5 42q6 28 -8.5 44t-45.5 16q-38 0 -59 -18t-30 -60h-55q30 125 154 125q56 0 83 -28.5t16 -77.5q-11 -52 -66 -74q57 -22 44 -88q-12 -54 -55.5 -86t-105.5 -32 q-64 0 -92 32.5t-15 92.5zM136 -25l608 734h58l-608 -734h-58zM447 88l11 52l229 234h40l-50 -239h59l-10 -47h-59l-19 -88h-54l19 88h-166zM509 135h114l31 149z" />
<glyph unicode="&#xbf;" d="M-7 -66q0 58 34 110.5t111 109.5q56 42 75 64.5t29 59.5l10 47h90l-12 -55q-10 -45 -32 -71.5t-104 -91.5q-58 -46 -81.5 -82t-23.5 -79q0 -38 30 -62t77 -24q66 0 103.5 37.5t54.5 119.5h85q-47 -234 -265 -234q-85 0 -133 43t-48 108zM272 421l22 103h90l-22 -103h-90z " />
<glyph unicode="&#xc0;" horiz-adv-x="667" d="M-33 0l415 729h120l101 -729h-102l-27 219h-285l-123 -219h-99zM233 297h231l-40 333zM258 916h134l97 -133h-72z" />
<glyph unicode="&#xc1;" horiz-adv-x="667" d="M-33 0l415 729h120l101 -729h-102l-27 219h-285l-123 -219h-99zM233 297h231l-40 333zM417 783l154 133h134l-216 -133h-72z" />
<glyph unicode="&#xc2;" horiz-adv-x="667" d="M-33 0l415 729h120l101 -729h-102l-27 219h-285l-123 -219h-99zM233 297h231l-40 333zM281 783l154 135h114l76 -135h-75l-67 89l-125 -89h-77z" />
<glyph unicode="&#xc3;" horiz-adv-x="667" d="M-33 0l415 729h120l101 -729h-102l-27 219h-285l-123 -219h-99zM233 297h231l-40 333zM290 796q19 55 43 79t61 24q7 0 64.5 -16t71.5 -16q15 0 24.5 7.5t23.5 29.5h53q-16 -49 -45 -78t-63 -29q-27 0 -103 26q-16 6 -27 6q-17 0 -26 -6.5t-24 -26.5h-53z" />
<glyph unicode="&#xc4;" horiz-adv-x="667" d="M-33 0l415 729h120l101 -729h-102l-27 219h-285l-123 -219h-99zM233 297h231l-40 333zM330 799l22 102h91l-22 -102h-91zM492 799l22 102h91l-22 -102h-91z" />
<glyph unicode="&#xc5;" horiz-adv-x="667" d="M-33 0l415 729h120l101 -729h-102l-27 219h-285l-123 -219h-99zM233 297h231l-40 333zM372 846q0 43 37 79t82 36q34 0 56.5 -21t22.5 -52q0 -47 -36.5 -83t-83.5 -36q-33 0 -55.5 22.5t-22.5 54.5zM423 856q0 -17 10.5 -28t27.5 -11q22 0 40.5 18t18.5 39q0 17 -10.5 28 t-26.5 11q-23 0 -41.5 -18t-18.5 -39z" />
<glyph unicode="&#xc6;" horiz-adv-x="1000" d="M-39 0l454 729h622l-17 -82h-371l-49 -233h351l-18 -82h-351l-53 -250h388l-17 -82h-482l45 214h-269l-130 -214h-103zM243 295h238l74 352h-100z" />
<glyph unicode="&#xc7;" horiz-adv-x="722" d="M63 247q0 94 34.5 191t93.5 168q117 141 292 141q106 0 168.5 -62t68.5 -182h-96q-12 163 -158 163q-136 0 -226 -133q-81 -121 -81 -268q0 -91 47.5 -146.5t125.5 -55.5q94 0 150 46.5t105 156.5h98q-61 -144 -140.5 -210.5t-199.5 -72.5l-19 -37h21q27 0 47 -20.5 t20 -46.5q0 -51 -40.5 -80t-104.5 -29q-51 0 -118 34l28 38q57 -29 94 -29q28 0 45.5 15.5t17.5 39.5q0 17 -9 27.5t-22 10.5q-14 0 -27 -4l-23 6l39 75q-108 7 -169.5 78.5t-61.5 185.5z" />
<glyph unicode="&#xc8;" horiz-adv-x="667" d="M40 0l155 729h506l-17 -82h-412l-50 -233h396l-18 -82h-395l-54 -250h429l-17 -82h-523zM264 916h134l97 -133h-72z" />
<glyph unicode="&#xc9;" horiz-adv-x="667" d="M40 0l155 729h506l-17 -82h-412l-50 -233h396l-18 -82h-395l-54 -250h429l-17 -82h-523zM423 783l154 133h134l-216 -133h-72z" />
<glyph unicode="&#xca;" horiz-adv-x="667" d="M40 0l155 729h506l-17 -82h-412l-50 -233h396l-18 -82h-395l-54 -250h429l-17 -82h-523zM287 783l154 135h114l76 -135h-75l-67 89l-125 -89h-77z" />
<glyph unicode="&#xcb;" horiz-adv-x="667" d="M40 0l155 729h506l-17 -82h-412l-50 -233h396l-18 -82h-395l-54 -250h429l-17 -82h-523zM336 799l22 102h91l-22 -102h-91zM498 799l22 102h91l-22 -102h-91z" />
<glyph unicode="&#xcc;" horiz-adv-x="278" d="M50 0l155 729h94l-155 -729h-94zM79 916h134l97 -133h-72z" />
<glyph unicode="&#xcd;" horiz-adv-x="278" d="M50 0l155 729h94l-155 -729h-94zM216 783l154 133h134l-216 -133h-72z" />
<glyph unicode="&#xce;" horiz-adv-x="278" d="M50 0l155 729h94l-155 -729h-94zM91 783l154 135h114l76 -135h-75l-67 89l-125 -89h-77z" />
<glyph unicode="&#xcf;" horiz-adv-x="278" d="M50 0l155 729h94l-155 -729h-94zM140 799l22 102h91l-22 -102h-91zM302 799l22 102h91l-22 -102h-91z" />
<glyph unicode="&#xd0;" horiz-adv-x="722" d="M39 0l72 341h-68l13 67h70l68 321h282q109 0 171 -67.5t62 -173.5q0 -206 -112.5 -347t-275.5 -141h-282zM150 82h172q129 0 210 112.5t81 285.5q0 79 -45.5 123t-125.5 44h-171l-51 -239h166l-14 -67h-167z" />
<glyph unicode="&#xd1;" horiz-adv-x="722" d="M26 0l155 729h104l250 -598l127 598h89l-155 -729h-106l-249 591l-126 -591h-89zM314 796q19 55 43 79t61 24q7 0 64.5 -16t71.5 -16q15 0 24.5 7.5t23.5 29.5h53q-16 -49 -45 -78t-63 -29q-27 0 -103 26q-16 6 -27 6q-17 0 -26 -6.5t-24 -26.5h-53z" />
<glyph unicode="&#xd2;" horiz-adv-x="778" d="M55 268q0 122 57 232t157.5 178.5t218.5 68.5q136 0 213.5 -73t77.5 -204q0 -127 -53 -237.5t-154.5 -180.5t-229.5 -70q-134 0 -210.5 74.5t-76.5 211.5zM151 276q0 -101 55.5 -157t148.5 -56t169.5 56t117.5 144.5t41 188.5q0 101 -55.5 157.5t-151.5 56.5 q-92 0 -167.5 -56t-116.5 -145t-41 -189zM301 916h134l97 -133h-72z" />
<glyph unicode="&#xd3;" horiz-adv-x="778" d="M55 268q0 122 57 232t157.5 178.5t218.5 68.5q136 0 213.5 -73t77.5 -204q0 -127 -53 -237.5t-154.5 -180.5t-229.5 -70q-134 0 -210.5 74.5t-76.5 211.5zM151 276q0 -101 55.5 -157t148.5 -56t169.5 56t117.5 144.5t41 188.5q0 101 -55.5 157.5t-151.5 56.5 q-92 0 -167.5 -56t-116.5 -145t-41 -189zM459 783l154 133h134l-216 -133h-72z" />
<glyph unicode="&#xd4;" horiz-adv-x="778" d="M55 268q0 122 57 232t157.5 178.5t218.5 68.5q136 0 213.5 -73t77.5 -204q0 -127 -53 -237.5t-154.5 -180.5t-229.5 -70q-134 0 -210.5 74.5t-76.5 211.5zM151 276q0 -101 55.5 -157t148.5 -56t169.5 56t117.5 144.5t41 188.5q0 101 -55.5 157.5t-151.5 56.5 q-92 0 -167.5 -56t-116.5 -145t-41 -189zM323 783l154 135h114l76 -135h-75l-67 89l-125 -89h-77z" />
<glyph unicode="&#xd5;" horiz-adv-x="778" d="M55 268q0 122 57 232t157.5 178.5t218.5 68.5q136 0 213.5 -73t77.5 -204q0 -127 -53 -237.5t-154.5 -180.5t-229.5 -70q-134 0 -210.5 74.5t-76.5 211.5zM151 276q0 -101 55.5 -157t148.5 -56t169.5 56t117.5 144.5t41 188.5q0 101 -55.5 157.5t-151.5 56.5 q-92 0 -167.5 -56t-116.5 -145t-41 -189zM333 796q19 55 43 79t61 24q7 0 64.5 -16t71.5 -16q15 0 24.5 7.5t23.5 29.5h53q-16 -49 -45 -78t-63 -29q-27 0 -103 26q-17 6 -27 6q-17 0 -26 -6.5t-24 -26.5h-53z" />
<glyph unicode="&#xd6;" horiz-adv-x="778" d="M55 268q0 122 57 232t157.5 178.5t218.5 68.5q136 0 213.5 -73t77.5 -204q0 -127 -53 -237.5t-154.5 -180.5t-229.5 -70q-134 0 -210.5 74.5t-76.5 211.5zM151 276q0 -101 55.5 -157t148.5 -56t169.5 56t117.5 144.5t41 188.5q0 101 -55.5 157.5t-151.5 56.5 q-92 0 -167.5 -56t-116.5 -145t-41 -189zM373 799l22 102h91l-22 -102h-91zM535 799l22 102h91l-22 -102h-91z" />
<glyph unicode="&#xd7;" horiz-adv-x="584" d="M110 116l134 134l-134 134l48 48l134 -134l134 134l48 -48l-134 -134l134 -134l-48 -48l-134 134l-134 -134z" />
<glyph unicode="&#xd8;" horiz-adv-x="778" d="M-8 21l100 88q-37 66 -37 159q0 122 57 232t157.5 178.5t218.5 68.5q149 0 227 -86l94 84l33 -37l-99 -87q36 -61 36 -151q0 -127 -53 -237.5t-154.5 -180.5t-229.5 -70q-146 0 -222 87l-96 -85zM151 276q0 -56 18 -98l471 417q-54 71 -164 71q-92 0 -167.5 -56 t-116.5 -145t-41 -189zM194 134q56 -71 161 -71q93 0 169.5 56t117.5 144.5t41 188.5q0 56 -18 100z" />
<glyph unicode="&#xd9;" horiz-adv-x="722" d="M75 160q0 30 14 96l101 473h94l-108 -507q-5 -20 -5 -44q0 -52 44.5 -83.5t116.5 -31.5q85 0 142.5 42.5t73.5 116.5l108 507h94l-108 -507q-23 -109 -112.5 -174.5t-215.5 -65.5q-107 0 -173 50t-66 128zM286 916h134l97 -133h-72z" />
<glyph unicode="&#xda;" horiz-adv-x="722" d="M75 160q0 30 14 96l101 473h94l-108 -507q-5 -20 -5 -44q0 -52 44.5 -83.5t116.5 -31.5q85 0 142.5 42.5t73.5 116.5l108 507h94l-108 -507q-23 -109 -112.5 -174.5t-215.5 -65.5q-107 0 -173 50t-66 128zM445 783l154 133h134l-216 -133h-72z" />
<glyph unicode="&#xdb;" horiz-adv-x="722" d="M75 160q0 30 14 96l101 473h94l-108 -507q-5 -20 -5 -44q0 -52 44.5 -83.5t116.5 -31.5q85 0 142.5 42.5t73.5 116.5l108 507h94l-108 -507q-23 -109 -112.5 -174.5t-215.5 -65.5q-107 0 -173 50t-66 128zM309 783l154 135h114l76 -135h-75l-67 89l-125 -89h-77z" />
<glyph unicode="&#xdc;" horiz-adv-x="722" d="M75 160q0 30 14 96l101 473h94l-108 -507q-5 -20 -5 -44q0 -52 44.5 -83.5t116.5 -31.5q85 0 142.5 42.5t73.5 116.5l108 507h94l-108 -507q-23 -109 -112.5 -174.5t-215.5 -65.5q-107 0 -173 50t-66 128zM358 799l22 102h91l-22 -102h-91zM520 799l22 102h91l-22 -102 h-91z" />
<glyph unicode="&#xdd;" horiz-adv-x="667" d="M118 729h112l136 -357l289 357h111l-368 -443l-61 -286h-94l61 286zM420 783l154 133h134l-216 -133h-72z" />
<glyph unicode="&#xde;" horiz-adv-x="667" d="M41 0l155 729h94l-25 -118h208q185 0 185 -161q0 -105 -72 -182t-182 -77h-228l-41 -191h-94zM193 273h194q77 0 126 46t49 113q0 97 -120 97h-195z" />
<glyph unicode="&#xdf;" horiz-adv-x="611" d="M20 0l114 538q17 82 93 136.5t168 54.5q84 0 141.5 -41.5t57.5 -109.5q0 -57 -37.5 -107t-95.5 -70q49 -14 77 -52.5t28 -90.5q0 -22 -4 -39q-23 -110 -97.5 -174.5t-177.5 -64.5q-47 0 -83 4l18 83q40 -5 75 -5q73 0 127.5 55.5t54.5 135.5q0 54 -40.5 75t-122.5 21 l17 82q64 0 118 36.5t54 93.5q0 41 -36 65.5t-88 24.5q-57 0 -105.5 -32t-58.5 -81l-114 -538h-83z" />
<glyph unicode="&#xe0;" d="M16 109q0 89 81 140q36 23 79.5 33t145.5 20q54 5 75 17t26 42l3 18q2 16 2 19q0 28 -30.5 46t-75.5 18q-108 0 -137 -93h-84q14 83 76.5 126.5t166.5 43.5q79 0 126.5 -31t47.5 -82q0 -10 -6 -37l-61 -287q-1 -3 -1 -10q0 -29 38 -29q8 0 17 2l-13 -65q-51 -9 -53 -9 q-39 0 -59 11.5t-20 40.5l1 15q-53 -44 -98.5 -58.5t-101.5 -14.5q-68 0 -106.5 32.5t-38.5 91.5zM104 119q0 -62 90 -62q66 0 122.5 34.5t66.5 80.5l18 86q-43 -15 -146 -29q-80 -11 -115.5 -37t-35.5 -73zM206 729h112l65 -148h-60z" />
<glyph unicode="&#xe1;" d="M16 109q0 89 81 140q36 23 79.5 33t145.5 20q54 5 75 17t26 42l3 18q2 16 2 19q0 28 -30.5 46t-75.5 18q-108 0 -137 -93h-84q14 83 76.5 126.5t166.5 43.5q79 0 126.5 -31t47.5 -82q0 -10 -6 -37l-61 -287q-1 -3 -1 -10q0 -29 38 -29q8 0 17 2l-13 -65q-51 -9 -53 -9 q-39 0 -59 11.5t-20 40.5l1 15q-53 -44 -98.5 -58.5t-101.5 -14.5q-68 0 -106.5 32.5t-38.5 91.5zM104 119q0 -62 90 -62q66 0 122.5 34.5t66.5 80.5l18 86q-43 -15 -146 -29q-80 -11 -115.5 -37t-35.5 -73zM322 581l128 148h112l-180 -148h-60z" />
<glyph unicode="&#xe2;" d="M16 109q0 89 81 140q36 23 79.5 33t145.5 20q54 5 75 17t26 42l3 18q2 16 2 19q0 28 -30.5 46t-75.5 18q-108 0 -137 -93h-84q14 83 76.5 126.5t166.5 43.5q79 0 126.5 -31t47.5 -82q0 -10 -6 -37l-61 -287q-1 -3 -1 -10q0 -29 38 -29q8 0 17 2l-13 -65q-51 -9 -53 -9 q-39 0 -59 11.5t-20 40.5l1 15q-53 -44 -98.5 -58.5t-101.5 -14.5q-68 0 -106.5 32.5t-38.5 91.5zM104 119q0 -62 90 -62q66 0 122.5 34.5t66.5 80.5l18 86q-43 -15 -146 -29q-80 -11 -115.5 -37t-35.5 -73zM208 580l128 150h95l64 -150h-63l-56 99l-104 -99h-64z" />
<glyph unicode="&#xe3;" d="M16 109q0 89 81 140q36 23 79.5 33t145.5 20q54 5 75 17t26 42l3 18q2 16 2 19q0 28 -30.5 46t-75.5 18q-108 0 -137 -93h-84q14 83 76.5 126.5t166.5 43.5q79 0 126.5 -31t47.5 -82q0 -10 -6 -37l-61 -287q-1 -3 -1 -10q0 -29 38 -29q8 0 17 2l-13 -65q-51 -9 -53 -9 q-39 0 -59 11.5t-20 40.5l1 15q-53 -44 -98.5 -58.5t-101.5 -14.5q-68 0 -106.5 32.5t-38.5 91.5zM104 119q0 -62 90 -62q66 0 122.5 34.5t66.5 80.5l18 86q-43 -15 -146 -29q-80 -11 -115.5 -37t-35.5 -73zM190 601q19 55 43 79t61 24q7 0 64.5 -16t71.5 -16q15 0 24.5 7.5 t23.5 29.5h53q-16 -49 -45 -78t-63 -29q-27 0 -103 26q-16 6 -27 6q-17 0 -26 -6.5t-24 -26.5h-53z" />
<glyph unicode="&#xe4;" d="M16 109q0 89 81 140q36 23 79.5 33t145.5 20q54 5 75 17t26 42l3 18q2 16 2 19q0 28 -30.5 46t-75.5 18q-108 0 -137 -93h-84q14 83 76.5 126.5t166.5 43.5q79 0 126.5 -31t47.5 -82q0 -10 -6 -37l-61 -287q-1 -3 -1 -10q0 -29 38 -29q8 0 17 2l-13 -65q-51 -9 -53 -9 q-39 0 -59 11.5t-20 40.5l1 15q-53 -44 -98.5 -58.5t-101.5 -14.5q-68 0 -106.5 32.5t-38.5 91.5zM104 119q0 -62 90 -62q66 0 122.5 34.5t66.5 80.5l18 86q-43 -15 -146 -29q-80 -11 -115.5 -37t-35.5 -73zM230 604l22 102h91l-22 -102h-91zM392 604l22 102h91l-22 -102 h-91z" />
<glyph unicode="&#xe5;" d="M16 109q0 89 81 140q36 23 79.5 33t145.5 20q54 5 75 17t26 42l3 18q2 16 2 19q0 28 -30.5 46t-75.5 18q-108 0 -137 -93h-84q14 83 76.5 126.5t166.5 43.5q79 0 126.5 -31t47.5 -82q0 -10 -6 -37l-61 -287q-1 -3 -1 -10q0 -29 38 -29q8 0 17 2l-13 -65q-51 -9 -53 -9 q-39 0 -59 11.5t-20 40.5l1 15q-53 -44 -98.5 -58.5t-101.5 -14.5q-68 0 -106.5 32.5t-38.5 91.5zM104 119q0 -62 90 -62q66 0 122.5 34.5t66.5 80.5l18 86q-43 -15 -146 -29q-80 -11 -115.5 -37t-35.5 -73zM269 636q0 43 37 79t82 36q34 0 56.5 -21t22.5 -52 q0 -47 -36.5 -83t-83.5 -36q-33 0 -55.5 22.5t-22.5 54.5zM320 646q0 -17 10.5 -28t27.5 -11q22 0 40.5 18t18.5 39q0 17 -10.5 28t-26.5 11q-23 0 -41.5 -18t-18.5 -39z" />
<glyph unicode="&#xe6;" horiz-adv-x="889" d="M9 105q0 43 22 81.5t60 62.5q37 23 79.5 32.5t142.5 18.5q53 5 73 17t27 44l5 25q2 14 2 19q0 26 -28 41.5t-76 15.5q-59 0 -92 -22t-49 -71h-84q21 77 53 109q63 61 193 61q55 0 101 -18.5t58 -46.5q73 65 182 65q76 0 131.5 -50t55.5 -119q0 -44 -14 -119l-3 -17h-386 q-5 -22 -5 -53v-18q2 -37 36.5 -69t90.5 -32q99 0 153 97h84q-23 -76 -93 -125t-160 -49q-117 0 -174 102q-105 -102 -241 -102q-66 0 -105 31t-39 89zM98 119q0 -62 91 -62q63 0 118.5 35t65.5 80l18 85q-43 -15 -142 -28q-81 -11 -116 -37t-35 -73zM480 306h294q3 22 3 33 q0 56 -31 89.5t-84 33.5q-62 0 -110.5 -41.5t-71.5 -114.5z" />
<glyph unicode="&#xe7;" horiz-adv-x="500" d="M27 174q0 160 84 262.5t220 102.5q77 0 125 -43.5t48 -103.5q0 -1 -0.5 -5t-1 -11t-0.5 -13l-1 -15h-84q1 9 1 22q0 43 -27.5 67.5t-74.5 24.5q-87 0 -144 -83t-57 -194q0 -58 31 -90.5t83 -32.5q112 0 155 118h84q-29 -98 -85.5 -144t-145.5 -50l-21 -40h21 q27 0 47 -20.5t20 -46.5q0 -51 -40.5 -80t-104.5 -29q-51 0 -118 34l28 38q57 -29 94 -29q28 0 45.5 15.5t17.5 39.5q0 17 -9 27.5t-22 10.5q-14 0 -27 -4l-23 6l41 79q-74 9 -116.5 60t-42.5 127z" />
<glyph unicode="&#xe8;" d="M35 177q0 61 24 134t59 120q37 50 96.5 79t124.5 29q81 0 136 -49.5t55 -121.5q0 -42 -14 -117l-2 -13h-386q-6 -24 -5 -46q0 -63 32.5 -96.5t92.5 -33.5q100 0 154 97h84q-23 -80 -92 -127t-160 -47q-89 0 -144 56t-55 136zM146 310h294q2 24 2 29q0 56 -31.5 89.5 t-84.5 33.5q-60 0 -110.5 -43t-69.5 -109zM205 729h112l65 -148h-60z" />
<glyph unicode="&#xe9;" d="M35 177q0 61 24 134t59 120q37 50 96.5 79t124.5 29q81 0 136 -49.5t55 -121.5q0 -42 -14 -117l-2 -13h-386q-6 -24 -5 -46q0 -63 32.5 -96.5t92.5 -33.5q100 0 154 97h84q-23 -80 -92 -127t-160 -47q-89 0 -144 56t-55 136zM146 310h294q2 24 2 29q0 56 -31.5 89.5 t-84.5 33.5q-60 0 -110.5 -43t-69.5 -109zM321 581l128 148h112l-180 -148h-60z" />
<glyph unicode="&#xea;" d="M35 177q0 61 24 134t59 120q37 50 96.5 79t124.5 29q81 0 136 -49.5t55 -121.5q0 -42 -14 -117l-2 -13h-386q-6 -24 -5 -46q0 -63 32.5 -96.5t92.5 -33.5q100 0 154 97h84q-23 -80 -92 -127t-160 -47q-89 0 -144 56t-55 136zM146 310h294q2 24 2 29q0 56 -31.5 89.5 t-84.5 33.5q-60 0 -110.5 -43t-69.5 -109zM207 580l128 150h95l64 -150h-63l-56 99l-104 -99h-64z" />
<glyph unicode="&#xeb;" d="M35 177q0 61 24 134t59 120q37 50 96.5 79t124.5 29q81 0 136 -49.5t55 -121.5q0 -42 -14 -117l-2 -13h-386q-6 -24 -5 -46q0 -63 32.5 -96.5t92.5 -33.5q100 0 154 97h84q-23 -80 -92 -127t-160 -47q-89 0 -144 56t-55 136zM146 310h294q2 24 2 29q0 56 -31.5 89.5 t-84.5 33.5q-60 0 -110.5 -43t-69.5 -109zM229 604l22 102h91l-22 -102h-91zM391 604l22 102h91l-22 -102h-91z" />
<glyph unicode="&#xec;" horiz-adv-x="278" d="M47 0l111 524h84l-111 -524h-84zM78 729h112l65 -148h-60z" />
<glyph unicode="&#xed;" horiz-adv-x="278" d="M47 0l111 524h84l-111 -524h-84zM171 581l128 148h112l-180 -148h-60z" />
<glyph unicode="&#xee;" horiz-adv-x="278" d="M47 0l111 524h84l-111 -524h-84zM68 580l128 150h95l64 -150h-63l-56 99l-104 -99h-64z" />
<glyph unicode="&#xef;" horiz-adv-x="278" d="M47 0l111 524h84l-111 -524h-84zM90 604l22 102h91l-22 -102h-91zM252 604l22 102h91l-22 -102h-91z" />
<glyph unicode="&#xf0;" d="M32 172q-1 92 32.5 174t101 135t153.5 53q32 0 66 -17q-38 50 -84 92l-100 -45l-32 39l89 41q-11 10 -17 14.5t-9.5 5.5t-16 10t-32.5 24l42 45l22 -14q34 -20 80 -53l99 43l39 -38l-95 -41q156 -134 156 -293q0 -152 -85 -257t-216 -105q-89 0 -141 52.5t-52 134.5z M120 192q0 -60 31 -95t84 -35q88 0 145.5 79t57.5 192q0 61 -31 95t-86 34q-87 0 -144 -79.5t-57 -190.5z" />
<glyph unicode="&#xf1;" d="M20 0l111 524h76l-13 -65q78 80 194 80q62 0 99 -34t37 -91q0 -21 -4 -38l-80 -376h-84l74 349q6 32 6 37q0 35 -25 58t-62 23q-68 0 -117.5 -48t-66.5 -130l-61 -289h-84zM189 601q19 55 43 79t61 24q7 0 64.5 -16t71.5 -16q15 0 24.5 7.5t23.5 29.5h53q-16 -49 -45 -78 t-63 -29q-27 0 -103 26q-17 6 -27 6q-17 0 -26 -6.5t-24 -26.5h-53z" />
<glyph unicode="&#xf2;" d="M31 168q0 100 36 184t106 135.5t161 51.5q88 0 140 -53t52 -134q0 -158 -85 -262.5t-220 -104.5q-85 0 -137.5 50t-52.5 133zM119 188q0 -59 31 -92.5t85 -33.5q88 0 145.5 79t57.5 192q0 61 -31 95t-86 34q-87 0 -144.5 -81.5t-57.5 -192.5zM196 729h112l65 -148h-60z " />
<glyph unicode="&#xf3;" d="M31 168q0 100 36 184t106 135.5t161 51.5q88 0 140 -53t52 -134q0 -158 -85 -262.5t-220 -104.5q-85 0 -137.5 50t-52.5 133zM119 188q0 -59 31 -92.5t85 -33.5q88 0 145.5 79t57.5 192q0 61 -31 95t-86 34q-87 0 -144.5 -81.5t-57.5 -192.5zM312 581l128 148h112 l-180 -148h-60z" />
<glyph unicode="&#xf4;" d="M31 168q0 100 36 184t106 135.5t161 51.5q88 0 140 -53t52 -134q0 -158 -85 -262.5t-220 -104.5q-85 0 -137.5 50t-52.5 133zM119 188q0 -59 31 -92.5t85 -33.5q88 0 145.5 79t57.5 192q0 61 -31 95t-86 34q-87 0 -144.5 -81.5t-57.5 -192.5zM198 580l128 150h95l64 -150 h-63l-56 99l-104 -99h-64z" />
<glyph unicode="&#xf5;" d="M31 168q0 100 36 184t106 135.5t161 51.5q88 0 140 -53t52 -134q0 -158 -85 -262.5t-220 -104.5q-85 0 -137.5 50t-52.5 133zM119 188q0 -59 31 -92.5t85 -33.5q88 0 145.5 79t57.5 192q0 61 -31 95t-86 34q-87 0 -144.5 -81.5t-57.5 -192.5zM180 601q19 55 43 79t61 24 q7 0 64.5 -16t71.5 -16q15 0 24.5 7.5t23.5 29.5h53q-16 -49 -45 -78t-63 -29q-27 0 -103 26q-16 6 -27 6q-17 0 -26 -6.5t-24 -26.5h-53z" />
<glyph unicode="&#xf6;" d="M31 168q0 100 36 184t106 135.5t161 51.5q88 0 140 -53t52 -134q0 -158 -85 -262.5t-220 -104.5q-85 0 -137.5 50t-52.5 133zM119 188q0 -59 31 -92.5t85 -33.5q88 0 145.5 79t57.5 192q0 61 -31 95t-86 34q-87 0 -144.5 -81.5t-57.5 -192.5zM220 604l22 102h91l-22 -102 h-91zM382 604l22 102h91l-22 -102h-91z" />
<glyph unicode="&#xf7;" horiz-adv-x="584" d="M68 216v68h448v-68h-448zM240 68q0 21 15 36.5t37 15.5t37 -15.5t15 -36.5q0 -22 -15 -37t-37 -15t-37 15t-15 37zM240 432q0 22 15 37t37 15t37 -15t15 -37q0 -21 -15 -36.5t-37 -15.5t-37 15.5t-15 36.5z" />
<glyph unicode="&#xf8;" horiz-adv-x="611" d="M-10 21l61 58q-20 38 -20 89q0 100 36 184t106 135.5t161 51.5q92 0 145 -58l58 53l30 -31l-62 -59q21 -41 21 -92q0 -158 -85 -262.5t-220 -104.5q-90 0 -144 57l-56 -52zM119 188q0 -26 5 -42l290 273q-31 43 -93 43q-87 0 -144.5 -81.5t-57.5 -192.5zM143 104 q31 -42 92 -42q88 0 145.5 79t57.5 192q0 21 -5 44z" />
<glyph unicode="&#xf9;" d="M40 94q0 19 3 34l84 396h84l-77 -363q-3 -15 -3 -27q0 -35 24 -56t65 -21q64 0 113 48.5t66 129.5l61 289h84l-111 -524h-76l13 61q-83 -76 -192 -76q-65 0 -101.5 29t-36.5 80zM205 729h112l65 -148h-60z" />
<glyph unicode="&#xfa;" d="M40 94q0 19 3 34l84 396h84l-77 -363q-3 -15 -3 -27q0 -35 24 -56t65 -21q64 0 113 48.5t66 129.5l61 289h84l-111 -524h-76l13 61q-83 -76 -192 -76q-65 0 -101.5 29t-36.5 80zM321 581l128 148h112l-180 -148h-60z" />
<glyph unicode="&#xfb;" d="M40 94q0 19 3 34l84 396h84l-77 -363q-3 -15 -3 -27q0 -35 24 -56t65 -21q64 0 113 48.5t66 129.5l61 289h84l-111 -524h-76l13 61q-83 -76 -192 -76q-65 0 -101.5 29t-36.5 80zM207 580l128 150h95l64 -150h-63l-56 99l-104 -99h-64z" />
<glyph unicode="&#xfc;" d="M40 94q0 19 3 34l84 396h84l-77 -363q-3 -15 -3 -27q0 -35 24 -56t65 -21q64 0 113 48.5t66 129.5l61 289h84l-111 -524h-76l13 61q-83 -76 -192 -76q-65 0 -101.5 29t-36.5 80zM229 604l22 102h91l-22 -102h-91zM391 604l22 102h91l-22 -102h-91z" />
<glyph unicode="&#xfd;" horiz-adv-x="500" d="M-42 -208l16 75q36 -4 44 -4q28 0 44 10.5t36 41.5l52 81l-68 528h90l46 -407l233 407h89l-368 -634q-63 -108 -165 -108q-26 0 -49 10zM293 581l128 148h112l-180 -148h-60z" />
<glyph unicode="&#xfe;" d="M-43 -213l200 942h84l-61 -289q22 43 73.5 71t108.5 28q80 0 127 -52.5t47 -142.5q2 -147 -81 -253t-209 -106q-53 0 -86.5 21t-56.5 70l-62 -289h-84zM135 192q0 -60 32 -95t87 -35q82 0 139 80.5t55 181.5q0 65 -31.5 101.5t-87.5 36.5q-81 0 -137.5 -81t-56.5 -189z " />
<glyph unicode="&#xff;" horiz-adv-x="500" d="M-42 -208l16 75q36 -4 44 -4q28 0 44 10.5t36 41.5l52 81l-68 528h90l46 -407l233 407h89l-368 -634q-63 -108 -165 -108q-26 0 -49 10zM201 604l22 102h91l-22 -102h-91zM363 604l22 102h91l-22 -102h-91z" />
<glyph unicode="&#x100;" horiz-adv-x="667" d="M-33 0l415 729h120l101 -729h-102l-27 219h-285l-123 -219h-99zM233 297h231l-40 333zM320 816l15 69h275l-15 -69h-275z" />
<glyph unicode="&#x101;" d="M16 109q0 89 81 140q36 23 79.5 33t145.5 20q54 5 75 17t26 42l3 18q2 16 2 19q0 28 -30.5 46t-75.5 18q-108 0 -137 -93h-84q14 83 76.5 126.5t166.5 43.5q79 0 126.5 -31t47.5 -82q0 -10 -6 -37l-61 -287q-1 -3 -1 -10q0 -29 38 -29q8 0 17 2l-13 -65q-51 -9 -53 -9 q-39 0 -59 11.5t-20 40.5l1 15q-53 -44 -98.5 -58.5t-101.5 -14.5q-68 0 -106.5 32.5t-38.5 91.5zM104 119q0 -62 90 -62q66 0 122.5 34.5t66.5 80.5l18 86q-43 -15 -146 -29q-80 -11 -115.5 -37t-35.5 -73zM221 621l15 69h275l-15 -69h-275z" />
<glyph unicode="&#x102;" horiz-adv-x="667" d="M-33 0l415 729h120l101 -729h-102l-27 219h-285l-123 -219h-99zM233 297h231l-40 333zM294 882q0 10 6 28h64v-10q0 -19 27 -30t71 -11q113 0 132 51h67q-21 -56 -80.5 -87.5t-136.5 -31.5q-66 0 -108 27t-42 64z" />
<glyph unicode="&#x103;" d="M16 109q0 89 81 140q36 23 79.5 33t145.5 20q54 5 75 17t26 42l3 18q2 16 2 19q0 28 -30.5 46t-75.5 18q-108 0 -137 -93h-84q14 83 76.5 126.5t166.5 43.5q79 0 126.5 -31t47.5 -82q0 -10 -6 -37l-61 -287q-1 -3 -1 -10q0 -29 38 -29q8 0 17 2l-13 -65q-51 -9 -53 -9 q-39 0 -59 11.5t-20 40.5l1 15q-53 -44 -98.5 -58.5t-101.5 -14.5q-68 0 -106.5 32.5t-38.5 91.5zM104 119q0 -62 90 -62q66 0 122.5 34.5t66.5 80.5l18 86q-43 -15 -146 -29q-80 -11 -115.5 -37t-35.5 -73zM226 687q0 12 5 36h53v-13q0 -22 22.5 -36t59.5 -14q94 0 110 63 h56q-17 -68 -65 -101.5t-114 -33.5q-56 0 -91.5 27.5t-35.5 71.5z" />
<glyph unicode="&#x104;" horiz-adv-x="667" d="M-33 0l415 729h120l101 -729q-43 0 -90 -53q-26 -29 -26 -58q0 -41 32 -41h49l-14 -78h-50q-42 0 -69.5 21.5t-27.5 56.5q0 44 25.5 85.5t68.5 66.5l-27 219h-285l-123 -219h-99zM233 297h231l-40 333z" />
<glyph unicode="&#x105;" d="M16 109q0 89 81 140q36 23 79.5 33t145.5 20q54 5 75 17t26 42l3 18q2 16 2 19q0 28 -30.5 46t-75.5 18q-108 0 -137 -93h-84q14 83 76.5 126.5t166.5 43.5q79 0 126.5 -31t47.5 -82q0 -10 -6 -37l-61 -287q-1 -3 -1 -10q0 -29 38 -29q8 0 17 2l-13 -65l-23 -4 q-28 -6 -67 -49q-26 -29 -26 -58q0 -41 32 -41h49l-14 -78h-50q-42 0 -69.5 21.5t-27.5 56.5q0 81 100 148q-36 9 -36 47l1 15q-53 -44 -98.5 -58.5t-101.5 -14.5q-68 0 -106.5 32.5t-38.5 91.5zM104 119q0 -62 90 -62q66 0 122.5 34.5t66.5 80.5l18 86q-43 -15 -146 -29 q-80 -11 -115.5 -37t-35.5 -73z" />
<glyph unicode="&#x106;" horiz-adv-x="722" d="M63 247q0 94 34.5 191t93.5 168q117 141 292 141q106 0 168.5 -62t68.5 -182h-96q-12 163 -158 163q-136 0 -226 -133q-81 -121 -81 -268q0 -91 47.5 -146.5t125.5 -55.5q94 0 150 46.5t105 156.5h98q-64 -151 -149.5 -217.5t-217.5 -66.5q-119 0 -187 72t-68 193z M454 783l154 133h134l-216 -133h-72z" />
<glyph unicode="&#x107;" horiz-adv-x="500" d="M27 174q0 160 84 262.5t220 102.5q77 0 125 -43.5t48 -103.5q0 -1 -0.5 -5t-1 -11t-0.5 -13l-1 -15h-84q1 9 1 22q0 43 -27.5 67.5t-74.5 24.5q-87 0 -144 -83t-57 -194q0 -58 31 -90.5t83 -32.5q112 0 155 118h84q-30 -104 -91.5 -149.5t-161.5 -45.5q-86 0 -137 53 t-51 136zM293 581l128 148h112l-180 -148h-60z" />
<glyph unicode="&#x108;" horiz-adv-x="722" d="M63 247q0 94 34.5 191t93.5 168q117 141 292 141q106 0 168.5 -62t68.5 -182h-96q-12 163 -158 163q-136 0 -226 -133q-81 -121 -81 -268q0 -91 47.5 -146.5t125.5 -55.5q94 0 150 46.5t105 156.5h98q-64 -151 -149.5 -217.5t-217.5 -66.5q-119 0 -187 72t-68 193z M318 783l154 135h114l76 -135h-75l-67 89l-125 -89h-77z" />
<glyph unicode="&#x109;" horiz-adv-x="500" d="M27 174q0 160 84 262.5t220 102.5q77 0 125 -43.5t48 -103.5q0 -1 -0.5 -5t-1 -11t-0.5 -13l-1 -15h-84q1 9 1 22q0 43 -27.5 67.5t-74.5 24.5q-87 0 -144 -83t-57 -194q0 -58 31 -90.5t83 -32.5q112 0 155 118h84q-30 -104 -91.5 -149.5t-161.5 -45.5q-86 0 -137 53 t-51 136zM179 580l128 150h95l64 -150h-63l-56 99l-104 -99h-64z" />
<glyph unicode="&#x10a;" horiz-adv-x="722" d="M63 247q0 94 34.5 191t93.5 168q117 141 292 141q106 0 168.5 -62t68.5 -182h-96q-12 163 -158 163q-136 0 -226 -133q-81 -121 -81 -268q0 -91 47.5 -146.5t125.5 -55.5q94 0 150 46.5t105 156.5h98q-64 -151 -149.5 -217.5t-217.5 -66.5q-119 0 -187 72t-68 193z M442 799l22 103h104l-22 -103h-104z" />
<glyph unicode="&#x10b;" horiz-adv-x="500" d="M27 174q0 160 84 262.5t220 102.5q77 0 125 -43.5t48 -103.5q0 -1 -0.5 -5t-1 -11t-0.5 -13l-1 -15h-84q1 9 1 22q0 43 -27.5 67.5t-74.5 24.5q-87 0 -144 -83t-57 -194q0 -58 31 -90.5t83 -32.5q112 0 155 118h84q-30 -104 -91.5 -149.5t-161.5 -45.5q-86 0 -137 53 t-51 136zM275 604l22 103h104l-22 -103h-104z" />
<glyph unicode="&#x10c;" horiz-adv-x="722" d="M63 247q0 94 34.5 191t93.5 168q117 141 292 141q106 0 168.5 -62t68.5 -182h-96q-12 163 -158 163q-136 0 -226 -133q-81 -121 -81 -268q0 -91 47.5 -146.5t125.5 -55.5q94 0 150 46.5t105 156.5h98q-64 -151 -149.5 -217.5t-217.5 -66.5q-119 0 -187 72t-68 193z M348 918h75l67 -89l125 89h77l-154 -135h-114z" />
<glyph unicode="&#x10d;" horiz-adv-x="500" d="M27 174q0 160 84 262.5t220 102.5q77 0 125 -43.5t48 -103.5q0 -1 -0.5 -5t-1 -11t-0.5 -13l-1 -15h-84q1 9 1 22q0 43 -27.5 67.5t-74.5 24.5q-87 0 -144 -83t-57 -194q0 -58 31 -90.5t83 -32.5q112 0 155 118h84q-30 -104 -91.5 -149.5t-161.5 -45.5q-86 0 -137 53 t-51 136zM211 730h63l56 -99l104 99h64l-128 -150h-95z" />
<glyph unicode="&#x10e;" horiz-adv-x="722" d="M39 0l155 729h282q109 0 171 -67.5t62 -173.5q0 -206 -112.5 -347t-275.5 -141h-282zM150 82h172q129 0 210 112.5t81 285.5q0 78 -45.5 122.5t-125.5 44.5h-171zM328 918h75l67 -89l125 89h77l-154 -135h-114z" />
<glyph unicode="&#x10f;" d="M24 174q0 158 82 261.5t207 103.5q53 0 86 -21t57 -70l60 281h84l-155 -729h-81l17 80q-22 -42 -76 -68.5t-109 -26.5q-78 0 -125 51t-47 138zM112 194q0 -64 31 -98t87 -34q79 0 136 79t57 186q0 64 -31 99.5t-87 35.5q-81 0 -137 -80t-56 -188zM620 505l8 38 q58 0 74 88h-55l21 98h100l-19 -93q-14 -62 -48 -96.5t-81 -34.5z" />
<glyph unicode="&#x110;" horiz-adv-x="722" d="M39 0l72 341h-68l13 67h70l68 321h282q109 0 171 -67.5t62 -173.5q0 -206 -112.5 -347t-275.5 -141h-282zM150 82h172q129 0 210 112.5t81 285.5q0 79 -45.5 123t-125.5 44h-171l-51 -239h166l-14 -67h-167z" />
<glyph unicode="&#x111;" d="M24 174q0 76 23 147t63 119q82 99 203 99q53 0 86 -21t57 -70l32 152h-150l12 53h150l16 76h84l-16 -76h61l-11 -53h-62l-127 -600h-81l18 84q-19 -38 -57 -61q-63 -38 -129 -38q-78 0 -125 51t-47 138zM112 194q0 -64 31 -98t87 -34q92 0 148 97q45 78 45 168 q0 64 -31 99.5t-87 35.5q-94 0 -150 -101q-43 -81 -43 -167z" />
<glyph unicode="&#x112;" horiz-adv-x="667" d="M40 0l155 729h506l-17 -82h-412l-50 -233h396l-18 -82h-395l-54 -250h429l-17 -82h-523zM326 816l15 69h275l-15 -69h-275z" />
<glyph unicode="&#x113;" d="M35 177q0 61 24 134t59 120q37 50 96.5 79t124.5 29q81 0 136 -49.5t55 -121.5q0 -42 -14 -117l-2 -13h-386q-6 -24 -5 -46q0 -63 32.5 -96.5t92.5 -33.5q100 0 154 97h84q-23 -80 -92 -127t-160 -47q-89 0 -144 56t-55 136zM146 310h294q2 24 2 29q0 56 -31.5 89.5 t-84.5 33.5q-60 0 -110.5 -43t-69.5 -109zM220 621l15 69h275l-15 -69h-275z" />
<glyph unicode="&#x114;" horiz-adv-x="667" d="M40 0l155 729h506l-17 -82h-412l-50 -233h396l-18 -82h-395l-54 -250h429l-17 -82h-523zM300 882q0 10 6 28h64v-10q0 -19 27 -30t71 -11q113 0 132 51h67q-21 -56 -80.5 -87.5t-136.5 -31.5q-66 0 -108 27t-42 64z" />
<glyph unicode="&#x115;" d="M35 177q0 61 24 134t59 120q37 50 96.5 79t124.5 29q81 0 136 -49.5t55 -121.5q0 -42 -14 -117l-2 -13h-386q-6 -24 -5 -46q0 -63 32.5 -96.5t92.5 -33.5q100 0 154 97h84q-23 -80 -92 -127t-160 -47q-89 0 -144 56t-55 136zM146 310h294q2 24 2 29q0 56 -31.5 89.5 t-84.5 33.5q-60 0 -110.5 -43t-69.5 -109zM225 687q0 12 5 36h53v-13q0 -22 22.5 -36t59.5 -14q94 0 110 63h56q-17 -68 -65 -101.5t-114 -33.5q-56 0 -91.5 27.5t-35.5 71.5z" />
<glyph unicode="&#x116;" horiz-adv-x="667" d="M40 0l155 729h506l-17 -82h-412l-50 -233h396l-18 -82h-395l-54 -250h429l-17 -82h-523zM410 799l22 103h104l-22 -103h-104z" />
<glyph unicode="&#x117;" d="M35 177q0 61 24 134t59 120q37 50 96.5 79t124.5 29q81 0 136 -49.5t55 -121.5q0 -42 -14 -117l-2 -13h-386q-6 -24 -5 -46q0 -63 32.5 -96.5t92.5 -33.5q100 0 154 97h84q-23 -80 -92 -127t-160 -47q-89 0 -144 56t-55 136zM146 310h294q2 24 2 29q0 56 -31.5 89.5 t-84.5 33.5q-60 0 -110.5 -43t-69.5 -109zM303 604l22 103h104l-22 -103h-104z" />
<glyph unicode="&#x118;" horiz-adv-x="667" d="M40 0l155 729h506l-17 -82h-412l-50 -233h396l-18 -82h-395l-54 -250h429l-17 -82q-43 0 -90 -53q-26 -29 -26 -58q0 -41 32 -41h49l-14 -78h-50q-42 0 -69.5 21.5t-27.5 56.5q0 85 107 152h-434z" />
<glyph unicode="&#x119;" d="M35 177q0 61 24 134t59 120q37 50 96.5 79t124.5 29q81 0 136 -49.5t55 -121.5q0 -42 -14 -117l-2 -13h-386q-6 -24 -5 -46q0 -63 32.5 -96.5t92.5 -33.5q100 0 154 97h84q-16 -56 -55.5 -96.5t-95.5 -60.5q-46 -16 -78 -46.5t-32 -66.5q0 -41 32 -41h49l-14 -78h-50 q-42 0 -69.5 21.5t-27.5 56.5q0 76 85 137q-88 1 -141.5 56.5t-53.5 135.5zM146 310h294q2 24 2 29q0 56 -31.5 89.5t-84.5 33.5q-60 0 -110.5 -43t-69.5 -109z" />
<glyph unicode="&#x11a;" horiz-adv-x="667" d="M40 0l155 729h506l-17 -82h-412l-50 -233h396l-18 -82h-395l-54 -250h429l-17 -82h-523zM316 918h75l67 -89l125 89h77l-154 -135h-114z" />
<glyph unicode="&#x11b;" d="M35 177q0 61 24 134t59 120q37 50 96.5 79t124.5 29q81 0 136 -49.5t55 -121.5q0 -42 -14 -117l-2 -13h-386q-6 -24 -5 -46q0 -63 32.5 -96.5t92.5 -33.5q100 0 154 97h84q-23 -80 -92 -127t-160 -47q-89 0 -144 56t-55 136zM146 310h294q2 24 2 29q0 56 -31.5 89.5 t-84.5 33.5q-60 0 -110.5 -43t-69.5 -109zM239 730h63l56 -99l104 99h64l-128 -150h-95z" />
<glyph unicode="&#x11c;" horiz-adv-x="778" d="M60 266q0 118 55 227.5t159 181.5t232 72q117 0 185 -60.5t68 -161.5v-17h-91q-1 75 -51 116.5t-129 41.5q-140 0 -236 -115t-96 -269q0 -105 51.5 -162t154.5 -57q98 0 175.5 59t99.5 155l6 26h-222l18 82h304l-82 -385h-59l-5 86q-69 -58 -129 -81t-139 -23 q-121 0 -195 75t-74 209zM341 783l154 135h114l76 -135h-75l-67 89l-125 -89h-77z" />
<glyph unicode="&#x11d;" d="M-18 -91q0 10 1 18l1 13h84v-14q0 -34 28.5 -53t79.5 -19q80 0 123.5 44t65.5 146l4 20q-76 -79 -172 -79q-77 0 -125 51t-48 133q0 148 84 259t211 111q96 0 139 -93l17 78h76l-93 -439q-20 -95 -43 -147.5t-61 -88.5q-70 -67 -195 -67q-80 0 -128.5 34.5t-48.5 92.5z M112 185q0 -59 29.5 -93.5t79.5 -34.5q87 0 142.5 83.5t55.5 198.5q0 56 -29 89.5t-77 33.5q-86 0 -143.5 -84t-57.5 -193zM207 580l128 150h95l64 -150h-63l-56 99l-104 -99h-64z" />
<glyph unicode="&#x11e;" horiz-adv-x="778" d="M60 266q0 118 55 227.5t159 181.5t232 72q117 0 185 -60.5t68 -161.5v-17h-91q-1 75 -51 116.5t-129 41.5q-140 0 -236 -115t-96 -269q0 -105 51.5 -162t154.5 -57q98 0 175.5 59t99.5 155l6 26h-222l18 82h304l-82 -385h-59l-5 86q-69 -58 -129 -81t-139 -23 q-121 0 -195 75t-74 209zM354 882q0 10 6 28h64v-10q0 -19 27 -30t71 -11q113 0 132 51h67q-21 -56 -80.5 -87.5t-136.5 -31.5q-66 0 -108 27t-42 64z" />
<glyph unicode="&#x11f;" d="M-18 -91q0 10 1 18l1 13h84v-14q0 -34 28.5 -53t79.5 -19q80 0 123.5 44t65.5 146l4 20q-76 -79 -172 -79q-77 0 -125 51t-48 133q0 148 84 259t211 111q96 0 139 -93l17 78h76l-93 -439q-20 -95 -43 -147.5t-61 -88.5q-70 -67 -195 -67q-80 0 -128.5 34.5t-48.5 92.5z M112 185q0 -59 29.5 -93.5t79.5 -34.5q87 0 142.5 83.5t55.5 198.5q0 56 -29 89.5t-77 33.5q-86 0 -143.5 -84t-57.5 -193zM225 687q0 12 5 36h53v-13q0 -22 22.5 -36t59.5 -14q94 0 110 63h56q-17 -68 -65 -101.5t-114 -33.5q-56 0 -91.5 27.5t-35.5 71.5z" />
<glyph unicode="&#x120;" horiz-adv-x="778" d="M60 266q0 118 55 227.5t159 181.5t232 72q117 0 185 -60.5t68 -161.5v-17h-91q-1 75 -51 116.5t-129 41.5q-140 0 -236 -115t-96 -269q0 -105 51.5 -162t154.5 -57q98 0 175.5 59t99.5 155l6 26h-222l18 82h304l-82 -385h-59l-5 86q-69 -58 -129 -81t-139 -23 q-121 0 -195 75t-74 209zM465 799l22 103h104l-22 -103h-104z" />
<glyph unicode="&#x121;" d="M-18 -91q0 10 1 18l1 13h84v-14q0 -34 28.5 -53t79.5 -19q80 0 123.5 44t65.5 146l4 20q-76 -79 -172 -79q-77 0 -125 51t-48 133q0 148 84 259t211 111q96 0 139 -93l17 78h76l-93 -439q-20 -95 -43 -147.5t-61 -88.5q-70 -67 -195 -67q-80 0 -128.5 34.5t-48.5 92.5z M112 185q0 -59 29.5 -93.5t79.5 -34.5q87 0 142.5 83.5t55.5 198.5q0 56 -29 89.5t-77 33.5q-86 0 -143.5 -84t-57.5 -193zM303 604l22 103h104l-22 -103h-104z" />
<glyph unicode="&#x122;" horiz-adv-x="778" d="M60 266q0 118 55 227.5t159 181.5t232 72q117 0 185 -60.5t68 -161.5v-17h-91q-1 75 -51 116.5t-129 41.5q-140 0 -236 -115t-96 -269q0 -105 51.5 -162t154.5 -57q98 0 175.5 59t99.5 155l6 26h-222l18 82h304l-82 -385h-59l-5 86q-69 -58 -129 -81t-139 -23 q-121 0 -195 75t-74 209zM235 -284l8 38q58 0 74 88h-55l21 98h100l-19 -93q-14 -62 -48 -96.5t-81 -34.5z" />
<glyph unicode="&#x123;" d="M-18 -91q0 10 1 18l1 13h84v-14q0 -34 28.5 -53t79.5 -19q80 0 123.5 44t65.5 146l4 20q-76 -79 -172 -79q-77 0 -125 51t-48 133q0 148 84 259t211 111q96 0 139 -93l17 78h76l-93 -439q-20 -95 -43 -147.5t-61 -88.5q-70 -67 -195 -67q-80 0 -128.5 34.5t-48.5 92.5z M112 185q0 -59 29.5 -93.5t79.5 -34.5q87 0 142.5 83.5t55.5 198.5q0 56 -29 89.5t-77 33.5q-86 0 -143.5 -84t-57.5 -193zM301 577l19 93q14 62 48 96.5t81 34.5l-8 -38q-58 0 -74 -88h55l-21 -98h-100z" />
<glyph unicode="&#x124;" horiz-adv-x="722" d="M33 0l155 729h94l-67 -315h373l67 315h94l-155 -729h-94l71 332h-373l-71 -332h-94zM308 783l154 135h114l76 -135h-75l-67 89l-125 -89h-77z" />
<glyph unicode="&#x125;" d="M20 0l155 729h84l-57 -270q47 44 89 62t98 18q63 0 99 -33.5t36 -92.5q0 -20 -4 -37l-80 -376h-84l73 343q6 27 6 39q0 38 -23.5 61.5t-61.5 23.5q-68 0 -118 -48t-67 -130l-61 -289h-84zM222 783l154 135h114l76 -135h-75l-67 89l-125 -89h-77z" />
<glyph unicode="&#x126;" horiz-adv-x="722" d="M33 0l119 560h-46l10 46h46l26 123h94l-26 -123h373l26 123h94l-26 -123h46l-10 -46h-46l-119 -560h-94l71 332h-373l-71 -332h-94zM215 414h373l31 146h-373z" />
<glyph unicode="&#x127;" horiz-adv-x="597" d="M59 0l110 516l-45 -17l11 50l44 17l35 163h84l-27 -129l134 51l-10 -49l-135 -51l-19 -92q47 44 89 62t98 18q63 0 99 -33.5t36 -92.5q0 -20 -4 -37l-80 -376h-84l73 343q6 27 6 39q0 38 -23.5 61.5t-61.5 23.5q-68 0 -118 -48t-67 -130l-61 -289h-84z" />
<glyph unicode="&#x128;" horiz-adv-x="278" d="M50 0l155 729h94l-155 -729h-94zM100 796q19 55 43 79t61 24q7 0 64.5 -16t71.5 -16q15 0 24.5 7.5t23.5 29.5h53q-16 -49 -45 -78t-63 -29q-27 0 -103 26q-17 6 -27 6q-17 0 -26 -6.5t-24 -26.5h-53z" />
<glyph unicode="&#x129;" horiz-adv-x="278" d="M47 0l111 524h84l-111 -524h-84zM50 601q19 55 43 79t61 24q7 0 64.5 -16t71.5 -16q15 0 24.5 7.5t23.5 29.5h53q-16 -49 -45 -78t-63 -29q-27 0 -103 26q-16 6 -27 6q-17 0 -26 -6.5t-24 -26.5h-53z" />
<glyph unicode="&#x12a;" horiz-adv-x="278" d="M50 0l155 729h94l-155 -729h-94zM130 816l15 69h275l-15 -69h-275z" />
<glyph unicode="&#x12b;" horiz-adv-x="278" d="M47 0l111 524h84l-111 -524h-84zM81 621l15 69h275l-15 -69h-275z" />
<glyph unicode="&#x12c;" horiz-adv-x="278" d="M50 0l155 729h94l-155 -729h-94zM104 882q0 10 6 28h64v-10q0 -19 27 -30t71 -11q113 0 132 51h67q-21 -56 -80.5 -87.5t-136.5 -31.5q-66 0 -108 27t-42 64z" />
<glyph unicode="&#x12d;" horiz-adv-x="278" d="M47 0l111 524h84l-111 -524h-84zM86 687q0 12 5 36h53v-13q0 -22 22.5 -36t59.5 -14q94 0 110 63h56q-17 -68 -65 -101.5t-114 -33.5q-56 0 -91.5 27.5t-35.5 71.5z" />
<glyph unicode="&#x12e;" horiz-adv-x="278" d="M-32 -152q0 85 107 152h-25l155 729h94l-155 -729q-40 -20 -70 -53q-26 -29 -26 -58q0 -41 32 -41h49l-14 -78h-50q-42 0 -69.5 21.5t-27.5 56.5z" />
<glyph unicode="&#x12f;" horiz-adv-x="278" d="M-35 -152q0 85 107 152h-25l111 524h84l-111 -524q-32 -22 -60 -53q-26 -29 -26 -58q0 -41 32 -41h49l-14 -78h-50q-42 0 -69.5 21.5t-27.5 56.5zM164 604l22 103h104l-22 -103h-104z" />
<glyph unicode="&#x130;" horiz-adv-x="278" d="M50 0l155 729h94l-155 -729h-94zM214 799l22 103h104l-22 -103h-104z" />
<glyph unicode="&#x131;" horiz-adv-x="222" d="M19 0l111 524h84l-111 -524h-84z" />
<glyph unicode="&#x134;" horiz-adv-x="500" d="M-2 127q0 23 6 48l13 59h94l-13 -61q-4 -16 -4 -34q0 -34 25 -55t65 -21q56 0 91.5 37t53.5 121l108 508h94l-115 -542q-21 -98 -87 -151.5t-165 -53.5q-78 0 -122 41.5t-44 103.5zM323 783l154 135h114l76 -135h-75l-67 89l-125 -89h-77z" />
<glyph unicode="&#x135;" horiz-adv-x="222" d="M-115 -215l15 71q18 -2 25 -2q38 0 53.5 14t24.5 56l127 600h84l-134 -633q-14 -62 -52 -85.5t-124 -23.5q-8 0 -19 3zM40 580l128 150h95l64 -150h-63l-56 99l-104 -99h-64z" />
<glyph unicode="&#x136;" horiz-adv-x="667" d="M29 0l155 729h94l-79 -373l444 373h120l-361 -298l206 -431h-110l-168 376l-154 -127l-53 -249h-94zM198 -284l8 38q58 0 74 88h-55l21 98h100l-19 -93q-14 -62 -48 -96.5t-81 -34.5z" />
<glyph unicode="&#x137;" horiz-adv-x="500" d="M8 0l155 729h84l-90 -423l269 218h108l-222 -181l140 -343h-96l-114 291l-107 -88l-43 -203h-84zM88 -284l8 38q58 0 74 88h-55l21 98h100l-19 -93q-14 -62 -48 -96.5t-81 -34.5z" />
<glyph unicode="&#x139;" d="M30 0l155 729h94l-138 -647h360l-17 -82h-454zM196 783l154 133h134l-216 -133h-72z" />
<glyph unicode="&#x13a;" horiz-adv-x="222" d="M18 0l155 729h84l-155 -729h-84zM184 783l154 133h134l-216 -133h-72z" />
<glyph unicode="&#x13b;" d="M30 0l155 729h94l-138 -647h360l-17 -82h-454zM145 -284l8 38q58 0 74 88h-55l21 98h100l-19 -93q-14 -62 -48 -96.5t-81 -34.5z" />
<glyph unicode="&#x13c;" horiz-adv-x="222" d="M-51 -284l8 38q58 0 74 88h-55l21 98h100l-19 -93q-14 -62 -48 -96.5t-81 -34.5zM18 0l155 729h84l-155 -729h-84z" />
<glyph unicode="&#x13d;" d="M30 0l155 729h94l-138 -647h360l-17 -82h-454zM299 505l8 38q58 0 74 88h-55l21 98h100l-19 -93q-14 -62 -48 -96.5t-81 -34.5z" />
<glyph unicode="&#x13e;" horiz-adv-x="222" d="M18 0l155 729h84l-155 -729h-84zM277 505l8 38q58 0 74 88h-55l21 98h100l-19 -93q-14 -62 -48 -96.5t-81 -34.5z" />
<glyph unicode="&#x13f;" d="M30 0l155 729h94l-138 -647h360l-17 -82h-454zM373 329l22 103h104l-22 -103h-104z" />
<glyph unicode="&#x140;" horiz-adv-x="324" d="M18 0l155 729h84l-155 -729h-84zM240 329l22 103h104l-22 -103h-104z" />
<glyph unicode="&#x141;" horiz-adv-x="628" d="M45 176l21 96l77 64l84 393h94l-66 -310l151 124l-21 -96l-151 -124l-51 -241h360l-17 -82h-454l51 240z" />
<glyph unicode="&#x142;" horiz-adv-x="305" d="M44 213l20 93l77 73l74 350h84l-51 -239l84 80l-20 -92l-83 -80l-85 -398h-84l61 287z" />
<glyph unicode="&#x143;" horiz-adv-x="722" d="M26 0l155 729h104l250 -598l127 598h89l-155 -729h-106l-249 591l-126 -591h-89zM441 783l154 133h134l-216 -133h-72z" />
<glyph unicode="&#x144;" d="M20 0l111 524h76l-13 -65q78 80 194 80q62 0 99 -34t37 -91q0 -21 -4 -38l-80 -376h-84l74 349q6 32 6 37q0 35 -25 58t-62 23q-68 0 -117.5 -48t-66.5 -130l-61 -289h-84zM321 581l128 148h112l-180 -148h-60z" />
<glyph unicode="&#x145;" horiz-adv-x="722" d="M26 0l155 729h104l250 -598l127 598h89l-155 -729h-106l-249 591l-126 -591h-89zM199 -284l8 38q58 0 74 88h-55l21 98h100l-19 -93q-14 -62 -48 -96.5t-81 -34.5z" />
<glyph unicode="&#x146;" d="M20 0l111 524h76l-13 -65q78 80 194 80q62 0 99 -34t37 -91q0 -21 -4 -38l-80 -376h-84l74 349q6 32 6 37q0 35 -25 58t-62 23q-68 0 -117.5 -48t-66.5 -130l-61 -289h-84zM116 -284l8 38q58 0 74 88h-55l21 98h100l-19 -93q-14 -62 -48 -96.5t-81 -34.5z" />
<glyph unicode="&#x147;" horiz-adv-x="722" d="M26 0l155 729h104l250 -598l127 598h89l-155 -729h-106l-249 591l-126 -591h-89zM334 918h75l67 -89l125 89h77l-154 -135h-114z" />
<glyph unicode="&#x148;" d="M20 0l111 524h76l-13 -65q78 80 194 80q62 0 99 -34t37 -91q0 -21 -4 -38l-80 -376h-84l74 349q6 32 6 37q0 35 -25 58t-62 23q-68 0 -117.5 -48t-66.5 -130l-61 -289h-84zM239 730h63l56 -99l104 99h64l-128 -150h-95z" />
<glyph unicode="&#x14a;" horiz-adv-x="722" d="M26 0l155 729h104l250 -598l127 598h89l-165 -777q-21 -98 -87 -151.5t-165 -53.5q-78 0 -122 41.5t-44 103.5q0 22 6 48l94 -2q-4 -16 -4 -34q0 -34 25 -55t65 -21q47 0 87 25t49 65l11 55l-260 618l-126 -591h-89z" />
<glyph unicode="&#x14b;" d="M20 0l111 524h76l-13 -65q78 80 194 80q62 0 99 -34t37 -91q0 -21 -4 -38l-103 -485q-14 -62 -52 -85.5t-124 -23.5q-9 0 -19 3l15 71q18 -2 25 -2q38 0 53.5 14t24.5 56l90 425q6 32 6 37q0 35 -25 58t-62 23q-68 0 -117.5 -48t-66.5 -130l-61 -289h-84z" />
<glyph unicode="&#x14c;" horiz-adv-x="778" d="M55 268q0 122 57 232t157.5 178.5t218.5 68.5q136 0 213.5 -73t77.5 -204q0 -127 -53 -237.5t-154.5 -180.5t-229.5 -70q-134 0 -210.5 74.5t-76.5 211.5zM151 276q0 -101 55.5 -157t148.5 -56t169.5 56t117.5 144.5t41 188.5q0 101 -55.5 157.5t-151.5 56.5 q-92 0 -167.5 -56t-116.5 -145t-41 -189zM363 816l15 69h275l-15 -69h-275z" />
<glyph unicode="&#x14d;" d="M31 168q0 100 36 184t106 135.5t161 51.5q88 0 140 -53t52 -134q0 -158 -85 -262.5t-220 -104.5q-85 0 -137.5 50t-52.5 133zM119 188q0 -59 31 -92.5t85 -33.5q88 0 145.5 79t57.5 192q0 61 -31 95t-86 34q-87 0 -144.5 -81.5t-57.5 -192.5zM211 621l15 69h275l-15 -69 h-275z" />
<glyph unicode="&#x14e;" horiz-adv-x="778" d="M55 268q0 122 57 232t157.5 178.5t218.5 68.5q136 0 213.5 -73t77.5 -204q0 -127 -53 -237.5t-154.5 -180.5t-229.5 -70q-134 0 -210.5 74.5t-76.5 211.5zM151 276q0 -101 55.5 -157t148.5 -56t169.5 56t117.5 144.5t41 188.5q0 101 -55.5 157.5t-151.5 56.5 q-92 0 -167.5 -56t-116.5 -145t-41 -189zM336 882q0 10 6 28h64v-10q0 -19 27 -30t71 -11q113 0 132 51h67q-21 -56 -80.5 -87.5t-136.5 -31.5q-66 0 -108 27t-42 64z" />
<glyph unicode="&#x14f;" d="M31 168q0 100 36 184t106 135.5t161 51.5q88 0 140 -53t52 -134q0 -158 -85 -262.5t-220 -104.5q-85 0 -137.5 50t-52.5 133zM119 188q0 -59 31 -92.5t85 -33.5q88 0 145.5 79t57.5 192q0 61 -31 95t-86 34q-87 0 -144.5 -81.5t-57.5 -192.5zM216 687q0 12 5 36h53v-13 q0 -22 22.5 -36t59.5 -14q94 0 110 63h56q-17 -68 -65 -101.5t-114 -33.5q-56 0 -91.5 27.5t-35.5 71.5z" />
<glyph unicode="&#x150;" horiz-adv-x="778" d="M55 268q0 122 57 232t157.5 178.5t218.5 68.5q136 0 213.5 -73t77.5 -204q0 -127 -53 -237.5t-154.5 -180.5t-229.5 -70q-134 0 -210.5 74.5t-76.5 211.5zM151 276q0 -101 55.5 -157t148.5 -56t169.5 56t117.5 144.5t41 188.5q0 101 -55.5 157.5t-151.5 56.5 q-92 0 -167.5 -56t-116.5 -145t-41 -189zM365 785l128 150h112l-180 -150h-60zM549 785l128 150h112l-180 -150h-60z" />
<glyph unicode="&#x151;" d="M31 168q0 100 36 184t106 135.5t161 51.5q88 0 140 -53t52 -134q0 -158 -85 -262.5t-220 -104.5q-85 0 -137.5 50t-52.5 133zM119 188q0 -59 31 -92.5t85 -33.5q88 0 145.5 79t57.5 192q0 61 -31 95t-86 34q-87 0 -144.5 -81.5t-57.5 -192.5zM211 580l128 150h112 l-180 -150h-60zM395 580l128 150h112l-180 -150h-60z" />
<glyph unicode="&#x152;" horiz-adv-x="1000" d="M51 219q0 143 53 263t144 189.5t198 69.5q121 0 166 -88l16 76h430l-17 -82h-336l-51 -238h327l-18 -82h-326l-53 -245h340l-17 -82h-434l18 85q-81 -100 -207 -100q-105 0 -169 63t-64 171zM147 222q0 -75 42 -115.5t115 -40.5q125 0 210 124l74 349q-28 121 -158 121 q-133 0 -211 -137q-30 -52 -51 -140.5t-21 -160.5z" />
<glyph unicode="&#x153;" horiz-adv-x="944" d="M37 173q0 61 20.5 129.5t54.5 119.5q78 117 224 117q127 0 172 -103q32 44 94 73.5t123 29.5q81 0 136 -49.5t55 -121.5q0 -42 -14 -117l-3 -17h-386q-7 -36 -7 -58q2 -50 36.5 -82t92.5 -32q99 0 153 97h84q-23 -76 -93 -125t-160 -49q-58 0 -106 27t-70 80 q-38 -51 -94.5 -79t-121.5 -28q-89 0 -139.5 53.5t-50.5 134.5zM125 189q0 -59 30 -93t82 -34q87 0 143.5 78t56.5 194q0 60 -31 94t-85 34q-82 0 -140 -80.5t-56 -192.5zM531 306h294q3 21 3 32q0 57 -31 90.5t-83 33.5q-61 0 -112 -43.5t-71 -112.5z" />
<glyph unicode="&#x154;" horiz-adv-x="722" d="M43 0l155 729h336q96 0 141 -37.5t45 -116.5q0 -74 -34 -124.5t-106 -90.5q35 -23 47.5 -43t12.5 -53q0 -28 -21 -138q-6 -32 -6 -50q0 -34 21 -53l-5 -23h-113q-4 28 -4 47q0 24 3 40.5t21 91.5q8 35 8 60q0 75 -101 75h-239l-67 -314h-94zM221 396h231q83 0 127.5 45.5 t44.5 116.5q0 45 -27 67t-92 22h-230zM423 783l154 133h134l-216 -133h-72z" />
<glyph unicode="&#x155;" horiz-adv-x="333" d="M19 0l111 524h76l-17 -82q46 53 83.5 75t81.5 22q12 0 32 -3l-18 -85h-10q-159 0 -197 -179l-58 -272h-84zM196 581l128 148h112l-180 -148h-60z" />
<glyph unicode="&#x156;" horiz-adv-x="722" d="M43 0l155 729h336q96 0 141 -37.5t45 -116.5q0 -74 -34 -124.5t-106 -90.5q35 -23 47.5 -43t12.5 -53q0 -28 -21 -138q-6 -32 -6 -50q0 -34 21 -53l-5 -23h-113q-4 28 -4 47q0 24 3 40.5t21 91.5q8 35 8 60q0 75 -101 75h-239l-67 -314h-94zM181 -284l8 38q58 0 74 88 h-55l21 98h100l-19 -93q-14 -62 -48 -96.5t-81 -34.5zM221 396h231q83 0 127.5 45.5t44.5 116.5q0 45 -27 67t-92 22h-230z" />
<glyph unicode="&#x157;" horiz-adv-x="333" d="M-51 -284l8 38q58 0 74 88h-55l21 98h100l-19 -93q-14 -62 -48 -96.5t-81 -34.5zM19 0l111 524h76l-17 -82q46 53 83.5 75t81.5 22q12 0 32 -3l-18 -85h-10q-159 0 -197 -179l-58 -272h-84z" />
<glyph unicode="&#x158;" horiz-adv-x="722" d="M43 0l155 729h336q96 0 141 -37.5t45 -116.5q0 -74 -34 -124.5t-106 -90.5q35 -23 47.5 -43t12.5 -53q0 -28 -21 -138q-6 -32 -6 -50q0 -34 21 -53l-5 -23h-113q-4 28 -4 47q0 24 3 40.5t21 91.5q8 35 8 60q0 75 -101 75h-239l-67 -314h-94zM221 396h231q83 0 127.5 45.5 t44.5 116.5q0 45 -27 67t-92 22h-230zM316 918h75l67 -89l125 89h77l-154 -135h-114z" />
<glyph unicode="&#x159;" horiz-adv-x="333" d="M19 0l111 524h76l-17 -82q46 53 83.5 75t81.5 22q12 0 32 -3l-18 -85h-10q-159 0 -197 -179l-58 -272h-84zM114 730h63l56 -99l104 99h64l-128 -150h-95z" />
<glyph unicode="&#x15a;" horiz-adv-x="667" d="M40 174q0 30 9 63h87q-4 -25 -4 -41q0 -68 40 -100.5t125 -32.5q100 0 163.5 43.5t63.5 107.5q0 35 -26.5 59t-86.5 41l-171 49q-50 14 -80.5 51t-30.5 84q0 38 20.5 85.5t51.5 78.5q82 85 238 85q105 0 165.5 -46.5t60.5 -123.5q0 -19 -8 -56h-88q4 27 4 36 q0 109 -152 109q-86 0 -141 -40.5t-55 -101.5q0 -33 21.5 -51t79.5 -35l172 -49q56 -16 89 -56.5t33 -90.5q0 -42 -24.5 -91.5t-62.5 -84.5q-90 -84 -252 -84q-113 0 -177 51t-64 141zM413 783l154 133h134l-216 -133h-72z" />
<glyph unicode="&#x15b;" horiz-adv-x="500" d="M13 113q0 23 6 51h89q-2 -20 -2 -25q0 -37 28 -57t80 -20q59 0 101 27t42 69q0 19 -13.5 33.5t-56.5 25.5l-74 19q-77 19 -107.5 45t-30.5 72q0 81 64 133.5t167 52.5q73 0 118.5 -33t45.5 -85q0 -18 -6 -43h-84q1 8 1 22q0 29 -24 45.5t-68 16.5q-57 0 -91.5 -24 t-34.5 -63t85 -60l76 -19q66 -16 93.5 -42.5t27.5 -72.5q0 -89 -67 -142.5t-179 -53.5q-87 0 -136.5 34t-49.5 94zM293 581l128 148h112l-180 -148h-60z" />
<glyph unicode="&#x15c;" horiz-adv-x="667" d="M40 174q0 30 9 63h87q-4 -25 -4 -41q0 -68 40 -100.5t125 -32.5q100 0 163.5 43.5t63.5 107.5q0 35 -26.5 59t-86.5 41l-171 49q-50 14 -80.5 51t-30.5 84q0 38 20.5 85.5t51.5 78.5q82 85 238 85q105 0 165.5 -46.5t60.5 -123.5q0 -19 -8 -56h-88q4 27 4 36 q0 109 -152 109q-86 0 -141 -40.5t-55 -101.5q0 -33 21.5 -51t79.5 -35l172 -49q56 -16 89 -56.5t33 -90.5q0 -42 -24.5 -91.5t-62.5 -84.5q-90 -84 -252 -84q-113 0 -177 51t-64 141zM277 783l154 135h114l76 -135h-75l-67 89l-125 -89h-77z" />
<glyph unicode="&#x15d;" horiz-adv-x="500" d="M13 113q0 23 6 51h89q-2 -20 -2 -25q0 -37 28 -57t80 -20q59 0 101 27t42 69q0 19 -13.5 33.5t-56.5 25.5l-74 19q-77 19 -107.5 45t-30.5 72q0 81 64 133.5t167 52.5q73 0 118.5 -33t45.5 -85q0 -18 -6 -43h-84q1 8 1 22q0 29 -24 45.5t-68 16.5q-57 0 -91.5 -24 t-34.5 -63t85 -60l76 -19q66 -16 93.5 -42.5t27.5 -72.5q0 -89 -67 -142.5t-179 -53.5q-87 0 -136.5 34t-49.5 94zM179 580l128 150h95l64 -150h-63l-56 99l-104 -99h-64z" />
<glyph unicode="&#x15e;" horiz-adv-x="667" d="M40 174q0 30 9 63h87q-4 -25 -4 -41q0 -68 40 -100.5t125 -32.5q100 0 163.5 43.5t63.5 107.5q0 35 -26.5 59t-86.5 41l-171 49q-50 14 -80.5 51t-30.5 84q0 38 20.5 85.5t51.5 78.5q82 85 238 85q105 0 165.5 -46.5t60.5 -123.5q0 -19 -8 -56h-88q4 27 4 36 q0 109 -152 109q-86 0 -141 -40.5t-55 -101.5q0 -33 21.5 -51t79.5 -35l172 -49q56 -16 89 -56.5t33 -90.5q0 -42 -24.5 -91.5t-62.5 -84.5q-80 -75 -223 -83l-19 -37h21q27 0 47 -20.5t20 -46.5q0 -51 -40.5 -80t-104.5 -29q-51 0 -118 34l28 38q57 -29 94 -29 q28 0 45.5 15.5t17.5 39.5q0 17 -9 27.5t-22 10.5q-14 0 -27 -4l-23 6l39 75q-103 4 -161 54.5t-58 136.5z" />
<glyph unicode="&#x15f;" horiz-adv-x="500" d="M13 113q0 23 6 51h89q-2 -20 -2 -25q0 -37 28 -57t80 -20q59 0 101 27t42 69q0 19 -13.5 33.5t-56.5 25.5l-74 19q-77 19 -107.5 45t-30.5 72q0 81 64 133.5t167 52.5q73 0 118.5 -33t45.5 -85q0 -18 -6 -43h-84q1 8 1 22q0 29 -24 45.5t-68 16.5q-57 0 -91.5 -24 t-34.5 -63t85 -60l76 -19q66 -16 93.5 -42.5t27.5 -72.5q0 -85 -62 -138t-166 -58l-21 -39h21q27 0 47 -20.5t20 -46.5q0 -51 -40.5 -80t-104.5 -29q-51 0 -118 34l28 38q57 -29 94 -29q28 0 45.5 15.5t17.5 39.5q0 17 -9 27.5t-22 10.5q-14 0 -27 -4l-23 6l41 78 q-72 7 -112.5 40t-40.5 87z" />
<glyph unicode="&#x160;" horiz-adv-x="667" d="M40 174q0 30 9 63h87q-4 -25 -4 -41q0 -68 40 -100.5t125 -32.5q100 0 163.5 43.5t63.5 107.5q0 35 -26.5 59t-86.5 41l-171 49q-50 14 -80.5 51t-30.5 84q0 38 20.5 85.5t51.5 78.5q82 85 238 85q105 0 165.5 -46.5t60.5 -123.5q0 -19 -8 -56h-88q4 27 4 36 q0 109 -152 109q-86 0 -141 -40.5t-55 -101.5q0 -33 21.5 -51t79.5 -35l172 -49q56 -16 89 -56.5t33 -90.5q0 -42 -24.5 -91.5t-62.5 -84.5q-90 -84 -252 -84q-113 0 -177 51t-64 141zM306 918h75l67 -89l125 89h77l-154 -135h-114z" />
<glyph unicode="&#x161;" horiz-adv-x="500" d="M13 113q0 23 6 51h89q-2 -20 -2 -25q0 -37 28 -57t80 -20q59 0 101 27t42 69q0 19 -13.5 33.5t-56.5 25.5l-74 19q-77 19 -107.5 45t-30.5 72q0 81 64 133.5t167 52.5q73 0 118.5 -33t45.5 -85q0 -18 -6 -43h-84q1 8 1 22q0 29 -24 45.5t-68 16.5q-57 0 -91.5 -24 t-34.5 -63t85 -60l76 -19q66 -16 93.5 -42.5t27.5 -72.5q0 -89 -67 -142.5t-179 -53.5q-87 0 -136.5 34t-49.5 94zM211 730h63l56 -99l104 99h64l-128 -150h-95z" />
<glyph unicode="&#x162;" horiz-adv-x="611" d="M71 -196l28 38q57 -29 94 -29q28 0 45.5 15.5t17.5 39.5q0 17 -9 27.5t-22 10.5q-14 0 -27 -4l-23 6l48 92h-12l138 647h-241l17 82h573l-17 -82h-238l-138 -647h-31l-28 -54h21q27 0 47 -20.5t20 -46.5q0 -51 -40.5 -80t-104.5 -29q-51 0 -118 34z" />
<glyph unicode="&#x163;" horiz-adv-x="278" d="M-69 -196l28 38q57 -29 94 -29q28 0 45.5 15.5t17.5 39.5q0 17 -9 27.5t-22 10.5q-14 0 -27 -4l-23 6l51 97h1q-37 21 -37 67q0 16 3 31l76 354h-71l14 67h71l31 144h84l-31 -144h89l-14 -67h-89l-75 -351q-2 -12 -2 -14q0 -12 10 -19.5t26 -7.5q13 0 48 8l-16 -73 q-24 -7 -65 -7h-8l-25 -47h21q27 0 47 -20.5t20 -46.5q0 -51 -40.5 -80t-104.5 -29q-51 0 -118 34z" />
<glyph unicode="&#x164;" horiz-adv-x="611" d="M108 647l17 82h573l-17 -82h-238l-138 -647h-94l138 647h-241zM281 918h75l67 -89l125 89h77l-154 -135h-114z" />
<glyph unicode="&#x165;" horiz-adv-x="278" d="M50 72q0 16 3 31l76 354h-71l14 67h71l31 144h84l-31 -144h89l-14 -67h-89l-75 -351q-2 -12 -2 -14q0 -12 10 -19.5t26 -7.5q13 0 48 8l-16 -73q-24 -7 -65 -7t-65 21t-24 58zM269 558l8 38q58 0 74 88h-55l21 98h100l-19 -93q-14 -62 -48 -96.5t-81 -34.5z" />
<glyph unicode="&#x168;" horiz-adv-x="722" d="M75 160q0 30 14 96l101 473h94l-108 -507q-5 -20 -5 -44q0 -52 44.5 -83.5t116.5 -31.5q85 0 142.5 42.5t73.5 116.5l108 507h94l-108 -507q-23 -109 -112.5 -174.5t-215.5 -65.5q-107 0 -173 50t-66 128zM318 796q19 55 43 79t61 24q7 0 64.5 -16t71.5 -16 q15 0 24.5 7.5t23.5 29.5h53q-16 -49 -45 -78t-63 -29q-27 0 -103 26q-17 6 -27 6q-17 0 -26 -6.5t-24 -26.5h-53z" />
<glyph unicode="&#x169;" d="M40 94q0 19 3 34l84 396h84l-77 -363q-3 -15 -3 -27q0 -35 24 -56t65 -21q64 0 113 48.5t66 129.5l61 289h84l-111 -524h-76l13 61q-83 -76 -192 -76q-65 0 -101.5 29t-36.5 80zM189 601q19 55 43 79t61 24q7 0 64.5 -16t71.5 -16q15 0 24.5 7.5t23.5 29.5h53 q-16 -49 -45 -78t-63 -29q-27 0 -103 26q-17 6 -27 6q-17 0 -26 -6.5t-24 -26.5h-53z" />
<glyph unicode="&#x16a;" horiz-adv-x="722" d="M75 160q0 30 14 96l101 473h94l-108 -507q-5 -20 -5 -44q0 -52 44.5 -83.5t116.5 -31.5q85 0 142.5 42.5t73.5 116.5l108 507h94l-108 -507q-23 -109 -112.5 -174.5t-215.5 -65.5q-107 0 -173 50t-66 128zM348 816l15 69h275l-15 -69h-275z" />
<glyph unicode="&#x16b;" d="M40 94q0 19 3 34l84 396h84l-77 -363q-3 -15 -3 -27q0 -35 24 -56t65 -21q64 0 113 48.5t66 129.5l61 289h84l-111 -524h-76l13 61q-83 -76 -192 -76q-65 0 -101.5 29t-36.5 80zM220 621l15 69h275l-15 -69h-275z" />
<glyph unicode="&#x16c;" horiz-adv-x="722" d="M75 160q0 30 14 96l101 473h94l-108 -507q-5 -20 -5 -44q0 -52 44.5 -83.5t116.5 -31.5q85 0 142.5 42.5t73.5 116.5l108 507h94l-108 -507q-23 -109 -112.5 -174.5t-215.5 -65.5q-107 0 -173 50t-66 128zM322 882q0 10 6 28h64v-10q0 -19 27 -30t71 -11q113 0 132 51h67 q-21 -56 -80.5 -87.5t-136.5 -31.5q-66 0 -108 27t-42 64z" />
<glyph unicode="&#x16d;" d="M40 94q0 19 3 34l84 396h84l-77 -363q-3 -15 -3 -27q0 -35 24 -56t65 -21q64 0 113 48.5t66 129.5l61 289h84l-111 -524h-76l13 61q-83 -76 -192 -76q-65 0 -101.5 29t-36.5 80zM225 687q0 12 5 36h53v-13q0 -22 22.5 -36t59.5 -14q94 0 110 63h56q-17 -68 -65 -101.5 t-114 -33.5q-56 0 -91.5 27.5t-35.5 71.5z" />
<glyph unicode="&#x16e;" horiz-adv-x="722" d="M75 160q0 30 14 96l101 473h94l-108 -507q-5 -20 -5 -44q0 -52 44.5 -83.5t116.5 -31.5q85 0 142.5 42.5t73.5 116.5l108 507h94l-108 -507q-23 -109 -112.5 -174.5t-215.5 -65.5q-107 0 -173 50t-66 128zM400 846q0 43 37 79t82 36q34 0 56.5 -21t22.5 -52 q0 -47 -36.5 -83t-83.5 -36q-33 0 -55.5 22.5t-22.5 54.5zM451 856q0 -17 10.5 -28t27.5 -11q22 0 40.5 18t18.5 39q0 17 -10.5 28t-26.5 11q-23 0 -41.5 -18t-18.5 -39z" />
<glyph unicode="&#x16f;" d="M40 94q0 19 3 34l84 396h84l-77 -363q-3 -15 -3 -27q0 -35 24 -56t65 -21q64 0 113 48.5t66 129.5l61 289h84l-111 -524h-76l13 61q-83 -76 -192 -76q-65 0 -101.5 29t-36.5 80zM268 636q0 43 37 79t82 36q34 0 56.5 -21t22.5 -52q0 -47 -36.5 -83t-83.5 -36 q-33 0 -55.5 22.5t-22.5 54.5zM319 646q0 -17 10.5 -28t27.5 -11q22 0 40.5 18t18.5 39q0 17 -10.5 28t-26.5 11q-23 0 -41.5 -18t-18.5 -39z" />
<glyph unicode="&#x170;" horiz-adv-x="722" d="M75 160q0 30 14 96l101 473h94l-108 -507q-5 -20 -5 -44q0 -52 44.5 -83.5t116.5 -31.5q85 0 142.5 42.5t73.5 116.5l108 507h94l-108 -507q-23 -109 -112.5 -174.5t-215.5 -65.5q-107 0 -173 50t-66 128zM351 785l128 150h112l-180 -150h-60zM535 785l128 150h112 l-180 -150h-60z" />
<glyph unicode="&#x171;" d="M40 94q0 19 3 34l84 396h84l-77 -363q-3 -15 -3 -27q0 -35 24 -56t65 -21q64 0 113 48.5t66 129.5l61 289h84l-111 -524h-76l13 61q-83 -76 -192 -76q-65 0 -101.5 29t-36.5 80zM220 580l128 150h112l-180 -150h-60zM404 580l128 150h112l-180 -150h-60z" />
<glyph unicode="&#x172;" horiz-adv-x="722" d="M75 160q0 30 14 96l101 473h94l-108 -507q-5 -20 -5 -44q0 -52 44.5 -83.5t116.5 -31.5q85 0 142.5 42.5t73.5 116.5l108 507h94l-108 -507q-19 -87 -80 -147t-152 -82q-41 -10 -69.5 -39.5t-28.5 -64.5q0 -41 32 -41h49l-14 -78h-50q-42 0 -69.5 21.5t-27.5 56.5 q0 74 80 134q-106 1 -171.5 50.5t-65.5 127.5z" />
<glyph unicode="&#x173;" d="M40 94q0 19 3 34l84 396h84l-77 -363q-3 -15 -3 -27q0 -35 24 -56t65 -21q64 0 113 48.5t66 129.5l61 289h84l-111 -524q-45 -15 -80 -53q-26 -29 -26 -58q0 -41 32 -41h49l-14 -78h-50q-42 0 -69.5 21.5t-27.5 56.5q0 45 31 86q33 42 79 66l13 61q-83 -76 -192 -76 q-65 0 -101.5 29t-36.5 80z" />
<glyph unicode="&#x174;" horiz-adv-x="944" d="M127 0v729h115v-592l288 592h96l41 -592l263 592h104l-340 -729h-102l-41 592l-290 -592h-134zM417 783l154 135h114l76 -135h-75l-67 89l-125 -89h-77z" />
<glyph unicode="&#x175;" horiz-adv-x="722" d="M68 524h110v-408l189 408h116v-408l196 408h91l-264 -524h-107v418l-195 -418h-96zM290 580l128 150h95l64 -150h-63l-56 99l-104 -99h-64z" />
<glyph unicode="&#x176;" horiz-adv-x="667" d="M118 729h112l136 -357l289 357h111l-368 -443l-61 -286h-94l61 286zM284 783l154 135h114l76 -135h-75l-67 89l-125 -89h-77z" />
<glyph unicode="&#x177;" horiz-adv-x="500" d="M-42 -208l16 75q36 -4 44 -4q28 0 44 10.5t36 41.5l52 81l-68 528h90l46 -407l233 407h89l-368 -634q-63 -108 -165 -108q-26 0 -49 10zM179 580l128 150h95l64 -150h-63l-56 99l-104 -99h-64z" />
<glyph unicode="&#x178;" horiz-adv-x="667" d="M118 729h112l136 -357l289 357h111l-368 -443l-61 -286h-94l61 286zM333 799l22 102h91l-22 -102h-91zM495 799l22 102h91l-22 -102h-91z" />
<glyph unicode="&#x179;" horiz-adv-x="611" d="M-22 0l18 84l555 563h-406l17 82h525l-18 -84l-556 -563h438l-17 -82h-556zM400 783l154 133h134l-216 -133h-72z" />
<glyph unicode="&#x17a;" horiz-adv-x="500" d="M-19 0l18 74l395 378h-294l15 72h392l-18 -75l-392 -377h326l-15 -72h-427zM293 581l128 148h112l-180 -148h-60z" />
<glyph unicode="&#x17b;" horiz-adv-x="611" d="M-22 0l18 84l555 563h-406l17 82h525l-18 -84l-556 -563h438l-17 -82h-556zM387 799l22 103h104l-22 -103h-104z" />
<glyph unicode="&#x17c;" horiz-adv-x="500" d="M-19 0l18 74l395 378h-294l15 72h392l-18 -75l-392 -377h326l-15 -72h-427zM275 604l22 103h104l-22 -103h-104z" />
<glyph unicode="&#x17d;" horiz-adv-x="611" d="M-22 0l18 84l555 563h-406l17 82h525l-18 -84l-556 -563h438l-17 -82h-556zM293 918h75l67 -89l125 89h77l-154 -135h-114z" />
<glyph unicode="&#x17e;" horiz-adv-x="500" d="M-19 0l18 74l395 378h-294l15 72h392l-18 -75l-392 -377h326l-15 -72h-427zM211 730h63l56 -99l104 99h64l-128 -150h-95z" />
<glyph unicode="&#x17f;" horiz-adv-x="278" d="M39 0l130 613q12 56 51.5 87.5t97.5 31.5q22 0 45 -5l-15 -69q-14 2 -27 2q-32 0 -48 -14.5t-24 -52.5l-126 -593h-84z" />
<glyph unicode="&#x18e;" horiz-adv-x="667" d="M40 0l18 82h429l52 250h-395l17 82h396l49 233h-412l18 82h506l-155 -729h-523z" />
<glyph unicode="&#x192;" d="M-82 -202l35 86q23 -19 50 -19q74 0 119 114l165 413h-112l15 72h125l43 103q32 77 90.5 124t122.5 47q38 0 75 -19l-46 -78q-25 20 -48 20q-71 0 -121 -128l-27 -69h113l-15 -72h-127l-158 -397q-42 -106 -102 -156.5t-145 -50.5q-28 0 -52 10z" />
<glyph unicode="&#x1a0;" horiz-adv-x="778" d="M56 271q-2 90 36 182t104 161q121 127 291 127q142 0 219 -77q13 -16 14 -17q42 26 59 82h-42l22 103h94l-21 -100q-24 -84 -88 -121q34 -68 34 -147q0 -118 -51.5 -226t-139.5 -176q-100 -77 -244 -77q-64 0 -121 20.5t-93 56.5q-73 73 -73 209zM152 279q0 -89 41 -141 q26 -33 70 -52.5t93 -19.5q73 0 136 33t107 94q83 113 83 253q0 89 -41 142q-26 33 -70.5 52.5t-95.5 19.5q-70 0 -133.5 -33.5t-107.5 -93.5q-40 -55 -62 -123t-20 -131z" />
<glyph unicode="&#x1a1;" horiz-adv-x="589" d="M32 172q0 64 21 133.5t55 117.5q38 55 97 85.5t129 30.5q117 0 169 -92q37 28 51 77h-42l22 103h94l-21 -100q-24 -84 -88 -121q7 -32 7 -54q0 -65 -21 -134.5t-56 -116.5q-84 -116 -228 -116q-84 0 -136.5 52t-52.5 135zM120 192q0 -60 31 -95t84 -35q103 0 161 105 q42 78 42 166q0 25 -6 46h-2l1 5q-23 78 -110 78q-102 0 -159 -105q-42 -78 -42 -165z" />
<glyph unicode="&#x1af;" horiz-adv-x="780" d="M76 163q0 30 14 96l100 470h94l-107 -504q-5 -27 -5 -44q0 -52 44.5 -83.5t116.5 -31.5q85 0 142.5 42.5t73.5 116.5l107 504h94l-20 -93q59 25 79 93h-42l22 103h94l-21 -100q-33 -117 -142 -143l-77 -364q-23 -109 -112.5 -174.5t-215.5 -65.5q-120 0 -184 58 q-24 22 -39.5 55.5t-15.5 64.5z" />
<glyph unicode="&#x1b0;" horiz-adv-x="617" d="M40 94q0 19 3 34l84 396h84l-77 -363q-3 -15 -3 -27q0 -35 24 -56t65 -21q64 0 113 48.5t66 129.5l61 289h84l-20 -94q60 25 81 94h-42l22 103h94l-21 -100q-33 -118 -144 -144l-81 -383h-76l14 65q-83 -80 -193 -80q-65 0 -101.5 29t-36.5 80z" />
<glyph unicode="&#x1dd;" d="M34 156q0 42 14 117l2 13h386q6 24 5 46q0 63 -32 96.5t-92 33.5q-99 0 -155 -97h-84q23 80 92.5 127t160.5 47q89 0 143.5 -55.5t54.5 -136.5q0 -61 -24 -134t-59 -120q-37 -50 -96.5 -79t-124.5 -29q-81 0 -136 49.5t-55 121.5zM122 185q0 -56 31.5 -89.5t84.5 -33.5 q60 0 110.5 43t69.5 109h-294q-2 -24 -2 -29z" />
<glyph unicode="&#x1e6;" horiz-adv-x="778" d="M60 266q0 118 55 227.5t159 181.5t232 72q117 0 185 -60.5t68 -161.5v-17h-91q-1 75 -51 116.5t-129 41.5q-140 0 -236 -115t-96 -269q0 -105 51.5 -162t154.5 -57q98 0 175.5 59t99.5 155l6 26h-222l18 82h304l-82 -385h-59l-5 86q-69 -58 -129 -81t-139 -23 q-121 0 -195 75t-74 209zM371 918h75l67 -89l125 89h77l-154 -135h-114z" />
<glyph unicode="&#x1e7;" d="M-18 -91q0 10 1 18l1 13h84v-14q0 -34 28.5 -53t79.5 -19q80 0 123.5 44t65.5 146l4 20q-76 -79 -172 -79q-77 0 -125 51t-48 133q0 148 84 259t211 111q96 0 139 -93l17 78h76l-93 -439q-20 -95 -43 -147.5t-61 -88.5q-70 -67 -195 -67q-80 0 -128.5 34.5t-48.5 92.5z M112 185q0 -59 29.5 -93.5t79.5 -34.5q87 0 142.5 83.5t55.5 198.5q0 56 -29 89.5t-77 33.5q-86 0 -143.5 -84t-57.5 -193zM239 730h63l56 -99l104 99h64l-128 -150h-95z" />
<glyph unicode="&#x1ea;" horiz-adv-x="778" d="M55 268q0 122 57 232t157.5 178.5t218.5 68.5q136 0 213.5 -73t77.5 -204q0 -164 -88.5 -298t-235.5 -175q-47 -13 -80.5 -42.5t-33.5 -65.5q0 -41 32 -41h49l-14 -78h-50q-42 0 -69.5 21.5t-27.5 56.5q0 75 81 134q-134 0 -210.5 74.5t-76.5 211.5zM151 276 q0 -101 55.5 -157t148.5 -56t169.5 56t117.5 144.5t41 188.5q0 101 -55.5 157.5t-151.5 56.5q-92 0 -167.5 -56t-116.5 -145t-41 -189z" />
<glyph unicode="&#x1eb;" d="M31 168q0 100 36 184t106 135.5t161 51.5q88 0 140 -53t52 -134q0 -117 -48.5 -207.5t-132.5 -131.5q-115 -56 -115 -124q0 -41 32 -41h49l-14 -78h-50q-42 0 -69.5 21.5t-27.5 56.5q0 76 85 137h-14q-85 0 -137.5 50t-52.5 133zM119 188q0 -59 31 -92.5t85 -33.5 q88 0 145.5 79t57.5 192q0 61 -31 95t-86 34q-87 0 -144.5 -81.5t-57.5 -192.5z" />
<glyph unicode="&#x1f4;" horiz-adv-x="778" d="M60 266q0 118 55 227.5t159 181.5t232 72q117 0 185 -60.5t68 -161.5v-17h-91q-1 75 -51 116.5t-129 41.5q-140 0 -236 -115t-96 -269q0 -105 51.5 -162t154.5 -57q98 0 175.5 59t99.5 155l6 26h-222l18 82h304l-82 -385h-59l-5 86q-69 -58 -129 -81t-139 -23 q-121 0 -195 75t-74 209zM477 783l154 133h134l-216 -133h-72z" />
<glyph unicode="&#x1f5;" d="M-18 -91q0 10 1 18l1 13h84v-14q0 -34 28.5 -53t79.5 -19q80 0 123.5 44t65.5 146l4 20q-76 -79 -172 -79q-77 0 -125 51t-48 133q0 148 84 259t211 111q96 0 139 -93l17 78h76l-93 -439q-20 -95 -43 -147.5t-61 -88.5q-70 -67 -195 -67q-80 0 -128.5 34.5t-48.5 92.5z M112 185q0 -59 29.5 -93.5t79.5 -34.5q87 0 142.5 83.5t55.5 198.5q0 56 -29 89.5t-77 33.5q-86 0 -143.5 -84t-57.5 -193zM321 581l128 148h112l-180 -148h-60z" />
<glyph unicode="&#x1fa;" horiz-adv-x="667" d="M-33 0l415 729h120l101 -729h-102l-27 219h-285l-123 -219h-99zM233 297h231l-40 333zM372 846q0 43 37 79t82 36q34 0 56.5 -21t22.5 -52q0 -47 -36.5 -83t-83.5 -36q-33 0 -55.5 22.5t-22.5 54.5zM423 856q0 -17 10.5 -28t27.5 -11q22 0 40.5 18t18.5 39q0 17 -10.5 28 t-26.5 11q-23 0 -41.5 -18t-18.5 -39zM459 981l154 133h134l-216 -133h-72z" />
<glyph unicode="&#x1fb;" d="M16 109q0 89 81 140q36 23 79.5 33t145.5 20q54 5 75 17t26 42l3 18q2 16 2 19q0 28 -30.5 46t-75.5 18q-108 0 -137 -93h-84q14 83 76.5 126.5t166.5 43.5q79 0 126.5 -31t47.5 -82q0 -10 -6 -37l-61 -287q-1 -3 -1 -10q0 -29 38 -29q8 0 17 2l-13 -65q-51 -9 -53 -9 q-39 0 -59 11.5t-20 40.5l1 15q-53 -44 -98.5 -58.5t-101.5 -14.5q-68 0 -106.5 32.5t-38.5 91.5zM104 119q0 -62 90 -62q66 0 122.5 34.5t66.5 80.5l18 86q-43 -15 -146 -29q-80 -11 -115.5 -37t-35.5 -73zM271 641q0 43 37 79t82 36q34 0 56.5 -21t22.5 -52 q0 -47 -36.5 -83t-83.5 -36q-33 0 -55.5 22.5t-22.5 54.5zM322 651q0 -17 10.5 -28t27.5 -11q22 0 40.5 18t18.5 39q0 17 -10.5 28t-26.5 11q-23 0 -41.5 -18t-18.5 -39zM358 776l154 133h134l-216 -133h-72z" />
<glyph unicode="&#x1fc;" horiz-adv-x="1000" d="M-39 0l454 729h622l-17 -82h-371l-49 -233h351l-18 -82h-351l-53 -250h388l-17 -82h-482l45 214h-269l-130 -214h-103zM243 295h238l74 352h-100zM595 783l154 133h134l-216 -133h-72z" />
<glyph unicode="&#x1fd;" horiz-adv-x="889" d="M9 105q0 43 22 81.5t60 62.5q37 23 79.5 32.5t142.5 18.5q53 5 73 17t27 44l5 25q2 14 2 19q0 26 -28 41.5t-76 15.5q-59 0 -92 -22t-49 -71h-84q21 77 53 109q63 61 193 61q55 0 101 -18.5t58 -46.5q73 65 182 65q76 0 131.5 -50t55.5 -119q0 -44 -14 -119l-3 -17h-386 q-5 -22 -5 -53v-18q2 -37 36.5 -69t90.5 -32q99 0 153 97h84q-23 -76 -93 -125t-160 -49q-117 0 -174 102q-105 -102 -241 -102q-66 0 -105 31t-39 89zM98 119q0 -62 91 -62q63 0 118.5 35t65.5 80l18 85q-43 -15 -142 -28q-81 -11 -116 -37t-35 -73zM480 306h294q3 22 3 33 q0 56 -31 89.5t-84 33.5q-62 0 -110.5 -41.5t-71.5 -114.5zM488 581l128 148h112l-180 -148h-60z" />
<glyph unicode="&#x1fe;" horiz-adv-x="778" d="M-8 21l100 88q-37 66 -37 159q0 122 57 232t157.5 178.5t218.5 68.5q149 0 227 -86l94 84l33 -37l-99 -87q36 -61 36 -151q0 -127 -53 -237.5t-154.5 -180.5t-229.5 -70q-146 0 -222 87l-96 -85zM151 276q0 -56 18 -98l471 417q-54 71 -164 71q-92 0 -167.5 -56 t-116.5 -145t-41 -189zM194 134q56 -71 161 -71q93 0 169.5 56t117.5 144.5t41 188.5q0 56 -18 100zM469 783l154 133h134l-216 -133h-72z" />
<glyph unicode="&#x1ff;" horiz-adv-x="611" d="M-10 21l61 58q-20 38 -20 89q0 100 36 184t106 135.5t161 51.5q92 0 145 -58l58 53l30 -31l-62 -59q21 -41 21 -92q0 -158 -85 -262.5t-220 -104.5q-90 0 -144 57l-56 -52zM119 188q0 -26 5 -42l290 273q-31 43 -93 43q-87 0 -144.5 -81.5t-57.5 -192.5zM143 104 q31 -42 92 -42q88 0 145.5 79t57.5 192q0 21 -5 44zM349 581l128 148h112l-180 -148h-60z" />
<glyph unicode="&#x200;" horiz-adv-x="667" d="M-33 0l415 729h120l101 -729h-102l-27 219h-285l-123 -219h-99zM224 935h112l65 -150h-60zM233 297h231l-40 333zM408 935h112l65 -150h-60z" />
<glyph unicode="&#x201;" d="M16 109q0 89 81 140q36 23 79.5 33t145.5 20q54 5 75 17t26 42l3 18q2 16 2 19q0 28 -30.5 46t-75.5 18q-108 0 -137 -93h-84q14 83 76.5 126.5t166.5 43.5q79 0 126.5 -31t47.5 -82q0 -10 -6 -37l-61 -287q-1 -3 -1 -10q0 -29 38 -29q8 0 17 2l-13 -65q-51 -9 -53 -9 q-39 0 -59 11.5t-20 40.5l1 15q-53 -44 -98.5 -58.5t-101.5 -14.5q-68 0 -106.5 32.5t-38.5 91.5zM104 119q0 -62 90 -62q66 0 122.5 34.5t66.5 80.5l18 86q-43 -15 -146 -29q-80 -11 -115.5 -37t-35.5 -73zM123 730h112l65 -150h-60zM307 730h112l65 -150h-60z" />
<glyph unicode="&#x204;" horiz-adv-x="667" d="M40 0l155 729h506l-17 -82h-412l-50 -233h396l-18 -82h-395l-54 -250h429l-17 -82h-523zM230 935h112l65 -150h-60zM414 935h112l65 -150h-60z" />
<glyph unicode="&#x205;" d="M35 177q0 61 24 134t59 120q37 50 96.5 79t124.5 29q81 0 136 -49.5t55 -121.5q0 -42 -14 -117l-2 -13h-386q-6 -24 -5 -46q0 -63 32.5 -96.5t92.5 -33.5q100 0 154 97h84q-23 -80 -92 -127t-160 -47q-89 0 -144 56t-55 136zM122 730h112l65 -150h-60zM146 310h294 q2 24 2 29q0 56 -31.5 89.5t-84.5 33.5q-60 0 -110.5 -43t-69.5 -109zM306 730h112l65 -150h-60z" />
<glyph unicode="&#x208;" horiz-adv-x="278" d="M34 935h112l65 -150h-60zM50 0l155 729h94l-155 -729h-94zM218 935h112l65 -150h-60z" />
<glyph unicode="&#x209;" horiz-adv-x="278" d="M-17 730h112l65 -150h-60zM47 0l111 524h84l-111 -524h-84zM167 730h112l65 -150h-60z" />
<glyph unicode="&#x20c;" horiz-adv-x="778" d="M55 268q0 122 57 232t157.5 178.5t218.5 68.5q136 0 213.5 -73t77.5 -204q0 -127 -53 -237.5t-154.5 -180.5t-229.5 -70q-134 0 -210.5 74.5t-76.5 211.5zM151 276q0 -101 55.5 -157t148.5 -56t169.5 56t117.5 144.5t41 188.5q0 101 -55.5 157.5t-151.5 56.5 q-92 0 -167.5 -56t-116.5 -145t-41 -189zM267 935h112l65 -150h-60zM451 935h112l65 -150h-60z" />
<glyph unicode="&#x20d;" d="M31 168q0 100 36 184t106 135.5t161 51.5q88 0 140 -53t52 -134q0 -158 -85 -262.5t-220 -104.5q-85 0 -137.5 50t-52.5 133zM113 730h112l65 -150h-60zM119 188q0 -59 31 -92.5t85 -33.5q88 0 145.5 79t57.5 192q0 61 -31 95t-86 34q-87 0 -144.5 -81.5t-57.5 -192.5z M297 730h112l65 -150h-60z" />
<glyph unicode="&#x210;" horiz-adv-x="722" d="M43 0l155 729h336q96 0 141 -37.5t45 -116.5q0 -74 -34 -124.5t-106 -90.5q35 -23 47.5 -43t12.5 -53q0 -28 -21 -138q-6 -32 -6 -50q0 -34 21 -53l-5 -23h-113q-4 28 -4 47q0 24 3 40.5t21 91.5q8 35 8 60q0 75 -101 75h-239l-67 -314h-94zM221 396h231q83 0 127.5 45.5 t44.5 116.5q0 45 -27 67t-92 22h-230zM230 935h112l65 -150h-60zM414 935h112l65 -150h-60z" />
<glyph unicode="&#x211;" horiz-adv-x="333" d="M-3 730h112l65 -150h-60zM19 0l111 524h76l-17 -82q46 53 83.5 75t81.5 22q12 0 32 -3l-18 -85h-10q-159 0 -197 -179l-58 -272h-84zM181 730h112l65 -150h-60z" />
<glyph unicode="&#x214;" horiz-adv-x="722" d="M75 160q0 30 14 96l101 473h94l-108 -507q-5 -20 -5 -44q0 -52 44.5 -83.5t116.5 -31.5q85 0 142.5 42.5t73.5 116.5l108 507h94l-108 -507q-23 -109 -112.5 -174.5t-215.5 -65.5q-107 0 -173 50t-66 128zM252 935h112l65 -150h-60zM436 935h112l65 -150h-60z" />
<glyph unicode="&#x215;" d="M40 94q0 19 3 34l84 396h84l-77 -363q-3 -15 -3 -27q0 -35 24 -56t65 -21q64 0 113 48.5t66 129.5l61 289h84l-111 -524h-76l13 61q-83 -76 -192 -76q-65 0 -101.5 29t-36.5 80zM122 730h112l65 -150h-60zM306 730h112l65 -150h-60z" />
<glyph unicode="&#x218;" horiz-adv-x="667" d="M40 174q0 30 9 63h87q-4 -25 -4 -41q0 -68 40 -100.5t125 -32.5q100 0 163.5 43.5t63.5 107.5q0 35 -26.5 59t-86.5 41l-171 49q-50 14 -80.5 51t-30.5 84q0 38 20.5 85.5t51.5 78.5q82 85 238 85q105 0 165.5 -46.5t60.5 -123.5q0 -19 -8 -56h-88q4 27 4 36 q0 109 -152 109q-86 0 -141 -40.5t-55 -101.5q0 -33 21.5 -51t79.5 -35l172 -49q56 -16 89 -56.5t33 -90.5q0 -42 -24.5 -91.5t-62.5 -84.5q-90 -84 -252 -84q-113 0 -177 51t-64 141zM171 -284l8 38q58 0 74 88h-55l21 98h100l-19 -93q-14 -62 -48 -96.5t-81 -34.5z" />
<glyph unicode="&#x219;" horiz-adv-x="500" d="M13 113q0 23 6 51h89q-2 -20 -2 -25q0 -37 28 -57t80 -20q59 0 101 27t42 69q0 19 -13.5 33.5t-56.5 25.5l-74 19q-77 19 -107.5 45t-30.5 72q0 81 64 133.5t167 52.5q73 0 118.5 -33t45.5 -85q0 -18 -6 -43h-84q1 8 1 22q0 29 -24 45.5t-68 16.5q-57 0 -91.5 -24 t-34.5 -63t85 -60l76 -19q66 -16 93.5 -42.5t27.5 -72.5q0 -89 -67 -142.5t-179 -53.5q-87 0 -136.5 34t-49.5 94zM88 -284l8 38q58 0 74 88h-55l21 98h100l-19 -93q-14 -62 -48 -96.5t-81 -34.5z" />
<glyph unicode="&#x21a;" horiz-adv-x="611" d="M108 647l17 82h573l-17 -82h-238l-138 -647h-94l138 647h-241zM146 -284l8 38q58 0 74 88h-55l21 98h100l-19 -93q-14 -62 -48 -96.5t-81 -34.5z" />
<glyph unicode="&#x21b;" horiz-adv-x="278" d="M4 -284l8 38q58 0 74 88h-55l21 98h100l-19 -93q-14 -62 -48 -96.5t-81 -34.5zM50 72q0 16 3 31l76 354h-71l14 67h71l31 144h84l-31 -144h89l-14 -67h-89l-75 -351q-2 -12 -2 -14q0 -12 10 -19.5t26 -7.5q13 0 48 8l-16 -73q-24 -7 -65 -7t-65 21t-24 58z" />
<glyph unicode="&#x258;" d="M34 159h84q14 -97 113 -97q124 0 181 130q10 22 14 46h-386l4 13q16 71 35 117q31 72 107 121.5t157 49.5q65 0 112 -29t63 -79q15 -47 8 -120.5t-33 -133.5q-34 -80 -112.5 -136t-167.5 -56q-91 0 -140 47t-39 127zM145 310h294q9 66 -23.5 109t-92.5 43 q-53 0 -98.5 -33.5t-69.5 -89.5q-2 -5 -10 -29z" />
<glyph unicode="&#x259;" d="M34 156q0 42 14 117l2 13h386q6 24 5 46q0 63 -32 96.5t-92 33.5q-99 0 -155 -97h-84q23 80 92.5 127t160.5 47q89 0 143.5 -55.5t54.5 -136.5q0 -61 -24 -134t-59 -120q-37 -50 -96.5 -79t-124.5 -29q-81 0 -136 49.5t-55 121.5zM122 185q0 -56 31.5 -89.5t84.5 -33.5 q60 0 110.5 43t69.5 109h-294q-2 -24 -2 -29z" />
<glyph unicode="&#x2be;" horiz-adv-x="453" d="M114 422v7q1 7 1 13l1 10q0 9 10 9h56q7 0 7 -7q-1 -5 -1 -14q-1 -25 15.5 -40t45.5 -15q55 0 89.5 52.5t34.5 122.5q0 36 -18.5 56t-50.5 20q-67 0 -94 -72q-4 -7 -9 -7h-56q-9 0 -7 9q22 73 65.5 105t113.5 32q60 0 96 -37t36 -95q-1 -111 -59.5 -182t-153.5 -71 q-54 0 -87.5 31t-34.5 73z" />
<glyph unicode="&#x2bf;" horiz-adv-x="453" d="M122 450q0 111 58.5 182t153.5 71q54 0 88 -31t34 -73v-7q-1 -7 -1 -13l-1 -10q0 -9 -10 -9h-56q-6 0 -6 7q2 8 0 14q1 25 -15.5 40t-45.5 15q-55 0 -89.5 -52.5t-34.5 -122.5q0 -36 18.5 -56t50.5 -20q68 0 94 72q4 7 10 7h56q8 0 6 -9q-22 -73 -65 -105t-113 -32 q-61 0 -97 37t-35 95z" />
<glyph unicode="&#x2c6;" horiz-adv-x="333" d="M96 580l128 150h95l64 -150h-63l-56 99l-104 -99h-64z" />
<glyph unicode="&#x2c7;" horiz-adv-x="333" d="M128 730h63l56 -99l104 99h64l-128 -150h-95z" />
<glyph unicode="&#x2d8;" horiz-adv-x="333" d="M114 687q0 12 5 36h53v-13q0 -22 22.5 -36t59.5 -14q94 0 110 63h56q-17 -68 -65 -101.5t-114 -33.5q-56 0 -91.5 27.5t-35.5 71.5z" />
<glyph unicode="&#x2d9;" horiz-adv-x="333" d="M192 604l22 103h104l-22 -103h-104z" />
<glyph unicode="&#x2da;" horiz-adv-x="333" d="M157 636q0 43 37 79t82 36q34 0 56.5 -21t22.5 -52q0 -47 -36.5 -83t-83.5 -36q-33 0 -55.5 22.5t-22.5 54.5zM208 646q0 -17 10.5 -28t27.5 -11q22 0 40.5 18t18.5 39q0 17 -10.5 28t-26.5 11q-23 0 -41.5 -18t-18.5 -39z" />
<glyph unicode="&#x2db;" horiz-adv-x="333" d="M50 -152q0 85 107 152h65q-92 -61 -92 -111q0 -41 32 -41h49l-14 -78h-50q-42 0 -69.5 21.5t-27.5 56.5z" />
<glyph unicode="&#x2dc;" horiz-adv-x="333" d="M78 601q19 55 43 79t61 24q7 0 64.5 -16t71.5 -16q15 0 24.5 7.5t23.5 29.5h53q-16 -49 -45 -78t-63 -29q-27 0 -103 26q-17 6 -27 6q-17 0 -26 -6.5t-24 -26.5h-53z" />
<glyph unicode="&#x2dd;" horiz-adv-x="333" d="M109 580l128 150h112l-180 -150h-60zM293 580l128 150h112l-180 -150h-60z" />
<glyph unicode="&#x300;" horiz-adv-x="0" d="M-351 729h112l65 -148h-60z" />
<glyph unicode="&#x301;" horiz-adv-x="0" d="M-234 581l128 148h112l-180 -148h-60z" />
<glyph unicode="&#x302;" horiz-adv-x="0" d="M-348 580l128 150h95l64 -150h-63l-56 99l-104 -99h-64z" />
<glyph unicode="&#x303;" horiz-adv-x="0" d="M-366 601q19 55 43 79t61 24q7 0 64.5 -16t71.5 -16q15 0 24.5 7.5t23.5 29.5h53q-16 -49 -45 -78t-63 -29q-27 0 -103 26q-17 6 -27 6q-17 0 -26 -6.5t-24 -26.5h-53z" />
<glyph unicode="&#x304;" horiz-adv-x="0" d="M-335 621l15 69h275l-15 -69h-275z" />
<glyph unicode="&#x306;" horiz-adv-x="0" d="M-330 687q0 12 5 36h53v-13q0 -22 22.5 -36t59.5 -14q94 0 110 63h56q-17 -68 -65 -101.5t-114 -33.5q-56 0 -91.5 27.5t-35.5 71.5z" />
<glyph unicode="&#x307;" horiz-adv-x="0" d="M-252 604l22 103h104l-22 -103h-104z" />
<glyph unicode="&#x308;" horiz-adv-x="0" d="M-326 604l22 102h91l-22 -102h-91zM-164 604l22 102h91l-22 -102h-91z" />
<glyph unicode="&#x309;" horiz-adv-x="0" d="M-288 678q24 102 127 102q41 0 64.5 -17t23.5 -45q0 -45 -68 -86q-22 -13 -29.5 -20t-12.5 -18l-6 -23h-58l9 33q5 17 16 27.5t48 35.5q42 26 42 46t-38 20q-48 0 -62 -55h-56z" />
<glyph unicode="&#x30a;" horiz-adv-x="0" d="M-287 636q0 43 37 79t82 36q34 0 56.5 -21t22.5 -52q0 -47 -36.5 -83t-83.5 -36q-33 0 -55.5 22.5t-22.5 54.5zM-236 646q0 -17 10.5 -28t27.5 -11q22 0 40.5 18t18.5 39q0 17 -10.5 28t-26.5 11q-23 0 -41.5 -18t-18.5 -39z" />
<glyph unicode="&#x30b;" horiz-adv-x="0" d="M-335 580l128 150h112l-180 -150h-60zM-151 580l128 150h112l-180 -150h-60z" />
<glyph unicode="&#x30c;" horiz-adv-x="0" d="M-316 730h63l56 -99l104 99h64l-128 -150h-95z" />
<glyph unicode="&#x30f;" horiz-adv-x="0" d="M-434 730h112l65 -150h-60zM-250 730h112l65 -150h-60z" />
<glyph unicode="&#x311;" horiz-adv-x="0" d="M-354 588q17 68 65 101.5t114 33.5q56 0 91.5 -27.5t35.5 -71.5q0 -12 -5 -36h-53v13q0 22 -22.5 36t-59.5 14q-94 0 -110 -63h-56z" />
<glyph unicode="&#x323;" horiz-adv-x="0" d="M-419 -182l22 103h104l-22 -103h-104z" />
<glyph unicode="&#x326;" horiz-adv-x="0" d="M-438 -284l8 38q58 0 74 88h-55l21 98h100l-19 -93q-14 -62 -48 -96.5t-81 -34.5z" />
<glyph unicode="&#x32e;" horiz-adv-x="0" d="M-529 -99q0 10 6 28h64v-10q0 -19 27 -30t71 -11q113 0 132 51h67q-21 -56 -80.5 -87.5t-136.5 -31.5q-66 0 -108 27t-42 64z" />
<glyph unicode="&#x32f;" horiz-adv-x="0" d="M-549 -190q21 56 80.5 87.5t136.5 31.5q66 0 108 -27t42 -64q0 -10 -6 -28h-64v10q0 19 -27 30t-71 11q-113 0 -132 -51h-67z" />
<glyph unicode="&#x330;" horiz-adv-x="0" d="M-533 -185q19 55 43 79t61 24q7 0 64.5 -16t71.5 -16q15 0 24.5 7.5t23.5 29.5h53q-16 -49 -45 -78t-63 -29q-27 0 -103 26q-17 6 -27 6q-17 0 -26 -6.5t-24 -26.5h-53z" />
<glyph unicode="&#x331;" horiz-adv-x="0" d="M-502 -165l15 69h275l-15 -69h-275z" />
<glyph unicode="&#x332;" horiz-adv-x="0" d="M-502 -165l15 69h275l-15 -69h-275z" />
<glyph unicode="&#x391;" horiz-adv-x="667" d="M-33 0l415 729h120l101 -729h-102l-27 219h-285l-123 -219h-99zM233 297h231l-40 333z" />
<glyph unicode="&#x392;" horiz-adv-x="667" d="M29 0l155 729h296q84 0 132.5 -39.5t48.5 -105.5q0 -67 -35.5 -119t-100.5 -81q53 -23 75 -51.5t22 -74.5q0 -110 -77.5 -184t-185.5 -74h-330zM140 82h227q70 0 114.5 45t44.5 115q0 91 -106 91h-226zM211 415h180q86 0 130 40t44 106q0 86 -124 86h-180z" />
<glyph unicode="&#x393;" horiz-adv-x="611" d="M40 0l155 729h489l-17 -82h-395l-138 -647h-94z" />
<glyph unicode="&#x394;" horiz-adv-x="712" d="M-52 0l473 715h74l169 -715h-716zM92 82h463l-122 516z" />
<glyph unicode="&#x395;" horiz-adv-x="667" d="M40 0l155 729h506l-17 -82h-412l-50 -233h396l-18 -82h-395l-54 -250h429l-17 -82h-523z" />
<glyph unicode="&#x396;" horiz-adv-x="611" d="M-22 0l18 84l555 563h-406l17 82h525l-18 -84l-556 -563h438l-17 -82h-556z" />
<glyph unicode="&#x397;" horiz-adv-x="722" d="M33 0l155 729h94l-67 -315h373l67 315h94l-155 -729h-94l71 332h-373l-71 -332h-94z" />
<glyph unicode="&#x398;" horiz-adv-x="778" d="M55 268q0 122 57 232t157.5 178.5t218.5 68.5q136 0 213.5 -73t77.5 -204q0 -127 -53 -237.5t-154.5 -180.5t-229.5 -70q-134 0 -210.5 74.5t-76.5 211.5zM151 276q0 -101 55.5 -157t148.5 -56t169.5 56t117.5 144.5t41 188.5q0 101 -55.5 157.5t-151.5 56.5 q-92 0 -167.5 -56t-116.5 -145t-41 -189zM209 324l18 82h398l-18 -82h-398z" />
<glyph unicode="&#x399;" horiz-adv-x="278" d="M50 0l155 729h94l-155 -729h-94z" />
<glyph unicode="&#x39a;" horiz-adv-x="667" d="M29 0l155 729h94l-79 -373l444 373h120l-361 -298l206 -431h-110l-168 376l-154 -127l-53 -249h-94z" />
<glyph unicode="&#x39b;" horiz-adv-x="667" d="M-33 0l415 729h120l101 -729h-102l-77 630l-358 -630h-99z" />
<glyph unicode="&#x39c;" horiz-adv-x="833" d="M25 0l155 729h129l80 -627l346 627h131l-155 -729h-89l129 605l-334 -605h-97l-77 605l-129 -605h-89z" />
<glyph unicode="&#x39d;" horiz-adv-x="722" d="M26 0l155 729h104l250 -598l127 598h89l-155 -729h-106l-249 591l-126 -591h-89z" />
<glyph unicode="&#x39e;" horiz-adv-x="722" d="M-11 0l20 92h644l-20 -92h-644zM124 637l20 92h644l-20 -92h-644zM152 324l17 82h456l-17 -82h-456z" />
<glyph unicode="&#x39f;" horiz-adv-x="778" d="M55 268q0 122 57 232t157.5 178.5t218.5 68.5q136 0 213.5 -73t77.5 -204q0 -127 -53 -237.5t-154.5 -180.5t-229.5 -70q-134 0 -210.5 74.5t-76.5 211.5zM151 276q0 -101 55.5 -157t148.5 -56t169.5 56t117.5 144.5t41 188.5q0 101 -55.5 157.5t-151.5 56.5 q-92 0 -167.5 -56t-116.5 -145t-41 -189z" />
<glyph unicode="&#x3a0;" horiz-adv-x="621" d="M-20 0l155 729h561l-155 -729h-93l138 647h-375l-138 -647h-93z" />
<glyph unicode="&#x3a1;" horiz-adv-x="667" d="M41 0l155 729h302q185 0 185 -161q0 -105 -72 -182t-182 -77h-228l-66 -309h-94zM218 391h194q77 0 126 46t49 113q0 97 -120 97h-194z" />
<glyph unicode="&#x3a3;" horiz-adv-x="602" d="M-20 0l16 74l352 291l-229 290l16 74h541l-17 -82h-418l223 -282l-343 -283h418l-17 -82h-542z" />
<glyph unicode="&#x3a4;" horiz-adv-x="611" d="M108 647l17 82h573l-17 -82h-238l-138 -647h-94l138 647h-241z" />
<glyph unicode="&#x3a5;" horiz-adv-x="667" d="M118 729h112l136 -357l289 357h111l-368 -443l-61 -286h-94l61 286z" />
<glyph unicode="&#x3a6;" horiz-adv-x="761" d="M95 365q19 91 108.5 149t203.5 68l31 147h94l-31 -147q109 -10 173.5 -68t45.5 -149q-13 -62 -61 -110t-113 -74.5t-138 -33.5l-31 -147h-94l31 147q-109 10 -173.5 68t-45.5 150zM181 365q-13 -61 30.5 -97t118.5 -45l61 283q-80 -9 -138.5 -45t-71.5 -96zM424 223 q80 9 138.5 45t71.5 97q13 60 -30.5 96t-118.5 45z" />
<glyph unicode="&#x3a7;" horiz-adv-x="667" d="M-28 0l339 374l-167 355h113l125 -285l248 285h114l-323 -355l179 -374h-115l-134 304l-264 -304h-115z" />
<glyph unicode="&#x3a8;" horiz-adv-x="745" d="M129 524l44 205h86l-44 -205q-17 -79 18.5 -140.5t106.5 -78.5l90 424h94l-90 -424q78 17 139.5 78.5t78.5 140.5l43 205h86l-43 -205q-24 -112 -115.5 -195.5t-205.5 -100.5l-48 -228h-94l48 228q-106 17 -162 100.5t-32 195.5z" />
<glyph unicode="&#x3a9;" horiz-adv-x="760" d="M-20 0l17 82h199l14 67q-53 32 -82.5 87t-29.5 122q0 98 56.5 187.5t146.5 142.5t186 53q112 0 184 -71.5t72 -178.5q0 -106 -65.5 -199.5t-164.5 -142.5l-14 -67h199l-18 -82h-292l43 201q88 24 152.5 103t64.5 171q0 79 -49 131.5t-129 52.5q-107 0 -192 -87.5 t-85 -197.5q0 -63 32.5 -109.5t88.5 -63.5l-42 -201h-292z" />
<glyph unicode="&#x3b1;" horiz-adv-x="770" d="M71 249q25 118 121.5 202.5t210.5 84.5q140 0 190 -179q90 168 108 189l57 -44q-28 -32 -147 -253q16 -162 45 -227l-76 -44q-20 43 -35 167q-122 -157 -258 -157q-112 0 -175.5 76t-40.5 185zM153 249q-16 -77 28 -131t122 -54q67 0 126.5 52t104.5 133 q-22 211 -147 211q-80 0 -148 -62.5t-86 -148.5z" />
<glyph unicode="&#x3b2;" horiz-adv-x="549" d="M-26 -230l163 768q19 89 83.5 140t149.5 51t133.5 -39.5t48.5 -107.5q0 -60 -31 -107t-89 -72q84 -37 84 -125q0 -128 -82.5 -210.5t-210.5 -82.5q-69 0 -109 46l-56 -261h-84zM131 114q42 -48 112 -48q79 0 132 52.5t53 132.5q0 98 -124 98h-31l18 82q74 0 123.5 38 t49.5 96q0 41 -26.5 64t-72.5 23q-119 0 -144 -114z" />
<glyph unicode="&#x3b3;" horiz-adv-x="641" d="M130 524h87l77 -414l254 414h87l-324 -531l-48 -223h-82l48 223z" />
<glyph unicode="&#x3b4;" horiz-adv-x="549" d="M22 173q0 103 78.5 171.5t195.5 91.5q-37 37 -56.5 70.5t-19.5 75.5q0 67 54 107t130 40q92 0 138 -71l-52 -42q-36 46 -100 46q-86 0 -86 -71q0 -28 16 -54.5t35.5 -44t47.5 -39.5q7 -5 11 -8q106 -86 106 -186q0 -22 -3 -36q-22 -100 -108 -169t-187 -69 q-88 0 -144 52.5t-56 135.5zM119 187q0 -53 33 -86t87 -33q63 0 116 45t67 110q3 13 3 34q0 84 -67 126q-93 0 -166 -55.5t-73 -140.5z" />
<glyph unicode="&#x3b5;" horiz-adv-x="609" d="M54 171q17 83 117 117q-70 35 -53 111q15 72 88 115t160 43q104 0 215 -57l-37 -56q-75 37 -194 37q-55 0 -98.5 -20.5t-51.5 -61.5q-6 -31 9 -49.5t56 -26t70.5 -9t86.5 -1.5l-13 -61q-47 0 -72.5 -0.5t-67 -4.5t-64.5 -12t-43.5 -24.5t-25.5 -39.5q-12 -58 33.5 -92.5 t117.5 -34.5q115 0 194 36l15 -56q-126 -56 -225 -56q-105 0 -170.5 56.5t-46.5 146.5z" />
<glyph unicode="&#x3b6;" horiz-adv-x="522" d="M74 262q27 125 113 231.5t207 170.5h-235l13 61h420l-13 -61h-51q-137 -38 -239.5 -150.5t-132.5 -251.5q-16 -74 13 -128.5t93 -54.5h37q64 0 100 -44.5t23 -108.5q-13 -63 -68 -106t-119 -43l14 68q31 0 57.5 24t33.5 57q7 32 -9.5 54.5t-47.5 22.5h-37 q-97 0 -146 76.5t-26 182.5z" />
<glyph unicode="&#x3b7;" d="M18 0l111 524h82l-9 -44q74 56 157 56q79 0 124 -54.5t29 -132.5l-123 -579h-82l123 579q10 46 -15.5 78.5t-71.5 32.5q-47 0 -91 -23.5t-73 -62.5l-79 -374h-82z" />
<glyph unicode="&#x3b8;" horiz-adv-x="581" d="M93 352q16 75 42 141.5t63 123.5t89 90.5t111 33.5t96.5 -33.5t50.5 -90.5t11 -123.5t-18 -141.5q-21 -95 -59.5 -174.5t-102 -134.5t-138.5 -55q-57 0 -94 31t-52 84t-14.5 116t15.5 133zM167 314q-44 -250 87 -250t193 250h-280zM183 390h281q11 58 14.5 101.5t-2 86 t-29.5 65t-66 22.5q-34 0 -62.5 -16t-48.5 -41t-37 -63t-28 -73.5t-22 -81.5z" />
<glyph unicode="&#x3b9;" horiz-adv-x="354" d="M119 157l78 367h82l-78 -367q-8 -37 5 -65t44 -28l-16 -76q-64 0 -97 50t-18 119z" />
<glyph unicode="&#x3ba;" horiz-adv-x="500" d="M8 0l111 524h84l-46 -218l269 218h108l-222 -181l140 -343h-96l-114 291l-107 -88l-43 -203h-84z" />
<glyph unicode="&#x3bb;" horiz-adv-x="685" d="M18 0l382 475l-6 36q-10 62 -49.5 102.5t-99.5 40.5l15 68q85 0 144 -51.5t73 -133.5l91 -537h-88l-64 379l-304 -379h-94z" />
<glyph unicode="&#x3bc;" horiz-adv-x="692" d="M37 -230l160 754h82l-70 -333q2 -57 27 -92t74 -35q48 0 89 35.5t66 91.5l70 333h82l-111 -524h-82l10 46q-66 -58 -141 -58t-115 58l-59 -276h-82z" />
<glyph unicode="&#x3bd;" horiz-adv-x="571" d="M95 524h88l93 -445q78 45 132 116.5t71 153.5q19 86 22 175h83q-3 -84 -23 -175q-25 -117 -108 -216t-199 -149l-51 21z" />
<glyph unicode="&#x3be;" d="M64 217q12 57 53.5 102.5t101.5 73.5q-92 53 -70 151q14 72 89 120h-79l13 61h420l-13 -61h-187q-61 -10 -106 -41t-55 -79q-11 -54 32 -85.5t110 -31.5l-15 -68q-74 0 -136 -39.5t-76 -102.5q-12 -58 22 -98t94 -40h37q64 0 100 -44.5t23 -108.5q-13 -63 -68 -106 t-119 -43l14 68q31 0 57.5 24t33.5 57q7 32 -9.5 54.5t-47.5 22.5h-37q-93 0 -147 62t-35 152z" />
<glyph unicode="&#x3bf;" d="M31 168q0 100 36 184t106 135.5t161 51.5q88 0 140 -53t52 -134q0 -158 -85 -262.5t-220 -104.5q-85 0 -137.5 50t-52.5 133zM119 188q0 -59 31 -92.5t85 -33.5q88 0 145.5 79t57.5 192q0 61 -31 95t-86 34q-87 0 -144.5 -81.5t-57.5 -192.5z" />
<glyph unicode="&#x3c0;" horiz-adv-x="672" d="M53 343q23 105 81.5 143t178.5 38h390l-14 -67h-100l-97 -457h-83l97 457h-166l-97 -457h-83l97 457q-58 0 -91 -27.5t-46 -86.5h-67z" />
<glyph unicode="&#x3c1;" horiz-adv-x="636" d="M-31 -230l105 492q24 112 113 193t195 81t161 -81t31 -193t-113.5 -193t-194.5 -81q-92 0 -156 61l-59 -279h-82zM130 141q45 -77 152 -77q72 0 132.5 59t77.5 139t-18.5 139t-107.5 59t-132.5 -59t-77.5 -139z" />
<glyph unicode="&#x3c2;" d="M75 270q23 108 105 187t179 79q68 0 112 -43.5t43 -111.5l-75 -15q0 41 -27 67.5t-69 26.5q-65 0 -117 -56.5t-69 -133.5t11.5 -134t93.5 -57h37q64 0 100 -44.5t23 -108.5q-13 -63 -68 -106t-119 -43l14 68q31 0 57.5 24t33.5 57q7 32 -9.5 54.5t-47.5 22.5h-37 q-98 0 -146 79t-25 188z" />
<glyph unicode="&#x3c3;" horiz-adv-x="649" d="M65 168q0 100 36 184t106 135.5t161 51.5q32 0 62 -8q95 7 237 45l5 -74q-76 -19 -154 -27q42 -51 42 -123q0 -158 -85 -262.5t-220 -104.5q-85 0 -137.5 50t-52.5 133zM153 188q0 -59 31 -92.5t85 -33.5q88 0 145.5 79t57.5 192q0 61 -31 95t-86 34q-87 0 -144.5 -81.5 t-57.5 -192.5z" />
<glyph unicode="&#x3c4;" horiz-adv-x="499" d="M113 445l16 76h363l-17 -76h-140l-61 -288q-8 -37 4.5 -65t43.5 -28l-16 -76q-63 0 -96 50t-18 119l61 288h-140z" />
<glyph unicode="&#x3c5;" d="M55 175l74 349h82l-74 -349q-10 -46 16.5 -78.5t73.5 -32.5q64 0 115 55.5t67 130.5q28 129 28 274h83q1 -134 -29 -274q-22 -106 -103 -184t-178 -78q-80 0 -125.5 54.5t-29.5 132.5z" />
<glyph unicode="&#x3c6;" horiz-adv-x="858" d="M74 262q19 88 86 161.5t159 106.5l12 -64q-66 -24 -113.5 -80t-61.5 -124q-18 -82 40 -134t156 -62l39 184q25 116 97 201t165 85q91 0 128.5 -81.5t14.5 -192.5q-25 -113 -133.5 -187t-244.5 -85l-47 -220h-82l47 220q-85 7 -149.5 41t-96.5 94.5t-16 136.5zM434 66 q102 10 182 62t98 134q9 50 8 94t-23 74t-62 30q-42 0 -77 -32.5t-55 -77.5t-32 -100z" />
<glyph unicode="&#x3c7;" horiz-adv-x="646" d="M-31 -230l289 377l-129 377h92l101 -294l225 294h92l-289 -377l129 -377h-92l-100 294l-226 -294h-92z" />
<glyph unicode="&#x3c8;" horiz-adv-x="722" d="M55 175l74 349h82l-74 -349q-11 -53 31 -79t116 -31l141 664h82l-141 -664q172 12 193 110l74 349h82l-74 -349q-18 -82 -100 -129.5t-191 -55.5l-47 -220h-82l47 220q-105 8 -168 55.5t-45 129.5z" />
<glyph unicode="&#x3c9;" horiz-adv-x="757" d="M76 275q24 108 118 249h62q-64 -96 -98 -249q-9 -44 -13 -76t-2.5 -65.5t18 -51.5t46.5 -18q87 0 133 141q4 67 22 144h82q-7 -32 -10.5 -50t-9 -48.5t-7 -49t-2.5 -43t3 -39t10.5 -28.5t19 -20.5t29.5 -6.5q30 0 54 18t39.5 51.5t25.5 65.5t19 76q33 150 8 249h63 q35 -139 11 -249q-25 -118 -87 -202.5t-149 -84.5q-94 0 -116 102q-65 -102 -154 -102q-59 0 -91.5 43t-34.5 106.5t11 137.5z" />
<glyph unicode="&#x3d1;" horiz-adv-x="624" d="M55 175l37 174h82l-37 -174q-10 -47 21.5 -77.5t83.5 -30.5q53 0 97 30.5t54 77.5l46 216q-54 3 -95.5 8.5t-81 18.5t-63.5 32t-34.5 50.5t-1.5 73.5q16 77 82.5 131t143.5 54q89 0 135 -69.5t25 -165.5l-15 -74h68l-13 -61h-68l-46 -214q-17 -80 -91 -135t-159 -55 q-86 0 -136.5 54.5t-33.5 135.5zM229 574q-7 -33 7.5 -56.5t48.5 -36.5t73.5 -19.5t93.5 -9.5l15 72q15 71 -9 123t-82 52q-50 0 -93 -37t-54 -88z" />
<glyph unicode="&#x3d5;" horiz-adv-x="701" d="M74 262q22 104 107.5 181.5t191.5 92.5l41 193h84l-41 -193q99 -15 151.5 -92.5t30.5 -181.5t-107.5 -181.5t-191.5 -92.5l-46 -218h-84l47 218q-100 15 -152.5 92.5t-30.5 181.5zM156 262q-15 -70 19 -123.5t99 -67.5l81 382q-71 -14 -127.5 -67.5t-71.5 -123.5zM358 71 q71 14 127.5 67.5t71.5 123.5t-19 123.5t-99 67.5z" />
<glyph unicode="&#x3d6;" horiz-adv-x="757" d="M76 275q24 108 118 249h62q-64 -96 -98 -249q-9 -44 -13 -76t-2.5 -65.5t18 -51.5t46.5 -18q87 0 133 141q4 67 22 144h82q-7 -32 -10.5 -50t-9 -48.5t-7 -49t-2.5 -43t3 -39t10.5 -28.5t19 -20.5t29.5 -6.5q30 0 54 18t39.5 51.5t25.5 65.5t19 76q15 71 18.5 132.5 t-6.5 116t-43 86t-88 31.5q-116 0 -238 -40l-7 51q128 42 256 42q67 0 114.5 -36t67.5 -95t23.5 -134t-15.5 -154q-25 -118 -87 -202.5t-149 -84.5q-94 0 -116 102q-65 -102 -154 -102q-59 0 -91.5 43t-34.5 106.5t11 137.5z" />
<glyph unicode="&#x3f5;" horiz-adv-x="500" d="M27 174q0 160 84 262.5t220 102.5q77 0 124.5 -43t48.5 -103h-88q-8 33 -34 51t-66 18q-64 0 -112 -46t-72 -120h214l-14 -68h-215q-2 -28 -2 -43q0 -58 31 -90.5t83 -32.5q86 0 131 69h91q-33 -77 -91 -111.5t-145 -34.5q-86 0 -137 53t-51 136z" />
<glyph unicode="&#x400;" horiz-adv-x="667" d="M40 0l155 729h506l-17 -82h-412l-50 -233h396l-18 -82h-395l-54 -250h429l-17 -82h-523zM312 949h106l72 -148h-53z" />
<glyph unicode="&#x401;" horiz-adv-x="667" d="M40 0l155 729h506l-17 -82h-412l-50 -233h396l-18 -82h-395l-54 -250h429l-17 -82h-523zM329 811l22 103h104l-22 -103h-104zM490 811l22 103h104l-22 -103h-104z" />
<glyph unicode="&#x402;" horiz-adv-x="686" d="M31 647l17 82h492l-17 -82h-199l-42 -200h200q80 0 122 -38.5t42 -101.5q0 -24 -5 -43l-56 -264q-15 -66 -51.5 -103t-112.5 -37h-83l23 82h42q45 0 63 17t26 51l57 257q4 15 4 31q0 67 -89 67h-199l-78 -365h-93l137 647h-200z" />
<glyph unicode="&#x403;" horiz-adv-x="611" d="M40 0l155 729h489l-17 -82h-396l-138 -647h-93zM425 801l128 148h112l-180 -148h-60z" />
<glyph unicode="&#x404;" horiz-adv-x="717" d="M54 253q0 127 50 231t131 172q100 85 241 85q241 0 241 -236q0 -25 -3 -53h-96q4 70 -9 113q-13 45 -52 69.5t-98 24.5q-103 0 -182.5 -73.5t-111.5 -199.5h366l-17 -82h-364q-2 -15 -2 -45q0 -95 46 -147.5t130 -52.5q95 0 154 46q44 34 76 110h95q-94 -238 -332 -238 q-130 0 -196.5 73t-66.5 203z" />
<glyph unicode="&#x405;" horiz-adv-x="667" d="M-29 232h88q-16 -64 14 -112q38 -61 155 -61q90 0 141 31q27 17 47 44.5t26 56.5q9 43 -17.5 71.5t-91.5 46.5l-170 48q-135 37 -107 170q21 99 102.5 156.5t201.5 57.5q126 0 183.5 -59.5t35.5 -166.5h-88q14 71 -24.5 109.5t-125.5 38.5q-74 0 -126 -34t-64 -89 q-8 -42 14 -66t84 -42l172 -49q70 -20 100 -68t16 -115q-10 -47 -41 -92.5t-74 -74.5q-86 -56 -217 -56q-169 0 -223 104q-29 56 -11 151z" />
<glyph unicode="&#x406;" horiz-adv-x="278" d="M50 0l155 729h94l-155 -729h-94z" />
<glyph unicode="&#x407;" horiz-adv-x="278" d="M50 0l155 729h94l-155 -729h-94zM130 804l22 103h104l-22 -103h-104zM291 804l22 103h104l-22 -103h-104z" />
<glyph unicode="&#x408;" horiz-adv-x="500" d="M-3 122q0 22 6 48l14 64h94l-14 -66q-4 -16 -4 -34q0 -34 25 -55t65 -21q59 0 98 44q30 34 47 114l109 513h94l-116 -547q-21 -98 -87 -151.5t-165 -53.5q-70 0 -111 32q-55 45 -55 113z" />
<glyph unicode="&#x409;" horiz-adv-x="1087" d="M-44 0l20 94q108 0 178 324l67 311h449l-66 -314h180q228 0 228 -181q0 -57 -22.5 -96t-66.5 -77q-70 -61 -172 -61h-329l138 647h-262l-49 -227q-92 -420 -293 -420zM533 82h227q65 0 104 35q57 49 57 122q0 94 -108 94h-227z" />
<glyph unicode="&#x40a;" horiz-adv-x="1164" d="M33 0l154 729h93l-66 -315h374l66 315h93l-66 -314h180q119 0 173.5 -45.5t54.5 -133.5q0 -102 -77.5 -169t-182.5 -67h-329l70 332h-373l-70 -332h-94zM610 82h227q72 0 116.5 45t44.5 110q0 96 -108 96h-227z" />
<glyph unicode="&#x40b;" horiz-adv-x="646" d="M31 647l17 82h492l-17 -82h-199l-42 -200h160q80 0 122 -38.5t42 -101.5q0 -24 -5 -43l-56 -264h-93l57 267q4 15 4 31q0 67 -89 67h-159l-78 -365h-93l137 647h-200z" />
<glyph unicode="&#x40c;" horiz-adv-x="664" d="M29 0l155 729h93l-67 -315l430 315h120l-487 -354l344 -375h-119l-307 324l-69 -324h-93zM458 801l128 148h112l-180 -148h-60z" />
<glyph unicode="&#x40d;" horiz-adv-x="731" d="M33 0l155 729h88l-127 -596l508 596h101l-155 -729h-88l126 591l-503 -591h-105zM337 949h106l72 -148h-53z" />
<glyph unicode="&#x40e;" horiz-adv-x="530" d="M-28 0l181 244l-139 485h113l104 -379l265 379h111l-522 -729h-113zM199 900q0 12 5 36h53v-13q0 -22 22.5 -36t59.5 -14q94 0 110 63h56q-15 -59 -46 -86q-54 -49 -133 -49q-56 0 -91.5 27.5t-35.5 71.5z" />
<glyph unicode="&#x40f;" horiz-adv-x="722" d="M33 0l155 729h94l-138 -647h373l138 647h94l-155 -729h-232l-29 -135h-80l29 135h-249z" />
<glyph unicode="&#x410;" horiz-adv-x="667" d="M-33 0l415 729h120l101 -729h-102l-27 219h-285l-123 -219h-99zM233 297h231l-40 333z" />
<glyph unicode="&#x411;" horiz-adv-x="639" d="M29 0l155 729h489l-17 -82h-396l-50 -232h180q228 1 228 -177q0 -100 -88 -177q-70 -61 -172 -61h-329zM139 82h227q66 0 105 35q57 48 57 121q0 35 -19 60q-25 35 -89 35h-227z" />
<glyph unicode="&#x412;" horiz-adv-x="667" d="M29 0l155 729h296q97 0 145 -51q36 -39 36 -94q0 -67 -35.5 -119t-100.5 -81q53 -23 75 -51.5t22 -74.5q0 -100 -65 -171q-78 -87 -198 -87h-330zM140 82h227q81 0 125 57q34 46 34 103q0 91 -106 91h-226zM211 415h180q93 0 136 46q38 41 38 100q0 86 -124 86h-180z" />
<glyph unicode="&#x413;" horiz-adv-x="611" d="M40 0l155 729h489l-17 -82h-396l-138 -647h-93z" />
<glyph unicode="&#x414;" horiz-adv-x="816" d="M-19 -135l45 209h92q61 26 103 111t77 226l70 318h450l-139 -655h91l-45 -209h-80l29 135h-584l-29 -135h-80zM255 82h331l120 565h-262l-50 -239q-56 -229 -139 -326z" />
<glyph unicode="&#x415;" horiz-adv-x="667" d="M40 0l155 729h506l-17 -82h-412l-50 -233h396l-18 -82h-395l-54 -250h429l-17 -82h-523z" />
<glyph unicode="&#x416;" horiz-adv-x="897" d="M-28 0l405 375l-212 354h120l173 -308l65 308h93l-65 -308l303 308h120l-362 -354l245 -375h-110l-217 324l-69 -324h-93l69 324l-355 -324h-110z" />
<glyph unicode="&#x417;" horiz-adv-x="652" d="M21 162q0 27 8 70h88q-6 -24 -6 -44q0 -64 46.5 -96.5t128.5 -32.5q94 0 155 41t61 108q0 43 -38 78t-99 35h-108l17 82h88q69 0 129.5 51t60.5 111q0 45 -37.5 71.5t-102.5 26.5q-87 0 -142 -38.5t-71 -109.5h-88q23 107 106 166.5t209 59.5q104 0 161.5 -43.5 t57.5 -121.5q0 -72 -39 -124t-104 -78q97 -39 97 -134q0 -128 -91.5 -195.5t-244.5 -67.5q-109 0 -175.5 47.5t-66.5 137.5z" />
<glyph unicode="&#x418;" horiz-adv-x="731" d="M33 0l155 729h88l-127 -596l508 596h101l-155 -729h-88l126 591l-503 -591h-105z" />
<glyph unicode="&#x419;" horiz-adv-x="731" d="M33 0l155 729h88l-127 -596l508 596h101l-155 -729h-88l126 591l-503 -591h-105zM361 892q0 12 5 36h53v-13q0 -22 22.5 -36t59.5 -14q94 0 110 63h56q-15 -59 -46 -86q-54 -49 -133 -49q-56 0 -91.5 27.5t-35.5 71.5z" />
<glyph unicode="&#x41a;" horiz-adv-x="664" d="M29 0l155 729h93l-67 -315l430 315h120l-487 -354l344 -375h-119l-307 324l-69 -324h-93z" />
<glyph unicode="&#x41b;" horiz-adv-x="646" d="M-44 0l20 94q57 0 99 84.5t79 239.5l67 311h450l-154 -729h-94l137 647h-262l-49 -227q-21 -86 -45 -153.5t-59 -132t-83 -99.5t-106 -35z" />
<glyph unicode="&#x41c;" horiz-adv-x="833" d="M25 0l155 729h129l80 -627l346 627h131l-155 -729h-89l129 605l-334 -605h-97l-77 605l-129 -605h-89z" />
<glyph unicode="&#x41d;" horiz-adv-x="722" d="M33 0l155 729h94l-67 -315h373l67 315h94l-155 -729h-94l71 332h-373l-71 -332h-94z" />
<glyph unicode="&#x41e;" horiz-adv-x="778" d="M54 263q0 95 37.5 188.5t104.5 162.5q121 127 291 127q142 0 219 -77q33 -34 52.5 -87.5t19.5 -112.5q0 -119 -52.5 -231t-140.5 -179q-100 -77 -244 -77q-64 0 -121 20.5t-93 56.5q-73 73 -73 209zM150 271q0 -89 41 -141q26 -33 70 -52.5t93 -19.5q73 0 136 33t107 94 q40 54 62.5 123.5t22.5 137.5q0 89 -41 142q-26 33 -70.5 52.5t-95.5 19.5q-70 0 -133.5 -33.5t-107.5 -93.5q-84 -116 -84 -262z" />
<glyph unicode="&#x41f;" horiz-adv-x="722" d="M33 0l155 729h561l-155 -729h-94l138 647h-373l-138 -647h-94z" />
<glyph unicode="&#x420;" horiz-adv-x="667" d="M41 0l155 729h302q185 0 185 -161q0 -128 -99 -207q-65 -52 -155 -52h-228l-66 -309h-94zM218 391h194q92 0 140 61q35 46 35 98q0 97 -120 97h-194z" />
<glyph unicode="&#x421;" horiz-adv-x="722" d="M62 242q0 94 34.5 190.5t93.5 167.5q117 141 292 141q143 0 206 -107q28 -50 32 -131h-96q-6 81 -44.5 119t-114.5 38q-136 0 -226 -133q-81 -121 -81 -267q0 -91 47.5 -146.5t125.5 -55.5q59 0 112.5 26t84.5 71q25 33 59 111h98q-54 -130 -100 -180 q-100 -109 -268 -109q-131 0 -198 85q-57 72 -57 180z" />
<glyph unicode="&#x422;" horiz-adv-x="611" d="M108 647l17 82h573l-17 -82h-238l-138 -647h-94l138 647h-241z" />
<glyph unicode="&#x423;" horiz-adv-x="530" d="M-28 0l181 244l-139 485h113l104 -379l265 379h111l-522 -729h-113z" />
<glyph unicode="&#x424;" horiz-adv-x="891" d="M49 290q0 93 30.5 160.5t87 107.5t130 58.5t167.5 18.5l21 94h94l-20 -94q34 0 55 -0.5t57 -4t58.5 -10t50.5 -20t44 -32t27.5 -47.5t11.5 -66q1 -84 -21.5 -148.5t-60.5 -104t-93.5 -64.5t-114 -34.5t-129.5 -9.5l-20 -94h-94l19 94q-47 0 -82 2.5t-78.5 14t-72 31.5 t-48 58t-19.5 90zM152 315q0 -31 7.5 -53.5t25 -36t33 -21.5t45 -11.5t46 -4t49.5 -0.5h11l75 353q-292 0 -292 -226zM464 188q33 0 58.5 2t63.5 8.5t65.5 22t54 39.5t40 64.5t13.5 93.5q0 26 -8 45.5t-19 32.5t-31 22t-36 13.5t-42.5 6.5t-41.5 2.5t-42 0.5z" />
<glyph unicode="&#x425;" horiz-adv-x="667" d="M-28 0l339 374l-167 355h113l123 -281l250 281h114l-323 -355l179 -374h-110l-140 301l-263 -301h-115z" />
<glyph unicode="&#x426;" horiz-adv-x="722" d="M33 0l155 729h94l-138 -647h373l138 647h94l-139 -655h92l-45 -209h-80l29 135h-573z" />
<glyph unicode="&#x427;" horiz-adv-x="642" d="M109 422q0 24 5 43l56 264h93l-57 -267q-4 -15 -4 -31q0 -67 89 -67h179l78 365h93l-155 -729h-93l60 282h-180q-80 0 -122 38.5t-42 101.5z" />
<glyph unicode="&#x428;" horiz-adv-x="836" d="M10 0l155 729h94l-138 -647h194l138 647h94l-138 -647h194l138 647h94l-155 -729h-670z" />
<glyph unicode="&#x429;" horiz-adv-x="837" d="M10 0l155 729h94l-138 -647h194l138 647h94l-138 -647h194l138 647h94l-139 -655h92l-45 -209h-80l29 135h-682z" />
<glyph unicode="&#x42a;" horiz-adv-x="866" d="M108 647l17 82h324l-66 -314h180q119 0 173.5 -44.5t54.5 -135.5q0 -58 -22 -96.5t-67 -77.5q-70 -61 -172 -61h-329l137 647h-230zM312 82h227q65 0 104 35q57 49 57 122q0 94 -108 94h-227z" />
<glyph unicode="&#x42b;" horiz-adv-x="886" d="M33 0l155 729h93l-67 -314h180q228 0 228 -179q0 -57 -22.5 -97.5t-65.5 -77.5q-70 -61 -172 -61h-329zM143 82h227q66 0 105 35q57 48 57 121q0 35 -19 60q-25 35 -89 35h-227zM664 0l155 729h94l-155 -729h-94z" />
<glyph unicode="&#x42c;" horiz-adv-x="698" d="M33 0l155 729h93l-66 -314h180q228 0 228 -181q0 -57 -22.5 -96t-66.5 -77q-70 -61 -172 -61h-329zM144 82h227q65 0 104 35q57 49 57 122q0 94 -108 94h-227z" />
<glyph unicode="&#x42d;" horiz-adv-x="717" d="M54 213q0 25 3 53h96q-4 -70 9 -113q13 -45 52 -69.5t98 -24.5q103 0 182.5 73.5t111.5 199.5h-366l17 82h364q2 15 2 45q0 95 -46 147.5t-130 52.5q-95 0 -154 -46q-44 -34 -76 -110h-95q94 238 332 238q130 0 196.5 -73t66.5 -203q0 -127 -50 -231t-131 -172 q-100 -85 -241 -85q-241 0 -241 236z" />
<glyph unicode="&#x42e;" horiz-adv-x="1049" d="M10 0l155 729h93l-67 -315h158q47 148 160.5 237.5t256.5 89.5q134 0 208.5 -74.5t74.5 -205.5q0 -132 -55.5 -237t-146.5 -170q-106 -77 -242 -77q-132 0 -207 75.5t-75 204.5q0 36 6 75h-155l-70 -332h-94zM417 273q0 -99 54.5 -156.5t150.5 -57.5q135 0 233.5 114 t98.5 272q0 100 -54 157t-151 57q-134 0 -233 -114.5t-99 -271.5z" />
<glyph unicode="&#x42f;" horiz-adv-x="691" d="M-28 0l340 315q-183 8 -183 176q0 100 88 177q70 61 172 61h329l-155 -729h-93l67 314h-111l-344 -314h-110zM219 491q0 -35 19 -60q25 -35 89 -35h227l54 251h-227q-66 0 -105 -35q-57 -48 -57 -121z" />
<glyph unicode="&#x430;" d="M15 105q0 92 82 144q37 23 81 33.5t144 19.5q55 5 74.5 16.5t26.5 42.5l3 18q2 16 2 19q0 28 -30.5 46t-75.5 18q-70 0 -107 -37q-18 -18 -30 -56h-84q14 83 76.5 126.5t166.5 43.5q79 0 126.5 -31t47.5 -82q0 -10 -6 -37l-64 -301q-1 -3 -1 -10q0 -29 38 -29q8 0 17 2 l-13 -65q-12 -2 -14 -3q-25 -6 -39 -6q-36 0 -56 17.5t-20 48.5v11q-50 -44 -88 -57q-55 -20 -113 -20q-67 0 -105.5 34t-38.5 94zM103 115q0 -32 23 -49t66 -17q66 0 122.5 34.5t66.5 80.5l20 94q-43 -15 -146 -29q-71 -10 -103 -30q-22 -13 -35.5 -36t-13.5 -48z" />
<glyph unicode="&#x431;" d="M22 169q0 43 10 89q85 401 248 432q9 2 65.5 10.5t88.5 15.5q23 5 43.5 22t24.5 37l74 1q-6 -28 -11.5 -43.5t-19 -36t-40.5 -34t-69 -22.5q-115 -25 -126 -29q-12 -4 -23 -11t-17.5 -11t-16.5 -17t-12.5 -16t-14.5 -21.5t-13 -20.5q55 25 115 25q91 0 139.5 -49 t48.5 -141q0 -98 -39 -183t-109.5 -137t-157.5 -52q-91 0 -139.5 50t-48.5 142zM111 187q0 -63 30 -98t85 -35q81 0 141 83t60 192q0 64 -29.5 98.5t-84.5 34.5q-83 0 -142.5 -83t-59.5 -192z" />
<glyph unicode="&#x432;" horiz-adv-x="538" d="M20 0l112 525h239q60 0 93.5 -26.5t33.5 -75.5q0 -50 -28 -91.5t-69 -54.5q36 -9 54.5 -34.5t18.5 -58.5q0 -80 -67 -140q-51 -44 -124 -44h-263zM120 76h152q49 0 81 30.5t32 77.5q0 16 -15 27q-26 20 -65 20h-152zM169 307h118q52 0 80 18q42 28 42 68q0 18 -19 37 q-20 19 -72 19h-118z" />
<glyph unicode="&#x433;" horiz-adv-x="430" d="M20 0l111 524h295l-16 -76h-211l-95 -448h-84z" />
<glyph unicode="&#x434;" horiz-adv-x="640" d="M-68 -120l39 184h57q61 7 125 234l54 226h339l-97 -460h64l-39 -184h-70l25 120h-402l-25 -120h-70zM146 76h221l79 372h-172l-34 -152q-39 -147 -94 -220z" />
<glyph unicode="&#x435;" d="M34 173q0 61 24.5 136t59.5 122q37 50 96.5 79t124.5 29q81 0 136 -49.5t55 -121.5q0 -42 -14 -117l-3 -17h-386q-5 -19 -5 -46q0 -64 32.5 -99t91.5 -35q101 0 156 105h84q-23 -81 -93.5 -131.5t-160.5 -50.5q-85 0 -136 50q-62 59 -62 146zM145 306h294q3 24 3 33 q0 56 -31.5 89.5t-84.5 33.5q-61 0 -111 -43.5t-70 -112.5z" />
<glyph unicode="&#x436;" horiz-adv-x="818" d="M-33 0l360 264l-217 260h107l175 -222l47 222h83l-47 -222l269 222h107l-327 -260l248 -264h-103l-212 216l-46 -216h-83l46 216l-304 -216h-103z" />
<glyph unicode="&#x437;" horiz-adv-x="495" d="M10 109q0 19 5 47h88q-4 -46 10 -67q25 -35 96 -35q56 0 96.5 27t40.5 67q0 28 -23.5 50.5t-61.5 22.5h-74l16 76h62q52 0 84.5 28t32.5 65q0 30 -26 51t-70 21q-102 0 -123 -84h-88q17 77 75 119t149 42q80 0 125.5 -33.5t45.5 -92.5q0 -99 -93 -146q64 -31 64 -98 q0 -89 -70.5 -140.5t-184.5 -51.5q-176 0 -176 132z" />
<glyph unicode="&#x438;" horiz-adv-x="560" d="M20 0l111 524h84l-88 -413l323 413h98l-111 -524h-83l87 413l-322 -413h-99z" />
<glyph unicode="&#x439;" horiz-adv-x="560" d="M20 0l111 524h84l-88 -413l323 413h98l-111 -524h-83l87 413l-322 -413h-99zM239 693q0 12 5 36h53v-13q0 -22 22.5 -36t59.5 -14q94 0 110 63h56q-15 -59 -46 -86q-54 -49 -133 -49q-56 0 -91.5 27.5t-35.5 71.5z" />
<glyph unicode="&#x43a;" horiz-adv-x="510" d="M20 0l111 524h83l-47 -222l269 222h107l-327 -260l248 -264h-103l-212 216l-46 -216h-83z" />
<glyph unicode="&#x43b;" d="M-36 0l17 80q64 0 118 202l55 242h339l-112 -524h-84l96 448h-172l-38 -164q-79 -284 -219 -284z" />
<glyph unicode="&#x43c;" horiz-adv-x="621" d="M20 0l111 524h84l89 -311l221 311h84l-111 -524h-84l74 348l-186 -262h-50l-74 262l-74 -348h-84z" />
<glyph unicode="&#x43d;" horiz-adv-x="561" d="M20 0l111 524h84l-46 -215h250l46 215h84l-111 -524h-84l49 233h-250l-49 -233h-84z" />
<glyph unicode="&#x43e;" d="M30 164q0 64 22 137.5t56 121.5q38 55 97 85.5t129 30.5q87 0 137 -49q55 -53 55 -138q0 -65 -22.5 -138.5t-56.5 -120.5q-84 -116 -228 -116q-84 0 -136.5 52t-52.5 135zM118 184q0 -60 31 -95t84 -35q103 0 161 105q44 81 44 174q0 61 -31 95t-86 34q-102 0 -159 -105 q-44 -81 -44 -173z" />
<glyph unicode="&#x43f;" horiz-adv-x="560" d="M20 0l111 524h417l-111 -524h-84l95 448h-249l-95 -448h-84z" />
<glyph unicode="&#x440;" d="M-43 -213l157 737h81l-18 -84q17 35 57 60q60 39 128 39q80 0 127 -52.5t47 -142.5q0 -74 -24 -146.5t-64 -121.5q-38 -47 -91.5 -73t-112.5 -26q-53 0 -86.5 21t-56.5 70l-60 -281h-84zM133 184q0 -60 32 -95t87 -35q97 0 152 101q44 81 44 169q0 65 -31.5 101.5 t-87.5 36.5q-93 0 -149 -101q-47 -81 -47 -177z" />
<glyph unicode="&#x441;" horiz-adv-x="500" d="M26 170q0 69 23 142.5t58 119.5q82 107 224 107q83 0 129 -47q44 -46 44 -100q0 -1 -0.5 -5t-1 -11t-0.5 -13l-1 -15h-84q1 9 1 22q0 43 -27.5 67.5t-74.5 24.5q-92 0 -148 -89q-54 -85 -54 -192q0 -58 30.5 -92.5t82.5 -34.5q111 0 157 126h84q-23 -79 -58 -120 q-71 -83 -197 -83q-94 0 -143 62q-44 55 -44 131z" />
<glyph unicode="&#x442;" horiz-adv-x="400" d="M50 448l16 76h372l-16 -76h-144l-95 -448h-84l95 448h-144z" />
<glyph unicode="&#x443;" horiz-adv-x="500" d="M-42 -208l16 75q36 -4 44 -4q28 0 44 10.5t36 41.5l52 81l-68 528h90l46 -407l233 407h89l-368 -634q-63 -108 -165 -108q-26 0 -49 10z" />
<glyph unicode="&#x444;" horiz-adv-x="916" d="M21 165q0 155 88.5 264.5t210.5 109.5q51 0 87.5 -25.5t50.5 -68.5l49 229h83l-49 -229q65 94 180 94q84 0 129.5 -50.5t45.5 -141.5q0 -147 -86 -258.5t-207 -111.5q-97 0 -145 78l-58 -273h-83l59 278q-74 -83 -179 -83q-84 0 -130 50t-46 138zM112 193q0 -64 31 -101 t86 -37q77 0 137 83t60 189q0 63 -28.5 98.5t-81.5 35.5q-81 0 -142.5 -81t-61.5 -187zM493 190q0 -63 29.5 -99t81.5 -36q83 0 143 80.5t60 187.5q0 65 -30.5 101.5t-85.5 36.5q-78 0 -138 -82.5t-60 -188.5z" />
<glyph unicode="&#x445;" horiz-adv-x="500" d="M-33 0l239 267l-118 257h93l88 -192l167 192h97l-233 -257l123 -267h-94l-90 200l-174 -200h-98z" />
<glyph unicode="&#x446;" horiz-adv-x="560" d="M20 0l111 524h84l-95 -448h249l95 448h84l-97 -460h80l-39 -184h-70l26 120h-428z" />
<glyph unicode="&#x447;" horiz-adv-x="497" d="M83 318q0 15 6 51l33 155h84l-35 -165q-3 -13 -3 -26q0 -49 55 -49h127l51 240h84l-111 -524h-84l44 208h-117q-134 0 -134 110z" />
<glyph unicode="&#x448;" horiz-adv-x="695" d="M20 0l111 524h84l-95 -448h150l95 448h84l-95 -448h150l95 448h84l-111 -524h-552z" />
<glyph unicode="&#x449;" horiz-adv-x="695" d="M20 0l111 524h84l-95 -448h150l95 448h84l-95 -448h150l95 448h84l-98 -460h80l-39 -184h-70l26 120h-562z" />
<glyph unicode="&#x44a;" horiz-adv-x="640" d="M49 448l16 76l267 1l-46 -218h118q95 0 140.5 -29.5t45.5 -92.5q0 -83 -67 -141q-50 -44 -123 -44h-263l95 448h-183zM237 76h152q50 0 81 30t31 78q0 23 -23.5 35t-55.5 12h-152z" />
<glyph unicode="&#x44b;" horiz-adv-x="734" d="M20 0l111 525h84l-46 -218h118q98 0 142 -28.5t44 -91.5q0 -85 -67 -143q-50 -44 -123 -44h-263zM120 76h152q49 0 80.5 31.5t31.5 75.5q0 23 -23.5 35.5t-55.5 12.5h-152zM528 0l111 524h83l-111 -524h-83z" />
<glyph unicode="&#x44c;" horiz-adv-x="523" d="M20 0l111 525h84l-46 -218h118q99 0 142.5 -28.5t43.5 -91.5q0 -85 -67 -143q-50 -44 -123 -44h-263zM120 76h152q50 0 81 31.5t31 76.5q0 23 -23.5 35t-55.5 12h-152z" />
<glyph unicode="&#x44d;" horiz-adv-x="534" d="M30 139q0 20 3 41h84v-13q0 -113 101 -113q65 0 113.5 47.5t71.5 131.5l-226 -1l15 77h224q1 7 1 22q0 63 -28.5 97t-82.5 34q-107 0 -148 -114h-84q21 70 59 113q75 78 189 78q86 0 134 -52.5t48 -145.5q0 -42 -10 -88q-27 -127 -105.5 -201.5t-185.5 -74.5 q-83 0 -128 42.5t-45 119.5z" />
<glyph unicode="&#x44e;" horiz-adv-x="768" d="M20 0l112 524h84l-45 -215h115q4 18 14.5 43t33.5 58.5t53 61.5t78 47.5t103 19.5q91 0 139.5 -49t48.5 -141q0 -163 -81 -267.5t-226 -104.5q-54 0 -93 17t-58.5 46.5t-28 60.5t-8.5 67q0 33 7 65h-113l-51 -233h-84zM351 187q0 -63 30 -98t85 -35q82 0 141.5 82 t59.5 194q0 63 -30 97.5t-85 34.5q-83 0 -142 -81.5t-59 -193.5z" />
<glyph unicode="&#x44f;" horiz-adv-x="564" d="M-34 0l297 219q-84 3 -124 32t-40 87q0 82 55.5 134.5t134.5 52.5h263l-112 -525h-84l47 218h-28l-306 -218h-103zM188 341q0 -17 14 -27q26 -20 65 -20h152l33 155h-152q-49 0 -80.5 -32t-31.5 -76z" />
<glyph unicode="&#x450;" d="M34 173q0 61 24.5 136t59.5 122q37 50 96.5 79t124.5 29q81 0 136 -49.5t55 -121.5q0 -42 -14 -117l-3 -17h-386q-5 -19 -5 -46q0 -64 32.5 -99t91.5 -35q101 0 156 105h84q-23 -81 -93.5 -131.5t-160.5 -50.5q-85 0 -136 50q-62 59 -62 146zM145 306h294q3 24 3 33 q0 56 -31.5 89.5t-84.5 33.5q-61 0 -111 -43.5t-70 -112.5zM200 747h106l72 -148h-53z" />
<glyph unicode="&#x451;" d="M34 173q0 61 24.5 136t59.5 122q37 50 96.5 79t124.5 29q81 0 136 -49.5t55 -121.5q0 -42 -14 -117l-3 -17h-386q-5 -19 -5 -46q0 -64 32.5 -99t91.5 -35q101 0 156 105h84q-23 -81 -93.5 -131.5t-160.5 -50.5q-85 0 -136 50q-62 59 -62 146zM145 306h294q3 24 3 33 q0 56 -31.5 89.5t-84.5 33.5q-61 0 -111 -43.5t-70 -112.5zM224 612l22 103h104l-22 -103h-104zM385 612l22 103h104l-22 -103h-104z" />
<glyph unicode="&#x452;" d="M20 0l130 612h-81l15 69h81l10 48h84l-10 -48h160l-15 -69h-160l-36 -173q47 44 89 62t98 18q63 0 99 -33.5t36 -92.5q0 -20 -4 -37l-76 -356q-14 -68 -50.5 -97t-126.5 -29l12 55q37 0 55 17t26 54l69 323q6 27 6 39q0 38 -23.5 61.5t-61.5 23.5q-68 0 -117.5 -47.5 t-67.5 -130.5l-57 -269h-84z" />
<glyph unicode="&#x453;" horiz-adv-x="430" d="M20 0l111 524h295l-16 -76h-211l-95 -448h-84zM265 599l128 148h112l-180 -148h-60z" />
<glyph unicode="&#x454;" horiz-adv-x="534" d="M30 175q0 42 10 88q27 127 105.5 201.5t185.5 74.5q83 0 128 -42.5t45 -119.5q0 -20 -3 -41h-84v13q0 113 -101 113q-65 0 -113.5 -47.5t-71.5 -131.5l226 1l-15 -77h-224q-1 -7 -1 -22q0 -63 28.5 -97t82.5 -34q107 0 148 114h84q-21 -70 -59 -113q-75 -78 -189 -78 q-86 0 -134 52.5t-48 145.5z" />
<glyph unicode="&#x455;" horiz-adv-x="500" d="M-38 156h88q-4 -46 10 -67q25 -35 97 -35q55 0 93.5 22.5t45.5 59.5q6 29 -9 46t-56 27l-74 19q-88 22 -118 55.5t-16 95.5q15 73 79 116.5t156 43.5q91 0 131 -42t25 -119h-88q7 41 -15.5 62.5t-72.5 21.5q-51 0 -85 -21.5t-42 -57.5q-6 -28 13 -45.5t68 -29.5l76 -19 q74 -19 101.5 -53.5t15.5 -92.5q-17 -76 -85 -121t-167 -45q-103 0 -145 44t-26 135z" />
<glyph unicode="&#x456;" horiz-adv-x="222" d="M16 0l111 524h84l-111 -524h-84zM149 626l22 103h84l-22 -103h-84z" />
<glyph unicode="&#x457;" horiz-adv-x="278" d="M44 0l112 527h84l-112 -527h-84zM82 605l22 103h104l-22 -103h-104zM243 605l22 103h104l-22 -103h-104z" />
<glyph unicode="&#x458;" horiz-adv-x="222" d="M-115 -215l15 71q18 -2 25 -2q38 0 53.5 14t24.5 56l127 600h84l-134 -633q-14 -62 -52 -85.5t-124 -23.5q-8 0 -19 3zM152 626l22 103h84l-22 -103h-84z" />
<glyph unicode="&#x459;" horiz-adv-x="786" d="M-36 0l17 80q36 0 66.5 54t51.5 148l55 242l338 1l-46 -218h118q99 0 142.5 -28.5t43.5 -91.5q0 -85 -67 -143q-50 -44 -123 -44h-263l96 448h-172l-38 -164q-18 -77 -45 -137.5t-73 -103.5t-101 -43zM397 76h152q50 0 81 31.5t31 76.5q0 23 -23.5 35t-55.5 12h-152z" />
<glyph unicode="&#x45a;" horiz-adv-x="796" d="M-36 0l112 524h84l-46 -215h250l46 215l83 1l-46 -218h118q99 0 142.5 -28.5t43.5 -91.5q0 -85 -67 -143q-50 -44 -123 -44h-263l50 233h-250l-50 -233h-84zM398 76h152q50 0 81 31.5t31 76.5q0 23 -23.5 35t-55.5 12h-152z" />
<glyph unicode="&#x45b;" d="M20 0l130 612h-81l15 69h81l10 48h84l-10 -48h160l-15 -69h-160l-32 -173q47 44 89 62t98 18q63 0 99 -33.5t36 -92.5q0 -20 -4 -37l-80 -356h-84l73 323q6 27 6 39q0 38 -23.5 61.5t-61.5 23.5q-68 0 -117.5 -47.5t-67.5 -130.5l-61 -269h-84z" />
<glyph unicode="&#x45c;" horiz-adv-x="510" d="M20 0l111 524h83l-47 -222l269 222h107l-327 -260l248 -264h-103l-212 216l-46 -216h-83zM323 599l128 148h112l-180 -148h-60z" />
<glyph unicode="&#x45d;" horiz-adv-x="560" d="M20 0l111 524h84l-88 -413l323 413h98l-111 -524h-83l87 413l-322 -413h-99zM204 747h106l72 -148h-53z" />
<glyph unicode="&#x45e;" horiz-adv-x="500" d="M-42 -208l16 75q36 -4 44 -4q28 0 44 10.5t36 41.5l52 81l-68 528h90l46 -407l233 407h89l-368 -634q-63 -108 -165 -108q-26 0 -49 10zM200 698q0 12 5 36h53v-13q0 -22 22.5 -36t59.5 -14q94 0 110 63h56q-15 -59 -46 -86q-54 -49 -133 -49q-56 0 -91.5 27.5 t-35.5 71.5z" />
<glyph unicode="&#x45f;" horiz-adv-x="560" d="M20 0l111 524h84l-95 -448h249l95 448h84l-111 -524h-164l-25 -120h-70l26 120h-184z" />
<glyph unicode="&#x48c;" horiz-adv-x="698" d="M33 0l115 541h-88l15 69h88l25 119h93l-25 -119h94l-15 -69h-94l-26 -126h180q129 1 182.5 -52t44.5 -155q-18 -87 -88 -147q-70 -61 -172 -61h-329zM144 82h227q65 0 104 35q22 19 38 49.5t19.5 66t-18.5 65.5q-25 35 -90 35h-227z" />
<glyph unicode="&#x48d;" horiz-adv-x="523" d="M6 380l15 69h94l16 76h84l-16 -76h97l-15 -69h-97l-15 -73h118q111 1 153.5 -36.5t29.5 -120.5q-14 -62 -64 -106t-123 -44h-263l80 380h-94zM120 76h152q47 0 74 26q26 21 34 53q5 18 4 32t-14 24q-26 20 -65 20h-152z" />
<glyph unicode="&#x48e;" horiz-adv-x="667" d="M41 0l155 729h301q108 0 154.5 -55.5t24.5 -158.5q-18 -84 -74 -136l74 -74l-59 -38l-71 71q-55 -29 -117 -29h-229l-66 -309h-93zM217 391h194q39 0 70 12l-59 59l60 38l58 -59q29 31 40 78q13 60 -17 94t-97 34h-194z" />
<glyph unicode="&#x48f;" d="M-43 -218l158 742h77l-17 -79q79 94 187 94q104 0 148.5 -77t15.5 -209q-20 -94 -69 -160l79 -79l-60 -38l-65 66q-74 -65 -168 -65q-96 0 -144 78l-58 -273h-84zM142 258q-19 -92 9 -147.5t94 -55.5q60 0 109 43l-72 73l59 38l58 -58q28 46 41 104q19 94 -10.5 150 t-98.5 56q-66 0 -118 -55.5t-71 -147.5z" />
<glyph unicode="&#x490;" horiz-adv-x="611" d="M-48 0l155 729l396 -1l21 97h93l-38 -178h-396l-138 -647h-93z" />
<glyph unicode="&#x491;" horiz-adv-x="430" d="M-47 0l112 524h211l22 105h84l-39 -181h-211l-95 -448h-84z" />
<glyph unicode="&#x492;" horiz-adv-x="611" d="M40 0l92 435h-90l15 69h90l48 225h489l-17 -82h-396l-31 -143h92l-15 -69h-91l-93 -435h-93z" />
<glyph unicode="&#x493;" horiz-adv-x="430" d="M-6 292l15 69h87l35 163h295l-16 -76h-211l-18 -87h103l-15 -69h-103l-62 -292h-84l62 292h-88z" />
<glyph unicode="&#x494;" horiz-adv-x="611" d="M40 0l155 729h489l-17 -82h-397l-42 -200h160q80 0 122 -38.5t42 -101.5q0 -24 -5 -43l-56 -264q-15 -66 -51.5 -103t-112.5 -37h-83l23 82h42q45 0 63 17t26 51l57 257q4 15 4 31q0 67 -89 67h-159l-78 -365h-93z" />
<glyph unicode="&#x495;" horiz-adv-x="430" d="M20 0l111 524h295l-16 -76h-211l-29 -139h90q63 0 99 -33.5t36 -92.5q0 -20 -4 -37l-31 -146q-14 -68 -50.5 -97t-126.5 -29l12 55q37 0 55 17t26 54l24 113q6 27 6 39q0 38 -23.5 61.5t-61.5 23.5h-67l-50 -237h-84z" />
<glyph unicode="&#x496;" horiz-adv-x="897" d="M-28 0l405 375l-212 354h120l173 -308l65 308h93l-65 -308l303 308h120l-362 -354l197 -301h64l-45 -209h-80l29 135h-30l-217 324l-69 -324h-93l69 324l-355 -324h-110z" />
<glyph unicode="&#x497;" horiz-adv-x="818" d="M-33 0l360 264l-217 260h107l175 -222l47 222h83l-47 -222l269 222h107l-327 -260l188 -200h74l-39 -184h-70l26 120h-34l-212 216l-46 -216h-83l46 216l-304 -216h-103z" />
<glyph unicode="&#x498;" horiz-adv-x="652" d="M21 162q0 27 8 70h88q-6 -24 -6 -44q0 -64 46.5 -96.5t128.5 -32.5q94 0 155 41t61 108q0 43 -38 78t-99 35h-108l17 82h88q69 0 129.5 51t60.5 111q0 45 -37.5 71.5t-102.5 26.5q-87 0 -142 -38.5t-71 -109.5h-88q23 107 106 166.5t209 59.5q104 0 161.5 -43.5 t57.5 -121.5q0 -72 -39 -124t-104 -78q97 -39 97 -134q0 -120 -81.5 -187t-220.5 -75l20 -12q59 -39 59 -96q0 -35 -35 -55t-99 -20q-38 0 -68 10l-9 45q30 -10 70 -10q29 0 47.5 12t18.5 32q0 27 -20 50t-63 45q-91 9 -144 55.5t-53 127.5z" />
<glyph unicode="&#x499;" horiz-adv-x="495" d="M10 109q0 19 5 47h88q-4 -46 10 -67q25 -35 96 -35q56 0 96.5 27t40.5 67q0 28 -23.5 50.5t-61.5 22.5h-74l16 76h62q52 0 84.5 28t32.5 65q0 30 -26 51t-70 21q-102 0 -123 -84h-88q17 77 75 119t149 42q80 0 125.5 -33.5t45.5 -92.5q0 -99 -93 -146q64 -31 64 -98 q0 -81 -60 -132t-159 -59l21 -12q59 -39 59 -96q0 -35 -35 -55t-99 -20q-38 0 -68 10l-9 45q30 -10 70 -10q29 0 47.5 12t18.5 32q0 27 -20 50t-63 45q-134 15 -134 130z" />
<glyph unicode="&#x49a;" horiz-adv-x="664" d="M29 0l155 729h93l-67 -315l430 315h120l-487 -354l269 -301h82l-45 -209h-80l29 135h-30l-307 324l-69 -324h-93z" />
<glyph unicode="&#x49b;" horiz-adv-x="510" d="M20 0l111 524h83l-47 -222l269 222h107l-327 -260l188 -200h73l-39 -184h-70l26 120h-33l-212 216l-46 -216h-83z" />
<glyph unicode="&#x49c;" horiz-adv-x="664" d="M29 0l155 729h93l-67 -315l81 60l35 163h84l-19 -91l249 183h120l-391 -284l-30 -142l278 -303h-119l-182 192l-17 -79h-84l32 152l-56 59l-69 -324h-93z" />
<glyph unicode="&#x49d;" horiz-adv-x="510" d="M20 0l111 524h83l-47 -222l43 36l27 126h64l-13 -62l148 122h107l-276 -219l-16 -78l213 -227h-103l-130 132l-11 -52h-64l22 106l-29 30l-46 -216h-83z" />
<glyph unicode="&#x49e;" horiz-adv-x="664" d="M29 0l121 569h-92l15 69h92l19 91h93l-19 -91h90l-15 -69h-90l-33 -155l430 315h120l-487 -354l335 -375h-110l-307 324l-69 -324h-93z" />
<glyph unicode="&#x49f;" horiz-adv-x="510" d="M20 0l84 397h-64l15 59h62l14 68h83l-14 -68h60l-15 -59h-58l-20 -95l269 222h107l-327 -260l248 -264h-103l-212 216l-46 -216h-83z" />
<glyph unicode="&#x4a0;" horiz-adv-x="704" d="M-25 647l17 82h324l-66 -315l430 315h120l-487 -354l344 -375h-119l-307 324l-69 -324h-94l137 647h-230z" />
<glyph unicode="&#x4a1;" horiz-adv-x="618" d="M40 448l16 76l267 1l-48 -223l269 222h107l-327 -260l248 -264h-103l-212 216l-46 -216h-83l95 448h-183z" />
<glyph unicode="&#x4a2;" horiz-adv-x="722" d="M33 0l155 729h93l-67 -315h374l67 315h94l-140 -655h81l-45 -209h-80l29 135h-94l71 332h-373l-71 -332h-94z" />
<glyph unicode="&#x4a3;" horiz-adv-x="561" d="M20 0l111 524h84l-46 -215h250l46 215h84l-98 -460h70l-39 -184h-70l26 120h-84l49 233h-250l-49 -233h-84z" />
<glyph unicode="&#x4a4;" horiz-adv-x="1010" d="M33 0l155 729h94l-67 -315h373l66 315h429l-17 -82h-336l-138 -647h-92l71 332h-373l-71 -332h-94z" />
<glyph unicode="&#x4a5;" horiz-adv-x="753" d="M20 0l111 524h84l-46 -215h250l45 215h285l-16 -76h-201l-95 -448h-83l49 233h-250l-49 -233h-84z" />
<glyph unicode="&#x4a6;" horiz-adv-x="1061" d="M33 0l155 729h561l-58 -282h160q80 0 122 -38.5t42 -101.5q0 -24 -5 -43l-56 -264q-15 -66 -51.5 -103t-112.5 -37h-83l23 82h42q45 0 63 17t26 51l57 257q4 15 4 31q0 67 -89 67h-159l-78 -365h-96l138 647h-373l-138 -647h-94z" />
<glyph unicode="&#x4a7;" horiz-adv-x="803" d="M20 0l111 524h417l-46 -215h90q63 0 99 -33.5t36 -92.5q0 -20 -4 -37l-31 -146q-14 -68 -50.5 -97t-126.5 -29l12 55q37 0 55 17t26 54l24 113q6 27 6 39q0 38 -23.5 61.5t-61.5 23.5h-67l-50 -237h-83l95 448h-249l-95 -448h-84z" />
<glyph unicode="&#x4a8;" horiz-adv-x="722" d="M62 242q0 94 34.5 190.5t93.5 167.5q117 141 292 141q143 0 206 -107q28 -50 32 -131h-96q-6 81 -44.5 119t-114.5 38q-136 0 -226 -133q-81 -121 -81 -267q0 -91 47.5 -146.5t125.5 -55.5q59 0 112.5 26t84.5 71q25 33 59 111h98q-54 -130 -100 -180 q-100 -109 -268 -109q-131 0 -198 85q-57 72 -57 180z" />
<glyph unicode="&#x4a9;" horiz-adv-x="500" d="M26 170q0 69 23 142.5t58 119.5q82 107 224 107q83 0 129 -47q44 -46 44 -100q0 -1 -0.5 -5t-1 -11t-0.5 -13l-1 -15h-84q1 9 1 22q0 43 -27.5 67.5t-74.5 24.5q-92 0 -148 -89q-54 -85 -54 -192q0 -58 30.5 -92.5t82.5 -34.5q111 0 157 126h84q-23 -79 -58 -120 q-71 -83 -197 -83q-94 0 -143 62q-44 55 -44 131z" />
<glyph unicode="&#x4aa;" horiz-adv-x="722" d="M62 242q0 94 34.5 190.5t93.5 167.5q117 141 292 141q143 0 206 -107q28 -50 32 -131h-96q-6 81 -44.5 119t-114.5 38q-136 0 -226 -133q-81 -121 -81 -267q0 -91 47.5 -146.5t125.5 -55.5q59 0 112.5 26t84.5 71q25 33 59 111h98q-54 -130 -100 -180q-88 -95 -234 -108 l21 -12q59 -39 59 -96q0 -35 -35 -55t-99 -20q-38 0 -68 10l-9 45q30 -10 70 -10q29 0 47.5 12t18.5 32q0 27 -20 50t-63 45q-98 12 -154 83q-57 72 -57 180z" />
<glyph unicode="&#x4ab;" horiz-adv-x="500" d="M26 170q0 69 23 142.5t58 119.5q82 107 224 107q83 0 129 -47q44 -46 44 -100q0 -1 -0.5 -5t-1 -11t-0.5 -13l-1 -15h-84q1 9 1 22q0 43 -27.5 67.5t-74.5 24.5q-92 0 -148 -89q-54 -85 -54 -192q0 -58 30.5 -92.5t82.5 -34.5q111 0 157 126h84q-23 -79 -58 -120 q-60 -70 -164 -81q35 -18 58 -47t23 -62q0 -35 -35 -55t-99 -20q-38 0 -68 10l-9 45q30 -10 70 -10q29 0 47.5 12t18.5 32q0 27 -20 50q-19 23 -67 47q-58 12 -95 58q-44 55 -44 131z" />
<glyph unicode="&#x4ac;" horiz-adv-x="611" d="M108 647l17 82h572l-17 -82h-239l-122 -573h80l-45 -209h-80l29 135h-93l138 647h-240z" />
<glyph unicode="&#x4ad;" horiz-adv-x="400" d="M50 448l16 76h372l-16 -76h-144l-82 -384h70l-39 -184h-70l26 120h-84l95 448h-144z" />
<glyph unicode="&#x4ae;" horiz-adv-x="667" d="M118 729h112l136 -357l289 357h111l-368 -443l-61 -286h-94l61 286z" />
<glyph unicode="&#x4af;" horiz-adv-x="667" d="M107 524h115l125 -350l217 350h111l-296 -438l-41 -286h-93l41 286z" />
<glyph unicode="&#x4b0;" horiz-adv-x="667" d="M64 190l14 70h220l5 26l-194 443h115l144 -355l278 355h111l-361 -443l-5 -26h220l-14 -70h-220l-38 -190h-93l38 190h-220z" />
<glyph unicode="&#x4b1;" horiz-adv-x="667" d="M56 16l10 70h220l-178 438h115l124 -350l218 350h111l-297 -438h220l-10 -70h-220l-31 -216h-93l31 216h-220z" />
<glyph unicode="&#x4b2;" horiz-adv-x="665" d="M-28 0l338 374l-167 355h113l126 -286l249 286h111l-321 -355l143 -300h51l-45 -209h-80l29 135h-35l-134 304l-265 -304h-113z" />
<glyph unicode="&#x4b3;" horiz-adv-x="496" d="M-33 0l241 267l-120 257h95l86 -190l166 190h94l-230 -253l95 -207h42l-39 -184h-70l26 120h-27l-89 201l-175 -201h-95z" />
<glyph unicode="&#x4b4;" horiz-adv-x="879" d="M108 647l17 82h533l-17 -82h-218l-122 -565h373l138 647h94l-139 -655h92l-45 -209h-80l29 135h-572l138 647h-221z" />
<glyph unicode="&#x4b5;" horiz-adv-x="629" d="M50 448l16 76h352l-16 -76h-134l-79 -372h249l95 448h84l-97 -460h80l-39 -184h-70l26 120h-428l95 448h-134z" />
<glyph unicode="&#x4b6;" horiz-adv-x="642" d="M109 422q0 24 5 43l56 264h93l-57 -267q-4 -15 -4 -31q0 -67 89 -67h179l78 365h93l-139 -655h92l-45 -209h-80l29 135h-105l60 282h-180q-80 0 -122 38.5t-42 101.5z" />
<glyph unicode="&#x4b7;" horiz-adv-x="497" d="M83 318q0 15 6 51l33 155h84l-35 -165q-3 -13 -3 -26q0 -49 55 -49h127l51 240h84l-97 -460h80l-39 -184h-70l26 120h-95l44 208h-117q-134 0 -134 110z" />
<glyph unicode="&#x4b8;" horiz-adv-x="642" d="M109 422q0 24 5 43l56 264h93l-57 -267q-4 -15 -4 -31q0 -67 89 -67h10l28 130h84l-28 -130h85l78 365h93l-155 -729h-93l60 282h-85l-28 -132h-84l28 132h-11q-80 0 -122 38.5t-42 101.5z" />
<glyph unicode="&#x4b9;" horiz-adv-x="497" d="M83 318q0 15 6 51l33 155h84l-35 -165q-3 -13 -3 -26q0 -48 52 -49l22 103h70l-22 -103h60l51 240h84l-111 -524h-84l44 208h-60l-20 -95h-70l20 95q-121 5 -121 110z" />
<glyph unicode="&#x4ba;" horiz-adv-x="642" d="M109 0l155 729h93l-60 -282h180q80 0 122 -38.5t42 -101.5q0 -24 -5 -43l-56 -264h-93l57 267q4 15 4 31q0 67 -89 67h-179l-78 -365h-93z" />
<glyph unicode="&#x4bb;" horiz-adv-x="497" d="M83 0l111 524h84l-44 -208h117q134 0 134 -110q0 -15 -6 -51l-33 -155h-84l35 165q3 14 3 26q0 49 -55 49h-127l-51 -240h-84z" />
<glyph unicode="&#x4bc;" horiz-adv-x="722" d="M-58 572q0 41 13.5 85.5t34.5 71.5q50 65 135 65q49 0 77 -29q26 -26 26 -60q0 -8 -1 -17v-9h-51q1 5 1 13q0 25 -16.5 40t-44.5 15q-56 0 -89 -53q-33 -51 -33 -115q0 -35 18.5 -55.5t49.5 -20.5h63q28 55 63 97q117 141 292 141q143 0 206 -107q34 -61 34 -213h-535 q-29 -79 -29 -161q0 -91 47.5 -146.5t125.5 -55.5q59 0 112.5 26t84.5 71q25 33 59 111h98q-54 -130 -100 -180q-100 -109 -268 -109q-131 0 -198 85q-57 72 -57 180q0 86 30 179q-50 2 -99 46.5t-49 104.5zM222 503h400q-6 81 -44.5 119t-114.5 38q-136 0 -226 -133z" />
<glyph unicode="&#x4bd;" horiz-adv-x="605" d="M25 395q0 62 33 105q33 42 89 42q34 0 52 -18q18 -20 18 -40q-1 -6 -1 -12l-1 -6h-33v9q0 37 -41 37q-36 0 -58 -35t-22 -78q0 -23 12 -37t34 -14h64q20 48 46 84q82 107 224 107q83 0 129 -47q44 -46 44 -100q0 -74 -16 -120h-362q-12 -47 -12 -91q0 -58 30.5 -92.5 t82.5 -34.5q111 0 157 126h84q-23 -79 -58 -120q-71 -83 -197 -83q-94 0 -143 62q-44 55 -44 131q0 51 12 102q-54 3 -88.5 44.5t-34.5 78.5zM264 348h263q1 9 1 22q0 43 -27.5 67.5t-74.5 24.5q-51 0 -95 -31t-67 -83z" />
<glyph unicode="&#x4be;" horiz-adv-x="722" d="M-58 572q0 41 13.5 85.5t34.5 71.5q50 65 135 65q49 0 77 -29q26 -26 26 -60q0 -8 -1 -17v-9h-51q1 5 1 13q0 25 -16.5 40t-44.5 15q-56 0 -89 -53q-33 -51 -33 -115q0 -35 18.5 -55.5t49.5 -20.5h63q28 55 63 97q117 141 292 141q143 0 206 -107q34 -61 34 -213h-535 q-29 -79 -29 -161q0 -91 47.5 -146.5t125.5 -55.5q59 0 112.5 26t84.5 71q25 33 59 111h98q-54 -130 -100 -180q-88 -95 -232 -108l21 -12q59 -39 59 -96q0 -35 -35 -55t-99 -20q-38 0 -68 10l-9 45q30 -10 70 -10q29 0 47.5 12t18.5 32q0 27 -20 50t-63 45q-100 12 -156 83 q-57 72 -57 180q0 86 30 179q-50 2 -99 46.5t-49 104.5zM222 503h400q-6 81 -44.5 119t-114.5 38q-136 0 -226 -133z" />
<glyph unicode="&#x4bf;" horiz-adv-x="605" d="M25 395q0 62 33 105q33 42 89 42q34 0 52 -18q18 -20 18 -40q-1 -6 -1 -12l-1 -6h-33v9q0 37 -41 37q-36 0 -58 -35t-22 -78q0 -23 12 -37t34 -14h64q20 48 46 84q82 107 224 107q83 0 129 -47q44 -46 44 -100q0 -74 -16 -120h-362q-12 -47 -12 -91q0 -58 30.5 -92.5 t82.5 -34.5q111 0 157 126h84q-23 -79 -58 -120q-60 -70 -161 -81q35 -18 58 -47t23 -62q0 -35 -35 -55t-99 -20q-38 0 -68 10l-9 45q30 -10 70 -10q29 0 47.5 12t18.5 32q0 27 -20 50q-18 22 -65 46q-63 12 -100 59q-44 55 -44 131q0 51 12 102q-54 3 -88.5 44.5 t-34.5 78.5zM264 348h263q1 9 1 22q0 43 -27.5 67.5t-74.5 24.5q-51 0 -95 -31t-67 -83z" />
<glyph unicode="&#x4c0;" horiz-adv-x="278" d="M50 0l155 729h94l-155 -729h-94z" />
<glyph unicode="&#x4c1;" horiz-adv-x="897" d="M-28 0l405 375l-212 354h120l173 -308l65 308h93l-65 -308l303 308h120l-362 -354l245 -375h-110l-217 324l-69 -324h-93l69 324l-355 -324h-110zM458 900q0 12 5 36h53v-13q0 -22 22.5 -36t59.5 -14q94 0 110 63h56q-15 -59 -46 -86q-54 -49 -133 -49q-56 0 -91.5 27.5 t-35.5 71.5z" />
<glyph unicode="&#x4c2;" horiz-adv-x="818" d="M-33 0l360 264l-217 260h107l175 -222l47 222h83l-47 -222l269 222h107l-327 -260l248 -264h-103l-212 216l-46 -216h-83l46 216l-304 -216h-103zM370 698q0 12 5 36h53v-13q0 -22 22.5 -36t59.5 -14q94 0 110 63h56q-15 -59 -46 -86q-54 -49 -133 -49q-56 0 -91.5 27.5 t-35.5 71.5z" />
<glyph unicode="&#x4c3;" horiz-adv-x="664" d="M29 0l155 729h93l-67 -315l430 315h120l-487 -354h156q70 -1 118.5 -47t48.5 -102q0 -15 -2 -22l-33 -204q-14 -66 -51 -103t-113 -37h-83l23 82h42q45 0 63 17t26 51l40 191q1 3 1 11q0 30 -28.5 56t-71.5 26h-224l-63 -294h-93z" />
<glyph unicode="&#x4c4;" horiz-adv-x="510" d="M20 0l111 524h83l-47 -222l269 222h107l-327 -260h90q72 0 99.5 -32t27.5 -89q0 -20 -4 -37l-19 -106q-14 -68 -50.5 -97t-126.5 -29l12 55q37 0 55 17t26 54l20 93q6 27 6 39q0 64 -78 64h-129l-42 -196h-83z" />
<glyph unicode="&#x4c7;" horiz-adv-x="722" d="M33 0l155 729h94l-67 -315h373l67 315h94l-155 -729q-14 -66 -51 -103t-113 -37h-83l23 82h42q75 0 88 58l71 332h-373l-71 -332h-94z" />
<glyph unicode="&#x4c8;" horiz-adv-x="561" d="M20 0l111 524h84l-46 -215h250l46 215h84l-111 -524q-14 -68 -50.5 -97t-126.5 -29l12 55q37 0 55 17t26 54l49 233h-250l-49 -233h-84z" />
<glyph unicode="&#x4cb;" horiz-adv-x="642" d="M109 422q0 24 5 43l56 264h93l-57 -267q-4 -15 -4 -31q0 -67 89 -67h179l78 365h93l-155 -729h-104l-30 -135h-80l45 209h92l44 208h-180q-80 0 -122 38.5t-42 101.5z" />
<glyph unicode="&#x4cc;" horiz-adv-x="497" d="M83 318q0 15 6 51l33 155h84l-35 -165q-3 -13 -3 -26q0 -49 55 -49h127l51 240h84l-111 -524h-94l-26 -120h-70l39 184h80l31 144h-117q-134 0 -134 110z" />
<glyph unicode="&#x4d0;" horiz-adv-x="667" d="M-33 0l415 729h120l101 -729h-102l-27 219h-285l-123 -219h-99zM233 297h231l-40 333zM331 900q0 12 5 36h53v-13q0 -22 22.5 -36t59.5 -14q94 0 110 63h56q-15 -59 -46 -86q-54 -49 -133 -49q-56 0 -91.5 27.5t-35.5 71.5z" />
<glyph unicode="&#x4d1;" d="M15 105q0 92 82 144q37 23 81 33.5t144 19.5q55 5 74.5 16.5t26.5 42.5l3 18q2 16 2 19q0 28 -30.5 46t-75.5 18q-70 0 -107 -37q-18 -18 -30 -56h-84q14 83 76.5 126.5t166.5 43.5q79 0 126.5 -31t47.5 -82q0 -10 -6 -37l-64 -301q-1 -3 -1 -10q0 -29 38 -29q8 0 17 2 l-13 -65q-12 -2 -14 -3q-25 -6 -39 -6q-36 0 -56 17.5t-20 48.5v11q-50 -44 -88 -57q-55 -20 -113 -20q-67 0 -105.5 34t-38.5 94zM103 115q0 -32 23 -49t66 -17q66 0 122.5 34.5t66.5 80.5l20 94q-43 -15 -146 -29q-71 -10 -103 -30q-22 -13 -35.5 -36t-13.5 -48zM230 698 q0 12 5 36h53v-13q0 -22 22.5 -36t59.5 -14q94 0 110 63h56q-15 -59 -46 -86q-54 -49 -133 -49q-56 0 -91.5 27.5t-35.5 71.5z" />
<glyph unicode="&#x4d2;" horiz-adv-x="667" d="M-33 0l415 729h120l101 -729h-102l-27 219h-285l-123 -219h-99zM233 297h231l-40 333zM325 801l22 103h104l-22 -103h-104zM486 801l22 103h104l-22 -103h-104z" />
<glyph unicode="&#x4d3;" d="M15 105q0 92 82 144q37 23 81 33.5t144 19.5q55 5 74.5 16.5t26.5 42.5l3 18q2 16 2 19q0 28 -30.5 46t-75.5 18q-70 0 -107 -37q-18 -18 -30 -56h-84q14 83 76.5 126.5t166.5 43.5q79 0 126.5 -31t47.5 -82q0 -10 -6 -37l-64 -301q-1 -3 -1 -10q0 -29 38 -29q8 0 17 2 l-13 -65q-12 -2 -14 -3q-25 -6 -39 -6q-36 0 -56 17.5t-20 48.5v11q-50 -44 -88 -57q-55 -20 -113 -20q-67 0 -105.5 34t-38.5 94zM103 115q0 -32 23 -49t66 -17q66 0 122.5 34.5t66.5 80.5l20 94q-43 -15 -146 -29q-71 -10 -103 -30q-22 -13 -35.5 -36t-13.5 -48zM224 599 l22 103h104l-22 -103h-104zM385 599l22 103h104l-22 -103h-104z" />
<glyph unicode="&#x4d4;" horiz-adv-x="1000" d="M-39 0l454 729h622l-17 -82h-371l-49 -233h351l-18 -82h-351l-53 -250h388l-17 -82h-482l45 214h-269l-130 -214h-103zM243 295h238l74 352h-100z" />
<glyph unicode="&#x4d5;" horiz-adv-x="889" d="M9 105q0 43 22 81.5t60 62.5q38 23 81.5 33t140.5 18q54 5 73 17t27 44l5 25q2 14 2 19q0 26 -28 41.5t-76 15.5q-59 0 -92 -22t-49 -71h-84q21 77 53 109q64 61 193 61q85 0 135 -40q21 -18 24 -25q73 65 182 65q76 0 131.5 -50t55.5 -119q0 -44 -14 -119l-3 -17h-386 q-5 -22 -5 -53v-18q0 -48 43 -84q29 -25 82 -25q100 0 155 105h84q-24 -82 -94 -132t-161 -50q-117 0 -174 102q-105 -102 -241 -102q-65 0 -103.5 34.5t-38.5 93.5zM97 115q0 -66 90 -66q63 0 118.5 35t65.5 80l20 93q-27 -10 -47 -13.5t-95 -14.5q-70 -9 -103 -30 q-49 -31 -49 -84zM480 306h294q3 22 3 33q0 56 -31 89.5t-84 33.5q-62 0 -110.5 -41.5t-71.5 -114.5z" />
<glyph unicode="&#x4d6;" horiz-adv-x="667" d="M40 0l155 729h506l-17 -82h-412l-50 -233h396l-18 -82h-395l-54 -250h429l-17 -82h-523zM337 900q0 12 5 36h53v-13q0 -22 22.5 -36t59.5 -14q94 0 110 63h56q-15 -59 -46 -86q-54 -49 -133 -49q-56 0 -91.5 27.5t-35.5 71.5z" />
<glyph unicode="&#x4d7;" d="M34 173q0 61 24.5 136t59.5 122q37 50 96.5 79t124.5 29q81 0 136 -49.5t55 -121.5q0 -42 -14 -117l-3 -17h-386q-5 -19 -5 -46q0 -64 32.5 -99t91.5 -35q101 0 156 105h84q-23 -81 -93.5 -131.5t-160.5 -50.5q-85 0 -136 50q-62 59 -62 146zM145 306h294q3 24 3 33 q0 56 -31.5 89.5t-84.5 33.5q-61 0 -111 -43.5t-70 -112.5zM225 698q0 12 5 36h53v-13q0 -22 22.5 -36t59.5 -14q94 0 110 63h56q-15 -59 -46 -86q-54 -49 -133 -49q-56 0 -91.5 27.5t-35.5 71.5z" />
<glyph unicode="&#x4d8;" horiz-adv-x="722" d="M60 297h535q29 79 29 161q0 91 -47.5 146.5t-125.5 55.5q-59 0 -112.5 -26t-84.5 -71q-25 -33 -59 -111h-98q54 130 100 180q100 109 268 109q131 0 198 -85q57 -72 57 -180q0 -94 -34.5 -190.5t-93.5 -167.5q-117 -141 -292 -141q-143 0 -206 107q-34 61 -34 213z M158 215q6 -81 44.5 -119t114.5 -38q136 0 226 133l15 24h-400z" />
<glyph unicode="&#x4d9;" horiz-adv-x="495" d="M26 124q0 74 16 120h362q12 47 12 91q0 58 -30.5 92.5t-82.5 34.5q-111 0 -157 -126h-84q23 79 58 120q71 83 197 83q94 0 143 -62q44 -55 44 -131q0 -69 -23 -142.5t-58 -119.5q-82 -107 -224 -107q-83 0 -129 47q-44 46 -44 100zM112 146q0 -43 27.5 -67.5t74.5 -24.5 q51 0 95 31t67 83h-263q-1 -9 -1 -22z" />
<glyph unicode="&#x4da;" horiz-adv-x="722" d="M60 297h535q29 79 29 161q0 91 -47.5 146.5t-125.5 55.5q-59 0 -112.5 -26t-84.5 -71q-25 -33 -59 -111h-98q54 130 100 180q100 109 268 109q131 0 198 -85q57 -72 57 -180q0 -94 -34.5 -190.5t-93.5 -167.5q-117 -141 -292 -141q-143 0 -206 107q-34 61 -34 213z M158 215q6 -81 44.5 -119t114.5 -38q136 0 226 133l15 24h-400zM345 801l22 103h104l-22 -103h-104zM506 801l22 103h104l-22 -103h-104z" />
<glyph unicode="&#x4db;" horiz-adv-x="495" d="M26 124q0 74 16 120h362q12 47 12 91q0 58 -30.5 92.5t-82.5 34.5q-111 0 -157 -126h-84q23 79 58 120q71 83 197 83q94 0 143 -62q44 -55 44 -131q0 -69 -23 -142.5t-58 -119.5q-82 -107 -224 -107q-83 0 -129 47q-44 46 -44 100zM112 146q0 -43 27.5 -67.5t74.5 -24.5 q51 0 95 31t67 83h-263q-1 -9 -1 -22zM197 599l22 103h104l-22 -103h-104zM358 599l22 103h104l-22 -103h-104z" />
<glyph unicode="&#x4dc;" horiz-adv-x="897" d="M-28 0l405 375l-212 354h120l173 -308l65 308h93l-65 -308l303 308h120l-362 -354l245 -375h-110l-217 324l-69 -324h-93l69 324l-355 -324h-110zM452 801l22 103h104l-22 -103h-104zM613 801l22 103h104l-22 -103h-104z" />
<glyph unicode="&#x4dd;" horiz-adv-x="818" d="M-33 0l360 264l-217 260h107l175 -222l47 222h83l-47 -222l269 222h107l-327 -260l248 -264h-103l-212 216l-46 -216h-83l46 216l-304 -216h-103zM364 599l22 103h104l-22 -103h-104zM525 599l22 103h104l-22 -103h-104z" />
<glyph unicode="&#x4de;" horiz-adv-x="652" d="M21 162q0 27 8 70h88q-6 -24 -6 -44q0 -64 46.5 -96.5t128.5 -32.5q94 0 155 41t61 108q0 43 -38 78t-99 35h-108l17 82h88q69 0 129.5 51t60.5 111q0 45 -37.5 71.5t-102.5 26.5q-87 0 -142 -38.5t-71 -109.5h-88q23 107 106 166.5t209 59.5q104 0 161.5 -43.5 t57.5 -121.5q0 -72 -39 -124t-104 -78q97 -39 97 -134q0 -128 -91.5 -195.5t-244.5 -67.5q-109 0 -175.5 47.5t-66.5 137.5zM306 801l22 103h104l-22 -103h-104zM467 801l22 103h104l-22 -103h-104z" />
<glyph unicode="&#x4df;" horiz-adv-x="495" d="M10 109q0 19 5 47h88q-4 -46 10 -67q25 -35 96 -35q56 0 96.5 27t40.5 67q0 28 -23.5 50.5t-61.5 22.5h-74l16 76h62q52 0 84.5 28t32.5 65q0 30 -26 51t-70 21q-102 0 -123 -84h-88q17 77 75 119t149 42q80 0 125.5 -33.5t45.5 -92.5q0 -99 -93 -146q64 -31 64 -98 q0 -89 -70.5 -140.5t-184.5 -51.5q-176 0 -176 132zM179 599l22 103h104l-22 -103h-104zM340 599l22 103h104l-22 -103h-104z" />
<glyph unicode="&#x4e0;" horiz-adv-x="652" d="M21 162q0 27 8 70h88q-6 -24 -6 -44q0 -64 46.5 -96.5t128.5 -32.5q94 0 155 41t61 108q0 43 -38 78t-99 35h-108l17 82h88q69 0 129.5 51t60.5 111q0 45 -37.5 71.5t-102.5 26.5q-87 0 -142 -38.5t-71 -109.5h-88q23 107 106 166.5t209 59.5q104 0 161.5 -43.5 t57.5 -121.5q0 -72 -39 -124t-104 -78q97 -39 97 -134q0 -128 -91.5 -195.5t-244.5 -67.5q-109 0 -175.5 47.5t-66.5 137.5z" />
<glyph unicode="&#x4e1;" horiz-adv-x="495" d="M10 109q0 19 5 47h88q-4 -46 10 -67q25 -35 96 -35q56 0 96.5 27t40.5 67q0 28 -23.5 50.5t-61.5 22.5h-74l16 76h62q52 0 84.5 28t32.5 65q0 30 -26 51t-70 21q-102 0 -123 -84h-88q17 77 75 119t149 42q80 0 125.5 -33.5t45.5 -92.5q0 -99 -93 -146q64 -31 64 -98 q0 -89 -70.5 -140.5t-184.5 -51.5q-176 0 -176 132z" />
<glyph unicode="&#x4e2;" horiz-adv-x="731" d="M33 0l155 729h88l-127 -596l508 596h101l-155 -729h-88l126 591l-503 -591h-105zM351 801l15 69h275l-15 -69h-275z" />
<glyph unicode="&#x4e3;" horiz-adv-x="560" d="M20 0l111 524h84l-88 -413l323 413h98l-111 -524h-83l87 413l-322 -413h-99zM218 599l15 69h275l-15 -69h-275z" />
<glyph unicode="&#x4e4;" horiz-adv-x="731" d="M33 0l155 729h88l-127 -596l508 596h101l-155 -729h-88l126 591l-503 -591h-105zM356 801l22 103h104l-22 -103h-104zM517 801l22 103h104l-22 -103h-104z" />
<glyph unicode="&#x4e5;" horiz-adv-x="560" d="M20 0l111 524h84l-88 -413l323 413h98l-111 -524h-83l87 413l-322 -413h-99zM223 599l22 103h104l-22 -103h-104zM384 599l22 103h104l-22 -103h-104z" />
<glyph unicode="&#x4e6;" horiz-adv-x="778" d="M54 263q0 95 37.5 188.5t104.5 162.5q121 127 291 127q142 0 219 -77q33 -34 52.5 -87.5t19.5 -112.5q0 -119 -52.5 -231t-140.5 -179q-100 -77 -244 -77q-64 0 -121 20.5t-93 56.5q-73 73 -73 209zM150 271q0 -89 41 -141q26 -33 70 -52.5t93 -19.5q73 0 136 33t107 94 q40 54 62.5 123.5t22.5 137.5q0 89 -41 142q-26 33 -70.5 52.5t-95.5 19.5q-70 0 -133.5 -33.5t-107.5 -93.5q-84 -116 -84 -262zM367 801l22 103h104l-22 -103h-104zM528 801l22 103h104l-22 -103h-104z" />
<glyph unicode="&#x4e7;" d="M30 164q0 64 22 137.5t56 121.5q38 55 97 85.5t129 30.5q87 0 137 -49q55 -53 55 -138q0 -65 -22.5 -138.5t-56.5 -120.5q-84 -116 -228 -116q-84 0 -136.5 52t-52.5 135zM118 184q0 -60 31 -95t84 -35q103 0 161 105q44 81 44 174q0 61 -31 95t-86 34q-102 0 -159 -105 q-44 -81 -44 -173zM214 599l22 103h104l-22 -103h-104zM375 599l22 103h104l-22 -103h-104z" />
<glyph unicode="&#x4e8;" horiz-adv-x="780" d="M65 359q37 171 156 276.5t276 105.5q161 0 234.5 -106t36.5 -282q-33 -156 -149 -266t-283 -110q-157 0 -232 105.5t-39 276.5zM153 328q-18 -122 36.5 -195.5t163.5 -73.5t195.5 74t119.5 195h-515zM168 397h514q15 121 -39 191.5t-163 70.5q-107 0 -192 -71.5 t-120 -190.5z" />
<glyph unicode="&#x4e9;" horiz-adv-x="554" d="M40 258q28 132 106.5 206.5t189.5 74.5q113 0 159.5 -74.5t17.5 -210.5q-27 -129 -106.5 -203t-189.5 -74q-112 0 -158.5 74.5t-18.5 206.5zM121 224q-10 -80 20 -125t93 -45t112 45.5t72 124.5h-297zM136 293h296q10 80 -19.5 124.5t-92.5 44.5t-111.5 -45t-72.5 -124z " />
<glyph unicode="&#x4ea;" horiz-adv-x="780" d="M65 359q37 171 156 276.5t276 105.5q161 0 234.5 -106t36.5 -282q-33 -156 -149 -266t-283 -110q-157 0 -232 105.5t-39 276.5zM153 328q-18 -122 36.5 -195.5t163.5 -73.5t195.5 74t119.5 195h-515zM168 397h514q15 121 -39 191.5t-163 70.5q-107 0 -192 -71.5 t-120 -190.5zM377 801l22 103h104l-22 -103h-104zM538 801l22 103h104l-22 -103h-104z" />
<glyph unicode="&#x4eb;" horiz-adv-x="554" d="M40 258q28 132 106.5 206.5t189.5 74.5q113 0 159.5 -74.5t17.5 -210.5q-27 -129 -106.5 -203t-189.5 -74q-112 0 -158.5 74.5t-18.5 206.5zM121 224q-10 -80 20 -125t93 -45t112 45.5t72 124.5h-297zM136 293h296q10 80 -19.5 124.5t-92.5 44.5t-111.5 -45t-72.5 -124z M216 599l22 103h104l-22 -103h-104zM377 599l22 103h104l-22 -103h-104z" />
<glyph unicode="&#x4ec;" horiz-adv-x="717" d="M54 213q0 25 3 53h96q-4 -70 9 -113q13 -45 52 -69.5t98 -24.5q103 0 182.5 73.5t111.5 199.5h-366l17 82h364q2 15 2 45q0 95 -46 147.5t-130 52.5q-95 0 -154 -46q-44 -34 -76 -110h-95q94 238 332 238q130 0 196.5 -73t66.5 -203q0 -127 -50 -231t-131 -172 q-100 -85 -241 -85q-241 0 -241 236zM334 801l22 103h104l-22 -103h-104zM495 801l22 103h104l-22 -103h-104z" />
<glyph unicode="&#x4ed;" horiz-adv-x="534" d="M30 139q0 20 3 41h84v-13q0 -113 101 -113q65 0 113.5 47.5t71.5 131.5l-226 -1l15 77h224q1 7 1 22q0 63 -28.5 97t-82.5 34q-107 0 -148 -114h-84q21 70 59 113q75 78 189 78q86 0 134 -52.5t48 -145.5q0 -42 -10 -88q-27 -127 -105.5 -201.5t-185.5 -74.5 q-83 0 -128 42.5t-45 119.5zM202 599l22 103h104l-22 -103h-104zM363 599l22 103h104l-22 -103h-104z" />
<glyph unicode="&#x4ee;" horiz-adv-x="530" d="M-28 0l181 244l-139 485h113l104 -379l265 379h111l-522 -729h-113zM188 801l15 69h275l-15 -69h-275z" />
<glyph unicode="&#x4ef;" horiz-adv-x="500" d="M-42 -208l16 75q36 -4 44 -4q28 0 44 10.5t36 41.5l52 81l-68 528h90l46 -407l233 407h89l-368 -634q-63 -108 -165 -108q-26 0 -49 10zM189 599l15 69h275l-15 -69h-275z" />
<glyph unicode="&#x4f0;" horiz-adv-x="530" d="M-28 0l181 244l-139 485h113l104 -379l265 379h111l-522 -729h-113zM193 801l22 103h104l-22 -103h-104zM354 801l22 103h104l-22 -103h-104z" />
<glyph unicode="&#x4f1;" horiz-adv-x="500" d="M-42 -208l16 75q36 -4 44 -4q28 0 44 10.5t36 41.5l52 81l-68 528h90l46 -407l233 407h89l-368 -634q-63 -108 -165 -108q-26 0 -49 10zM195 599l22 103h104l-22 -103h-104zM356 599l22 103h104l-22 -103h-104z" />
<glyph unicode="&#x4f2;" horiz-adv-x="530" d="M-28 0l181 244l-139 485h113l104 -379l265 379h111l-522 -729h-113zM209 801l128 150h112l-180 -150h-60zM383 801l128 150h112l-180 -150h-60z" />
<glyph unicode="&#x4f3;" horiz-adv-x="500" d="M-42 -208l16 75q36 -4 44 -4q28 0 44 10.5t36 41.5l52 81l-68 528h90l46 -407l233 407h89l-368 -634q-63 -108 -165 -108q-26 0 -49 10zM210 599l128 150h112l-180 -150h-60zM384 599l128 150h112l-180 -150h-60z" />
<glyph unicode="&#x4f4;" horiz-adv-x="642" d="M109 422q0 24 5 43l56 264h93l-57 -267q-4 -15 -4 -31q0 -67 89 -67h179l78 365h93l-155 -729h-93l60 282h-180q-80 0 -122 38.5t-42 101.5zM288 801l22 103h104l-22 -103h-104zM449 801l22 103h104l-22 -103h-104z" />
<glyph unicode="&#x4f5;" horiz-adv-x="497" d="M83 318q0 15 6 51l33 155h84l-35 -165q-3 -13 -3 -26q0 -49 55 -49h127l51 240h84l-111 -524h-84l44 208h-117q-134 0 -134 110zM187 599l22 103h104l-22 -103h-104zM348 599l22 103h104l-22 -103h-104z" />
<glyph unicode="&#x4f8;" horiz-adv-x="886" d="M33 0l155 729h93l-67 -314h180q228 0 228 -179q0 -57 -22.5 -97.5t-65.5 -77.5q-70 -61 -172 -61h-329zM143 82h227q66 0 105 35q57 48 57 121q0 35 -19 60q-25 35 -89 35h-227zM433 801l22 103h104l-22 -103h-104zM594 801l22 103h104l-22 -103h-104zM664 0l155 729h94 l-155 -729h-94z" />
<glyph unicode="&#x4f9;" horiz-adv-x="734" d="M20 0l111 525h84l-46 -218h118q98 0 142 -28.5t44 -91.5q0 -85 -67 -143q-50 -44 -123 -44h-263zM56 599l22 103h104l-22 -103h-104zM120 76h152q49 0 80.5 31.5t31.5 75.5q0 23 -23.5 35.5t-55.5 12.5h-152zM217 599l22 103h104l-22 -103h-104zM528 0l111 524h83 l-111 -524h-83z" />
<glyph unicode="&#xe3f;" horiz-adv-x="667" d="M29 0l155 729h225l18 83h53l-18 -83h18q84 0 132.5 -39.5t48.5 -105.5q0 -67 -35.5 -119t-100.5 -81q53 -23 75 -51.5t22 -74.5q0 -110 -77.5 -184t-185.5 -74h-52l-17 -83h-54l18 83h-225zM140 82h131l54 251h-131zM211 415h131l50 232h-131zM325 82h42q70 0 114.5 45 t44.5 115q0 91 -106 91h-42zM395 415q84 1 127 41t43 105q0 85 -120 86z" />
<glyph unicode="&#x1e0c;" horiz-adv-x="722" d="M39 0l155 729h282q109 0 171 -67.5t62 -173.5q0 -206 -112.5 -347t-275.5 -141h-282zM150 82h172q129 0 210 112.5t81 285.5q0 78 -45.5 122.5t-125.5 44.5h-171zM212 -182l22 103h104l-22 -103h-104z" />
<glyph unicode="&#x1e0d;" d="M24 174q0 158 82 261.5t207 103.5q53 0 86 -21t57 -70l60 281h84l-155 -729h-81l17 80q-22 -42 -76 -68.5t-109 -26.5q-78 0 -125 51t-47 138zM112 194q0 -64 31 -98t87 -34q79 0 136 79t57 186q0 64 -31 99.5t-87 35.5q-81 0 -137 -80t-56 -188zM136 -182l22 103h104 l-22 -103h-104z" />
<glyph unicode="&#x1e0e;" horiz-adv-x="722" d="M39 0l155 729h282q109 0 171 -67.5t62 -173.5q0 -206 -112.5 -347t-275.5 -141h-282zM130 -165l15 69h275l-15 -69h-275zM150 82h172q129 0 210 112.5t81 285.5q0 78 -45.5 122.5t-125.5 44.5h-171z" />
<glyph unicode="&#x1e0f;" d="M24 174q0 158 82 261.5t207 103.5q53 0 86 -21t57 -70l60 281h84l-155 -729h-81l17 80q-22 -42 -76 -68.5t-109 -26.5q-78 0 -125 51t-47 138zM54 -165l15 69h275l-15 -69h-275zM112 194q0 -64 31 -98t87 -34q79 0 136 79t57 186q0 64 -31 99.5t-87 35.5q-81 0 -137 -80 t-56 -188z" />
<glyph unicode="&#x1e24;" horiz-adv-x="722" d="M33 0l155 729h94l-67 -315h373l67 315h94l-155 -729h-94l71 332h-373l-71 -332h-94zM222 -182l22 103h104l-22 -103h-104z" />
<glyph unicode="&#x1e25;" d="M20 0l155 729h84l-57 -270q47 44 89 62t98 18q63 0 99 -33.5t36 -92.5q0 -20 -4 -37l-80 -376h-84l73 343q6 27 6 39q0 38 -23.5 61.5t-61.5 23.5q-68 0 -118 -48t-67 -130l-61 -289h-84zM138 -182l22 103h104l-22 -103h-104z" />
<glyph unicode="&#x1e26;" horiz-adv-x="722" d="M33 0l155 729h94l-67 -315h373l67 315h94l-155 -729h-94l71 332h-373l-71 -332h-94zM357 799l22 102h91l-22 -102h-91zM519 799l22 102h91l-22 -102h-91z" />
<glyph unicode="&#x1e27;" d="M20 0l155 729h84l-57 -270q47 44 89 62t98 18q63 0 99 -33.5t36 -92.5q0 -20 -4 -37l-80 -376h-84l73 343q6 27 6 39q0 38 -23.5 61.5t-61.5 23.5q-68 0 -118 -48t-67 -130l-61 -289h-84zM271 799l22 102h91l-22 -102h-91zM433 799l22 102h91l-22 -102h-91z" />
<glyph unicode="&#x1e2a;" horiz-adv-x="722" d="M33 0l155 729h94l-67 -315h373l67 315h94l-155 -729h-94l71 332h-373l-71 -332h-94zM112 -99q0 10 6 28h64v-10q0 -19 27 -30t71 -11q113 0 132 51h67q-21 -56 -80.5 -87.5t-136.5 -31.5q-66 0 -108 27t-42 64z" />
<glyph unicode="&#x1e2b;" d="M20 0l155 729h84l-57 -270q47 44 89 62t98 18q63 0 99 -33.5t36 -92.5q0 -20 -4 -37l-80 -376h-84l73 343q6 27 6 39q0 38 -23.5 61.5t-61.5 23.5q-68 0 -118 -48t-67 -130l-61 -289h-84zM28 -99q0 10 6 28h64v-10q0 -19 27 -30t71 -11q113 0 132 51h67 q-21 -56 -80.5 -87.5t-136.5 -31.5q-66 0 -108 27t-42 64z" />
<glyph unicode="&#x1e36;" d="M30 0l155 729h94l-138 -647h360l-17 -82h-454zM165 -182l22 103h104l-22 -103h-104z" />
<glyph unicode="&#x1e37;" horiz-adv-x="222" d="M-31 -182l22 103h104l-22 -103h-104zM18 0l155 729h84l-155 -729h-84z" />
<glyph unicode="&#x1e38;" d="M30 0l155 729h94l-138 -647h360l-17 -82h-454zM110 816l15 69h275l-15 -69h-275zM165 -182l22 103h104l-22 -103h-104z" />
<glyph unicode="&#x1e39;" horiz-adv-x="222" d="M-31 -182l22 103h104l-22 -103h-104zM18 0l155 729h84l-155 -729h-84zM93 816l15 69h275l-15 -69h-275z" />
<glyph unicode="&#x1e42;" horiz-adv-x="833" d="M25 0l155 729h129l80 -627l346 627h131l-155 -729h-89l129 605l-334 -605h-97l-77 605l-129 -605h-89zM275 -182l22 103h104l-22 -103h-104z" />
<glyph unicode="&#x1e43;" horiz-adv-x="833" d="M21 0l111 524h76l-13 -65q48 45 87.5 62.5t90.5 17.5q97 0 121 -83q86 83 181 83q61 0 94 -33.5t33 -77.5q0 -33 -6 -55l-79 -373h-84l72 341q9 34 9 49q0 36 -20.5 56.5t-55.5 20.5q-55 0 -100 -39.5t-57 -98.5l-70 -329h-84l77 361q4 17 4 37q0 31 -22.5 50t-59.5 19 q-50 0 -94.5 -40.5t-56.5 -97.5l-70 -329h-84zM275 -182l22 103h104l-22 -103h-104z" />
<glyph unicode="&#x1e44;" horiz-adv-x="722" d="M26 0l155 729h104l250 -598l127 598h89l-155 -729h-106l-249 591l-126 -591h-89zM428 799l22 103h104l-22 -103h-104z" />
<glyph unicode="&#x1e45;" d="M20 0l111 524h76l-13 -65q78 80 194 80q62 0 99 -34t37 -91q0 -21 -4 -38l-80 -376h-84l74 349q6 32 6 37q0 35 -25 58t-62 23q-68 0 -117.5 -48t-66.5 -130l-61 -289h-84zM303 604l22 103h104l-22 -103h-104z" />
<glyph unicode="&#x1e46;" horiz-adv-x="722" d="M26 0l155 729h104l250 -598l127 598h89l-155 -729h-106l-249 591l-126 -591h-89zM219 -182l22 103h104l-22 -103h-104z" />
<glyph unicode="&#x1e47;" d="M20 0l111 524h76l-13 -65q78 80 194 80q62 0 99 -34t37 -91q0 -21 -4 -38l-80 -376h-84l74 349q6 32 6 37q0 35 -25 58t-62 23q-68 0 -117.5 -48t-66.5 -130l-61 -289h-84zM136 -182l22 103h104l-22 -103h-104z" />
<glyph unicode="&#x1e58;" horiz-adv-x="722" d="M43 0l155 729h336q96 0 141 -37.5t45 -116.5q0 -74 -34 -124.5t-106 -90.5q35 -23 47.5 -43t12.5 -53q0 -28 -21 -138q-6 -32 -6 -50q0 -34 21 -53l-5 -23h-113q-4 28 -4 47q0 24 3 40.5t21 91.5q8 35 8 60q0 75 -101 75h-239l-67 -314h-94zM221 396h231q83 0 127.5 45.5 t44.5 116.5q0 45 -27 67t-92 22h-230zM410 799l22 103h104l-22 -103h-104z" />
<glyph unicode="&#x1e59;" horiz-adv-x="333" d="M19 0l111 524h76l-17 -82q46 53 83.5 75t81.5 22q12 0 32 -3l-18 -85h-10q-159 0 -197 -179l-58 -272h-84zM178 604l22 103h104l-22 -103h-104z" />
<glyph unicode="&#x1e5a;" horiz-adv-x="722" d="M43 0l155 729h336q96 0 141 -37.5t45 -116.5q0 -74 -34 -124.5t-106 -90.5q35 -23 47.5 -43t12.5 -53q0 -28 -21 -138q-6 -32 -6 -50q0 -34 21 -53l-5 -23h-113q-4 28 -4 47q0 24 3 40.5t21 91.5q8 35 8 60q0 75 -101 75h-239l-67 -314h-94zM201 -182l22 103h104 l-22 -103h-104zM221 396h231q83 0 127.5 45.5t44.5 116.5q0 45 -27 67t-92 22h-230z" />
<glyph unicode="&#x1e5b;" horiz-adv-x="333" d="M-31 -182l22 103h104l-22 -103h-104zM19 0l111 524h76l-17 -82q46 53 83.5 75t81.5 22q12 0 32 -3l-18 -85h-10q-159 0 -197 -179l-58 -272h-84z" />
<glyph unicode="&#x1e5c;" horiz-adv-x="722" d="M43 0l155 729h336q96 0 141 -37.5t45 -116.5q0 -74 -34 -124.5t-106 -90.5q35 -23 47.5 -43t12.5 -53q0 -28 -21 -138q-6 -32 -6 -50q0 -34 21 -53l-5 -23h-113q-4 28 -4 47q0 24 3 40.5t21 91.5q8 35 8 60q0 75 -101 75h-239l-67 -314h-94zM201 -182l22 103h104 l-22 -103h-104zM221 396h231q83 0 127.5 45.5t44.5 116.5q0 45 -27 67t-92 22h-230zM326 816l15 69h275l-15 -69h-275z" />
<glyph unicode="&#x1e5d;" horiz-adv-x="333" d="M-31 -182l22 103h104l-22 -103h-104zM19 0l111 524h76l-17 -82q46 53 83.5 75t81.5 22q12 0 32 -3l-18 -85h-10q-159 0 -197 -179l-58 -272h-84zM98 636l15 69h275l-15 -69h-275z" />
<glyph unicode="&#x1e62;" horiz-adv-x="667" d="M40 174q0 30 9 63h87q-4 -25 -4 -41q0 -68 40 -100.5t125 -32.5q100 0 163.5 43.5t63.5 107.5q0 35 -26.5 59t-86.5 41l-171 49q-50 14 -80.5 51t-30.5 84q0 38 20.5 85.5t51.5 78.5q82 85 238 85q105 0 165.5 -46.5t60.5 -123.5q0 -19 -8 -56h-88q4 27 4 36 q0 109 -152 109q-86 0 -141 -40.5t-55 -101.5q0 -33 21.5 -51t79.5 -35l172 -49q56 -16 89 -56.5t33 -90.5q0 -42 -24.5 -91.5t-62.5 -84.5q-90 -84 -252 -84q-113 0 -177 51t-64 141zM191 -182l22 103h104l-22 -103h-104z" />
<glyph unicode="&#x1e63;" horiz-adv-x="500" d="M13 113q0 23 6 51h89q-2 -20 -2 -25q0 -37 28 -57t80 -20q59 0 101 27t42 69q0 19 -13.5 33.5t-56.5 25.5l-74 19q-77 19 -107.5 45t-30.5 72q0 81 64 133.5t167 52.5q73 0 118.5 -33t45.5 -85q0 -18 -6 -43h-84q1 8 1 22q0 29 -24 45.5t-68 16.5q-57 0 -91.5 -24 t-34.5 -63t85 -60l76 -19q66 -16 93.5 -42.5t27.5 -72.5q0 -89 -67 -142.5t-179 -53.5q-87 0 -136.5 34t-49.5 94zM108 -182l22 103h104l-22 -103h-104z" />
<glyph unicode="&#x1e6c;" horiz-adv-x="611" d="M108 647l17 82h573l-17 -82h-238l-138 -647h-94l138 647h-241zM166 -182l22 103h104l-22 -103h-104z" />
<glyph unicode="&#x1e6d;" horiz-adv-x="278" d="M24 -182l22 103h104l-22 -103h-104zM50 72q0 16 3 31l76 354h-71l14 67h71l31 144h84l-31 -144h89l-14 -67h-89l-75 -351q-2 -12 -2 -14q0 -12 10 -19.5t26 -7.5q13 0 48 8l-16 -73q-24 -7 -65 -7t-65 21t-24 58z" />
<glyph unicode="&#x1e6e;" horiz-adv-x="611" d="M84 -165l15 69h275l-15 -69h-275zM108 647l17 82h573l-17 -82h-238l-138 -647h-94l138 647h-241z" />
<glyph unicode="&#x1e6f;" horiz-adv-x="278" d="M-59 -165l15 69h275l-15 -69h-275zM50 72q0 16 3 31l76 354h-71l14 67h71l31 144h84l-31 -144h89l-14 -67h-89l-75 -351q-2 -12 -2 -14q0 -12 10 -19.5t26 -7.5q13 0 48 8l-16 -73q-24 -7 -65 -7t-65 21t-24 58z" />
<glyph unicode="&#x1e80;" horiz-adv-x="944" d="M127 0v729h115v-592l288 592h96l41 -592l263 592h104l-340 -729h-102l-41 592l-290 -592h-134zM394 916h134l97 -133h-72z" />
<glyph unicode="&#x1e81;" horiz-adv-x="722" d="M68 524h110v-408l189 408h116v-408l196 408h91l-264 -524h-107v418l-195 -418h-96zM288 729h112l65 -148h-60z" />
<glyph unicode="&#x1e82;" horiz-adv-x="944" d="M127 0v729h115v-592l288 592h96l41 -592l263 592h104l-340 -729h-102l-41 592l-290 -592h-134zM553 783l154 133h134l-216 -133h-72z" />
<glyph unicode="&#x1e83;" horiz-adv-x="722" d="M68 524h110v-408l189 408h116v-408l196 408h91l-264 -524h-107v418l-195 -418h-96zM404 581l128 148h112l-180 -148h-60z" />
<glyph unicode="&#x1e84;" horiz-adv-x="944" d="M127 0v729h115v-592l288 592h96l41 -592l263 592h104l-340 -729h-102l-41 592l-290 -592h-134zM466 799l22 102h91l-22 -102h-91zM628 799l22 102h91l-22 -102h-91z" />
<glyph unicode="&#x1e85;" horiz-adv-x="722" d="M68 524h110v-408l189 408h116v-408l196 408h91l-264 -524h-107v418l-195 -418h-96zM312 604l22 102h91l-22 -102h-91zM474 604l22 102h91l-22 -102h-91z" />
<glyph unicode="&#x1e92;" horiz-adv-x="611" d="M-22 0l18 84l555 563h-406l17 82h525l-18 -84l-556 -563h438l-17 -82h-556zM178 -182l22 103h104l-22 -103h-104z" />
<glyph unicode="&#x1e93;" horiz-adv-x="500" d="M-19 0l18 74l395 378h-294l15 72h392l-18 -75l-392 -377h326l-15 -72h-427zM108 -182l22 103h104l-22 -103h-104z" />
<glyph unicode="&#x1e97;" horiz-adv-x="278" d="M50 72q0 16 3 31l76 354h-71l14 67h71l31 144h84l-31 -144h89l-14 -67h-89l-75 -351q-2 -12 -2 -14q0 -12 10 -19.5t26 -7.5q13 0 48 8l-16 -73q-24 -7 -65 -7t-65 21t-24 58zM104 738l22 102h91l-22 -102h-91zM266 738l22 102h91l-22 -102h-91z" />
<glyph unicode="&#x1ea0;" horiz-adv-x="667" d="M-33 0l415 729h120l101 -729h-102l-27 219h-285l-123 -219h-99zM192 -182l22 103h104l-22 -103h-104zM233 297h231l-40 333z" />
<glyph unicode="&#x1ea1;" d="M16 109q0 89 81 140q36 23 79.5 33t145.5 20q54 5 75 17t26 42l3 18q2 16 2 19q0 28 -30.5 46t-75.5 18q-108 0 -137 -93h-84q14 83 76.5 126.5t166.5 43.5q79 0 126.5 -31t47.5 -82q0 -10 -6 -37l-61 -287q-1 -3 -1 -10q0 -29 38 -29q8 0 17 2l-13 -65q-51 -9 -53 -9 q-39 0 -59 11.5t-20 40.5l1 15q-53 -44 -98.5 -58.5t-101.5 -14.5q-68 0 -106.5 32.5t-38.5 91.5zM104 119q0 -62 90 -62q66 0 122.5 34.5t66.5 80.5l18 86q-43 -15 -146 -29q-80 -11 -115.5 -37t-35.5 -73zM137 -182l22 103h104l-22 -103h-104z" />
<glyph unicode="&#x1ea2;" horiz-adv-x="667" d="M-33 0l415 729h120l101 -729h-102l-27 219h-285l-123 -219h-99zM233 297h231l-40 333zM370 883q24 102 127 102q41 0 64.5 -17.5t23.5 -44.5q0 -45 -68 -86q-22 -13 -29.5 -20t-12.5 -18l-6 -23h-58l9 33q5 17 16 27.5t48 35.5q42 26 42 46t-38 20q-48 0 -62 -55h-56z " />
<glyph unicode="&#x1ea3;" d="M16 109q0 89 81 140q36 23 79.5 33t145.5 20q54 5 75 17t26 42l3 18q2 16 2 19q0 28 -30.5 46t-75.5 18q-108 0 -137 -93h-84q14 83 76.5 126.5t166.5 43.5q79 0 126.5 -31t47.5 -82q0 -10 -6 -37l-61 -287q-1 -3 -1 -10q0 -29 38 -29q8 0 17 2l-13 -65q-51 -9 -53 -9 q-39 0 -59 11.5t-20 40.5l1 15q-53 -44 -98.5 -58.5t-101.5 -14.5q-68 0 -106.5 32.5t-38.5 91.5zM104 119q0 -62 90 -62q66 0 122.5 34.5t66.5 80.5l18 86q-43 -15 -146 -29q-80 -11 -115.5 -37t-35.5 -73zM268 678q24 102 127 102q41 0 64.5 -17t23.5 -45q0 -45 -68 -86 q-22 -13 -29.5 -20t-12.5 -18l-6 -23h-58l9 33q5 17 16 27.5t48 35.5q42 26 42 46t-38 20q-48 0 -62 -55h-56z" />
<glyph unicode="&#x1ea4;" horiz-adv-x="667" d="M-33 0l415 729h120l101 -729h-102l-27 219h-285l-123 -219h-99zM233 297h231l-40 333zM281 783l154 135h114l76 -135h-75l-67 89l-125 -89h-77zM450 938l154 133h134l-216 -133h-72z" />
<glyph unicode="&#x1ea5;" d="M16 109q0 89 81 140q36 23 79.5 33t145.5 20q54 5 75 17t26 42l3 18q2 16 2 19q0 28 -30.5 46t-75.5 18q-108 0 -137 -93h-84q14 83 76.5 126.5t166.5 43.5q79 0 126.5 -31t47.5 -82q0 -10 -6 -37l-61 -287q-1 -3 -1 -10q0 -29 38 -29q8 0 17 2l-13 -65q-51 -9 -53 -9 q-39 0 -59 11.5t-20 40.5l1 15q-53 -44 -98.5 -58.5t-101.5 -14.5q-68 0 -106.5 32.5t-38.5 91.5zM104 119q0 -62 90 -62q66 0 122.5 34.5t66.5 80.5l18 86q-43 -15 -146 -29q-80 -11 -115.5 -37t-35.5 -73zM180 578l154 135h114l76 -135h-75l-67 89l-125 -89h-77zM349 733 l154 133h134l-216 -133h-72z" />
<glyph unicode="&#x1ea6;" horiz-adv-x="667" d="M-33 0l415 729h120l101 -729h-102l-27 219h-285l-123 -219h-99zM233 297h231l-40 333zM281 783l154 135h114l76 -135h-75l-67 89l-125 -89h-77zM291 1071h134l97 -133h-72z" />
<glyph unicode="&#x1ea7;" d="M16 109q0 89 81 140q36 23 79.5 33t145.5 20q54 5 75 17t26 42l3 18q2 16 2 19q0 28 -30.5 46t-75.5 18q-108 0 -137 -93h-84q14 83 76.5 126.5t166.5 43.5q79 0 126.5 -31t47.5 -82q0 -10 -6 -37l-61 -287q-1 -3 -1 -10q0 -29 38 -29q8 0 17 2l-13 -65q-51 -9 -53 -9 q-39 0 -59 11.5t-20 40.5l1 15q-53 -44 -98.5 -58.5t-101.5 -14.5q-68 0 -106.5 32.5t-38.5 91.5zM104 119q0 -62 90 -62q66 0 122.5 34.5t66.5 80.5l18 86q-43 -15 -146 -29q-80 -11 -115.5 -37t-35.5 -73zM180 578l154 135h114l76 -135h-75l-67 89l-125 -89h-77zM190 866 h134l97 -133h-72z" />
<glyph unicode="&#x1ea8;" horiz-adv-x="667" d="M-33 0l415 729h120l101 -729h-102l-27 219h-285l-123 -219h-99zM233 297h231l-40 333zM281 783l154 135h114l76 -135h-75l-67 89l-125 -89h-77zM470 1034q24 92 127 92q41 0 64.5 -15.5t23.5 -40.5q0 -40 -68 -77q-34 -17 -42 -34l-6 -21h-58l9 30q5 15 16 25t48 31 q42 24 42 42t-38 18q-48 0 -62 -50h-56z" />
<glyph unicode="&#x1ea9;" d="M16 109q0 89 81 140q36 23 79.5 33t145.5 20q54 5 75 17t26 42l3 18q2 16 2 19q0 28 -30.5 46t-75.5 18q-108 0 -137 -93h-84q14 83 76.5 126.5t166.5 43.5q79 0 126.5 -31t47.5 -82q0 -10 -6 -37l-61 -287q-1 -3 -1 -10q0 -29 38 -29q8 0 17 2l-13 -65q-51 -9 -53 -9 q-39 0 -59 11.5t-20 40.5l1 15q-53 -44 -98.5 -58.5t-101.5 -14.5q-68 0 -106.5 32.5t-38.5 91.5zM104 119q0 -62 90 -62q66 0 122.5 34.5t66.5 80.5l18 86q-43 -15 -146 -29q-80 -11 -115.5 -37t-35.5 -73zM180 578l154 135h114l76 -135h-75l-67 89l-125 -89h-77zM369 829 q24 92 127 92q41 0 64.5 -15.5t23.5 -40.5q0 -40 -68 -77q-34 -17 -42 -34l-6 -21h-58l9 30q5 15 16 25t48 31q42 24 42 42t-38 18q-48 0 -62 -50h-56z" />
<glyph unicode="&#x1eaa;" horiz-adv-x="667" d="M-33 0l415 729h120l101 -729h-102l-27 219h-285l-123 -219h-99zM233 297h231l-40 333zM281 783l154 135h114l76 -135h-75l-67 89l-125 -89h-77zM322 948q19 55 43 79t61 24q7 0 64.5 -16t71.5 -16q15 0 24.5 7.5t23.5 29.5h53q-16 -49 -45 -78t-63 -29q-27 0 -103 26 q-16 6 -27 6q-17 0 -26 -6.5t-24 -26.5h-53z" />
<glyph unicode="&#x1eab;" d="M16 109q0 89 81 140q36 23 79.5 33t145.5 20q54 5 75 17t26 42l3 18q2 16 2 19q0 28 -30.5 46t-75.5 18q-108 0 -137 -93h-84q14 83 76.5 126.5t166.5 43.5q79 0 126.5 -31t47.5 -82q0 -10 -6 -37l-61 -287q-1 -3 -1 -10q0 -29 38 -29q8 0 17 2l-13 -65q-51 -9 -53 -9 q-39 0 -59 11.5t-20 40.5l1 15q-53 -44 -98.5 -58.5t-101.5 -14.5q-68 0 -106.5 32.5t-38.5 91.5zM104 119q0 -62 90 -62q66 0 122.5 34.5t66.5 80.5l18 86q-43 -15 -146 -29q-80 -11 -115.5 -37t-35.5 -73zM180 578l154 135h114l76 -135h-75l-67 89l-125 -89h-77zM221 743 q19 55 43 79t61 24q7 0 64.5 -16t71.5 -16q15 0 24.5 7.5t23.5 29.5h53q-16 -49 -45 -78t-63 -29q-27 0 -103 26q-17 6 -27 6q-17 0 -26 -6.5t-24 -26.5h-53z" />
<glyph unicode="&#x1eac;" horiz-adv-x="667" d="M-33 0l415 729h120l101 -729h-102l-27 219h-285l-123 -219h-99zM192 -182l22 103h104l-22 -103h-104zM233 297h231l-40 333zM281 783l154 135h114l76 -135h-75l-67 89l-125 -89h-77z" />
<glyph unicode="&#x1ead;" d="M16 109q0 89 81 140q36 23 79.5 33t145.5 20q54 5 75 17t26 42l3 18q2 16 2 19q0 28 -30.5 46t-75.5 18q-108 0 -137 -93h-84q14 83 76.5 126.5t166.5 43.5q79 0 126.5 -31t47.5 -82q0 -10 -6 -37l-61 -287q-1 -3 -1 -10q0 -29 38 -29q8 0 17 2l-13 -65q-51 -9 -53 -9 q-39 0 -59 11.5t-20 40.5l1 15q-53 -44 -98.5 -58.5t-101.5 -14.5q-68 0 -106.5 32.5t-38.5 91.5zM104 119q0 -62 90 -62q66 0 122.5 34.5t66.5 80.5l18 86q-43 -15 -146 -29q-80 -11 -115.5 -37t-35.5 -73zM137 -182l22 103h104l-22 -103h-104zM208 580l128 150h95l64 -150 h-63l-56 99l-104 -99h-64z" />
<glyph unicode="&#x1eae;" horiz-adv-x="667" d="M-33 0l415 729h120l101 -729h-102l-27 219h-285l-123 -219h-99zM233 297h231l-40 333zM294 882q0 10 6 28h64v-10q0 -19 27 -30t71 -11q113 0 132 51h67q-21 -56 -80.5 -87.5t-136.5 -31.5q-66 0 -108 27t-42 64zM451 944l154 133h134l-216 -133h-72z" />
<glyph unicode="&#x1eaf;" d="M16 109q0 89 81 140q36 23 79.5 33t145.5 20q54 5 75 17t26 42l3 18q2 16 2 19q0 28 -30.5 46t-75.5 18q-108 0 -137 -93h-84q14 83 76.5 126.5t166.5 43.5q79 0 126.5 -31t47.5 -82q0 -10 -6 -37l-61 -287q-1 -3 -1 -10q0 -29 38 -29q8 0 17 2l-13 -65q-51 -9 -53 -9 q-39 0 -59 11.5t-20 40.5l1 15q-53 -44 -98.5 -58.5t-101.5 -14.5q-68 0 -106.5 32.5t-38.5 91.5zM104 119q0 -62 90 -62q66 0 122.5 34.5t66.5 80.5l18 86q-43 -15 -146 -29q-80 -11 -115.5 -37t-35.5 -73zM193 677q0 10 6 28h64v-10q0 -19 27 -30t71 -11q113 0 132 51h67 q-21 -56 -80.5 -87.5t-136.5 -31.5q-66 0 -108 27t-42 64zM350 739l154 133h134l-216 -133h-72z" />
<glyph unicode="&#x1eb0;" horiz-adv-x="667" d="M-33 0l415 729h120l101 -729h-102l-27 219h-285l-123 -219h-99zM233 297h231l-40 333zM292 1077h134l97 -133h-72zM294 882q0 10 6 28h64v-10q0 -19 27 -30t71 -11q113 0 132 51h67q-21 -56 -80.5 -87.5t-136.5 -31.5q-66 0 -108 27t-42 64z" />
<glyph unicode="&#x1eb1;" d="M16 109q0 89 81 140q36 23 79.5 33t145.5 20q54 5 75 17t26 42l3 18q2 16 2 19q0 28 -30.5 46t-75.5 18q-108 0 -137 -93h-84q14 83 76.5 126.5t166.5 43.5q79 0 126.5 -31t47.5 -82q0 -10 -6 -37l-61 -287q-1 -3 -1 -10q0 -29 38 -29q8 0 17 2l-13 -65q-51 -9 -53 -9 q-39 0 -59 11.5t-20 40.5l1 15q-53 -44 -98.5 -58.5t-101.5 -14.5q-68 0 -106.5 32.5t-38.5 91.5zM104 119q0 -62 90 -62q66 0 122.5 34.5t66.5 80.5l18 86q-43 -15 -146 -29q-80 -11 -115.5 -37t-35.5 -73zM191 872h134l97 -133h-72zM193 677q0 10 6 28h64v-10 q0 -19 27 -30t71 -11q113 0 132 51h67q-21 -56 -80.5 -87.5t-136.5 -31.5q-66 0 -108 27t-42 64z" />
<glyph unicode="&#x1eb2;" horiz-adv-x="667" d="M-33 0l415 729h120l101 -729h-102l-27 219h-285l-123 -219h-99zM233 297h231l-40 333zM294 882q0 10 6 28h64v-10q0 -19 27 -30t71 -11q113 0 132 51h67q-21 -56 -80.5 -87.5t-136.5 -31.5q-66 0 -108 27t-42 64zM394 996q24 92 127 92q41 0 64.5 -15.5t23.5 -40.5 q0 -40 -68 -77q-34 -17 -42 -34l-6 -21h-58l9 30q5 15 16 25t48 31q42 24 42 42t-38 18q-48 0 -62 -50h-56z" />
<glyph unicode="&#x1eb3;" d="M16 109q0 89 81 140q36 23 79.5 33t145.5 20q54 5 75 17t26 42l3 18q2 16 2 19q0 28 -30.5 46t-75.5 18q-108 0 -137 -93h-84q14 83 76.5 126.5t166.5 43.5q79 0 126.5 -31t47.5 -82q0 -10 -6 -37l-61 -287q-1 -3 -1 -10q0 -29 38 -29q8 0 17 2l-13 -65q-51 -9 -53 -9 q-39 0 -59 11.5t-20 40.5l1 15q-53 -44 -98.5 -58.5t-101.5 -14.5q-68 0 -106.5 32.5t-38.5 91.5zM104 119q0 -62 90 -62q66 0 122.5 34.5t66.5 80.5l18 86q-43 -15 -146 -29q-80 -11 -115.5 -37t-35.5 -73zM193 677q0 10 6 28h64v-10q0 -19 27 -30t71 -11q113 0 132 51h67 q-21 -56 -80.5 -87.5t-136.5 -31.5q-66 0 -108 27t-42 64zM293 791q24 92 127 92q41 0 64.5 -15.5t23.5 -40.5q0 -40 -68 -77q-34 -17 -42 -34l-6 -21h-58l9 30q5 15 16 25t48 31q42 24 42 42t-38 18q-48 0 -62 -50h-56z" />
<glyph unicode="&#x1eb4;" horiz-adv-x="667" d="M-33 0l415 729h120l101 -729h-102l-27 219h-285l-123 -219h-99zM233 297h231l-40 333zM294 882q0 10 6 28h64v-10q0 -19 27 -30t71 -11q113 0 132 51h67q-21 -56 -80.5 -87.5t-136.5 -31.5q-66 0 -108 27t-42 64zM324 955q19 55 43 79t61 24q7 0 64.5 -16t71.5 -16 q15 0 24.5 7.5t23.5 29.5h53q-16 -49 -45 -78t-63 -29q-27 0 -103 26q-17 6 -27 6q-17 0 -26 -6.5t-24 -26.5h-53z" />
<glyph unicode="&#x1eb5;" d="M16 109q0 89 81 140q36 23 79.5 33t145.5 20q54 5 75 17t26 42l3 18q2 16 2 19q0 28 -30.5 46t-75.5 18q-108 0 -137 -93h-84q14 83 76.5 126.5t166.5 43.5q79 0 126.5 -31t47.5 -82q0 -10 -6 -37l-61 -287q-1 -3 -1 -10q0 -29 38 -29q8 0 17 2l-13 -65q-51 -9 -53 -9 q-39 0 -59 11.5t-20 40.5l1 15q-53 -44 -98.5 -58.5t-101.5 -14.5q-68 0 -106.5 32.5t-38.5 91.5zM104 119q0 -62 90 -62q66 0 122.5 34.5t66.5 80.5l18 86q-43 -15 -146 -29q-80 -11 -115.5 -37t-35.5 -73zM193 677q0 10 6 28h64v-10q0 -19 27 -30t71 -11q113 0 132 51h67 q-21 -56 -80.5 -87.5t-136.5 -31.5q-66 0 -108 27t-42 64zM223 750q19 55 43 79t61 24q7 0 64.5 -16t71.5 -16q15 0 24.5 7.5t23.5 29.5h53q-16 -49 -45 -78t-63 -29q-27 0 -103 26q-17 6 -27 6q-17 0 -26 -6.5t-24 -26.5h-53z" />
<glyph unicode="&#x1eb6;" horiz-adv-x="667" d="M-33 0l415 729h120l101 -729h-102l-27 219h-285l-123 -219h-99zM192 -182l22 103h104l-22 -103h-104zM233 297h231l-40 333zM294 882q0 10 6 28h64v-10q0 -19 27 -30t71 -11q113 0 132 51h67q-21 -56 -80.5 -87.5t-136.5 -31.5q-66 0 -108 27t-42 64z" />
<glyph unicode="&#x1eb7;" d="M16 109q0 89 81 140q36 23 79.5 33t145.5 20q54 5 75 17t26 42l3 18q2 16 2 19q0 28 -30.5 46t-75.5 18q-108 0 -137 -93h-84q14 83 76.5 126.5t166.5 43.5q79 0 126.5 -31t47.5 -82q0 -10 -6 -37l-61 -287q-1 -3 -1 -10q0 -29 38 -29q8 0 17 2l-13 -65q-51 -9 -53 -9 q-39 0 -59 11.5t-20 40.5l1 15q-53 -44 -98.5 -58.5t-101.5 -14.5q-68 0 -106.5 32.5t-38.5 91.5zM104 119q0 -62 90 -62q66 0 122.5 34.5t66.5 80.5l18 86q-43 -15 -146 -29q-80 -11 -115.5 -37t-35.5 -73zM137 -182l22 103h104l-22 -103h-104zM226 687q0 12 5 36h53v-13 q0 -22 22.5 -36t59.5 -14q94 0 110 63h56q-17 -68 -65 -101.5t-114 -33.5q-56 0 -91.5 27.5t-35.5 71.5z" />
<glyph unicode="&#x1eb8;" horiz-adv-x="667" d="M40 0l155 729h506l-17 -82h-412l-50 -233h396l-18 -82h-395l-54 -250h429l-17 -82h-523zM192 -182l22 103h104l-22 -103h-104z" />
<glyph unicode="&#x1eb9;" d="M35 177q0 61 24 134t59 120q37 50 96.5 79t124.5 29q81 0 136 -49.5t55 -121.5q0 -42 -14 -117l-2 -13h-386q-6 -24 -5 -46q0 -63 32.5 -96.5t92.5 -33.5q100 0 154 97h84q-23 -80 -92 -127t-160 -47q-89 0 -144 56t-55 136zM136 -182l22 103h104l-22 -103h-104zM146 310 h294q2 24 2 29q0 56 -31.5 89.5t-84.5 33.5q-60 0 -110.5 -43t-69.5 -109z" />
<glyph unicode="&#x1eba;" horiz-adv-x="667" d="M40 0l155 729h506l-17 -82h-412l-50 -233h396l-18 -82h-395l-54 -250h429l-17 -82h-523zM376 883q24 102 127 102q41 0 64.5 -17.5t23.5 -44.5q0 -45 -68 -86q-22 -13 -29.5 -20t-12.5 -18l-6 -23h-58l9 33q5 17 16 27.5t48 35.5q42 26 42 46t-38 20q-48 0 -62 -55h-56z " />
<glyph unicode="&#x1ebb;" d="M35 177q0 61 24 134t59 120q37 50 96.5 79t124.5 29q81 0 136 -49.5t55 -121.5q0 -42 -14 -117l-2 -13h-386q-6 -24 -5 -46q0 -63 32.5 -96.5t92.5 -33.5q100 0 154 97h84q-23 -80 -92 -127t-160 -47q-89 0 -144 56t-55 136zM146 310h294q2 24 2 29q0 56 -31.5 89.5 t-84.5 33.5q-60 0 -110.5 -43t-69.5 -109zM267 678q24 102 127 102q41 0 64.5 -17t23.5 -45q0 -45 -68 -86q-22 -13 -29.5 -20t-12.5 -18l-6 -23h-58l9 33q5 17 16 27.5t48 35.5q42 26 42 46t-38 20q-48 0 -62 -55h-56z" />
<glyph unicode="&#x1ebc;" horiz-adv-x="667" d="M40 0l155 729h506l-17 -82h-412l-50 -233h396l-18 -82h-395l-54 -250h429l-17 -82h-523zM296 796q19 55 43 79t61 24q7 0 64.5 -16t71.5 -16q15 0 24.5 7.5t23.5 29.5h53q-16 -49 -45 -78t-63 -29q-27 0 -103 26q-17 6 -27 6q-17 0 -26 -6.5t-24 -26.5h-53z" />
<glyph unicode="&#x1ebd;" d="M35 177q0 61 24 134t59 120q37 50 96.5 79t124.5 29q81 0 136 -49.5t55 -121.5q0 -42 -14 -117l-2 -13h-386q-6 -24 -5 -46q0 -63 32.5 -96.5t92.5 -33.5q100 0 154 97h84q-23 -80 -92 -127t-160 -47q-89 0 -144 56t-55 136zM146 310h294q2 24 2 29q0 56 -31.5 89.5 t-84.5 33.5q-60 0 -110.5 -43t-69.5 -109zM189 601q19 55 43 79t61 24q7 0 64.5 -16t71.5 -16q15 0 24.5 7.5t23.5 29.5h53q-16 -49 -45 -78t-63 -29q-27 0 -103 26q-17 6 -27 6q-17 0 -26 -6.5t-24 -26.5h-53z" />
<glyph unicode="&#x1ebe;" horiz-adv-x="667" d="M40 0l155 729h506l-17 -82h-412l-50 -233h396l-18 -82h-395l-54 -250h429l-17 -82h-523zM287 783l154 135h114l76 -135h-75l-67 89l-125 -89h-77zM456 938l154 133h134l-216 -133h-72z" />
<glyph unicode="&#x1ebf;" d="M35 177q0 61 24 134t59 120q37 50 96.5 79t124.5 29q81 0 136 -49.5t55 -121.5q0 -42 -14 -117l-2 -13h-386q-6 -24 -5 -46q0 -63 32.5 -96.5t92.5 -33.5q100 0 154 97h84q-23 -80 -92 -127t-160 -47q-89 0 -144 56t-55 136zM146 310h294q2 24 2 29q0 56 -31.5 89.5 t-84.5 33.5q-60 0 -110.5 -43t-69.5 -109zM179 578l154 135h114l76 -135h-75l-67 89l-125 -89h-77zM348 733l154 133h134l-216 -133h-72z" />
<glyph unicode="&#x1ec0;" horiz-adv-x="667" d="M40 0l155 729h506l-17 -82h-412l-50 -233h396l-18 -82h-395l-54 -250h429l-17 -82h-523zM287 783l154 135h114l76 -135h-75l-67 89l-125 -89h-77zM297 1071h134l97 -133h-72z" />
<glyph unicode="&#x1ec1;" d="M35 177q0 61 24 134t59 120q37 50 96.5 79t124.5 29q81 0 136 -49.5t55 -121.5q0 -42 -14 -117l-2 -13h-386q-6 -24 -5 -46q0 -63 32.5 -96.5t92.5 -33.5q100 0 154 97h84q-23 -80 -92 -127t-160 -47q-89 0 -144 56t-55 136zM146 310h294q2 24 2 29q0 56 -31.5 89.5 t-84.5 33.5q-60 0 -110.5 -43t-69.5 -109zM179 578l154 135h114l76 -135h-75l-67 89l-125 -89h-77zM189 866h134l97 -133h-72z" />
<glyph unicode="&#x1ec2;" horiz-adv-x="667" d="M40 0l155 729h506l-17 -82h-412l-50 -233h396l-18 -82h-395l-54 -250h429l-17 -82h-523zM287 783l154 135h114l76 -135h-75l-67 89l-125 -89h-77zM476 1034q24 92 127 92q41 0 64.5 -15.5t23.5 -40.5q0 -40 -68 -77q-34 -17 -42 -34l-6 -21h-58l9 30q5 15 16 25t48 31 q42 24 42 42t-38 18q-48 0 -62 -50h-56z" />
<glyph unicode="&#x1ec3;" d="M35 177q0 61 24 134t59 120q37 50 96.5 79t124.5 29q81 0 136 -49.5t55 -121.5q0 -42 -14 -117l-2 -13h-386q-6 -24 -5 -46q0 -63 32.5 -96.5t92.5 -33.5q100 0 154 97h84q-23 -80 -92 -127t-160 -47q-89 0 -144 56t-55 136zM146 310h294q2 24 2 29q0 56 -31.5 89.5 t-84.5 33.5q-60 0 -110.5 -43t-69.5 -109zM179 578l154 135h114l76 -135h-75l-67 89l-125 -89h-77zM368 829q24 92 127 92q41 0 64.5 -15.5t23.5 -40.5q0 -40 -68 -77q-34 -17 -42 -34l-6 -21h-58l9 30q5 15 16 25t48 31q42 24 42 42t-38 18q-48 0 -62 -50h-56z" />
<glyph unicode="&#x1ec4;" horiz-adv-x="667" d="M40 0l155 729h506l-17 -82h-412l-50 -233h396l-18 -82h-395l-54 -250h429l-17 -82h-523zM287 783l154 135h114l76 -135h-75l-67 89l-125 -89h-77zM328 948q19 55 43 79t61 24q7 0 64.5 -16t71.5 -16q15 0 24.5 7.5t23.5 29.5h53q-16 -49 -45 -78t-63 -29q-27 0 -103 26 q-17 6 -27 6q-17 0 -26 -6.5t-24 -26.5h-53z" />
<glyph unicode="&#x1ec5;" d="M35 177q0 61 24 134t59 120q37 50 96.5 79t124.5 29q81 0 136 -49.5t55 -121.5q0 -42 -14 -117l-2 -13h-386q-6 -24 -5 -46q0 -63 32.5 -96.5t92.5 -33.5q100 0 154 97h84q-23 -80 -92 -127t-160 -47q-89 0 -144 56t-55 136zM146 310h294q2 24 2 29q0 56 -31.5 89.5 t-84.5 33.5q-60 0 -110.5 -43t-69.5 -109zM179 578l154 135h114l76 -135h-75l-67 89l-125 -89h-77zM220 743q19 55 43 79t61 24q7 0 64.5 -16t71.5 -16q15 0 24.5 7.5t23.5 29.5h53q-16 -49 -45 -78t-63 -29q-27 0 -103 26q-17 6 -27 6q-17 0 -26 -6.5t-24 -26.5h-53z" />
<glyph unicode="&#x1ec6;" horiz-adv-x="667" d="M40 0l155 729h506l-17 -82h-412l-50 -233h396l-18 -82h-395l-54 -250h429l-17 -82h-523zM192 -182l22 103h104l-22 -103h-104zM287 783l154 135h114l76 -135h-75l-67 89l-125 -89h-77z" />
<glyph unicode="&#x1ec7;" d="M35 177q0 61 24 134t59 120q37 50 96.5 79t124.5 29q81 0 136 -49.5t55 -121.5q0 -42 -14 -117l-2 -13h-386q-6 -24 -5 -46q0 -63 32.5 -96.5t92.5 -33.5q100 0 154 97h84q-23 -80 -92 -127t-160 -47q-89 0 -144 56t-55 136zM136 -182l22 103h104l-22 -103h-104zM146 310 h294q2 24 2 29q0 56 -31.5 89.5t-84.5 33.5q-60 0 -110.5 -43t-69.5 -109zM207 580l128 150h95l64 -150h-63l-56 99l-104 -99h-64z" />
<glyph unicode="&#x1ec8;" horiz-adv-x="278" d="M50 0l155 729h94l-155 -729h-94zM180 883q24 102 127 102q41 0 64.5 -17.5t23.5 -44.5q0 -45 -68 -86q-22 -13 -29.5 -20t-12.5 -18l-6 -23h-58l9 33q5 17 16 27.5t48 35.5q42 26 42 46t-38 20q-48 0 -62 -55h-56z" />
<glyph unicode="&#x1ec9;" horiz-adv-x="278" d="M47 0l111 524h84l-111 -524h-84zM128 678q24 102 127 102q41 0 64.5 -17t23.5 -45q0 -45 -68 -86q-22 -13 -29.5 -20t-12.5 -18l-6 -23h-58l9 33q5 17 16 27.5t48 35.5q42 26 42 46t-38 20q-48 0 -62 -55h-56z" />
<glyph unicode="&#x1eca;" horiz-adv-x="278" d="M5 -182l22 103h104l-22 -103h-104zM50 0l155 729h94l-155 -729h-94z" />
<glyph unicode="&#x1ecb;" horiz-adv-x="222" d="M-31 -182l22 103h104l-22 -103h-104zM19 0l111 524h84l-111 -524h-84zM136 604l22 103h104l-22 -103h-104z" />
<glyph unicode="&#x1ecc;" horiz-adv-x="778" d="M55 268q0 122 57 232t157.5 178.5t218.5 68.5q136 0 213.5 -73t77.5 -204q0 -127 -53 -237.5t-154.5 -180.5t-229.5 -70q-134 0 -210.5 74.5t-76.5 211.5zM151 276q0 -101 55.5 -157t148.5 -56t169.5 56t117.5 144.5t41 188.5q0 101 -55.5 157.5t-151.5 56.5 q-92 0 -167.5 -56t-116.5 -145t-41 -189zM237 -182l22 103h104l-22 -103h-104z" />
<glyph unicode="&#x1ecd;" d="M31 168q0 100 36 184t106 135.5t161 51.5q88 0 140 -53t52 -134q0 -158 -85 -262.5t-220 -104.5q-85 0 -137.5 50t-52.5 133zM119 188q0 -59 31 -92.5t85 -33.5q88 0 145.5 79t57.5 192q0 61 -31 95t-86 34q-87 0 -144.5 -81.5t-57.5 -192.5zM127 -182l22 103h104 l-22 -103h-104z" />
<glyph unicode="&#x1ece;" horiz-adv-x="778" d="M55 268q0 122 57 232t157.5 178.5t218.5 68.5q136 0 213.5 -73t77.5 -204q0 -127 -53 -237.5t-154.5 -180.5t-229.5 -70q-134 0 -210.5 74.5t-76.5 211.5zM151 276q0 -101 55.5 -157t148.5 -56t169.5 56t117.5 144.5t41 188.5q0 101 -55.5 157.5t-151.5 56.5 q-92 0 -167.5 -56t-116.5 -145t-41 -189zM412 883q24 102 127 102q41 0 64.5 -17.5t23.5 -44.5q0 -45 -68 -86q-22 -13 -29.5 -20t-12.5 -18l-6 -23h-58l9 33q5 17 16 27.5t48 35.5q42 26 42 46t-38 20q-48 0 -62 -55h-56z" />
<glyph unicode="&#x1ecf;" d="M31 168q0 100 36 184t106 135.5t161 51.5q88 0 140 -53t52 -134q0 -158 -85 -262.5t-220 -104.5q-85 0 -137.5 50t-52.5 133zM119 188q0 -59 31 -92.5t85 -33.5q88 0 145.5 79t57.5 192q0 61 -31 95t-86 34q-87 0 -144.5 -81.5t-57.5 -192.5zM258 678q24 102 127 102 q41 0 64.5 -17t23.5 -45q0 -45 -68 -86q-22 -13 -29.5 -20t-12.5 -18l-6 -23h-58l9 33q5 17 16 27.5t48 35.5q42 26 42 46t-38 20q-48 0 -62 -55h-56z" />
<glyph unicode="&#x1ed0;" horiz-adv-x="778" d="M55 268q0 122 57 232t157.5 178.5t218.5 68.5q136 0 213.5 -73t77.5 -204q0 -127 -53 -237.5t-154.5 -180.5t-229.5 -70q-134 0 -210.5 74.5t-76.5 211.5zM151 276q0 -101 55.5 -157t148.5 -56t169.5 56t117.5 144.5t41 188.5q0 101 -55.5 157.5t-151.5 56.5 q-92 0 -167.5 -56t-116.5 -145t-41 -189zM324 783l154 135h114l76 -135h-75l-67 89l-125 -89h-77zM493 938l154 133h134l-216 -133h-72z" />
<glyph unicode="&#x1ed1;" d="M31 168q0 100 36 184t106 135.5t161 51.5q88 0 140 -53t52 -134q0 -158 -85 -262.5t-220 -104.5q-85 0 -137.5 50t-52.5 133zM119 188q0 -59 31 -92.5t85 -33.5q88 0 145.5 79t57.5 192q0 61 -31 95t-86 34q-87 0 -144.5 -81.5t-57.5 -192.5zM170 578l154 135h114 l76 -135h-75l-67 89l-125 -89h-77zM339 733l154 133h134l-216 -133h-72z" />
<glyph unicode="&#x1ed2;" horiz-adv-x="778" d="M55 268q0 122 57 232t157.5 178.5t218.5 68.5q136 0 213.5 -73t77.5 -204q0 -127 -53 -237.5t-154.5 -180.5t-229.5 -70q-134 0 -210.5 74.5t-76.5 211.5zM151 276q0 -101 55.5 -157t148.5 -56t169.5 56t117.5 144.5t41 188.5q0 101 -55.5 157.5t-151.5 56.5 q-92 0 -167.5 -56t-116.5 -145t-41 -189zM324 783l154 135h114l76 -135h-75l-67 89l-125 -89h-77zM334 1071h134l97 -133h-72z" />
<glyph unicode="&#x1ed3;" d="M31 168q0 100 36 184t106 135.5t161 51.5q88 0 140 -53t52 -134q0 -158 -85 -262.5t-220 -104.5q-85 0 -137.5 50t-52.5 133zM119 188q0 -59 31 -92.5t85 -33.5q88 0 145.5 79t57.5 192q0 61 -31 95t-86 34q-87 0 -144.5 -81.5t-57.5 -192.5zM170 578l154 135h114 l76 -135h-75l-67 89l-125 -89h-77zM180 866h134l97 -133h-72z" />
<glyph unicode="&#x1ed4;" horiz-adv-x="778" d="M55 268q0 122 57 232t157.5 178.5t218.5 68.5q136 0 213.5 -73t77.5 -204q0 -127 -53 -237.5t-154.5 -180.5t-229.5 -70q-134 0 -210.5 74.5t-76.5 211.5zM151 276q0 -101 55.5 -157t148.5 -56t169.5 56t117.5 144.5t41 188.5q0 101 -55.5 157.5t-151.5 56.5 q-92 0 -167.5 -56t-116.5 -145t-41 -189zM324 783l154 135h114l76 -135h-75l-67 89l-125 -89h-77zM513 1034q24 92 127 92q41 0 64.5 -15.5t23.5 -40.5q0 -40 -68 -77q-34 -17 -42 -34l-6 -21h-58l9 30q5 15 16 25t48 31q42 24 42 42t-38 18q-48 0 -62 -50h-56z" />
<glyph unicode="&#x1ed5;" d="M31 168q0 100 36 184t106 135.5t161 51.5q88 0 140 -53t52 -134q0 -158 -85 -262.5t-220 -104.5q-85 0 -137.5 50t-52.5 133zM119 188q0 -59 31 -92.5t85 -33.5q88 0 145.5 79t57.5 192q0 61 -31 95t-86 34q-87 0 -144.5 -81.5t-57.5 -192.5zM170 578l154 135h114 l76 -135h-75l-67 89l-125 -89h-77zM359 829q24 92 127 92q41 0 64.5 -15.5t23.5 -40.5q0 -40 -68 -77q-34 -17 -42 -34l-6 -21h-58l9 30q5 15 16 25t48 31q42 24 42 42t-38 18q-48 0 -62 -50h-56z" />
<glyph unicode="&#x1ed6;" horiz-adv-x="778" d="M55 268q0 122 57 232t157.5 178.5t218.5 68.5q136 0 213.5 -73t77.5 -204q0 -127 -53 -237.5t-154.5 -180.5t-229.5 -70q-134 0 -210.5 74.5t-76.5 211.5zM151 276q0 -101 55.5 -157t148.5 -56t169.5 56t117.5 144.5t41 188.5q0 101 -55.5 157.5t-151.5 56.5 q-92 0 -167.5 -56t-116.5 -145t-41 -189zM324 783l154 135h114l76 -135h-75l-67 89l-125 -89h-77zM365 948q19 55 43 79t61 24q7 0 64.5 -16t71.5 -16q15 0 24.5 7.5t23.5 29.5h53q-16 -49 -45 -78t-63 -29q-27 0 -103 26q-17 6 -27 6q-17 0 -26 -6.5t-24 -26.5h-53z" />
<glyph unicode="&#x1ed7;" d="M31 168q0 100 36 184t106 135.5t161 51.5q88 0 140 -53t52 -134q0 -158 -85 -262.5t-220 -104.5q-85 0 -137.5 50t-52.5 133zM119 188q0 -59 31 -92.5t85 -33.5q88 0 145.5 79t57.5 192q0 61 -31 95t-86 34q-87 0 -144.5 -81.5t-57.5 -192.5zM170 578l154 135h114 l76 -135h-75l-67 89l-125 -89h-77zM211 743q19 55 43 79t61 24q7 0 64.5 -16t71.5 -16q15 0 24.5 7.5t23.5 29.5h53q-16 -49 -45 -78t-63 -29q-27 0 -103 26q-17 6 -27 6q-17 0 -26 -6.5t-24 -26.5h-53z" />
<glyph unicode="&#x1ed8;" horiz-adv-x="778" d="M55 268q0 122 57 232t157.5 178.5t218.5 68.5q136 0 213.5 -73t77.5 -204q0 -127 -53 -237.5t-154.5 -180.5t-229.5 -70q-134 0 -210.5 74.5t-76.5 211.5zM151 276q0 -101 55.5 -157t148.5 -56t169.5 56t117.5 144.5t41 188.5q0 101 -55.5 157.5t-151.5 56.5 q-92 0 -167.5 -56t-116.5 -145t-41 -189zM237 -182l22 103h104l-22 -103h-104zM323 783l154 135h114l76 -135h-75l-67 89l-125 -89h-77z" />
<glyph unicode="&#x1ed9;" d="M31 168q0 100 36 184t106 135.5t161 51.5q88 0 140 -53t52 -134q0 -158 -85 -262.5t-220 -104.5q-85 0 -137.5 50t-52.5 133zM119 188q0 -59 31 -92.5t85 -33.5q88 0 145.5 79t57.5 192q0 61 -31 95t-86 34q-87 0 -144.5 -81.5t-57.5 -192.5zM127 -182l22 103h104 l-22 -103h-104zM198 580l128 150h95l64 -150h-63l-56 99l-104 -99h-64z" />
<glyph unicode="&#x1eda;" horiz-adv-x="778" d="M56 271q-2 90 36 182t104 161q121 127 291 127q142 0 219 -77q13 -16 14 -17q42 26 59 82h-42l22 103h94l-21 -100q-24 -84 -88 -121q34 -68 34 -147q0 -118 -51.5 -226t-139.5 -176q-100 -77 -244 -77q-64 0 -121 20.5t-93 56.5q-73 73 -73 209zM152 279q0 -89 41 -141 q26 -33 70 -52.5t93 -19.5q73 0 136 33t107 94q83 113 83 253q0 89 -41 142q-26 33 -70.5 52.5t-95.5 19.5q-70 0 -133.5 -33.5t-107.5 -93.5q-40 -55 -62 -123t-20 -131zM475 783l154 133h134l-216 -133h-72z" />
<glyph unicode="&#x1edb;" horiz-adv-x="589" d="M32 172q0 64 21 133.5t55 117.5q38 55 97 85.5t129 30.5q117 0 169 -92q37 28 51 77h-42l22 103h94l-21 -100q-24 -84 -88 -121q7 -32 7 -54q0 -65 -21 -134.5t-56 -116.5q-84 -116 -228 -116q-84 0 -136.5 52t-52.5 135zM120 192q0 -60 31 -95t84 -35q103 0 161 105 q42 78 42 166q0 25 -6 46h-2l1 5q-23 78 -110 78q-102 0 -159 -105q-42 -78 -42 -165zM317 581l128 148h112l-180 -148h-60z" />
<glyph unicode="&#x1edc;" horiz-adv-x="778" d="M56 271q-2 90 36 182t104 161q121 127 291 127q142 0 219 -77q13 -16 14 -17q42 26 59 82h-42l22 103h94l-21 -100q-24 -84 -88 -121q34 -68 34 -147q0 -118 -51.5 -226t-139.5 -176q-100 -77 -244 -77q-64 0 -121 20.5t-93 56.5q-73 73 -73 209zM152 279q0 -89 41 -141 q26 -33 70 -52.5t93 -19.5q73 0 136 33t107 94q83 113 83 253q0 89 -41 142q-26 33 -70.5 52.5t-95.5 19.5q-70 0 -133.5 -33.5t-107.5 -93.5q-40 -55 -62 -123t-20 -131zM317 916h134l97 -133h-72z" />
<glyph unicode="&#x1edd;" horiz-adv-x="589" d="M32 172q0 64 21 133.5t55 117.5q38 55 97 85.5t129 30.5q117 0 169 -92q37 28 51 77h-42l22 103h94l-21 -100q-24 -84 -88 -121q7 -32 7 -54q0 -65 -21 -134.5t-56 -116.5q-84 -116 -228 -116q-84 0 -136.5 52t-52.5 135zM120 192q0 -60 31 -95t84 -35q103 0 161 105 q42 78 42 166q0 25 -6 46h-2l1 5q-23 78 -110 78q-102 0 -159 -105q-42 -78 -42 -165zM200 729h112l65 -148h-60z" />
<glyph unicode="&#x1ede;" horiz-adv-x="778" d="M56 271q-2 90 36 182t104 161q121 127 291 127q142 0 219 -77q13 -16 14 -17q42 26 59 82h-42l22 103h94l-21 -100q-24 -84 -88 -121q34 -68 34 -147q0 -118 -51.5 -226t-139.5 -176q-100 -77 -244 -77q-64 0 -121 20.5t-93 56.5q-73 73 -73 209zM152 279q0 -89 41 -141 q26 -33 70 -52.5t93 -19.5q73 0 136 33t107 94q83 113 83 253q0 89 -41 142q-26 33 -70.5 52.5t-95.5 19.5q-70 0 -133.5 -33.5t-107.5 -93.5q-40 -55 -62 -123t-20 -131zM428 883q24 102 127 102q41 0 64.5 -17.5t23.5 -44.5q0 -45 -68 -86q-22 -13 -29.5 -20t-12.5 -18 l-6 -23h-58l9 33q5 17 16 27.5t48 35.5q42 26 42 46t-38 20q-48 0 -62 -55h-56z" />
<glyph unicode="&#x1edf;" horiz-adv-x="589" d="M32 172q0 64 21 133.5t55 117.5q38 55 97 85.5t129 30.5q117 0 169 -92q37 28 51 77h-42l22 103h94l-21 -100q-24 -84 -88 -121q7 -32 7 -54q0 -65 -21 -134.5t-56 -116.5q-84 -116 -228 -116q-84 0 -136.5 52t-52.5 135zM120 192q0 -60 31 -95t84 -35q103 0 161 105 q42 78 42 166q0 25 -6 46h-2l1 5q-23 78 -110 78q-102 0 -159 -105q-42 -78 -42 -165zM263 678q24 102 127 102q41 0 64.5 -17t23.5 -45q0 -45 -68 -86q-22 -13 -29.5 -20t-12.5 -18l-6 -23h-58l9 33q5 17 16 27.5t48 35.5q42 26 42 46t-38 20q-48 0 -62 -55h-56z" />
</font>
</defs>
</svg>
