<?xml version="1.0" encoding="utf-8"?>
<!-- Generator: Adobe Illustrator 17.1.0, SVG Export Plug-In . SVG Version: 6.00 Build 0)  -->
<!DOCTYPE svg PUBLIC "-//W3C//DTD SVG 1.1//EN" "http://www.w3.org/Graphics/SVG/1.1/DTD/svg11.dtd">
<svg version="1.1" id="Layer_1" xmlns="http://www.w3.org/2000/svg" xmlns:xlink="http://www.w3.org/1999/xlink" x="0px" y="0px"
	 viewBox="-310 -338 769 754" enable-background="new -310 -338 769 754" xml:space="preserve">
<g>
	
		<rect x="-254.4" y="-213.7" fill="#FFFFFF" stroke="#636363" stroke-width="12" stroke-miterlimit="10" width="596.7" height="457.6"/>
	<g enable-background="new    ">
		<g>
			<rect x="70" y="-176.2" fill="#2E73B7" width="232" height="82.5"/>
		</g>
		<g>
			<rect x="70" y="-93.7" fill="#19486F" width="232" height="21.8"/>
		</g>
	</g>
	<g enable-background="new    ">
		<g>
			<rect x="-215.8" y="-176.2" fill="#2E73B7" width="232" height="82.5"/>
		</g>
		<g>
			<rect x="-215.8" y="-93.7" fill="#19486F" width="232" height="21.8"/>
		</g>
	</g>
	<g>
		<g enable-background="new    ">
			<g>
				<rect x="70" y="-36.2" fill="#2E73B7" width="232" height="82.5"/>
			</g>
			<g>
				<rect x="70" y="46.3" fill="#19486F" width="232" height="21.8"/>
			</g>
		</g>
		<g enable-background="new    ">
			<g>
				<rect x="-215.8" y="-36.2" fill="#2E73B7" width="232" height="82.5"/>
			</g>
			<g>
				<rect x="-215.8" y="46.3" fill="#19486F" width="232" height="21.8"/>
			</g>
		</g>
	</g>
	<g>
		<g enable-background="new    ">
			<g>
				<rect x="70" y="100.9" fill="#2E73B7" width="232" height="82.5"/>
			</g>
			<g>
				<rect x="70" y="183.4" fill="#19486F" width="232" height="21.8"/>
			</g>
		</g>
		<g enable-background="new    ">
			<g>
				<rect x="-215.8" y="100.9" fill="#2E73B7" width="232" height="82.5"/>
			</g>
			<g>
				<rect x="-215.8" y="183.4" fill="#19486F" width="232" height="21.8"/>
			</g>
		</g>
	</g>
</g>
<g>
	
		<rect x="-223.6" y="-182.5" fill="#FFFFFF" stroke="#636363" stroke-width="12" stroke-miterlimit="10" width="596.7" height="457.6"/>
	<g enable-background="new    ">
		<g>
			<rect x="100.8" y="-145" fill="#2E73B7" width="232" height="82.5"/>
		</g>
		<g>
			<rect x="100.8" y="-62.5" fill="#19486F" width="232" height="21.8"/>
		</g>
	</g>
	<g enable-background="new    ">
		<g>
			<rect x="-185" y="-145" fill="#2E73B7" width="232" height="82.5"/>
		</g>
		<g>
			<rect x="-185" y="-62.5" fill="#19486F" width="232" height="21.8"/>
		</g>
	</g>
	<g>
		<g enable-background="new    ">
			<g>
				<rect x="100.8" y="-5" fill="#2E73B7" width="232" height="82.5"/>
			</g>
			<g>
				<rect x="100.8" y="77.5" fill="#19486F" width="232" height="21.8"/>
			</g>
		</g>
		<g enable-background="new    ">
			<g>
				<rect x="-185" y="-5" fill="#2E73B7" width="232" height="82.5"/>
			</g>
			<g>
				<rect x="-185" y="77.5" fill="#19486F" width="232" height="21.8"/>
			</g>
		</g>
	</g>
	<g>
		<g enable-background="new    ">
			<g>
				<rect x="100.8" y="132.1" fill="#2E73B7" width="232" height="82.5"/>
			</g>
			<g>
				<rect x="100.8" y="214.6" fill="#19486F" width="232" height="21.8"/>
			</g>
		</g>
		<g enable-background="new    ">
			<g>
				<rect x="-185" y="132.1" fill="#2E73B7" width="232" height="82.5"/>
			</g>
			<g>
				<rect x="-185" y="214.6" fill="#19486F" width="232" height="21.8"/>
			</g>
		</g>
	</g>
</g>
<g>
	
		<rect x="-191.2" y="-151.3" fill="#FFFFFF" stroke="#636363" stroke-width="12" stroke-miterlimit="10" width="596.7" height="457.6"/>
	<g enable-background="new    ">
		<g>
			<rect x="133.2" y="-113.8" fill="#2E73B7" width="232" height="82.5"/>
		</g>
		<g>
			<rect x="133.2" y="-31.3" fill="#19486F" width="232" height="21.8"/>
		</g>
	</g>
	<g enable-background="new    ">
		<g>
			<rect x="-152.6" y="-113.8" fill="#2E73B7" width="232" height="82.5"/>
		</g>
		<g>
			<rect x="-152.6" y="-31.3" fill="#19486F" width="232" height="21.8"/>
		</g>
	</g>
	<g>
		<g enable-background="new    ">
			<g>
				<rect x="133.2" y="26.2" fill="#2E73B7" width="232" height="82.5"/>
			</g>
			<g>
				<rect x="133.2" y="108.7" fill="#19486F" width="232" height="21.8"/>
			</g>
		</g>
		<g enable-background="new    ">
			<g>
				<rect x="-152.6" y="26.2" fill="#2E73B7" width="232" height="82.5"/>
			</g>
			<g>
				<rect x="-152.6" y="108.7" fill="#19486F" width="232" height="21.8"/>
			</g>
		</g>
	</g>
	<g>
		<g enable-background="new    ">
			<g>
				<rect x="133.2" y="163.3" fill="#2E73B7" width="232" height="82.5"/>
			</g>
			<g>
				<rect x="133.2" y="245.8" fill="#19486F" width="232" height="21.8"/>
			</g>
		</g>
		<g enable-background="new    ">
			<g>
				<rect x="-152.6" y="163.3" fill="#2E73B7" width="232" height="82.5"/>
			</g>
			<g>
				<rect x="-152.6" y="245.8" fill="#19486F" width="232" height="21.8"/>
			</g>
		</g>
	</g>
</g>
</svg>
