<?xml version="1.0" ?><!DOCTYPE svg  PUBLIC '-//W3C//DTD SVG 1.1//EN'  'http://www.w3.org/Graphics/SVG/1.1/DTD/svg11.dtd'><svg enable-background="new 0 0 100 100" height="100px" version="1.1" viewBox="0 0 100 100" width="100px" xml:space="preserve" xmlns="http://www.w3.org/2000/svg" xmlns:xlink="http://www.w3.org/1999/xlink"><g id="Layer_1"><g><g enable-background="new    "><g><rect fill="#2E73B7" height="9.428" width="48.532" x="31.803" y="21.695"/></g><g><rect fill="#19486F" height="2.494" width="48.532" x="31.803" y="31.123"/></g></g><g enable-background="new    "><g><rect fill="#2E73B7" height="11.098" width="8.604" x="19.664" y="36.061"/></g><g><rect fill="#19486F" height="2.494" width="8.604" x="19.664" y="47.158"/></g></g><g enable-background="new    "><g><rect fill="#2E73B7" height="9.412" width="8.604" x="19.664" y="52.109"/></g><g><rect fill="#19486F" height="2.494" width="8.604" x="19.664" y="61.521"/></g></g><g enable-background="new    "><g><rect fill="#2E73B7" height="9.348" width="8.604" x="19.664" y="66.461"/></g><g><rect fill="#19486F" height="2.496" width="8.604" x="19.664" y="75.809"/></g></g><g enable-background="new    "><g><rect fill="#2E73B7" height="11.098" width="48.532" x="31.803" y="36.061"/></g><g><rect fill="#19486F" height="2.494" width="48.532" x="31.803" y="47.158"/></g></g><g enable-background="new    "><g><rect fill="#2E73B7" height="9.348" width="48.532" x="31.803" y="66.461"/></g><g><rect fill="#19486F" height="2.496" width="48.532" x="31.803" y="75.809"/></g></g><g enable-background="new    "><g><rect fill="#2E73B7" height="9.412" width="48.532" x="31.803" y="52.109"/></g><g><rect fill="#19486F" height="2.494" width="48.532" x="31.803" y="61.521"/></g></g><g enable-background="new    "><g><rect fill="#2E73B7" height="9.428" width="8.604" x="19.664" y="21.695"/></g><g><rect fill="#19486F" height="2.494" width="8.604" x="19.664" y="31.123"/></g></g></g></g></svg>