<?xml version="1.0" standalone="no"?>
<!DOCTYPE svg PUBLIC "-//W3C//DTD SVG 1.1//EN" "http://www.w3.org/Graphics/SVG/1.1/DTD/svg11.dtd" >
<svg xmlns="http://www.w3.org/2000/svg">
<metadata></metadata>
<defs>
<font id="texgyreheroscnbold" horiz-adv-x="456" >
<font-face units-per-em="1000" ascent="793" descent="-207" />
<missing-glyph horiz-adv-x="228" />
<glyph unicode="IJ" horiz-adv-x="691" d="M57 0v718h123v-718h-123zM255 271h115q0 -102 14 -134.5t58 -32.5q38 0 53.5 23t15.5 81v510h123v-510q0 -226 -190 -226q-120 0 -162 88q-16 31 -21.5 73.5t-5.5 127.5z" />
<glyph unicode="ij" d="M57 0v532h114v-532h-114zM58 618v115h114v-115h-114zM230 -102h21q34 0 34 49v585h114v-588q0 -89 -30 -123.5t-109 -34.5h-30v112zM286 618v115h114v-115h-114z" />
<glyph unicode="fk" horiz-adv-x="729" d="M8 432v100h63v43q0 79 32.5 115.5t101.5 36.5q28 0 54 -2v-113h-33q-27 0 -34 -10.5t-7 -48.5v-21h76v-100h-76v-432h-114v432h-63zM330 0v718h114v-388l144 202h141l-154 -206l159 -326h-138l-104 228l-48 -60v-168h-114z" />
<glyph unicode="ff" horiz-adv-x="528" d="M8 432v100h63v43q0 79 32.5 115.5t101.5 36.5q28 0 54 -2v-113h-33q-27 0 -34 -10.5t-7 -48.5v-21h145v43q0 79 32.5 115.5t101.5 36.5q28 0 54 -2v-113h-33q-27 0 -34 -10.5t-7 -48.5v-21h76v-100h-76v-432h-114v432h-145v-432h-114v432h-63z" />
<glyph unicode="fi" horiz-adv-x="501" d="M8 432v100h63v43q0 79 32.5 115.5t101.5 36.5q28 0 54 -2v-113h-33q-27 0 -34 -10.5t-7 -48.5v-21h76v-100h-76v-432h-114v432h-63zM330 0v532h114v-532h-114zM331 618v115h114v-115h-114z" />
<glyph unicode="fl" horiz-adv-x="501" d="M8 432v100h63v43q0 79 32.5 115.5t101.5 36.5q28 0 54 -2v-113h-33q-27 0 -34 -10.5t-7 -48.5v-21h76v-100h-76v-432h-114v432h-63zM330 0v718h114v-718h-114z" />
<glyph unicode="ffi" horiz-adv-x="760" d="M8 432v100h63v43q0 79 32.5 115.5t101.5 36.5q28 0 54 -2v-113h-33q-27 0 -34 -10.5t-7 -48.5v-21h145v43q0 79 32.5 115.5t101.5 36.5q28 0 54 -2v-113h-33q-27 0 -34 -10.5t-7 -48.5v-21h76v-100h-76v-432h-114v432h-145v-432h-114v432h-63zM589 0v532h114v-532h-114z M590 618v115h114v-115h-114z" />
<glyph unicode="ffl" horiz-adv-x="760" d="M8 432v100h63v43q0 79 32.5 115.5t101.5 36.5q28 0 54 -2v-113h-33q-27 0 -34 -10.5t-7 -48.5v-21h145v43q0 79 32.5 115.5t101.5 36.5q28 0 54 -2v-113h-33q-27 0 -34 -10.5t-7 -48.5v-21h76v-100h-76v-432h-114v432h-145v-432h-114v432h-63zM589 0v718h114v-718h-114z " />
<glyph unicode=" "  horiz-adv-x="228" />
<glyph unicode="&#x09;" horiz-adv-x="228" />
<glyph unicode="&#xa0;" horiz-adv-x="228" />
<glyph unicode="!" horiz-adv-x="273" d="M74 535v183h126v-183l-33 -336h-60zM77 0v142h120v-142h-120z" />
<glyph unicode="&#x22;" horiz-adv-x="389" d="M80 447v271h80v-271h-80zM228 447v271h80v-271h-80z" />
<glyph unicode="#" d="M15 199l10 90h79l14 120h-79l10 90h79l23 199h77l-23 -199h80l22 199h77l-22 -199h79l-10 -90h-79l-14 -120h79l-10 -90h-79l-23 -199h-77l23 199h-80l-22 -199h-77l22 199h-79zM181 289h80l14 120h-80z" />
<glyph unicode="$" d="M25 215h107q0 -63 17 -89.5t60 -36.5v210q-97 33 -134.5 78t-37.5 126q0 90 43.5 145t128.5 62v65h38v-65q173 -20 173 -209h-106q0 55 -16.5 79t-50.5 24v-187q111 -44 146.5 -88t35.5 -128q0 -92 -46 -150t-136 -68v-98h-38v98q-99 10 -141.5 64t-42.5 168zM140 522 q0 -69 69 -91v173q-69 -8 -69 -82zM247 89q72 9 72 95q0 70 -72 98v-193z" />
<glyph unicode="%" horiz-adv-x="729" d="M23 520q0 190 128 190q125 0 125 -189t-126 -189q-127 0 -127 188zM105 516q0 -64 9.5 -89t34.5 -25q26 0 35.5 26t9.5 93t-9.5 93t-34.5 26q-26 0 -35.5 -26t-9.5 -98zM169 -19l326 729h61l-326 -729h-61zM453 176q0 190 128 190q125 0 125 -189t-126 -189 q-127 0 -127 188zM535 173q0 -65 9.5 -90t34.5 -25q26 0 35.5 26t9.5 94q0 67 -9.5 92.5t-34.5 25.5q-26 0 -35.5 -26t-9.5 -97z" />
<glyph unicode="&#x26;" horiz-adv-x="592" d="M44 190q0 120 113 204l13 9q-54 77 -54 151q0 71 43.5 117.5t109.5 46.5q64 0 106 -46.5t42 -117.5q0 -101 -97 -173l83 -126q26 50 31 118h102q-6 -71 -20.5 -117.5t-47.5 -98.5l107 -157h-139l-40 61q-37 -43 -75 -61.5t-89 -18.5q-83 0 -135.5 58.5t-52.5 150.5z M159 199q0 -43 24 -71.5t60 -28.5q45 0 94 50l-108 165q-44 -39 -57 -60.5t-13 -54.5zM221 555q0 -33 43 -91q30 25 41.5 44.5t11.5 44.5q0 26 -13 42t-35 16q-21 0 -34.5 -15.5t-13.5 -40.5z" />
<glyph unicode="'" horiz-adv-x="195" d="M57 447v271h81v-271h-81z" />
<glyph unicode="(" horiz-adv-x="273" d="M29 263q0 120 32.5 228t111.5 243h84q-62 -133 -86 -237t-24 -235q0 -129 24.5 -233t85.5 -236h-84q-77 131 -110.5 239t-33.5 231z" />
<glyph unicode=")" horiz-adv-x="273" d="M16 -207q61 130 85.5 235t24.5 236q0 128 -24 231.5t-86 238.5h84q79 -134 111.5 -241t32.5 -230q0 -120 -32.5 -229t-111.5 -241h-84z" />
<glyph unicode="*" horiz-adv-x="319" d="M22 560l19 73l84 -34v119h69v-119l83 34l20 -73l-86 -32l56 -97l-51 -44l-56 91l-57 -91l-51 44l55 97z" />
<glyph unicode="+" horiz-adv-x="479" d="M57 207v86h140v140h86v-140h139v-86h-139v-139h-86v139h-140z" />
<glyph unicode="," horiz-adv-x="228" d="M52 0v147h123v-127q0 -161 -123 -188v53q35 14 50 39.5t19 75.5h-69z" />
<glyph unicode="-" horiz-adv-x="273" d="M22 215v130h229v-130h-229z" />
<glyph unicode="." horiz-adv-x="228" d="M52 0v147h123v-147h-123z" />
<glyph unicode="/" horiz-adv-x="228" d="M-27 -19l186 756h96l-186 -756h-96z" />
<glyph unicode="0" d="M26 343q0 192 50.5 279.5t154.5 87.5q199 0 199 -364q0 -188 -50 -276.5t-152 -88.5q-202 0 -202 362zM144 336q0 -135 18.5 -189t65.5 -54t65.5 55.5t18.5 197.5q0 141 -18.5 196.5t-64.5 55.5q-49 0 -67 -55.5t-18 -206.5z" />
<glyph unicode="1" d="M57 489v98h16q134 0 143 123h94v-710h-114v489h-139z" />
<glyph unicode="2" d="M21 0q4 107 40.5 170t150.5 161q50 46 70.5 81t20.5 76q0 47 -22.5 75.5t-59.5 28.5q-43 0 -62.5 -31t-19.5 -102h-111q0 128 50.5 189.5t140.5 61.5q88 0 143.5 -62t55.5 -161q0 -108 -69 -184q-14 -16 -94 -85q-50 -44 -64.5 -59.5t-24.5 -35.5h253v-123h-398z" />
<glyph unicode="3" d="M22 218h113v-9q1 -56 22.5 -86t60.5 -30t63 31.5t24 83.5q0 56 -29.5 79t-100.5 24v100h18q97 0 97 93q0 43 -19.5 68.5t-53.5 25.5q-77 0 -78 -116h-107q10 228 189 228q83 0 133.5 -53t50.5 -141q0 -95 -71 -140q89 -39 89 -166q0 -102 -56 -165.5t-145 -63.5 q-192 0 -200 237z" />
<glyph unicode="4" d="M22 157v120l214 433h130v-445h65v-108h-65v-157h-114v157h-230zM107 265h148v309z" />
<glyph unicode="5" d="M22 190h115q10 -97 80 -97q40 0 64 36.5t24 95.5t-23.5 93.5t-64.5 34.5q-49 0 -75 -51l-102 6l40 390h320v-118h-237l-21 -154q49 39 102 39q79 0 129 -64t50 -164q0 -116 -56.5 -186t-150.5 -70q-83 0 -135 54t-59 155z" />
<glyph unicode="6" d="M25 341q0 186 54.5 277.5t155.5 91.5q79 0 122 -42t57 -138h-114q-7 68 -66 68q-46 0 -68 -46t-29 -155q22 34 47 48t63 14q80 0 129.5 -62t49.5 -163q0 -113 -54 -183t-141 -70q-206 0 -206 360zM140 225q0 -58 25 -95t65 -37q37 0 59 35.5t22 97.5q0 55 -23 88t-61 33 q-40 0 -63.5 -33t-23.5 -89z" />
<glyph unicode="7" d="M22 575v123h411v-107q-192 -260 -213 -591h-118q18 313 208 575h-288z" />
<glyph unicode="8" d="M26 203q0 63 21 103.5t68 70.5q-38 25 -54.5 57.5t-16.5 81.5q0 87 50.5 140.5t132.5 53.5q81 0 132 -52t51 -135q0 -94 -67 -141q48 -32 67.5 -69.5t19.5 -98.5q0 -104 -56.5 -168.5t-147.5 -64.5q-92 0 -146 60t-54 162zM144 206q0 -52 23 -82.5t61 -30.5 q37 0 60.5 31.5t23.5 81.5q0 49 -23.5 79.5t-60.5 30.5q-39 0 -61.5 -29.5t-22.5 -80.5zM154 512q0 -39 21.5 -64.5t53.5 -25.5t51.5 24t19.5 64q0 39 -19 63.5t-50 24.5q-35 0 -56 -23.5t-21 -62.5z" />
<glyph unicode="9" d="M25 462q0 114 53.5 181t144.5 67q205 0 205 -356q0 -178 -54.5 -275.5t-158.5 -97.5q-73 0 -120.5 47.5t-57.5 135.5h113q7 -37 22.5 -54t43.5 -17q44 0 69 46t29 157q-38 -63 -112 -63q-79 0 -128 63t-49 166zM140 474q0 -129 83 -129q40 0 63.5 33t23.5 90 q0 58 -23 92.5t-62 34.5q-41 0 -63 -31.5t-22 -89.5z" />
<glyph unicode=":" horiz-adv-x="273" d="M75 0v147h123v-147h-123zM75 365v147h123v-147h-123z" />
<glyph unicode=";" horiz-adv-x="273" d="M75 0v147h123v-127q0 -79 -34 -129.5t-89 -58.5v53q35 14 50 39.5t19 75.5h-69zM75 365v147h123v-147h-123z" />
<glyph unicode="&#x3c;" horiz-adv-x="479" d="M82 221v58l283 318v-130l-193 -217l193 -217v-130z" />
<glyph unicode="=" horiz-adv-x="479" d="M57 117v86h365v-86h-365zM57 297v86h365v-86h-365z" />
<glyph unicode="&#x3e;" horiz-adv-x="479" d="M82 33l193 217l-193 217v130l283 -318v-58l-283 -318v130z" />
<glyph unicode="?" horiz-adv-x="501" d="M49 493q0 113 54 173.5t145 60.5q94 0 151 -57t57 -151q0 -58 -21 -98t-78 -91q-31 -27 -40.5 -50t-10.5 -72h-108q0 80 16 118.5t68 84.5q28 25 39.5 47.5t11.5 53.5q0 45 -21.5 71t-59.5 26t-62.5 -30t-24.5 -70v-16h-116zM195 0v142h120v-142h-120z" />
<glyph unicode="@" horiz-adv-x="800" d="M97 358q0 158 92 268.5t225 110.5q122 0 205 -90t83 -222q0 -116 -66 -202t-145 -86q-40 0 -45 56q-45 -56 -88 -56q-54 0 -92.5 52.5t-38.5 126.5q0 99 51.5 170.5t123.5 71.5q34 0 56.5 -15t42.5 -50l11 53h72l-48 -255q-5 -24 -5 -43t13 -19q37 0 64 52.5t27 124.5 q0 112 -61 181.5t-160 69.5q-104 0 -169.5 -83.5t-65.5 -216.5q0 -131 68 -213.5t176 -82.5q95 0 172 81h73q-54 -87 -114.5 -124t-135.5 -37q-136 0 -228.5 109t-92.5 268zM315 324q0 -39 17.5 -63t46.5 -24q39 0 68.5 41.5t29.5 96.5q0 37 -18.5 61.5t-46.5 24.5 q-39 0 -68 -41t-29 -96z" />
<glyph unicode="A" horiz-adv-x="592" d="M16 0l210 718h142l208 -718h-134l-38 148h-217l-41 -148h-130zM220 271h150l-74 288z" />
<glyph unicode="B" horiz-adv-x="592" d="M62 0v718h286q85 0 133.5 -50t48.5 -137q0 -53 -17 -87t-55 -57q91 -50 91 -171q0 -90 -51 -152q-31 -37 -70.5 -50.5t-116.5 -13.5h-249zM180 123h151q95 0 95 102q0 43 -23.5 66.5t-65.5 23.5h-157v-192zM180 437h144q42 0 65 21t23 61q0 76 -91 76h-141v-158z" />
<glyph unicode="C" horiz-adv-x="592" d="M36 357q0 175 73.5 277.5t199.5 102.5q102 0 170.5 -68t81.5 -186h-123q-15 64 -45 94t-81 30q-71 0 -111 -66.5t-40 -184.5q0 -115 39 -180t108 -65q51 0 82.5 31.5t47.5 103.5h123q-50 -265 -255 -265q-125 0 -197.5 100.5t-72.5 275.5z" />
<glyph unicode="D" horiz-adv-x="592" d="M62 0v718h260q114 0 177 -90.5t63 -253.5q0 -165 -64 -269.5t-181 -104.5h-255zM182 123h120q64 0 99.5 65t35.5 182q0 225 -137 225h-118v-472z" />
<glyph unicode="E" horiz-adv-x="547" d="M62 0v718h433v-127h-313v-151h288v-127h-288v-186h327v-127h-447z" />
<glyph unicode="F" horiz-adv-x="501" d="M62 0v718h419v-127h-296v-162h259v-127h-259v-302h-123z" />
<glyph unicode="G" horiz-adv-x="638" d="M36 354q0 176 78 279.5t210 103.5q105 0 174 -63.5t85 -178.5h-124q-9 52 -46 85.5t-86 33.5q-77 0 -121.5 -70t-44.5 -190q0 -117 43.5 -181.5t122.5 -64.5q55 0 92 36t57 121h-138v122h247v-387h-82l-13 90q-43 -61 -83.5 -85t-100.5 -24q-121 0 -195.5 103t-74.5 270z " />
<glyph unicode="H" horiz-adv-x="592" d="M58 0v718h123v-272h230v272h123v-718h-123v323h-230v-323h-123z" />
<glyph unicode="I" horiz-adv-x="228" d="M52 0v718h123v-718h-123z" />
<glyph unicode="J" d="M18 271h115q0 -102 14 -134.5t58 -32.5q38 0 53.5 23t15.5 81v510h123v-510q0 -226 -190 -226q-120 0 -162 88q-16 31 -21.5 73.5t-5.5 127.5z" />
<glyph unicode="K" horiz-adv-x="592" d="M71 0v718h123v-292l225 292h159l-240 -294l254 -424h-158l-183 315l-57 -72v-243h-123z" />
<glyph unicode="L" horiz-adv-x="501" d="M62 0v718h123v-588h293v-130h-416z" />
<glyph unicode="M" horiz-adv-x="683" d="M57 0v718h179l108 -570l106 570h177v-718h-114v609l-112 -609h-121l-109 609v-609h-114z" />
<glyph unicode="N" horiz-adv-x="592" d="M57 0v718h129l236 -504v504h114v-718h-122l-243 515v-515h-114z" />
<glyph unicode="O" horiz-adv-x="638" d="M36 358q0 179 77.5 279t209.5 100q125 0 202 -101t77 -277q0 -177 -77 -277.5t-206 -100.5q-130 0 -206.5 101t-76.5 276zM159 361q0 -119 42.5 -186t117.5 -67t117.5 67.5t42.5 186.5q0 113 -43 180.5t-115 67.5q-76 0 -119 -66.5t-43 -182.5z" />
<glyph unicode="P" horiz-adv-x="547" d="M62 0v718h269q83 0 133 -61t50 -162q0 -107 -51.5 -171t-136.5 -64h-141v-260h-123zM185 383h114q92 0 92 109q0 55 -25 79t-83 24h-98v-212z" />
<glyph unicode="Q" horiz-adv-x="638" d="M36 359q0 177 77 277.5t206 100.5t206 -100.5t77 -278.5q0 -148 -62 -255l64 -74l-65 -81l-69 81q-73 -48 -152 -48q-128 0 -205 100.5t-77 277.5zM159 363q0 -119 42.5 -187t116.5 -68q33 0 67 19l-59 68l63 81l63 -71q27 68 27 154q0 116 -43 183.5t-117 67.5 q-73 0 -116.5 -67t-43.5 -180z" />
<glyph unicode="R" horiz-adv-x="592" d="M62 0v718h297q85 0 135.5 -55.5t50.5 -148.5q0 -127 -91 -170q48 -26 61.5 -65t13.5 -151q0 -61 4.5 -81t21.5 -28v-19h-136q-14 64 -14 144q0 65 -10 94t-27 35.5t-59 6.5h-127v-280h-120zM182 402h145q49 0 72 23.5t23 72.5q0 47 -22.5 72t-63.5 25h-154v-193z" />
<glyph unicode="S" horiz-adv-x="547" d="M32 221h118q7 -117 128 -117q57 0 88.5 24t31.5 68q0 35 -22.5 54t-84.5 37l-63 18q-114 32 -150.5 76t-36.5 131q0 105 59.5 165t164.5 60q106 0 165.5 -59.5t66.5 -172.5h-118q-7 57 -35 83t-83 26q-49 0 -77 -23.5t-28 -63.5q0 -31 14 -48t48 -27l144 -43 q82 -25 118 -70t36 -125q0 -108 -64 -170.5t-175 -62.5q-114 0 -177.5 61t-67.5 179z" />
<glyph unicode="T" horiz-adv-x="501" d="M11 591v127h479v-127h-178v-591h-123v591h-178z" />
<glyph unicode="U" horiz-adv-x="592" d="M59 242v476h125v-466q0 -69 29 -106.5t82 -37.5q56 0 85 35t29 102v473h125v-467q0 -132 -61 -201t-178 -69q-113 0 -174.5 68.5t-61.5 192.5z" />
<glyph unicode="V" horiz-adv-x="547" d="M16 718h132l127 -548l128 548h128l-200 -718h-117z" />
<glyph unicode="W" horiz-adv-x="774" d="M13 718h131q80 -418 95 -531l82 531h131l88 -531l97 531h125l-166 -718h-118l-92 565l-67 -423l-25 -142h-114z" />
<glyph unicode="X" horiz-adv-x="547" d="M11 0l190 367l-179 351h146l105 -232l108 232h142l-180 -345l192 -373h-150l-112 245l-118 -245h-144z" />
<glyph unicode="Y" horiz-adv-x="547" d="M12 718h145l122 -312l117 312h139l-197 -449v-269h-123v271z" />
<glyph unicode="Z" horiz-adv-x="501" d="M20 0v127l305 464h-297v127h451v-118l-309 -473h311v-127h-461z" />
<glyph unicode="[" horiz-adv-x="273" d="M52 -196v918h201v-97h-101v-724h101v-97h-201z" />
<glyph unicode="\" horiz-adv-x="228" d="M-27 737h96l186 -756h-96z" />
<glyph unicode="]" horiz-adv-x="273" d="M20 -99h101v724h-101v97h201v-918h-201v97z" />
<glyph unicode="^" horiz-adv-x="479" d="M51 323l148 375h81l148 -375h-90l-99 263l-99 -263h-89z" />
<glyph unicode="_" d="M0 -75h456v-50h-456v50z" />
<glyph unicode="`" horiz-adv-x="273" d="M-25 748h126l77 -146h-83z" />
<glyph unicode="a" d="M24 142q0 70 33.5 114t94.5 55l103 19q40 7 40 44q0 60 -71 60q-37 0 -54 -16.5t-22 -57.5h-110q10 101 55 143.5t136 42.5q85 0 131.5 -40.5t46.5 -113.5v-288q0 -70 25 -83v-21h-123q-7 27 -11 63q-34 -43 -65 -60t-73 -17q-63 0 -99.5 42t-36.5 114zM139 151 q0 -30 15 -47.5t40 -17.5q42 0 71.5 30.5t29.5 74.5v68q-19 -17 -78 -29q-43 -9 -60.5 -27t-17.5 -52z" />
<glyph unicode="b" horiz-adv-x="501" d="M50 0v718h114v-258q25 46 55 66t72 20q83 0 133 -75t50 -199q0 -131 -50 -208.5t-134 -77.5q-87 0 -128 84v-70h-112zM160 261q0 -77 26 -118.5t74 -41.5q44 0 70 44.5t26 118.5q0 75 -26 117.5t-71 42.5q-48 0 -73.5 -42t-25.5 -121z" />
<glyph unicode="c" d="M28 259q0 135 55 211t152 76q84 0 134.5 -51.5t60.5 -152.5h-116q-8 45 -25.5 65.5t-48.5 20.5q-94 0 -94 -163q0 -164 87 -164q33 0 54.5 25.5t25.5 67.5h116q-13 -101 -64 -154.5t-136 -53.5q-97 0 -149 71t-52 202z" />
<glyph unicode="d" horiz-adv-x="501" d="M28 272q0 124 50 199t133 75q42 0 71.5 -20t55.5 -66v258h114v-718h-112v70q-41 -84 -128 -84q-84 0 -134 77.5t-50 208.5zM146 264q0 -75 26 -119t70 -44q48 0 74 41.5t26 117.5q0 78 -25 121t-71 43q-47 0 -73.5 -42t-26.5 -118z" />
<glyph unicode="e" d="M19 268q0 130 55 204t152 74q100 0 153.5 -76t53.5 -218v-25h-299q5 -67 29 -97.5t71 -30.5q59 0 76 58h118q-49 -171 -196 -171q-102 0 -157.5 73.5t-55.5 208.5zM137 319h178q-12 112 -90 112q-38 0 -59 -27t-29 -85z" />
<glyph unicode="f" horiz-adv-x="273" d="M8 432v100h63v43q0 79 32.5 115.5t101.5 36.5q28 0 54 -2v-113h-33q-27 0 -34 -10.5t-7 -48.5v-21h76v-100h-76v-432h-114v432h-63z" />
<glyph unicode="g" horiz-adv-x="501" d="M33 271q0 125 50 200t132 75q45 0 75.5 -22.5t52.5 -73.5v82h110v-504q0 -132 -53 -188.5t-160 -56.5q-176 0 -198 160h125q5 -28 22.5 -40.5t53.5 -12.5q50 0 72.5 28.5t22.5 92.5v69q-22 -46 -48 -64.5t-70 -18.5q-86 0 -136.5 73.5t-50.5 200.5zM151 267 q0 -71 24.5 -111.5t67.5 -40.5q46 0 71 40t25 112q0 70 -26.5 113.5t-69.5 43.5t-67.5 -42t-24.5 -115z" />
<glyph unicode="h" horiz-adv-x="501" d="M53 0v718h114v-259q35 87 131 87q68 0 109 -48.5t41 -129.5v-368h-114v323q0 55 -17.5 80t-56.5 25q-43 0 -68 -33t-25 -90v-305h-114z" />
<glyph unicode="i" horiz-adv-x="228" d="M57 0v532h114v-532h-114zM58 618v115h114v-115h-114z" />
<glyph unicode="j" horiz-adv-x="228" d="M2 -102h21q34 0 34 49v585h114v-588q0 -89 -30 -123.5t-109 -34.5h-30v112zM58 618v115h114v-115h-114z" />
<glyph unicode="k" d="M57 0v718h114v-388l144 202h141l-154 -206l159 -326h-138l-104 228l-48 -60v-168h-114z" />
<glyph unicode="l" horiz-adv-x="228" d="M57 0v718h114v-718h-114z" />
<glyph unicode="m" horiz-adv-x="729" d="M52 0v532h110v-81q20 50 51 72.5t77 22.5q41 0 66.5 -18t51.5 -67q25 46 53 65.5t69 19.5q66 0 106.5 -49t40.5 -129v-368h-114v323q0 105 -65 105q-77 0 -77 -109v-319h-114v320q0 60 -15 84t-53 24q-73 0 -73 -104v-324h-114z" />
<glyph unicode="n" horiz-adv-x="501" d="M53 0v532h110v-81q45 95 134 95q69 0 110 -48t41 -130v-368h-114v323q0 55 -17.5 80t-56.5 25q-43 0 -68 -33t-25 -90v-305h-114z" />
<glyph unicode="o" horiz-adv-x="501" d="M28 265q0 129 61 205t165 76q100 0 160 -77t60 -204t-61 -203t-162 -76t-162 76t-61 203zM146 266q0 -79 27 -120.5t78 -41.5t78 41.5t27 120.5q0 78 -27 120t-77 42q-106 0 -106 -162z" />
<glyph unicode="p" horiz-adv-x="501" d="M51 -207v739h110v-80q25 50 55 72t74 22q83 0 133.5 -75t50.5 -199q0 -131 -50 -208.5t-135 -77.5q-44 0 -72.5 19.5t-51.5 65.5v-278h-114zM161 260q0 -77 25.5 -118t73.5 -41q44 0 70 44.5t26 119.5q0 74 -26 116.5t-72 42.5q-97 0 -97 -164z" />
<glyph unicode="q" horiz-adv-x="501" d="M28 261q0 127 52.5 206t137.5 79q44 0 73.5 -22.5t51.5 -73.5v82h110v-739h-114v276q-22 -44 -51 -63.5t-74 -19.5q-84 0 -135 75.5t-51 199.5zM146 258q0 -154 97 -154q47 0 72.5 41.5t25.5 117.5q0 74 -26.5 117.5t-71.5 43.5q-46 0 -71.5 -43.5t-25.5 -122.5z" />
<glyph unicode="r" horiz-adv-x="319" d="M52 0v532h110v-95q26 61 52.5 85t68.5 24q10 0 23 -2v-142q-16 2 -29 2q-111 0 -111 -127v-277h-114z" />
<glyph unicode="s" d="M25 170h118q3 -77 93 -77q35 0 55 15t20 40q0 40 -95 59q-91 17 -133 56t-42 106q0 82 48.5 129.5t132.5 47.5q87 0 133 -40t58 -136h-113q-6 39 -23 54t-55 15q-69 0 -69 -50q0 -41 94 -58q94 -18 136.5 -59t42.5 -106q0 -84 -52 -132t-142 -48q-190 0 -207 184z" />
<glyph unicode="t" horiz-adv-x="273" d="M8 432v100h59v144h114v-144h72v-100h-72v-289q0 -28 8.5 -35.5t38.5 -7.5q12 0 25 2v-106q-39 -2 -55 -2h-15q-63 0 -89.5 26t-26.5 89v323h-59z" />
<glyph unicode="u" horiz-adv-x="501" d="M54 182v350h114v-330q0 -98 74 -98q43 0 67 32.5t24 88.5v307h114v-532h-110v78q-44 -92 -136 -92q-70 0 -108.5 51t-38.5 145z" />
<glyph unicode="v" d="M11 532h128l91 -396l93 396h122l-157 -532h-121z" />
<glyph unicode="w" horiz-adv-x="638" d="M8 532h122l69 -387l63 387h115l67 -387l69 387h118l-126 -532h-118l-69 393l-69 -393h-118z" />
<glyph unicode="x" d="M12 0l149 271l-143 261h139l74 -155l73 155h135l-144 -261l149 -271h-142l-76 160l-75 -160h-139z" />
<glyph unicode="y" d="M8 532h128l94 -396l90 396h122l-150 -523q-44 -154 -68 -186q-27 -37 -98 -37l-55 2v112q16 -2 24 -2q37 0 51.5 15.5t22.5 64.5z" />
<glyph unicode="z" horiz-adv-x="410" d="M16 0v109l225 311h-209v112h354v-115l-221 -302h229v-115h-378z" />
<glyph unicode="{" horiz-adv-x="319" d="M39 217v92q37 3 57 22.5t20 53.5v200q0 59 32.5 98t82.5 39h68v-88h-37q-46 0 -46 -66v-196q0 -41 -26 -70.5t-72 -38.5q46 -9 72 -39t26 -70v-196q0 -66 46 -66h37v-88h-68q-50 0 -82.5 39t-32.5 98v200q0 70 -77 76z" />
<glyph unicode="|" horiz-adv-x="230" d="M72 -196v918h86v-918h-86z" />
<glyph unicode="}" horiz-adv-x="319" d="M20 -108h37q46 0 46 66v196q0 40 26 70t72 39q-46 9 -72 38.5t-26 70.5v196q0 66 -46 66h-37v88h68q49 0 82 -39t33 -98v-200q0 -34 20 -53.5t57 -22.5v-92q-77 -6 -77 -76v-200q0 -59 -33 -98t-82 -39h-68v88z" />
<glyph unicode="~" horiz-adv-x="479" d="M50 242q26 52 49.5 73t57.5 21q18 0 79 -25.5t81 -25.5q35 0 56 36l56 -54q-26 -52 -49.5 -73t-57.5 -21q-18 0 -79.5 25.5t-80.5 25.5q-35 0 -56 -37z" />
<glyph unicode="&#xa1;" horiz-adv-x="273" d="M73 -3l33 336h60l33 -336v-183h-126v183zM76 390v142h120v-142h-120z" />
<glyph unicode="&#xa2;" d="M28 257q0 138 54.5 213.5t154.5 75.5q17 0 37 -3l20 85h42l-22 -98q106 -47 116 -188h-116q-9 48 -28 68l-72 -305q8 -4 20 -4q32 0 54 26t25 67h116q-13 -101 -64 -154.5t-136 -53.5q-25 0 -41 4l-25 -108h-43l28 120q-62 33 -91 94.5t-29 160.5zM146 265q0 -93 31 -136 l70 299h-10q-44 0 -67.5 -42t-23.5 -121z" />
<glyph unicode="&#xa3;" d="M23 321v60h48q-34 87 -34 135q0 88 55 145t141 57q91 0 142 -57.5t56 -173.5h-107q-10 73 -29.5 96t-58.5 23q-37 0 -60.5 -26t-23.5 -67q0 -23 40 -132h117v-60h-98q4 -31 4 -54q0 -48 -19 -83.5t-69 -85.5q62 29 100 29q16 0 55.5 -12.5t45.5 -12.5q35 0 82 36l34 -109 q-62 -45 -122 -45q-38 0 -102 26q-34 14 -59 14q-17 0 -32.5 -6t-57.5 -29l-45 97q39 27 65 69t26 77q0 38 -18 89h-76z" />
<glyph unicode="&#xa4;" d="M44 266q0 53 28 98l-14 13l61 61l13 -14q45 28 98 28t98 -28l13 14l61 -61l-14 -13q28 -45 28 -98t-28 -98l14 -13l-61 -61l-13 14q-45 -28 -98 -28t-98 28l-13 -14l-61 61l14 13q-28 45 -28 98zM130 266q0 -41 29.5 -70.5t70.5 -29.5t70.5 29.5t29.5 70.5t-29.5 70.5 t-70.5 29.5t-70.5 -29.5t-29.5 -70.5z" />
<glyph unicode="&#xa5;" d="M-7 698h123l117 -294l113 294h117l-123 -293h110v-60h-136l-31 -74h167v-60h-168v-211h-103v211h-166v60h166l-33 74h-133v60h107z" />
<glyph unicode="&#xa6;" horiz-adv-x="230" d="M72 171h86v-367h-86v367zM72 355v367h86v-367h-86z" />
<glyph unicode="&#xa7;" d="M28 294q0 46 17 76.5t59 61.5q-42 52 -42 117q0 77 47 127.5t120 50.5q149 0 164 -183h-104q-7 76 -63 76q-26 0 -43 -16t-17 -41q0 -32 31 -51l133 -81q98 -61 98 -153q0 -93 -78 -144q51 -55 51 -131q0 -82 -50 -134.5t-129 -52.5q-75 0 -119 48.5t-51 138.5h108 q9 -80 70 -80q28 0 44.5 19.5t16.5 51.5q0 21 -10.5 36t-37.5 31l-126 78q-48 30 -68.5 65.5t-20.5 89.5zM125 322q0 -34 38 -59l128 -84q35 25 35 64q0 37 -46 66l-120 74q-35 -18 -35 -61z" />
<glyph unicode="&#xa8;" horiz-adv-x="273" d="M6 618v115h96v-115h-96zM171 618v115h96v-115h-96z" />
<glyph unicode="&#xa9;" horiz-adv-x="604" d="M20 329q0 141 79.5 244.5t202.5 103.5t202.5 -103.5t79.5 -244.5t-79.5 -244.5t-202.5 -103.5t-202.5 103.5t-79.5 244.5zM76 329q0 -118 62.5 -205t163.5 -87t163.5 87t62.5 205t-62.5 205t-163.5 87t-163.5 -87t-62.5 -205zM146 328q0 93 43.5 148t117.5 55 q62 0 103.5 -38.5t46.5 -105.5h-82q-15 64 -66 64q-38 0 -58.5 -32.5t-20.5 -90.5q0 -56 20.5 -88t56.5 -32q53 0 68 70h83q-29 -150 -152 -150q-74 0 -117 53.5t-43 146.5z" />
<glyph unicode="&#xaa;" horiz-adv-x="303" d="M18 494q0 41 22.5 69t61.5 35l68 11q26 4 26 23q0 33 -46 33q-24 0 -35 -9t-15 -31h-72q8 60 36.5 86t87.5 26q55 0 85.5 -24.5t30.5 -68.5v-173q0 -42 17 -49v-13h-80q-4 12 -7 38q-39 -46 -90 -46q-41 0 -65.5 25t-24.5 68zM26 276v80h248v-80h-248zM95 500 q0 -37 35 -37q28 0 47 18t19 44v40q-9 -6 -36.5 -12.5t-46 -18t-18.5 -34.5z" />
<glyph unicode="&#xab;" d="M72 220v120l137 144v-116l-82 -88l82 -88v-116zM247 220v120l137 144v-116l-82 -88l82 -88v-116z" />
<glyph unicode="&#xac;" horiz-adv-x="479" d="M57 297v86h365v-223h-86v137h-279z" />
<glyph unicode="&#xad;" horiz-adv-x="273" d="M22 215v130h229v-130h-229z" />
<glyph unicode="&#xae;" horiz-adv-x="604" d="M20 329q0 141 79.5 244.5t202.5 103.5t202.5 -103.5t79.5 -244.5t-79.5 -244.5t-202.5 -103.5t-202.5 103.5t-79.5 244.5zM76 329q0 -118 62.5 -205t163.5 -87t163.5 87t62.5 205t-62.5 205t-163.5 87t-163.5 -87t-62.5 -205zM156 138v383h175q51 0 81.5 -30.5 t30.5 -81.5q0 -61 -44 -87q21 -13 28 -35t7 -77q0 -32 2 -40t12 -11v-21h-88q-10 40 -10 81q0 43 -9 53t-39 10h-65v-144h-81zM237 358h76q47 0 47 43q0 44 -42 44h-81v-87z" />
<glyph unicode="&#xaf;" horiz-adv-x="273" d="M-5 639v73h283v-73h-283z" />
<glyph unicode="&#xb0;" horiz-adv-x="328" d="M47 569q0 59 34.5 101t83.5 42q47 0 81.5 -42.5t34.5 -100.5q0 -59 -34.5 -101t-82.5 -42t-82.5 42t-34.5 101zM93 569q0 -35 21 -60.5t50 -25.5t50 25.5t21 60.5t-21 60.5t-49 25.5q-30 0 -51 -25t-21 -61z" />
<glyph unicode="&#xb1;" horiz-adv-x="479" d="M57 0v86h365v-86h-365zM57 293v86h140v140h86v-140h139v-86h-139v-130h-86v130h-140z" />
<glyph unicode="&#xb2;" horiz-adv-x="273" d="M7 283q4 66 27.5 105t93.5 94q34 28 46.5 50.5t12.5 53.5q0 24 -15 41t-35 17q-27 0 -39.5 -20t-14.5 -66h-72q6 164 125 164q57 0 93 -40.5t36 -105.5q0 -53 -18 -82t-80 -78q-43 -34 -54 -51h153v-82h-259z" />
<glyph unicode="&#xb3;" horiz-adv-x="273" d="M7 425h73q1 -79 54 -79t53 71q0 35 -17.5 48.5t-63.5 13.5v64h12q32 0 46 12t14 40q0 52 -45 52q-48 0 -50 -62h-69q1 69 33.5 103t89.5 34q54 0 86.5 -32t32.5 -85q0 -59 -47 -85q58 -24 58 -102q0 -65 -36.5 -106t-94.5 -41q-60 0 -92 35.5t-37 118.5z" />
<glyph unicode="&#xb4;" horiz-adv-x="273" d="M95 602l77 146h126l-120 -146h-83z" />
<glyph unicode="&#xb5;" horiz-adv-x="501" d="M54 -207v739h114v-330q0 -98 74 -98q43 0 67 32.5t24 88.5v307h114v-532h-110v78q-43 -92 -109 -92q-37 0 -60 26v-219h-114z" />
<glyph unicode="&#xb6;" d="M-7 523q0 90 49.5 133.5t150.5 43.5h249v-891h-92v806h-83v-806h-92v538q-182 9 -182 176z" />
<glyph unicode="&#xb7;" horiz-adv-x="228" d="M52 250q0 26 18 44t44 18t44 -18t18 -44t-18 -44t-44 -18t-44 18t-18 44z" />
<glyph unicode="&#xb8;" horiz-adv-x="273" d="M5 -215l18 48q45 -16 62 -16q19 0 29 13.5t10 31.5q0 15 -9.5 25.5t-22.5 10.5q-10 0 -32 -8l-17 20l45 92h48l-27 -59h20q32 0 52 -22t20 -56q0 -45 -29 -75t-75 -30q-36 0 -92 25z" />
<glyph unicode="&#xb9;" horiz-adv-x="273" d="M21 574v62h11q86 0 92 74h70v-427h-83v291h-90z" />
<glyph unicode="&#xba;" horiz-adv-x="299" d="M5 569q0 76 40.5 122t106.5 46q63 0 103 -47t40 -121t-40.5 -121t-104.5 -47q-65 0 -105 46.5t-40 121.5zM27 276v80h245v-80h-245zM85 569q0 -43 18 -69.5t47 -26.5t47 26.5t18 69.5q0 42 -18 69t-46 27q-30 0 -48 -26.5t-18 -69.5z" />
<glyph unicode="&#xbb;" d="M72 76v116l82 88l-82 88v116l137 -144v-120zM247 76v116l82 88l-82 88v116l137 -144v-120z" />
<glyph unicode="&#xbc;" horiz-adv-x="684" d="M21 574v62h11q86 0 92 74h70v-427h-83v291h-90zM111 -25l351 735h64l-350 -735h-65zM359 90v73l139 261h89v-266h41v-68h-41v-90h-78v90h-150zM418 157h96v186z" />
<glyph unicode="&#xbd;" horiz-adv-x="684" d="M21 574v62h11q86 0 92 74h70v-427h-83v291h-90zM111 -25l351 735h64l-350 -735h-65zM393 0q3 66 26.5 105t93.5 94q34 28 46.5 50.5t12.5 53.5q0 24 -14.5 41t-35.5 17q-50 0 -53 -86h-72q1 82 34 123t90 41t93 -40.5t36 -105.5q0 -53 -18 -82.5t-80 -77.5 q-40 -32 -54 -51h153v-82h-258z" />
<glyph unicode="&#xbe;" horiz-adv-x="684" d="M13 425h74l-1 -11q0 -31 15 -49.5t40 -18.5q53 0 53 71q0 35 -18 48.5t-64 13.5v64h12q32 0 46 12t14 40q0 52 -45 52q-48 0 -50 -62h-70q7 137 123 137q54 0 87 -32t33 -85q0 -59 -47 -85q59 -24 59 -102q0 -65 -36.5 -106t-95.5 -41q-122 0 -129 154zM147 -25l351 735 h64l-350 -735h-65zM386 90v73l139 261h89v-266h41v-68h-41v-90h-78v90h-150zM444 158h94v181z" />
<glyph unicode="&#xbf;" horiz-adv-x="501" d="M45 13q0 58 21 98t78 91q31 27 40.5 50t10.5 72h108q0 -80 -16 -118.5t-68 -84.5q-28 -25 -39.5 -47.5t-11.5 -53.5q0 -45 21.5 -71t59.5 -26t62.5 30t24.5 70v16h116q0 -113 -54 -173.5t-145 -60.5q-94 0 -151 57t-57 151zM186 390v142h120v-142h-120z" />
<glyph unicode="&#xc0;" horiz-adv-x="592" d="M16 0l210 718h142l208 -718h-134l-38 148h-217l-41 -148h-130zM134 914h131l72 -126h-78zM220 271h150l-74 288z" />
<glyph unicode="&#xc1;" horiz-adv-x="592" d="M16 0l210 718h142l208 -718h-134l-38 148h-217l-41 -148h-130zM220 271h150l-74 288zM258 788l72 126h131l-125 -126h-78z" />
<glyph unicode="&#xc2;" horiz-adv-x="592" d="M16 0l210 718h142l208 -718h-134l-38 148h-217l-41 -148h-130zM142 788l103 126h103l103 -126h-93l-62 62l-61 -62h-93zM220 271h150l-74 288z" />
<glyph unicode="&#xc3;" horiz-adv-x="592" d="M16 0l210 718h142l208 -718h-134l-38 148h-217l-41 -148h-130zM147 788q21 123 99 123q6 0 55.5 -18t54.5 -18q29 0 39 40h53q-20 -120 -88 -120q-11 0 -62 18t-61 18q-29 0 -38 -43h-52zM220 271h150l-74 288z" />
<glyph unicode="&#xc4;" horiz-adv-x="592" d="M16 0l210 718h142l208 -718h-134l-38 148h-217l-41 -148h-130zM167 794v115h96v-115h-96zM220 271h150l-74 288zM332 794v115h96v-115h-96z" />
<glyph unicode="&#xc5;" horiz-adv-x="592" d="M16 0l210 718h142l208 -718h-134l-38 148h-217l-41 -148h-130zM194 872q0 35 31.5 61t72.5 26t72.5 -26.5t31.5 -62.5q0 -35 -31 -61.5t-73 -26.5t-73 26.5t-31 63.5zM220 271h150l-74 288zM246 871q0 -18 15 -30.5t37 -12.5t37 12.5t15 29.5q0 18 -15 30.5t-37 12.5 q-21 0 -36.5 -12.5t-15.5 -29.5z" />
<glyph unicode="&#xc6;" horiz-adv-x="820" d="M4 0l215 718h557v-127h-304v-151h274v-127h-274v-186h310v-127h-430v153h-176l-43 -153h-129zM208 271h144v320h-53z" />
<glyph unicode="&#xc7;" horiz-adv-x="592" d="M36 357q0 175 73.5 277.5t199.5 102.5q102 0 170.5 -68t81.5 -186h-123q-15 64 -45 94t-81 30q-71 0 -111 -66.5t-40 -184.5q0 -115 39 -180t108 -65q51 0 82.5 31.5t47.5 103.5h123q-48 -252 -234 -264l-18 -39h20q32 0 52 -22t20 -56q0 -45 -29 -75t-75 -30 q-36 0 -92 25l18 48q45 -16 62 -16q19 0 29 13.5t10 31.5q0 15 -9.5 25.5t-22.5 10.5q-10 0 -32 -8l-17 20l35 72q-113 11 -177.5 110.5t-64.5 264.5z" />
<glyph unicode="&#xc8;" horiz-adv-x="547" d="M62 0v718h433v-127h-313v-151h288v-127h-288v-186h327v-127h-447zM116 914h131l72 -126h-78z" />
<glyph unicode="&#xc9;" horiz-adv-x="547" d="M62 0v718h433v-127h-313v-151h288v-127h-288v-186h327v-127h-447zM240 788l72 126h131l-125 -126h-78z" />
<glyph unicode="&#xca;" horiz-adv-x="547" d="M62 0v718h433v-127h-313v-151h288v-127h-288v-186h327v-127h-447zM124 788l103 126h103l103 -126h-93l-62 62l-61 -62h-93z" />
<glyph unicode="&#xcb;" horiz-adv-x="547" d="M62 0v718h433v-127h-313v-151h288v-127h-288v-186h327v-127h-447zM149 794v115h96v-115h-96zM314 794v115h96v-115h-96z" />
<glyph unicode="&#xcc;" horiz-adv-x="228" d="M-28 914h131l72 -126h-78zM52 0v718h123v-718h-123z" />
<glyph unicode="&#xcd;" horiz-adv-x="228" d="M52 0v718h123v-718h-123zM53 788l72 126h131l-125 -126h-78z" />
<glyph unicode="&#xce;" horiz-adv-x="228" d="M-41 788l103 126h103l103 -126h-93l-62 62l-61 -62h-93zM52 0v718h123v-718h-123z" />
<glyph unicode="&#xcf;" horiz-adv-x="228" d="M-16 794v115h96v-115h-96zM52 0v718h123v-718h-123zM149 794v115h96v-115h-96z" />
<glyph unicode="&#xd0;" horiz-adv-x="592" d="M-4 317v123h66v278h260q114 0 177 -90t63 -253q0 -166 -63 -270.5t-182 -104.5h-255v317h-66zM182 123h121q63 0 98.5 65t35.5 181q0 226 -136 226h-119v-155h137v-123h-137v-194z" />
<glyph unicode="&#xd1;" horiz-adv-x="592" d="M57 0v718h129l236 -504v504h114v-718h-122l-243 515v-515h-114zM147 788q21 123 99 123q6 0 55.5 -18t54.5 -18q29 0 39 40h53q-20 -120 -88 -120q-11 0 -62 18t-61 18q-29 0 -38 -43h-52z" />
<glyph unicode="&#xd2;" horiz-adv-x="638" d="M36 358q0 179 77.5 279t209.5 100q125 0 202 -101t77 -277q0 -177 -77 -277.5t-206 -100.5q-130 0 -206.5 101t-76.5 276zM159 361q0 -119 42.5 -186t117.5 -67t117.5 67.5t42.5 186.5q0 113 -43 180.5t-115 67.5q-76 0 -119 -66.5t-43 -182.5zM160 914h131l72 -126h-78z " />
<glyph unicode="&#xd3;" horiz-adv-x="638" d="M36 358q0 179 77.5 279t209.5 100q125 0 202 -101t77 -277q0 -177 -77 -277.5t-206 -100.5q-130 0 -206.5 101t-76.5 276zM159 361q0 -119 42.5 -186t117.5 -67t117.5 67.5t42.5 186.5q0 113 -43 180.5t-115 67.5q-76 0 -119 -66.5t-43 -182.5zM284 788l72 126h131 l-125 -126h-78z" />
<glyph unicode="&#xd4;" horiz-adv-x="638" d="M36 358q0 179 77.5 279t209.5 100q125 0 202 -101t77 -277q0 -177 -77 -277.5t-206 -100.5q-130 0 -206.5 101t-76.5 276zM159 361q0 -119 42.5 -186t117.5 -67t117.5 67.5t42.5 186.5q0 113 -43 180.5t-115 67.5q-76 0 -119 -66.5t-43 -182.5zM168 788l103 126h103 l103 -126h-93l-62 62l-61 -62h-93z" />
<glyph unicode="&#xd5;" horiz-adv-x="638" d="M36 358q0 179 77.5 279t209.5 100q125 0 202 -101t77 -277q0 -177 -77 -277.5t-206 -100.5q-130 0 -206.5 101t-76.5 276zM159 361q0 -119 42.5 -186t117.5 -67t117.5 67.5t42.5 186.5q0 113 -43 180.5t-115 67.5q-76 0 -119 -66.5t-43 -182.5zM173 788q21 123 99 123 q6 0 55.5 -18t54.5 -18q29 0 39 40h53q-20 -120 -88 -120q-11 0 -62 18t-61 18q-29 0 -38 -43h-52z" />
<glyph unicode="&#xd6;" horiz-adv-x="638" d="M36 358q0 179 77.5 279t209.5 100q125 0 202 -101t77 -277q0 -177 -77 -277.5t-206 -100.5q-130 0 -206.5 101t-76.5 276zM159 361q0 -119 42.5 -186t117.5 -67t117.5 67.5t42.5 186.5q0 113 -43 180.5t-115 67.5q-76 0 -119 -66.5t-43 -182.5zM193 794v115h96v-115h-96z M358 794v115h96v-115h-96z" />
<glyph unicode="&#xd7;" horiz-adv-x="479" d="M80 152l99 99l-99 98l61 61l99 -99l98 99l61 -61l-98 -98l98 -99l-61 -61l-98 99l-99 -99z" />
<glyph unicode="&#xd8;" horiz-adv-x="638" d="M27 11l70 93q-61 105 -61 253q0 178 77 279t205 101q103 0 191 -81l67 89l34 -38l-69 -92q61 -105 61 -254q0 -178 -77 -279t-206 -101q-107 0 -190 82l-68 -90zM159 358q0 -80 22 -140l249 333q-48 59 -111 59q-74 0 -117 -67.5t-43 -184.5zM207 168q47 -60 112 -60 q74 0 117 67.5t43 183.5q0 84 -23 142z" />
<glyph unicode="&#xd9;" horiz-adv-x="592" d="M59 242v476h125v-466q0 -69 29 -106.5t82 -37.5q56 0 85 35t29 102v473h125v-467q0 -132 -61 -201t-178 -69q-113 0 -174.5 68.5t-61.5 192.5zM134 914h131l72 -126h-78z" />
<glyph unicode="&#xda;" horiz-adv-x="592" d="M59 242v476h125v-466q0 -69 29 -106.5t82 -37.5q56 0 85 35t29 102v473h125v-467q0 -132 -61 -201t-178 -69q-113 0 -174.5 68.5t-61.5 192.5zM258 788l72 126h131l-125 -126h-78z" />
<glyph unicode="&#xdb;" horiz-adv-x="592" d="M59 242v476h125v-466q0 -69 29 -106.5t82 -37.5q56 0 85 35t29 102v473h125v-467q0 -132 -61 -201t-178 -69q-113 0 -174.5 68.5t-61.5 192.5zM142 788l103 126h103l103 -126h-93l-62 62l-61 -62h-93z" />
<glyph unicode="&#xdc;" horiz-adv-x="592" d="M59 242v476h125v-466q0 -69 29 -106.5t82 -37.5q56 0 85 35t29 102v473h125v-467q0 -132 -61 -201t-178 -69q-113 0 -174.5 68.5t-61.5 192.5zM167 794v115h96v-115h-96zM332 794v115h96v-115h-96z" />
<glyph unicode="&#xdd;" horiz-adv-x="547" d="M12 718h145l122 -312l117 312h139l-197 -449v-269h-123v271zM238 788l72 126h131l-125 -126h-78z" />
<glyph unicode="&#xde;" horiz-adv-x="547" d="M62 0v718h123v-98h146q83 0 133 -61.5t50 -164.5q0 -107 -51.5 -171t-136.5 -64h-141v-159h-123zM185 282h114q92 0 92 110q0 55 -25.5 80t-82.5 25h-98v-215z" />
<glyph unicode="&#xdf;" horiz-adv-x="501" d="M57 0v539q0 88 52 140t141 52q90 0 141 -50.5t51 -139.5t-60 -130q51 -32 72 -72.5t21 -107.5q0 -112 -53.5 -178.5t-144.5 -66.5q-17 0 -48 6v110h4q4 -1 20 -1q107 0 107 123q0 63 -27.5 90t-97.5 33v97q53 2 72.5 20.5t19.5 65.5q0 43 -21 66t-59 23q-35 0 -55.5 -24 t-20.5 -65v-530h-114z" />
<glyph unicode="&#xe0;" d="M24 142q0 70 33.5 114t94.5 55l103 19q40 7 40 44q0 60 -71 60q-37 0 -54 -16.5t-22 -57.5h-110q10 101 55 143.5t136 42.5q85 0 131.5 -40.5t46.5 -113.5v-288q0 -70 25 -83v-21h-123q-7 27 -11 63q-34 -43 -65 -60t-73 -17q-63 0 -99.5 42t-36.5 114zM68 748h126 l77 -146h-83zM139 151q0 -30 15 -47.5t40 -17.5q42 0 71.5 30.5t29.5 74.5v68q-19 -17 -78 -29q-43 -9 -60.5 -27t-17.5 -52z" />
<glyph unicode="&#xe1;" d="M24 142q0 70 33.5 114t94.5 55l103 19q40 7 40 44q0 60 -71 60q-37 0 -54 -16.5t-22 -57.5h-110q10 101 55 143.5t136 42.5q85 0 131.5 -40.5t46.5 -113.5v-288q0 -70 25 -83v-21h-123q-7 27 -11 63q-34 -43 -65 -60t-73 -17q-63 0 -99.5 42t-36.5 114zM139 151 q0 -30 15 -47.5t40 -17.5q42 0 71.5 30.5t29.5 74.5v68q-19 -17 -78 -29q-43 -9 -60.5 -27t-17.5 -52zM187 602l77 146h126l-120 -146h-83z" />
<glyph unicode="&#xe2;" d="M24 142q0 70 33.5 114t94.5 55l103 19q40 7 40 44q0 60 -71 60q-37 0 -54 -16.5t-22 -57.5h-110q10 101 55 143.5t136 42.5q85 0 131.5 -40.5t46.5 -113.5v-288q0 -70 25 -83v-21h-123q-7 27 -11 63q-34 -43 -65 -60t-73 -17q-63 0 -99.5 42t-36.5 114zM84 602l93 146 h103l93 -146h-93l-52 82l-51 -82h-93zM139 151q0 -30 15 -47.5t40 -17.5q42 0 71.5 30.5t29.5 74.5v68q-19 -17 -78 -29q-43 -9 -60.5 -27t-17.5 -52z" />
<glyph unicode="&#xe3;" d="M24 142q0 70 33.5 114t94.5 55l103 19q40 7 40 44q0 60 -71 60q-37 0 -54 -16.5t-22 -57.5h-110q10 101 55 143.5t136 42.5q85 0 131.5 -40.5t46.5 -113.5v-288q0 -70 25 -83v-21h-123q-7 27 -11 63q-34 -43 -65 -60t-73 -17q-63 0 -99.5 42t-36.5 114zM78 612 q20 123 99 123q6 0 55.5 -18t54.5 -18q29 0 39 40h53q-19 -120 -88 -120q-11 0 -62 18t-61 18q-29 0 -38 -43h-52zM139 151q0 -30 15 -47.5t40 -17.5q42 0 71.5 30.5t29.5 74.5v68q-19 -17 -78 -29q-43 -9 -60.5 -27t-17.5 -52z" />
<glyph unicode="&#xe4;" d="M24 142q0 70 33.5 114t94.5 55l103 19q40 7 40 44q0 60 -71 60q-37 0 -54 -16.5t-22 -57.5h-110q10 101 55 143.5t136 42.5q85 0 131.5 -40.5t46.5 -113.5v-288q0 -70 25 -83v-21h-123q-7 27 -11 63q-34 -43 -65 -60t-73 -17q-63 0 -99.5 42t-36.5 114zM98 618v115h96 v-115h-96zM139 151q0 -30 15 -47.5t40 -17.5q42 0 71.5 30.5t29.5 74.5v68q-19 -17 -78 -29q-43 -9 -60.5 -27t-17.5 -52zM263 618v115h96v-115h-96z" />
<glyph unicode="&#xe5;" d="M24 142q0 70 33.5 114t94.5 55l103 19q40 7 40 44q0 60 -71 60q-37 0 -54 -16.5t-22 -57.5h-110q10 101 55 143.5t136 42.5q85 0 131.5 -40.5t46.5 -113.5v-288q0 -70 25 -83v-21h-123q-7 27 -11 63q-34 -43 -65 -60t-73 -17q-63 0 -99.5 42t-36.5 114zM125 677 q0 35 31.5 61t72.5 26t72.5 -26.5t31.5 -62.5q0 -35 -31 -61.5t-73 -26.5t-73 26.5t-31 63.5zM139 151q0 -30 15 -47.5t40 -17.5q42 0 71.5 30.5t29.5 74.5v68q-19 -17 -78 -29q-43 -9 -60.5 -27t-17.5 -52zM177 676q0 -18 15 -30.5t37 -12.5t37 12.5t15 29.5q0 18 -15 30.5 t-37 12.5q-21 0 -36.5 -12.5t-15.5 -29.5z" />
<glyph unicode="&#xe6;" horiz-adv-x="729" d="M24 147q0 62 29.5 102.5t81.5 51.5l107 22q38 7 48.5 16t10.5 35q0 31 -18 45.5t-58 14.5q-37 0 -54 -18t-19 -57h-112q9 97 56 142t135 45q82 0 140 -59q34 33 63.5 46t68.5 13q95 0 148 -77.5t53 -216.5v-25h-299q5 -67 29 -97.5t71 -30.5q59 0 76 58h118 q-49 -171 -198 -171q-57 0 -91.5 19t-65.5 67q-51 -86 -165 -86q-75 0 -115 42t-40 119zM139 151q0 -31 16 -48t45 -17q39 0 69 31t30 71v66q-16 -17 -85 -30q-44 -8 -59.5 -23.5t-15.5 -49.5zM408 319h178q-12 112 -90 112q-38 0 -59 -27t-29 -85z" />
<glyph unicode="&#xe7;" d="M28 259q0 135 55 211t152 76q84 0 134.5 -51.5t60.5 -152.5h-116q-8 45 -25.5 65.5t-48.5 20.5q-94 0 -94 -163q0 -164 87 -164q33 0 54.5 25.5t25.5 67.5h116q-12 -95 -58 -148t-122 -59l-20 -44h20q32 0 52 -22t20 -56q0 -45 -29 -75t-75 -30q-36 0 -92 25l18 48 q45 -16 62 -16q19 0 29 13.5t10 31.5q0 15 -9.5 25.5t-22.5 10.5q-10 0 -32 -8l-17 20l38 78q-83 10 -128 80t-45 191z" />
<glyph unicode="&#xe8;" d="M19 268q0 130 55 204t152 74q100 0 153.5 -76t53.5 -218v-25h-299q5 -67 29 -97.5t71 -30.5q59 0 76 58h118q-49 -171 -196 -171q-102 0 -157.5 73.5t-55.5 208.5zM67 748h126l77 -146h-83zM137 319h178q-12 112 -90 112q-38 0 -59 -27t-29 -85z" />
<glyph unicode="&#xe9;" d="M19 268q0 130 55 204t152 74q100 0 153.5 -76t53.5 -218v-25h-299q5 -67 29 -97.5t71 -30.5q59 0 76 58h118q-49 -171 -196 -171q-102 0 -157.5 73.5t-55.5 208.5zM137 319h178q-12 112 -90 112q-38 0 -59 -27t-29 -85zM186 602l77 146h126l-120 -146h-83z" />
<glyph unicode="&#xea;" d="M19 268q0 130 55 204t152 74q100 0 153.5 -76t53.5 -218v-25h-299q5 -67 29 -97.5t71 -30.5q59 0 76 58h118q-49 -171 -196 -171q-102 0 -157.5 73.5t-55.5 208.5zM83 602l93 146h103l93 -146h-93l-52 82l-51 -82h-93zM137 319h178q-12 112 -90 112q-38 0 -59 -27 t-29 -85z" />
<glyph unicode="&#xeb;" d="M19 268q0 130 55 204t152 74q100 0 153.5 -76t53.5 -218v-25h-299q5 -67 29 -97.5t71 -30.5q59 0 76 58h118q-49 -171 -196 -171q-102 0 -157.5 73.5t-55.5 208.5zM97 618v115h96v-115h-96zM137 319h178q-12 112 -90 112q-38 0 -59 -27t-29 -85zM262 618v115h96v-115h-96 z" />
<glyph unicode="&#xec;" horiz-adv-x="228" d="M-32 748h126l77 -146h-83zM57 0v532h114v-532h-114z" />
<glyph unicode="&#xed;" horiz-adv-x="228" d="M57 0v532h114v-532h-114zM57 602l77 146h126l-120 -146h-83z" />
<glyph unicode="&#xee;" horiz-adv-x="228" d="M-31 602l93 146h103l93 -146h-93l-52 82l-51 -82h-93zM57 0v532h114v-532h-114z" />
<glyph unicode="&#xef;" horiz-adv-x="228" d="M-17 618v115h96v-115h-96zM57 0v532h114v-532h-114zM148 618v115h96v-115h-96z" />
<glyph unicode="&#xf0;" horiz-adv-x="501" d="M28 260q0 115 56 189t142 74q36 0 61.5 -14.5t49.5 -48.5q-28 71 -84 131l-88 -47l-52 52l89 47q-34 30 -60 45l89 49q32 -17 64 -44l84 44l51 -52l-83 -44q67 -85 97 -168.5t30 -181.5q0 -139 -61 -222t-163 -83q-100 0 -161 75t-61 199zM146 252q0 -67 29 -107.5 t77 -40.5t76 42.5t28 113.5q0 64 -28.5 104.5t-74.5 40.5q-49 0 -78 -41.5t-29 -111.5z" />
<glyph unicode="&#xf1;" horiz-adv-x="501" d="M53 0v532h110v-81q45 95 134 95q69 0 110 -48t41 -130v-368h-114v323q0 55 -17.5 80t-56.5 25q-43 0 -68 -33t-25 -90v-305h-114zM100 612q20 123 99 123q6 0 55.5 -18t54.5 -18q29 0 39 40h53q-20 -120 -88 -120q-11 0 -62 18t-61 18q-29 0 -38 -43h-52z" />
<glyph unicode="&#xf2;" horiz-adv-x="501" d="M28 265q0 129 61 205t165 76q100 0 160 -77t60 -204t-61 -203t-162 -76t-162 76t-61 203zM89 748h126l77 -146h-83zM146 266q0 -79 27 -120.5t78 -41.5t78 41.5t27 120.5q0 78 -27 120t-77 42q-106 0 -106 -162z" />
<glyph unicode="&#xf3;" horiz-adv-x="501" d="M28 265q0 129 61 205t165 76q100 0 160 -77t60 -204t-61 -203t-162 -76t-162 76t-61 203zM146 266q0 -79 27 -120.5t78 -41.5t78 41.5t27 120.5q0 78 -27 120t-77 42q-106 0 -106 -162zM209 602l77 146h126l-120 -146h-83z" />
<glyph unicode="&#xf4;" horiz-adv-x="501" d="M28 265q0 129 61 205t165 76q100 0 160 -77t60 -204t-61 -203t-162 -76t-162 76t-61 203zM106 602l93 146h103l93 -146h-93l-52 82l-51 -82h-93zM146 266q0 -79 27 -120.5t78 -41.5t78 41.5t27 120.5q0 78 -27 120t-77 42q-106 0 -106 -162z" />
<glyph unicode="&#xf5;" horiz-adv-x="501" d="M28 265q0 129 61 205t165 76q100 0 160 -77t60 -204t-61 -203t-162 -76t-162 76t-61 203zM100 612q20 123 99 123q6 0 55.5 -18t54.5 -18q29 0 39 40h53q-20 -120 -88 -120q-11 0 -62 18t-61 18q-29 0 -38 -43h-52zM146 266q0 -79 27 -120.5t78 -41.5t78 41.5t27 120.5 q0 78 -27 120t-77 42q-106 0 -106 -162z" />
<glyph unicode="&#xf6;" horiz-adv-x="501" d="M28 265q0 129 61 205t165 76q100 0 160 -77t60 -204t-61 -203t-162 -76t-162 76t-61 203zM120 618v115h96v-115h-96zM146 266q0 -79 27 -120.5t78 -41.5t78 41.5t27 120.5q0 78 -27 120t-77 42q-106 0 -106 -162zM285 618v115h96v-115h-96z" />
<glyph unicode="&#xf7;" horiz-adv-x="479" d="M57 207v86h365v-86h-365zM178 71q0 26 18 44t44 18t44 -18.5t18 -43.5q0 -26 -18 -44t-44 -18t-44 18t-18 44zM178 430q0 26 18 44t44 18t44 -18t18 -44t-18 -44t-44 -18t-44 18t-18 44z" />
<glyph unicode="&#xf8;" horiz-adv-x="501" d="M18 0l60 77q-50 81 -50 189q0 128 60.5 204t162.5 76q81 0 147 -59l56 73l29 -32l-58 -74q49 -81 49 -188q0 -127 -61 -203.5t-162 -76.5q-81 0 -145 58l-57 -73zM146 267q0 -49 12 -88l167 214q-31 35 -74 35q-51 0 -78 -41.5t-27 -119.5zM179 138q27 -34 71 -34 q52 0 79 41.5t27 121.5q0 49 -12 84z" />
<glyph unicode="&#xf9;" horiz-adv-x="501" d="M54 182v350h114v-330q0 -98 74 -98q43 0 67 32.5t24 88.5v307h114v-532h-110v78q-44 -92 -136 -92q-70 0 -108.5 51t-38.5 145zM89 748h126l77 -146h-83z" />
<glyph unicode="&#xfa;" horiz-adv-x="501" d="M54 182v350h114v-330q0 -98 74 -98q43 0 67 32.5t24 88.5v307h114v-532h-110v78q-44 -92 -136 -92q-70 0 -108.5 51t-38.5 145zM209 602l77 146h126l-120 -146h-83z" />
<glyph unicode="&#xfb;" horiz-adv-x="501" d="M54 182v350h114v-330q0 -98 74 -98q43 0 67 32.5t24 88.5v307h114v-532h-110v78q-44 -92 -136 -92q-70 0 -108.5 51t-38.5 145zM106 602l93 146h103l93 -146h-93l-52 82l-51 -82h-93z" />
<glyph unicode="&#xfc;" horiz-adv-x="501" d="M54 182v350h114v-330q0 -98 74 -98q43 0 67 32.5t24 88.5v307h114v-532h-110v78q-44 -92 -136 -92q-70 0 -108.5 51t-38.5 145zM120 618v115h96v-115h-96zM285 618v115h96v-115h-96z" />
<glyph unicode="&#xfd;" d="M8 532h128l94 -396l90 396h122l-150 -523q-44 -154 -68 -186q-27 -37 -98 -37l-55 2v112q16 -2 24 -2q37 0 51.5 15.5t22.5 64.5zM186 602l77 146h126l-120 -146h-83z" />
<glyph unicode="&#xfe;" horiz-adv-x="501" d="M51 -207v925h114v-257q25 45 54.5 65t71.5 20q83 0 133 -75t50 -199q0 -131 -50 -208.5t-135 -77.5q-44 0 -72.5 19.5t-51.5 65.5v-278h-114zM160 258q0 -74 26 -115.5t73 -41.5q45 0 71 44.5t26 119.5q0 74 -26 116.5t-72 42.5q-98 0 -98 -166z" />
<glyph unicode="&#xff;" d="M8 532h128l94 -396l90 396h122l-150 -523q-44 -154 -68 -186q-27 -37 -98 -37l-55 2v112q16 -2 24 -2q37 0 51.5 15.5t22.5 64.5zM97 618v115h96v-115h-96zM262 618v115h96v-115h-96z" />
<glyph unicode="&#x100;" horiz-adv-x="592" d="M16 0l210 718h142l208 -718h-134l-38 148h-217l-41 -148h-130zM156 815v73h283v-73h-283zM220 271h150l-74 288z" />
<glyph unicode="&#x101;" d="M24 142q0 70 33.5 114t94.5 55l103 19q40 7 40 44q0 60 -71 60q-37 0 -54 -16.5t-22 -57.5h-110q10 101 55 143.5t136 42.5q85 0 131.5 -40.5t46.5 -113.5v-288q0 -70 25 -83v-21h-123q-7 27 -11 63q-34 -43 -65 -60t-73 -17q-63 0 -99.5 42t-36.5 114zM87 639v73h283 v-73h-283zM139 151q0 -30 15 -47.5t40 -17.5q42 0 71.5 30.5t29.5 74.5v68q-19 -17 -78 -29q-43 -9 -60.5 -27t-17.5 -52z" />
<glyph unicode="&#x102;" horiz-adv-x="592" d="M16 0l210 718h142l208 -718h-134l-38 148h-217l-41 -148h-130zM148 914h54q16 -25 36.5 -37t58.5 -12t57 12t28 37h63q-33 -126 -153 -126q-113 0 -144 126zM220 271h150l-74 288z" />
<glyph unicode="&#x103;" d="M24 142q0 70 33.5 114t94.5 55l103 19q40 7 40 44q0 60 -71 60q-37 0 -54 -16.5t-22 -57.5h-110q10 101 55 143.5t136 42.5q85 0 131.5 -40.5t46.5 -113.5v-288q0 -70 25 -83v-21h-123q-7 27 -11 63q-34 -43 -65 -60t-73 -17q-63 0 -99.5 42t-36.5 114zM90 748h54 q7 -38 26 -53.5t59 -15.5t58.5 15t26.5 54h53q-15 -146 -143 -146q-121 0 -134 146zM139 151q0 -30 15 -47.5t40 -17.5q42 0 71.5 30.5t29.5 74.5v68q-19 -17 -78 -29q-43 -9 -60.5 -27t-17.5 -52z" />
<glyph unicode="&#x104;" horiz-adv-x="592" d="M16 0l210 718h142l208 -718q-52 -14 -84 -57q-21 -29 -21 -52t19 -36.5t46 -13.5h40v-91h-40q-69 0 -115 24t-46 80q0 73 90 146h-23l-38 148h-217l-41 -148h-130zM220 271h150l-74 288z" />
<glyph unicode="&#x105;" d="M24 142q0 70 33.5 114t94.5 55l103 19q40 7 40 44q0 60 -71 60q-37 0 -54 -16.5t-22 -57.5h-110q10 101 55 143.5t136 42.5q85 0 131.5 -40.5t46.5 -113.5v-288q0 -70 25 -83v-21q-52 -14 -84 -57q-21 -29 -21 -52t19 -36.5t46 -13.5h40v-91h-40q-69 0 -115 24t-46 80 q0 73 90 146h-12q-7 27 -11 63q-34 -43 -65 -60t-73 -17q-63 0 -99.5 42t-36.5 114zM139 151q0 -30 15 -47.5t40 -17.5q42 0 71.5 30.5t29.5 74.5v68q-19 -17 -78 -29q-43 -9 -60.5 -27t-17.5 -52z" />
<glyph unicode="&#x106;" horiz-adv-x="592" d="M36 357q0 175 73.5 277.5t199.5 102.5q102 0 170.5 -68t81.5 -186h-123q-15 64 -45 94t-81 30q-71 0 -111 -66.5t-40 -184.5q0 -115 39 -180t108 -65q51 0 82.5 31.5t47.5 103.5h123q-50 -265 -255 -265q-125 0 -197.5 100.5t-72.5 275.5zM270 788l72 126h131l-125 -126 h-78z" />
<glyph unicode="&#x107;" d="M28 259q0 135 55 211t152 76q84 0 134.5 -51.5t60.5 -152.5h-116q-8 45 -25.5 65.5t-48.5 20.5q-94 0 -94 -163q0 -164 87 -164q33 0 54.5 25.5t25.5 67.5h116q-13 -101 -64 -154.5t-136 -53.5q-97 0 -149 71t-52 202zM186 602l77 146h126l-120 -146h-83z" />
<glyph unicode="&#x108;" horiz-adv-x="592" d="M36 357q0 175 73.5 277.5t199.5 102.5q102 0 170.5 -68t81.5 -186h-123q-15 64 -45 94t-81 30q-71 0 -111 -66.5t-40 -184.5q0 -115 39 -180t108 -65q51 0 82.5 31.5t47.5 103.5h123q-50 -265 -255 -265q-125 0 -197.5 100.5t-72.5 275.5zM154 788l103 126h103l103 -126 h-93l-62 62l-61 -62h-93z" />
<glyph unicode="&#x109;" d="M28 259q0 135 55 211t152 76q84 0 134.5 -51.5t60.5 -152.5h-116q-8 45 -25.5 65.5t-48.5 20.5q-94 0 -94 -163q0 -164 87 -164q33 0 54.5 25.5t25.5 67.5h116q-13 -101 -64 -154.5t-136 -53.5q-97 0 -149 71t-52 202zM83 602l93 146h103l93 -146h-93l-52 82l-51 -82h-93 z" />
<glyph unicode="&#x10a;" horiz-adv-x="592" d="M36 357q0 175 73.5 277.5t199.5 102.5q102 0 170.5 -68t81.5 -186h-123q-15 64 -45 94t-81 30q-71 0 -111 -66.5t-40 -184.5q0 -115 39 -180t108 -65q51 0 82.5 31.5t47.5 103.5h123q-50 -265 -255 -265q-125 0 -197.5 100.5t-72.5 275.5zM254 794v115h114v-115h-114z " />
<glyph unicode="&#x10b;" d="M28 259q0 135 55 211t152 76q84 0 134.5 -51.5t60.5 -152.5h-116q-8 45 -25.5 65.5t-48.5 20.5q-94 0 -94 -163q0 -164 87 -164q33 0 54.5 25.5t25.5 67.5h116q-13 -101 -64 -154.5t-136 -53.5q-97 0 -149 71t-52 202zM172 618v115h114v-115h-114z" />
<glyph unicode="&#x10c;" horiz-adv-x="592" d="M36 357q0 175 73.5 277.5t199.5 102.5q102 0 170.5 -68t81.5 -186h-123q-15 64 -45 94t-81 30q-71 0 -111 -66.5t-40 -184.5q0 -115 39 -180t108 -65q51 0 82.5 31.5t47.5 103.5h123q-50 -265 -255 -265q-125 0 -197.5 100.5t-72.5 275.5zM155 914h93l62 -62l61 62h93 l-103 -126h-103z" />
<glyph unicode="&#x10d;" d="M28 259q0 135 55 211t152 76q84 0 134.5 -51.5t60.5 -152.5h-116q-8 45 -25.5 65.5t-48.5 20.5q-94 0 -94 -163q0 -164 87 -164q33 0 54.5 25.5t25.5 67.5h116q-13 -101 -64 -154.5t-136 -53.5q-97 0 -149 71t-52 202zM83 748h93l52 -82l51 82h93l-93 -146h-103z" />
<glyph unicode="&#x10e;" horiz-adv-x="592" d="M62 0v718h260q114 0 177 -90.5t63 -253.5q0 -165 -64 -269.5t-181 -104.5h-255zM146 914h93l62 -62l61 62h93l-103 -126h-103zM182 123h120q64 0 99.5 65t35.5 182q0 225 -137 225h-118v-472z" />
<glyph unicode="&#x10f;" horiz-adv-x="501" d="M28 272q0 124 50 199t133 75q42 0 71.5 -20t55.5 -66v258h114v-718h-112v70q-41 -84 -128 -84q-84 0 -134 77.5t-50 208.5zM146 264q0 -75 26 -119t70 -44q48 0 74 41.5t26 117.5q0 78 -25 121t-71 43q-47 0 -73.5 -42t-26.5 -118zM509 471v46q30 6 46.5 28.5t16.5 54.5 v6h-63v112h108v-103q0 -64 -31 -103t-77 -41z" />
<glyph unicode="&#x110;" horiz-adv-x="592" d="M-4 317v123h66v278h260q114 0 177 -90t63 -253q0 -166 -63 -270.5t-182 -104.5h-255v317h-66zM182 123h121q63 0 98.5 65t35.5 181q0 226 -136 226h-119v-155h137v-123h-137v-194z" />
<glyph unicode="&#x111;" horiz-adv-x="509" d="M28 272q0 124 50 199t133 75q42 0 71.5 -20t55.5 -66v128l-112 1v73h112v56h114v-56h57v-73h-57v-589h-112v70q-41 -84 -128 -84q-84 0 -134 77.5t-50 208.5zM146 264q0 -75 26 -119t70 -44q48 0 74 41.5t26 117.5q0 78 -25 121t-71 43q-47 0 -73.5 -42t-26.5 -118z" />
<glyph unicode="&#x112;" horiz-adv-x="547" d="M62 0v718h433v-127h-313v-151h288v-127h-288v-186h327v-127h-447zM138 815v73h283v-73h-283z" />
<glyph unicode="&#x113;" d="M19 268q0 130 55 204t152 74q100 0 153.5 -76t53.5 -218v-25h-299q5 -67 29 -97.5t71 -30.5q59 0 76 58h118q-49 -171 -196 -171q-102 0 -157.5 73.5t-55.5 208.5zM86 639v73h283v-73h-283zM137 319h178q-12 112 -90 112q-38 0 -59 -27t-29 -85z" />
<glyph unicode="&#x114;" horiz-adv-x="547" d="M62 0v718h433v-127h-313v-151h288v-127h-288v-186h327v-127h-447zM130 914h54q16 -25 36.5 -37t58.5 -12t57 12t28 37h63q-33 -126 -153 -126q-113 0 -144 126z" />
<glyph unicode="&#x115;" d="M19 268q0 130 55 204t152 74q100 0 153.5 -76t53.5 -218v-25h-299q5 -67 29 -97.5t71 -30.5q59 0 76 58h118q-49 -171 -196 -171q-102 0 -157.5 73.5t-55.5 208.5zM89 748h54q7 -38 26 -53.5t59 -15.5t58.5 15t26.5 54h53q-15 -146 -143 -146q-121 0 -134 146zM137 319 h178q-12 112 -90 112q-38 0 -59 -27t-29 -85z" />
<glyph unicode="&#x116;" horiz-adv-x="547" d="M62 0v718h433v-127h-313v-151h288v-127h-288v-186h327v-127h-447zM224 794v115h114v-115h-114z" />
<glyph unicode="&#x117;" d="M19 268q0 130 55 204t152 74q100 0 153.5 -76t53.5 -218v-25h-299q5 -67 29 -97.5t71 -30.5q59 0 76 58h118q-49 -171 -196 -171q-102 0 -157.5 73.5t-55.5 208.5zM137 319h178q-12 112 -90 112q-38 0 -59 -27t-29 -85zM172 618v115h114v-115h-114z" />
<glyph unicode="&#x118;" horiz-adv-x="547" d="M62 0v718h433v-127h-313v-151h288v-127h-288v-186h327v-127q-52 -14 -84 -57q-21 -29 -21 -52t19 -36.5t46 -13.5h40v-91h-40q-69 0 -115 24t-46 80q0 73 90 146h-336z" />
<glyph unicode="&#x119;" d="M19 268q0 130 55 204t152 74q100 0 153.5 -76t53.5 -218v-25h-299q5 -67 29 -97.5t71 -30.5q59 0 76 58h118q-26 -89 -74 -130q-30 -26 -45.5 -41t-31.5 -42t-16 -53q0 -23 19 -36.5t46 -13.5h40v-91h-40q-69 0 -115 24t-46 80q0 67 73 132h-6q-102 0 -157.5 73.5 t-55.5 208.5zM137 319h178q-12 112 -90 112q-38 0 -59 -27t-29 -85z" />
<glyph unicode="&#x11a;" horiz-adv-x="547" d="M62 0v718h433v-127h-313v-151h288v-127h-288v-186h327v-127h-447zM125 914h93l62 -62l61 62h93l-103 -126h-103z" />
<glyph unicode="&#x11b;" d="M19 268q0 130 55 204t152 74q100 0 153.5 -76t53.5 -218v-25h-299q5 -67 29 -97.5t71 -30.5q59 0 76 58h118q-49 -171 -196 -171q-102 0 -157.5 73.5t-55.5 208.5zM83 748h93l52 -82l51 82h93l-93 -146h-103zM137 319h178q-12 112 -90 112q-38 0 -59 -27t-29 -85z" />
<glyph unicode="&#x11c;" horiz-adv-x="638" d="M36 354q0 176 78 279.5t210 103.5q105 0 174 -63.5t85 -178.5h-124q-9 52 -46 85.5t-86 33.5q-77 0 -121.5 -70t-44.5 -190q0 -117 43.5 -181.5t122.5 -64.5q55 0 92 36t57 121h-138v122h247v-387h-82l-13 90q-43 -61 -83.5 -85t-100.5 -24q-121 0 -195.5 103t-74.5 270z M169 788l103 126h103l103 -126h-93l-62 62l-61 -62h-93z" />
<glyph unicode="&#x11d;" horiz-adv-x="501" d="M33 271q0 125 50 200t132 75q45 0 75.5 -22.5t52.5 -73.5v82h110v-504q0 -132 -53 -188.5t-160 -56.5q-176 0 -198 160h125q5 -28 22.5 -40.5t53.5 -12.5q50 0 72.5 28.5t22.5 92.5v69q-22 -46 -48 -64.5t-70 -18.5q-86 0 -136.5 73.5t-50.5 200.5zM106 602l93 146h103 l93 -146h-93l-52 82l-51 -82h-93zM151 267q0 -71 24.5 -111.5t67.5 -40.5q46 0 71 40t25 112q0 70 -26.5 113.5t-69.5 43.5t-67.5 -42t-24.5 -115z" />
<glyph unicode="&#x11e;" horiz-adv-x="638" d="M36 354q0 176 78 279.5t210 103.5q105 0 174 -63.5t85 -178.5h-124q-9 52 -46 85.5t-86 33.5q-77 0 -121.5 -70t-44.5 -190q0 -117 43.5 -181.5t122.5 -64.5q55 0 92 36t57 121h-138v122h247v-387h-82l-13 90q-43 -61 -83.5 -85t-100.5 -24q-121 0 -195.5 103t-74.5 270z M175 914h54q16 -25 36.5 -37t58.5 -12t57 12t28 37h63q-33 -126 -153 -126q-113 0 -144 126z" />
<glyph unicode="&#x11f;" horiz-adv-x="501" d="M33 271q0 125 50 200t132 75q45 0 75.5 -22.5t52.5 -73.5v82h110v-504q0 -132 -53 -188.5t-160 -56.5q-176 0 -198 160h125q5 -28 22.5 -40.5t53.5 -12.5q50 0 72.5 28.5t22.5 92.5v69q-22 -46 -48 -64.5t-70 -18.5q-86 0 -136.5 73.5t-50.5 200.5zM112 748h54 q7 -38 26 -53.5t59 -15.5t58.5 15t26.5 54h53q-15 -146 -143 -146q-121 0 -134 146zM151 267q0 -71 24.5 -111.5t67.5 -40.5q46 0 71 40t25 112q0 70 -26.5 113.5t-69.5 43.5t-67.5 -42t-24.5 -115z" />
<glyph unicode="&#x120;" horiz-adv-x="638" d="M36 354q0 176 78 279.5t210 103.5q105 0 174 -63.5t85 -178.5h-124q-9 52 -46 85.5t-86 33.5q-77 0 -121.5 -70t-44.5 -190q0 -117 43.5 -181.5t122.5 -64.5q55 0 92 36t57 121h-138v122h247v-387h-82l-13 90q-43 -61 -83.5 -85t-100.5 -24q-121 0 -195.5 103t-74.5 270z M269 794v115h114v-115h-114z" />
<glyph unicode="&#x121;" horiz-adv-x="501" d="M33 271q0 125 50 200t132 75q45 0 75.5 -22.5t52.5 -73.5v82h110v-504q0 -132 -53 -188.5t-160 -56.5q-176 0 -198 160h125q5 -28 22.5 -40.5t53.5 -12.5q50 0 72.5 28.5t22.5 92.5v69q-22 -46 -48 -64.5t-70 -18.5q-86 0 -136.5 73.5t-50.5 200.5zM151 267 q0 -71 24.5 -111.5t67.5 -40.5q46 0 71 40t25 112q0 70 -26.5 113.5t-69.5 43.5t-67.5 -42t-24.5 -115zM195 618v115h114v-115h-114z" />
<glyph unicode="&#x122;" horiz-adv-x="638" d="M36 354q0 176 78 279.5t210 103.5q105 0 174 -63.5t85 -178.5h-124q-9 52 -46 85.5t-86 33.5q-77 0 -121.5 -70t-44.5 -190q0 -117 43.5 -181.5t122.5 -64.5q55 0 92 36t57 121h-138v122h247v-387h-82l-13 90q-43 -61 -83.5 -85t-100.5 -24q-121 0 -195.5 103t-74.5 270z M270 -60h108v-103q0 -64 -31 -103t-77 -41v46q30 6 46.5 28.5t16.5 54.5v6h-63v112z" />
<glyph unicode="&#x123;" horiz-adv-x="501" d="M33 271q0 125 50 200t132 75q45 0 75.5 -22.5t52.5 -73.5v82h110v-504q0 -132 -53 -188.5t-160 -56.5q-176 0 -198 160h125q5 -28 22.5 -40.5t53.5 -12.5q50 0 72.5 28.5t22.5 92.5v69q-22 -46 -48 -64.5t-70 -18.5q-86 0 -136.5 73.5t-50.5 200.5zM151 267 q0 -71 24.5 -111.5t67.5 -40.5q46 0 71 40t25 112q0 70 -26.5 113.5t-69.5 43.5t-67.5 -42t-24.5 -115zM198 581v103q0 64 31 103t77 41v-46q-30 -6 -46.5 -28.5t-16.5 -54.5v-6h63v-112h-108z" />
<glyph unicode="&#x124;" horiz-adv-x="592" d="M58 0v718h123v-272h230v272h123v-718h-123v323h-230v-323h-123zM141 788l103 126h103l103 -126h-93l-62 62l-61 -62h-93z" />
<glyph unicode="&#x125;" horiz-adv-x="501" d="M53 0v718h114v-259q35 87 131 87q68 0 109 -48.5t41 -129.5v-368h-114v323q0 55 -17.5 80t-56.5 25q-43 0 -68 -33t-25 -90v-305h-114zM96 788l103 126h103l103 -126h-93l-62 62l-61 -62h-93z" />
<glyph unicode="&#x126;" horiz-adv-x="592" d="M-3 539v71h61v108h123v-108h230v108h123v-108h61v-71h-61v-539h-123v323h-230v-323h-123v539h-61zM181 446h230v93h-230v-93z" />
<glyph unicode="&#x127;" horiz-adv-x="566" d="M57 494v76l57 21v127h114v-86l84 31v-76l-84 -30v-98q35 87 131 87q68 0 109 -48.5t41 -129.5v-368h-114v323q0 55 -17.5 80t-56.5 25q-43 0 -68 -33t-25 -90v-305h-114v515z" />
<glyph unicode="&#x128;" horiz-adv-x="228" d="M-36 788q20 123 99 123q6 0 55.5 -18t54.5 -18q29 0 39 40h53q-19 -120 -88 -120q-11 0 -62 18t-61 18q-29 0 -38 -43h-52zM52 0v718h123v-718h-123z" />
<glyph unicode="&#x129;" horiz-adv-x="228" d="M-37 612q21 123 99 123q6 0 55.5 -18t54.5 -18q29 0 39 40h53q-20 -120 -88 -120q-11 0 -62 18t-61 18q-29 0 -38 -43h-52zM57 0v532h114v-532h-114z" />
<glyph unicode="&#x12a;" horiz-adv-x="228" d="M-27 815v73h283v-73h-283zM52 0v718h123v-718h-123z" />
<glyph unicode="&#x12b;" horiz-adv-x="228" d="M-28 639v73h283v-73h-283zM57 0v532h114v-532h-114z" />
<glyph unicode="&#x12c;" horiz-adv-x="228" d="M-35 914h54q16 -25 36.5 -37t58.5 -12t57 12t28 37h63q-33 -126 -153 -126q-113 0 -144 126zM52 0v718h123v-718h-123z" />
<glyph unicode="&#x12d;" horiz-adv-x="228" d="M-25 748h54q7 -38 26 -53.5t59 -15.5t58.5 15t26.5 54h53q-15 -146 -143 -146q-121 0 -134 146zM57 0v532h114v-532h-114z" />
<glyph unicode="&#x12e;" horiz-adv-x="228" d="M-6 -146q0 73 90 146h-32v718h123v-718q-37 -22 -64 -57q-21 -29 -21 -52t19 -36.5t46 -13.5h40v-91h-40q-69 0 -115 24t-46 80z" />
<glyph unicode="&#x12f;" horiz-adv-x="228" d="M0 -146q0 73 90 146h-33v532h114v-532q-30 -26 -54 -57q-21 -29 -21 -52t19 -36.5t46 -13.5h40v-91h-40q-69 0 -115 24t-46 80zM58 618v115h114v-115h-114z" />
<glyph unicode="&#x130;" horiz-adv-x="228" d="M52 0v718h123v-718h-123zM59 794v115h114v-115h-114z" />
<glyph unicode="&#x131;" horiz-adv-x="228" d="M57 0v532h114v-532h-114z" />
<glyph unicode="&#x134;" d="M18 271h115q0 -102 14 -134.5t58 -32.5q38 0 53.5 23t15.5 81v510h123v-510q0 -226 -190 -226q-120 0 -162 88q-16 31 -21.5 73.5t-5.5 127.5zM181 788l103 126h103l103 -126h-93l-62 62l-61 -62h-93z" />
<glyph unicode="&#x135;" horiz-adv-x="228" d="M-31 602l93 146h103l93 -146h-93l-52 82l-51 -82h-93zM2 -102h21q34 0 34 49v585h114v-588q0 -89 -30 -123.5t-109 -34.5h-30v112z" />
<glyph unicode="&#x136;" horiz-adv-x="592" d="M71 0v718h123v-292l225 292h159l-240 -294l254 -424h-158l-183 315l-57 -72v-243h-123zM241 -60h108v-103q0 -64 -31 -103t-77 -41v46q30 6 46.5 28.5t16.5 54.5v6h-63v112z" />
<glyph unicode="&#x137;" d="M57 0v718h114v-388l144 202h141l-154 -206l159 -326h-138l-104 228l-48 -60v-168h-114zM193 -60h108v-103q0 -64 -31 -103t-77 -41v46q30 6 46.5 28.5t16.5 54.5v6h-63v112z" />
<glyph unicode="&#x139;" horiz-adv-x="501" d="M62 0v718h123v-588h293v-130h-416zM63 788l72 126h131l-125 -126h-78z" />
<glyph unicode="&#x13a;" horiz-adv-x="228" d="M57 0v718h114v-718h-114zM58 788l72 126h131l-125 -126h-78z" />
<glyph unicode="&#x13b;" horiz-adv-x="501" d="M62 0v718h123v-588h293v-130h-416zM216 -60h108v-103q0 -64 -31 -103t-77 -41v46q30 6 46.5 28.5t16.5 54.5v6h-63v112z" />
<glyph unicode="&#x13c;" horiz-adv-x="228" d="M57 0v718h114v-718h-114zM60 -60h108v-103q0 -64 -31 -103t-77 -41v46q30 6 46.5 28.5t16.5 54.5v6h-63v112z" />
<glyph unicode="&#x13d;" horiz-adv-x="501" d="M62 0v718h123v-588h293v-130h-416zM242 471v46q30 6 46.5 28.5t16.5 54.5v6h-63v112h108v-103q0 -64 -31 -103t-77 -41z" />
<glyph unicode="&#x13e;" horiz-adv-x="228" d="M57 0v718h114v-718h-114zM228 471v46q30 6 46.5 28.5t16.5 54.5v6h-63v112h108v-103q0 -64 -31 -103t-77 -41z" />
<glyph unicode="&#x13f;" horiz-adv-x="501" d="M62 0v718h123v-588h293v-130h-416zM317 321v115h114v-115h-114z" />
<glyph unicode="&#x140;" horiz-adv-x="342" d="M57 0v718h114v-718h-114zM228 321v115h114v-115h-114z" />
<glyph unicode="&#x141;" horiz-adv-x="618" d="M55 169v107l94 69v373h123v-292l130 95v-106l-130 -96v-189h293v-130h-416v238z" />
<glyph unicode="&#x142;" horiz-adv-x="402" d="M36 309v100l108 65v244h114v-186l108 65v-100l-108 -65v-432h-114v374z" />
<glyph unicode="&#x143;" horiz-adv-x="592" d="M57 0v718h129l236 -504v504h114v-718h-122l-243 515v-515h-114zM258 788l72 126h131l-125 -126h-78z" />
<glyph unicode="&#x144;" horiz-adv-x="501" d="M53 0v532h110v-81q45 95 134 95q69 0 110 -48t41 -130v-368h-114v323q0 55 -17.5 80t-56.5 25q-43 0 -68 -33t-25 -90v-305h-114zM209 602l77 146h126l-120 -146h-83z" />
<glyph unicode="&#x145;" horiz-adv-x="592" d="M57 0v718h129l236 -504v504h114v-718h-122l-243 515v-515h-114zM243 -60h108v-103q0 -64 -31 -103t-77 -41v46q30 6 46.5 28.5t16.5 54.5v6h-63v112z" />
<glyph unicode="&#x146;" horiz-adv-x="501" d="M53 0v532h110v-81q45 95 134 95q69 0 110 -48t41 -130v-368h-114v323q0 55 -17.5 80t-56.5 25q-43 0 -68 -33t-25 -90v-305h-114zM197 -60h108v-103q0 -64 -31 -103t-77 -41v46q30 6 46.5 28.5t16.5 54.5v6h-63v112z" />
<glyph unicode="&#x147;" horiz-adv-x="592" d="M57 0v718h129l236 -504v504h114v-718h-122l-243 515v-515h-114zM143 914h93l62 -62l61 62h93l-103 -126h-103z" />
<glyph unicode="&#x148;" horiz-adv-x="501" d="M53 0v532h110v-81q45 95 134 95q69 0 110 -48t41 -130v-368h-114v323q0 55 -17.5 80t-56.5 25q-43 0 -68 -33t-25 -90v-305h-114zM106 748h93l52 -82l51 82h93l-93 -146h-103z" />
<glyph unicode="&#x14a;" horiz-adv-x="592" d="M57 0v718h129l236 -504v504h114v-741q0 -226 -190 -226q-169 0 -186 183h118q7 -35 21.5 -48t44.5 -13q32 0 55 20t23 50v40l-251 532v-515h-114z" />
<glyph unicode="&#x14b;" horiz-adv-x="501" d="M53 0v532h110v-81q45 95 134 95q69 0 110 -48t41 -130v-424q0 -89 -30 -123.5t-109 -34.5h-30v112h21q34 0 34 49v376q0 55 -17.5 80t-56.5 25q-43 0 -68 -33t-25 -90v-305h-114z" />
<glyph unicode="&#x14c;" horiz-adv-x="638" d="M36 358q0 179 77.5 279t209.5 100q125 0 202 -101t77 -277q0 -177 -77 -277.5t-206 -100.5q-130 0 -206.5 101t-76.5 276zM159 361q0 -119 42.5 -186t117.5 -67t117.5 67.5t42.5 186.5q0 113 -43 180.5t-115 67.5q-76 0 -119 -66.5t-43 -182.5zM182 815v73h283v-73h-283z " />
<glyph unicode="&#x14d;" horiz-adv-x="501" d="M28 265q0 129 61 205t165 76q100 0 160 -77t60 -204t-61 -203t-162 -76t-162 76t-61 203zM109 639v73h283v-73h-283zM146 266q0 -79 27 -120.5t78 -41.5t78 41.5t27 120.5q0 78 -27 120t-77 42q-106 0 -106 -162z" />
<glyph unicode="&#x14e;" horiz-adv-x="638" d="M36 358q0 179 77.5 279t209.5 100q125 0 202 -101t77 -277q0 -177 -77 -277.5t-206 -100.5q-130 0 -206.5 101t-76.5 276zM159 361q0 -119 42.5 -186t117.5 -67t117.5 67.5t42.5 186.5q0 113 -43 180.5t-115 67.5q-76 0 -119 -66.5t-43 -182.5zM174 914h54 q16 -25 36.5 -37t58.5 -12t57 12t28 37h63q-33 -126 -153 -126q-113 0 -144 126z" />
<glyph unicode="&#x14f;" horiz-adv-x="501" d="M28 265q0 129 61 205t165 76q100 0 160 -77t60 -204t-61 -203t-162 -76t-162 76t-61 203zM112 748h54q7 -38 26 -53.5t59 -15.5t58.5 15t26.5 54h53q-15 -146 -143 -146q-121 0 -134 146zM146 266q0 -79 27 -120.5t78 -41.5t78 41.5t27 120.5q0 78 -27 120t-77 42 q-106 0 -106 -162z" />
<glyph unicode="&#x150;" horiz-adv-x="638" d="M36 358q0 179 77.5 279t209.5 100q125 0 202 -101t77 -277q0 -177 -77 -277.5t-206 -100.5q-130 0 -206.5 101t-76.5 276zM159 361q0 -119 42.5 -186t117.5 -67t117.5 67.5t42.5 186.5q0 113 -43 180.5t-115 67.5q-76 0 -119 -66.5t-43 -182.5zM193 788l77 146h127 l-121 -146h-83zM361 788l77 146h127l-121 -146h-83z" />
<glyph unicode="&#x151;" horiz-adv-x="501" d="M28 265q0 129 61 205t165 76q100 0 160 -77t60 -204t-61 -203t-162 -76t-162 76t-61 203zM121 602l77 146h127l-121 -146h-83zM146 266q0 -79 27 -120.5t78 -41.5t78 41.5t27 120.5q0 78 -27 120t-77 42q-106 0 -106 -162zM289 602l77 146h127l-121 -146h-83z" />
<glyph unicode="&#x152;" horiz-adv-x="820" d="M30 355q0 177 65.5 279.5t179.5 102.5q77 0 127 -61v42h386v-127h-274v-151h255v-127h-255v-186h274v-127h-386v50q-29 -39 -56 -54t-70 -15q-113 0 -179.5 101t-66.5 273zM150 357q0 -115 38 -184t101 -69q43 0 74 27.5t31 64.5v325q0 41 -28.5 67t-73.5 26 q-67 0 -104.5 -68.5t-37.5 -188.5z" />
<glyph unicode="&#x153;" horiz-adv-x="774" d="M28 267q0 125 60.5 202t159.5 77q91 0 153 -80q37 46 67.5 63t76.5 17q97 0 150 -77t53 -217v-25h-299q5 -67 29 -97.5t71 -30.5q59 0 76 58h118q-49 -171 -196 -171q-51 0 -86 17t-67 57q-54 -74 -143 -74q-101 0 -162 76.5t-61 204.5zM146 265q0 -78 27 -119.5 t78 -41.5t78 41.5t27 120.5q0 78 -27 120t-77 42q-106 0 -106 -163zM452 319h178q-13 112 -90 112q-38 0 -59 -27t-29 -85z" />
<glyph unicode="&#x154;" horiz-adv-x="592" d="M62 0v718h297q85 0 135.5 -55.5t50.5 -148.5q0 -127 -91 -170q48 -26 61.5 -65t13.5 -151q0 -61 4.5 -81t21.5 -28v-19h-136q-14 64 -14 144q0 65 -10 94t-27 35.5t-59 6.5h-127v-280h-120zM182 402h145q49 0 72 23.5t23 72.5q0 47 -22.5 72t-63.5 25h-154v-193zM240 788 l72 126h131l-125 -126h-78z" />
<glyph unicode="&#x155;" horiz-adv-x="319" d="M52 0v532h110v-95q26 61 52.5 85t68.5 24q10 0 23 -2v-142q-16 2 -29 2q-111 0 -111 -127v-277h-114zM124 602l77 146h126l-120 -146h-83z" />
<glyph unicode="&#x156;" horiz-adv-x="592" d="M62 0v718h297q85 0 135.5 -55.5t50.5 -148.5q0 -127 -91 -170q48 -26 61.5 -65t13.5 -151q0 -61 4.5 -81t21.5 -28v-19h-136q-14 64 -14 144q0 65 -10 94t-27 35.5t-59 6.5h-127v-280h-120zM182 402h145q49 0 72 23.5t23 72.5q0 47 -22.5 72t-63.5 25h-154v-193zM225 -60 h108v-103q0 -64 -31 -103t-77 -41v46q30 6 46.5 28.5t16.5 54.5v6h-63v112z" />
<glyph unicode="&#x157;" horiz-adv-x="319" d="M52 0v532h110v-95q26 61 52.5 85t68.5 24q10 0 23 -2v-142q-16 2 -29 2q-111 0 -111 -127v-277h-114zM55 -60h108v-103q0 -64 -31 -103t-77 -41v46q30 6 46.5 28.5t16.5 54.5v6h-63v112z" />
<glyph unicode="&#x158;" horiz-adv-x="592" d="M62 0v718h297q85 0 135.5 -55.5t50.5 -148.5q0 -127 -91 -170q48 -26 61.5 -65t13.5 -151q0 -61 4.5 -81t21.5 -28v-19h-136q-14 64 -14 144q0 65 -10 94t-27 35.5t-59 6.5h-127v-280h-120zM125 914h93l62 -62l61 62h93l-103 -126h-103zM182 402h145q49 0 72 23.5 t23 72.5q0 47 -22.5 72t-63.5 25h-154v-193z" />
<glyph unicode="&#x159;" horiz-adv-x="319" d="M21 748h93l52 -82l51 82h93l-93 -146h-103zM52 0v532h110v-95q26 61 52.5 85t68.5 24q10 0 23 -2v-142q-16 2 -29 2q-111 0 -111 -127v-277h-114z" />
<glyph unicode="&#x15a;" horiz-adv-x="547" d="M32 221h118q7 -117 128 -117q57 0 88.5 24t31.5 68q0 35 -22.5 54t-84.5 37l-63 18q-114 32 -150.5 76t-36.5 131q0 105 59.5 165t164.5 60q106 0 165.5 -59.5t66.5 -172.5h-118q-7 57 -35 83t-83 26q-49 0 -77 -23.5t-28 -63.5q0 -31 14 -48t48 -27l144 -43 q82 -25 118 -70t36 -125q0 -108 -64 -170.5t-175 -62.5q-114 0 -177.5 61t-67.5 179zM232 788l72 126h131l-125 -126h-78z" />
<glyph unicode="&#x15b;" d="M25 170h118q3 -77 93 -77q35 0 55 15t20 40q0 40 -95 59q-91 17 -133 56t-42 106q0 82 48.5 129.5t132.5 47.5q87 0 133 -40t58 -136h-113q-6 39 -23 54t-55 15q-69 0 -69 -50q0 -41 94 -58q94 -18 136.5 -59t42.5 -106q0 -84 -52 -132t-142 -48q-190 0 -207 184z M186 602l77 146h126l-120 -146h-83z" />
<glyph unicode="&#x15c;" horiz-adv-x="547" d="M32 221h118q7 -117 128 -117q57 0 88.5 24t31.5 68q0 35 -22.5 54t-84.5 37l-63 18q-114 32 -150.5 76t-36.5 131q0 105 59.5 165t164.5 60q106 0 165.5 -59.5t66.5 -172.5h-118q-7 57 -35 83t-83 26q-49 0 -77 -23.5t-28 -63.5q0 -31 14 -48t48 -27l144 -43 q82 -25 118 -70t36 -125q0 -108 -64 -170.5t-175 -62.5q-114 0 -177.5 61t-67.5 179zM116 788l103 126h103l103 -126h-93l-62 62l-61 -62h-93z" />
<glyph unicode="&#x15d;" d="M25 170h118q3 -77 93 -77q35 0 55 15t20 40q0 40 -95 59q-91 17 -133 56t-42 106q0 82 48.5 129.5t132.5 47.5q87 0 133 -40t58 -136h-113q-6 39 -23 54t-55 15q-69 0 -69 -50q0 -41 94 -58q94 -18 136.5 -59t42.5 -106q0 -84 -52 -132t-142 -48q-190 0 -207 184zM83 602 l93 146h103l93 -146h-93l-52 82l-51 -82h-93z" />
<glyph unicode="&#x15e;" horiz-adv-x="547" d="M32 221h118q7 -117 128 -117q57 0 88.5 24t31.5 68q0 35 -22.5 54t-84.5 37l-63 18q-114 32 -150.5 76t-36.5 131q0 105 59.5 165t164.5 60q106 0 165.5 -59.5t66.5 -172.5h-118q-7 57 -35 83t-83 26q-49 0 -77 -23.5t-28 -63.5q0 -31 14 -48t48 -27l144 -43 q82 -25 118 -70t36 -125q0 -103 -58.5 -165t-160.5 -67l-18 -39h20q32 0 52 -22t20 -56q0 -45 -29 -75t-75 -30q-36 0 -92 25l18 48q45 -16 62 -16q19 0 29 13.5t10 31.5q0 15 -9.5 25.5t-22.5 10.5q-10 0 -32 -8l-17 20l35 72q-100 8 -156 68.5t-60 170.5z" />
<glyph unicode="&#x15f;" d="M25 170h118q3 -77 93 -77q35 0 55 15t20 40q0 40 -95 59q-91 17 -133 56t-42 106q0 82 48.5 129.5t132.5 47.5q87 0 133 -40t58 -136h-113q-6 39 -23 54t-55 15q-69 0 -69 -50q0 -41 94 -58q94 -18 136.5 -59t42.5 -106q0 -80 -47 -127.5t-130 -52.5l-20 -43h20 q32 0 52 -22t20 -56q0 -45 -29 -75t-75 -30q-36 0 -92 25l18 48q45 -16 62 -16q19 0 29 13.5t10 31.5q0 15 -9.5 25.5t-22.5 10.5q-10 0 -32 -8l-17 20l38 77q-160 15 -176 183z" />
<glyph unicode="&#x160;" horiz-adv-x="547" d="M32 221h118q7 -117 128 -117q57 0 88.5 24t31.5 68q0 35 -22.5 54t-84.5 37l-63 18q-114 32 -150.5 76t-36.5 131q0 105 59.5 165t164.5 60q106 0 165.5 -59.5t66.5 -172.5h-118q-7 57 -35 83t-83 26q-49 0 -77 -23.5t-28 -63.5q0 -31 14 -48t48 -27l144 -43 q82 -25 118 -70t36 -125q0 -108 -64 -170.5t-175 -62.5q-114 0 -177.5 61t-67.5 179zM117 914h93l62 -62l61 62h93l-103 -126h-103z" />
<glyph unicode="&#x161;" d="M25 170h118q3 -77 93 -77q35 0 55 15t20 40q0 40 -95 59q-91 17 -133 56t-42 106q0 82 48.5 129.5t132.5 47.5q87 0 133 -40t58 -136h-113q-6 39 -23 54t-55 15q-69 0 -69 -50q0 -41 94 -58q94 -18 136.5 -59t42.5 -106q0 -84 -52 -132t-142 -48q-190 0 -207 184zM83 748 h93l52 -82l51 82h93l-93 -146h-103z" />
<glyph unicode="&#x162;" horiz-adv-x="501" d="M11 591v127h479v-127h-178v-591h-37l-26 -57h20q32 0 52 -22t20 -56q0 -45 -29 -75t-75 -30q-36 0 -92 25l18 48q45 -16 62 -16q19 0 29 13.5t10 31.5q0 15 -9.5 25.5t-22.5 10.5q-10 0 -32 -8l-17 20l44 90h-38v591h-178z" />
<glyph unicode="&#x163;" horiz-adv-x="273" d="M8 432v100h59v144h114v-144h72v-100h-72v-289q0 -28 8.5 -35.5t38.5 -7.5q12 0 25 2v-106q-39 -2 -55 -2h-26l-23 -51h20q32 0 52 -22t20 -56q0 -45 -29 -75t-75 -30q-36 0 -92 25l18 48q45 -16 62 -16q19 0 29 13.5t10 31.5q0 15 -9.5 25.5t-22.5 10.5q-10 0 -32 -8 l-17 20l44 91q-60 18 -60 108v323h-59z" />
<glyph unicode="&#x164;" horiz-adv-x="501" d="M11 591v127h479v-127h-178v-591h-123v591h-178zM97 914h93l62 -62l61 62h93l-103 -126h-103z" />
<glyph unicode="&#x165;" horiz-adv-x="273" d="M8 432v100h59v144h114v-144h72v-100h-72v-289q0 -28 8.5 -35.5t38.5 -7.5q12 0 25 2v-106q-39 -2 -55 -2h-15q-63 0 -89.5 26t-26.5 89v323h-59zM210 561v46q30 6 46.5 28.5t16.5 54.5v6h-63v112h108v-103q0 -64 -31 -103t-77 -41z" />
<glyph unicode="&#x168;" horiz-adv-x="592" d="M59 242v476h125v-466q0 -69 29 -106.5t82 -37.5q56 0 85 35t29 102v473h125v-467q0 -132 -61 -201t-178 -69q-113 0 -174.5 68.5t-61.5 192.5zM147 788q21 123 99 123q6 0 55.5 -18t54.5 -18q29 0 39 40h53q-20 -120 -88 -120q-11 0 -62 18t-61 18q-29 0 -38 -43h-52z " />
<glyph unicode="&#x169;" horiz-adv-x="501" d="M54 182v350h114v-330q0 -98 74 -98q43 0 67 32.5t24 88.5v307h114v-532h-110v78q-44 -92 -136 -92q-70 0 -108.5 51t-38.5 145zM100 612q20 123 99 123q6 0 55.5 -18t54.5 -18q29 0 39 40h53q-20 -120 -88 -120q-11 0 -62 18t-61 18q-29 0 -38 -43h-52z" />
<glyph unicode="&#x16a;" horiz-adv-x="592" d="M59 242v476h125v-466q0 -69 29 -106.5t82 -37.5q56 0 85 35t29 102v473h125v-467q0 -132 -61 -201t-178 -69q-113 0 -174.5 68.5t-61.5 192.5zM156 815v73h283v-73h-283z" />
<glyph unicode="&#x16b;" horiz-adv-x="501" d="M54 182v350h114v-330q0 -98 74 -98q43 0 67 32.5t24 88.5v307h114v-532h-110v78q-44 -92 -136 -92q-70 0 -108.5 51t-38.5 145zM109 639v73h283v-73h-283z" />
<glyph unicode="&#x16c;" horiz-adv-x="592" d="M59 242v476h125v-466q0 -69 29 -106.5t82 -37.5q56 0 85 35t29 102v473h125v-467q0 -132 -61 -201t-178 -69q-113 0 -174.5 68.5t-61.5 192.5zM148 914h54q16 -25 36.5 -37t58.5 -12t57 12t28 37h63q-33 -126 -153 -126q-113 0 -144 126z" />
<glyph unicode="&#x16d;" horiz-adv-x="501" d="M54 182v350h114v-330q0 -98 74 -98q43 0 67 32.5t24 88.5v307h114v-532h-110v78q-44 -92 -136 -92q-70 0 -108.5 51t-38.5 145zM112 748h54q7 -38 26 -53.5t59 -15.5t58.5 15t26.5 54h53q-15 -146 -143 -146q-121 0 -134 146z" />
<glyph unicode="&#x16e;" horiz-adv-x="592" d="M59 242v476h125v-466q0 -69 29 -106.5t82 -37.5q56 0 85 35t29 102v473h125v-467q0 -132 -61 -201t-178 -69q-113 0 -174.5 68.5t-61.5 192.5zM194 872q0 35 31.5 61t72.5 26t72.5 -26.5t31.5 -62.5q0 -35 -31 -61.5t-73 -26.5t-73 26.5t-31 63.5zM246 871 q0 -18 15 -30.5t37 -12.5t37 12.5t15 29.5q0 18 -15 30.5t-37 12.5q-21 0 -36.5 -12.5t-15.5 -29.5z" />
<glyph unicode="&#x16f;" horiz-adv-x="501" d="M54 182v350h114v-330q0 -98 74 -98q43 0 67 32.5t24 88.5v307h114v-532h-110v78q-44 -92 -136 -92q-70 0 -108.5 51t-38.5 145zM147 677q0 35 31.5 61t72.5 26t72.5 -26.5t31.5 -62.5q0 -35 -31 -61.5t-73 -26.5t-73 26.5t-31 63.5zM199 676q0 -18 15 -30.5t37 -12.5 t37 12.5t15 29.5q0 18 -15 30.5t-37 12.5q-21 0 -36.5 -12.5t-15.5 -29.5z" />
<glyph unicode="&#x170;" horiz-adv-x="592" d="M59 242v476h125v-466q0 -69 29 -106.5t82 -37.5q56 0 85 35t29 102v473h125v-467q0 -132 -61 -201t-178 -69q-113 0 -174.5 68.5t-61.5 192.5zM167 788l77 146h127l-121 -146h-83zM335 788l77 146h127l-121 -146h-83z" />
<glyph unicode="&#x171;" horiz-adv-x="501" d="M54 182v350h114v-330q0 -98 74 -98q43 0 67 32.5t24 88.5v307h114v-532h-110v78q-44 -92 -136 -92q-70 0 -108.5 51t-38.5 145zM121 602l77 146h127l-121 -146h-83zM289 602l77 146h127l-121 -146h-83z" />
<glyph unicode="&#x172;" horiz-adv-x="592" d="M59 242v476h125v-466q0 -69 29 -106.5t82 -37.5q56 0 85 35t29 102v473h125v-467q0 -185 -119 -245q-88 -43 -88 -115q0 -23 19 -36.5t46 -13.5h40v-91h-40q-69 0 -115 24t-46 80q0 66 68 127h-4q-113 0 -174.5 68.5t-61.5 192.5z" />
<glyph unicode="&#x173;" horiz-adv-x="501" d="M54 182v350h114v-330q0 -98 74 -98q43 0 67 32.5t24 88.5v307h114v-532q-45 -19 -74 -57q-21 -29 -21 -52t19 -36.5t46 -13.5h40v-91h-40q-69 0 -115 24t-46 80q0 73 90 146h-9v78q-44 -92 -136 -92q-70 0 -108.5 51t-38.5 145z" />
<glyph unicode="&#x174;" horiz-adv-x="774" d="M13 718h131q80 -418 95 -531l82 531h131l88 -531l97 531h125l-166 -718h-118l-92 565l-67 -423l-25 -142h-114zM232 788l103 126h103l103 -126h-93l-62 62l-61 -62h-93z" />
<glyph unicode="&#x175;" horiz-adv-x="638" d="M8 532h122l69 -387l63 387h115l67 -387l69 387h118l-126 -532h-118l-69 393l-69 -393h-118zM174 602l93 146h103l93 -146h-93l-52 82l-51 -82h-93z" />
<glyph unicode="&#x176;" horiz-adv-x="547" d="M12 718h145l122 -312l117 312h139l-197 -449v-269h-123v271zM122 788l103 126h103l103 -126h-93l-62 62l-61 -62h-93z" />
<glyph unicode="&#x177;" d="M8 532h128l94 -396l90 396h122l-150 -523q-44 -154 -68 -186q-27 -37 -98 -37l-55 2v112q16 -2 24 -2q37 0 51.5 15.5t22.5 64.5zM83 602l93 146h103l93 -146h-93l-52 82l-51 -82h-93z" />
<glyph unicode="&#x178;" horiz-adv-x="547" d="M12 718h145l122 -312l117 312h139l-197 -449v-269h-123v271zM147 794v115h96v-115h-96zM312 794v115h96v-115h-96z" />
<glyph unicode="&#x179;" horiz-adv-x="501" d="M20 0v127l305 464h-297v127h451v-118l-309 -473h311v-127h-461zM215 788l72 126h131l-125 -126h-78z" />
<glyph unicode="&#x17a;" horiz-adv-x="410" d="M16 0v109l225 311h-209v112h354v-115l-221 -302h229v-115h-378zM163 602l77 146h126l-120 -146h-83z" />
<glyph unicode="&#x17b;" horiz-adv-x="501" d="M20 0v127l305 464h-297v127h451v-118l-309 -473h311v-127h-461zM199 794v115h114v-115h-114z" />
<glyph unicode="&#x17c;" horiz-adv-x="410" d="M16 0v109l225 311h-209v112h354v-115l-221 -302h229v-115h-378zM149 618v115h114v-115h-114z" />
<glyph unicode="&#x17d;" horiz-adv-x="501" d="M20 0v127l305 464h-297v127h451v-118l-309 -473h311v-127h-461zM100 914h93l62 -62l61 62h93l-103 -126h-103z" />
<glyph unicode="&#x17e;" horiz-adv-x="410" d="M16 0v109l225 311h-209v112h354v-115l-221 -302h229v-115h-378zM60 748h93l52 -82l51 82h93l-93 -146h-103z" />
<glyph unicode="&#x17f;" horiz-adv-x="273" d="M71 0v575q0 79 32.5 115.5t101.5 36.5q28 0 54 -2v-113h-33q-27 0 -34 -10.5t-7 -48.5v-553h-114z" />
<glyph unicode="&#x18e;" horiz-adv-x="547" d="M62 0v127h327v186h-288v127h288v151h-313v127h433v-718h-447z" />
<glyph unicode="&#x192;" d="M-8 -189l20 111q24 -17 42 -17q28 0 39.5 26t24.5 115l47 334h-100v97h112l16 87q17 90 51 131.5t93 41.5q35 0 86 -19l-20 -108q-26 15 -46 15q-21 0 -35.5 -16t-18.5 -44l-12 -88h98v-97h-110l-48 -359q-16 -118 -54 -174.5t-103 -56.5q-28 0 -82 21z" />
<glyph unicode="&#x1a0;" horiz-adv-x="638" d="M36 358q0 179 77.5 279t209.5 100q128 0 204 -104q19 34 19 86h-57v115h114v-115q0 -86 -44 -141q43 -89 43 -219q0 -177 -77 -277.5t-206 -100.5q-130 0 -206.5 101t-76.5 276zM159 361q0 -119 42.5 -186t117.5 -67t117.5 67.5t42.5 186.5q0 113 -43 180.5t-115 67.5 q-76 0 -119 -66.5t-43 -182.5z" />
<glyph unicode="&#x1a1;" horiz-adv-x="512" d="M28 265q0 129 61 205t165 76q109 0 168 -89q14 31 14 76h-57v115h114v-115q0 -82 -40 -136q21 -57 21 -132q0 -127 -61 -203t-162 -76t-162 76t-61 203zM146 266q0 -79 27 -120.5t78 -41.5t78 41.5t27 120.5q0 78 -27 120t-77 42q-106 0 -106 -162z" />
<glyph unicode="&#x1af;" horiz-adv-x="686" d="M59 242v476h125v-466q0 -69 29 -106.5t82 -37.5q56 0 85 35t29 102v473h125v-123q38 0 57 36.5t19 87.5h-57v115h114v-115q0 -75 -36 -130.5t-97 -55.5v-282q0 -132 -61 -201t-178 -69q-113 0 -174.5 68.5t-61.5 192.5z" />
<glyph unicode="&#x1b0;" horiz-adv-x="599" d="M54 182v350h114v-330q0 -98 74 -98q43 0 67 32.5t24 88.5v307h114v-123q38 0 57 36.5t19 87.5h-57v115h114v-115q0 -75 -36 -130.5t-97 -55.5v-347h-110v78q-44 -92 -136 -92q-70 0 -108.5 51t-38.5 145z" />
<glyph unicode="&#x1dd;" d="M19 280v25h299q-5 67 -29 97.5t-71 30.5q-59 0 -76 -58h-118q49 171 196 171q102 0 157.5 -73.5t55.5 -208.5q0 -130 -55 -204t-152 -74q-100 0 -153.5 76t-53.5 218zM137 213q12 -112 90 -112q38 0 59 27t29 85h-178z" />
<glyph unicode="&#x1e6;" horiz-adv-x="638" d="M36 354q0 176 78 279.5t210 103.5q105 0 174 -63.5t85 -178.5h-124q-9 52 -46 85.5t-86 33.5q-77 0 -121.5 -70t-44.5 -190q0 -117 43.5 -181.5t122.5 -64.5q55 0 92 36t57 121h-138v122h247v-387h-82l-13 90q-43 -61 -83.5 -85t-100.5 -24q-121 0 -195.5 103t-74.5 270z M170 914h93l62 -62l61 62h93l-103 -126h-103z" />
<glyph unicode="&#x1e7;" horiz-adv-x="501" d="M33 271q0 125 50 200t132 75q45 0 75.5 -22.5t52.5 -73.5v82h110v-504q0 -132 -53 -188.5t-160 -56.5q-176 0 -198 160h125q5 -28 22.5 -40.5t53.5 -12.5q50 0 72.5 28.5t22.5 92.5v69q-22 -46 -48 -64.5t-70 -18.5q-86 0 -136.5 73.5t-50.5 200.5zM106 748h93l52 -82 l51 82h93l-93 -146h-103zM151 267q0 -71 24.5 -111.5t67.5 -40.5q46 0 71 40t25 112q0 70 -26.5 113.5t-69.5 43.5t-67.5 -42t-24.5 -115z" />
<glyph unicode="&#x1ea;" horiz-adv-x="638" d="M36 358q0 179 77.5 279t209.5 100q125 0 202 -101t77 -277q0 -118 -35.5 -203.5t-100.5 -130.5q-27 -19 -40 -29.5t-32.5 -29t-28.5 -37t-9 -38.5q0 -23 19 -36.5t46 -13.5h40v-91h-40q-69 0 -115 24t-46 80q0 66 68 127h-9q-130 0 -206.5 101t-76.5 276zM159 361 q0 -119 42.5 -186t117.5 -67t117.5 67.5t42.5 186.5q0 113 -43 180.5t-115 67.5q-76 0 -119 -66.5t-43 -182.5z" />
<glyph unicode="&#x1eb;" horiz-adv-x="501" d="M28 265q0 129 61 205t165 76q100 0 160 -77t60 -204q0 -84 -28 -147.5t-78 -97.5q-92 -63 -92 -129q0 -23 19 -36.5t46 -13.5h40v-91h-40q-69 0 -115 24t-46 80q0 66 74 132h-3q-101 0 -162 76t-61 203zM146 266q0 -79 27 -120.5t78 -41.5t78 41.5t27 120.5q0 78 -27 120 t-77 42q-106 0 -106 -162z" />
<glyph unicode="&#x1f4;" horiz-adv-x="638" d="M36 354q0 176 78 279.5t210 103.5q105 0 174 -63.5t85 -178.5h-124q-9 52 -46 85.5t-86 33.5q-77 0 -121.5 -70t-44.5 -190q0 -117 43.5 -181.5t122.5 -64.5q55 0 92 36t57 121h-138v122h247v-387h-82l-13 90q-43 -61 -83.5 -85t-100.5 -24q-121 0 -195.5 103t-74.5 270z M285 788l72 126h131l-125 -126h-78z" />
<glyph unicode="&#x1f5;" horiz-adv-x="501" d="M33 271q0 125 50 200t132 75q45 0 75.5 -22.5t52.5 -73.5v82h110v-504q0 -132 -53 -188.5t-160 -56.5q-176 0 -198 160h125q5 -28 22.5 -40.5t53.5 -12.5q50 0 72.5 28.5t22.5 92.5v69q-22 -46 -48 -64.5t-70 -18.5q-86 0 -136.5 73.5t-50.5 200.5zM151 267 q0 -71 24.5 -111.5t67.5 -40.5q46 0 71 40t25 112q0 70 -26.5 113.5t-69.5 43.5t-67.5 -42t-24.5 -115zM209 602l77 146h126l-120 -146h-83z" />
<glyph unicode="&#x1fa;" horiz-adv-x="592" d="M16 0l210 718h142l208 -718h-134l-38 148h-217l-41 -148h-130zM194 872q0 35 31.5 61t72.5 26t72.5 -26.5t31.5 -62.5q0 -35 -31 -61.5t-73 -26.5t-73 26.5t-31 63.5zM220 271h150l-74 288zM246 871q0 -18 15 -30.5t37 -12.5t37 12.5t15 29.5q0 18 -15 30.5t-37 12.5 q-21 0 -36.5 -12.5t-15.5 -29.5zM258 979l72 126h131l-125 -126h-78z" />
<glyph unicode="&#x1fb;" d="M24 142q0 70 33.5 114t94.5 55l103 19q40 7 40 44q0 60 -71 60q-37 0 -54 -16.5t-22 -57.5h-110q10 101 55 143.5t136 42.5q85 0 131.5 -40.5t46.5 -113.5v-288q0 -70 25 -83v-21h-123q-7 27 -11 63q-34 -43 -65 -60t-73 -17q-63 0 -99.5 42t-36.5 114zM126 686 q0 35 31.5 61t72.5 26t72.5 -26.5t31.5 -62.5q0 -35 -31 -61.5t-73 -26.5t-73 26.5t-31 63.5zM139 151q0 -30 15 -47.5t40 -17.5q42 0 71.5 30.5t29.5 74.5v68q-19 -17 -78 -29q-43 -9 -60.5 -27t-17.5 -52zM178 685q0 -18 15 -30.5t37 -12.5t37 12.5t15 29.5q0 18 -15 30.5 t-37 12.5q-21 0 -36.5 -12.5t-15.5 -29.5zM190 793l72 126h131l-125 -126h-78z" />
<glyph unicode="&#x1fc;" horiz-adv-x="820" d="M4 0l215 718h557v-127h-304v-151h274v-127h-274v-186h310v-127h-430v153h-176l-43 -153h-129zM208 271h144v320h-53zM373 788l72 126h131l-125 -126h-78z" />
<glyph unicode="&#x1fd;" horiz-adv-x="729" d="M24 147q0 62 29.5 102.5t81.5 51.5l107 22q38 7 48.5 16t10.5 35q0 31 -18 45.5t-58 14.5q-37 0 -54 -18t-19 -57h-112q9 97 56 142t135 45q82 0 140 -59q34 33 63.5 46t68.5 13q95 0 148 -77.5t53 -216.5v-25h-299q5 -67 29 -97.5t71 -30.5q59 0 76 58h118 q-49 -171 -198 -171q-57 0 -91.5 19t-65.5 67q-51 -86 -165 -86q-75 0 -115 42t-40 119zM139 151q0 -31 16 -48t45 -17q39 0 69 31t30 71v66q-16 -17 -85 -30q-44 -8 -59.5 -23.5t-15.5 -49.5zM323 602l77 146h126l-120 -146h-83zM408 319h178q-12 112 -90 112 q-38 0 -59 -27t-29 -85z" />
<glyph unicode="&#x1fe;" horiz-adv-x="638" d="M27 11l70 93q-61 105 -61 253q0 178 77 279t205 101q103 0 191 -81l67 89l34 -38l-69 -92q61 -105 61 -254q0 -178 -77 -279t-206 -101q-107 0 -190 82l-68 -90zM159 358q0 -80 22 -140l249 333q-48 59 -111 59q-74 0 -117 -67.5t-43 -184.5zM207 168q47 -60 112 -60 q74 0 117 67.5t43 183.5q0 84 -23 142zM280 788l72 126h131l-125 -126h-78z" />
<glyph unicode="&#x1ff;" horiz-adv-x="501" d="M18 0l60 77q-50 81 -50 189q0 128 60.5 204t162.5 76q81 0 147 -59l56 73l29 -32l-58 -74q49 -81 49 -188q0 -127 -61 -203.5t-162 -76.5q-81 0 -145 58l-57 -73zM146 267q0 -49 12 -88l167 214q-31 35 -74 35q-51 0 -78 -41.5t-27 -119.5zM179 138q27 -34 71 -34 q52 0 79 41.5t27 121.5q0 49 -12 84zM209 602l77 146h126l-120 -146h-83z" />
<glyph unicode="&#x200;" horiz-adv-x="592" d="M16 0l210 718h142l208 -718h-134l-38 148h-217l-41 -148h-130zM55 934h127l77 -146h-83zM220 271h150l-74 288zM223 934h127l77 -146h-83z" />
<glyph unicode="&#x201;" d="M-13 748h127l77 -146h-83zM24 142q0 70 33.5 114t94.5 55l103 19q40 7 40 44q0 60 -71 60q-37 0 -54 -16.5t-22 -57.5h-110q10 101 55 143.5t136 42.5q85 0 131.5 -40.5t46.5 -113.5v-288q0 -70 25 -83v-21h-123q-7 27 -11 63q-34 -43 -65 -60t-73 -17q-63 0 -99.5 42 t-36.5 114zM139 151q0 -30 15 -47.5t40 -17.5q42 0 71.5 30.5t29.5 74.5v68q-19 -17 -78 -29q-43 -9 -60.5 -27t-17.5 -52zM155 748h127l77 -146h-83z" />
<glyph unicode="&#x204;" horiz-adv-x="547" d="M37 934h127l77 -146h-83zM62 0v718h433v-127h-313v-151h288v-127h-288v-186h327v-127h-447zM205 934h127l77 -146h-83z" />
<glyph unicode="&#x205;" d="M-14 748h127l77 -146h-83zM19 268q0 130 55 204t152 74q100 0 153.5 -76t53.5 -218v-25h-299q5 -67 29 -97.5t71 -30.5q59 0 76 58h118q-49 -171 -196 -171q-102 0 -157.5 73.5t-55.5 208.5zM137 319h178q-12 112 -90 112q-38 0 -59 -27t-29 -85zM154 748h127l77 -146 h-83z" />
<glyph unicode="&#x208;" horiz-adv-x="228" d="M-128 934h127l77 -146h-83zM40 934h127l77 -146h-83zM52 0v718h123v-718h-123z" />
<glyph unicode="&#x209;" horiz-adv-x="228" d="M-128 748h127l77 -146h-83zM40 748h127l77 -146h-83zM57 0v532h114v-532h-114z" />
<glyph unicode="&#x20c;" horiz-adv-x="638" d="M36 358q0 179 77.5 279t209.5 100q125 0 202 -101t77 -277q0 -177 -77 -277.5t-206 -100.5q-130 0 -206.5 101t-76.5 276zM81 934h127l77 -146h-83zM159 361q0 -119 42.5 -186t117.5 -67t117.5 67.5t42.5 186.5q0 113 -43 180.5t-115 67.5q-76 0 -119 -66.5t-43 -182.5z M249 934h127l77 -146h-83z" />
<glyph unicode="&#x20d;" horiz-adv-x="501" d="M8 748h127l77 -146h-83zM28 265q0 129 61 205t165 76q100 0 160 -77t60 -204t-61 -203t-162 -76t-162 76t-61 203zM146 266q0 -79 27 -120.5t78 -41.5t78 41.5t27 120.5q0 78 -27 120t-77 42q-106 0 -106 -162zM176 748h127l77 -146h-83z" />
<glyph unicode="&#x210;" horiz-adv-x="592" d="M37 934h127l77 -146h-83zM62 0v718h297q85 0 135.5 -55.5t50.5 -148.5q0 -127 -91 -170q48 -26 61.5 -65t13.5 -151q0 -61 4.5 -81t21.5 -28v-19h-136q-14 64 -14 144q0 65 -10 94t-27 35.5t-59 6.5h-127v-280h-120zM182 402h145q49 0 72 23.5t23 72.5q0 47 -22.5 72 t-63.5 25h-154v-193zM205 934h127l77 -146h-83z" />
<glyph unicode="&#x211;" horiz-adv-x="319" d="M-76 748h127l77 -146h-83zM52 0v532h110v-95q26 61 52.5 85t68.5 24q10 0 23 -2v-142q-16 2 -29 2q-111 0 -111 -127v-277h-114zM92 748h127l77 -146h-83z" />
<glyph unicode="&#x214;" horiz-adv-x="592" d="M55 934h127l77 -146h-83zM59 242v476h125v-466q0 -69 29 -106.5t82 -37.5q56 0 85 35t29 102v473h125v-467q0 -132 -61 -201t-178 -69q-113 0 -174.5 68.5t-61.5 192.5zM223 934h127l77 -146h-83z" />
<glyph unicode="&#x215;" horiz-adv-x="501" d="M8 748h127l77 -146h-83zM54 182v350h114v-330q0 -98 74 -98q43 0 67 32.5t24 88.5v307h114v-532h-110v78q-44 -92 -136 -92q-70 0 -108.5 51t-38.5 145zM176 748h127l77 -146h-83z" />
<glyph unicode="&#x218;" horiz-adv-x="547" d="M32 221h118q7 -117 128 -117q57 0 88.5 24t31.5 68q0 35 -22.5 54t-84.5 37l-63 18q-114 32 -150.5 76t-36.5 131q0 105 59.5 165t164.5 60q106 0 165.5 -59.5t66.5 -172.5h-118q-7 57 -35 83t-83 26q-49 0 -77 -23.5t-28 -63.5q0 -31 14 -48t48 -27l144 -43 q82 -25 118 -70t36 -125q0 -108 -64 -170.5t-175 -62.5q-114 0 -177.5 61t-67.5 179zM217 -60h108v-103q0 -64 -31 -103t-77 -41v46q30 6 46.5 28.5t16.5 54.5v6h-63v112z" />
<glyph unicode="&#x219;" d="M25 170h118q3 -77 93 -77q35 0 55 15t20 40q0 40 -95 59q-91 17 -133 56t-42 106q0 82 48.5 129.5t132.5 47.5q87 0 133 -40t58 -136h-113q-6 39 -23 54t-55 15q-69 0 -69 -50q0 -41 94 -58q94 -18 136.5 -59t42.5 -106q0 -84 -52 -132t-142 -48q-190 0 -207 184z M174 -60h108v-103q0 -64 -31 -103t-77 -41v46q30 6 46.5 28.5t16.5 54.5v6h-63v112z" />
<glyph unicode="&#x21a;" horiz-adv-x="501" d="M11 591v127h479v-127h-178v-591h-123v591h-178zM197 -60h108v-103q0 -64 -31 -103t-77 -41v46q30 6 46.5 28.5t16.5 54.5v6h-63v112z" />
<glyph unicode="&#x21b;" horiz-adv-x="273" d="M8 432v100h59v144h114v-144h72v-100h-72v-289q0 -28 8.5 -35.5t38.5 -7.5q12 0 25 2v-106q-39 -2 -55 -2h-15q-63 0 -89.5 26t-26.5 89v323h-59zM106 -60h108v-103q0 -64 -31 -103t-77 -41v46q30 6 46.5 28.5t16.5 54.5v6h-63v112z" />
<glyph unicode="&#x258;" d="M19 227v25q0 142 53.5 218t153.5 76q97 0 152 -74t55 -204q0 -135 -55.5 -208.5t-157.5 -73.5q-147 0 -196 171h118q17 -58 76 -58q47 0 71 30.5t29 97.5h-299zM137 319h178q-8 58 -29 85t-59 27q-78 0 -90 -112z" />
<glyph unicode="&#x259;" d="M19 280v25h299q-5 67 -29 97.5t-71 30.5q-59 0 -76 -58h-118q49 171 196 171q102 0 157.5 -73.5t55.5 -208.5q0 -130 -55 -204t-152 -74q-100 0 -153.5 76t-53.5 218zM137 213q12 -112 90 -112q38 0 59 27t29 85h-178z" />
<glyph unicode="&#x2be;" horiz-adv-x="398" d="M57 452q0 9 8 9h77q8 0 8 -7q10 -51 42 -51q54 0 54 101t-50 101q-19 0 -31 -15t-14 -40q0 -7 -8 -7h-77q-10 0 -8 9q9 71 45.5 108.5t95.5 37.5q68 0 105 -49.5t37 -140.5q0 -94 -39 -147t-107 -53q-59 0 -95 36.5t-43 107.5z" />
<glyph unicode="&#x2bf;" horiz-adv-x="398" d="M57 498q0 94 39 147t107 53q59 0 95 -36.5t43 -107.5q0 -9 -8 -9h-77q-8 0 -8 7q-10 51 -42 51q-54 0 -54 -101t50 -101q19 0 31 15t14 40q0 7 8 7h77q10 0 8 -9q-9 -71 -45.5 -108.5t-95.5 -37.5q-68 0 -105 49.5t-37 140.5z" />
<glyph unicode="&#x2c6;" horiz-adv-x="273" d="M-8 602l93 146h103l93 -146h-93l-52 82l-51 -82h-93z" />
<glyph unicode="&#x2c7;" horiz-adv-x="273" d="M-8 748h93l52 -82l51 82h93l-93 -146h-103z" />
<glyph unicode="&#x2d8;" horiz-adv-x="273" d="M-2 748h54q7 -38 26 -53.5t59 -15.5t58.5 15t26.5 54h53q-15 -146 -143 -146q-121 0 -134 146z" />
<glyph unicode="&#x2d9;" horiz-adv-x="273" d="M81 618v115h114v-115h-114z" />
<glyph unicode="&#x2da;" horiz-adv-x="273" d="M33 677q0 35 31.5 61t72.5 26t72.5 -26.5t31.5 -62.5q0 -35 -31 -61.5t-73 -26.5t-73 26.5t-31 63.5zM85 676q0 -18 15 -30.5t37 -12.5t37 12.5t15 29.5q0 18 -15 30.5t-37 12.5q-21 0 -36.5 -12.5t-15.5 -29.5z" />
<glyph unicode="&#x2db;" horiz-adv-x="273" d="M40 -146q0 73 90 146h91q-85 -57 -85 -109q0 -23 19 -36.5t46 -13.5h40v-91h-40q-69 0 -115 24t-46 80z" />
<glyph unicode="&#x2dc;" horiz-adv-x="273" d="M-14 612q20 123 99 123q6 0 55.5 -18t54.5 -18q29 0 39 40h53q-19 -120 -88 -120q-11 0 -62 18t-61 18q-29 0 -38 -43h-52z" />
<glyph unicode="&#x2dd;" horiz-adv-x="273" d="M7 602l77 146h127l-121 -146h-83zM175 602l77 146h127l-121 -146h-83z" />
<glyph unicode="&#x300;" horiz-adv-x="0" d="M-389 748h126l77 -146h-83z" />
<glyph unicode="&#x301;" horiz-adv-x="0" d="M-269 602l77 146h126l-120 -146h-83z" />
<glyph unicode="&#x302;" horiz-adv-x="0" d="M-372 602l93 146h103l93 -146h-93l-52 82l-51 -82h-93z" />
<glyph unicode="&#x303;" horiz-adv-x="0" d="M-378 612q20 123 99 123q6 0 55.5 -18t54.5 -18q29 0 39 40h53q-19 -120 -88 -120q-11 0 -62 18t-61 18q-29 0 -38 -43h-52z" />
<glyph unicode="&#x304;" horiz-adv-x="0" d="M-369 639v73h283v-73h-283z" />
<glyph unicode="&#x306;" horiz-adv-x="0" d="M-366 748h54q7 -38 26 -53.5t59 -15.5t58.5 15t26.5 54h53q-15 -146 -143 -146q-121 0 -134 146z" />
<glyph unicode="&#x307;" horiz-adv-x="0" d="M-283 618v115h114v-115h-114z" />
<glyph unicode="&#x308;" horiz-adv-x="0" d="M-358 618v115h96v-115h-96zM-193 618v115h96v-115h-96z" />
<glyph unicode="&#x309;" horiz-adv-x="0" d="M-338 673q0 92 116 92q51 0 80.5 -18.5t29.5 -50.5q0 -19 -10.5 -32t-39.5 -30q-23 -15 -29 -20t-6 -12v-24h-62v27q0 18 11 30t42 28v-1q32 20 32 34q0 11 -14 18t-37 7q-34 0 -45 -14v1q-7 -8 -7 -35h-61z" />
<glyph unicode="&#x30a;" horiz-adv-x="0" d="M-331 677q0 35 31.5 61t72.5 26t72.5 -26.5t31.5 -62.5q0 -35 -31 -61.5t-73 -26.5t-73 26.5t-31 63.5zM-279 676q0 -18 15 -30.5t37 -12.5t37 12.5t15 29.5q0 18 -15 30.5t-37 12.5q-21 0 -36.5 -12.5t-15.5 -29.5z" />
<glyph unicode="&#x30b;" horiz-adv-x="0" d="M-357 602l77 146h127l-121 -146h-83zM-189 602l77 146h127l-121 -146h-83z" />
<glyph unicode="&#x30c;" horiz-adv-x="0" d="M-372 748h93l52 -82l51 82h93l-93 -146h-103z" />
<glyph unicode="&#x30f;" horiz-adv-x="0" d="M-470 748h127l77 -146h-83zM-302 748h127l77 -146h-83z" />
<glyph unicode="&#x311;" horiz-adv-x="0" d="M-366 602q15 146 143 146q121 0 134 -146h-54q-7 38 -26 53.5t-59 15.5t-58.5 -15t-26.5 -54h-53z" />
<glyph unicode="&#x323;" horiz-adv-x="0" d="M-283 -85h114v-115h-114v115z" />
<glyph unicode="&#x326;" horiz-adv-x="0" d="M-281 -60h108v-103q0 -64 -31 -103t-77 -41v46q30 6 46.5 28.5t16.5 54.5v6h-63v112z" />
<glyph unicode="&#x32e;" horiz-adv-x="0" d="M-376 -80h54q16 -25 36.5 -37t58.5 -12t57 12t28 37h63q-33 -126 -153 -126q-113 0 -144 126z" />
<glyph unicode="&#x32f;" horiz-adv-x="0" d="M-376 -206q33 126 153 126q113 0 144 -126h-54q-16 25 -36.5 37t-58.5 12t-57 -12t-28 -37h-63z" />
<glyph unicode="&#x330;" horiz-adv-x="0" d="M-378 -206q20 123 99 123q6 0 55.5 -18t54.5 -18q29 0 39 40h53q-19 -120 -88 -120q-11 0 -62 18t-61 18q-29 0 -38 -43h-52z" />
<glyph unicode="&#x331;" horiz-adv-x="0" d="M-369 -106h283v-73h-283v73z" />
<glyph unicode="&#x332;" horiz-adv-x="0" d="M-369 -106h283v-73h-283v73z" />
<glyph unicode="&#x391;" horiz-adv-x="592" d="M16 0l210 718h142l208 -718h-134l-38 148h-217l-41 -148h-130zM220 271h150l-74 288z" />
<glyph unicode="&#x392;" horiz-adv-x="592" d="M62 0v718h286q85 0 133.5 -50t48.5 -137q0 -53 -17 -87t-55 -57q91 -50 91 -171q0 -90 -51 -152q-31 -37 -70.5 -50.5t-116.5 -13.5h-249zM180 123h151q95 0 95 102q0 43 -23.5 66.5t-65.5 23.5h-157v-192zM180 437h144q42 0 65 21t23 61q0 76 -91 76h-141v-158z" />
<glyph unicode="&#x393;" horiz-adv-x="501" d="M62 0v718h419v-127h-296v-591h-123z" />
<glyph unicode="&#x394;" horiz-adv-x="502" d="M7 0l189 692h110l189 -692h-488zM156 114h190l-95 347z" />
<glyph unicode="&#x395;" horiz-adv-x="547" d="M62 0v718h433v-127h-313v-151h288v-127h-288v-186h327v-127h-447z" />
<glyph unicode="&#x396;" horiz-adv-x="501" d="M20 0v127l305 464h-297v127h451v-118l-309 -473h311v-127h-461z" />
<glyph unicode="&#x397;" horiz-adv-x="592" d="M58 0v718h123v-272h230v272h123v-718h-123v323h-230v-323h-123z" />
<glyph unicode="&#x398;" horiz-adv-x="638" d="M36 358q0 179 77.5 279t209.5 100q125 0 202 -101t77 -277q0 -177 -77 -277.5t-206 -100.5q-130 0 -206.5 101t-76.5 276zM159 361q0 -119 42.5 -186t117.5 -67t117.5 67.5t42.5 186.5q0 113 -43 180.5t-115 67.5q-76 0 -119 -66.5t-43 -182.5zM213 302v114h212v-114 h-212z" />
<glyph unicode="&#x399;" horiz-adv-x="228" d="M52 0v718h123v-718h-123z" />
<glyph unicode="&#x39a;" horiz-adv-x="592" d="M71 0v718h123v-292l225 292h159l-240 -294l254 -424h-158l-183 315l-57 -72v-243h-123z" />
<glyph unicode="&#x39b;" horiz-adv-x="592" d="M16 0l210 718h142l208 -718h-134l-146 559l-150 -559h-130z" />
<glyph unicode="&#x39c;" horiz-adv-x="683" d="M57 0v718h179l108 -570l106 570h177v-718h-114v609l-112 -609h-121l-109 609v-609h-114z" />
<glyph unicode="&#x39d;" horiz-adv-x="592" d="M57 0v718h129l236 -504v504h114v-718h-122l-243 515v-515h-114z" />
<glyph unicode="&#x39e;" horiz-adv-x="592" d="M61 0v122h470v-122h-470zM61 596v122h470v-122h-470zM183 302v114h226v-114h-226z" />
<glyph unicode="&#x39f;" horiz-adv-x="638" d="M36 358q0 179 77.5 279t209.5 100q125 0 202 -101t77 -277q0 -177 -77 -277.5t-206 -100.5q-130 0 -206.5 101t-76.5 276zM159 361q0 -119 42.5 -186t117.5 -67t117.5 67.5t42.5 186.5q0 113 -43 180.5t-115 67.5q-76 0 -119 -66.5t-43 -182.5z" />
<glyph unicode="&#x3a0;" horiz-adv-x="592" d="M58 0v718h476v-718h-123v595h-230v-595h-123z" />
<glyph unicode="&#x3a1;" horiz-adv-x="547" d="M62 0v718h269q83 0 133 -61t50 -162q0 -107 -51.5 -171t-136.5 -64h-141v-260h-123zM185 383h114q92 0 92 109q0 55 -25 79t-83 24h-98v-212z" />
<glyph unicode="&#x3a3;" horiz-adv-x="504" d="M30 0v135l179 224l-179 224v135h444v-120h-302l191 -239l-191 -239h302v-120h-444z" />
<glyph unicode="&#x3a4;" horiz-adv-x="501" d="M11 591v127h479v-127h-178v-591h-123v591h-178z" />
<glyph unicode="&#x3a5;" horiz-adv-x="547" d="M12 718h145l122 -312l117 312h139l-197 -449v-269h-123v271z" />
<glyph unicode="&#x3a6;" horiz-adv-x="641" d="M57 359q0 85 57.5 149t144.5 83v127h123v-127q87 -19 144.5 -83t57.5 -149t-57.5 -149t-144.5 -83v-127h-123v127q-87 19 -144.5 83t-57.5 149zM175 359q0 -37 23.5 -66t60.5 -43v218q-37 -14 -60.5 -43t-23.5 -66zM382 250q37 14 60.5 43t23.5 66t-23.5 66t-60.5 43 v-218z" />
<glyph unicode="&#x3a7;" horiz-adv-x="547" d="M11 0l190 367l-179 351h146l105 -232l108 232h142l-180 -345l192 -373h-150l-112 245l-118 -245h-144z" />
<glyph unicode="&#x3a8;" horiz-adv-x="630" d="M57 532v186h118v-186q0 -61 20 -112.5t58 -76.5v375h123v-375q38 25 58 76.5t20 112.5v186h118v-186q0 -112 -53.5 -201.5t-142.5 -114.5v-216h-123v216q-89 25 -142.5 114.5t-53.5 201.5z" />
<glyph unicode="&#x3a9;" horiz-adv-x="634" d="M30 0v120h116v60q-87 93 -87 235q0 125 73 217.5t185 92.5t185.5 -92.5t73.5 -217.5q0 -141 -88 -235v-60h116v-120h-239v235q41 20 64.5 70t23.5 110q0 77 -37 133.5t-99 56.5t-98.5 -56.5t-36.5 -133.5q0 -60 23 -110t64 -70v-235h-239z" />
<glyph unicode="&#x3b1;" horiz-adv-x="657" d="M57 247q0 124 65.5 215t170.5 91q106 0 170 -117q25 103 35 122l102 -52q-32 -64 -75 -260q24 -120 75 -220l-102 -52q-24 45 -40 103q-68 -98 -165 -98q-100 0 -168 79.5t-68 188.5zM171 247q0 -61 34.5 -105.5t87.5 -44.5q89 0 127 151q-8 41 -16 68.5t-22.5 57.5 t-36.5 45.5t-52 15.5q-59 0 -90.5 -55.5t-31.5 -132.5z" />
<glyph unicode="&#x3b2;" horiz-adv-x="491" d="M30 -240v779q0 88 52 140t141 52q90 0 141 -50.5t51 -139.5t-60 -130q51 -32 72 -72.5t21 -107.5q0 -112 -53.5 -178.5t-144.5 -66.5q-62 0 -106 28v-254h-114zM144 128l58 -26h4q4 -1 20 -1q107 0 107 123q0 63 -27.5 90t-97.5 33v97q53 2 72.5 20.5t19.5 65.5 q0 43 -21 66t-59 23q-35 0 -55.5 -24t-20.5 -65v-402z" />
<glyph unicode="&#x3b3;" horiz-adv-x="576" d="M57 532h120l111 -345l111 345h120l-174 -542v-230h-114v230z" />
<glyph unicode="&#x3b4;" horiz-adv-x="501" d="M30 215q0 69 41.5 123t110.5 83q-90 76 -90 153q0 63 53.5 103.5t126.5 40.5q86 0 160 -45l-60 -98q-47 28 -100 28q-66 0 -66 -29q0 -19 7 -34.5t23.5 -30t28 -22t37.5 -22.5t34 -20q62 -37 98.5 -98.5t36.5 -131.5q0 -94 -64.5 -161.5t-156.5 -67.5t-156 67.5 t-64 161.5zM144 215q0 -46 31 -80t75 -34q45 0 76 34t31 80q0 42 -22 77.5t-59 54.5q-55 0 -93.5 -38.5t-38.5 -93.5z" />
<glyph unicode="&#x3b5;" horiz-adv-x="494" d="M57 172q0 76 76 121q-57 42 -57 109q0 74 45 127t113 53q79 0 181 -63l-48 -80q-42 25 -133 25q-20 0 -32 -18.5t-12 -43.5q0 -35 36 -51.5t87 -16.5v-94q-142 0 -142 -68q0 -42 29.5 -72.5t71.5 -30.5q80 0 112 22l53 -77q-93 -63 -165 -63q-90 0 -152.5 65t-62.5 156z " />
<glyph unicode="&#x3b6;" horiz-adv-x="473" d="M57 266q0 104 46 197t126 161h-172v94h387v-94h-62q-98 -48 -154.5 -145.5t-56.5 -212.5q0 -61 23.5 -105.5t69.5 -44.5h30q65 0 107.5 -53t42.5 -126q0 -70 -43 -121.5t-107 -51.5v106q36 0 36 67q0 25 -9 43t-27 18h-30q-92 0 -149.5 80t-57.5 188z" />
<glyph unicode="&#x3b7;" horiz-adv-x="501" d="M57 0v532h114v-2q43 23 93 23q76 0 128 -58.5t52 -139.5v-595h-114v595q0 32 -18.5 56t-47.5 24q-57 0 -93 -41v-394h-114z" />
<glyph unicode="&#x3b8;" horiz-adv-x="479" d="M57 340q0 65 3 115t14.5 106t30.5 93t53 61t81 24t81.5 -24t53.5 -61t30.5 -93t14.5 -106t3 -115q0 -361 -183 -361q-53 0 -90.5 31t-56.5 85.5t-27 114t-8 130.5zM171 281q2 -85 16 -134.5t52 -49.5q39 0 53 49.5t16 134.5h-137zM171 399h137q-2 102 -16 162t-53 60 t-52.5 -59.5t-15.5 -162.5z" />
<glyph unicode="&#x3b9;" horiz-adv-x="380" d="M114 160v372h114v-372q0 -30 28.5 -46.5t66.5 -16.5v-118q-85 0 -147 51.5t-62 129.5z" />
<glyph unicode="&#x3ba;" d="M57 0v532h114v-202l144 202h141l-154 -206l159 -326h-138l-104 228l-48 -60v-168h-114z" />
<glyph unicode="&#x3bb;" horiz-adv-x="637" d="M57 0l237 483l-10 29q-14 41 -41.5 68.5t-64.5 27.5v106q72 0 130.5 -45.5t82.5 -116.5l189 -552h-120l-113 329l-162 -329h-128z" />
<glyph unicode="&#x3bc;" horiz-adv-x="615" d="M114 -240v772h114v-360q23 -75 80 -75q56 0 79 75v360h114v-532h-114v3q-37 -24 -79 -24q-43 0 -80 24v-243h-114z" />
<glyph unicode="&#x3bd;" horiz-adv-x="516" d="M29 532h120l131 -407q94 96 94 230q0 80 -20 177h116q18 -80 18 -177q0 -114 -55 -213.5t-151 -161.5l-85 31z" />
<glyph unicode="&#x3be;" horiz-adv-x="501" d="M57 228q0 105 84 171q-65 55 -65 136q0 50 30 89h-49v94h387v-94h-173q-36 -10 -58.5 -33.5t-22.5 -55.5q0 -36 31 -59.5t73 -23.5v-106q-51 0 -87 -34.5t-36 -83.5q0 -46 26.5 -79t66.5 -33h30q65 0 107.5 -53t42.5 -126q0 -70 -43 -121.5t-107 -51.5v106q36 0 36 67 q0 25 -9 43t-27 18h-30q-88 0 -147.5 68t-59.5 162z" />
<glyph unicode="&#x3bf;" horiz-adv-x="501" d="M28 265q0 129 61 205t165 76q100 0 160 -77t60 -204t-61 -203t-162 -76t-162 76t-61 203zM146 266q0 -79 27 -120.5t78 -41.5t78 41.5t27 120.5q0 78 -27 120t-77 42q-106 0 -106 -162z" />
<glyph unicode="&#x3c0;" horiz-adv-x="611" d="M30 313q0 115 58 167t179 52h314v-115h-50v-417h-114v417h-93v-417h-114v417q-40 0 -52.5 -25t-12.5 -79h-115z" />
<glyph unicode="&#x3c1;" horiz-adv-x="565" d="M57 -240v506q0 116 63 201.5t162 85.5q100 0 163 -85.5t63 -201.5t-63 -201.5t-163 -85.5q-59 0 -111 33v-252h-114zM171 144q37 -47 111 -47q53 0 82.5 50.5t29.5 118.5t-29.5 118.5t-82.5 50.5q-52 0 -81.5 -50.5t-29.5 -118.5v-122z" />
<glyph unicode="&#x3c2;" horiz-adv-x="501" d="M57 276q0 111 57 194t150 83q73 0 124 -54t50 -129l-102 1q0 27 -21.5 45.5t-50.5 18.5q-47 0 -70 -46.5t-23 -112.5q0 -67 23 -113.5t70 -46.5h30q65 0 107.5 -53t42.5 -126q0 -70 -43 -121.5t-107 -51.5v106q36 0 36 67q0 25 -9 43t-27 18h-30q-93 0 -150 83t-57 195z " />
<glyph unicode="&#x3c3;" horiz-adv-x="603" d="M57 265q0 129 61 205t165 76q27 0 51 -6q84 11 189 64l52 -106q-57 -27 -124 -41q52 -76 52 -192q0 -127 -61 -203t-162 -76t-162 76t-61 203zM175 266q0 -79 27 -120.5t78 -41.5t78 41.5t27 120.5q0 78 -27 120t-77 42q-106 0 -106 -162z" />
<glyph unicode="&#x3c4;" horiz-adv-x="409" d="M57 416v118h287v-118h-87v-256q0 -30 28.5 -46.5t66.5 -16.5v-118q-85 0 -147 51.5t-62 129.5v256h-86z" />
<glyph unicode="&#x3c5;" horiz-adv-x="501" d="M57 177v355h114v-355q0 -32 17 -56t44 -24q47 0 72.5 45.5t25.5 107.5q0 135 -40 282h118q36 -132 36 -282q0 -109 -59.5 -190t-152.5 -81q-75 0 -125 58.5t-50 139.5z" />
<glyph unicode="&#x3c6;" horiz-adv-x="752" d="M57 266q0 84 43.5 157t117.5 116l54 -90q-48 -28 -74.5 -77t-26.5 -106q0 -60 42 -103.5t106 -58.5v146q0 79 19 145.5t63 112t106 45.5q61 0 104.5 -42.5t63.5 -106.5t20 -138q0 -107 -75.5 -185.5t-186.5 -96.5v-224h-114v224q-111 18 -186.5 96.5t-75.5 185.5z M433 104q64 15 106 58.5t42 103.5q0 36 -2 61t-9 52.5t-23 41.5t-40 14q-21 0 -36 -12t-22 -27t-11 -44.5t-4.5 -48t-0.5 -53.5v-146z" />
<glyph unicode="&#x3c7;" horiz-adv-x="581" d="M57 -240l171 386l-171 386h126l108 -244l108 244h126l-171 -386l171 -386h-126l-108 244l-108 -244h-126z" />
<glyph unicode="&#x3c8;" horiz-adv-x="638" d="M57 177v355h114v-355q0 -60 91 -76v617h114v-617q91 16 91 76v355h114v-355q0 -76 -58.5 -127.5t-146.5 -65.5v-224h-114v224q-88 14 -146.5 65.5t-58.5 127.5z" />
<glyph unicode="&#x3c9;" horiz-adv-x="663" d="M57 285q0 123 84 247h98q-68 -100 -68 -247q0 -43 1 -66.5t5.5 -57t16 -49t29.5 -15.5q48 0 62 72q-10 64 -10 186h114q0 -38 0.5 -59t1.5 -57t4.5 -56.5t8.5 -42.5t14.5 -32.5t21.5 -10.5q18 0 29.5 15.5t16 49t5.5 57t1 66.5q0 147 -68 247h98q84 -124 84 -247 q0 -59 -8.5 -110.5t-26.5 -97t-51.5 -72t-79.5 -26.5q-72 0 -113 62q-36 -62 -104 -62q-46 0 -79.5 26.5t-51.5 72t-26.5 97t-8.5 110.5z" />
<glyph unicode="&#x3d1;" horiz-adv-x="558" d="M57 177v178h114v-178q0 -34 23 -58t57 -24q33 0 56 24t23 58v211q-243 31 -243 184q0 79 46.5 136t117.5 57q83 0 138 -69.5t55 -163.5v-59h57v-95l-57 1v-202q0 -81 -56.5 -138.5t-136.5 -57.5q-81 0 -137.5 57.5t-56.5 138.5zM179 572q0 -77 151 -93v53 q0 58 -19.5 98.5t-59.5 40.5q-33 0 -52.5 -29.5t-19.5 -69.5z" />
<glyph unicode="&#x3d5;" horiz-adv-x="703" d="M58 266q0 104 67.5 182t169.5 98v172h114v-172q102 -20 170 -98t68 -182t-68 -182t-170 -98v-226h-114v226q-102 20 -169.5 98t-67.5 182zM172 266q0 -57 34.5 -101t88.5 -61v324q-54 -17 -88.5 -61t-34.5 -101zM409 104q54 17 89 61t35 101t-35 101t-89 61v-324z" />
<glyph unicode="&#x3d6;" horiz-adv-x="663" d="M57 285q0 123 84 247h98q-68 -100 -68 -247q0 -43 1 -66.5t5.5 -57t16 -49t29.5 -15.5q48 0 62 72q-10 64 -10 186h114q0 -38 0.5 -59t1.5 -57t4.5 -56.5t8.5 -42.5t14.5 -32.5t21.5 -10.5q18 0 29.5 15.5t16 49t5.5 57t1 66.5v50.5t-1 49.5t-2.5 50t-5 46t-8.5 44 t-12 37.5t-17 33.5t-22.5 23.5t-28.5 16.5t-36 5q-100 0 -190 -51l-41 70q108 63 231 63q67 0 116.5 -37.5t77 -102t40.5 -139t13 -159.5q0 -59 -8.5 -110.5t-26.5 -97t-51.5 -72t-79.5 -26.5q-72 0 -113 62q-36 -62 -104 -62q-46 0 -79.5 26.5t-51.5 72t-26.5 97 t-8.5 110.5z" />
<glyph unicode="&#x3f5;" d="M28 259q0 135 55 211t152 76q146 0 185 -147h-125q-19 29 -55 29q-76 0 -91 -109h155v-106h-155q12 -112 84 -112q36 0 60 32h124q-44 -147 -188 -147q-97 0 -149 71t-52 202z" />
<glyph unicode="&#x400;" horiz-adv-x="547" d="M62 0v718h433v-127h-313v-151h288v-127h-288v-186h327v-127h-447zM177 964h126l77 -146h-83z" />
<glyph unicode="&#x401;" horiz-adv-x="547" d="M62 0v718h433v-127h-313v-151h288v-127h-288v-186h327v-127h-447zM142 800v115h103v-115h-103zM302 800v115h103v-115h-103z" />
<glyph unicode="&#x402;" horiz-adv-x="651" d="M11 591v127h399v-127h-138v-141q38 27 123 27q99 0 153.5 -44.5t54.5 -131.5v-301q0 -176 -232 -176v123q38 0 73.5 13.5t35.5 43.5v293q0 30 -35.5 43.5t-73.5 13.5q-30 0 -64.5 -14.5t-34.5 -42.5v-297h-123v591h-138z" />
<glyph unicode="&#x403;" horiz-adv-x="501" d="M62 0v718h419v-127h-296v-591h-123zM217 774l77 146h126l-120 -146h-83z" />
<glyph unicode="&#x404;" horiz-adv-x="592" d="M36 357q0 175 73.5 277.5t199.5 102.5q70 0 125.5 -33t89.5 -94q29 -53 37 -127h-123q-7 29 -16 50t-23.5 38.5t-36.5 26.5t-50 9q-57 0 -94.5 -43.5t-50.5 -123.5h207v-127h-212q8 -96 46 -149t100 -53q66 0 102 56q16 26 28 79h123q-12 -63 -26 -100t-40 -72 q-69 -93 -189 -93q-125 0 -197.5 100.5t-72.5 275.5z" />
<glyph unicode="&#x405;" horiz-adv-x="547" d="M32 221h118q7 -117 128 -117q57 0 88.5 24t31.5 68q0 35 -22.5 54t-84.5 37l-63 18q-103 29 -137 64q-50 48 -50 143q0 105 59.5 165t164.5 60q106 0 165.5 -59.5t66.5 -172.5h-118q-7 57 -35 83t-83 26q-49 0 -77 -23.5t-28 -63.5q0 -31 14 -47.5t48 -27.5l144 -43 q82 -25 118 -70t36 -125q0 -108 -64 -170.5t-175 -62.5q-159 0 -218 117q-24 49 -27 123z" />
<glyph unicode="&#x406;" horiz-adv-x="228" d="M52 0v718h123v-718h-123z" />
<glyph unicode="&#x407;" horiz-adv-x="228" d="M-17 800v115h103v-115h-103zM53 0v718h123v-718h-123zM143 800v115h103v-115h-103z" />
<glyph unicode="&#x408;" d="M18 271h115q1 -102 15 -134.5t57 -32.5q38 0 53.5 23t15.5 81v510h123v-510q0 -226 -190 -226q-120 0 -162 88q-16 30 -21.5 73.5t-5.5 127.5z" />
<glyph unicode="&#x409;" horiz-adv-x="901" d="M15 0v121q45 -1 79.5 115t34.5 254v228h410v-260h141q85 0 136.5 -64t51.5 -171q0 -101 -50 -162t-133 -61h-269l2 595h-166v-110q0 -84 -12.5 -165t-39 -155t-74.5 -119.5t-111 -45.5zM539 123h98q58 0 83 24t25 79q0 109 -92 109h-114v-212z" />
<glyph unicode="&#x40a;" horiz-adv-x="896" d="M58 0v718h123v-272h230v272h123v-260h141q85 0 136.5 -64t51.5 -171q0 -101 -50 -162t-133 -61h-269v323h-230v-323h-123zM534 123h98q58 0 83 24t25 79q0 109 -92 109h-114v-212z" />
<glyph unicode="&#x40b;" horiz-adv-x="651" d="M11 591v127h399v-127h-138v-141q38 27 123 27q99 0 153.5 -44.5t54.5 -131.5v-301h-123v297q0 30 -35.5 43.5t-73.5 13.5q-30 0 -64.5 -14.5t-34.5 -42.5v-297h-123v591h-138z" />
<glyph unicode="&#x40c;" horiz-adv-x="592" d="M71 0v718h123v-258l225 258h159l-298 -344l312 -374h-158l-240 284v-284h-123zM272 774l77 146h126l-120 -146h-83z" />
<glyph unicode="&#x40d;" horiz-adv-x="592" d="M57 0v718h114v-515l243 515h122v-718h-114v504l-236 -504h-129zM195 964h126l77 -146h-83z" />
<glyph unicode="&#x40e;" horiz-adv-x="547" d="M12 718h145l127 -290l112 290h139l-310 -718h-139l128 282zM148 912h54q7 -38 26 -53.5t59 -15.5t58.5 15t26.5 54h53q-15 -146 -143 -146q-121 0 -134 146z" />
<glyph unicode="&#x40f;" horiz-adv-x="543" d="M30 0v714h123v-592h238v592h123v-714h-189v-147h-106v147h-189z" />
<glyph unicode="&#x410;" horiz-adv-x="592" d="M16 0l210 718h142l208 -718h-134l-38 148h-217l-41 -148h-130zM220 271h150l-74 288z" />
<glyph unicode="&#x411;" horiz-adv-x="592" d="M62 0v718h419v-127h-301v-154h144q35 0 63.5 -4.5t48.5 -13.5t34 -18t24 -22.5t15 -21.5t11 -21.5t7 -15.5q22 -44 22 -104q0 -90 -51 -152q-31 -37 -70.5 -50.5t-116.5 -13.5h-249zM180 123h151q95 0 95 102q0 43 -23.5 66.5t-65.5 23.5h-157v-192z" />
<glyph unicode="&#x412;" horiz-adv-x="592" d="M62 0v718h286q85 0 133.5 -50t48.5 -137q0 -53 -17 -87t-55 -57q48 -26 69 -67q22 -44 22 -104q0 -90 -51 -152q-31 -37 -70.5 -50.5t-116.5 -13.5h-249zM180 123h151q95 0 95 102q0 43 -23.5 66.5t-65.5 23.5h-157v-192zM180 437h144q42 0 65 21t23 61q0 76 -91 76h-141 v-158z" />
<glyph unicode="&#x413;" horiz-adv-x="501" d="M62 0v718h419v-127h-296v-591h-123z" />
<glyph unicode="&#x414;" horiz-adv-x="712" d="M25 -120v240h65q45 0 79.5 116.5t34.5 253.5v228h412v-598h71v-240h-107v120h-448v-120h-107zM256 123h237v472h-166v-110q1 -97 -17 -194.5t-54 -167.5z" />
<glyph unicode="&#x415;" horiz-adv-x="547" d="M62 0v718h433v-127h-313v-151h288v-127h-288v-186h327v-127h-447z" />
<glyph unicode="&#x416;" horiz-adv-x="878" d="M0 0l292 374l-278 344h159l205 -258v258h122v-258l205 258h159l-278 -344l292 -374h-158l-220 284v-284h-122v284l-220 -284h-158z" />
<glyph unicode="&#x417;" horiz-adv-x="547" d="M32 221h118q7 -117 128 -117q57 0 88.5 24t31.5 68t-24.5 78t-82.5 34h-79v117h108q32 0 47 32t15 70q0 40 -28 63.5t-77 23.5q-55 0 -83 -26t-35 -83h-118q7 113 66.5 172.5t165.5 59.5q105 0 164.5 -60t59.5 -165q0 -95 -50 -143q69 -48 69 -155q0 -108 -64 -170.5 t-175 -62.5q-159 0 -218 117q-24 49 -27 123z" />
<glyph unicode="&#x418;" horiz-adv-x="592" d="M57 0v718h114v-515l243 515h122v-718h-114v504l-236 -504h-129z" />
<glyph unicode="&#x419;" horiz-adv-x="592" d="M57 0v718h114v-515l243 515h122v-718h-114v504l-236 -504h-129zM165 912h54q7 -38 26 -53.5t59 -15.5t58.5 15t26.5 54h53q-15 -146 -143 -146q-121 0 -134 146z" />
<glyph unicode="&#x41a;" horiz-adv-x="592" d="M71 0v718h123v-258l225 258h159l-298 -344l312 -374h-158l-240 284v-284h-123z" />
<glyph unicode="&#x41b;" horiz-adv-x="592" d="M15 0v121q45 -1 79.5 115t34.5 254v228h412v-718h-123v595h-166v-110q0 -84 -12.5 -165t-39 -155t-74.5 -119.5t-111 -45.5z" />
<glyph unicode="&#x41c;" horiz-adv-x="683" d="M57 0v718h179l108 -570l106 570h177v-718h-114v609l-112 -609h-121l-109 609v-609h-114z" />
<glyph unicode="&#x41d;" horiz-adv-x="592" d="M58 0v718h123v-272h230v272h123v-718h-123v323h-230v-323h-123z" />
<glyph unicode="&#x41e;" horiz-adv-x="638" d="M36 358q0 186 81 284q78 95 206 95q56 0 108.5 -25.5t89.5 -69.5q81 -98 81 -283t-81 -283q-78 -95 -202 -95q-77 0 -141 41t-99 113q-43 91 -43 223zM159 361q0 -119 42.5 -186t117.5 -67t117.5 67.5t42.5 186.5q0 131 -54 196q-41 52 -104 52q-76 0 -119 -66.5 t-43 -182.5z" />
<glyph unicode="&#x41f;" horiz-adv-x="592" d="M58 0v718h476v-718h-123v595h-230v-595h-123z" />
<glyph unicode="&#x420;" horiz-adv-x="547" d="M62 0v718h269q83 0 133 -61t50 -162q0 -107 -51.5 -171t-136.5 -64h-141v-260h-123zM185 383h114q92 0 92 109q0 55 -25 79t-83 24h-98v-212z" />
<glyph unicode="&#x421;" horiz-adv-x="592" d="M36 357q0 175 73.5 277.5t199.5 102.5q70 0 125.5 -33t89.5 -94q29 -53 37 -127h-123q-7 29 -16 50t-23.5 38.5t-36.5 26.5t-50 9q-71 0 -111 -66.5t-40 -184.5q0 -115 39 -180t108 -65q66 0 102 56q16 26 28 79h123q-12 -63 -26 -100t-40 -72q-69 -93 -189 -93 q-125 0 -197.5 100.5t-72.5 275.5z" />
<glyph unicode="&#x422;" horiz-adv-x="501" d="M11 591v127h479v-127h-178v-591h-123v591h-178z" />
<glyph unicode="&#x423;" horiz-adv-x="547" d="M12 718h145l127 -290l112 290h139l-310 -718h-139l128 282z" />
<glyph unicode="&#x424;" horiz-adv-x="816" d="M30 363q0 56 25.5 108.5t69.5 89.5q79 66 221 78v79h124v-78q140 -12 221 -79q95 -78 95 -202q0 -77 -41 -141t-113 -99q-70 -33 -162 -40v-79h-124v78q-142 14 -221 79q-95 78 -95 206zM157 361q0 -65 50 -106t139 -52v313q-92 -13 -137 -51q-52 -41 -52 -104zM470 202 q89 11 139 52.5t50 104.5q0 64 -49.5 105t-139.5 52v-314z" />
<glyph unicode="&#x425;" horiz-adv-x="547" d="M11 0l190 367l-179 351h146l105 -232l108 232h142l-180 -345l192 -373h-150l-112 245l-118 -245h-144z" />
<glyph unicode="&#x426;" horiz-adv-x="676" d="M58 0v718h123v-595h230v595h123v-598h117v-240h-107v120h-486z" />
<glyph unicode="&#x427;" horiz-adv-x="562" d="M50 417v301h123v-297q0 -30 35.5 -43.5t73.5 -13.5q30 0 64.5 14.5t34.5 42.5v297h123v-718h-123v268q-38 -27 -123 -27q-99 0 -153.5 44.5t-54.5 131.5z" />
<glyph unicode="&#x428;" horiz-adv-x="741" d="M58 0v718h123v-595l133 1v594h123v-594l123 -1v595h123v-718h-625z" />
<glyph unicode="&#x429;" horiz-adv-x="825" d="M58 0v718h123v-595h133v595h123v-595h123v595h123v-598h117v-240h-107v120h-635z" />
<glyph unicode="&#x42a;" horiz-adv-x="713" d="M10 591v127h341v-260h141q85 0 136.5 -64t51.5 -171q0 -101 -50 -162t-133 -61h-269v591h-218zM351 123h98q58 0 83 24t25 79q0 109 -92 109h-114v-212z" />
<glyph unicode="&#x42b;" horiz-adv-x="728" d="M62 0v718h123v-260h141q85 0 136.5 -64t51.5 -171q0 -101 -50 -162t-133 -61h-269zM185 123h98q58 0 83 24t25 79q0 109 -92 109h-114v-212zM547 0v718h123v-718h-123z" />
<glyph unicode="&#x42c;" horiz-adv-x="547" d="M62 0v718h123v-260h141q85 0 136.5 -64t51.5 -171q0 -101 -50 -162t-133 -61h-269zM185 123h98q58 0 83 24t25 79q0 109 -92 109h-114v-212z" />
<glyph unicode="&#x42d;" horiz-adv-x="592" d="M36 246h123q12 -53 28 -79q36 -56 102 -56q62 0 100 53.5t45 148.5h-211v127h207q-13 80 -50.5 123.5t-94.5 43.5q-55 0 -83.5 -32t-42.5 -92h-123q8 74 37 127q34 61 89.5 94t125.5 33q126 0 199.5 -102.5t73.5 -277.5t-72.5 -275.5t-197.5 -100.5q-120 0 -189 93 q-26 35 -40 72t-26 100z" />
<glyph unicode="&#x42e;" horiz-adv-x="914" d="M58 0v718h123v-272h137q15 124 75 196q78 95 206 95q56 0 108.5 -25.5t89.5 -69.5q81 -98 81 -283t-81 -283q-78 -95 -202 -95q-77 0 -141 41t-99 113q-37 79 -43 188h-131v-323h-123zM435 361q0 -119 42.5 -186t117.5 -67t117.5 67.5t42.5 186.5q0 131 -54 196 q-41 52 -104 52q-76 0 -119 -66.5t-43 -182.5z" />
<glyph unicode="&#x42f;" horiz-adv-x="570" d="M30 0l204 260q-80 5 -127 68.5t-47 166.5q0 101 50 162t133 61h269v-718h-123v260l-201 -260h-158zM183 492q0 -109 92 -109h114v212h-98q-58 0 -83 -24t-25 -79z" />
<glyph unicode="&#x430;" d="M24 142q0 70 33.5 114t94.5 55l103 19q40 7 40 44q0 60 -71 60q-37 0 -54 -16.5t-22 -57.5h-110q10 96 53 141t138 45q85 0 131.5 -40.5t46.5 -113.5v-288q0 -70 25 -83v-21h-123q-7 27 -11 63q-34 -43 -65 -60t-73 -17q-63 0 -99.5 42t-36.5 114zM139 151 q0 -30 15 -47.5t40 -17.5q42 0 71.5 30.5t29.5 74.5v68q-19 -17 -78 -29q-43 -9 -60.5 -27t-17.5 -52z" />
<glyph unicode="&#x431;" horiz-adv-x="501" d="M28 265q0 50 0.5 73.5t3 74t10 80.5t19.5 68t32.5 64t48.5 43q37 22 73.5 32t69.5 12.5t43 5.5q9 2 16 6t11 7t8 9.5t5.5 9.5t5.5 12.5t5 13.5h104q-9 -34 -13 -47t-17 -37.5t-33 -41.5q-21 -18 -45 -27t-55 -14.5t-48 -10.5q-47 -16 -68.5 -29.5t-31.5 -37.5 q38 15 82 15q100 0 160 -77t60 -204t-61 -203t-162 -76t-162 76t-61 203zM146 266q0 -79 27 -120.5t78 -41.5t78 41.5t27 120.5q0 78 -27 120t-77 42q-106 0 -106 -162z" />
<glyph unicode="&#x432;" horiz-adv-x="478" d="M54 0v532h213q85 0 133.5 -37t48.5 -102q0 -74 -72 -106q48 -19 69 -50q22 -33 22 -77q0 -67 -51 -112q-31 -28 -70.5 -38t-116.5 -10h-176zM166 106h84q48 0 71.5 15t23.5 51q0 56 -89 56h-90v-122zM166 329h77q45 0 66.5 10t21.5 38t-21 38.5t-70 10.5h-74v-97z" />
<glyph unicode="&#x433;" horiz-adv-x="384" d="M53 0v532h318v-114h-204v-418h-114z" />
<glyph unicode="&#x434;" horiz-adv-x="637" d="M30 110h75q14 0 30 33.5t28 98.5t12 139v151h361v-422h71v-230h-104v120h-369v-120h-104v230zM238 114h184v304h-133v-31q0 -155 -51 -273z" />
<glyph unicode="&#x435;" d="M19 268q0 130 55 204t152 74q100 0 153.5 -76t53.5 -218v-25h-299q5 -67 29 -97.5t71 -30.5q59 0 76 58h118q-14 -50 -30 -77.5t-43 -50.5q-49 -43 -123 -43q-102 0 -157.5 73.5t-55.5 208.5zM137 319h178q-12 112 -90 112q-38 0 -59 -27t-29 -85z" />
<glyph unicode="&#x436;" horiz-adv-x="684" d="M-5 0l207 282l-202 250h141l144 -186v186h114v-186l144 186h141l-202 -250l207 -282h-138l-152 208v-208h-115l1 208l-152 -208h-138z" />
<glyph unicode="&#x437;" d="M25 170h118q3 -77 93 -77q35 0 55 15t20 40q0 29 -16 51.5t-60 23.5l-47 1v92l37 1q33 1 51 14t21.5 26t3.5 32q0 50 -69 50q-38 0 -55 -15t-23 -54h-113q7 55 20 85t40 52q48 39 131 39q84 0 132.5 -47t48.5 -130q0 -53 -27 -89l20 -33q20 -31 20 -81q0 -84 -52 -132 t-142 -48q-92 0 -148 47q-28 23 -41 52.5t-18 84.5z" />
<glyph unicode="&#x438;" horiz-adv-x="496" d="M53 0v532h114v-343l150 343h131v-532h-114v342l-150 -342h-131z" />
<glyph unicode="&#x439;" horiz-adv-x="496" d="M53 0v532h114v-343l150 343h131v-532h-114v342l-150 -342h-131zM118 750h54q7 -38 26 -53.5t59 -15.5t58.5 15t26.5 54h53q-15 -146 -143 -146q-121 0 -134 146z" />
<glyph unicode="&#x43a;" d="M57 0v532h114v-186l144 186h141l-202 -250l207 -282h-138l-152 208v-208h-114z" />
<glyph unicode="&#x43b;" horiz-adv-x="496" d="M17 0v115q14 0 30 32.5t28 96t12 137.5v151h361v-532h-114v418h-133v-31q0 -39 -5 -85.5t-18.5 -101.5t-33 -98.5t-53 -72.5t-74.5 -29z" />
<glyph unicode="&#x43c;" horiz-adv-x="646" d="M53 0v532h178l91 -396l93 396h178v-532h-114v335l-99 -335h-121l-92 313v-313h-114z" />
<glyph unicode="&#x43d;" horiz-adv-x="496" d="M53 0v532h114v-197h167v197h114v-532h-114v221h-167v-221h-114z" />
<glyph unicode="&#x43e;" horiz-adv-x="501" d="M28 265q0 129 61 205t165 76q100 0 160 -77t60 -204t-61 -203t-162 -76t-162 76t-61 203zM146 266q0 -79 27 -120.5t78 -41.5t78 41.5t27 120.5q0 78 -27 120t-77 42q-106 0 -106 -162z" />
<glyph unicode="&#x43f;" horiz-adv-x="501" d="M53 0v532h395v-532h-114v418h-167v-418h-114z" />
<glyph unicode="&#x440;" horiz-adv-x="501" d="M51 -207v739h110v-80q25 50 55 72t74 22q83 0 133.5 -75t50.5 -199q0 -131 -50 -208.5t-135 -77.5q-44 0 -72.5 19.5t-51.5 65.5v-278h-114zM161 260q0 -77 25.5 -118t73.5 -41q44 0 70 44.5t26 119.5q0 74 -26 116.5t-72 42.5q-97 0 -97 -164z" />
<glyph unicode="&#x441;" d="M28 259q0 135 55 211t152 76q54 0 97.5 -24.5t68.5 -69.5q22 -41 29 -110h-116q-8 45 -25.5 65.5t-48.5 20.5q-94 0 -94 -163q0 -164 87 -164q33 0 54.5 25.5t25.5 67.5h116q-13 -101 -64 -154.5t-136 -53.5q-97 0 -149 71t-52 202z" />
<glyph unicode="&#x442;" horiz-adv-x="368" d="M8 432v100h352v-100h-119v-432h-114v432h-119z" />
<glyph unicode="&#x443;" d="M8 532h128l94 -396l90 396h122l-150 -523q-44 -154 -68 -186q-27 -37 -98 -37l-55 2v112q16 -2 24 -2q37 0 51.5 15.5t22.5 64.5z" />
<glyph unicode="&#x444;" horiz-adv-x="786" d="M27 272q0 124 50.5 199t133.5 75q94 0 125 -94v185h114v-185q23 53 51.5 73.5t73.5 20.5q83 0 133.5 -75t50.5 -199q0 -131 -50 -208.5t-135 -77.5q-44 0 -72.5 19.5t-51.5 65.5v-278h-114v278q-23 -46 -51.5 -65.5t-72.5 -19.5q-85 0 -135 77.5t-50 208.5zM145 265 q0 -75 26 -119.5t70 -44.5q48 0 73.5 41t25.5 118q0 164 -97 164q-46 0 -72 -42.5t-26 -116.5zM446 260q0 -77 25.5 -118t73.5 -41q44 0 70 44.5t26 119.5q0 74 -26 116.5t-72 42.5q-97 0 -97 -164z" />
<glyph unicode="&#x445;" d="M12 0l149 271l-143 261h139l74 -155l73 155h135l-144 -261l149 -271h-142l-76 160l-75 -160h-139z" />
<glyph unicode="&#x446;" horiz-adv-x="576" d="M53 0v532h114v-418h167v418h114v-422h114v-230h-104v120h-405z" />
<glyph unicode="&#x447;" horiz-adv-x="451" d="M35 315v217h114v-214q0 -42 69 -42q26 0 48.5 10t22.5 35v211h114v-532h-114v204q-6 -7 -15 -12.5t-16.5 -8t-19.5 -3.5t-19 -1.5t-19.5 0t-15.5 0.5q-55 0 -102 38.5t-47 97.5z" />
<glyph unicode="&#x448;" horiz-adv-x="676" d="M53 0v532h114v-418h114v418h114v-418h114v418h114v-532h-570z" />
<glyph unicode="&#x449;" horiz-adv-x="747" d="M53 0v532h114v-418h114v418h114v-418h114v418h114v-422h114v-230h-104v120h-580z" />
<glyph unicode="&#x44a;" horiz-adv-x="562" d="M10 432v100h241v-203h77q29 0 54 -3t42.5 -7.5t33.5 -12.5t25 -14t18.5 -16t13 -14.5t9.5 -14t7 -10.5q22 -33 22 -77q0 -67 -51 -112q-31 -28 -70.5 -38t-116.5 -10h-176v432h-129zM251 106h84q48 0 71.5 15t23.5 51q0 56 -89 56h-90v-122z" />
<glyph unicode="&#x44b;" horiz-adv-x="682" d="M54 0v532h112v-203h77q29 0 54 -3t42.5 -7.5t33.5 -12.5t25 -14t18.5 -16t13 -14.5t9.5 -14t7 -10.5q22 -33 22 -77q0 -67 -51 -112q-31 -28 -70.5 -38t-116.5 -10h-176zM166 106h84q48 0 71.5 15t23.5 51q0 56 -89 56h-90v-122zM519 0v532h114v-532h-114z" />
<glyph unicode="&#x44c;" horiz-adv-x="478" d="M54 0v532h112v-203h77q29 0 54 -3t42.5 -7.5t33.5 -12.5t25 -14t18.5 -16t13 -14.5t9.5 -14t7 -10.5q22 -33 22 -77q0 -67 -51 -112q-31 -28 -70.5 -38t-116.5 -10h-176zM166 106h84q48 0 71.5 15t23.5 51q0 56 -89 56h-90v-122z" />
<glyph unicode="&#x44d;" d="M28 342q7 69 29 110q25 45 68.5 69.5t97.5 24.5q97 0 152 -76t55 -211q0 -131 -52 -202t-149 -71q-85 0 -136 53.5t-64 154.5h116q4 -42 25.5 -67.5t54.5 -25.5q74 0 85 120h-109v114h105q-16 93 -88 93q-31 0 -48.5 -20.5t-25.5 -65.5h-116z" />
<glyph unicode="&#x44e;" horiz-adv-x="722" d="M53 0v532h114v-197h88q15 99 73 155t147 56q100 0 160 -77t60 -204t-61 -203t-162 -76q-92 0 -150.5 63.5t-69.5 171.5h-85v-221h-114zM367 266q0 -79 27 -120.5t78 -41.5t78 41.5t27 120.5q0 78 -27 120t-77 42q-106 0 -106 -162z" />
<glyph unicode="&#x44f;" horiz-adv-x="478" d="M10 372q0 67 51 112q31 28 70.5 38t116.5 10h176v-532h-112v203l-150 -203h-138l151 207q-22 3 -40 8t-32 12.5t-23.5 13.5t-18.5 16t-12.5 14t-10 13.5t-6.5 10.5q-22 33 -22 77zM133 360q0 -56 89 -56h90v122h-84q-48 0 -71.5 -15t-23.5 -51z" />
<glyph unicode="&#x450;" d="M19 268q0 130 55 204t152 74q100 0 153.5 -76t53.5 -218v-25h-299q5 -67 29 -97.5t71 -30.5q59 0 76 58h118q-14 -50 -30 -77.5t-43 -50.5q-49 -43 -123 -43q-102 0 -157.5 73.5t-55.5 208.5zM125 778h126l77 -146h-83zM137 319h178q-12 112 -90 112q-38 0 -59 -27 t-29 -85z" />
<glyph unicode="&#x451;" d="M19 268q0 130 55 204t152 74q100 0 153.5 -76t53.5 -218v-25h-299q5 -67 29 -97.5t71 -30.5q59 0 76 58h118q-14 -50 -30 -77.5t-43 -50.5q-49 -43 -123 -43q-102 0 -157.5 73.5t-55.5 208.5zM97 614v115h103v-115h-103zM137 319h178q-12 112 -90 112q-38 0 -59 -27 t-29 -85zM257 614v115h103v-115h-103z" />
<glyph unicode="&#x452;" horiz-adv-x="511" d="M2 550v73h61v95h114v-95h148v-73h-148v-141q35 87 131 87q68 0 109 -48.5t41 -129.5v-319q0 -100 -48 -139t-140 -39v118q39 0 56.5 24.5t17.5 78.5v231q0 55 -17.5 80t-56.5 25q-43 0 -68 -33t-25 -90v-255h-114v550h-61z" />
<glyph unicode="&#x453;" horiz-adv-x="384" d="M53 0v532h318v-114h-204v-418h-114zM170 624l77 146h126l-120 -146h-83z" />
<glyph unicode="&#x454;" d="M28 259q0 135 55 211t152 76q54 0 97.5 -24.5t68.5 -69.5q22 -41 29 -110h-116q-8 45 -25.5 65.5t-48.5 20.5q-72 0 -88 -93h105v-114h-109q11 -120 85 -120q33 0 54.5 25.5t25.5 67.5h116q-13 -101 -64 -154.5t-136 -53.5q-97 0 -149 71t-52 202z" />
<glyph unicode="&#x455;" d="M25 170h118q3 -77 93 -77q35 0 55 15t20 40q0 40 -95 59q-91 17 -133 56t-42 106q0 83 48.5 130t132.5 47q83 0 131 -39q27 -22 40 -52t20 -85h-113q-6 39 -23 54t-55 15q-69 0 -69 -50q0 -41 94 -58q57 -11 99.5 -33.5t59.5 -50.5q20 -34 20 -81q0 -84 -52 -132 t-142 -48q-92 0 -148 47q-28 23 -41 52.5t-18 84.5z" />
<glyph unicode="&#x456;" horiz-adv-x="228" d="M57 0v532h114v-532h-114zM57 595v130h114v-130h-114z" />
<glyph unicode="&#x457;" horiz-adv-x="228" d="M-17 614v115h103v-115h-103zM57 0v532h114v-532h-114zM143 614v115h103v-115h-103z" />
<glyph unicode="&#x458;" horiz-adv-x="228" d="M2 -102h21q34 0 34 49v585h114v-588q0 -89 -30 -123.5t-109 -34.5h-30v112zM57 595v130h114v-130h-114z" />
<glyph unicode="&#x459;" horiz-adv-x="764" d="M17 0v115q14 0 30 32.5t28 96t12 137.5v151h359v-203h77q29 0 54 -3t42.5 -7.5t33.5 -12.5t25 -14t18.5 -16t13 -14.5t9.5 -14t7 -10.5q22 -33 22 -77q0 -67 -51 -112q-31 -28 -70.5 -38t-116.5 -10h-176v418h-133v-31q0 -39 -5 -85.5t-18.5 -101.5t-33 -98.5t-53 -72.5 t-74.5 -29zM446 106h84q48 0 71.5 15t23.5 51q0 56 -89 56h-90v-122z" />
<glyph unicode="&#x45a;" horiz-adv-x="758" d="M53 0v532h114v-197h167v197h112v-203h77q29 0 54 -3t42.5 -7.5t33.5 -12.5t25 -14t18.5 -16t13 -14.5t9.5 -14t7 -10.5q22 -33 22 -77q0 -67 -51 -112q-31 -28 -70.5 -38t-116.5 -10h-176v221h-167v-221h-114zM446 106h84q48 0 71.5 15t23.5 51q0 56 -89 56h-90v-122z " />
<glyph unicode="&#x45b;" horiz-adv-x="511" d="M2 550v73h61v95h114v-95h148v-73h-148v-141q35 87 131 87q68 0 109 -48.5t41 -129.5v-318h-114v273q0 55 -17.5 80t-56.5 25q-43 0 -68 -33t-25 -90v-255h-114v550h-61z" />
<glyph unicode="&#x45c;" d="M57 0v532h114v-186l144 186h141l-202 -250l207 -282h-138l-152 208v-208h-114zM191 624l77 146h126l-120 -146h-83z" />
<glyph unicode="&#x45d;" horiz-adv-x="496" d="M53 0v532h114v-343l150 343h131v-532h-114v342l-150 -342h-131zM149 778h126l77 -146h-83z" />
<glyph unicode="&#x45e;" d="M8 532h128l94 -396l90 396h122l-150 -523q-44 -154 -68 -186q-27 -37 -98 -37l-55 2v112q16 -2 24 -2q37 0 51.5 15.5t22.5 64.5zM94 750h54q7 -38 26 -53.5t59 -15.5t58.5 15t26.5 54h53q-15 -146 -143 -146q-121 0 -134 146z" />
<glyph unicode="&#x45f;" horiz-adv-x="454" d="M28 0v532h115v-421h167v421h115v-532h-153v-122h-91v122h-153z" />
<glyph unicode="&#x48c;" horiz-adv-x="547" d="M-5 575v73h67v70h123v-70h93v-73h-93v-117h141q85 0 136.5 -64t51.5 -171q0 -101 -50 -162t-133 -61h-269v575h-67zM185 123h98q58 0 83 24t25 79q0 109 -92 109h-114v-212z" />
<glyph unicode="&#x48d;" horiz-adv-x="478" d="M-5 395v73h59v64h112v-64h112v-73h-112v-66h104q52 0 90.5 -12t58.5 -29t31.5 -42t14.5 -44t3 -42q0 -83 -50.5 -121.5t-168.5 -38.5h-195v395h-59zM166 106h84q48 0 71.5 15t23.5 51q0 56 -89 56h-90v-122z" />
<glyph unicode="&#x48e;" horiz-adv-x="547" d="M62 0v718h269q83 0 133 -61t50 -162q0 -107 -51.5 -171t-136.5 -64h-141v-260h-123zM185 383h114q92 0 92 109q0 55 -25 79t-83 24h-98v-212z" />
<glyph unicode="&#x48f;" horiz-adv-x="501" d="M51 -207v739h110v-80q25 50 55 72t74 22q83 0 133.5 -75t50.5 -199q0 -131 -50 -208.5t-135 -77.5q-44 0 -72.5 19.5t-51.5 65.5v-278h-114zM161 260q0 -77 25.5 -118t73.5 -41q44 0 70 44.5t26 119.5q0 74 -26 116.5t-72 42.5q-97 0 -97 -164z" />
<glyph unicode="&#x490;" horiz-adv-x="501" d="M62 0v718h296v104h123v-231h-296v-591h-123z" />
<glyph unicode="&#x491;" horiz-adv-x="384" d="M53 0v532l210 1v107h108v-222h-204v-418h-114z" />
<glyph unicode="&#x492;" horiz-adv-x="501" d="M0 425v98h62v195h419v-127h-296v-68h174v-98h-174v-425h-123v425h-62z" />
<glyph unicode="&#x493;" horiz-adv-x="384" d="M0 256v89h53v187h318v-114h-204v-73h113v-89h-113v-256h-114v256h-53z" />
<glyph unicode="&#x494;" horiz-adv-x="501" d="M62 0v718h419v-127h-296v-591h-123z" />
<glyph unicode="&#x495;" horiz-adv-x="384" d="M53 0v532h318v-114h-204v-418h-114z" />
<glyph unicode="&#x496;" horiz-adv-x="878" d="M0 0l292 374l-278 344h159l205 -258v258h122v-258l205 258h159l-278 -344l198 -254h94v-240h-107v120h-51l-220 284v-284h-122v284l-220 -284h-158z" />
<glyph unicode="&#x497;" horiz-adv-x="684" d="M-5 0l207 282l-202 250h141l144 -186v186h114v-186l144 186h141l-202 -250l126 -172h81v-230h-104v120h-34l-152 208v-208h-115l1 208l-152 -208h-138z" />
<glyph unicode="&#x498;" horiz-adv-x="547" d="M32 221h118q7 -117 128 -117q57 0 88.5 24t31.5 68t-24.5 78t-82.5 34h-79v117h108q32 0 47 32t15 70q0 40 -28 63.5t-77 23.5q-55 0 -83 -26t-35 -83h-118q7 113 66.5 172.5t165.5 59.5q105 0 164.5 -60t59.5 -165q0 -95 -50 -143q69 -48 69 -155q0 -108 -64 -170.5 t-175 -62.5q-159 0 -218 117q-24 49 -27 123z" />
<glyph unicode="&#x499;" d="M25 170h118q3 -77 93 -77q35 0 55 15t20 40q0 29 -16 51.5t-60 23.5l-47 1v92l37 1q33 1 51 14t21.5 26t3.5 32q0 50 -69 50q-38 0 -55 -15t-23 -54h-113q7 55 20 85t40 52q48 39 131 39q84 0 132.5 -47t48.5 -130q0 -53 -27 -89l20 -33q20 -31 20 -81q0 -84 -52 -132 t-142 -48q-92 0 -148 47q-28 23 -41 52.5t-18 84.5z" />
<glyph unicode="&#x49a;" horiz-adv-x="592" d="M71 0v718h123v-258l225 258h159l-298 -344l212 -254h100v-240h-107v120h-51l-240 284v-284h-123z" />
<glyph unicode="&#x49b;" d="M57 0v532h114v-186l144 186h141l-202 -250l126 -172h81v-230h-104v120h-34l-152 208v-208h-114z" />
<glyph unicode="&#x49c;" horiz-adv-x="592" d="M71 0v718h123v-258l225 258h159l-298 -344l312 -374h-158l-240 284v-284h-123z" />
<glyph unicode="&#x49d;" d="M57 0v532h114v-186l144 186h141l-202 -250l207 -282h-138l-152 208v-208h-114z" />
<glyph unicode="&#x49e;" horiz-adv-x="592" d="M71 0v718h123v-258l225 258h159l-298 -344l312 -374h-158l-240 284v-284h-123z" />
<glyph unicode="&#x49f;" d="M57 0v532h114v-186l144 186h141l-202 -250l207 -282h-138l-152 208v-208h-114z" />
<glyph unicode="&#x4a0;" horiz-adv-x="592" d="M71 0v718h123v-258l225 258h159l-298 -344l312 -374h-158l-240 284v-284h-123z" />
<glyph unicode="&#x4a1;" d="M57 0v532h114v-186l144 186h141l-202 -250l207 -282h-138l-152 208v-208h-114z" />
<glyph unicode="&#x4a2;" horiz-adv-x="592" d="M58 0v718h123v-272h230v272h123v-718h-123v323h-230v-323h-123z" />
<glyph unicode="&#x4a3;" horiz-adv-x="496" d="M53 0v532h114v-197h167v197h114v-532h-114v221h-167v-221h-114z" />
<glyph unicode="&#x4a4;" horiz-adv-x="592" d="M58 0v718h476v-718h-123v595h-230v-595h-123z" />
<glyph unicode="&#x4a5;" horiz-adv-x="501" d="M53 0v532h395v-532h-114v418h-167v-418h-114z" />
<glyph unicode="&#x4a6;" horiz-adv-x="592" d="M36 357q0 175 73.5 277.5t199.5 102.5q70 0 125.5 -33t89.5 -94q29 -53 37 -127h-123q-7 29 -16 50t-23.5 38.5t-36.5 26.5t-50 9q-71 0 -111 -66.5t-40 -184.5q0 -115 39 -180t108 -65q66 0 102 56q16 26 28 79h123q-12 -63 -26 -100t-40 -72q-69 -93 -189 -93 q-125 0 -197.5 100.5t-72.5 275.5z" />
<glyph unicode="&#x4a7;" d="M28 259q0 135 55 211t152 76q54 0 97.5 -24.5t68.5 -69.5q22 -41 29 -110h-116q-8 45 -25.5 65.5t-48.5 20.5q-94 0 -94 -163q0 -164 87 -164q33 0 54.5 25.5t25.5 67.5h116q-13 -101 -64 -154.5t-136 -53.5q-97 0 -149 71t-52 202z" />
<glyph unicode="&#x4a8;" horiz-adv-x="592" d="M36 357q0 175 73.5 277.5t199.5 102.5q70 0 125.5 -33t89.5 -94q29 -53 37 -127h-123q-7 29 -16 50t-23.5 38.5t-36.5 26.5t-50 9q-71 0 -111 -66.5t-40 -184.5q0 -115 39 -180t108 -65q66 0 102 56q16 26 28 79h123q-12 -63 -26 -100t-40 -72q-69 -93 -189 -93 q-125 0 -197.5 100.5t-72.5 275.5z" />
<glyph unicode="&#x4a9;" d="M28 259q0 135 55 211t152 76q54 0 97.5 -24.5t68.5 -69.5q22 -41 29 -110h-116q-8 45 -25.5 65.5t-48.5 20.5q-94 0 -94 -163q0 -164 87 -164q33 0 54.5 25.5t25.5 67.5h116q-13 -101 -64 -154.5t-136 -53.5q-97 0 -149 71t-52 202z" />
<glyph unicode="&#x4aa;" horiz-adv-x="501" d="M11 591v127h479v-127h-178v-471h92v-240h-107v120h-108v591h-178z" />
<glyph unicode="&#x4ab;" horiz-adv-x="368" d="M8 432v100h352v-100h-119v-322h89v-230h-104v120h-99v432h-119z" />
<glyph unicode="&#x4ac;" horiz-adv-x="547" d="M12 718h145l122 -312l117 312h139l-197 -449v-269h-123v271z" />
<glyph unicode="&#x4ad;" horiz-adv-x="547" d="M32 532h145l102 -312l97 312h139l-177 -449v-269h-123v271z" />
<glyph unicode="&#x4ae;" horiz-adv-x="547" d="M12 718h145l122 -312l117 312h139l-197 -449v-23h170v-100h-170v-146h-123v146h-170v100h170v25z" />
<glyph unicode="&#x4af;" horiz-adv-x="547" d="M32 532h145l102 -312l97 312h139l-177 -447h170v-92h-170v-179h-123v179h-170v92h170z" />
<glyph unicode="&#x4b0;" horiz-adv-x="547" d="M11 0l190 367l-179 351h146l105 -232l108 232h142l-180 -345l130 -253h62v-240h-107v120h-43l-112 245l-118 -245h-144z" />
<glyph unicode="&#x4b1;" d="M12 0l149 271l-143 261h139l74 -155l73 155h135l-144 -261l88 -161h61v-230h-104v120h-38l-76 160l-75 -160h-139z" />
<glyph unicode="&#x4b2;" horiz-adv-x="676" d="M58 0v718h123v-595h230v595h123v-598h117v-240h-107v120h-486z" />
<glyph unicode="&#x4b3;" horiz-adv-x="576" d="M53 0v532h114v-418h167v418h114v-422h114v-230h-104v120h-405z" />
<glyph unicode="&#x4b4;" horiz-adv-x="562" d="M50 417v301h123v-297q0 -30 35.5 -43.5t73.5 -13.5q30 0 64.5 14.5t34.5 42.5v297h123v-718h-123v268q-38 -27 -123 -27q-99 0 -153.5 44.5t-54.5 131.5z" />
<glyph unicode="&#x4b5;" horiz-adv-x="451" d="M35 315v217h114v-214q0 -42 69 -42q26 0 48.5 10t22.5 35v211h114v-532h-114v204q-6 -7 -15 -12.5t-16.5 -8t-19.5 -3.5t-19 -1.5t-19.5 0t-15.5 0.5q-55 0 -102 38.5t-47 97.5z" />
<glyph unicode="&#x4b6;" horiz-adv-x="562" d="M50 417v301h123v-297q0 -30 35.5 -43.5t73.5 -13.5q30 0 64.5 14.5t34.5 42.5v297h123v-718h-123v268q-38 -27 -123 -27q-99 0 -153.5 44.5t-54.5 131.5z" />
<glyph unicode="&#x4b7;" horiz-adv-x="451" d="M35 315v217h114v-214q0 -42 69 -42q26 0 48.5 10t22.5 35v211h114v-532h-114v204q-6 -7 -15 -12.5t-16.5 -8t-19.5 -3.5t-19 -1.5t-19.5 0t-15.5 0.5q-55 0 -102 38.5t-47 97.5z" />
<glyph unicode="&#x4b8;" horiz-adv-x="562" d="M50 0v718h123v-268q38 27 123 27q99 0 153.5 -44.5t54.5 -131.5v-301h-123v297q0 30 -35.5 43.5t-73.5 13.5q-30 0 -64.5 -14.5t-34.5 -42.5v-297h-123z" />
<glyph unicode="&#x4b9;" horiz-adv-x="451" d="M35 0v532h114v-204q6 7 15 12.5t16.5 8t19.5 3.5t19 1.5t19.5 0t15.5 -0.5q55 0 102 -38.5t47 -97.5v-217h-114v214q0 42 -69 42q-26 0 -48.5 -10t-22.5 -35v-211h-114z" />
<glyph unicode="&#x4ba;" horiz-adv-x="592" d="M36 357q0 175 73.5 277.5t199.5 102.5q70 0 125.5 -33t89.5 -94q29 -53 37 -127h-123q-7 29 -16 50t-23.5 38.5t-36.5 26.5t-50 9q-71 0 -111 -66.5t-40 -184.5q0 -115 39 -180t108 -65q66 0 102 56q16 26 28 79h123q-12 -63 -26 -100t-40 -72q-69 -93 -189 -93 q-125 0 -197.5 100.5t-72.5 275.5z" />
<glyph unicode="&#x4bb;" d="M28 259q0 135 55 211t152 76q54 0 97.5 -24.5t68.5 -69.5q22 -41 29 -110h-116q-8 45 -25.5 65.5t-48.5 20.5q-94 0 -94 -163q0 -164 87 -164q33 0 54.5 25.5t25.5 67.5h116q-13 -101 -64 -154.5t-136 -53.5q-97 0 -149 71t-52 202z" />
<glyph unicode="&#x4bc;" horiz-adv-x="592" d="M36 357q0 175 73.5 277.5t199.5 102.5q70 0 125.5 -33t89.5 -94q29 -53 37 -127h-123q-7 29 -16 50t-23.5 38.5t-36.5 26.5t-50 9q-71 0 -111 -66.5t-40 -184.5q0 -115 39 -180t108 -65q66 0 102 56q16 26 28 79h123q-12 -63 -26 -100t-40 -72q-69 -93 -189 -93 q-125 0 -197.5 100.5t-72.5 275.5z" />
<glyph unicode="&#x4bd;" d="M28 259q0 135 55 211t152 76q54 0 97.5 -24.5t68.5 -69.5q22 -41 29 -110h-116q-8 45 -25.5 65.5t-48.5 20.5q-94 0 -94 -163q0 -164 87 -164q33 0 54.5 25.5t25.5 67.5h116q-13 -101 -64 -154.5t-136 -53.5q-97 0 -149 71t-52 202z" />
<glyph unicode="&#x4be;" horiz-adv-x="228" d="M52 0v718h123v-718h-123z" />
<glyph unicode="&#x4bf;" horiz-adv-x="878" d="M0 0l292 374l-278 344h159l205 -258v258h122v-258l205 258h159l-278 -344l292 -374h-158l-220 284v-284h-122v284l-220 -284h-158zM300 964h54q7 -38 26 -53.5t59 -15.5t58.5 15t26.5 54h53q-15 -146 -143 -146q-121 0 -134 146z" />
<glyph unicode="&#x4c0;" horiz-adv-x="684" d="M-5 0l207 282l-202 250h141l144 -186v186h114v-186l144 186h141l-202 -250l207 -282h-138l-152 208v-208h-115l1 208l-152 -208h-138zM204 778h54q7 -38 26 -53.5t59 -15.5t58.5 15t26.5 54h53q-15 -146 -143 -146q-121 0 -134 146z" />
<glyph unicode="&#x4c1;" horiz-adv-x="592" d="M71 0v718h123v-258l225 258h159l-298 -344l312 -374h-158l-240 284v-284h-123z" />
<glyph unicode="&#x4c2;" d="M57 0v532h114v-186l144 186h141l-202 -250l207 -282h-138l-152 208v-208h-114z" />
<glyph unicode="&#x4c3;" horiz-adv-x="592" d="M58 0v718h123v-272h230v272h123v-718h-123v323h-230v-323h-123z" />
<glyph unicode="&#x4c4;" horiz-adv-x="496" d="M53 0v532h114v-197h167v197h114v-532h-114v221h-167v-221h-114z" />
<glyph unicode="&#x4c7;" horiz-adv-x="562" d="M50 417v301h123v-297q0 -30 35.5 -43.5t73.5 -13.5q30 0 64.5 14.5t34.5 42.5v297h123v-718h-123v268q-38 -27 -123 -27q-99 0 -153.5 44.5t-54.5 131.5z" />
<glyph unicode="&#x4c8;" horiz-adv-x="451" d="M35 315v217h114v-214q0 -42 69 -42q26 0 48.5 10t22.5 35v211h114v-532h-114v204q-6 -7 -15 -12.5t-16.5 -8t-19.5 -3.5t-19 -1.5t-19.5 0t-15.5 0.5q-55 0 -102 38.5t-47 97.5z" />
<glyph unicode="&#x4cb;" horiz-adv-x="592" d="M16 0l210 718h142l208 -718h-134l-38 148h-217l-41 -148h-130zM158 964h54q7 -38 26 -53.5t59 -15.5t58.5 15t26.5 54h53q-15 -146 -143 -146q-121 0 -134 146zM220 271h150l-74 288z" />
<glyph unicode="&#x4cc;" d="M24 142q0 70 33.5 114t94.5 55l103 19q40 7 40 44q0 60 -71 60q-37 0 -54 -16.5t-22 -57.5h-110q10 96 53 141t138 45q85 0 131.5 -40.5t46.5 -113.5v-288q0 -70 25 -83v-21h-123q-7 27 -11 63q-34 -43 -65 -60t-73 -17q-63 0 -99.5 42t-36.5 114zM28 778h54 q7 -38 26 -53.5t59 -15.5t58.5 15t26.5 54h53q-15 -146 -143 -146q-121 0 -134 146zM139 151q0 -30 15 -47.5t40 -17.5q42 0 71.5 30.5t29.5 74.5v68q-19 -17 -78 -29q-43 -9 -60.5 -27t-17.5 -52z" />
<glyph unicode="&#x4d0;" horiz-adv-x="592" d="M16 0l210 718h142l208 -718h-134l-38 148h-217l-41 -148h-130zM165 818v115h103v-115h-103zM220 271h150l-74 288zM325 818v115h103v-115h-103z" />
<glyph unicode="&#x4d1;" d="M24 142q0 70 33.5 114t94.5 55l103 19q40 7 40 44q0 60 -71 60q-37 0 -54 -16.5t-22 -57.5h-110q10 96 53 141t138 45q85 0 131.5 -40.5t46.5 -113.5v-288q0 -70 25 -83v-21h-123q-7 27 -11 63q-34 -43 -65 -60t-73 -17q-63 0 -99.5 42t-36.5 114zM35 632v115h103v-115 h-103zM139 151q0 -30 15 -47.5t40 -17.5q42 0 71.5 30.5t29.5 74.5v68q-19 -17 -78 -29q-43 -9 -60.5 -27t-17.5 -52zM195 632v115h103v-115h-103z" />
<glyph unicode="&#x4d2;" horiz-adv-x="820" d="M4 0l215 718h557v-127h-304v-151h274v-127h-274v-186h310v-127h-430v153h-176l-43 -153h-129zM208 271h144v320h-53z" />
<glyph unicode="&#x4d3;" horiz-adv-x="729" d="M24 147q0 62 29 102.5t82 51.5l107 22q39 8 49 17t10 34q0 31 -18 45.5t-58 14.5q-37 0 -54 -18t-19 -57h-112q7 73 32 113q48 74 159 74q82 0 140 -59q34 33 63.5 46t68.5 13q87 0 139 -65q62 -77 62 -229v-25h-299q5 -67 29 -97.5t71 -30.5q59 0 76 58h118 q-14 -50 -30 -77.5t-43 -50.5q-50 -43 -125 -43q-57 0 -91.5 19t-65.5 67q-51 -86 -165 -86q-75 0 -115 42t-40 119zM139 151q0 -31 16 -48t45 -17q39 0 69 31t30 71v66q-16 -17 -85 -30q-44 -8 -59.5 -23.5t-15.5 -49.5zM408 319h178q-12 112 -90 112q-38 0 -59 -27 t-29 -85z" />
<glyph unicode="&#x4d4;" horiz-adv-x="547" d="M62 0v718h433v-127h-313v-151h288v-127h-288v-186h327v-127h-447zM140 964h54q7 -38 26 -53.5t59 -15.5t58.5 15t26.5 54h53q-15 -146 -143 -146q-121 0 -134 146z" />
<glyph unicode="&#x4d5;" d="M19 268q0 130 55 204t152 74q100 0 153.5 -76t53.5 -218v-25h-299q5 -67 29 -97.5t71 -30.5q59 0 76 58h118q-14 -50 -30 -77.5t-43 -50.5q-49 -43 -123 -43q-102 0 -157.5 73.5t-55.5 208.5zM88 778h54q7 -38 26 -53.5t59 -15.5t58.5 15t26.5 54h53q-15 -146 -143 -146 q-121 0 -134 146zM137 319h178q-12 112 -90 112q-38 0 -59 -27t-29 -85z" />
<glyph unicode="&#x4d6;" horiz-adv-x="592" d="M36 235h123q14 -60 42.5 -92t83.5 -32q71 0 111 66.5t40 184.5q0 115 -39 180t-108 65q-66 0 -102 -56q-16 -26 -28 -79h-123q12 63 26 100t40 72q69 93 189 93q125 0 197.5 -100.5t72.5 -275.5t-73.5 -277.5t-199.5 -102.5q-70 0 -125.5 33t-89.5 94q-29 53 -37 127z " />
<glyph unicode="&#x4d7;" d="M28 342q7 69 29 110q25 45 68.5 69.5t97.5 24.5q97 0 152 -76t55 -211q0 -131 -52 -202t-149 -71q-85 0 -136 53.5t-64 154.5h116q4 -42 25.5 -67.5t54.5 -25.5q87 0 87 164q0 163 -94 163q-31 0 -48.5 -20.5t-25.5 -65.5h-116z" />
<glyph unicode="&#x4d8;" horiz-adv-x="592" d="M36 235h123q14 -60 42.5 -92t83.5 -32q71 0 111 66.5t40 184.5q0 115 -39 180t-108 65q-66 0 -102 -56q-16 -26 -28 -79h-123q12 63 26 100t40 72q69 93 189 93q125 0 197.5 -100.5t72.5 -275.5t-73.5 -277.5t-199.5 -102.5q-70 0 -125.5 33t-89.5 94q-29 53 -37 127z M105 818v115h103v-115h-103zM265 818v115h103v-115h-103z" />
<glyph unicode="&#x4d9;" d="M28 342q7 69 29 110q25 45 68.5 69.5t97.5 24.5q97 0 152 -76t55 -211q0 -131 -52 -202t-149 -71q-85 0 -136 53.5t-64 154.5h116q4 -42 25.5 -67.5t54.5 -25.5q87 0 87 164q0 163 -94 163q-31 0 -48.5 -20.5t-25.5 -65.5h-116zM39 632v115h103v-115h-103zM199 632v115 h103v-115h-103z" />
<glyph unicode="&#x4da;" horiz-adv-x="878" d="M0 0l292 374l-278 344h159l205 -258v258h122v-258l205 258h159l-278 -344l292 -374h-158l-220 284v-284h-122v284l-220 -284h-158zM307 818v115h103v-115h-103zM467 818v115h103v-115h-103z" />
<glyph unicode="&#x4db;" horiz-adv-x="684" d="M-5 0l207 282l-202 250h141l144 -186v186h114v-186l144 186h141l-202 -250l207 -282h-138l-152 208v-208h-115l1 208l-152 -208h-138zM211 632v115h103v-115h-103zM371 632v115h103v-115h-103z" />
<glyph unicode="&#x4dc;" horiz-adv-x="547" d="M32 221h118q7 -117 128 -117q57 0 88.5 24t31.5 68t-24.5 78t-82.5 34h-79v117h108q32 0 47 32t15 70q0 40 -28 63.5t-77 23.5q-55 0 -83 -26t-35 -83h-118q7 113 66.5 172.5t165.5 59.5q105 0 164.5 -60t59.5 -165q0 -95 -50 -143q69 -48 69 -155q0 -108 -64 -170.5 t-175 -62.5q-159 0 -218 117q-24 49 -27 123zM139 818v115h103v-115h-103zM299 818v115h103v-115h-103z" />
<glyph unicode="&#x4dd;" d="M25 170h118q3 -77 93 -77q35 0 55 15t20 40q0 29 -16 51.5t-60 23.5l-47 1v92l37 1q33 1 51 14t21.5 26t3.5 32q0 50 -69 50q-38 0 -55 -15t-23 -54h-113q7 55 20 85t40 52q48 39 131 39q84 0 132.5 -47t48.5 -130q0 -53 -27 -89l20 -33q20 -31 20 -81q0 -84 -52 -132 t-142 -48q-92 0 -148 47q-28 23 -41 52.5t-18 84.5zM95 632v115h103v-115h-103zM255 632v115h103v-115h-103z" />
<glyph unicode="&#x4de;" horiz-adv-x="547" d="M32 221h118q7 -117 128 -117q57 0 88.5 24t31.5 68t-24.5 78t-82.5 34h-79v117h108q32 0 47 32t15 70q0 40 -28 63.5t-77 23.5q-55 0 -83 -26t-35 -83h-118q7 113 66.5 172.5t165.5 59.5q105 0 164.5 -60t59.5 -165q0 -95 -50 -143q69 -48 69 -155q0 -108 -64 -170.5 t-175 -62.5q-159 0 -218 117q-24 49 -27 123z" />
<glyph unicode="&#x4df;" d="M25 170h118q3 -77 93 -77q35 0 55 15t20 40q0 29 -16 51.5t-60 23.5l-47 1v92l37 1q33 1 51 14t21.5 26t3.5 32q0 50 -69 50q-38 0 -55 -15t-23 -54h-113q7 55 20 85t40 52q48 39 131 39q84 0 132.5 -47t48.5 -130q0 -53 -27 -89l20 -33q20 -31 20 -81q0 -84 -52 -132 t-142 -48q-92 0 -148 47q-28 23 -41 52.5t-18 84.5z" />
<glyph unicode="&#x4e0;" horiz-adv-x="592" d="M57 0v718h114v-515l243 515h122v-718h-114v504l-236 -504h-129zM155 818v73h283v-73h-283z" />
<glyph unicode="&#x4e1;" horiz-adv-x="496" d="M53 0v532h114v-343l150 343h131v-532h-114v342l-150 -342h-131zM109 632v73h283v-73h-283z" />
<glyph unicode="&#x4e2;" horiz-adv-x="592" d="M57 0v718h114v-515l243 515h122v-718h-114v504l-236 -504h-129zM165 818v115h103v-115h-103zM325 818v115h103v-115h-103z" />
<glyph unicode="&#x4e3;" horiz-adv-x="496" d="M53 0v532h114v-343l150 343h131v-532h-114v342l-150 -342h-131zM119 632v115h103v-115h-103zM279 632v115h103v-115h-103z" />
<glyph unicode="&#x4e4;" horiz-adv-x="638" d="M36 358q0 186 81 284q78 95 206 95q56 0 108.5 -25.5t89.5 -69.5q81 -98 81 -283t-81 -283q-78 -95 -202 -95q-77 0 -141 41t-99 113q-43 91 -43 223zM159 361q0 -119 42.5 -186t117.5 -67t117.5 67.5t42.5 186.5q0 131 -54 196q-41 52 -104 52q-76 0 -119 -66.5 t-43 -182.5zM187 818v115h103v-115h-103zM347 818v115h103v-115h-103z" />
<glyph unicode="&#x4e5;" horiz-adv-x="501" d="M28 265q0 129 61 205t165 76q100 0 160 -77t60 -204t-61 -203t-162 -76t-162 76t-61 203zM119 632v115h103v-115h-103zM146 266q0 -79 27 -120.5t78 -41.5t78 41.5t27 120.5q0 78 -27 120t-77 42q-106 0 -106 -162zM279 632v115h103v-115h-103z" />
<glyph unicode="&#x4e6;" horiz-adv-x="638" d="M36 358q0 186 81 284q78 95 206 95q56 0 108.5 -25.5t89.5 -69.5q81 -98 81 -283t-81 -283q-78 -95 -202 -95q-77 0 -141 41t-99 113q-43 91 -43 223zM160 324q7 -102 48.5 -159t110.5 -57t110.5 57t48.5 159h-318zM160 397h318q-8 107 -53 161q-41 52 -104 52 q-69 0 -111.5 -56.5t-49.5 -156.5z" />
<glyph unicode="&#x4e7;" horiz-adv-x="501" d="M28 265q0 129 61 205t165 76q100 0 160 -77t60 -204t-61 -203t-162 -76t-162 76t-61 203zM147 301h207q-5 62 -31.5 94.5t-70.5 32.5q-93 0 -105 -127zM148 228q12 -124 103 -124t103 124h-206z" />
<glyph unicode="&#x4e8;" horiz-adv-x="638" d="M36 358q0 186 81 284q78 95 206 95q56 0 108.5 -25.5t89.5 -69.5q81 -98 81 -283t-81 -283q-78 -95 -202 -95q-77 0 -141 41t-99 113q-43 91 -43 223zM160 324q7 -102 48.5 -159t110.5 -57t110.5 57t48.5 159h-318zM160 397h318q-8 107 -53 161q-41 52 -104 52 q-69 0 -111.5 -56.5t-49.5 -156.5zM187 818v115h103v-115h-103zM347 818v115h103v-115h-103z" />
<glyph unicode="&#x4e9;" horiz-adv-x="501" d="M28 265q0 129 61 205t165 76q100 0 160 -77t60 -204t-61 -203t-162 -76t-162 76t-61 203zM119 632v115h103v-115h-103zM147 301h207q-5 62 -31.5 94.5t-70.5 32.5q-93 0 -105 -127zM148 228q12 -124 103 -124t103 124h-206zM279 632v115h103v-115h-103z" />
<glyph unicode="&#x4ea;" horiz-adv-x="592" d="M36 246h123q12 -53 28 -79q36 -56 102 -56q62 0 100 53.5t45 148.5h-211v127h207q-13 80 -50.5 123.5t-94.5 43.5q-55 0 -83.5 -32t-42.5 -92h-123q8 74 37 127q34 61 89.5 94t125.5 33q126 0 199.5 -102.5t73.5 -277.5t-72.5 -275.5t-197.5 -100.5q-120 0 -189 93 q-26 35 -40 72t-26 100zM101 818v115h103v-115h-103zM261 818v115h103v-115h-103z" />
<glyph unicode="&#x4eb;" d="M28 342q7 69 29 110q25 45 68.5 69.5t97.5 24.5q97 0 152 -76t55 -211q0 -131 -52 -202t-149 -71q-85 0 -136 53.5t-64 154.5h116q4 -42 25.5 -67.5t54.5 -25.5q74 0 85 120h-109v114h105q-16 93 -88 93q-31 0 -48.5 -20.5t-25.5 -65.5h-116zM35 632v115h103v-115h-103z M195 632v115h103v-115h-103z" />
<glyph unicode="&#x4ec;" horiz-adv-x="547" d="M12 718h145l127 -290l112 290h139l-310 -718h-139l128 282zM132 818v73h283v-73h-283z" />
<glyph unicode="&#x4ed;" d="M8 532h128l94 -396l90 396h122l-150 -523q-44 -154 -68 -186q-27 -37 -98 -37l-55 2v112q16 -2 24 -2q37 0 51.5 15.5t22.5 64.5zM83 632v73h283v-73h-283z" />
<glyph unicode="&#x4ee;" horiz-adv-x="547" d="M12 718h145l127 -290l112 290h139l-310 -718h-139l128 282zM142 818v115h103v-115h-103zM302 818v115h103v-115h-103z" />
<glyph unicode="&#x4ef;" d="M8 532h128l94 -396l90 396h122l-150 -523q-44 -154 -68 -186q-27 -37 -98 -37l-55 2v112q16 -2 24 -2q37 0 51.5 15.5t22.5 64.5zM93 632v115h103v-115h-103zM253 632v115h103v-115h-103z" />
<glyph unicode="&#x4f0;" horiz-adv-x="547" d="M12 718h145l127 -290l112 290h139l-310 -718h-139l128 282zM77 818l77 146h127l-121 -146h-83zM265 818l77 146h127l-121 -146h-83z" />
<glyph unicode="&#x4f1;" d="M8 532h128l94 -396l90 396h122l-150 -523q-44 -154 -68 -186q-27 -37 -98 -37l-55 2v112q16 -2 24 -2q37 0 51.5 15.5t22.5 64.5zM29 632l77 146h127l-121 -146h-83zM217 632l77 146h127l-121 -146h-83z" />
<glyph unicode="&#x4f2;" horiz-adv-x="562" d="M50 417v301h123v-297q0 -30 35.5 -43.5t73.5 -13.5q30 0 64.5 14.5t34.5 42.5v297h123v-718h-123v268q-38 -27 -123 -27q-99 0 -153.5 44.5t-54.5 131.5zM145 797v115h103v-115h-103zM305 797v115h103v-115h-103z" />
<glyph unicode="&#x4f3;" horiz-adv-x="451" d="M35 315v217h114v-214q0 -42 69 -42q26 0 48.5 10t22.5 35v211h114v-532h-114v204q-6 -7 -15 -12.5t-16.5 -8t-19.5 -3.5t-19 -1.5t-19.5 0t-15.5 0.5q-55 0 -102 38.5t-47 97.5zM87 606v115h103v-115h-103zM247 606v115h103v-115h-103z" />
<glyph unicode="&#x4f4;" horiz-adv-x="728" d="M62 0v718h123v-260h141q85 0 136.5 -64t51.5 -171q0 -101 -50 -162t-133 -61h-269zM185 123h98q58 0 83 24t25 79q0 109 -92 109h-114v-212zM235 818v115h103v-115h-103zM395 818v115h103v-115h-103zM547 0v718h123v-718h-123z" />
<glyph unicode="&#x4f5;" horiz-adv-x="682" d="M54 0v532h112v-203h77q29 0 54 -3t42.5 -7.5t33.5 -12.5t25 -14t18.5 -16t13 -14.5t9.5 -14t7 -10.5q22 -33 22 -77q0 -67 -51 -112q-31 -28 -70.5 -38t-116.5 -10h-176zM166 106h84q48 0 71.5 15t23.5 51q0 56 -89 56h-90v-122zM212 632v115h103v-115h-103zM372 632v115 h103v-115h-103zM519 0v532h114v-532h-114z" />
<glyph unicode="&#x4f8;" horiz-adv-x="384" d="M53 0v532h318v-114h-204v-418h-114z" />
<glyph unicode="&#x4f9;" horiz-adv-x="501" d="M28 265q3 81 19.5 134.5t64.5 96.5q-52 26 -46.5 63t32.5 68t53 41q41 16 74 25.5t64 16t39 8.5q9 2 16 6t11 7t8 9.5t5.5 9.5t5.5 12.5t5 13.5h104q-9 -34 -13 -47t-17 -37.5t-33 -41.5q-8 -7 -15.5 -12.5t-17.5 -10t-16.5 -7.5t-18.5 -6t-17 -4.5t-19.5 -4t-17.5 -3 t-19 -2.5t-18 -2q-55 -7 -72 -31q-11 -16 14 -20q2 -1 5 -1h46q100 0 160 -77t60 -204t-61 -203t-162 -76t-162 76t-61 203zM146 266q0 -79 27 -120.5t78 -41.5t78 41.5t27 120.5q0 78 -27 120t-77 42q-106 0 -106 -162z" />
<glyph unicode="&#xe3f;" horiz-adv-x="592" d="M62 0v718h173v83h82v-83h31q85 0 133.5 -50t48.5 -137q0 -53 -17 -87t-55 -57q91 -50 91 -171q0 -90 -51 -152q-30 -36 -68.5 -49.5t-112.5 -14.5v-83h-82v83h-173zM180 123h55v192h-55v-192zM180 437h55v158h-55v-158zM317 123h14q95 0 95 102q0 43 -23.5 66.5 t-65.5 23.5h-20v-192zM317 437h7q42 0 65 21t23 61q0 76 -91 76h-4v-158z" />
<glyph unicode="&#x1e0c;" horiz-adv-x="592" d="M62 0v718h260q114 0 177 -90.5t63 -253.5q0 -165 -64 -269.5t-181 -104.5h-255zM182 123h120q64 0 99.5 65t35.5 182q0 225 -137 225h-118v-472zM244 -85h114v-115h-114v115z" />
<glyph unicode="&#x1e0d;" horiz-adv-x="501" d="M28 272q0 124 50 199t133 75q42 0 71.5 -20t55.5 -66v258h114v-718h-112v70q-41 -84 -128 -84q-84 0 -134 77.5t-50 208.5zM146 264q0 -75 26 -119t70 -44q48 0 74 41.5t26 117.5q0 78 -25 121t-71 43q-47 0 -73.5 -42t-26.5 -118zM195 -85h114v-115h-114v115z" />
<glyph unicode="&#x1e0e;" horiz-adv-x="592" d="M62 0v718h260q114 0 177 -90.5t63 -253.5q0 -165 -64 -269.5t-181 -104.5h-255zM159 -106h283v-73h-283v73zM182 123h120q64 0 99.5 65t35.5 182q0 225 -137 225h-118v-472z" />
<glyph unicode="&#x1e0f;" horiz-adv-x="501" d="M28 272q0 124 50 199t133 75q42 0 71.5 -20t55.5 -66v258h114v-718h-112v70q-41 -84 -128 -84q-84 0 -134 77.5t-50 208.5zM109 -106h283v-73h-283v73zM146 264q0 -75 26 -119t70 -44q48 0 74 41.5t26 117.5q0 78 -25 121t-71 43q-47 0 -73.5 -42t-26.5 -118z" />
<glyph unicode="&#x1e24;" horiz-adv-x="592" d="M58 0v718h123v-272h230v272h123v-718h-123v323h-230v-323h-123zM240 -85h114v-115h-114v115z" />
<glyph unicode="&#x1e25;" horiz-adv-x="501" d="M53 0v718h114v-259q35 87 131 87q68 0 109 -48.5t41 -129.5v-368h-114v323q0 55 -17.5 80t-56.5 25q-43 0 -68 -33t-25 -90v-305h-114zM195 -85h114v-115h-114v115z" />
<glyph unicode="&#x1e26;" horiz-adv-x="592" d="M58 0v718h123v-272h230v272h123v-718h-123v323h-230v-323h-123zM166 794v115h96v-115h-96zM331 794v115h96v-115h-96z" />
<glyph unicode="&#x1e27;" horiz-adv-x="501" d="M53 0v718h114v-259q35 87 131 87q68 0 109 -48.5t41 -129.5v-368h-114v323q0 55 -17.5 80t-56.5 25q-43 0 -68 -33t-25 -90v-305h-114zM120 794v115h96v-115h-96zM285 794v115h96v-115h-96z" />
<glyph unicode="&#x1e2a;" horiz-adv-x="592" d="M58 0v718h123v-272h230v272h123v-718h-123v323h-230v-323h-123zM147 -80h54q16 -25 36.5 -37t58.5 -12t57 12t28 37h63q-33 -126 -153 -126q-113 0 -144 126z" />
<glyph unicode="&#x1e2b;" horiz-adv-x="501" d="M53 0v718h114v-259q35 87 131 87q68 0 109 -48.5t41 -129.5v-368h-114v323q0 55 -17.5 80t-56.5 25q-43 0 -68 -33t-25 -90v-305h-114zM102 -80h54q16 -25 36.5 -37t58.5 -12t57 12t28 37h63q-33 -126 -153 -126q-113 0 -144 126z" />
<glyph unicode="&#x1e36;" horiz-adv-x="501" d="M62 0v718h123v-588h293v-130h-416zM214 -85h114v-115h-114v115z" />
<glyph unicode="&#x1e37;" horiz-adv-x="228" d="M57 0v718h114v-718h-114zM58 -85h114v-115h-114v115z" />
<glyph unicode="&#x1e38;" horiz-adv-x="501" d="M-18 815v73h283v-73h-283zM62 0v718h123v-588h293v-130h-416zM214 -85h114v-115h-114v115z" />
<glyph unicode="&#x1e39;" horiz-adv-x="228" d="M-27 815v73h283v-73h-283zM57 0v718h114v-718h-114zM58 -85h114v-115h-114v115z" />
<glyph unicode="&#x1e42;" horiz-adv-x="683" d="M57 0v718h179l108 -570l106 570h177v-718h-114v609l-112 -609h-121l-109 609v-609h-114zM286 -85h114v-115h-114v115z" />
<glyph unicode="&#x1e43;" horiz-adv-x="729" d="M52 0v532h110v-81q20 50 51 72.5t77 22.5q41 0 66.5 -18t51.5 -67q25 46 53 65.5t69 19.5q66 0 106.5 -49t40.5 -129v-368h-114v323q0 105 -65 105q-77 0 -77 -109v-319h-114v320q0 60 -15 84t-53 24q-73 0 -73 -104v-324h-114zM309 -85h114v-115h-114v115z" />
<glyph unicode="&#x1e44;" horiz-adv-x="592" d="M57 0v718h129l236 -504v504h114v-718h-122l-243 515v-515h-114zM242 794v115h114v-115h-114z" />
<glyph unicode="&#x1e45;" horiz-adv-x="501" d="M53 0v532h110v-81q45 95 134 95q69 0 110 -48t41 -130v-368h-114v323q0 55 -17.5 80t-56.5 25q-43 0 -68 -33t-25 -90v-305h-114zM195 618v115h114v-115h-114z" />
<glyph unicode="&#x1e46;" horiz-adv-x="592" d="M57 0v718h129l236 -504v504h114v-718h-122l-243 515v-515h-114zM241 -85h114v-115h-114v115z" />
<glyph unicode="&#x1e47;" horiz-adv-x="501" d="M53 0v532h110v-81q45 95 134 95q69 0 110 -48t41 -130v-368h-114v323q0 55 -17.5 80t-56.5 25q-43 0 -68 -33t-25 -90v-305h-114zM195 -85h114v-115h-114v115z" />
<glyph unicode="&#x1e58;" horiz-adv-x="592" d="M62 0v718h297q85 0 135.5 -55.5t50.5 -148.5q0 -127 -91 -170q48 -26 61.5 -65t13.5 -151q0 -61 4.5 -81t21.5 -28v-19h-136q-14 64 -14 144q0 65 -10 94t-27 35.5t-59 6.5h-127v-280h-120zM182 402h145q49 0 72 23.5t23 72.5q0 47 -22.5 72t-63.5 25h-154v-193zM224 794 v115h114v-115h-114z" />
<glyph unicode="&#x1e59;" horiz-adv-x="319" d="M52 0v532h110v-95q26 61 52.5 85t68.5 24q10 0 23 -2v-142q-16 2 -29 2q-111 0 -111 -127v-277h-114zM110 618v115h114v-115h-114z" />
<glyph unicode="&#x1e5a;" horiz-adv-x="592" d="M62 0v718h297q85 0 135.5 -55.5t50.5 -148.5q0 -127 -91 -170q48 -26 61.5 -65t13.5 -151q0 -61 4.5 -81t21.5 -28v-19h-136q-14 64 -14 144q0 65 -10 94t-27 35.5t-59 6.5h-127v-280h-120zM182 402h145q49 0 72 23.5t23 72.5q0 47 -22.5 72t-63.5 25h-154v-193zM223 -85 h114v-115h-114v115z" />
<glyph unicode="&#x1e5b;" horiz-adv-x="319" d="M52 0v532h110v-95q26 61 52.5 85t68.5 24q10 0 23 -2v-142q-16 2 -29 2q-111 0 -111 -127v-277h-114zM53 -85h114v-115h-114v115z" />
<glyph unicode="&#x1e5c;" horiz-adv-x="592" d="M62 0v718h297q85 0 135.5 -55.5t50.5 -148.5q0 -127 -91 -170q48 -26 61.5 -65t13.5 -151q0 -61 4.5 -81t21.5 -28v-19h-136q-14 64 -14 144q0 65 -10 94t-27 35.5t-59 6.5h-127v-280h-120zM138 815v73h283v-73h-283zM182 402h145q49 0 72 23.5t23 72.5q0 47 -22.5 72 t-63.5 25h-154v-193zM223 -85h114v-115h-114v115z" />
<glyph unicode="&#x1e5d;" horiz-adv-x="319" d="M24 653v73h283v-73h-283zM52 0v532h110v-95q26 61 52.5 85t68.5 24q10 0 23 -2v-142q-16 2 -29 2q-111 0 -111 -127v-277h-114zM53 -85h114v-115h-114v115z" />
<glyph unicode="&#x1e62;" horiz-adv-x="547" d="M32 221h118q7 -117 128 -117q57 0 88.5 24t31.5 68q0 35 -22.5 54t-84.5 37l-63 18q-114 32 -150.5 76t-36.5 131q0 105 59.5 165t164.5 60q106 0 165.5 -59.5t66.5 -172.5h-118q-7 57 -35 83t-83 26q-49 0 -77 -23.5t-28 -63.5q0 -31 14 -48t48 -27l144 -43 q82 -25 118 -70t36 -125q0 -108 -64 -170.5t-175 -62.5q-114 0 -177.5 61t-67.5 179zM215 -85h114v-115h-114v115z" />
<glyph unicode="&#x1e63;" d="M25 170h118q3 -77 93 -77q35 0 55 15t20 40q0 40 -95 59q-91 17 -133 56t-42 106q0 82 48.5 129.5t132.5 47.5q87 0 133 -40t58 -136h-113q-6 39 -23 54t-55 15q-69 0 -69 -50q0 -41 94 -58q94 -18 136.5 -59t42.5 -106q0 -84 -52 -132t-142 -48q-190 0 -207 184z M172 -85h114v-115h-114v115z" />
<glyph unicode="&#x1e6c;" horiz-adv-x="501" d="M11 591v127h479v-127h-178v-591h-123v591h-178zM195 -85h114v-115h-114v115z" />
<glyph unicode="&#x1e6d;" horiz-adv-x="273" d="M8 432v100h59v144h114v-144h72v-100h-72v-289q0 -28 8.5 -35.5t38.5 -7.5q12 0 25 2v-106q-39 -2 -55 -2h-15q-63 0 -89.5 26t-26.5 89v323h-59zM104 -85h114v-115h-114v115z" />
<glyph unicode="&#x1e6e;" horiz-adv-x="501" d="M11 591v127h479v-127h-178v-591h-123v591h-178zM110 -106h283v-73h-283v73z" />
<glyph unicode="&#x1e6f;" horiz-adv-x="273" d="M8 432v100h59v144h114v-144h72v-100h-72v-289q0 -28 8.5 -35.5t38.5 -7.5q12 0 25 2v-106q-39 -2 -55 -2h-15q-63 0 -89.5 26t-26.5 89v323h-59zM19 -106h283v-73h-283v73z" />
<glyph unicode="&#x1e80;" horiz-adv-x="774" d="M13 718h131q80 -418 95 -531l82 531h131l88 -531l97 531h125l-166 -718h-118l-92 565l-67 -423l-25 -142h-114zM224 914h131l72 -126h-78z" />
<glyph unicode="&#x1e81;" horiz-adv-x="638" d="M8 532h122l69 -387l63 387h115l67 -387l69 387h118l-126 -532h-118l-69 393l-69 -393h-118zM158 748h126l77 -146h-83z" />
<glyph unicode="&#x1e82;" horiz-adv-x="774" d="M13 718h131q80 -418 95 -531l82 531h131l88 -531l97 531h125l-166 -718h-118l-92 565l-67 -423l-25 -142h-114zM348 788l72 126h131l-125 -126h-78z" />
<glyph unicode="&#x1e83;" horiz-adv-x="638" d="M8 532h122l69 -387l63 387h115l67 -387l69 387h118l-126 -532h-118l-69 393l-69 -393h-118zM277 602l77 146h126l-120 -146h-83z" />
<glyph unicode="&#x1e84;" horiz-adv-x="774" d="M13 718h131q80 -418 95 -531l82 531h131l88 -531l97 531h125l-166 -718h-118l-92 565l-67 -423l-25 -142h-114zM257 794v115h96v-115h-96zM422 794v115h96v-115h-96z" />
<glyph unicode="&#x1e85;" horiz-adv-x="638" d="M8 532h122l69 -387l63 387h115l67 -387l69 387h118l-126 -532h-118l-69 393l-69 -393h-118zM188 618v115h96v-115h-96zM353 618v115h96v-115h-96z" />
<glyph unicode="&#x1e92;" horiz-adv-x="501" d="M20 0v127l305 464h-297v127h451v-118l-309 -473h311v-127h-461zM198 -85h114v-115h-114v115z" />
<glyph unicode="&#x1e93;" horiz-adv-x="410" d="M16 0v109l225 311h-209v112h354v-115l-221 -302h229v-115h-378zM149 -85h114v-115h-114v115z" />
<glyph unicode="&#x1e97;" horiz-adv-x="273" d="M-6 752v115h96v-115h-96zM8 432v100h59v144h114v-144h72v-100h-72v-289q0 -28 8.5 -35.5t38.5 -7.5q12 0 25 2v-106q-39 -2 -55 -2h-15q-63 0 -89.5 26t-26.5 89v323h-59zM159 752v115h96v-115h-96z" />
<glyph unicode="&#x1ea0;" horiz-adv-x="592" d="M16 0l210 718h142l208 -718h-134l-38 148h-217l-41 -148h-130zM220 271h150l-74 288zM240 -85h114v-115h-114v115z" />
<glyph unicode="&#x1ea1;" d="M24 142q0 70 33.5 114t94.5 55l103 19q40 7 40 44q0 60 -71 60q-37 0 -54 -16.5t-22 -57.5h-110q10 101 55 143.5t136 42.5q85 0 131.5 -40.5t46.5 -113.5v-288q0 -70 25 -83v-21h-123q-7 27 -11 63q-34 -43 -65 -60t-73 -17q-63 0 -99.5 42t-36.5 114zM139 151 q0 -30 15 -47.5t40 -17.5q42 0 71.5 30.5t29.5 74.5v68q-19 -17 -78 -29q-43 -9 -60.5 -27t-17.5 -52zM173 -85h114v-115h-114v115z" />
<glyph unicode="&#x1ea2;" horiz-adv-x="592" d="M16 0l210 718h142l208 -718h-134l-38 148h-217l-41 -148h-130zM187 859q0 92 116 92q51 0 80.5 -18.5t29.5 -50.5q0 -19 -10.5 -32t-39.5 -30q-23 -15 -29 -20t-6 -12v-24h-62v27q0 18 11 30t42 28v-1q32 20 32 34q0 11 -14 18t-37 7q-34 0 -45 -14v1q-7 -8 -7 -35h-61z M220 271h150l-74 288z" />
<glyph unicode="&#x1ea3;" d="M24 142q0 70 33.5 114t94.5 55l103 19q40 7 40 44q0 60 -71 60q-37 0 -54 -16.5t-22 -57.5h-110q10 101 55 143.5t136 42.5q85 0 131.5 -40.5t46.5 -113.5v-288q0 -70 25 -83v-21h-123q-7 27 -11 63q-34 -43 -65 -60t-73 -17q-63 0 -99.5 42t-36.5 114zM119 673 q0 92 116 92q51 0 80.5 -18.5t29.5 -50.5q0 -19 -10.5 -32t-39.5 -30q-23 -15 -29 -20t-6 -12v-24h-62v27q0 18 11 30t42 28v-1q32 20 32 34q0 11 -14 18t-37 7q-34 0 -45 -14v1q-7 -8 -7 -35h-61zM139 151q0 -30 15 -47.5t40 -17.5q42 0 71.5 30.5t29.5 74.5v68 q-19 -17 -78 -29q-43 -9 -60.5 -27t-17.5 -52z" />
<glyph unicode="&#x1ea4;" horiz-adv-x="592" d="M16 0l210 718h142l208 -718h-134l-38 148h-217l-41 -148h-130zM143 788l103 126h103l103 -126h-93l-62 62l-61 -62h-93zM220 271h150l-74 288zM258 934l72 126h131l-125 -126h-78z" />
<glyph unicode="&#x1ea5;" d="M24 142q0 70 33.5 114t94.5 55l103 19q40 7 40 44q0 60 -71 60q-37 0 -54 -16.5t-22 -57.5h-110q10 101 55 143.5t136 42.5q85 0 131.5 -40.5t46.5 -113.5v-288q0 -70 25 -83v-21h-123q-7 27 -11 63q-34 -43 -65 -60t-73 -17q-63 0 -99.5 42t-36.5 114zM75 602l103 126 h103l103 -126h-93l-62 62l-61 -62h-93zM139 151q0 -30 15 -47.5t40 -17.5q42 0 71.5 30.5t29.5 74.5v68q-19 -17 -78 -29q-43 -9 -60.5 -27t-17.5 -52zM190 748l72 126h131l-125 -126h-78z" />
<glyph unicode="&#x1ea6;" horiz-adv-x="592" d="M16 0l210 718h142l208 -718h-134l-38 148h-217l-41 -148h-130zM134 1060h131l72 -126h-78zM143 788l103 126h103l103 -126h-93l-62 62l-61 -62h-93zM220 271h150l-74 288z" />
<glyph unicode="&#x1ea7;" d="M24 142q0 70 33.5 114t94.5 55l103 19q40 7 40 44q0 60 -71 60q-37 0 -54 -16.5t-22 -57.5h-110q10 101 55 143.5t136 42.5q85 0 131.5 -40.5t46.5 -113.5v-288q0 -70 25 -83v-21h-123q-7 27 -11 63q-34 -43 -65 -60t-73 -17q-63 0 -99.5 42t-36.5 114zM66 874h131 l72 -126h-78zM75 602l103 126h103l103 -126h-93l-62 62l-61 -62h-93zM139 151q0 -30 15 -47.5t40 -17.5q42 0 71.5 30.5t29.5 74.5v68q-19 -17 -78 -29q-43 -9 -60.5 -27t-17.5 -52z" />
<glyph unicode="&#x1ea8;" horiz-adv-x="592" d="M16 0l210 718h142l208 -718h-134l-38 148h-217l-41 -148h-130zM143 788l103 126h103l103 -126h-93l-62 62l-61 -62h-93zM220 271h150l-74 288zM226 1020q0 82 116 82q51 0 80.5 -17t29.5 -45q0 -17 -10.5 -29t-39.5 -27q-22 -12 -28.5 -17t-6.5 -11v-22h-62v24 q0 17 11 27.5t42 25.5v-1q32 17 32 30q0 10 -14 16.5t-37 6.5q-34 0 -45 -13v1q-7 -8 -7 -31h-61z" />
<glyph unicode="&#x1ea9;" d="M24 142q0 70 33.5 114t94.5 55l103 19q40 7 40 44q0 60 -71 60q-37 0 -54 -16.5t-22 -57.5h-110q10 101 55 143.5t136 42.5q85 0 131.5 -40.5t46.5 -113.5v-288q0 -70 25 -83v-21h-123q-7 27 -11 63q-34 -43 -65 -60t-73 -17q-63 0 -99.5 42t-36.5 114zM75 602l103 126 h103l103 -126h-93l-62 62l-61 -62h-93zM139 151q0 -30 15 -47.5t40 -17.5q42 0 71.5 30.5t29.5 74.5v68q-19 -17 -78 -29q-43 -9 -60.5 -27t-17.5 -52zM158 834q0 82 116 82q51 0 80.5 -17t29.5 -45q0 -17 -10.5 -29t-39.5 -27q-22 -12 -28.5 -17t-6.5 -11v-22h-62v24 q0 17 11 27.5t42 25.5v-1q32 17 32 30q0 10 -14 16.5t-37 6.5q-34 0 -45 -13v1q-7 -8 -7 -31h-61z" />
<glyph unicode="&#x1eaa;" horiz-adv-x="592" d="M16 0l210 718h142l208 -718h-134l-38 148h-217l-41 -148h-130zM143 788l103 126h103l103 -126h-93l-62 62l-61 -62h-93zM147 944q21 123 99 123q6 0 55.5 -18t54.5 -18q29 0 39 40h53q-20 -120 -88 -120q-11 0 -62 18t-61 18q-29 0 -38 -43h-52zM220 271h150l-74 288z " />
<glyph unicode="&#x1eab;" d="M24 142q0 70 33.5 114t94.5 55l103 19q40 7 40 44q0 60 -71 60q-37 0 -54 -16.5t-22 -57.5h-110q10 101 55 143.5t136 42.5q85 0 131.5 -40.5t46.5 -113.5v-288q0 -70 25 -83v-21h-123q-7 27 -11 63q-34 -43 -65 -60t-73 -17q-63 0 -99.5 42t-36.5 114zM75 602l103 126 h103l103 -126h-93l-62 62l-61 -62h-93zM79 758q21 123 99 123q6 0 55.5 -18t54.5 -18q29 0 39 40h53q-20 -120 -88 -120q-11 0 -62 18t-61 18q-29 0 -38 -43h-52zM139 151q0 -30 15 -47.5t40 -17.5q42 0 71.5 30.5t29.5 74.5v68q-19 -17 -78 -29q-43 -9 -60.5 -27t-17.5 -52 z" />
<glyph unicode="&#x1eac;" horiz-adv-x="592" d="M16 0l210 718h142l208 -718h-134l-38 148h-217l-41 -148h-130zM142 788l103 126h103l103 -126h-93l-62 62l-61 -62h-93zM220 271h150l-74 288zM240 -85h114v-115h-114v115z" />
<glyph unicode="&#x1ead;" d="M24 142q0 70 33.5 114t94.5 55l103 19q40 7 40 44q0 60 -71 60q-37 0 -54 -16.5t-22 -57.5h-110q10 101 55 143.5t136 42.5q85 0 131.5 -40.5t46.5 -113.5v-288q0 -70 25 -83v-21h-123q-7 27 -11 63q-34 -43 -65 -60t-73 -17q-63 0 -99.5 42t-36.5 114zM84 602l93 146 h103l93 -146h-93l-52 82l-51 -82h-93zM139 151q0 -30 15 -47.5t40 -17.5q42 0 71.5 30.5t29.5 74.5v68q-19 -17 -78 -29q-43 -9 -60.5 -27t-17.5 -52zM173 -85h114v-115h-114v115z" />
<glyph unicode="&#x1eae;" horiz-adv-x="592" d="M16 0l210 718h142l208 -718h-134l-38 148h-217l-41 -148h-130zM149 914h54q16 -25 36.5 -37t58.5 -12t57 12t28 37h63q-33 -126 -153 -126q-113 0 -144 126zM220 271h150l-74 288zM258 943l72 126h131l-125 -126h-78z" />
<glyph unicode="&#x1eaf;" d="M24 142q0 70 33.5 114t94.5 55l103 19q40 7 40 44q0 60 -71 60q-37 0 -54 -16.5t-22 -57.5h-110q10 101 55 143.5t136 42.5q85 0 131.5 -40.5t46.5 -113.5v-288q0 -70 25 -83v-21h-123q-7 27 -11 63q-34 -43 -65 -60t-73 -17q-63 0 -99.5 42t-36.5 114zM81 728h54 q16 -25 36.5 -37t58.5 -12t57 12t28 37h63q-33 -126 -153 -126q-113 0 -144 126zM139 151q0 -30 15 -47.5t40 -17.5q42 0 71.5 30.5t29.5 74.5v68q-19 -17 -78 -29q-43 -9 -60.5 -27t-17.5 -52zM190 757l72 126h131l-125 -126h-78z" />
<glyph unicode="&#x1eb0;" horiz-adv-x="592" d="M16 0l210 718h142l208 -718h-134l-38 148h-217l-41 -148h-130zM134 1069h131l72 -126h-78zM149 914h54q16 -25 36.5 -37t58.5 -12t57 12t28 37h63q-33 -126 -153 -126q-113 0 -144 126zM220 271h150l-74 288z" />
<glyph unicode="&#x1eb1;" d="M24 142q0 70 33.5 114t94.5 55l103 19q40 7 40 44q0 60 -71 60q-37 0 -54 -16.5t-22 -57.5h-110q10 101 55 143.5t136 42.5q85 0 131.5 -40.5t46.5 -113.5v-288q0 -70 25 -83v-21h-123q-7 27 -11 63q-34 -43 -65 -60t-73 -17q-63 0 -99.5 42t-36.5 114zM66 883h131 l72 -126h-78zM81 728h54q16 -25 36.5 -37t58.5 -12t57 12t28 37h63q-33 -126 -153 -126q-113 0 -144 126zM139 151q0 -30 15 -47.5t40 -17.5q42 0 71.5 30.5t29.5 74.5v68q-19 -17 -78 -29q-43 -9 -60.5 -27t-17.5 -52z" />
<glyph unicode="&#x1eb2;" horiz-adv-x="592" d="M16 0l210 718h142l208 -718h-134l-38 148h-217l-41 -148h-130zM149 914h54q16 -25 36.5 -37t58.5 -12t57 12t28 37h63q-33 -126 -153 -126q-113 0 -144 126zM185 990q0 82 116 82q51 0 80.5 -17t29.5 -45q0 -17 -10.5 -29t-39.5 -27q-22 -12 -28.5 -17t-6.5 -11v-22h-62 v24q0 17 11 27.5t42 25.5v-1q32 17 32 30q0 10 -14 16.5t-37 6.5q-34 0 -45 -13v1q-7 -8 -7 -31h-61zM220 271h150l-74 288z" />
<glyph unicode="&#x1eb3;" d="M24 142q0 70 33.5 114t94.5 55l103 19q40 7 40 44q0 60 -71 60q-37 0 -54 -16.5t-22 -57.5h-110q10 101 55 143.5t136 42.5q85 0 131.5 -40.5t46.5 -113.5v-288q0 -70 25 -83v-21h-123q-7 27 -11 63q-34 -43 -65 -60t-73 -17q-63 0 -99.5 42t-36.5 114zM81 728h54 q16 -25 36.5 -37t58.5 -12t57 12t28 37h63q-33 -126 -153 -126q-113 0 -144 126zM117 804q0 82 116 82q51 0 80.5 -17t29.5 -45q0 -17 -10.5 -29t-39.5 -27q-23 -12 -29 -17t-6 -11v-22h-62v24q0 17 11 27.5t42 25.5v-1q32 17 32 30q0 10 -14 16.5t-37 6.5q-34 0 -45 -13v1 q-7 -8 -7 -31h-61zM139 151q0 -30 15 -47.5t40 -17.5q42 0 71.5 30.5t29.5 74.5v68q-19 -17 -78 -29q-43 -9 -60.5 -27t-17.5 -52z" />
<glyph unicode="&#x1eb4;" horiz-adv-x="592" d="M16 0l210 718h142l208 -718h-134l-38 148h-217l-41 -148h-130zM147 952q21 123 99 123q6 0 55.5 -18t54.5 -18q29 0 39 40h53q-20 -120 -88 -120q-11 0 -62 18t-61 18q-29 0 -38 -43h-52zM149 914h54q16 -25 36.5 -37t58.5 -12t57 12t28 37h63q-33 -126 -153 -126 q-113 0 -144 126zM220 271h150l-74 288z" />
<glyph unicode="&#x1eb5;" d="M24 142q0 70 33.5 114t94.5 55l103 19q40 7 40 44q0 60 -71 60q-37 0 -54 -16.5t-22 -57.5h-110q10 101 55 143.5t136 42.5q85 0 131.5 -40.5t46.5 -113.5v-288q0 -70 25 -83v-21h-123q-7 27 -11 63q-34 -43 -65 -60t-73 -17q-63 0 -99.5 42t-36.5 114zM79 766 q21 123 99 123q6 0 55.5 -18t54.5 -18q29 0 39 40h53q-20 -120 -88 -120q-11 0 -62 18t-61 18q-29 0 -38 -43h-52zM81 728h54q16 -25 36.5 -37t58.5 -12t57 12t28 37h63q-33 -126 -153 -126q-113 0 -144 126zM139 151q0 -30 15 -47.5t40 -17.5q42 0 71.5 30.5t29.5 74.5v68 q-19 -17 -78 -29q-43 -9 -60.5 -27t-17.5 -52z" />
<glyph unicode="&#x1eb6;" horiz-adv-x="592" d="M16 0l210 718h142l208 -718h-134l-38 148h-217l-41 -148h-130zM148 914h54q16 -25 36.5 -37t58.5 -12t57 12t28 37h63q-33 -126 -153 -126q-113 0 -144 126zM220 271h150l-74 288zM240 -85h114v-115h-114v115z" />
<glyph unicode="&#x1eb7;" d="M24 142q0 70 33.5 114t94.5 55l103 19q40 7 40 44q0 60 -71 60q-37 0 -54 -16.5t-22 -57.5h-110q10 101 55 143.5t136 42.5q85 0 131.5 -40.5t46.5 -113.5v-288q0 -70 25 -83v-21h-123q-7 27 -11 63q-34 -43 -65 -60t-73 -17q-63 0 -99.5 42t-36.5 114zM90 748h54 q7 -38 26 -53.5t59 -15.5t58.5 15t26.5 54h53q-15 -146 -143 -146q-121 0 -134 146zM139 151q0 -30 15 -47.5t40 -17.5q42 0 71.5 30.5t29.5 74.5v68q-19 -17 -78 -29q-43 -9 -60.5 -27t-17.5 -52zM173 -85h114v-115h-114v115z" />
<glyph unicode="&#x1eb8;" horiz-adv-x="547" d="M62 0v718h433v-127h-313v-151h288v-127h-288v-186h327v-127h-447zM218 -85h114v-115h-114v115z" />
<glyph unicode="&#x1eb9;" d="M19 268q0 130 55 204t152 74q100 0 153.5 -76t53.5 -218v-25h-299q5 -67 29 -97.5t71 -30.5q59 0 76 58h118q-49 -171 -196 -171q-102 0 -157.5 73.5t-55.5 208.5zM137 319h178q-12 112 -90 112q-38 0 -59 -27t-29 -85zM172 -85h114v-115h-114v115z" />
<glyph unicode="&#x1eba;" horiz-adv-x="547" d="M62 0v718h433v-127h-313v-151h288v-127h-288v-186h327v-127h-447zM169 859q0 92 116 92q51 0 80.5 -18.5t29.5 -50.5q0 -19 -10.5 -32t-39.5 -30q-23 -15 -29 -20t-6 -12v-24h-62v27q0 18 11 30t42 28v-1q32 20 32 34q0 11 -14 18t-37 7q-34 0 -45 -14v1q-7 -8 -7 -35 h-61z" />
<glyph unicode="&#x1ebb;" d="M19 268q0 130 55 204t152 74q100 0 153.5 -76t53.5 -218v-25h-299q5 -67 29 -97.5t71 -30.5q59 0 76 58h118q-49 -171 -196 -171q-102 0 -157.5 73.5t-55.5 208.5zM118 673q0 92 116 92q51 0 80.5 -18.5t29.5 -50.5q0 -19 -10.5 -32t-39.5 -30q-23 -15 -29 -20t-6 -12 v-24h-62v27q0 18 11 30t42 28v-1q32 20 32 34q0 11 -14 18t-37 7q-34 0 -45 -14v1q-7 -8 -7 -35h-61zM137 319h178q-12 112 -90 112q-38 0 -59 -27t-29 -85z" />
<glyph unicode="&#x1ebc;" horiz-adv-x="547" d="M62 0v718h433v-127h-313v-151h288v-127h-288v-186h327v-127h-447zM129 788q21 123 99 123q6 0 55.5 -18t54.5 -18q29 0 39 40h53q-20 -120 -88 -120q-11 0 -62 18t-61 18q-29 0 -38 -43h-52z" />
<glyph unicode="&#x1ebd;" d="M19 268q0 130 55 204t152 74q100 0 153.5 -76t53.5 -218v-25h-299q5 -67 29 -97.5t71 -30.5q59 0 76 58h118q-49 -171 -196 -171q-102 0 -157.5 73.5t-55.5 208.5zM77 612q21 123 99 123q6 0 55.5 -18t54.5 -18q29 0 39 40h53q-20 -120 -88 -120q-11 0 -62 18t-61 18 q-29 0 -38 -43h-52zM137 319h178q-12 112 -90 112q-38 0 -59 -27t-29 -85z" />
<glyph unicode="&#x1ebe;" horiz-adv-x="547" d="M62 0v718h433v-127h-313v-151h288v-127h-288v-186h327v-127h-447zM125 788l103 126h103l103 -126h-93l-62 62l-61 -62h-93zM240 934l72 126h131l-125 -126h-78z" />
<glyph unicode="&#x1ebf;" d="M19 268q0 130 55 204t152 74q100 0 153.5 -76t53.5 -218v-25h-299q5 -67 29 -97.5t71 -30.5q59 0 76 58h118q-49 -171 -196 -171q-102 0 -157.5 73.5t-55.5 208.5zM74 602l103 126h103l103 -126h-93l-62 62l-61 -62h-93zM137 319h178q-12 112 -90 112q-38 0 -59 -27 t-29 -85zM189 748l72 126h131l-125 -126h-78z" />
<glyph unicode="&#x1ec0;" horiz-adv-x="547" d="M62 0v718h433v-127h-313v-151h288v-127h-288v-186h327v-127h-447zM116 1060h131l72 -126h-78zM125 788l103 126h103l103 -126h-93l-62 62l-61 -62h-93z" />
<glyph unicode="&#x1ec1;" d="M19 268q0 130 55 204t152 74q100 0 153.5 -76t53.5 -218v-25h-299q5 -67 29 -97.5t71 -30.5q59 0 76 58h118q-49 -171 -196 -171q-102 0 -157.5 73.5t-55.5 208.5zM65 874h131l72 -126h-78zM74 602l103 126h103l103 -126h-93l-62 62l-61 -62h-93zM137 319h178 q-12 112 -90 112q-38 0 -59 -27t-29 -85z" />
<glyph unicode="&#x1ec2;" horiz-adv-x="547" d="M62 0v718h433v-127h-313v-151h288v-127h-288v-186h327v-127h-447zM125 788l103 126h103l103 -126h-93l-62 62l-61 -62h-93zM208 1020q0 82 116 82q51 0 80.5 -17t29.5 -45q0 -17 -10.5 -29t-39.5 -27q-22 -12 -28.5 -17t-6.5 -11v-22h-62v24q0 17 11 27.5t42 25.5v-1 q32 17 32 30q0 10 -14 16.5t-37 6.5q-34 0 -45 -13v1q-7 -8 -7 -31h-61z" />
<glyph unicode="&#x1ec3;" d="M19 268q0 130 55 204t152 74q100 0 153.5 -76t53.5 -218v-25h-299q5 -67 29 -97.5t71 -30.5q59 0 76 58h118q-49 -171 -196 -171q-102 0 -157.5 73.5t-55.5 208.5zM74 602l103 126h103l103 -126h-93l-62 62l-61 -62h-93zM137 319h178q-12 112 -90 112q-38 0 -59 -27 t-29 -85zM157 834q0 82 116 82q51 0 80.5 -17t29.5 -45q0 -17 -10.5 -29t-39.5 -27q-23 -12 -29 -17t-6 -11v-22h-62v24q0 17 11 27.5t42 25.5v-1q32 17 32 30q0 10 -14 16.5t-37 6.5q-34 0 -45 -13v1q-7 -8 -7 -31h-61z" />
<glyph unicode="&#x1ec4;" horiz-adv-x="547" d="M62 0v718h433v-127h-313v-151h288v-127h-288v-186h327v-127h-447zM125 788l103 126h103l103 -126h-93l-62 62l-61 -62h-93zM129 944q21 123 99 123q6 0 55.5 -18t54.5 -18q29 0 39 40h53q-20 -120 -88 -120q-11 0 -62 18t-61 18q-29 0 -38 -43h-52z" />
<glyph unicode="&#x1ec5;" d="M19 268q0 130 55 204t152 74q100 0 153.5 -76t53.5 -218v-25h-299q5 -67 29 -97.5t71 -30.5q59 0 76 58h118q-49 -171 -196 -171q-102 0 -157.5 73.5t-55.5 208.5zM74 602l103 126h103l103 -126h-93l-62 62l-61 -62h-93zM78 758q20 123 99 123q6 0 55.5 -18t54.5 -18 q29 0 39 40h53q-19 -120 -88 -120q-11 0 -62 18t-61 18q-29 0 -38 -43h-52zM137 319h178q-12 112 -90 112q-38 0 -59 -27t-29 -85z" />
<glyph unicode="&#x1ec6;" horiz-adv-x="547" d="M62 0v718h433v-127h-313v-151h288v-127h-288v-186h327v-127h-447zM124 788l103 126h103l103 -126h-93l-62 62l-61 -62h-93zM218 -85h114v-115h-114v115z" />
<glyph unicode="&#x1ec7;" d="M19 268q0 130 55 204t152 74q100 0 153.5 -76t53.5 -218v-25h-299q5 -67 29 -97.5t71 -30.5q59 0 76 58h118q-49 -171 -196 -171q-102 0 -157.5 73.5t-55.5 208.5zM83 602l93 146h103l93 -146h-93l-52 82l-51 -82h-93zM137 319h178q-12 112 -90 112q-38 0 -59 -27 t-29 -85zM172 -85h114v-115h-114v115z" />
<glyph unicode="&#x1ec8;" horiz-adv-x="228" d="M4 859q0 92 116 92q51 0 80.5 -18.5t29.5 -50.5q0 -19 -10.5 -32t-39.5 -30q-23 -15 -29 -20t-6 -12v-24h-62v27q0 18 11 30t42 28v-1q32 20 32 34q0 11 -14 18t-37 7q-34 0 -45 -14v1q-7 -8 -7 -35h-61zM52 0v718h123v-718h-123z" />
<glyph unicode="&#x1ec9;" horiz-adv-x="228" d="M4 673q0 92 116 92q51 0 80.5 -18.5t29.5 -50.5q0 -19 -10.5 -32t-39.5 -30q-23 -15 -29 -20t-6 -12v-24h-62v27q0 18 11 30t42 28v-1q32 20 32 34q0 11 -14 18t-37 7q-34 0 -45 -14v1q-7 -8 -7 -35h-61zM57 0v532h114v-532h-114z" />
<glyph unicode="&#x1eca;" horiz-adv-x="228" d="M52 0v718h123v-718h-123zM58 -85h114v-115h-114v115z" />
<glyph unicode="&#x1ecb;" horiz-adv-x="228" d="M57 0v532h114v-532h-114zM58 -85h114v-115h-114v115zM58 618v115h114v-115h-114z" />
<glyph unicode="&#x1ecc;" horiz-adv-x="638" d="M36 358q0 179 77.5 279t209.5 100q125 0 202 -101t77 -277q0 -177 -77 -277.5t-206 -100.5q-130 0 -206.5 101t-76.5 276zM159 361q0 -119 42.5 -186t117.5 -67t117.5 67.5t42.5 186.5q0 113 -43 180.5t-115 67.5q-76 0 -119 -66.5t-43 -182.5zM267 -85h114v-115h-114 v115z" />
<glyph unicode="&#x1ecd;" horiz-adv-x="501" d="M28 265q0 129 61 205t165 76q100 0 160 -77t60 -204t-61 -203t-162 -76t-162 76t-61 203zM146 266q0 -79 27 -120.5t78 -41.5t78 41.5t27 120.5q0 78 -27 120t-77 42q-106 0 -106 -162zM195 -85h114v-115h-114v115z" />
<glyph unicode="&#x1ece;" horiz-adv-x="638" d="M36 358q0 179 77.5 279t209.5 100q125 0 202 -101t77 -277q0 -177 -77 -277.5t-206 -100.5q-130 0 -206.5 101t-76.5 276zM159 361q0 -119 42.5 -186t117.5 -67t117.5 67.5t42.5 186.5q0 113 -43 180.5t-115 67.5q-76 0 -119 -66.5t-43 -182.5zM213 859q0 92 116 92 q51 0 80.5 -18.5t29.5 -50.5q0 -19 -10.5 -32t-39.5 -30q-23 -15 -29 -20t-6 -12v-24h-62v27q0 18 11 30t42 28v-1q32 20 32 34q0 11 -14 18t-37 7q-34 0 -45 -14v1q-7 -8 -7 -35h-61z" />
<glyph unicode="&#x1ecf;" horiz-adv-x="501" d="M28 265q0 129 61 205t165 76q100 0 160 -77t60 -204t-61 -203t-162 -76t-162 76t-61 203zM141 673q0 92 116 92q51 0 80.5 -18.5t29.5 -50.5q0 -19 -10.5 -32t-39.5 -30q-23 -15 -29 -20t-6 -12v-24h-62v27q0 18 11 30t42 28v-1q32 20 32 34q0 11 -14 18t-37 7 q-34 0 -45 -14v1q-7 -8 -7 -35h-61zM146 266q0 -79 27 -120.5t78 -41.5t78 41.5t27 120.5q0 78 -27 120t-77 42q-106 0 -106 -162z" />
<glyph unicode="&#x1ed0;" horiz-adv-x="638" d="M36 358q0 179 77.5 279t209.5 100q125 0 202 -101t77 -277q0 -177 -77 -277.5t-206 -100.5q-130 0 -206.5 101t-76.5 276zM159 361q0 -119 42.5 -186t117.5 -67t117.5 67.5t42.5 186.5q0 113 -43 180.5t-115 67.5q-76 0 -119 -66.5t-43 -182.5zM169 788l103 126h103 l103 -126h-93l-62 62l-61 -62h-93zM284 934l72 126h131l-125 -126h-78z" />
<glyph unicode="&#x1ed1;" horiz-adv-x="501" d="M28 265q0 129 61 205t165 76q100 0 160 -77t60 -204t-61 -203t-162 -76t-162 76t-61 203zM96 602l103 126h103l103 -126h-93l-62 62l-61 -62h-93zM146 266q0 -79 27 -120.5t78 -41.5t78 41.5t27 120.5q0 78 -27 120t-77 42q-106 0 -106 -162zM211 748l72 126h131 l-125 -126h-78z" />
<glyph unicode="&#x1ed2;" horiz-adv-x="638" d="M36 358q0 179 77.5 279t209.5 100q125 0 202 -101t77 -277q0 -177 -77 -277.5t-206 -100.5q-130 0 -206.5 101t-76.5 276zM159 361q0 -119 42.5 -186t117.5 -67t117.5 67.5t42.5 186.5q0 113 -43 180.5t-115 67.5q-76 0 -119 -66.5t-43 -182.5zM160 1060h131l72 -126h-78 zM169 788l103 126h103l103 -126h-93l-62 62l-61 -62h-93z" />
<glyph unicode="&#x1ed3;" horiz-adv-x="501" d="M28 265q0 129 61 205t165 76q100 0 160 -77t60 -204t-61 -203t-162 -76t-162 76t-61 203zM87 874h131l72 -126h-78zM96 602l103 126h103l103 -126h-93l-62 62l-61 -62h-93zM146 266q0 -79 27 -120.5t78 -41.5t78 41.5t27 120.5q0 78 -27 120t-77 42q-106 0 -106 -162z " />
<glyph unicode="&#x1ed4;" horiz-adv-x="638" d="M36 358q0 179 77.5 279t209.5 100q125 0 202 -101t77 -277q0 -177 -77 -277.5t-206 -100.5q-130 0 -206.5 101t-76.5 276zM159 361q0 -119 42.5 -186t117.5 -67t117.5 67.5t42.5 186.5q0 113 -43 180.5t-115 67.5q-76 0 -119 -66.5t-43 -182.5zM169 788l103 126h103 l103 -126h-93l-62 62l-61 -62h-93zM252 1020q0 82 116 82q51 0 80.5 -17t29.5 -45q0 -17 -10.5 -29t-39.5 -27q-22 -12 -28.5 -17t-6.5 -11v-22h-62v24q0 17 11 27.5t42 25.5v-1q32 17 32 30q0 10 -14 16.5t-37 6.5q-34 0 -45 -13v1q-7 -8 -7 -31h-61z" />
<glyph unicode="&#x1ed5;" horiz-adv-x="501" d="M28 265q0 129 61 205t165 76q100 0 160 -77t60 -204t-61 -203t-162 -76t-162 76t-61 203zM96 602l103 126h103l103 -126h-93l-62 62l-61 -62h-93zM146 266q0 -79 27 -120.5t78 -41.5t78 41.5t27 120.5q0 78 -27 120t-77 42q-106 0 -106 -162zM179 834q0 82 116 82 q51 0 80.5 -17t29.5 -45q0 -17 -10.5 -29t-39.5 -27q-23 -12 -29 -17t-6 -11v-22h-62v24q0 17 11 27.5t42 25.5v-1q32 17 32 30q0 10 -14 16.5t-37 6.5q-34 0 -45 -13v1q-7 -8 -7 -31h-61z" />
<glyph unicode="&#x1ed6;" horiz-adv-x="638" d="M36 358q0 179 77.5 279t209.5 100q125 0 202 -101t77 -277q0 -177 -77 -277.5t-206 -100.5q-130 0 -206.5 101t-76.5 276zM159 361q0 -119 42.5 -186t117.5 -67t117.5 67.5t42.5 186.5q0 113 -43 180.5t-115 67.5q-76 0 -119 -66.5t-43 -182.5zM169 788l103 126h103 l103 -126h-93l-62 62l-61 -62h-93zM173 944q21 123 99 123q6 0 55.5 -18t54.5 -18q29 0 39 40h53q-20 -120 -88 -120q-11 0 -62 18t-61 18q-29 0 -38 -43h-52z" />
<glyph unicode="&#x1ed7;" horiz-adv-x="501" d="M28 265q0 129 61 205t165 76q100 0 160 -77t60 -204t-61 -203t-162 -76t-162 76t-61 203zM96 602l103 126h103l103 -126h-93l-62 62l-61 -62h-93zM100 758q20 123 99 123q6 0 55.5 -18t54.5 -18q29 0 39 40h53q-20 -120 -88 -120q-11 0 -62 18t-61 18q-29 0 -38 -43h-52z M146 266q0 -79 27 -120.5t78 -41.5t78 41.5t27 120.5q0 78 -27 120t-77 42q-106 0 -106 -162z" />
<glyph unicode="&#x1ed8;" horiz-adv-x="638" d="M36 358q0 179 77.5 279t209.5 100q125 0 202 -101t77 -277q0 -177 -77 -277.5t-206 -100.5q-130 0 -206.5 101t-76.5 276zM159 361q0 -119 42.5 -186t117.5 -67t117.5 67.5t42.5 186.5q0 113 -43 180.5t-115 67.5q-76 0 -119 -66.5t-43 -182.5zM168 788l103 126h103 l103 -126h-93l-62 62l-61 -62h-93zM267 -85h114v-115h-114v115z" />
<glyph unicode="&#x1ed9;" horiz-adv-x="501" d="M28 265q0 129 61 205t165 76q100 0 160 -77t60 -204t-61 -203t-162 -76t-162 76t-61 203zM106 602l93 146h103l93 -146h-93l-52 82l-51 -82h-93zM146 266q0 -79 27 -120.5t78 -41.5t78 41.5t27 120.5q0 78 -27 120t-77 42q-106 0 -106 -162zM195 -85h114v-115h-114v115z " />
<glyph unicode="&#x1eda;" horiz-adv-x="638" d="M36 358q0 179 77.5 279t209.5 100q128 0 204 -104q19 34 19 86h-57v115h114v-115q0 -86 -44 -141q43 -89 43 -219q0 -177 -77 -277.5t-206 -100.5q-130 0 -206.5 101t-76.5 276zM159 361q0 -119 42.5 -186t117.5 -67t117.5 67.5t42.5 186.5q0 113 -43 180.5t-115 67.5 q-76 0 -119 -66.5t-43 -182.5zM284 788l72 126h131l-125 -126h-78z" />
<glyph unicode="&#x1edb;" horiz-adv-x="512" d="M28 265q0 129 61 205t165 76q109 0 168 -89q14 31 14 76h-57v115h114v-115q0 -82 -40 -136q21 -57 21 -132q0 -127 -61 -203t-162 -76t-162 76t-61 203zM146 266q0 -79 27 -120.5t78 -41.5t78 41.5t27 120.5q0 78 -27 120t-77 42q-106 0 -106 -162zM209 602l77 146h126 l-120 -146h-83z" />
<glyph unicode="&#x1edc;" horiz-adv-x="638" d="M36 358q0 179 77.5 279t209.5 100q128 0 204 -104q19 34 19 86h-57v115h114v-115q0 -86 -44 -141q43 -89 43 -219q0 -177 -77 -277.5t-206 -100.5q-130 0 -206.5 101t-76.5 276zM159 361q0 -119 42.5 -186t117.5 -67t117.5 67.5t42.5 186.5q0 113 -43 180.5t-115 67.5 q-76 0 -119 -66.5t-43 -182.5zM160 914h131l72 -126h-78z" />
<glyph unicode="&#x1edd;" horiz-adv-x="512" d="M28 265q0 129 61 205t165 76q109 0 168 -89q14 31 14 76h-57v115h114v-115q0 -82 -40 -136q21 -57 21 -132q0 -127 -61 -203t-162 -76t-162 76t-61 203zM89 748h126l77 -146h-83zM146 266q0 -79 27 -120.5t78 -41.5t78 41.5t27 120.5q0 78 -27 120t-77 42 q-106 0 -106 -162z" />
<glyph unicode="&#x1ede;" horiz-adv-x="638" d="M36 358q0 179 77.5 279t209.5 100q128 0 204 -104q19 34 19 86h-57v115h114v-115q0 -86 -44 -141q43 -89 43 -219q0 -177 -77 -277.5t-206 -100.5q-130 0 -206.5 101t-76.5 276zM159 361q0 -119 42.5 -186t117.5 -67t117.5 67.5t42.5 186.5q0 113 -43 180.5t-115 67.5 q-76 0 -119 -66.5t-43 -182.5zM213 859q0 92 116 92q51 0 80.5 -18.5t29.5 -50.5q0 -19 -10.5 -32t-39.5 -30q-23 -15 -29 -20t-6 -12v-24h-62v27q0 18 11 30t42 28v-1q32 20 32 34q0 11 -14 18t-37 7q-34 0 -45 -14v1q-7 -8 -7 -35h-61z" />
<glyph unicode="&#x1edf;" horiz-adv-x="512" d="M28 265q0 129 61 205t165 76q109 0 168 -89q14 31 14 76h-57v115h114v-115q0 -82 -40 -136q21 -57 21 -132q0 -127 -61 -203t-162 -76t-162 76t-61 203zM141 673q0 92 116 92q51 0 80.5 -18.5t29.5 -50.5q0 -19 -10.5 -32t-39.5 -30q-23 -15 -29 -20t-6 -12v-24h-62v27 q0 18 11 30t42 28v-1q32 20 32 34q0 11 -14 18t-37 7q-34 0 -45 -14v1q-7 -8 -7 -35h-61zM146 266q0 -79 27 -120.5t78 -41.5t78 41.5t27 120.5q0 78 -27 120t-77 42q-106 0 -106 -162z" />
<glyph unicode="&#x1ee0;" horiz-adv-x="638" d="M36 358q0 179 77.5 279t209.5 100q128 0 204 -104q19 34 19 86h-57v115h114v-115q0 -86 -44 -141q43 -89 43 -219q0 -177 -77 -277.5t-206 -100.5q-130 0 -206.5 101t-76.5 276zM159 361q0 -119 42.5 -186t117.5 -67t117.5 67.5t42.5 186.5q0 113 -43 180.5t-115 67.5 q-76 0 -119 -66.5t-43 -182.5zM173 788q21 123 99 123q6 0 55.5 -18t54.5 -18q29 0 39 40h53q-20 -120 -88 -120q-11 0 -62 18t-61 18q-29 0 -38 -43h-52z" />
<glyph unicode="&#x1ee1;" horiz-adv-x="512" d="M28 265q0 129 61 205t165 76q109 0 168 -89q14 31 14 76h-57v115h114v-115q0 -82 -40 -136q21 -57 21 -132q0 -127 -61 -203t-162 -76t-162 76t-61 203zM100 612q20 123 99 123q6 0 55.5 -18t54.5 -18q29 0 39 40h53q-20 -120 -88 -120q-11 0 -62 18t-61 18 q-29 0 -38 -43h-52zM146 266q0 -79 27 -120.5t78 -41.5t78 41.5t27 120.5q0 78 -27 120t-77 42q-106 0 -106 -162z" />
<glyph unicode="&#x1ee2;" horiz-adv-x="638" d="M36 358q0 179 77.5 279t209.5 100q128 0 204 -104q19 34 19 86h-57v115h114v-115q0 -86 -44 -141q43 -89 43 -219q0 -177 -77 -277.5t-206 -100.5q-130 0 -206.5 101t-76.5 276zM159 361q0 -119 42.5 -186t117.5 -67t117.5 67.5t42.5 186.5q0 113 -43 180.5t-115 67.5 q-76 0 -119 -66.5t-43 -182.5zM267 -85h114v-115h-114v115z" />
<glyph unicode="&#x1ee3;" horiz-adv-x="512" d="M28 265q0 129 61 205t165 76q109 0 168 -89q14 31 14 76h-57v115h114v-115q0 -82 -40 -136q21 -57 21 -132q0 -127 -61 -203t-162 -76t-162 76t-61 203zM146 266q0 -79 27 -120.5t78 -41.5t78 41.5t27 120.5q0 78 -27 120t-77 42q-106 0 -106 -162zM195 -85h114v-115 h-114v115z" />
<glyph unicode="&#x1ee4;" horiz-adv-x="592" d="M59 242v476h125v-466q0 -69 29 -106.5t82 -37.5q56 0 85 35t29 102v473h125v-467q0 -132 -61 -201t-178 -69q-113 0 -174.5 68.5t-61.5 192.5zM241 -85h114v-115h-114v115z" />
<glyph unicode="&#x1ee5;" horiz-adv-x="501" d="M54 182v350h114v-330q0 -98 74 -98q43 0 67 32.5t24 88.5v307h114v-532h-110v78q-44 -92 -136 -92q-70 0 -108.5 51t-38.5 145zM195 -85h114v-115h-114v115z" />
<glyph unicode="&#x1ee6;" horiz-adv-x="592" d="M59 242v476h125v-466q0 -69 29 -106.5t82 -37.5q56 0 85 35t29 102v473h125v-467q0 -132 -61 -201t-178 -69q-113 0 -174.5 68.5t-61.5 192.5zM187 859q0 92 116 92q51 0 80.5 -18.5t29.5 -50.5q0 -19 -10.5 -32t-39.5 -30q-23 -15 -29 -20t-6 -12v-24h-62v27q0 18 11 30 t42 28v-1q32 20 32 34q0 11 -14 18t-37 7q-34 0 -45 -14v1q-7 -8 -7 -35h-61z" />
<glyph unicode="&#x1ee7;" horiz-adv-x="501" d="M54 182v350h114v-330q0 -98 74 -98q43 0 67 32.5t24 88.5v307h114v-532h-110v78q-44 -92 -136 -92q-70 0 -108.5 51t-38.5 145zM141 673q0 92 116 92q51 0 80.5 -18.5t29.5 -50.5q0 -19 -10.5 -32t-39.5 -30q-23 -15 -29 -20t-6 -12v-24h-62v27q0 18 11 30t42 28v-1 q32 20 32 34q0 11 -14 18t-37 7q-34 0 -45 -14v1q-7 -8 -7 -35h-61z" />
<glyph unicode="&#x1ee8;" horiz-adv-x="686" d="M59 242v476h125v-466q0 -69 29 -106.5t82 -37.5q56 0 85 35t29 102v473h125v-123q38 0 57 36.5t19 87.5h-57v115h114v-115q0 -75 -36 -130.5t-97 -55.5v-282q0 -132 -61 -201t-178 -69q-113 0 -174.5 68.5t-61.5 192.5zM258 788l72 126h131l-125 -126h-78z" />
<glyph unicode="&#x1ee9;" horiz-adv-x="599" d="M54 182v350h114v-330q0 -98 74 -98q43 0 67 32.5t24 88.5v307h114v-123q38 0 57 36.5t19 87.5h-57v115h114v-115q0 -75 -36 -130.5t-97 -55.5v-347h-110v78q-44 -92 -136 -92q-70 0 -108.5 51t-38.5 145zM209 602l77 146h126l-120 -146h-83z" />
<glyph unicode="&#x1eea;" horiz-adv-x="686" d="M59 242v476h125v-466q0 -69 29 -106.5t82 -37.5q56 0 85 35t29 102v473h125v-123q38 0 57 36.5t19 87.5h-57v115h114v-115q0 -75 -36 -130.5t-97 -55.5v-282q0 -132 -61 -201t-178 -69q-113 0 -174.5 68.5t-61.5 192.5zM134 914h131l72 -126h-78z" />
<glyph unicode="&#x1eeb;" horiz-adv-x="599" d="M54 182v350h114v-330q0 -98 74 -98q43 0 67 32.5t24 88.5v307h114v-123q38 0 57 36.5t19 87.5h-57v115h114v-115q0 -75 -36 -130.5t-97 -55.5v-347h-110v78q-44 -92 -136 -92q-70 0 -108.5 51t-38.5 145zM89 748h126l77 -146h-83z" />
<glyph unicode="&#x1eec;" horiz-adv-x="686" d="M59 242v476h125v-466q0 -69 29 -106.5t82 -37.5q56 0 85 35t29 102v473h125v-123q38 0 57 36.5t19 87.5h-57v115h114v-115q0 -75 -36 -130.5t-97 -55.5v-282q0 -132 -61 -201t-178 -69q-113 0 -174.5 68.5t-61.5 192.5zM187 859q0 92 116 92q51 0 80.5 -18.5t29.5 -50.5 q0 -19 -10.5 -32t-39.5 -30q-23 -15 -29 -20t-6 -12v-24h-62v27q0 18 11 30t42 28v-1q32 20 32 34q0 11 -14 18t-37 7q-34 0 -45 -14v1q-7 -8 -7 -35h-61z" />
<glyph unicode="&#x1eed;" horiz-adv-x="599" d="M54 182v350h114v-330q0 -98 74 -98q43 0 67 32.5t24 88.5v307h114v-123q38 0 57 36.5t19 87.5h-57v115h114v-115q0 -75 -36 -130.5t-97 -55.5v-347h-110v78q-44 -92 -136 -92q-70 0 -108.5 51t-38.5 145zM141 673q0 92 116 92q51 0 80.5 -18.5t29.5 -50.5 q0 -19 -10.5 -32t-39.5 -30q-23 -15 -29 -20t-6 -12v-24h-62v27q0 18 11 30t42 28v-1q32 20 32 34q0 11 -14 18t-37 7q-34 0 -45 -14v1q-7 -8 -7 -35h-61z" />
<glyph unicode="&#x1eee;" horiz-adv-x="686" d="M59 242v476h125v-466q0 -69 29 -106.5t82 -37.5q56 0 85 35t29 102v473h125v-123q38 0 57 36.5t19 87.5h-57v115h114v-115q0 -75 -36 -130.5t-97 -55.5v-282q0 -132 -61 -201t-178 -69q-113 0 -174.5 68.5t-61.5 192.5zM147 788q21 123 99 123q6 0 55.5 -18t54.5 -18 q29 0 39 40h53q-20 -120 -88 -120q-11 0 -62 18t-61 18q-29 0 -38 -43h-52z" />
<glyph unicode="&#x1eef;" horiz-adv-x="599" d="M54 182v350h114v-330q0 -98 74 -98q43 0 67 32.5t24 88.5v307h114v-123q38 0 57 36.5t19 87.5h-57v115h114v-115q0 -75 -36 -130.5t-97 -55.5v-347h-110v78q-44 -92 -136 -92q-70 0 -108.5 51t-38.5 145zM100 612q20 123 99 123q6 0 55.5 -18t54.5 -18q29 0 39 40h53 q-20 -120 -88 -120q-11 0 -62 18t-61 18q-29 0 -38 -43h-52z" />
<glyph unicode="&#x1ef0;" horiz-adv-x="686" d="M59 242v476h125v-466q0 -69 29 -106.5t82 -37.5q56 0 85 35t29 102v473h125v-123q38 0 57 36.5t19 87.5h-57v115h114v-115q0 -75 -36 -130.5t-97 -55.5v-282q0 -132 -61 -201t-178 -69q-113 0 -174.5 68.5t-61.5 192.5zM241 -85h114v-115h-114v115z" />
<glyph unicode="&#x1ef1;" horiz-adv-x="599" d="M54 182v350h114v-330q0 -98 74 -98q43 0 67 32.5t24 88.5v307h114v-123q38 0 57 36.5t19 87.5h-57v115h114v-115q0 -75 -36 -130.5t-97 -55.5v-347h-110v78q-44 -92 -136 -92q-70 0 -108.5 51t-38.5 145zM195 -85h114v-115h-114v115z" />
<glyph unicode="&#x1ef2;" horiz-adv-x="547" d="M12 718h145l122 -312l117 312h139l-197 -449v-269h-123v271zM114 914h131l72 -126h-78z" />
<glyph unicode="&#x1ef3;" d="M8 532h128l94 -396l90 396h122l-150 -523q-44 -154 -68 -186q-27 -37 -98 -37l-55 2v112q16 -2 24 -2q37 0 51.5 15.5t22.5 64.5zM67 748h126l77 -146h-83z" />
<glyph unicode="&#x1ef4;" horiz-adv-x="547" d="M12 718h145l122 -312l117 312h139l-197 -449v-269h-123v271zM221 -85h114v-115h-114v115z" />
<glyph unicode="&#x1ef5;" d="M8 532h128l94 -396l90 396h122l-150 -523q-44 -154 -68 -186q-27 -37 -98 -37l-55 2v112q16 -2 24 -2q37 0 51.5 15.5t22.5 64.5zM308 -85h114v-115h-114v115z" />
<glyph unicode="&#x1ef6;" horiz-adv-x="547" d="M12 718h145l122 -312l117 312h139l-197 -449v-269h-123v271zM167 859q0 92 116 92q51 0 80.5 -18.5t29.5 -50.5q0 -19 -10.5 -32t-39.5 -30q-23 -15 -29 -20t-6 -12v-24h-62v27q0 18 11 30t42 28v-1q32 20 32 34q0 11 -14 18t-37 7q-34 0 -45 -14v1q-7 -8 -7 -35h-61z " />
<glyph unicode="&#x1ef7;" d="M8 532h128l94 -396l90 396h122l-150 -523q-44 -154 -68 -186q-27 -37 -98 -37l-55 2v112q16 -2 24 -2q37 0 51.5 15.5t22.5 64.5zM118 673q0 92 116 92q51 0 80.5 -18.5t29.5 -50.5q0 -19 -10.5 -32t-39.5 -30q-23 -15 -29 -20t-6 -12v-24h-62v27q0 18 11 30t42 28v-1 q32 20 32 34q0 11 -14 18t-37 7q-34 0 -45 -14v1q-7 -8 -7 -35h-61z" />
<glyph unicode="&#x1ef8;" horiz-adv-x="547" d="M12 718h145l122 -312l117 312h139l-197 -449v-269h-123v271zM127 788q21 123 99 123q6 0 55.5 -18t54.5 -18q29 0 39 40h53q-20 -120 -88 -120q-11 0 -62 18t-61 18q-29 0 -38 -43h-52z" />
<glyph unicode="&#x1ef9;" d="M8 532h128l94 -396l90 396h122l-150 -523q-44 -154 -68 -186q-27 -37 -98 -37l-55 2v112q16 -2 24 -2q37 0 51.5 15.5t22.5 64.5zM77 612q21 123 99 123q6 0 55.5 -18t54.5 -18q29 0 39 40h53q-20 -120 -88 -120q-11 0 -62 18t-61 18q-29 0 -38 -43h-52z" />
<glyph unicode="&#x2000;" horiz-adv-x="552" />
<glyph unicode="&#x2001;" horiz-adv-x="1105" />
<glyph unicode="&#x2002;" horiz-adv-x="552" />
<glyph unicode="&#x2003;" horiz-adv-x="1105" />
<glyph unicode="&#x2004;" horiz-adv-x="368" />
<glyph unicode="&#x2005;" horiz-adv-x="276" />
<glyph unicode="&#x2006;" horiz-adv-x="184" />
<glyph unicode="&#x2007;" horiz-adv-x="184" />
<glyph unicode="&#x2008;" horiz-adv-x="138" />
<glyph unicode="&#x2009;" horiz-adv-x="221" />
<glyph unicode="&#x200a;" horiz-adv-x="61" />
<glyph unicode="&#x2010;" horiz-adv-x="273" d="M22 215v130h229v-130h-229z" />
<glyph unicode="&#x2011;" horiz-adv-x="273" d="M22 215v130h229v-130h-229z" />
<glyph unicode="&#x2012;" horiz-adv-x="273" d="M22 215v130h229v-130h-229z" />
<glyph unicode="&#x2013;" d="M0 226v107h456v-107h-456z" />
<glyph unicode="&#x2014;" horiz-adv-x="820" d="M0 226v107h820v-107h-820z" />
<glyph unicode="&#x2016;" horiz-adv-x="479" d="M111 -196v918h86v-918h-86zM283 -196v918h86v-918h-86z" />
<glyph unicode="&#x2018;" horiz-adv-x="228" d="M57 454v102q0 70 25.5 111.5t86.5 59.5v-51q-33 -13 -46 -34t-14 -61h62v-127h-114z" />
<glyph unicode="&#x2019;" horiz-adv-x="228" d="M57 591v127h114v-102q0 -70 -26 -112t-86 -59v51q33 14 46.5 34.5t14.5 60.5h-63z" />
<glyph unicode="&#x201a;" horiz-adv-x="228" d="M57 0v127h114v-102q0 -70 -26 -112t-86 -59v51q33 14 46.5 34.5t14.5 60.5h-63z" />
<glyph unicode="&#x201c;" horiz-adv-x="410" d="M52 454v102q0 71 26 112t87 59v-51q-33 -13 -46 -34t-15 -61h62v-127h-114zM244 454v102q0 70 25.5 111.5t86.5 59.5v-51q-33 -13 -46 -34t-15 -61h63v-127h-114z" />
<glyph unicode="&#x201d;" horiz-adv-x="410" d="M52 591v127h114v-102q0 -70 -26 -112t-86 -59v51q33 13 46 34t15 61h-63zM244 591v127h114v-102q0 -71 -26.5 -112t-86.5 -59v51q33 14 46.5 34.5t14.5 60.5h-62z" />
<glyph unicode="&#x201e;" horiz-adv-x="410" d="M52 0v127h114v-102q0 -70 -26 -112t-86 -59v51q33 13 46 34t15 61h-63zM244 0v127h114v-102q0 -71 -26.5 -112t-86.5 -59v51q33 14 46.5 34.5t14.5 60.5h-62z" />
<glyph unicode="&#x2020;" d="M30 387v112h143v219h110v-219h143v-112h-143v-558h-110v558h-143z" />
<glyph unicode="&#x2021;" d="M30 45v112h142v240h-142v112h142v209h110v-209h144v-112h-144v-240h144v-112h-144v-216h-110v216h-142z" />
<glyph unicode="&#x2022;" horiz-adv-x="287" d="M8 359q0 70 39.5 117.5t97.5 47.5q55 0 94.5 -48t39.5 -116q0 -69 -39.5 -117.5t-96.5 -48.5q-56 0 -95.5 48t-39.5 117z" />
<glyph unicode="&#x2026;" horiz-adv-x="820" d="M75 0v147h123v-147h-123zM348 0v147h123v-147h-123zM622 0v147h123v-147h-123z" />
<glyph unicode="&#x202f;" horiz-adv-x="221" />
<glyph unicode="&#x2030;" horiz-adv-x="820" d="M-2 520q0 190 128 190q125 0 125 -189t-126 -189q-127 0 -127 188zM76 -19l326 729h61l-326 -729h-61zM80 515q0 -63 9.5 -88t34.5 -25q26 0 35.5 26t9.5 93t-9.5 93t-34.5 26q-26 0 -35.5 -26t-9.5 -99zM294 176q0 190 128 190q124 0 124 -189t-126 -189t-126 188z M376 173q0 -65 9.5 -90t34.5 -25t34.5 26t9.5 93t-9.5 93t-34.5 26t-34.5 -26t-9.5 -97zM569 176q0 190 128 190q125 0 125 -189t-126 -189q-127 0 -127 188zM651 172q0 -64 9.5 -89t34.5 -25q26 0 35.5 26t9.5 93t-9.5 93t-34.5 26q-26 0 -35.5 -26t-9.5 -98z" />
<glyph unicode="&#x2031;" horiz-adv-x="1096" d="M-2 520q0 190 128 190q125 0 125 -189t-126 -189q-127 0 -127 188zM76 -19l326 729h61l-326 -729h-61zM80 515q0 -63 9.5 -88t34.5 -25q26 0 35.5 26t9.5 93t-9.5 93t-34.5 26q-26 0 -35.5 -26t-9.5 -99zM294 176q0 190 128 190q124 0 124 -189t-126 -189t-126 188z M376 173q0 -65 9.5 -90t34.5 -25t34.5 26t9.5 93t-9.5 93t-34.5 26t-34.5 -26t-9.5 -97zM569 176q0 190 128 190q125 0 125 -189t-126 -189q-127 0 -127 188zM651 172q0 -64 9.5 -89t34.5 -25q26 0 35.5 26t9.5 93t-9.5 93t-34.5 26q-26 0 -35.5 -26t-9.5 -98zM845 176 q0 190 128 190q125 0 125 -189t-126 -189q-127 0 -127 188zM927 172q0 -64 9.5 -89t34.5 -25q26 0 35.5 26t9.5 93t-9.5 93t-34.5 26q-26 0 -35.5 -26t-9.5 -98z" />
<glyph unicode="&#x2039;" horiz-adv-x="273" d="M68 220v120l137 144v-116l-82 -88l82 -88v-116z" />
<glyph unicode="&#x203a;" horiz-adv-x="273" d="M68 76v116l82 88l-82 88v116l137 -144v-120z" />
<glyph unicode="&#x203b;" horiz-adv-x="479" d="M0 251q0 25 18 43t43 18t43 -18t18 -43t-18 -43t-43 -18t-43 18t-18 43zM80 152l99 99l-99 98l61 61l99 -99l98 99l61 -61l-98 -98l98 -99l-61 -61l-98 99l-99 -99zM179 72q0 25 18 43t43 18t43 -18t18 -43q0 -26 -17.5 -43.5t-43.5 -17.5t-43.5 17.5t-17.5 43.5z M179 429q0 25 17.5 43t43.5 18t43.5 -18t17.5 -43t-18 -43t-43 -18t-43 18t-18 43zM357 251q0 25 18 43t43 18t43 -18t18 -43t-17.5 -43t-43.5 -18q-25 0 -43 18t-18 43z" />
<glyph unicode="&#x203d;" horiz-adv-x="501" d="M49 493q0 94 38 152t105 75v58h126v-61q64 -19 101 -71.5t37 -126.5q0 -58 -21 -98t-78 -91q-31 -27 -40.5 -50t-10.5 -72h-108q0 87 20 127l-25 248q-28 -30 -28 -74v-16h-116zM195 0v142h120v-142h-120zM302 431q31 34 31 81q0 39 -17 64z" />
<glyph unicode="&#x2044;" horiz-adv-x="137" d="M-139 -25l351 735h64l-350 -735h-65z" />
<glyph unicode="&#x2045;" horiz-adv-x="374" d="M57 -15v158q0 72 61 120q-61 48 -61 120v158q0 83 77.5 131t182.5 48v-118q-33 0 -53 -1.5t-44.5 -7t-36.5 -18.5t-12 -34v-158q0 -21 12 -34t36.5 -18.5t44.5 -7t53 -1.5v-118q-33 0 -53 -1.5t-44.5 -7t-36.5 -18.5t-12 -34v-158q0 -21 12 -34t36.5 -18.5t44.5 -7 t53 -1.5v-118q-105 0 -182.5 48t-77.5 131z" />
<glyph unicode="&#x2046;" horiz-adv-x="374" d="M57 -76q33 0 53 1.5t44.5 7t36.5 18.5t12 34v158q0 21 -12 34t-36.5 18.5t-44.5 7t-53 1.5v118q33 0 53 1.5t44.5 7t36.5 18.5t12 34v158q0 21 -12 34t-36.5 18.5t-44.5 7t-53 1.5v118q105 0 182.5 -48t77.5 -131v-158q0 -72 -61 -120q61 -48 61 -120v-158 q0 -83 -77.5 -131t-182.5 -48v118z" />
<glyph unicode="&#x2052;" d="M23 0l284 718h126l-284 -718h-126zM39 582q0 32 23 54.5t55 22.5t54.5 -22.5t22.5 -54.5t-22.5 -55t-54.5 -23t-55 23t-23 55zM262 137q0 32 22.5 54.5t54.5 22.5t55 -22.5t23 -54.5t-23 -55t-55 -23t-54.5 23t-22.5 55z" />
<glyph unicode="&#x205f;" horiz-adv-x="276" />
<glyph unicode="&#x20a1;" horiz-adv-x="592" d="M36 357q0 158 60 257t165 119v68h70v-65q94 -8 156 -74.5t74 -178.5h-123q-14 58 -39.5 88t-67.5 35v-493q80 12 107 133h123q-48 -249 -230 -264v-65h-70v68q-105 18 -165 116t-60 256zM161 356q0 -94 26 -155t74 -81v476q-100 -44 -100 -240z" />
<glyph unicode="&#x20a4;" d="M23 262v60h75l-27 58h-48v60h26q-12 37 -12 76q0 88 55 145t141 57q91 0 142 -57.5t56 -173.5h-107q-10 73 -29.5 96t-58.5 23q-37 0 -60.5 -26t-23.5 -67q0 -20 18 -73h139v-60h-117l18 -58h99v-60h-94q-1 -46 -20.5 -81t-67.5 -83q62 29 100 29q16 0 55.5 -12.5 t45.5 -12.5q35 0 82 36l34 -109q-62 -45 -122 -45q-38 0 -102 26q-34 14 -59 14q-17 0 -32.5 -6t-57.5 -29l-45 97q39 27 65 69t26 77q0 14 -3 30h-91z" />
<glyph unicode="&#x20a6;" horiz-adv-x="592" d="M-4 264v82h61v97h-61v83h61v192h129l90 -192h146v192h114v-192h61v-83h-61v-97h61v-82h-61v-264h-122l-124 264h-119v-264h-114v264h-61zM171 346h80l-46 97h-34v-97zM315 443l45 -97h62v97h-107zM399 264l23 -50v50h-23z" />
<glyph unicode="&#x20a9;" horiz-adv-x="774" d="M13 264v82h86l-22 97h-64v83h45l-45 192h131l37 -192h110l30 192h131l32 -192h118l35 192h125l-44 -192h44v-83h-63l-23 -97h86v-82h-105l-61 -264h-118l-43 264h-97l-19 -122l-25 -142h-114l-61 264h-106zM196 443l18 -97h50l15 97h-83zM228 264l11 -77l12 77h-23z M351 346h71l-16 97h-39zM380 526h12l-6 39zM498 443l16 -97h55l18 97h-89zM527 264l13 -77l14 77h-27z" />
<glyph unicode="&#x20ab;" horiz-adv-x="523" d="M57 0h409v-118h-409v118zM57 339q0 105 42.5 169t112.5 64q36 0 61 -17t47 -56v109h-95v62h95v48h97v-48h49v-62h-49v-500h-95v59q-36 -71 -109 -71q-71 0 -113.5 66t-42.5 177zM157 332q0 -64 22 -101t60 -37q41 0 63 35.5t22 99.5q0 66 -21.5 102.5t-60.5 36.5 q-40 0 -62.5 -36t-22.5 -100z" />
<glyph unicode="&#x20ac;" horiz-adv-x="440" d="M0 231l29 83h51v29h-80l29 83h51v69q0 85 50.5 134t139.5 49q49 0 85 -13t78 -46l-41 -110q-55 56 -113 56q-29 0 -42.5 -23t-13.5 -75v-41h143l-28 -83h-115v-29h107l-29 -83h-78v-24q0 -71 12 -89.5t44 -18.5q57 0 122 47v-130q-65 -28 -131 -28q-99 0 -144.5 52.5 t-45.5 171.5v19h-80z" />
<glyph unicode="&#x20b1;" horiz-adv-x="547" d="M5 142v71h57v505h269q83 0 133 -61t50 -162q0 -107 -51.5 -171t-136.5 -64h-141v-47h89v-71h-89v-142h-123v142h-57zM185 383h114q92 0 92 109q0 55 -25 79t-83 24h-98v-212z" />
<glyph unicode="&#x2103;" horiz-adv-x="977" d="M47 569q0 59 34.5 101t83.5 42q47 0 81.5 -42.5t34.5 -100.5q0 -59 -34.5 -101t-82.5 -42t-82.5 42t-34.5 101zM93 569q0 -35 21 -60.5t50 -25.5t50 25.5t21 60.5t-21 60.5t-49 25.5q-30 0 -51 -25t-21 -61zM338 357q0 175 73.5 277.5t199.5 102.5q102 0 170.5 -68 t81.5 -186h-123q-15 64 -45 94t-81 30q-71 0 -111 -66.5t-40 -184.5q0 -115 39 -180t108 -65q51 0 82.5 31.5t47.5 103.5h123q-50 -265 -255 -265q-125 0 -197.5 100.5t-72.5 275.5z" />
<glyph unicode="&#x2113;" horiz-adv-x="470" d="M30 180q19 19 56 53t46 42v299q0 60 43.5 102t103.5 42t103.5 -42t43.5 -102q0 -90 -47 -164t-133 -155v-135q0 -20 33 -20q62 0 95 12l66 -40q-25 -40 -66 -63t-88 -23q-62 0 -108 38.5t-46 95.5v30l-37 -36zM246 396q65 88 65 178q0 13 -9.5 21t-23.5 8 q-13 0 -22.5 -8.5t-9.5 -20.5v-178z" />
<glyph unicode="&#x2116;" horiz-adv-x="592" d="M16 0l210 718h142l208 -718h-134l-38 148h-217l-41 -148h-130zM220 271h150l-74 288zM244 -60h104v-115h-104v115z" />
<glyph unicode="&#x2117;" horiz-adv-x="604" d="M20 329q0 141 79.5 244.5t202.5 103.5t202.5 -103.5t79.5 -244.5t-79.5 -244.5t-202.5 -103.5t-202.5 103.5t-79.5 244.5zM76 329q0 -118 62.5 -205t163.5 -87t163.5 87t62.5 205t-62.5 205t-163.5 87t-163.5 -87t-62.5 -205zM197 138v383h159q50 0 80 -33t30 -88 q0 -58 -31 -93t-82 -35h-73v-134h-83zM280 348h58q45 0 45 50q0 25 -12.5 36t-41.5 11h-49v-97z" />
<glyph unicode="&#x2118;" horiz-adv-x="595" d="M57 -125q0 44 50 212q-48 134 -48 216q0 140 104 276l73 -56q-63 -83 -63 -220v-9q44 120 93 190.5t110 70.5q56 0 94 -42.5t53 -103t15 -133.5q0 -58 -8 -108t-26 -94t-50.5 -69.5t-77.5 -25.5q-39 0 -71 25.5t-50 65.5l84 38q5 -11 37 -11q17 0 27.5 15t14.5 46.5t5 54 t1 63.5q0 37 -1 57t-5 48.5t-14.5 42t-27.5 13.5q-10 0 -22 -14t-26 -44.5t-25 -58.5t-27 -76.5t-25 -76t-24 -77.5q32 -96 32 -215q0 -45 -33.5 -77t-79.5 -32q-39 0 -64 32.5t-25 76.5zM137 -125q0 -27 9 -27q13 0 23 7.5t10 19.5q0 8 -22 74q-20 -38 -20 -74z" />
<glyph unicode="&#x211e;" horiz-adv-x="592" d="M62 0v718h297q85 0 135.5 -55.5t50.5 -148.5q0 -127 -91 -170q37 -20 52.5 -44.5t19.5 -77.5l66 46l40 -57l-103 -74v-9q0 -61 4.5 -81t21.5 -28v-19h-136q-6 29 -9 52l-32 -22l-41 58l68 48v8q0 65 -10 94t-27 35.5t-59 6.5h-127v-280h-120zM182 402h145q49 0 72 23.5 t23 72.5q0 47 -22.5 72t-63.5 25h-154v-193z" />
<glyph unicode="&#x2120;" horiz-adv-x="839" d="M57 455h84q0 -61 70 -61q65 0 65 42q0 16 -12.5 24t-46.5 17l-38 10q-71 18 -94 42.5t-23 73.5q0 58 37.5 91.5t103.5 33.5q68 0 106 -35t40 -101h-84q-3 31 -18 44.5t-46 13.5q-56 0 -56 -40q0 -25 32 -33l86 -22q52 -14 74.5 -40t22.5 -70q0 -60 -40 -95t-110 -35 q-73 0 -113 36t-40 104zM427 325v393h120l59 -275l57 275h119v-393h-82v262l-55 -262h-83l-53 261v-261h-82z" />
<glyph unicode="&#x2122;" horiz-adv-x="820" d="M57 638v80h299v-80h-106v-313h-87v313h-106zM408 325v393h120l59 -275l57 275h119v-393h-82v262l-55 -262h-83l-53 261v-261h-82z" />
<glyph unicode="&#x2126;" horiz-adv-x="634" d="M30 0v120h116v60q-87 93 -87 235q0 125 73 217.5t185 92.5t185.5 -92.5t73.5 -217.5q0 -141 -88 -235v-60h116v-120h-239v235q41 20 64.5 70t23.5 110q0 77 -37 133.5t-99 56.5t-98.5 -56.5t-36.5 -133.5q0 -60 23 -110t64 -70v-235h-239z" />
<glyph unicode="&#x2127;" horiz-adv-x="634" d="M30 598v120h239v-235q-41 -20 -64.5 -70t-23.5 -110q0 -77 37 -133.5t99 -56.5t98.5 56.5t36.5 133.5q0 60 -23 110t-64 70v235h239v-120h-116v-60q87 -93 87 -235q0 -125 -73 -217.5t-185 -92.5t-185.5 92.5t-73.5 217.5q0 141 88 235v60h-116z" />
<glyph unicode="&#x212e;" horiz-adv-x="832" d="M57 323q0 137 106.5 230t252.5 93t252.5 -93t106.5 -230v-9h-578q-9 0 -9 -9v-178q0 -2 2 -6q43 -49 102 -75.5t124 -26.5q139 0 229 106h55q-51 -58 -125.5 -91.5t-158.5 -33.5q-146 0 -252.5 93t-106.5 230zM188 342q0 -9 9 -9h438q9 0 9 9v177q0 2 -2 6 q-43 49 -102 75.5t-124 26.5t-124 -26.5t-102 -75.5q-2 -4 -2 -6v-177z" />
<glyph unicode="&#x2190;" horiz-adv-x="1000" d="M91 250l174 250l70 -50l-110 -157h661v-86h-661l110 -157l-70 -50z" />
<glyph unicode="&#x2191;" horiz-adv-x="727" d="M114 485l250 174l250 -174l-50 -70l-157 110v-661h-86v661l-157 -110z" />
<glyph unicode="&#x2192;" horiz-adv-x="1000" d="M114 207v86h661l-110 157l70 50l174 -250l-174 -250l-70 50l110 157h-661z" />
<glyph unicode="&#x2193;" horiz-adv-x="727" d="M114 15l50 70l157 -110v661h86v-661l157 110l50 -70l-250 -174z" />
<glyph unicode="&#x2202;" horiz-adv-x="405" d="M19 177q0 95 50.5 164t130.5 69q39 0 72 -15q0 47 -2 79.5t-8.5 71.5t-17.5 62.5t-32 40t-50 16.5q-23 0 -54 -35l-64 58q37 41 118 41q76 0 128 -56t74 -137t22 -177t-22 -177t-74 -137t-128 -56q-64 0 -103.5 56t-39.5 132zM133 177q0 -28 0.5 -43.5t3 -37.5t9 -32.5 t16.5 -10.5q36 0 59 22t33.5 65t14 82.5t3.5 98.5q-31 25 -72 25q-16 0 -28 -6.5t-19 -20.5t-11.5 -27t-6 -36.5t-2 -37.5t-0.5 -41z" />
<glyph unicode="&#x2211;" horiz-adv-x="585" d="M86 -9l109 324l-109 323v114h414v-114h-294l109 -324l-109 -323h294v-114h-414v114z" />
<glyph unicode="&#x2212;" horiz-adv-x="479" d="M57 207v86h365v-86h-365z" />
<glyph unicode="&#x2213;" horiz-adv-x="479" d="M57 121v86h139v130h86v-130h140v-86h-140v-140h-86v140h-139zM57 414v86h365v-86h-365z" />
<glyph unicode="&#x2215;" horiz-adv-x="0" d="M-207 -25l351 735h64l-350 -735h-65z" />
<glyph unicode="&#x2217;" horiz-adv-x="444" d="M57 259l23 88l101 -41v143h83v-143l99 41l24 -88l-103 -38l67 -117l-61 -53l-67 110l-68 -110l-62 53l66 117z" />
<glyph unicode="&#x221a;" horiz-adv-x="450" d="M33 447l76 88l140 -368l112 706l64 -10l-150 -944l-188 492l-6 -7z" />
<glyph unicode="&#x221e;" horiz-adv-x="789" d="M30 266q0 84 52.5 145.5t129.5 61.5q56 0 93.5 -34.5t78.5 -99.5q48 64 92.5 99t100.5 35q77 0 129.5 -61.5t52.5 -145.5t-52.5 -145.5t-129.5 -61.5q-56 0 -93.5 34.5t-78.5 99.5q-48 -64 -92.5 -99t-100.5 -35q-77 0 -129.5 61.5t-52.5 145.5zM87 266q0 -52 30.5 -72.5 t94.5 -20.5q33 0 62.5 28t69.5 83q-59 75 -132 75q-51 0 -88 -25.5t-37 -67.5zM445 248q59 -75 132 -75q51 0 88 25.5t37 67.5q0 52 -30.5 72.5t-94.5 20.5q-33 0 -62.5 -28t-69.5 -83z" />
<glyph unicode="&#x2222;" horiz-adv-x="479" d="M77 214v74l160 99q-21 21 -40 31l43 75q41 -24 72 -60l44 28l46 -74l-45 -27q22 -53 22 -109t-22 -109l45 -27l-46 -74l-44 28q-31 -36 -72 -60l-43 75q19 10 40 31zM182 251l101 -63q10 33 10 63t-10 63z" />
<glyph unicode="&#x2248;" horiz-adv-x="539" d="M80 130q26 52 49.5 73t57.5 21q18 0 79 -25.5t81 -25.5q35 0 56 36l56 -54q-26 -52 -49.5 -73t-57.5 -21q-18 0 -79.5 25.5t-80.5 25.5q-35 0 -56 -37zM80 378q26 52 49.5 73t57.5 21q18 0 79 -25.5t81 -25.5q35 0 56 36l56 -54q-26 -52 -49.5 -73t-57.5 -21 q-18 0 -79.5 25.5t-80.5 25.5q-35 0 -56 -37z" />
<glyph unicode="&#x2260;" horiz-adv-x="479" d="M57 117v86h116l40 94h-156v86h192l71 166l79 -34l-56 -132h79v-86h-116l-40 -94h156v-86h-192l-71 -166l-79 34l56 132h-79z" />
<glyph unicode="&#x2264;" horiz-adv-x="479" d="M82 391v58l283 318v-130l-193 -217l193 -217v-130zM114 -43v86h251v-86h-251z" />
<glyph unicode="&#x2265;" horiz-adv-x="479" d="M114 -43v86h251v-86h-251zM114 73v130l193 217l-193 217v130l283 -318v-58z" />
<glyph unicode="&#x22c6;" d="M14 238l30 90l148 -60l-11 159h94l-11 -159l148 60l30 -90l-155 -39l102 -122l-76 -56l-85 135l-85 -135l-76 56l102 122z" />
<glyph unicode="&#x2300;" horiz-adv-x="479" d="M48 120l44 44q-16 43 -16 87q0 82 46.5 142.5t117.5 60.5q57 0 101 -42l29 30l61 -61l-43 -43q16 -43 16 -87q0 -82 -46.5 -142t-117.5 -60q-58 0 -101 41l-30 -31zM162 251q0 -11 1 -16l118 118q-18 15 -41 15q-37 0 -57.5 -35t-20.5 -82zM199 149q17 -14 41 -14 q37 0 57.5 34.5t20.5 81.5q0 11 -1 16z" />
<glyph unicode="&#x2329;" horiz-adv-x="339" d="M57 263l135 459h90l-135 -459l135 -459h-90z" />
<glyph unicode="&#x232a;" horiz-adv-x="339" d="M57 -196l135 459l-135 459h90l135 -459l-135 -459h-90z" />
<glyph unicode="&#x2422;" horiz-adv-x="501" d="M-7 494v76l57 20v128h114v-87l87 32v-76l-87 -31v-96q25 46 55 66t72 20q83 0 133 -75t50 -199q0 -131 -50 -208.5t-134 -77.5q-87 0 -128 84v-70h-112v515zM160 261q0 -77 26 -118.5t74 -41.5q44 0 70 44.5t26 118.5q0 75 -26 117.5t-71 42.5q-48 0 -73.5 -42 t-25.5 -121z" />
<glyph unicode="&#x2423;" horiz-adv-x="500" d="M57 -103v310h118v-192h150v192h118v-310h-386z" />
<glyph unicode="&#x25ca;" horiz-adv-x="405" d="M15 377l161 363h51l155 -366l-161 -374h-50zM106 376l91 -224l94 222l-90 217z" />
<glyph unicode="&#x25e6;" horiz-adv-x="287" d="M8 359q0 56 40 96t96 40t95.5 -40t39.5 -96t-39.5 -95.5t-95.5 -39.5t-96 39.5t-40 95.5zM94 359q0 -20 14.5 -34.5t35.5 -14.5q20 0 34.5 14.5t14.5 34.5t-14.5 35t-34.5 15q-21 0 -35.5 -15t-14.5 -35z" />
<glyph unicode="&#x266a;" horiz-adv-x="547" d="M86 101q0 51 40.5 85t96.5 34q10 0 15 -1v499h120q0 -31 13 -70.5t25.5 -64.5t36.5 -70q43 -78 66 -139t23 -124h-122q0 57 -40 141v-290q0 -51 -41 -85.5t-96 -34.5q-56 0 -96.5 34.5t-40.5 85.5z" />
<glyph unicode="&#x26ad;" d="M-129 250q0 110 78 188t188 78q55 0 107 -22q52 22 107 22q110 0 188 -78t78 -188t-78 -188t-188 -78q-55 0 -107 22q-52 -22 -107 -22q-110 0 -188 78t-78 188zM-43 250q0 -74 53 -127t127 -53q11 0 17 1q-69 75 -69 179t69 179q-6 1 -17 1q-74 0 -127 -53t-53 -127z M171 250q0 -84 63 -137q51 54 51 137t-51 137q-63 -53 -63 -137zM334 71q5 -1 17 -1q64 0 106 53.5t42 126.5t-42 126.5t-106 53.5q-12 0 -17 -1q69 -75 69 -179t-69 -179z" />
<glyph unicode="&#x26ae;" d="M-247 250q0 107 55 186.5t145 79.5q89 0 144 -79.5t55 -186.5t-55 -186.5t-144 -79.5q-90 0 -145 79t-55 187zM-161 250q0 -74 29.5 -127t84.5 -53q26 0 43 15t25 44t10.5 56t2.5 65t-2.5 65t-10.5 56t-25 44t-43 15q-55 0 -84.5 -53t-29.5 -127zM185 -282v1064h86v-1064 h-86zM304 250q0 107 55 186.5t145 79.5q89 0 144 -79.5t55 -186.5t-55 -186.5t-144 -79.5q-90 0 -145 79t-55 187zM422 250q0 -38 2.5 -65t10.5 -56t25.5 -44t43.5 -15q55 0 84 53.5t29 126.5t-29 126.5t-84 53.5q-26 0 -43.5 -15t-25.5 -44t-10.5 -56t-2.5 -65z" />
<glyph unicode="&#x27e6;" horiz-adv-x="458" d="M57 -196v918h344v-122h-86v-674h86v-122h-344zM143 -74h86v674h-86v-674z" />
<glyph unicode="&#x27e7;" horiz-adv-x="458" d="M57 -74h86v674h-86v122h344v-918h-344v122zM229 -74h86v674h-86v-674z" />
<glyph unicode="&#x2a7d;" horiz-adv-x="479" d="M82 391v58l283 318v-130l-193 -217l193 -217v-130zM114 96v129l251 -282v-129z" />
<glyph unicode="&#x2a7e;" horiz-adv-x="479" d="M82 -57l251 282v-129l-251 -282v129zM82 73v130l193 217l-193 217v130l283 -318v-58z" />
<glyph unicode="&#xe000;" horiz-adv-x="530" d="M0 0v530h530v-530h-530z" />
<glyph unicode="&#xe001;" horiz-adv-x="514" d="M24 0l171 532h125l170 -532h-125l-30 106h-157l-32 -106h-122zM119 748h54q7 -38 26 -53.5t59 -15.5t58.5 15t26.5 54h53q-15 -146 -143 -146q-121 0 -134 146zM209 212h94l-46 164zM225 -85h114v-115h-114v115z" />
<glyph unicode="&#xe002;" horiz-adv-x="514" d="M24 0l171 532h125l170 -532h-125l-30 106h-157l-32 -106h-122zM95 883h131l72 -126h-78zM110 728h54q16 -25 36.5 -37t58.5 -12t57 12t28 37h63q-33 -126 -153 -126q-113 0 -144 126zM209 212h94l-46 164z" />
<glyph unicode="&#xe003;" horiz-adv-x="514" d="M24 0l171 532h125l170 -532h-125l-30 106h-157l-32 -106h-122zM110 728h54q16 -25 36.5 -37t58.5 -12t57 12t28 37h63q-33 -126 -153 -126q-113 0 -144 126zM146 804q0 82 116 82q51 0 80.5 -17t29.5 -45q0 -17 -10.5 -29t-39.5 -27q-23 -12 -29 -17t-6 -11v-22h-62v24 q0 17 11 27.5t42 25.5v-1q32 17 32 30q0 10 -14 16.5t-37 6.5q-34 0 -45 -13v1q-7 -8 -7 -31h-61zM209 212h94l-46 164z" />
<glyph unicode="&#xe004;" horiz-adv-x="514" d="M24 0l171 532h125l170 -532h-125l-30 106h-157l-32 -106h-122zM108 766q20 123 99 123q6 0 55.5 -18t54.5 -18q29 0 39 40h53q-19 -120 -88 -120q-11 0 -62 18t-61 18q-29 0 -38 -43h-52zM110 728h54q16 -25 36.5 -37t58.5 -12t57 12t28 37h63q-33 -126 -153 -126 q-113 0 -144 126zM209 212h94l-46 164z" />
<glyph unicode="&#xe005;" horiz-adv-x="514" d="M24 0l171 532h125l170 -532h-125l-30 106h-157l-32 -106h-122zM104 602l103 126h103l103 -126h-93l-62 62l-61 -62h-93zM209 212h94l-46 164zM219 748l72 126h131l-125 -126h-78z" />
<glyph unicode="&#xe006;" horiz-adv-x="514" d="M24 0l171 532h125l170 -532h-125l-30 106h-157l-32 -106h-122zM113 602l93 146h103l93 -146h-93l-52 82l-51 -82h-93zM209 212h94l-46 164zM225 -85h114v-115h-114v115z" />
<glyph unicode="&#xe007;" horiz-adv-x="514" d="M24 0l171 532h125l170 -532h-125l-30 106h-157l-32 -106h-122zM95 874h131l72 -126h-78zM104 602l103 126h103l103 -126h-93l-62 62l-61 -62h-93zM209 212h94l-46 164z" />
</font>
</defs>
</svg>
