<?xml version="1.0"?><svg width="46" height="46" xmlns="http://www.w3.org/2000/svg">
 <title>grid_icon</title>
 <g>
  <title>Layer 1</title>
  <g id="g3">
   <path d="m42.067795,38.182175c0,1.948822 -3.717701,1.371346 -4.989349,1.371346c-3.425114,0 -6.850235,0 -10.27562,0c-6.562525,0 -13.12505,0 -19.687032,0c-1.728947,0 -2.335245,-0.809025 -2.335245,-2.344994c0,-2.560886 0,-5.120506 0,-7.680134c0,-6.803696 0,-13.606123 0,-20.409819c0,-1.208224 -0.541549,-4.118574 1.51222,-4.118574c1.837041,0 3.674353,0 5.511394,0c7.49337,0 14.986742,0 22.480116,0c2.052956,0 4.106182,0 6.159409,0c2.067314,0 1.623833,2.327068 1.623833,3.602713c0,6.698906 0,13.397303 0,20.095703c0.000275,3.161089 0.000275,6.322931 0.000275,9.483759" id="path5" fill="#4165A5"/>
   <path d="m41.32225,37.633488c0,1.927361 -3.865887,1.32716 -5.10503,1.32716c-3.53294,0 -7.065876,0 -10.598814,0c-6.146408,0 -12.292812,0 -18.439219,0c-2.136939,0 -1.657699,-2.373779 -1.657699,-3.714321c0,-3.25779 0,-6.515589 0,-9.773886c0,-3.414095 0,-6.829195 0,-10.243795c0,-1.196863 -0.631491,-4.598078 1.46156,-4.598078c10.893291,0 21.787672,0 32.680965,0c1.994438,0 1.658241,1.907407 1.658241,3.182799c0,2.982566 0,5.965632 0,8.948201c0,4.957136 0,9.915033 0,14.87192" id="path7" fill="#FFFFFF"/>
   <path d="m40.035156,36.336128c0,1.878113 -4.034126,1.253929 -5.220711,1.253929c-3.6348,0 -7.269869,0 -10.904667,0c-3.727184,0 -7.45409,0 -11.181271,0c-1.202841,0 -4.53693,0.574696 -5.531441,-0.367645c-1.113711,-1.055206 -0.388214,-4.68898 -0.388214,-5.955788c0,-3.648163 0,-7.296328 0,-10.944237c0,-2.332371 0,-4.664234 0,-6.996101c0,-1.871046 2.969173,-1.358971 4.257892,-1.358971c5.719996,0 11.440803,0 17.160796,0c2.516754,0 5.032698,0 7.549181,0c0.945744,0 3.100292,-0.361331 3.870491,0.366634c0.807041,0.761802 0.388214,2.915653 0.388214,3.83956c0,2.716429 0,5.432856 0,8.149284c-0.000271,4.004698 -0.000271,8.008886 -0.000271,12.013334" id="path9" fill="#F4F4F4"/>
   <linearGradient gradientTransform="translate(0 -1) translate(1 0) translate(-1 0) translate(0 1) translate(1 0) translate(-1 0) translate(1 0) translate(1 0) translate(0 1) translate(0 1) translate(0 -1) translate(-1 0) translate(1 0) translate(0 1) translate(0 1) translate(1 0) translate(1 0) translate(0 1) translate(0 1) translate(1 0) translate(1 0) translate(-1.761 0) scale(0.299224 0.295628) translate(1.761 0) translate(-5.88522 0) scale(0.952687 0.951375) translate(5.88522 0) translate(7.8543 10.6666) scale(0.950338 0.897779) translate(-7.8543 -10.6666)" id="XMLID_2_" x1="-37.729936" x2="-37.689456" y1="-222.549475" y2="-222.313298">
    <stop style="vector-effect: non-scaling-stroke; " id="stop12" offset="0" stop-color="#F4F4F4"/>
    <stop style="vector-effect: non-scaling-stroke; " id="stop14" offset="1" stop-color="#CDCDCD"/>
   </linearGradient>
   <path d="m15.822843,30.773991c0,-0.571163 -0.043346,-5.620966 0.042804,-5.620966c1.177645,0 2.35475,0 3.531855,0c0.556448,0 3.165854,-0.358557 3.575197,0c0.407991,0.35754 -0.247881,5.620966 -0.042803,5.620966c-2.369108,0 -4.738214,0 -7.107053,0m8.489236,0c0,-0.571163 -0.043343,-5.620966 0.042534,-5.620966c1.177914,0 2.35475,0 3.532394,0c0.555908,0 3.165312,-0.358557 3.574387,0c0.408262,0.35754 -0.247881,5.620966 -0.042532,5.620966c-2.369108,0 -4.737944,0 -7.106783,0m-8.489236,-6.869341c0,-0.571922 -0.043346,-5.625769 0.042804,-5.625769c1.177645,0 2.35475,0 3.531855,0c0.556448,0 3.165854,-0.359058 3.575197,0c0.408806,0.358049 -0.248423,5.625769 -0.042803,5.625769c-2.369108,0 -4.738214,0 -7.107053,0m8.489236,0c0,-0.571922 -0.043343,-5.625769 0.042534,-5.625769c1.177914,0 2.35475,0 3.532394,0c0.555908,0 3.165312,-0.359058 3.574387,0c0.408806,0.358049 -0.247881,5.625769 -0.042532,5.625769c-2.369108,0 -4.737944,0 -7.106783,0m8.489237,-11.290927c-1.79207,0 -1.339649,0.361837 -1.339649,1.987452c0,1.334733 0.617401,2.42908 -0.94006,2.42908c-1.75658,0 -3.51289,0 -5.269468,0c-1.557463,0 -0.94006,-1.094347 -0.94006,-2.42908c0,-0.643883 0,-1.287766 0,-1.931143c0,-0.053531 -1.230204,-0.156804 -1.339649,-0.056309c-0.482761,0.442386 0,3.507014 0,4.201903c0,0.537579 -7.149587,0.112616 -7.149587,0.158319c0,-1.381948 0,-2.763646 0,-4.145595c0,-0.433043 -0.819774,-0.214628 -1.200403,-0.214628c-0.302065,0 -0.139247,1.305188 -0.139247,1.554409c0,0.64666 0.444562,2.862123 -0.389841,2.862123c-1.785838,0 -3.571676,0 -5.357515,0c-0.951166,0 -1.038398,1.248373 -0.276871,1.248373c1.785839,0 3.571678,0 5.357517,0c1.187941,0 0.66671,1.180452 0.66671,2.152082c0,0.434055 0.214561,3.473684 -0.179613,3.473684c-1.616522,0 -3.233041,0 -4.849018,0c-0.172571,0 -1.261358,-0.127514 -1.385706,0c-0.15794,0.162109 -0.119201,1.248375 0.179614,1.248375c1.616519,0 3.23304,0 4.849018,0c1.734365,0 1.385705,0.103527 1.385705,1.726616c0,0.590351 0.439686,3.492624 0,3.894356c-0.500914,0.458292 -3.884579,0 -4.607367,0c-0.586521,0 -1.173854,0 -1.760374,0c-0.030884,0 -0.147104,1.145861 -0.046597,1.24888c0.426413,0.43784 3.943366,0 4.606825,0c1.591055,0 1.807512,-0.351738 1.807512,1.144344c0,0.832752 0,1.665257 0,2.49725c0,0.855988 -0.076939,0.774433 0.868266,0.774433c0.96444,0 0.471384,-2.497509 0.471384,-3.271683c0,-1.601124 0.466235,-1.144344 2.148318,-1.144344c1.611912,0 3.223286,0 4.834929,0c0.360853,0 0.16634,3.180523 0.16634,3.641594c0,1.01683 1.339649,1.202927 1.339649,0.315632c0,-0.371433 -0.044971,-3.957226 0.042534,-3.957226c1.499214,0 2.997618,0 4.496292,0c1.275717,0 2.610762,-0.555511 2.610762,0.774677c0,0.431271 -0.154961,3.64135 0.139246,3.64135c0.380085,0 1.200674,0.217907 1.200674,-0.21463c0,-0.8825 0,-1.764996 0,-2.64674c0,-1.537743 -0.2766,-1.554657 1.350216,-1.554657c1.618145,0 3.236832,0 4.855251,0c0.028442,0 0.146019,-1.147377 0.045784,-1.24888c-0.124348,-0.124737 -1.179813,0 -1.350487,0c-1.618145,0 -3.236832,0 -4.855793,0c-0.094818,0 -0.044971,-3.188105 -0.044971,-3.470907c0,-1.352406 -0.550758,-2.150064 0.976627,-2.150064c1.631424,0 3.262844,0 4.89481,0c0.590042,0 0.379539,-0.268661 0.379539,-0.809271c0,-0.656761 -0.308022,-0.439104 -0.976898,-0.439104c-1.63142,0 -3.26284,0 -4.894802,0c-0.818962,0 -0.379276,-2.396757 -0.379276,-3.034832c0,-0.611563 -0.426411,-2.591187 0.379276,-2.591187c1.741138,0 3.481194,0 5.221249,0c0.938972,0 0.841171,-1.248373 0.475449,-1.248373c-1.438263,0 -2.876793,0 -4.31506,0c-1.201759,0 -1.761185,0.389862 -1.761185,-0.774681c0,-1.21353 0,-2.427565 0,-3.641599" id="path16" fill="url(#XMLID_2_)"/>
  </g>
 </g>
</svg>